<svg width="22" height="22" viewBox="0 0 22 22" fill="none" xmlns="http://www.w3.org/2000/svg">
<path d="M7.64984 12.5669C7.67203 11.535 7.69422 10.511 7.71641 9.47513L6.62917 9.53641L3.9746 9.6906C3.21124 9.70581 2.4703 9.94625 1.84853 10.3805C-0.16862 11.8631 0.11378 14.1997 1.316 15.4352C1.82029 15.9551 2.34676 16.4533 2.86517 16.9593C4.07546 18.1454 5.28575 19.3473 6.51419 20.5314C7.05216 21.0455 7.7455 21.3751 8.49051 21.471C9.23552 21.5668 9.99217 21.4238 10.6473 21.0632C11.7608 20.4306 12.2812 19.4264 12.3558 18.1948C12.4305 16.9633 12.4688 15.6863 12.5233 14.4389L12.8924 5.84373C12.8924 5.62431 12.9065 5.40488 12.9166 5.18348C12.919 4.94649 12.9958 4.71598 13.1365 4.52323C13.2171 4.40099 13.3372 4.3087 13.4776 4.26106C13.6179 4.21342 13.7705 4.21315 13.9111 4.26031C14.1223 4.33076 14.3161 4.4439 14.4799 4.59241C15.5974 5.66384 16.7041 6.74516 17.8001 7.83635C17.943 7.99054 18.0485 8.17434 18.1088 8.37405C18.1355 8.4424 18.1477 8.51542 18.1445 8.58858C18.1412 8.66173 18.1227 8.73345 18.0899 8.79928C18.0572 8.8651 18.011 8.92362 17.9542 8.97119C17.8974 9.01877 17.8312 9.05438 17.7598 9.07581C17.4548 9.18276 17.1367 9.24925 16.8137 9.27349C16.0997 9.32094 15.3856 9.32489 14.6534 9.34466C14.5989 10.3805 14.5424 11.4065 14.486 12.4502L15.3271 12.4186C16.3155 12.381 17.3019 12.3534 18.2883 12.3039C19.0352 12.2872 19.76 12.0525 20.37 11.6298C20.7553 11.3675 21.0815 11.0305 21.3286 10.6397C21.5756 10.2488 21.7382 9.81244 21.8063 9.35755C21.8744 8.90265 21.8464 8.4389 21.7243 7.995C21.6022 7.55109 21.3884 7.13647 21.0961 6.77679C20.9431 6.60245 20.7795 6.43741 20.606 6.28258C19.0084 4.70114 17.4169 3.11969 15.8112 1.56592C14.7058 0.48856 13.3906 0.233552 11.9504 0.775197C10.9418 1.14684 10.3367 1.91384 10.0341 2.91015C9.93145 3.27369 9.87388 3.64803 9.86265 4.02507C9.73154 6.84795 9.61454 9.67083 9.49352 12.4957C9.43031 13.9335 9.36845 15.3713 9.30794 16.8091C9.30487 16.8873 9.29678 16.9652 9.28373 17.0423C9.15463 17.7599 8.50915 18.0189 7.92619 17.5721C7.65271 17.3458 7.39337 17.1035 7.14959 16.8466C6.2607 15.9795 5.37383 15.1097 4.48897 14.2373C4.31564 14.0796 4.18942 13.8787 4.12387 13.6561C4.07645 13.5118 4.08724 13.3551 4.15402 13.2183C4.2208 13.0816 4.33849 12.9751 4.48292 12.9207C4.85808 12.7816 5.25578 12.7099 5.6569 12.7092L7.64984 12.5669Z" fill="#112D44"/>
</svg>
