<svg width="64" height="64" viewBox="0 0 64 64" fill="none" xmlns="http://www.w3.org/2000/svg">
<rect width="64" height="64" rx="12.8" fill="white"/>
<g clip-path="url(#clip0_4290_13977)">
<path d="M23.2726 33.9441C23.2726 34.4416 23.326 34.8441 23.4193 35.1399C23.526 35.4358 23.6585 35.7583 23.8451 36.1074C23.9118 36.2149 23.9385 36.3224 23.9385 36.4166C23.9385 36.5508 23.8585 36.6849 23.686 36.8199L22.8476 37.3841C22.7276 37.4649 22.6085 37.5049 22.5018 37.5049C22.3685 37.5049 22.236 37.4374 22.1026 37.3166C21.916 37.1149 21.7568 36.8999 21.6235 36.6849C21.4901 36.4566 21.3576 36.2016 21.211 35.8924C20.1735 37.1283 18.8693 37.7466 17.2993 37.7466C16.1818 37.7466 15.2901 37.4241 14.6385 36.7791C13.9868 36.1341 13.6543 35.2741 13.6543 34.1991C13.6543 33.0574 14.0535 32.1299 14.8651 31.4316C15.6768 30.7333 16.7543 30.3833 18.1243 30.3833C18.5768 30.3833 19.0426 30.4233 19.5343 30.4908C20.026 30.5583 20.5318 30.6658 21.0643 30.7866V29.8058C21.0643 28.7849 20.8518 28.0724 20.4393 27.6558C20.0135 27.2391 19.2951 27.0374 18.271 27.0374C17.8051 27.0374 17.3268 27.0908 16.8343 27.2124C16.3418 27.3333 15.8635 27.4808 15.3976 27.6691C15.1851 27.7633 15.0251 27.8166 14.9318 27.8441C14.8385 27.8708 14.7718 27.8841 14.7193 27.8841C14.5326 27.8841 14.4401 27.7499 14.4401 27.4674V26.8091C14.4401 26.5941 14.4668 26.4333 14.5335 26.3391C14.6001 26.2449 14.7201 26.1508 14.906 26.0566C15.3718 25.8149 15.9301 25.6133 16.5826 25.4516C17.2343 25.2766 17.926 25.1966 18.6576 25.1966C20.241 25.1966 21.3985 25.5591 22.1435 26.2849C22.8751 27.0108 23.2476 28.1124 23.2476 29.5899V33.9433L23.2726 33.9441ZM17.871 35.9858C18.3101 35.9858 18.7626 35.9049 19.241 35.7441C19.7201 35.5833 20.146 35.2874 20.5051 34.8841C20.7176 34.6291 20.8776 34.3466 20.9576 34.0241C21.0376 33.7016 21.091 33.3116 21.091 32.8549V32.2908C20.7051 32.1966 20.2926 32.1158 19.8668 32.0624C19.441 32.0091 19.0285 31.9816 18.616 31.9816C17.7243 31.9816 17.0726 32.1566 16.6335 32.5191C16.1943 32.8816 15.9818 33.3924 15.9818 34.0641C15.9818 34.6958 16.1418 35.1658 16.4743 35.4883C16.7935 35.8249 17.2593 35.9858 17.871 35.9858ZM28.5543 37.4374C28.3151 37.4374 28.1551 37.3974 28.0485 37.3033C27.9418 37.2224 27.8493 37.0349 27.7693 36.7791L24.6426 26.3933C24.5626 26.1249 24.5226 25.9499 24.5226 25.8558C24.5226 25.6408 24.6293 25.5199 24.8418 25.5199H26.146C26.3985 25.5199 26.5718 25.5599 26.6651 25.6541C26.7718 25.7349 26.851 25.9224 26.931 26.1783L29.166 35.0733L31.241 26.1783C31.3076 25.9099 31.3876 25.7349 31.4935 25.6541C31.6001 25.5733 31.786 25.5199 32.026 25.5199H33.0901C33.3426 25.5199 33.516 25.5599 33.6226 25.6541C33.7293 25.7349 33.8218 25.9224 33.8751 26.1783L35.9768 35.1808L38.2785 26.1783C38.3585 25.9099 38.4518 25.7349 38.5443 25.6541C38.651 25.5733 38.8235 25.5199 39.0635 25.5199H40.301C40.5135 25.5199 40.6335 25.6274 40.6335 25.8558C40.6335 25.9233 40.6201 25.9899 40.6068 26.0708C40.5935 26.1516 40.5668 26.2591 40.5135 26.4066L37.3076 36.7924C37.2276 37.0608 37.1343 37.2358 37.0285 37.3166C36.9226 37.3974 36.7493 37.4508 36.5226 37.4508H35.3785C35.126 37.4508 34.9526 37.4108 34.846 37.3166C34.7393 37.2224 34.6468 37.0483 34.5935 36.7791L32.5318 28.1124L30.4835 36.7658C30.4168 37.0341 30.3368 37.2091 30.231 37.3033C30.1243 37.3974 29.9385 37.4374 29.6985 37.4374H28.5543ZM45.6493 37.7999C44.9576 37.7999 44.266 37.7191 43.601 37.5583C42.936 37.3974 42.4168 37.2224 42.071 37.0208C41.8585 36.8999 41.7118 36.7658 41.6585 36.6449C41.6051 36.5241 41.5785 36.3899 41.5785 36.2691V35.5841C41.5785 35.3016 41.6851 35.1674 41.8843 35.1674C41.9643 35.1674 42.0443 35.1808 42.1235 35.2074C42.2035 35.2341 42.3226 35.2883 42.456 35.3416C42.9085 35.5433 43.4001 35.7041 43.9193 35.8116C44.4518 35.9191 44.9701 35.9724 45.5026 35.9724C46.341 35.9724 46.9926 35.8249 47.4451 35.5291C47.8976 35.2333 48.1368 34.8033 48.1368 34.2524C48.1368 33.8766 48.0168 33.5674 47.7776 33.3116C47.5385 33.0566 47.086 32.8283 46.4343 32.6133L44.5051 32.0083C43.5343 31.6991 42.816 31.2424 42.3768 30.6374C41.9376 30.0466 41.7118 29.3883 41.7118 28.6891C41.7118 28.1249 41.8318 27.6274 42.071 27.1974C42.3101 26.7674 42.6301 26.3916 43.0285 26.0958C43.4276 25.7866 43.8801 25.5583 44.4118 25.3974C44.9443 25.2374 45.5026 25.1699 46.0885 25.1699C46.381 25.1699 46.6868 25.1833 46.9801 25.2233C47.286 25.2633 47.5651 25.3174 47.8451 25.3708C48.111 25.4383 48.3643 25.5049 48.6035 25.5858C48.8426 25.6666 49.0293 25.7466 49.1626 25.8274C49.3493 25.9349 49.4818 26.0424 49.5618 26.1633C49.6418 26.2708 49.6818 26.4183 49.6818 26.6066V27.2383C49.6818 27.5208 49.5751 27.6683 49.376 27.6683C49.2693 27.6683 49.0968 27.6149 48.8701 27.5074C48.1118 27.1583 47.2601 26.9833 46.316 26.9833C45.5576 26.9833 44.9593 27.1041 44.5468 27.3591C44.1343 27.6141 43.9218 28.0041 43.9218 28.5549C43.9218 28.9308 44.0551 29.2533 44.321 29.5091C44.5868 29.7641 45.0793 30.0199 45.7843 30.2483L47.6735 30.8533C48.631 31.1624 49.3235 31.5924 49.7351 32.1433C50.1468 32.6941 50.3468 33.3258 50.3468 34.0241C50.3468 34.6016 50.2268 35.1258 50.001 35.5824C49.7618 36.0391 49.4418 36.4424 49.0301 36.7649C48.6176 37.1008 48.1251 37.3424 47.5535 37.5174C46.9526 37.7058 46.3276 37.7999 45.6493 37.7999Z" fill="#252F3E"/>
<path d="M48.1639 44.3301C43.7873 47.5951 37.4281 49.3284 31.9598 49.3284C24.2973 49.3284 17.3923 46.4667 12.1773 41.7101C11.7648 41.3342 12.1373 40.8234 12.6298 41.1192C18.2706 44.4242 25.2281 46.4267 32.4256 46.4267C37.2814 46.4267 42.6164 45.4059 47.5248 43.3092C48.2573 42.9734 48.8823 43.7926 48.1639 44.3301ZM49.9864 42.2342C49.4273 41.5084 46.2881 41.8851 44.8648 42.0592C44.4389 42.1126 44.3723 41.7367 44.7581 41.4542C47.2589 39.6809 51.3698 40.1909 51.8489 40.7826C52.3281 41.3876 51.7156 45.5392 49.3748 47.5276C49.0156 47.8367 48.6698 47.6751 48.8289 47.2726C49.3614 45.9426 50.5456 42.9459 49.9864 42.2342Z" fill="#FF9900"/>
</g>
<defs>
<clipPath id="clip0_4290_13977">
<rect width="40" height="40" fill="white" transform="translate(12 16)"/>
</clipPath>
</defs>
</svg>
