<svg width="40" height="40" viewBox="0 0 40 40" fill="none" xmlns="http://www.w3.org/2000/svg">
<rect width="40" height="40" rx="8" fill="white"/>
<path d="M25.6361 15.1386C25.659 14.7486 25.5833 14.3384 25.5055 13.9609C25.4251 13.5708 25.2699 13.2132 25.1095 12.8484C24.9272 12.4339 24.6543 12.0791 24.3643 11.7306C24.0413 11.3426 23.6182 11.0207 23.1882 10.757C22.6759 10.4428 22.0857 10.2188 21.5 10.0772C20.7589 9.89802 19.9768 9.82963 19.2143 9.84106C18.4358 9.85273 17.6307 9.94857 16.888 10.185C15.6117 10.5913 14.5118 11.3771 13.8179 12.5148C13.2874 13.3846 13.0476 14.4027 13.0043 15.4073C12.9621 16.3848 13.2342 17.3731 13.7391 18.214C14.3814 19.2837 15.4093 20.1296 16.5425 20.6629C17.2775 21.0089 18.046 21.2732 18.8419 21.4446C19.5545 21.598 20.2526 21.7533 20.9289 22.0295C20.805 21.9782 20.6811 21.9269 20.5572 21.8755C21.0675 22.087 21.554 22.3503 21.9937 22.6822C21.8887 22.6026 21.7837 22.523 21.6787 22.4434C21.9955 22.6856 22.2836 22.9607 22.5306 23.2717C22.4495 23.1687 22.3684 23.0657 22.2873 22.9627C22.4996 23.2335 22.6779 23.5272 22.8146 23.8416C22.7623 23.72 22.71 23.5984 22.6577 23.4768C22.7821 23.7678 22.8693 24.0721 22.9135 24.3847C22.895 24.2494 22.8765 24.1141 22.8579 23.9788C22.9096 24.3615 22.8913 24.7519 22.8397 25.1337C22.8583 24.9984 22.8768 24.8631 22.8953 24.7278C22.8395 25.1285 22.7371 25.5217 22.5786 25.8953C22.6309 25.7738 22.6832 25.6522 22.7355 25.5306C22.6053 25.8324 22.4393 26.117 22.2353 26.3767C22.3164 26.2737 22.3975 26.1707 22.4786 26.0677C22.2962 26.2965 22.087 26.5014 21.8539 26.6805C21.9589 26.6009 22.0639 26.5214 22.1689 26.4418C21.899 26.6459 21.6035 26.8112 21.2904 26.9423C21.4143 26.891 21.5382 26.8397 21.6621 26.7884C21.2321 26.9648 20.7792 27.074 20.3182 27.1367C20.4561 27.1186 20.594 27.1004 20.7318 27.0822C20.0179 27.1751 19.2858 27.1688 18.5722 27.0748C18.7101 27.093 18.848 27.1112 18.9859 27.1294C18.4986 27.0626 18.019 26.948 17.5647 26.7605C17.6886 26.8118 17.8125 26.8631 17.9364 26.9144C17.6291 26.7853 17.3379 26.624 17.072 26.4248C17.177 26.5044 17.282 26.584 17.3869 26.6636C17.1558 26.488 16.948 26.2863 16.7684 26.0599C16.8496 26.1629 16.9306 26.2659 17.0117 26.3689C16.8304 26.1372 16.6813 25.8839 16.5652 25.6149C16.6175 25.7365 16.6698 25.8581 16.7221 25.9797C16.5941 25.6787 16.5077 25.3622 16.463 25.0391C16.4815 25.1744 16.5001 25.3097 16.5186 25.445C16.4945 25.2667 16.4767 25.0817 16.4897 24.9016C16.5179 24.5127 16.3075 24.0903 16.034 23.8219C15.7434 23.5369 15.3447 23.3748 14.9336 23.3748C14.5226 23.3748 14.1238 23.5369 13.8333 23.822C13.526 24.1235 13.4077 24.4862 13.3776 24.9017C13.3497 25.2865 13.4255 25.6966 13.4984 26.0685C13.5746 26.4571 13.728 26.8087 13.885 27.1724C14.0634 27.5859 14.3334 27.9361 14.6201 28.284C14.9397 28.6717 15.3608 28.9923 15.7872 29.2568C16.2972 29.5732 16.8858 29.798 17.4693 29.9444C18.208 30.1296 18.9899 30.2019 19.7515 30.2003C20.5309 30.1986 21.3378 30.1076 22.0836 29.8794C23.365 29.4872 24.4669 28.7004 25.1667 27.5683C25.704 26.6992 25.944 25.679 25.9943 24.6727C26.0431 23.6956 25.7787 22.7146 25.2821 21.8692C24.654 20.7998 23.6319 19.95 22.5116 19.4092C21.7728 19.0526 20.9923 18.7821 20.1893 18.6057C19.4618 18.4458 18.7483 18.2935 18.0571 18.0108C18.181 18.062 18.3049 18.1134 18.4288 18.1647C17.9196 17.9534 17.4343 17.69 16.9961 17.358C17.101 17.4376 17.206 17.5172 17.311 17.5968C16.9953 17.3547 16.7087 17.0795 16.4631 16.7685C16.5442 16.8715 16.6253 16.9745 16.7064 17.0775C16.4953 16.8066 16.3182 16.5129 16.1828 16.1986C16.2351 16.3202 16.2873 16.4418 16.3396 16.5634C16.2163 16.2722 16.13 15.968 16.0863 15.6555C16.1049 15.7908 16.1234 15.9261 16.1419 16.0614C16.0917 15.6852 16.1085 15.3019 16.1585 14.9266C16.14 15.0619 16.1215 15.1971 16.103 15.3325C16.158 14.9322 16.2601 14.5395 16.4186 14.1664C16.3663 14.288 16.314 14.4095 16.2617 14.5311C16.392 14.2292 16.5584 13.9447 16.7627 13.685C16.6816 13.788 16.6005 13.891 16.5194 13.994C16.7025 13.7647 16.9123 13.5593 17.1459 13.3796C17.0409 13.4591 16.9359 13.5387 16.831 13.6183C17.1105 13.4066 17.4173 13.2361 17.7424 13.1014C17.6185 13.1527 17.4946 13.204 17.3707 13.2554C17.806 13.0788 18.2637 12.9692 18.7296 12.9056C18.5917 12.9238 18.4538 12.9419 18.3159 12.9601C19.0157 12.8687 19.7326 12.8689 20.4328 12.9577C20.2949 12.9395 20.157 12.9214 20.0191 12.9032C20.5043 12.9673 20.9819 13.0802 21.4339 13.2666C21.31 13.2153 21.1861 13.164 21.0622 13.1127C21.3693 13.2416 21.6599 13.4033 21.9251 13.6028C21.8202 13.5232 21.7151 13.4436 21.6102 13.3641C21.8419 13.5408 22.0499 13.7438 22.2298 13.9713C22.1487 13.8683 22.0676 13.7653 21.9865 13.6623C22.169 13.8961 22.3192 14.1514 22.4367 14.4224C22.3844 14.3008 22.3321 14.1792 22.2798 14.0576C22.4127 14.3683 22.5025 14.6954 22.549 15.0292C22.5304 14.8939 22.5119 14.7585 22.4934 14.6233C22.5164 14.7925 22.5342 14.9675 22.5241 15.1386C22.4754 15.9703 23.2688 16.6655 24.0802 16.6655C24.4912 16.6655 24.89 16.5033 25.1805 16.2183C25.4845 15.9198 25.6119 15.552 25.6361 15.1386Z" fill="#112D44"/>
<path d="M21.0388 11.3662C21.0388 10.4198 21.0388 9.47333 21.0388 8.52688C21.0388 7.69454 20.331 7 19.4828 7C18.6346 7 17.9268 7.69454 17.9268 8.52688C17.9268 9.4733 17.9268 10.4198 17.9268 11.3662C17.9268 12.1985 18.6346 12.8931 19.4828 12.8931C20.331 12.8931 21.0388 12.1985 21.0388 11.3662Z" fill="#112D44"/>
<path d="M21.0388 31.4738C21.0388 30.5403 21.0388 29.6068 21.0388 28.6734C21.0388 27.8411 20.331 27.1465 19.4828 27.1465C18.6346 27.1465 17.9268 27.8411 17.9268 28.6734C17.9268 29.6068 17.9268 30.5403 17.9268 31.4738C17.9268 32.3061 18.6346 33.0007 19.4828 33.0007C20.331 33.0007 21.0388 32.3061 21.0388 31.4738Z" fill="#112D44"/>
</svg>
