<svg width="40" height="40" viewBox="0 0 40 40" fill="none" xmlns="http://www.w3.org/2000/svg">
<rect width="40" height="40" rx="8" fill="white"/>
<path d="M11.8333 17C11.3731 17 11 17.4477 11 18C11 18.5523 11.3731 19 11.8333 19H15.1667C15.6269 19 16 18.5523 16 18C16 17.4477 15.6269 17 15.1667 17H11.8333Z" fill="#112D44"/>
<path d="M11 22C11 21.4477 11.3918 21 11.875 21H17.125C17.6083 21 18 21.4477 18 22C18 22.5523 17.6083 23 17.125 23H11.875C11.3918 23 11 22.5523 11 22Z" fill="#112D44"/>
<path fill-rule="evenodd" clip-rule="evenodd" d="M23.9999 15C23.4124 15 22.8809 15.3117 22.5798 15.8001L21.7395 17.1629L20.2425 17.5715C19.679 17.7259 19.2487 18.1614 19.079 18.7045C18.9088 19.2475 19.0173 19.8453 19.3685 20.2926L20.3628 21.5576L20.2721 23.1935C20.2405 23.7589 20.4862 24.3151 20.9472 24.6635C21.4131 25.0163 22.0255 25.0973 22.5651 24.88L23.9999 24.2974L25.4323 24.879L25.4348 24.88C25.9743 25.0971 26.5867 25.0164 27.0524 24.6636C27.5072 24.3201 27.7526 23.7745 27.7289 23.2173L27.7124 21.3589L28.6192 20.3083L28.6319 20.292C28.983 19.8448 29.091 19.2474 28.9209 18.7044C28.7512 18.1613 28.32 17.7258 27.7567 17.5714L26.2604 17.1629L25.4201 15.8001C25.1189 15.3117 24.5874 15 23.9999 15ZM23.9999 17.1216C23.8382 17.1216 23.5562 17.2232 23.3352 17.5815L22.8246 18.4097C22.7652 18.5059 22.7356 18.5539 22.6915 18.5869C22.6474 18.62 22.5929 18.6347 22.484 18.6645L21.4654 18.9426C21.0844 19.0466 21.0653 19.1762 21.0165 19.3239C20.9677 19.4715 21.0897 19.6269 21.3338 19.9374L21.9361 20.8201C22.003 20.9051 22.0364 20.9476 22.0523 20.9981C22.0681 21.0485 22.0653 21.1025 22.0593 21.2104L22 22.2773C21.9773 22.6878 22.0563 22.8914 22.1861 22.984C22.3157 23.0766 22.5062 22.9993 22.8871 22.8446L23.7819 22.4813C23.8896 22.4375 24 22.5 23.9999 22.4156C24.0566 22.4156 24.1103 22.4375 24.2179 22.4813L25.1588 22.8633C25.5229 23.0111 25.7051 23.0851 25.8332 22.9979C25.9614 22.9108 26.1354 22.6703 26.1319 22.2773L26.1197 20.8838C26.1187 20.7758 26.1182 20.7218 26.1364 20.6723C26.1546 20.6226 26.1898 20.5817 26.2604 20.5L26.6017 19.9449C26.8714 19.6324 27.0063 19.476 26.9597 19.3231C26.9131 19.1704 26.8043 19.0384 26.4061 18.9296L25.4348 18.6645C25.3259 18.6347 25.2714 18.62 25.2273 18.5869C25.1832 18.5539 25.1536 18.5059 25.0942 18.4097L24.5836 17.5815C24.3626 17.2232 24.1617 17.1216 23.9999 17.1216Z" fill="#112D44"/>
<path fill-rule="evenodd" clip-rule="evenodd" d="M15.8382 11C14.2371 11 12.9466 11 11.9316 11.1353C10.8778 11.2759 9.99056 11.5765 9.28587 12.2755C8.58119 12.9745 8.2781 13.8546 8.13641 14.8999C7.99995 15.9067 7.99998 17.1868 8 18.775V21.225C7.99998 22.8132 7.99995 24.0933 8.13641 25.1002C8.2781 26.1454 8.58119 27.0255 9.28587 27.7246C9.99056 28.4235 10.8778 28.7242 11.9316 28.8647C12.9466 29 14.2371 29 15.8382 29H24.1618C25.7629 29 27.0534 29 28.0684 28.8647C29.1222 28.7242 30.0094 28.4235 30.7142 27.7246C31.4188 27.0255 31.7219 26.1454 31.8636 25.1002C32 24.0933 32 22.8132 32 21.225V18.775C32 17.1868 32 15.9067 31.8636 14.8999C31.7219 13.8546 31.4188 12.9745 30.7142 12.2755C30.0094 11.5765 29.1222 11.2759 28.0684 11.1353C27.0534 11 25.7629 11 24.1618 11H15.8382ZM10.5276 13.5072C10.8516 13.1858 11.3066 12.9763 12.1656 12.8617C13.0499 12.7438 14.222 12.7419 15.9024 12.7419H24.0976C25.778 12.7419 26.95 12.7438 27.8344 12.8617C28.6935 12.9763 29.1483 13.1858 29.4724 13.5072C29.7964 13.8286 30.0076 14.2799 30.1232 15.132C30.242 16.0092 30.2439 17.1718 30.2439 18.8387V21.1613C30.2439 22.8282 30.242 23.9908 30.1232 24.868C30.0076 25.7202 29.7964 26.1713 29.4724 26.4928C29.1483 26.8142 28.6935 27.0237 27.8344 27.1383C26.95 27.2562 25.778 27.2581 24.0976 27.2581H15.9024C14.222 27.2581 13.0499 27.2562 12.1656 27.1383C11.3066 27.0237 10.8516 26.8142 10.5276 26.4928C10.2036 26.1713 9.99235 25.7202 9.87686 24.868C9.75796 23.9908 9.7561 22.8282 9.7561 21.1613V18.8387C9.7561 17.1718 9.75796 16.0092 9.87686 15.132C9.99235 14.2799 10.2036 13.8286 10.5276 13.5072Z" fill="#112D44"/>
</svg>
