<svg width="40" height="40" viewBox="0 0 40 40" fill="none" xmlns="http://www.w3.org/2000/svg">
<rect width="40" height="40" rx="8" fill="white"/>
<path d="M24.1429 29.4246C23.8453 29.1405 23.5452 28.8564 23.2476 28.5723C22.5295 27.8909 21.8138 27.2071 21.0957 26.5258C20.23 25.7036 19.3667 24.8815 18.501 24.0593C17.7509 23.3453 17.0008 22.6313 16.2506 21.9198C15.8867 21.5728 15.5251 21.2208 15.1562 20.8789C15.1513 20.8739 15.1464 20.8689 15.1415 20.8638C15.2866 21.2183 15.4292 21.5753 15.5743 21.9298C15.5743 21.691 15.5743 21.4496 15.5743 21.2108C15.0824 21.7136 14.5905 22.2165 14.0987 22.7193C14.5758 22.7193 15.0554 22.7193 15.5325 22.7193C16.0244 22.7193 16.5212 22.7369 17.0131 22.7143C18.196 22.659 19.379 22.307 20.3726 21.6407C21.3293 20.9996 22.1557 20.1247 22.6869 19.0838C23.2353 18.0128 23.5354 16.7909 23.4714 15.579C23.41 14.3823 23.0681 13.1855 22.4237 12.1799C21.7917 11.1943 20.926 10.3395 19.8955 9.79643C18.9191 9.28354 17.8517 9.00447 16.7524 9.00195C15.6948 9.00195 14.6348 9.00195 13.5773 9.00195C13.5428 9.00195 13.5109 9.00195 13.4764 9.00195C13.0977 9.00195 12.7017 9.1704 12.4337 9.44445C12.1779 9.70592 11.986 10.1358 12.0008 10.5105C12.018 10.9002 12.1434 11.3049 12.4337 11.5765C12.7214 11.848 13.078 12.019 13.4764 12.019C14.5118 12.019 15.5497 12.019 16.5851 12.019C16.8753 12.019 17.1655 12.0265 17.4533 12.0642C17.3229 12.0466 17.1926 12.029 17.0598 12.0114C17.5222 12.0743 17.9722 12.2 18.4026 12.3835C18.2846 12.3332 18.1665 12.283 18.0509 12.2327C18.4715 12.4162 18.865 12.6525 19.2265 12.9366C19.1281 12.8587 19.0273 12.7782 18.9289 12.7003C19.2782 12.9794 19.5905 13.2987 19.8635 13.6557C19.7873 13.5551 19.7086 13.452 19.6323 13.3515C19.9102 13.7211 20.1414 14.1233 20.321 14.5533C20.2718 14.4326 20.2226 14.3119 20.1734 14.1937C20.3529 14.6337 20.4759 15.0938 20.5374 15.5665C20.5202 15.4332 20.5029 15.3 20.4857 15.1642C20.5448 15.6268 20.5448 16.097 20.4857 16.5596C20.5029 16.4263 20.5202 16.2931 20.5374 16.1573C20.4759 16.63 20.3529 17.0901 20.1734 17.53C20.2226 17.4094 20.2718 17.2887 20.321 17.1705C20.1414 17.6004 19.9102 18.0027 19.6323 18.3723C19.7086 18.2717 19.7873 18.1686 19.8635 18.0681C19.5905 18.4251 19.2782 18.7444 18.9289 19.0235C19.0273 18.9455 19.1281 18.8651 19.2265 18.7871C18.865 19.0712 18.4715 19.3076 18.0509 19.4911C18.169 19.4408 18.287 19.3905 18.4026 19.3402C17.9722 19.5238 17.5222 19.6495 17.0598 19.7123C17.1901 19.6947 17.3205 19.6771 17.4533 19.6595C17.0155 19.7174 16.5753 19.7048 16.1351 19.7048C15.5915 19.7048 15.0505 19.7048 14.5069 19.7048C14.3717 19.7048 14.2339 19.7048 14.0987 19.7048C13.3018 19.7048 12.623 20.3962 12.623 21.2133C12.623 21.4471 12.6206 21.6809 12.623 21.9148C12.6279 22.3397 12.7976 22.7545 13.1026 23.0436C13.26 23.192 13.4174 23.3428 13.5748 23.4911C14.261 24.1423 14.9472 24.796 15.6333 25.4472C16.5433 26.312 17.4533 27.1769 18.3633 28.0443C19.1823 28.8237 20.0037 29.6031 20.8227 30.3825C21.2285 30.7697 21.6318 31.1569 22.0401 31.5415C22.045 31.5466 22.0524 31.5516 22.0573 31.5566C22.3401 31.8256 22.709 31.9991 23.1001 31.9991C23.4616 31.9991 23.8945 31.8357 24.1429 31.5566C24.4011 31.27 24.5929 30.8929 24.5757 30.4906C24.5585 30.1009 24.4306 29.7012 24.1429 29.4246Z" fill="#112D44"/>
<path d="M13.4764 12.0192C13.9093 12.0192 14.3421 12.0192 14.775 12.0192C15.8153 12.0192 16.8557 12.0192 17.896 12.0192C19.1503 12.0192 20.4021 12.0192 21.6564 12.0192C22.7435 12.0192 23.8305 12.0192 24.9176 12.0192C25.4463 12.0192 25.9751 12.0243 26.5014 12.0192C26.5088 12.0192 26.5162 12.0192 26.5236 12.0192C26.9023 12.0192 27.2983 11.8508 27.5663 11.5768C27.8221 11.3153 28.014 10.8854 27.9992 10.5107C27.982 10.121 27.8566 9.71626 27.5663 9.44473C27.2786 9.1732 26.922 9.00223 26.5236 9.00223C26.0907 9.00223 25.6579 9.00223 25.225 9.00223C24.1847 9.00223 23.1443 9.00223 22.104 9.00223C20.8497 9.00223 19.5979 9.00223 18.3436 9.00223C17.2565 9.00223 16.1695 9.00223 15.0824 9.00223C14.5537 9.00223 14.0249 8.99721 13.4986 9.00223C13.4912 9.00223 13.4838 9.00223 13.4764 9.00223C13.0977 9.00223 12.7017 9.17068 12.4337 9.44473C12.1779 9.7062 11.986 10.1361 12.0008 10.5107C12.018 10.9004 12.1434 11.3052 12.4337 11.5768C12.7214 11.8483 13.078 12.0192 13.4764 12.0192Z" fill="#112D44"/>
<path d="M13.4764 17.3708C13.9093 17.3708 14.3421 17.3708 14.775 17.3708C15.8153 17.3708 16.8557 17.3708 17.896 17.3708C19.1503 17.3708 20.4021 17.3708 21.6564 17.3708C22.7435 17.3708 23.8305 17.3708 24.9176 17.3708C25.4463 17.3708 25.9751 17.3758 26.5014 17.3708C26.5088 17.3708 26.5162 17.3708 26.5236 17.3708C26.9023 17.3708 27.2983 17.2024 27.5663 16.9283C27.8221 16.6668 28.014 16.2369 27.9992 15.8623C27.982 15.4726 27.8566 15.0678 27.5663 14.7963C27.2786 14.5248 26.922 14.3538 26.5236 14.3538C26.0907 14.3538 25.6579 14.3538 25.225 14.3538C24.1847 14.3538 23.1443 14.3538 22.104 14.3538C20.8497 14.3538 19.5979 14.3538 18.3436 14.3538C17.2565 14.3538 16.1695 14.3538 15.0824 14.3538C14.5537 14.3538 14.0249 14.3488 13.4986 14.3538C13.4912 14.3538 13.4838 14.3538 13.4764 14.3538C13.0977 14.3538 12.7017 14.5222 12.4337 14.7963C12.1779 15.0578 11.986 15.4877 12.0008 15.8623C12.018 16.252 12.1434 16.6568 12.4337 16.9283C12.7214 17.1998 13.078 17.3708 13.4764 17.3708Z" fill="#112D44"/>
</svg>
