<svg width="40" height="40" viewBox="0 0 40 40" fill="none" xmlns="http://www.w3.org/2000/svg">
<rect width="40" height="40" rx="8" fill="white"/>
<path d="M14.409 21.0858C13.7478 20.2954 13.1883 19.3714 12.8704 18.3594H11.7642V30.1497H14.409V21.0858Z" fill="#112D44"/>
<path d="M20.0001 21.5191C21.0582 21.5191 22.0925 21.2019 22.9723 20.6075C23.852 20.0132 24.5377 19.1684 24.9426 18.18C25.3475 17.1917 25.4535 16.1041 25.247 15.0549C25.0406 14.0057 24.5311 13.0419 23.7829 12.2854C23.0348 11.529 22.0815 11.0138 21.0438 10.8051C20.0061 10.5964 18.9304 10.7035 17.9529 11.1129C16.9753 11.5223 16.1398 12.2156 15.552 13.1051C14.9641 13.9946 14.6504 15.0403 14.6504 16.1101C14.6525 17.544 15.2168 18.9185 16.2196 19.9325C17.2225 20.9464 18.5819 21.5169 20.0001 21.5191ZM20.3892 13.5735C20.2131 13.3005 19.9794 13.1684 19.6943 13.1684C19.6524 13.1684 19.6135 13.1398 19.5817 13.1398H18.0823C18.0287 13.1398 17.9774 13.1183 17.9395 13.08C17.9017 13.0417 17.8804 12.9898 17.8804 12.9357C17.8804 12.8816 17.9017 12.8296 17.9395 12.7914C17.9774 12.7531 18.0287 12.7316 18.0823 12.7316H21.8675C21.921 12.7316 21.9724 12.7531 22.0102 12.7914C22.0481 12.8296 22.0693 12.8816 22.0693 12.9357C22.0693 12.9898 22.0481 13.0417 22.0102 13.08C21.9724 13.1183 21.921 13.1398 21.8675 13.1398H20.5512C20.6204 13.205 20.6798 13.2801 20.7274 13.3628C20.9328 13.6817 21.0433 14.0583 21.0519 14.5175H21.8675C21.921 14.5175 21.9724 14.5391 22.0102 14.5773C22.0481 14.6156 22.0693 14.6675 22.0693 14.7217C22.0693 14.7758 22.0481 14.8277 22.0102 14.866C21.9724 14.9043 21.921 14.9258 21.8675 14.9258H21.0272C20.9963 15.1114 20.9455 15.2931 20.8758 15.4677C20.7652 15.7165 20.6061 15.9401 20.4079 16.1251C20.2097 16.3101 19.9766 16.4527 19.7225 16.5444C19.4164 16.6591 19.0884 16.7015 18.7636 16.6684L20.7642 19.1718C20.7934 19.2142 20.8055 19.2663 20.7982 19.3174C20.7909 19.3685 20.7647 19.415 20.7249 19.4474C20.6851 19.4797 20.6346 19.4956 20.5836 19.4918C20.5327 19.488 20.485 19.4649 20.4503 19.4269L18.0682 16.4439C18.0397 16.4082 18.024 16.364 18.0234 16.3182C18.0229 16.2725 18.0375 16.2278 18.0651 16.1915C18.0926 16.1552 18.1314 16.1293 18.1753 16.118C18.2191 16.1066 18.2655 16.1105 18.3069 16.129C18.7119 16.3042 19.1683 16.3139 19.5802 16.1561C20.0036 15.9958 20.3322 15.7014 20.5058 15.3039C20.5543 15.1817 20.5923 15.0556 20.6194 14.9268H18.0823C18.0287 14.9268 17.9774 14.9053 17.9395 14.867C17.9017 14.8287 17.8804 14.7768 17.8804 14.7227C17.8804 14.6685 17.9017 14.6166 17.9395 14.5784C17.9774 14.5401 18.0287 14.5186 18.0823 14.5186H20.6481C20.6396 14.1604 20.5517 13.8256 20.3892 13.573V13.5735Z" fill="#112D44"/>
<path d="M19.9991 23.2213C23.8763 23.2213 27.0319 20.0317 27.0319 16.1104C27.0319 12.1891 23.8763 9 19.9991 9C16.1219 9 12.9663 12.1896 12.9663 16.1109C12.9663 20.0322 16.1219 23.2213 19.9991 23.2213ZM19.9991 10.3044C21.1344 10.3044 22.2442 10.6448 23.1882 11.2825C24.1322 11.9203 24.8679 12.8267 25.3024 13.8873C25.7368 14.9478 25.8505 16.1148 25.629 17.2407C25.4075 18.3665 24.8608 19.4007 24.058 20.2124C23.2553 21.0241 22.2325 21.5769 21.119 21.8008C20.0055 22.0248 18.8513 21.9098 17.8024 21.4705C16.7535 21.0313 15.857 20.2873 15.2263 19.3329C14.5955 18.3784 14.2589 17.2563 14.2589 16.1084C14.2611 14.5697 14.8666 13.0948 15.9426 12.0068C17.0187 10.9189 18.4774 10.3067 19.9991 10.3044Z" fill="#112D44"/>
<path d="M21.2629 24.8008H18.7383V30.149H21.2629V24.8008Z" fill="#112D44"/>
<path d="M25.5908 21.0717V30.1488H28.2356V13.375H26.9163C27.4399 14.653 27.5932 16.0518 27.3589 17.4123C27.1246 18.7729 26.5121 20.0407 25.5908 21.0717Z" fill="#112D44"/>
<path d="M30.7991 30.6348H9.20091C9.14763 30.6348 9.09652 30.654 9.05885 30.6882C9.02117 30.7224 9 30.7687 9 30.8171C9 30.8654 9.02117 30.9118 9.05885 30.946C9.09652 30.9802 9.14763 30.9994 9.20091 30.9994H30.7991C30.8524 30.9994 30.9035 30.9802 30.9412 30.946C30.9788 30.9118 31 30.8654 31 30.8171C31 30.7687 30.9788 30.7224 30.9412 30.6882C30.9035 30.654 30.8524 30.6348 30.7991 30.6348Z" fill="#112D44"/>
</svg>
