<svg width="32" height="32" viewBox="0 0 32 32" fill="none" xmlns="http://www.w3.org/2000/svg">
<rect width="32" height="32" rx="8" fill="#091D2E"/>
<path d="M16 8C11.5752 8 8 11.5752 8 16C8 20.4248 11.5752 24 16 24C20.4248 24 24 20.4248 24 16C24 11.5752 20.4248 8 16 8ZM16.6726 19.9646V20.9558C16.6726 21.0619 16.6018 21.1327 16.4956 21.1327H15.5044C15.3982 21.1327 15.3274 21.0619 15.3274 20.9558V19.9646C14.3363 19.8938 13.5221 19.115 13.4159 18.1239C13.4159 18.0177 13.4867 17.9115 13.6283 17.9115H14.5841C14.6549 17.9115 14.7611 17.9823 14.7611 18.0531C14.8319 18.3717 15.115 18.5841 15.4336 18.5841H16.2832C16.7788 18.5841 17.2743 18.2301 17.3097 17.6991C17.3805 17.0973 16.9204 16.6018 16.354 16.6018H15.7168C14.4779 16.6018 13.4159 15.7168 13.2743 14.4779C13.1327 13.2035 14.0885 12.0708 15.292 11.9292V11.0442C15.292 10.9381 15.3628 10.8673 15.469 10.8673H16.4602C16.5664 10.8673 16.6372 10.9381 16.6372 11.0442V12.0354C17.6283 12.1062 18.4425 12.885 18.5487 13.8761C18.5487 13.9823 18.4779 14.0885 18.3363 14.0885H17.4159C17.3451 14.0885 17.2389 14.0177 17.2389 13.9469C17.1681 13.6283 16.885 13.4159 16.5664 13.4159H15.7168C15.2212 13.4159 14.7257 13.7699 14.6903 14.3009C14.6195 14.9027 15.0796 15.3982 15.646 15.3982H16.354C17.7345 15.3982 18.8319 16.5664 18.6903 17.9823C18.5841 18.9735 17.7345 19.7876 16.6726 19.9646Z" fill="#92B0C9"/>
</svg>
