<svg width="32" height="32" viewBox="0 0 32 32" fill="none" xmlns="http://www.w3.org/2000/svg">
<rect width="32" height="32" rx="8" fill="#091D2E"/>
<path d="M16 24C16.2422 24 16.4815 23.9873 16.7182 23.9662L16.7815 23.9615C17.0062 23.9393 17.2276 23.9065 17.4469 23.8665C17.4687 23.8625 17.4916 23.8611 17.5138 23.8567C17.5174 23.8555 17.5209 23.854 17.5244 23.8524C18.0123 23.7579 18.4902 23.6175 18.9516 23.4331C18.9589 23.4309 18.9665 23.4331 18.9738 23.4291C18.9978 23.4193 19.0207 23.4065 19.0465 23.3964C19.2251 23.3236 19.3996 23.2425 19.5713 23.1567C19.6313 23.1265 19.6905 23.0964 19.7498 23.0647C19.9127 22.9782 20.072 22.8861 20.2276 22.7884C20.2604 22.768 20.2953 22.752 20.3276 22.7305C20.3353 22.7258 20.3393 22.7175 20.3465 22.712C20.7563 22.4458 21.1409 22.1429 21.4956 21.8069C21.5051 21.8018 21.5142 21.7961 21.5229 21.7898C21.5538 21.76 21.5811 21.7265 21.6116 21.6964C21.7328 21.5778 21.8496 21.4554 21.9618 21.3291C22.0182 21.2662 22.0731 21.2029 22.1273 21.1385C22.2376 21.0074 22.3436 20.8727 22.4455 20.7345C22.4687 20.7025 22.496 20.6731 22.5182 20.6407C22.524 20.6324 22.5251 20.6225 22.5302 20.6138C22.8128 20.2143 23.0583 19.7897 23.2636 19.3455C23.268 19.3375 23.2745 19.3313 23.2785 19.3229C23.2913 19.2949 23.3004 19.2651 23.3127 19.2367C23.3947 19.0527 23.4699 18.8652 23.5385 18.6742C23.5545 18.6287 23.5695 18.5833 23.5847 18.5378C23.652 18.3367 23.7124 18.1331 23.764 17.9255C23.7673 17.912 23.7727 17.8985 23.776 17.8847C23.776 17.8804 23.776 17.876 23.776 17.8716C23.8941 17.3834 23.9656 16.885 23.9898 16.3833V16.3796C23.9966 16.2543 24 16.1278 24 16C24 15.6192 23.9732 15.2389 23.9196 14.8618C23.905 14.7673 23.8537 14.6824 23.7769 14.6254C23.7001 14.5684 23.6039 14.544 23.5092 14.5574C23.4145 14.5709 23.3289 14.6211 23.271 14.6972C23.213 14.7733 23.1874 14.8691 23.1996 14.964C23.2484 15.3072 23.2728 15.6534 23.2727 16C23.2711 16.6683 23.1769 17.3332 22.9927 17.9756C22.9669 18.0673 22.9418 18.1575 22.9124 18.2498C22.8673 18.3884 22.8156 18.524 22.7622 18.6589C22.7309 18.7389 22.7007 18.8193 22.6665 18.8982C22.411 19.4819 22.0799 20.0297 21.6818 20.5273C21.6484 20.5695 21.6164 20.6127 21.5818 20.6542C21.4658 20.7931 21.3429 20.9258 21.2182 21.0542C21.1818 21.0905 21.1491 21.1269 21.1127 21.1633C20.6566 21.6134 20.143 22.0015 19.5855 22.3175C19.5324 22.3476 19.4811 22.3804 19.4273 22.4091C19.2793 22.4884 19.1262 22.5593 18.972 22.6273C18.9109 22.6545 18.8513 22.6851 18.7902 22.7109C18.1958 22.9565 17.5712 23.1218 16.9331 23.2022C16.8625 23.2113 16.7931 23.2251 16.7222 23.2324C16.4851 23.2556 16.2447 23.2687 16.0015 23.2687C14.1027 23.2244 12.2966 22.439 10.9692 21.0804C9.64193 19.7219 8.89874 17.898 8.89855 15.9987C8.89836 14.0994 9.64118 12.2754 10.9682 10.9166C12.2953 9.55776 14.1012 8.772 16 8.72727C16.2305 8.72727 16.4633 8.73818 16.6909 8.75964C16.7029 8.75964 16.7142 8.75964 16.7255 8.75964C16.7732 8.76186 16.8209 8.75465 16.8659 8.73843C16.9109 8.7222 16.9522 8.69728 16.9875 8.66509C17.0229 8.63289 17.0515 8.59405 17.0718 8.55078C17.0922 8.50751 17.1038 8.46066 17.106 8.41291C17.1082 8.36516 17.101 8.31743 17.0848 8.27246C17.0686 8.2275 17.0436 8.18616 17.0114 8.15083C16.9793 8.11549 16.9404 8.08684 16.8971 8.06651C16.8539 8.04619 16.807 8.03458 16.7593 8.03236C16.5091 8.012 16.2545 8 16 8C13.8783 8 11.8434 8.84285 10.3431 10.3431C8.84285 11.8434 8 13.8783 8 16C8 18.1217 8.84285 20.1566 10.3431 21.6569C11.8434 23.1571 13.8783 24 16 24Z" fill="#92B0C9"/>
<path d="M23.219 13.8657C23.2773 13.866 23.3348 13.8523 23.3867 13.8258C23.4385 13.7993 23.4833 13.7606 23.5171 13.7132C23.5509 13.6658 23.5728 13.6109 23.581 13.5532C23.5892 13.4955 23.5834 13.4367 23.5641 13.3817C23.3977 12.902 23.1859 12.4393 22.9314 11.9999C22.9083 11.957 22.8769 11.9192 22.839 11.8888C22.801 11.8583 22.7573 11.8357 22.7105 11.8224C22.6637 11.8091 22.6147 11.8054 22.5664 11.8114C22.5181 11.8174 22.4714 11.833 22.4293 11.8574C22.3871 11.8817 22.3503 11.9143 22.321 11.9531C22.2917 11.992 22.2704 12.0363 22.2585 12.0835C22.2467 12.1307 22.2444 12.1798 22.2519 12.2279C22.2593 12.276 22.2763 12.3222 22.302 12.3635C22.5331 12.7634 22.7255 13.1845 22.8765 13.621C22.9012 13.6923 22.9474 13.7541 23.0088 13.798C23.0701 13.8418 23.1436 13.8655 23.219 13.8657Z" fill="#92B0C9"/>
<path d="M19.3327 9.53319C19.3752 9.5551 19.4215 9.56845 19.4691 9.57245C19.5167 9.57646 19.5647 9.57104 19.6102 9.55652C19.6557 9.542 19.6979 9.51866 19.7344 9.48783C19.7709 9.457 19.801 9.41928 19.8229 9.37682C19.8448 9.33437 19.8581 9.28802 19.8621 9.24041C19.8662 9.1928 19.8607 9.14487 19.8462 9.09935C19.8317 9.05383 19.8084 9.01162 19.7775 8.97512C19.7467 8.93863 19.709 8.90856 19.6665 8.88664C19.215 8.65345 18.7422 8.4641 18.2545 8.32119C18.2087 8.30782 18.1606 8.3036 18.1132 8.30879C18.0657 8.31399 18.0197 8.32847 17.9779 8.35144C17.936 8.3744 17.899 8.40538 17.8691 8.44262C17.8392 8.47985 17.817 8.52262 17.8036 8.56846C17.7902 8.6143 17.786 8.66233 17.7912 8.7098C17.7964 8.75727 17.8109 8.80325 17.8339 8.84513C17.8568 8.887 17.8878 8.92393 17.925 8.95383C17.9623 8.98373 18.005 9.006 18.0509 9.01937C18.4936 9.14919 18.9229 9.32125 19.3327 9.53319Z" fill="#92B0C9"/>
<path d="M21.4966 11.2371C21.5607 11.3066 21.6493 11.3483 21.7436 11.3536C21.838 11.3588 21.9307 11.3271 22.0021 11.2651C22.0735 11.2032 22.1179 11.1159 22.1261 11.0218C22.1342 10.9276 22.1054 10.834 22.0457 10.7608C21.7129 10.3772 21.3446 10.0259 20.9457 9.71167C20.9083 9.68092 20.8651 9.65796 20.8188 9.64411C20.7724 9.63026 20.7237 9.62581 20.6756 9.63102C20.6275 9.63623 20.5809 9.65099 20.5385 9.67444C20.4962 9.69789 20.459 9.72956 20.429 9.76758C20.3991 9.80561 20.377 9.84923 20.3642 9.89589C20.3513 9.94255 20.3479 9.99131 20.3541 10.0393C20.3603 10.0873 20.3761 10.1336 20.4004 10.1754C20.4247 10.2173 20.4572 10.2538 20.4958 10.2829C20.8586 10.5689 21.1937 10.8883 21.4966 11.2371Z" fill="#92B0C9"/>
<path d="M9.45459 16.0005C9.45459 17.2951 9.83847 18.5606 10.5577 19.637C11.2769 20.7134 12.2992 21.5523 13.4952 22.0477C14.6912 22.5432 16.0073 22.6728 17.277 22.4202C18.5467 22.1677 19.713 21.5443 20.6284 20.6289C21.5438 19.7135 22.1672 18.5472 22.4197 17.2775C22.6723 16.0078 22.5427 14.6917 22.0473 13.4957C21.5518 12.2997 20.7129 11.2774 19.6365 10.5582C18.5601 9.83896 17.2946 9.45508 16 9.45508C14.2641 9.45508 12.5992 10.1447 11.3717 11.3722C10.1442 12.5997 9.45459 14.2646 9.45459 16.0005ZM16.3637 12.946V15.8514L17.7855 17.2696C17.8536 17.3383 17.8919 17.4311 17.8919 17.5278C17.8919 17.6245 17.8536 17.7173 17.7855 17.786C17.7166 17.8536 17.6239 17.8915 17.5273 17.8915C17.4308 17.8915 17.3381 17.8536 17.2691 17.786L15.7419 16.2587C15.6749 16.1894 15.6371 16.0969 15.6364 16.0005V12.946C15.6364 12.8495 15.6747 12.7571 15.7429 12.6889C15.8111 12.6207 15.9036 12.5824 16 12.5824C16.0965 12.5824 16.189 12.6207 16.2572 12.6889C16.3254 12.7571 16.3637 12.8495 16.3637 12.946Z" fill="#92B0C9"/>
</svg>
