<svg width="32" height="32" viewBox="0 0 32 32" fill="none" xmlns="http://www.w3.org/2000/svg">
<rect width="32" height="32" rx="8" fill="#091D2E"/>
<path d="M20 10H24L20 6V10Z" fill="#92B0C9"/>
<path d="M8.4 6C8.18 6 8 6.17813 8 6.39583V24.6042C8 24.8219 8.18 25 8.4 25H23.6C23.82 25 24 24.8219 24 24.6042V10.75H19.6C19.3791 10.75 19.2 10.5728 19.2 10.3542V6H8.4ZM12.8 11.5417C11.9178 11.5417 11.2 10.8314 11.2 9.95833C11.2 9.22277 11.7119 8.60826 12.4 8.43122V7.97917C12.4 7.76057 12.5791 7.58333 12.8 7.58333C13.0209 7.58333 13.2 7.76057 13.2 7.97917V8.43122C13.8881 8.60826 14.4 9.22277 14.4 9.95833C14.4 10.1769 14.2209 10.3542 14 10.3542C13.7791 10.3542 13.6 10.1769 13.6 9.95833C13.6 9.52172 13.2412 9.16667 12.8 9.16667C12.3588 9.16667 12 9.52172 12 9.95833C12 10.3949 12.3588 10.75 12.8 10.75C13.6822 10.75 14.4 11.4603 14.4 12.3333C14.4 13.0689 13.8881 13.6834 13.2 13.8604V14.3125C13.2 14.5311 13.0209 14.7083 12.8 14.7083C12.5791 14.7083 12.4 14.5311 12.4 14.3125V13.8604C11.7119 13.6834 11.2 13.0689 11.2 12.3333C11.2 12.1147 11.3791 11.9375 11.6 11.9375C11.8209 11.9375 12 12.1147 12 12.3333C12 12.7699 12.3588 13.125 12.8 13.125C13.2412 13.125 13.6 12.7699 13.6 12.3333C13.6 11.8967 13.2412 11.5417 12.8 11.5417ZM20.8 21.8333H11.2C10.9791 21.8333 10.8 21.6561 10.8 21.4375C10.8 21.2189 10.9791 21.0417 11.2 21.0417H20.8C21.0209 21.0417 21.2 21.2189 21.2 21.4375C21.2 21.6561 21.0209 21.8333 20.8 21.8333ZM20.8 19.4583H11.2C10.9791 19.4583 10.8 19.2811 10.8 19.0625C10.8 18.8439 10.9791 18.6667 11.2 18.6667H20.8C21.0209 18.6667 21.2 18.8439 21.2 19.0625C21.2 19.2811 21.0209 19.4583 20.8 19.4583ZM20.8 16.2917C21.0209 16.2917 21.2 16.4689 21.2 16.6875C21.2 16.9061 21.0209 17.0833 20.8 17.0833H11.2C10.9791 17.0833 10.8 16.9061 10.8 16.6875C10.8 16.4689 10.9791 16.2917 11.2 16.2917H20.8Z" fill="#92B0C9"/>
</svg>
