<svg width="32" height="32" viewBox="0 0 32 32" fill="none" xmlns="http://www.w3.org/2000/svg">
<rect width="32" height="32" rx="8" fill="#091D2E"/>
<path d="M19.0769 9.84585C19.0769 9.63047 19.1077 9.41508 19.1385 9.23047H9.84615C8.83077 9.23047 8 10.0612 8 11.0766V22.1535C8 23.1689 8.83077 23.9997 9.84615 23.9997H20.9231C21.9385 23.9997 22.7692 23.1689 22.7692 22.1535V12.8612C22.5846 12.892 22.3692 12.9228 22.1538 12.9228C20.4615 12.9228 19.0769 11.5382 19.0769 9.84585Z" fill="#92B0C9"/>
<path d="M22.1538 11.6923C23.1734 11.6923 23.9999 10.8658 23.9999 9.84615C23.9999 8.82655 23.1734 8 22.1538 8C21.1342 8 20.3076 8.82655 20.3076 9.84615C20.3076 10.8658 21.1342 11.6923 22.1538 11.6923Z" fill="#92B0C9"/>
<path d="M14.3725 18.0223C14.3798 17.6783 14.387 17.337 14.3942 16.9917L14.0397 17.0121L13.1742 17.0635C12.9253 17.0686 12.6838 17.1487 12.481 17.2935C11.8234 17.7877 11.9154 18.5666 12.3074 18.9784C12.4718 19.1517 12.6435 19.3178 12.8125 19.4864C13.2071 19.8818 13.6017 20.2824 14.0023 20.6771C14.1777 20.8485 14.4037 20.9584 14.6466 20.9903C14.8895 21.0223 15.1362 20.9746 15.3498 20.8544C15.7129 20.6435 15.8826 20.3088 15.9069 19.8983C15.9312 19.4878 15.9437 19.0621 15.9615 18.6463L16.0818 15.7812C16.0818 15.7081 16.0864 15.635 16.0897 15.5612C16.0905 15.4822 16.1155 15.4053 16.1614 15.3411C16.1877 15.3003 16.2269 15.2696 16.2726 15.2537C16.3184 15.2378 16.3681 15.2377 16.414 15.2534C16.4828 15.2769 16.546 15.3146 16.5994 15.3641C16.9638 15.7213 17.3246 16.0817 17.682 16.4455C17.7286 16.4968 17.763 16.5581 17.7826 16.6247C17.7913 16.6475 17.7953 16.6718 17.7943 16.6962C17.7932 16.7206 17.7871 16.7445 17.7765 16.7664C17.7658 16.7884 17.7507 16.8079 17.7322 16.8237C17.7137 16.8396 17.6921 16.8515 17.6688 16.8586C17.5694 16.8943 17.4657 16.9164 17.3604 16.9245C17.1276 16.9403 16.8947 16.9416 16.656 16.9482C16.6382 17.2935 16.6198 17.6355 16.6014 17.9834L16.8757 17.9729C17.1979 17.9603 17.5195 17.9511 17.8411 17.9346C18.0847 17.9291 18.321 17.8508 18.5199 17.7099C18.6455 17.6225 18.7519 17.5102 18.8324 17.3799C18.913 17.2496 18.966 17.1041 18.9882 16.9525C19.0104 16.8009 19.0013 16.6463 18.9614 16.4983C18.9216 16.3504 18.8519 16.2122 18.7566 16.0923C18.7067 16.0341 18.6534 15.9791 18.5968 15.9275C18.0759 15.4004 17.557 14.8732 17.0335 14.3553C16.6731 13.9962 16.2443 13.9112 15.7747 14.0917C15.4459 14.2156 15.2486 14.4713 15.1499 14.8034C15.1164 14.9246 15.0977 15.0493 15.094 15.175C15.0513 16.116 15.0131 17.0569 14.9736 17.9986C14.953 18.4778 14.9329 18.9571 14.9131 19.4364C14.9121 19.4624 14.9095 19.4884 14.9052 19.5141C14.8632 19.7533 14.6527 19.8396 14.4626 19.6907C14.3735 19.6153 14.2889 19.5345 14.2094 19.4489C13.9196 19.1598 13.6304 18.8699 13.3419 18.5791C13.2854 18.5265 13.2443 18.4596 13.2229 18.3854C13.2074 18.3373 13.211 18.285 13.2327 18.2394C13.2545 18.1939 13.2929 18.1584 13.34 18.1402C13.4623 18.0939 13.592 18.07 13.7227 18.0697L14.3725 18.0223Z" fill="#091D2E"/>
</svg>
