<svg width="16" height="16" viewBox="0 0 16 16" fill="none" xmlns="http://www.w3.org/2000/svg">
<rect width="16" height="16" rx="8" fill="#131C25"/>
<path d="M8.00004 10.2917C8.52087 10.2917 8.96365 10.1093 9.32837 9.74458C9.6931 9.37986 9.87532 8.93722 9.87504 8.41667C9.87504 7.89583 9.69268 7.45306 9.32796 7.08833C8.96324 6.72361 8.5206 6.54139 8.00004 6.54167C7.47921 6.54167 7.03643 6.72403 6.67171 7.08875C6.30699 7.45347 6.12476 7.89611 6.12504 8.41667C6.12504 8.9375 6.3074 9.38028 6.67212 9.745C7.03685 10.1097 7.47949 10.2919 8.00004 10.2917ZM4.66671 11.75C4.43754 11.75 4.24129 11.6683 4.07796 11.505C3.91462 11.3417 3.8331 11.1456 3.83337 10.9167V5.91667C3.83337 5.6875 3.91504 5.49125 4.07837 5.32792C4.24171 5.16458 4.43782 5.08306 4.66671 5.08333H5.97921L6.75004 4.25H9.25004L10.0209 5.08333H11.3334C11.5625 5.08333 11.7588 5.165 11.9221 5.32833C12.0855 5.49167 12.167 5.68778 12.1667 5.91667V10.9167C12.1667 11.1458 12.085 11.3421 11.9217 11.5054C11.7584 11.6688 11.5623 11.7503 11.3334 11.75H4.66671Z" fill="#54DEB2"/>
</svg>
