<svg width="22" height="22" viewBox="0 0 22 22" fill="none" xmlns="http://www.w3.org/2000/svg">
<path d="M12.3728 2.7132C12.4554 4.1226 12.4976 5.53393 12.5571 6.94333C12.6934 10.1635 12.8278 13.3836 12.9642 16.6037C12.9738 16.8514 12.9795 17.0972 12.993 17.3449C13.0064 17.6137 13.0678 17.8672 13.233 18.088C13.4403 18.3664 13.7629 18.5028 14.0874 18.3837C14.312 18.3011 14.5443 18.1763 14.7133 18.0112C15.9421 16.8034 17.1613 15.5841 18.369 14.3552C18.5264 14.1958 18.6397 13.9673 18.7088 13.7503C18.8182 13.3989 18.6723 13.084 18.3267 12.9631C17.9926 12.8459 17.6355 12.7614 17.2842 12.7384C16.4989 12.6866 15.7098 12.6827 14.9072 12.6578C14.8458 11.4961 14.7843 10.342 14.721 9.16881C15.0416 9.18225 15.345 9.19377 15.6483 9.20529C16.735 9.24754 17.8237 9.28018 18.9104 9.33394C19.7398 9.37427 20.5117 9.59125 21.2029 10.0924C21.4237 10.2518 21.6234 10.4304 21.8 10.6224V2.07186C21.8 0.927442 20.8727 0 19.7283 0H11.1843C11.937 0.693181 12.3075 1.62446 12.3728 2.7132Z" fill="url(#paint0_linear_319_207875)"/>
<path d="M0.215311 5.81427C0.770191 5.23054 1.35195 4.67177 1.92027 4.10148C3.25851 2.76312 4.59291 1.41901 5.94075 0.0864076C5.97147 0.0556849 6.00219 0.0288025 6.03291 0H2.27163C1.12731 0 0.199951 0.927442 0.199951 2.07186V5.83155C0.205711 5.82579 0.209551 5.82003 0.215311 5.81427Z" fill="url(#paint1_linear_319_207875)"/>
<path d="M9.81532 19.8974C9.6982 19.4961 9.64444 19.066 9.62524 18.6474C9.48124 15.4753 9.3526 12.3012 9.2182 9.12911C9.151 7.51425 9.0838 5.89746 9.01468 4.2826C9.01084 4.19427 9.00316 4.10594 8.9878 4.01954C8.84572 3.21307 8.13532 2.9212 7.49212 3.42428C7.18299 3.66623 6.91036 3.95425 6.63195 4.23268C5.65275 5.20812 4.67739 6.18741 3.70011 7.16477C3.51387 7.35103 3.36411 7.55841 3.29883 7.81763C3.20283 8.19591 3.34491 8.49353 3.70203 8.65291C4.11291 8.83916 4.55451 8.8622 4.99419 8.89101C5.72187 8.94093 6.44763 8.98894 7.18876 9.04078C7.21372 10.2006 7.23675 11.3507 7.26171 12.5144C6.84891 12.4913 6.45723 12.4683 6.06555 12.4452C5.09019 12.3876 4.11675 12.332 3.14139 12.2705C2.29467 12.2167 1.49595 12.0209 0.800912 11.4967C0.574351 11.3258 0.376591 11.1434 0.199951 10.9552V19.5287C0.199951 20.6732 1.12731 21.6006 2.27163 21.6006H10.806C10.3376 21.1513 10.0131 20.5714 9.81532 19.8974Z" fill="url(#paint2_linear_319_207875)"/>
<path d="M21.4561 16.1007C19.6974 17.8692 17.9464 19.6435 16.178 21.4023C16.1089 21.4715 16.0379 21.5367 15.9688 21.5982H19.7262C20.8705 21.5982 21.7979 20.6707 21.7979 19.5263V15.7686C21.6846 15.8818 21.5675 15.9894 21.4561 16.1007Z" fill="url(#paint3_linear_319_207875)"/>
<defs>
<linearGradient id="paint0_linear_319_207875" x1="7.86512" y1="17.0717" x2="19.1892" y2="1.63108" gradientUnits="userSpaceOnUse">
<stop stop-color="#46C7FF"/>
<stop offset="0.6402" stop-color="#70E5FE"/>
<stop offset="1" stop-color="#89F7FE"/>
</linearGradient>
<linearGradient id="paint1_linear_319_207875" x1="-1.62384" y1="5.40268" x2="1.06984" y2="-0.974295" gradientUnits="userSpaceOnUse">
<stop stop-color="#46C7FF"/>
<stop offset="0.6402" stop-color="#70E5FE"/>
<stop offset="1" stop-color="#89F7FE"/>
</linearGradient>
<linearGradient id="paint2_linear_319_207875" x1="-3.11625" y1="20.2456" x2="8.20929" y2="4.81524" gradientUnits="userSpaceOnUse">
<stop stop-color="#46C7FF"/>
<stop offset="0.6402" stop-color="#70E5FE"/>
<stop offset="1" stop-color="#89F7FE"/>
</linearGradient>
<linearGradient id="paint3_linear_319_207875" x1="14.1462" y1="21.1695" x2="16.8396" y2="14.7952" gradientUnits="userSpaceOnUse">
<stop stop-color="#46C7FF"/>
<stop offset="0.6402" stop-color="#70E5FE"/>
<stop offset="1" stop-color="#89F7FE"/>
</linearGradient>
</defs>
</svg>
