<svg width="16" height="17" viewBox="0 0 16 17" fill="none" xmlns="http://www.w3.org/2000/svg">
<path fill-rule="evenodd" clip-rule="evenodd" d="M12.1667 3.16602V2.33268C12.1667 1.41221 11.4205 0.666016 10.5 0.666016H5.5C4.57952 0.666016 3.83333 1.41221 3.83333 2.33268V3.16602H1.33333C0.8731 3.16602 0.5 3.53912 0.5 3.99935C0.5 4.45958 0.8731 4.83268 1.33333 4.83268H2.16667V13.9993C2.16667 15.3801 3.28596 16.4993 4.66667 16.4993H11.3333C12.7141 16.4993 13.8333 15.3801 13.8333 13.9993V4.83268H14.6667C15.1269 4.83268 15.5 4.45958 15.5 3.99935C15.5 3.53912 15.1269 3.16602 14.6667 3.16602H12.1667ZM10.5 2.33268H5.5V3.16602H10.5V2.33268ZM12.1667 4.83268H3.83333V13.9993C3.83333 14.4596 4.20643 14.8327 4.66667 14.8327H11.3333C11.7936 14.8327 12.1667 14.4596 12.1667 13.9993V4.83268ZM5.5 6.49935H7.16667V13.166H5.5V6.49935ZM10.5 6.49935H8.83333V13.166H10.5V6.49935Z" fill="#54DEB2"/>
</svg>
