<svg width="24" height="20" viewBox="0 0 24 20" fill="none" xmlns="http://www.w3.org/2000/svg">
<path d="M2.0834 0C0.94631 0 7.73996e-05 0.94946 7.73996e-05 2.1018V5.13212C-0.00289877 5.34899 0.0800626 5.55813 0.230357 5.71263C0.380651 5.86712 0.586012 5.95399 0.800116 5.95399C1.01421 5.95399 1.21938 5.86713 1.36987 5.71263C1.52017 5.55813 1.60313 5.34898 1.60015 5.13212V2.1018C1.60015 1.82199 1.80235 1.62057 2.08339 1.62057H21.9166C22.1977 1.62057 22.3998 1.82199 22.3998 2.1018V5.13212C22.3969 5.34899 22.4798 5.55813 22.6301 5.71263C22.7806 5.86713 22.9858 5.95399 23.1999 5.95399C23.414 5.95399 23.6193 5.86713 23.7696 5.71263C23.9199 5.55813 24.0029 5.34898 23.9999 5.13212V2.1018C23.9999 0.949411 23.0537 0 21.9166 0H2.0834ZM11.9914 5.40233C11.782 5.40403 11.5815 5.48882 11.4332 5.63861L6.63323 10.5007C6.43067 10.7057 6.35161 11.0047 6.42583 11.2847C6.49986 11.5649 6.71582 11.7837 6.9924 11.8588C7.26899 11.9338 7.56401 11.8537 7.76658 11.6487L11.1998 8.17088V19.1781C11.1968 19.3952 11.2798 19.6041 11.4301 19.7586C11.5804 19.9131 11.7857 20 11.9998 20C12.2139 20 12.4193 19.9131 12.5696 19.7586C12.7199 19.6041 12.8029 19.3952 12.7999 19.1781V8.17088L16.2331 11.6487C16.4357 11.8537 16.7307 11.9338 17.0073 11.8588C17.2839 11.7836 17.4998 11.5649 17.5739 11.2847C17.6481 11.0047 17.569 10.7057 17.3664 10.5007L12.5665 5.63861C12.4141 5.48467 12.2067 5.3995 11.9915 5.40233H11.9914Z" fill="#54DEB2"/>
</svg>
