<svg width="20" height="20" viewBox="0 0 20 20" fill="none" xmlns="http://www.w3.org/2000/svg">
<path d="M19.1182 10.0018C19.1182 4.95802 14.9879 0.854492 9.91059 0.854492C4.83331 0.854492 0.702148 4.95802 0.702148 10.0018C0.702148 15.0457 4.83331 19.1488 9.91059 19.1488C14.9879 19.1488 19.1182 15.0457 19.1182 10.0018ZM9.09168 16.2253V15.9112C7.59571 15.5448 6.4791 14.2073 6.4791 12.6059C6.4791 12.1592 6.84324 11.7971 7.29324 11.7971C7.74325 11.7971 8.10739 12.1592 8.10739 12.6059C8.10739 13.5959 8.91438 14.4016 9.90582 14.4016C10.902 14.4016 11.713 13.5959 11.713 12.6059C11.713 11.6159 10.902 10.8106 9.90582 10.8106C8.01595 10.8106 6.4791 9.27955 6.4791 7.3974C6.4791 5.79603 7.59571 4.45847 9.09168 4.09214V3.77803C9.09168 3.33138 9.45582 2.96925 9.90582 2.96925C10.3558 2.96925 10.72 3.33138 10.72 3.77803V4.09149C12.2208 4.45708 13.3413 5.79524 13.3413 7.39739C13.3413 7.84404 12.9772 8.20617 12.5272 8.20617C12.0772 8.20617 11.713 7.84404 11.713 7.39739C11.713 6.40735 10.902 5.60173 9.90582 5.60173C8.91438 5.60173 8.10739 6.40735 8.10739 7.39739C8.10739 8.38744 8.91438 9.19306 9.90582 9.19306C11.8005 9.19306 13.3413 10.7241 13.3413 12.6059C13.3413 14.208 12.2208 15.5462 10.72 15.9118V16.2253C10.72 16.6719 10.3558 17.034 9.90582 17.034C9.45582 17.034 9.09168 16.6719 9.09168 16.2253Z" fill="#06E7ED"/>
</svg>
