<svg width="24" height="22" viewBox="0 0 24 22" fill="none" xmlns="http://www.w3.org/2000/svg">
<path d="M13.9865 11.2942C16.2826 9.04663 19.9984 9.04663 22.285 11.2942C24.5717 13.5512 24.5717 17.1942 22.285 19.4512C19.9984 21.7082 16.2826 21.7082 13.9865 19.4512C11.6999 17.1942 11.6999 13.5512 13.9865 11.2942Z" fill="#06E7ED"/>
<path d="M14.5772 9.65535C13.0433 10.5731 11.9285 12.0528 11.4998 13.7947C11.1378 13.982 10.7566 14.1225 10.347 14.2255C6.73601 15.1339 3.18221 12.4555 3.18221 8.76567C3.18221 5.65648 5.75466 3.13729 8.91782 3.13729C12.4526 3.13729 15.1298 6.26521 14.5772 9.65535Z" fill="#06E7ED"/>
<path d="M11.3188 14.8904C11.2711 15.6583 11.3474 16.4169 11.5474 17.138C5.85947 18.8612 0 14.7031 0 8.75631C0 3.92395 3.98253 0 8.9083 0C13.796 0 17.769 3.87712 17.8166 8.67202C17.0258 8.70948 16.2731 8.87805 15.5776 9.14964C15.8158 5.39426 12.7574 2.20078 8.9083 2.20078C5.22112 2.20078 2.22946 5.1414 2.22946 8.76567C2.22946 13.392 6.96467 16.548 11.3188 14.8904Z" fill="#06E7ED"/>
<path d="M17.6834 13.3453C17.5024 11.7064 15.3777 11.107 14.3297 12.3994C14.0058 12.7834 13.8724 13.3078 13.92 13.7667C14.0439 14.7875 14.9776 15.518 16.0161 15.4056C17.0546 15.2838 17.7977 14.3661 17.6834 13.3453Z" fill="#112D44"/>
<path d="M22.3329 16.9789C22.1519 15.34 20.0272 14.7407 18.9792 16.0331C18.3218 16.8572 18.4742 18.0184 19.2745 18.6459C20.6179 19.676 22.5234 18.5991 22.3329 16.9789Z" fill="#112D44"/>
<path d="M15.3301 18.8426C15.5397 19.0018 15.8351 18.9737 15.997 18.7676L21.0085 12.568C21.1705 12.362 21.1419 12.0716 20.9323 11.9124C20.7227 11.7532 20.4274 11.7813 20.2654 11.9874L15.2539 18.187C15.0919 18.393 15.1205 18.6834 15.3301 18.8426Z" fill="#112D44"/>
<path d="M19.8938 17.9341C19.1887 17.3629 19.5603 16.3702 20.3511 16.2765C20.8656 16.211 21.3324 16.5762 21.3896 17.0913C21.4944 17.9341 20.4845 18.4024 19.8938 17.9341Z" fill="#06E7ED"/>
<path d="M14.8825 13.6636C14.8444 13.3733 14.9302 13.186 15.0921 12.9612C15.2446 12.7739 15.4732 12.6615 15.7114 12.6428C16.5689 12.5398 17.0453 13.5325 16.5689 14.1131C15.9877 14.8061 14.9778 14.4409 14.8825 13.6636Z" fill="#06E7ED"/>
<path d="M6.12623 10.311C6.05001 9.70224 6.98371 9.5805 7.06946 10.1892C7.16473 10.9291 9.14647 11.416 10.3184 10.7137C10.5947 10.5451 10.7662 10.3484 10.7662 10.133C10.7662 9.48685 9.80388 9.34637 8.85112 9.21526C7.48867 9.02796 6.1167 8.8313 6.1167 7.37035C6.1167 6.28401 7.35529 5.67528 8.4319 5.55353V5.07592C8.4319 4.8137 8.64151 4.60767 8.93687 4.60767C9.21317 4.60767 9.41325 4.83243 9.41325 5.08528L9.40372 5.54417C11.8618 5.81576 12.1858 7.8386 11.2521 7.8386C10.9948 7.8386 10.7757 7.63257 10.7757 7.37035C10.7757 6.63051 8.74631 6.06861 7.52678 6.78972C7.25048 6.95829 7.07899 7.16432 7.07899 7.37035C7.07899 8.01654 8.04127 8.15701 8.99403 8.28812L9.02367 8.29237C10.1046 8.44833 11.1852 8.60428 11.5757 9.40077C11.6739 9.60099 11.7285 9.84169 11.7285 10.133C11.7285 11.2287 10.4803 11.8375 9.40372 11.9592L9.39419 12.4368C9.39419 13.0549 8.44143 13.0549 8.44143 12.4368V11.9592C7.43151 11.8562 6.25961 11.3224 6.12623 10.311Z" fill="#112D44"/>
</svg>
