<svg width="32" height="32" viewBox="0 0 32 32" fill="none" xmlns="http://www.w3.org/2000/svg">
<path d="M19.2134 5.16309C21.5767 5.16309 23.499 7.08569 23.499 9.44898V11.4417L22.3613 10.304C22.166 10.1086 21.8496 10.1086 21.6543 10.304C21.459 10.4993 21.459 10.8157 21.6543 11.011L23.6451 13.0018C23.8395 13.1967 24.1577 13.1975 24.353 13.0018L26.3437 11.011C26.5391 10.8157 26.5391 10.4993 26.3437 10.304C26.1484 10.1086 25.832 10.1086 25.6367 10.304L24.499 11.4417V9.44898C24.499 6.53443 22.1279 4.16309 19.2134 4.16309C18.937 4.16309 18.7134 4.38696 18.7134 4.66309C18.7134 4.93921 18.937 5.16309 19.2134 5.16309Z" fill="#06E7ED"/>
<path d="M12.1826 26.9559C9.81934 26.9559 7.89698 25.0333 7.89698 22.6703V20.6776L9.03467 21.8153C9.22998 22.0106 9.54639 22.0106 9.7417 21.8153C9.93702 21.62 9.93702 21.3036 9.7417 21.1083L7.75092 19.1175C7.55691 18.923 7.23748 18.9225 7.04303 19.1175L5.05225 21.1083C4.85693 21.3036 4.85693 21.62 5.05225 21.8153C5.24756 22.0106 5.56397 22.0106 5.75928 21.8153L6.89697 20.6776V22.6703C6.89697 25.5848 9.26807 27.9559 12.1826 27.9559C12.459 27.9559 12.6826 27.7321 12.6826 27.4559C12.6826 27.1798 12.459 26.9559 12.1826 26.9559Z" fill="#06E7ED"/>
<path d="M23.3472 17.6912C20.229 17.6912 17.6924 20.228 17.6924 23.3462C17.6924 26.4644 20.229 29.001 23.3472 29.001C26.4653 29.001 29.002 26.4644 29.002 23.3462C29.002 20.228 26.4653 17.6912 23.3472 17.6912ZM23.4995 21.8477C23.7759 21.8477 23.9995 22.0715 23.9995 22.3477C23.9995 22.6238 23.7759 22.8477 23.4995 22.8477H21.9648C21.9366 23.0099 21.9189 23.1758 21.9189 23.3459C21.9189 23.5171 21.9367 23.6838 21.9651 23.8469H23.4995C23.7759 23.8469 23.9995 24.0708 23.9995 24.3469C23.9995 24.623 23.7759 24.8469 23.4995 24.8469H22.3398C22.8506 25.6926 23.7759 26.261 24.834 26.261C25.1103 26.261 25.334 26.4849 25.334 26.761C25.334 27.0371 25.1103 27.261 24.834 27.261C23.2069 27.261 21.8094 26.2627 21.2192 24.8469H20.2432C19.9668 24.8469 19.7432 24.623 19.7432 24.3469C19.7432 24.0708 19.9668 23.8469 20.2432 23.8469H20.9547C20.9336 23.6825 20.9189 23.5161 20.9189 23.3459C20.9189 23.1768 20.9334 23.0112 20.9543 22.8477H20.2432C19.9668 22.8477 19.7432 22.6238 19.7432 22.3477C19.7432 22.0715 19.9668 21.8477 20.2432 21.8477H21.2183C21.8078 20.4305 23.2059 19.4312 24.834 19.4312C25.1104 19.4312 25.334 19.655 25.334 19.9312C25.334 20.2073 25.1104 20.4312 24.834 20.4312C23.7749 20.4312 22.8488 21.0007 22.3382 21.8477H23.4995Z" fill="#06E7ED"/>
<path d="M23.3449 14.6901C18.575 14.6901 14.6899 18.5751 14.6899 23.3451C14.6899 28.1201 18.575 32.0001 23.3449 32.0001C28.12 32.0001 31.9999 28.1201 31.9999 23.3451C31.9999 18.5751 28.12 14.6901 23.3449 14.6901ZM23.3469 30.0011C19.6775 30.0011 16.6921 27.0157 16.6921 23.3463C16.6921 19.6766 19.6775 16.6913 23.3469 16.6913C27.0164 16.6913 30.0017 19.6766 30.0017 23.3463C30.0017 27.0157 27.0164 30.0011 23.3469 30.0011Z" fill="#06E7ED"/>
<path d="M14.812 8.65613C14.812 5.53796 12.2754 3.0011 9.15723 3.0011C6.03906 3.0011 3.50195 5.53796 3.50195 8.65613C3.50195 11.7743 6.03906 14.3109 9.15723 14.3109C12.2754 14.3109 14.812 11.7743 14.812 8.65613ZM8.6543 12.5035V12.3094C7.73557 12.0829 7.04981 11.256 7.04981 10.266C7.04981 9.98987 7.27344 9.76599 7.54981 9.76599C7.82617 9.76599 8.04981 9.98987 8.04981 10.266C8.04981 10.8781 8.54541 11.3761 9.1543 11.3761C9.76611 11.3761 10.2642 10.8781 10.2642 10.266C10.2642 9.65393 9.76612 9.15613 9.1543 9.15613C7.99365 9.15613 7.04981 8.20959 7.04981 7.04602C7.04981 6.05603 7.73557 5.22913 8.6543 5.00266V4.80847C8.6543 4.53235 8.87793 4.30847 9.1543 4.30847C9.43066 4.30847 9.6543 4.53235 9.6543 4.80847V5.00226C10.576 5.22827 11.2642 6.05554 11.2642 7.04602C11.2642 7.32214 11.0405 7.54602 10.7642 7.54602C10.4878 7.54602 10.2642 7.32214 10.2642 7.04602C10.2642 6.43396 9.76612 5.93591 9.1543 5.93591C8.54541 5.93591 8.04981 6.43396 8.04981 7.04602C8.04981 7.65808 8.54541 8.15612 9.1543 8.15612C10.3179 8.15612 11.2642 9.10266 11.2642 10.266C11.2642 11.2565 10.576 12.0837 9.6543 12.3097V12.5035C9.6543 12.7797 9.43066 13.0035 9.1543 13.0035C8.87793 13.0035 8.6543 12.7797 8.6543 12.5035Z" fill="#06E7ED"/>
<path d="M17.81 8.655C17.81 3.88501 13.93 0 9.155 0C4.38501 0 0 3.88501 0 8.655C0 13.43 5.21835 17.31 8.655 17.31C13.43 17.31 17.81 13.43 17.81 8.655ZM2.50177 8.65607C2.50177 4.98639 5.48712 2.00104 9.15705 2.00104C12.8265 2.00104 15.8118 4.98639 15.8118 8.65607C15.8118 12.3255 12.8265 15.3109 9.15705 15.3109C5.48712 15.3109 2.50177 12.3255 2.50177 8.65607Z" fill="#06E7ED"/>
</svg>
