<svg width="1366" height="733" viewBox="0 0 1366 733" fill="none" xmlns="http://www.w3.org/2000/svg">
<g opacity="0.2">
<path opacity="0.0144928" d="M1107.92 -515.68C1114.1 -519.614 1122.13 -518.984 1127.62 -514.136L1302.04 -360.119C1305.29 -357.252 1307.27 -353.219 1307.56 -348.896L1329.8 -16.5574C1330.03 -13.1582 1329.19 -9.77242 1327.41 -6.86817L1174.92 241.819C1171.69 247.084 1165.78 250.095 1159.62 249.613L957.328 233.758C951.17 233.276 945.803 229.381 943.434 223.677L831.544 -45.7305C830.238 -48.8767 829.941 -52.3512 830.695 -55.6734L904.436 -380.49C905.395 -384.715 907.983 -388.39 911.637 -390.716L1107.92 -515.68Z" stroke="url(#paint0_linear_4566_18828)" stroke-width="2.85847"/>
<path opacity="0.0289855" d="M1071.56 -511.738C1077.52 -515.969 1085.55 -515.761 1091.28 -511.228L1272.44 -367.878C1275.84 -365.186 1278.04 -361.258 1278.56 -356.951L1317.95 -29.2887C1318.36 -25.8961 1317.7 -22.4607 1316.07 -19.4605L1177.65 234.472C1174.7 239.889 1168.96 243.196 1162.8 243.037L961.159 237.823C954.992 237.663 949.434 234.064 946.765 228.502L821.661 -32.2451C820.183 -35.3259 819.702 -38.7907 820.284 -42.1578L876.559 -367.346C877.299 -371.621 879.699 -375.43 883.235 -377.942L1071.56 -511.738Z" stroke="url(#paint1_linear_4566_18828)" stroke-width="2.85847"/>
<path opacity="0.0434783" d="M1035.57 -506.715C1041.29 -511.23 1049.3 -511.442 1055.25 -507.236L1242.52 -374.832C1246.07 -372.324 1248.48 -368.513 1249.22 -364.233L1305.34 -42.1247C1305.93 -38.7481 1305.45 -35.2721 1303.96 -32.183L1179.76 226.211C1177.09 231.763 1171.54 235.357 1165.38 235.521L964.952 240.835C958.793 240.998 953.061 237.703 950.101 232.3L812.38 -19.1495C810.733 -22.1556 810.068 -25.6012 810.476 -29.0042L849.449 -353.634C849.967 -357.947 852.172 -361.881 855.582 -364.573L1035.57 -506.715Z" stroke="url(#paint2_linear_4566_18828)" stroke-width="2.85847"/>
<path opacity="0.057971" d="M1000.01 -500.639C1005.48 -505.425 1013.44 -506.054 1019.59 -502.186L1212.32 -380.971C1216 -378.654 1218.62 -374.971 1219.59 -370.73L1291.96 -55.0206C1292.73 -51.6695 1292.43 -48.1619 1291.1 -44.9913L1181.19 217.079C1178.81 222.753 1173.46 226.622 1167.33 227.107L968.656 242.808C962.523 243.293 956.632 240.312 953.391 235.082L803.681 -6.47013C801.87 -9.39243 801.021 -12.8091 801.253 -16.2393L823.137 -339.398C823.431 -343.74 825.435 -347.787 828.709 -350.654L1000.01 -500.639Z" stroke="url(#paint3_linear_4566_18828)" stroke-width="2.85847"/>
<path opacity="0.0724638" d="M964.923 -493.545C970.126 -498.588 978.017 -499.63 984.35 -496.109L1181.89 -386.288C1185.7 -384.17 1188.51 -380.627 1189.71 -376.436L1277.82 -67.9362C1278.77 -64.6199 1278.65 -61.0897 1277.48 -57.8454L1181.91 207.12C1179.83 212.899 1174.69 217.034 1168.6 217.838L972.216 243.758C966.124 244.562 960.093 241.901 956.58 236.86L795.538 5.76397C793.566 2.93437 792.534 -0.443769 792.589 -3.89221L797.645 -324.689C797.714 -329.047 799.51 -333.199 802.639 -336.232L964.923 -493.545Z" stroke="url(#paint4_linear_4566_18828)" stroke-width="2.85847"/>
<path opacity="0.0869565" d="M930.368 -485.47C935.294 -490.755 943.095 -492.203 949.59 -489.039L1151.28 -390.779C1155.2 -388.867 1158.21 -385.473 1159.62 -381.346L1262.92 -80.8294C1264.05 -77.5574 1264.11 -74.014 1263.11 -70.7039L1181.88 196.381C1180.09 202.251 1175.18 206.638 1169.15 207.758L975.577 243.7C969.544 244.821 963.39 242.487 959.616 237.649L787.922 17.527C785.795 14.7989 784.582 11.4688 784.457 8.01124L772.992 -309.557C772.835 -313.919 774.419 -318.164 777.395 -321.357L930.368 -485.47Z" stroke="url(#paint5_linear_4566_18828)" stroke-width="2.85847"/>
<path opacity="0.101449" d="M896.39 -476.451C901.029 -481.963 908.717 -483.811 915.355 -481.011L1120.53 -394.441C1124.56 -392.742 1127.74 -389.508 1129.38 -385.455L1247.27 -93.6587C1248.57 -90.4404 1248.82 -86.8931 1247.98 -83.5252L1181.05 184.911C1179.57 190.856 1174.9 195.483 1168.94 196.915L978.685 242.658C972.728 244.09 966.468 242.09 962.445 237.468L780.805 28.7952C778.526 26.1771 777.134 22.9047 776.83 19.4471L749.194 -294.049C748.811 -298.404 750.177 -302.732 752.992 -306.077L896.39 -476.451Z" stroke="url(#paint6_linear_4566_18828)" stroke-width="2.85847"/>
<path opacity="0.115942" d="M863.037 -466.53C867.379 -472.252 874.933 -474.493 881.693 -472.062L1089.68 -397.276C1093.8 -395.795 1097.16 -392.731 1099.01 -388.764L1230.87 -106.383C1232.35 -103.228 1232.78 -99.6863 1232.11 -96.2689L1179.4 172.761C1178.22 178.765 1173.8 183.619 1167.94 185.359L981.491 240.654C975.625 242.393 969.278 240.731 965.019 236.339L774.156 39.546C771.731 37.0462 770.164 33.841 769.678 30.3926L726.267 -278.218C725.657 -282.554 726.802 -286.953 729.448 -290.442L863.037 -466.53Z" stroke="url(#paint7_linear_4566_18828)" stroke-width="2.85847"/>
<path opacity="0.130435" d="M830.353 -455.749C834.388 -461.666 841.789 -464.29 848.65 -462.235L1058.79 -399.286C1062.99 -398.028 1066.51 -395.143 1068.58 -391.273L1213.74 -118.964C1215.39 -115.881 1216 -112.354 1215.51 -108.895L1176.89 159.984C1176.02 166.031 1171.87 171.097 1166.11 173.138L983.946 237.714C978.188 239.755 971.773 238.434 967.29 234.284L767.946 49.7589C765.382 47.3855 763.641 44.2566 762.976 40.8266L704.221 -262.114C703.386 -266.419 704.306 -270.879 706.777 -274.502L830.353 -455.749Z" stroke="url(#paint8_linear_4566_18828)" stroke-width="2.85847"/>
<path opacity="0.144928" d="M798.377 -444.155C802.096 -450.25 809.324 -453.247 816.265 -451.571L1027.89 -400.478C1032.16 -399.447 1035.84 -396.75 1038.11 -392.989L1195.89 -131.361C1197.7 -128.359 1198.5 -124.857 1198.18 -121.366L1173.5 146.631C1172.94 152.705 1169.06 157.97 1163.43 160.306L986.002 233.866C980.367 236.202 973.902 235.226 969.209 231.329L762.142 59.4143C759.444 57.1749 757.534 54.1318 756.689 50.7293L683.064 -245.788C682.005 -250.051 682.697 -254.56 684.985 -258.31L798.377 -444.155Z" stroke="url(#paint9_linear_4566_18828)" stroke-width="2.85847"/>
<path opacity="0.15942" d="M767.149 -431.793C770.544 -438.049 777.581 -441.408 784.581 -440.115L997.032 -400.857C1001.36 -400.057 1005.18 -397.557 1007.65 -393.915L1177.33 -143.537C1179.3 -140.625 1180.29 -137.156 1180.15 -133.642L1169.21 132.758C1168.96 138.843 1165.36 144.292 1159.86 146.916L987.617 229.143C982.12 231.767 975.623 231.136 970.734 227.503L756.713 68.4962C753.889 66.3983 751.813 63.4498 750.789 60.0841L662.803 -229.292C661.523 -233.501 661.984 -238.048 664.083 -241.914L767.149 -431.793Z" stroke="url(#paint10_linear_4566_18828)" stroke-width="2.85847"/>
<path opacity="0.173913" d="M736.7 -418.714C739.766 -425.114 746.592 -428.823 753.63 -427.913L966.252 -400.434C970.622 -399.869 974.582 -397.573 977.244 -394.061L1158.08 -155.454C1160.21 -152.641 1161.38 -149.216 1161.42 -145.686L1163.98 118.419C1164.04 124.5 1160.74 130.117 1155.39 133.02L988.742 223.576C983.399 226.479 976.889 226.195 971.819 222.837L751.623 76.9884C748.68 75.0391 746.442 72.1941 745.242 68.8744L643.437 -212.677C641.938 -216.821 642.167 -221.393 644.07 -225.368L736.7 -418.714Z" stroke="url(#paint11_linear_4566_18828)" stroke-width="2.85847"/>
<path opacity="0.188406" d="M707.064 -404.967C709.794 -411.492 716.393 -415.539 723.447 -415.014L935.594 -399.222C939.996 -398.894 944.081 -396.81 946.929 -393.438L1138.16 -167.077C1140.45 -164.371 1141.8 -160.999 1142.01 -157.463L1157.82 103.671C1158.18 109.732 1155.18 115.501 1150 118.676L989.34 217.201C984.164 220.375 977.66 220.437 972.424 217.363L746.839 84.8779C743.784 83.084 741.391 80.3511 740.016 77.0866L624.966 -195.994C623.252 -200.062 623.247 -204.648 624.95 -208.72L707.064 -404.967Z" stroke="url(#paint12_linear_4566_18828)" stroke-width="2.85847"/>
<path opacity="0.202899" d="M678.275 -390.605C680.665 -397.238 687.019 -401.607 694.068 -401.466L905.105 -397.235C909.525 -397.146 913.723 -395.28 916.751 -392.059L1117.6 -178.371C1120.03 -175.781 1121.56 -172.471 1121.96 -168.937L1150.69 88.5715C1151.37 94.5961 1148.67 100.502 1143.67 103.937L989.378 210.056C984.383 213.491 977.903 213.898 972.518 211.115L742.334 92.1536C739.175 90.5214 736.631 87.9091 735.083 84.7086L607.393 -179.294C605.468 -183.274 605.228 -187.862 606.727 -192.022L678.275 -390.605Z" stroke="url(#paint13_linear_4566_18828)" stroke-width="2.85847"/>
<path opacity="0.217391" d="M650.348 -375.679C652.394 -382.401 658.487 -387.08 665.51 -387.321L874.812 -394.488C879.239 -394.64 883.539 -392.999 886.739 -389.937L1096.4 -189.303C1098.98 -186.836 1100.69 -183.597 1101.26 -180.076L1142.6 73.1755C1143.57 79.1485 1141.19 85.1741 1136.39 88.8599L988.809 202.178C984.009 205.864 977.571 206.614 972.052 204.13L738.061 98.8055C734.807 97.341 732.119 94.8574 730.401 91.73L590.702 -162.626C588.57 -166.508 588.094 -171.086 589.384 -175.323L650.348 -375.679Z" stroke="url(#paint14_linear_4566_18828)" stroke-width="2.85847"/>
<path opacity="0.231884" d="M623.312 -360.243C625.01 -367.038 630.828 -372.01 637.804 -372.629L844.763 -391.002C849.182 -391.394 853.572 -389.983 856.935 -387.09L1074.6 -199.841C1077.32 -197.505 1079.2 -194.347 1079.95 -190.846L1133.53 57.541C1134.8 63.4471 1132.73 69.5759 1128.14 73.5013L987.606 193.609C983.013 197.535 976.637 198.624 971.001 196.445L733.994 104.826C730.653 103.535 727.826 101.188 725.942 98.1424L574.889 -146.04C572.555 -149.813 571.845 -154.369 572.921 -158.673L623.312 -360.243Z" stroke="url(#paint15_linear_4566_18828)" stroke-width="2.85847"/>
<path opacity="0.246377" d="M597.184 -344.354C598.534 -351.202 604.061 -356.451 610.97 -357.445L814.991 -386.796C819.39 -387.428 823.858 -386.253 827.375 -383.537L1052.23 -209.955C1055.07 -207.758 1057.12 -204.689 1058.06 -201.218L1123.48 41.7241C1125.05 47.5482 1123.3 53.7634 1118.93 57.9167L985.738 184.39C981.364 188.544 975.067 189.968 969.331 188.1L730.095 110.209C726.677 109.096 723.718 106.894 721.671 103.939L559.942 -129.586C557.412 -133.239 556.469 -137.762 557.328 -142.122L597.184 -344.354Z" stroke="url(#paint16_linear_4566_18828)" stroke-width="2.85847"/>
<path opacity="0.26087" d="M571.984 -328.065C572.984 -334.948 578.208 -340.457 585.029 -341.82L785.536 -381.891C789.902 -382.764 794.434 -381.828 798.097 -379.298L1029.31 -219.616C1032.28 -217.565 1034.49 -214.595 1035.6 -211.162L1112.45 25.782C1114.31 31.5094 1112.88 37.7939 1108.74 42.1628L983.179 174.565C979.036 178.934 972.835 180.688 967.018 179.136L726.334 114.952C722.847 114.022 719.764 111.971 717.559 109.114L545.849 -113.31C543.129 -116.834 541.954 -121.31 542.594 -125.716L571.984 -328.065Z" stroke="url(#paint17_linear_4566_18828)" stroke-width="2.85847"/>
<path opacity="0.275362" d="M547.72 -311.431C548.37 -318.331 553.278 -324.083 559.991 -325.808L756.426 -376.312C760.746 -377.423 765.331 -376.73 769.13 -374.394L1005.86 -228.796C1008.95 -226.899 1011.32 -224.035 1012.61 -220.65L1100.44 9.77238C1102.58 15.3885 1101.49 21.7253 1097.58 26.2968L979.899 164.179C975.997 168.751 969.911 170.828 964.029 169.596L722.67 119.052C719.125 118.31 715.924 116.417 713.565 113.668L532.589 -97.2568C529.685 -100.641 528.281 -105.061 528.699 -109.501L547.72 -311.431Z" stroke="url(#paint18_linear_4566_18828)" stroke-width="2.85847"/>
<path opacity="0.289855" d="M524.4 -294.51C524.701 -301.409 529.283 -307.384 535.868 -309.465L727.695 -370.084C731.955 -371.431 736.579 -370.985 740.503 -368.849L981.927 -237.473C985.121 -235.734 987.649 -232.986 989.114 -229.657L1087.46 -6.25107C1089.87 -0.760133 1089.11 5.6115 1085.46 10.3723L975.876 153.276C972.225 158.037 966.271 160.431 960.341 159.521L719.07 122.509C715.475 121.958 712.165 120.23 709.657 117.596L520.142 -81.474C517.062 -84.7099 515.431 -89.0604 515.626 -93.5238L524.4 -294.51Z" stroke="url(#paint19_linear_4566_18828)" stroke-width="2.85847"/>
<path opacity="0.304348" d="M502.033 -277.356C501.987 -284.236 506.232 -290.417 512.671 -292.844L699.374 -363.236C703.562 -364.815 708.212 -364.617 712.252 -362.689L957.531 -245.621C960.826 -244.048 963.504 -241.423 965.141 -238.16L1073.51 -22.2331C1076.19 -16.8811 1075.76 -10.4917 1072.37 -5.55558L971.092 141.903C967.701 146.839 961.895 149.541 955.935 148.955L715.5 125.325C711.867 124.968 708.455 123.411 705.805 120.9L508.489 -66.0048C505.24 -69.0828 503.386 -73.3528 503.356 -77.8285L502.033 -277.356Z" stroke="url(#paint20_linear_4566_18828)" stroke-width="2.85847"/>
<path opacity="0.318841" d="M480.622 -260.025C480.232 -266.868 484.131 -273.235 490.404 -275.999L671.491 -355.792C675.595 -357.6 680.258 -357.654 684.402 -355.94L932.708 -253.218C936.095 -251.817 938.917 -249.323 940.725 -246.134L1058.61 -38.1186C1061.55 -32.9186 1061.44 -26.5289 1058.32 -21.4318L965.528 130.107C962.407 135.204 956.765 138.205 950.794 137.944L711.927 127.504C708.264 127.344 704.761 125.964 701.972 123.584L497.604 -50.89C494.194 -53.8014 492.121 -57.9797 491.867 -62.4564L480.622 -260.025Z" stroke="url(#paint21_linear_4566_18828)" stroke-width="2.85847"/>
<path opacity="0.333333" d="M460.164 -242.571C459.435 -249.361 462.979 -255.894 469.069 -258.984L644.074 -347.785C648.08 -349.818 652.743 -350.122 656.98 -348.628L907.49 -260.246C910.961 -259.022 913.921 -256.667 915.895 -253.56L1042.77 -53.8551C1045.96 -48.8199 1046.18 -42.4469 1043.34 -37.2036L959.171 117.935C956.326 123.178 950.864 126.469 944.899 126.532L708.315 129.052C704.635 129.091 701.047 127.894 698.128 125.651L487.462 -36.1704C483.899 -38.9069 481.612 -42.9823 481.132 -47.4488L460.164 -242.571Z" stroke="url(#paint22_linear_4566_18828)" stroke-width="2.85847"/>
<path opacity="0.347826" d="M440.658 -225.051C439.593 -231.769 442.776 -238.45 448.666 -241.854L617.147 -339.245C621.043 -341.498 625.693 -342.054 630.011 -340.784L881.911 -266.688C885.458 -265.645 888.549 -263.436 890.685 -260.42L1026 -69.3918C1029.44 -64.5337 1029.99 -58.1944 1027.43 -52.82L952.008 105.435C949.447 110.809 944.179 114.378 938.239 114.765L704.633 129.974C700.945 130.215 697.283 129.204 694.239 127.107L478.032 -21.8852C474.326 -24.439 471.829 -28.4008 471.125 -32.8459L440.658 -225.051Z" stroke="url(#paint23_linear_4566_18828)" stroke-width="2.85847"/>
<path opacity="0.362319" d="M422.097 -207.518C420.702 -214.148 423.519 -220.955 429.191 -224.661L590.735 -330.204C594.51 -332.671 599.132 -333.478 603.519 -332.437L856.009 -272.527C859.621 -271.67 862.836 -269.615 865.132 -266.698L1008.34 -84.6786C1012.02 -80.0091 1012.88 -73.7205 1010.61 -68.2305L944.033 92.6541C941.761 98.1441 936.703 101.981 930.804 102.688L700.85 130.281C697.164 130.723 693.437 129.905 690.276 127.959L469.287 -8.07121C465.447 -10.4349 462.747 -14.2723 461.818 -18.6848L422.097 -207.518Z" stroke="url(#paint24_linear_4566_18828)" stroke-width="2.85847"/>
<path opacity="0.376812" d="M404.471 -190.024C402.753 -196.55 405.199 -203.463 410.638 -207.457L564.857 -320.695C568.499 -323.369 573.08 -324.426 577.525 -323.618L829.817 -277.749C833.485 -277.082 836.817 -275.188 839.267 -272.378L989.804 -99.666C993.699 -95.1963 994.886 -88.9748 992.908 -83.3851L935.238 79.6414C933.26 85.2312 928.426 89.3227 922.586 90.3484L696.932 129.982C693.26 130.627 689.478 130.005 686.206 128.217L461.192 5.23798C457.228 3.07136 454.33 -0.631465 453.18 -5.00031L404.471 -190.024Z" stroke="url(#paint25_linear_4566_18828)" stroke-width="2.85847"/>
<path opacity="0.391304" d="M387.766 -172.622C385.732 -179.027 387.802 -186.026 392.994 -190.293L539.531 -310.75C543.028 -313.624 547.555 -314.929 552.045 -314.357L803.368 -282.344C807.083 -281.871 810.525 -280.143 813.124 -277.447L970.411 -114.308C974.518 -110.048 976.018 -103.91 974.34 -98.2366L925.617 66.4443C923.939 72.1179 919.34 76.4515 913.577 77.7909L692.846 129.091C689.199 129.939 685.371 129.516 681.997 127.892L453.712 18.0094C449.634 16.0463 446.545 12.488 445.175 8.17388L387.766 -172.622Z" stroke="url(#paint26_linear_4566_18828)" stroke-width="2.85847"/>
<path opacity="0.405797" d="M371.969 -155.363C369.627 -161.632 371.32 -168.695 376.25 -173.221L514.778 -300.405C518.119 -303.472 522.578 -305.023 527.101 -304.689L776.704 -286.301C780.456 -286.025 783.999 -284.47 786.742 -281.897L950.197 -128.559C954.502 -124.519 956.311 -118.481 954.935 -112.74L915.175 53.1099C913.799 58.8511 909.449 63.4131 903.78 65.0611L688.567 127.62C684.955 128.67 681.093 128.45 677.624 126.995L446.814 30.2124C442.632 28.4586 439.36 25.0546 437.773 20.8061L371.969 -155.363Z" stroke="url(#paint27_linear_4566_18828)" stroke-width="2.85847"/>
<path opacity="0.42029" d="M357.061 -138.295C354.42 -144.414 355.735 -151.521 360.39 -156.29L490.611 -289.694C493.785 -292.946 498.163 -294.739 502.707 -294.646L749.86 -289.615C753.638 -289.538 757.274 -288.161 760.156 -285.718L929.19 -142.376C933.682 -138.566 935.793 -132.643 934.721 -126.851L903.912 39.6851C902.84 45.4777 898.751 50.2538 893.192 52.2043L684.065 125.586C680.499 126.837 676.611 126.821 673.056 125.541L440.46 41.819C436.185 40.28 432.737 37.0395 430.936 32.8674L357.061 -138.295Z" stroke="url(#paint28_linear_4566_18828)" stroke-width="2.85847"/>
<path opacity="0.434783" d="M343.021 -121.468C340.091 -127.421 341.027 -134.552 345.395 -139.546L467.042 -278.654C470.039 -282.081 474.324 -284.112 478.875 -284.261L722.872 -292.278C726.666 -292.403 730.387 -291.21 733.401 -288.903L907.422 -155.72C912.089 -152.148 914.494 -146.355 913.729 -140.528L891.832 26.2163C891.067 32.0438 887.248 37.0192 881.816 39.2652L679.31 123.003C675.802 124.454 671.9 124.645 668.266 123.545L434.612 52.8032C430.254 51.4838 426.638 48.4157 424.628 44.3306L343.021 -121.468Z" stroke="url(#paint29_linear_4566_18828)" stroke-width="2.85847"/>
<path opacity="0.449275" d="M329.825 -104.927C326.616 -110.7 327.175 -117.834 331.245 -123.037L444.083 -267.318C446.894 -270.912 451.072 -273.176 455.617 -273.568L695.778 -294.289C699.578 -294.616 703.373 -293.612 706.514 -291.449L884.929 -168.55C889.758 -165.224 892.449 -159.576 891.991 -153.73L878.943 12.7494C878.485 18.5955 874.947 23.7546 869.659 26.2882L674.277 119.891C670.837 121.539 666.931 121.94 663.229 121.024L429.229 63.1421C424.8 62.0466 421.025 59.1595 418.809 55.1717L329.825 -104.927Z" stroke="url(#paint30_linear_4566_18828)" stroke-width="2.85847"/>
<path opacity="0.463768" d="M317.448 -88.7161C313.972 -94.2972 314.156 -101.413 317.916 -106.807L421.742 -255.724C424.357 -259.475 428.416 -261.966 432.943 -262.601L668.613 -295.645C672.408 -296.177 676.27 -295.366 679.531 -293.353L861.746 -180.832C866.724 -177.758 869.692 -172.27 869.541 -166.422L865.255 -0.671363C865.104 5.17676 861.856 10.5037 856.726 13.3161L668.939 116.269C665.578 118.112 661.68 118.722 657.917 117.994L424.27 72.8143C419.781 71.9464 415.857 69.2482 413.44 65.3679L317.448 -88.7161Z" stroke="url(#paint31_linear_4566_18828)" stroke-width="2.85847"/>
<path opacity="0.478261" d="M305.862 -72.8779C302.129 -78.254 301.941 -85.3325 305.384 -90.8988L400.026 -243.907C402.436 -247.803 406.363 -250.517 410.859 -251.393L641.415 -296.348C645.195 -297.085 649.113 -296.471 652.487 -294.614L837.913 -192.53C843.025 -189.715 846.262 -184.401 846.416 -178.567L850.779 -14.0016C850.934 -8.16773 847.984 -2.68933 843.028 0.392161L663.272 112.158C660.001 114.192 656.121 115.012 652.307 114.476L419.693 81.8022C415.157 81.1649 411.092 78.6633 408.479 74.9005L305.862 -72.8779Z" stroke="url(#paint32_linear_4566_18828)" stroke-width="2.85847"/>
<path opacity="0.492754" d="M295.036 -57.4536C291.059 -62.6128 290.504 -69.6339 293.622 -75.3538L378.941 -231.904C381.138 -235.935 384.92 -238.863 389.373 -239.98L614.221 -296.401C617.975 -297.343 621.941 -296.93 625.42 -295.235L813.47 -203.614C818.703 -201.065 822.198 -195.937 822.656 -190.134L835.533 -27.1998C835.992 -21.3965 833.346 -15.7835 828.578 -12.4433L657.255 107.579C654.085 109.799 650.233 110.83 646.378 110.489L415.458 90.0887C410.886 89.6848 406.69 87.3868 403.888 83.7511L295.036 -57.4536Z" stroke="url(#paint33_linear_4566_18828)" stroke-width="2.85847"/>
<path opacity="0.507246" d="M284.938 -42.4808C280.73 -47.412 279.813 -54.3562 282.598 -60.2104L358.487 -219.75C360.463 -223.904 364.09 -227.04 368.485 -228.396L587.065 -295.808C590.782 -296.955 594.785 -296.746 598.363 -295.218L788.458 -214.056C793.798 -211.776 797.539 -206.847 798.298 -201.09L819.53 -40.2241C820.29 -34.4675 817.956 -28.737 813.39 -25.1495L650.863 102.554C647.804 104.957 643.992 106.198 640.105 106.055L411.52 97.6614C406.923 97.4926 402.607 95.4049 399.621 91.9057L284.938 -42.4808Z" stroke="url(#paint34_linear_4566_18828)" stroke-width="2.85847"/>
<path opacity="0.521739" d="M275.535 -27.9963C271.109 -32.6893 269.837 -39.5374 272.283 -45.5065L338.667 -207.481C340.415 -211.746 343.875 -215.082 348.201 -216.673L559.985 -294.578C563.655 -295.928 567.685 -295.926 571.353 -294.571L762.92 -223.829C768.353 -221.822 772.329 -217.105 773.387 -211.411L802.793 -53.0356C803.85 -47.3414 801.833 -41.5111 797.482 -37.6882L644.079 97.1074C641.142 99.6883 637.381 101.138 633.471 101.195L407.837 104.509C403.228 104.576 398.802 102.705 395.639 99.3513L275.535 -27.9963Z" stroke="url(#paint35_linear_4566_18828)" stroke-width="2.85847"/>
<path opacity="0.536232" d="M266.785 -14.033C262.155 -18.4781 260.536 -25.2117 262.639 -31.2757L319.475 -195.131C320.989 -199.496 324.27 -203.022 328.514 -204.846L533.011 -292.718C536.622 -294.27 540.67 -294.476 544.42 -293.3L736.897 -232.909C742.408 -231.18 746.607 -226.685 747.958 -221.069L785.337 -65.5951C786.688 -59.9791 784.991 -54.0665 780.868 -50.0212L636.879 91.2641C634.074 94.017 630.374 95.6733 626.452 95.9327L404.361 110.623C399.751 110.928 395.226 109.279 391.893 106.079L266.785 -14.033Z" stroke="url(#paint36_linear_4566_18828)" stroke-width="2.85847"/>
<path opacity="0.550725" d="M258.659 -0.622291C253.839 -4.81084 251.881 -11.4118 253.638 -17.5508L300.913 -182.737C302.187 -187.188 305.279 -190.896 309.43 -192.948L506.184 -290.24C509.726 -291.991 513.78 -292.408 517.605 -291.414L710.44 -241.277C716.015 -239.827 720.424 -235.565 722.062 -230.043L767.193 -77.8663C768.831 -72.3438 767.458 -66.367 763.575 -62.1125L629.252 85.0494C626.588 87.968 622.962 89.8292 619.038 90.292L401.054 115.999C396.456 116.541 391.842 115.119 388.347 112.082L258.659 -0.622291Z" stroke="url(#paint37_linear_4566_18828)" stroke-width="2.85847"/>
<path opacity="0.565217" d="M251.114 12.2063C246.119 8.28227 243.832 1.83143 245.24 -4.36242L282.976 -170.332C284.004 -174.857 286.898 -178.736 290.941 -181.011L479.534 -287.156C482.996 -289.104 487.047 -289.733 490.937 -288.925L683.592 -248.914C689.216 -247.746 693.823 -243.727 695.742 -238.313L748.382 -89.8149C750.302 -84.401 749.255 -78.3779 745.623 -73.9285L621.181 78.4886C618.668 81.5663 615.125 83.6296 611.209 84.2967L397.87 120.632C393.296 121.411 388.605 120.22 384.956 117.354L251.114 12.2063Z" stroke="url(#paint38_linear_4566_18828)" stroke-width="2.85847"/>
<path opacity="0.57971" d="M244.111 24.4274C238.956 20.775 236.351 14.4911 237.409 8.26255L265.655 -157.949C266.434 -162.534 269.119 -166.574 273.044 -169.068L453.095 -283.479C456.467 -285.622 460.504 -286.463 464.451 -285.846L656.401 -255.806C662.06 -254.921 666.85 -251.153 669.043 -245.863L728.934 -101.407C731.127 -96.1165 730.409 -90.0653 727.036 -85.4357L612.651 71.6094C610.299 74.8388 606.851 77.1009 602.952 77.9728L394.766 124.523C390.228 125.538 385.472 124.583 381.678 121.894L244.111 24.4274Z" stroke="url(#paint39_linear_4566_18828)" stroke-width="2.85847"/>
<path opacity="0.594203" d="M237.605 36.0165C232.305 32.642 229.393 26.5411 230.101 20.2981L248.939 -145.623C249.464 -150.254 251.932 -154.444 255.726 -157.15L426.894 -279.228C430.165 -281.561 434.177 -282.615 438.173 -282.191L628.909 -261.942C634.588 -261.339 639.547 -257.832 642.007 -252.678L708.871 -112.613C711.331 -107.46 710.94 -101.398 707.838 -96.6039L603.646 64.4381C601.463 67.8115 598.12 70.2686 594.249 71.3451L391.695 127.674C387.204 128.922 382.395 128.206 378.463 125.703L237.605 36.0165Z" stroke="url(#paint40_linear_4566_18828)" stroke-width="2.85847"/>
<path opacity="0.608696" d="M231.556 46.9539C226.127 43.8625 222.919 37.9601 223.28 31.7226L232.819 -133.383C233.088 -138.047 235.329 -142.376 238.982 -145.287L400.964 -274.419C404.124 -276.938 408.101 -278.205 412.136 -277.977L601.167 -267.31C606.851 -266.989 611.965 -263.749 614.683 -258.747L688.226 -123.402C690.945 -118.4 690.881 -112.347 688.057 -107.403L594.157 57.0034C592.153 60.5125 588.926 63.1603 585.093 64.4409L388.616 130.089C384.185 131.569 379.334 131.094 375.275 128.783L231.556 46.9539Z" stroke="url(#paint41_linear_4566_18828)" stroke-width="2.85847"/>
<path opacity="0.623188" d="M225.92 57.22C220.377 54.4163 216.888 48.727 216.902 42.515L217.283 -121.263C217.294 -125.945 219.301 -130.4 222.8 -133.51L375.334 -269.072C378.372 -271.772 382.303 -273.251 386.368 -273.222L573.221 -271.905C578.896 -271.865 584.149 -268.9 587.116 -264.062L667.031 -133.748C669.998 -128.91 670.259 -122.884 667.722 -117.807L584.175 49.3324C582.357 52.9684 579.257 55.8019 575.473 57.2856L385.486 131.774C381.127 133.483 376.246 133.252 372.068 131.139L225.92 57.22Z" stroke="url(#paint42_linear_4566_18828)" stroke-width="2.85847"/>
<path opacity="0.637681" d="M220.655 66.8007C215.014 64.2883 211.257 58.8258 210.929 52.659L202.317 -109.29C202.068 -113.976 203.834 -118.545 207.17 -121.846L350.032 -263.207C352.939 -266.083 356.813 -267.772 360.899 -267.945L545.119 -275.724C550.771 -275.963 556.149 -273.278 559.355 -268.617L645.319 -143.626C648.524 -138.965 649.108 -132.982 646.863 -127.789L573.692 41.4546C572.07 45.2081 569.106 48.2219 565.38 49.9074L382.265 132.741C377.99 134.675 373.091 134.69 368.804 132.781L220.655 66.8007Z" stroke="url(#paint43_linear_4566_18828)" stroke-width="2.85847"/>
<path opacity="0.652174" d="M215.717 75.6819C209.993 73.4635 205.983 68.2407 205.318 62.1385L187.909 -97.4946C187.399 -102.171 188.917 -106.841 192.078 -110.324L325.086 -256.847C327.852 -259.893 331.659 -261.791 335.756 -262.167L516.909 -278.766C522.525 -279.281 528.011 -276.881 531.446 -272.409L623.123 -153.013C626.557 -148.541 627.459 -142.62 625.512 -137.328L562.704 33.3973C561.284 37.2586 558.466 40.4468 554.809 42.3319L378.914 133C374.733 135.155 369.829 135.416 365.443 133.716L215.717 75.6819Z" stroke="url(#paint44_linear_4566_18828)" stroke-width="2.85847"/>
<path opacity="0.666667" d="M211.056 83.8546C205.267 81.9321 201.018 76.961 200.021 70.9425L174.035 -85.9037C173.264 -90.5551 174.528 -95.3135 177.506 -98.9693L300.516 -250.014C303.131 -253.224 306.86 -255.33 310.96 -255.909L488.634 -281.033C494.199 -281.82 499.779 -279.709 503.43 -275.437L600.474 -161.888C604.125 -157.616 605.341 -151.775 603.697 -146.401L551.2 25.1901C549.989 29.149 547.329 32.5051 543.75 34.5874L375.386 132.565C371.311 134.937 366.414 135.444 361.939 133.958L211.056 83.8546Z" stroke="url(#paint45_linear_4566_18828)" stroke-width="2.85847"/>
<path opacity="0.681159" d="M206.633 91.3109C200.793 89.6851 196.322 84.9768 195 79.0606L160.682 -74.5442C159.652 -79.1565 160.657 -83.9892 163.44 -87.8085L276.35 -242.735C278.804 -246.102 282.446 -248.412 286.538 -249.197L460.344 -282.53C465.844 -283.584 471.502 -281.766 475.358 -277.705L577.412 -170.234C581.268 -166.173 582.791 -160.428 581.453 -154.99L539.182 16.861C538.187 20.9069 535.693 24.4239 532.203 26.7006L371.648 131.453C367.69 134.035 362.812 134.789 358.259 133.521L206.633 91.3109Z" stroke="url(#paint46_linear_4566_18828)" stroke-width="2.85847"/>
<path opacity="0.695652" d="M202.402 98.0463C196.528 96.7174 191.851 92.2819 190.213 86.4861L147.832 -63.4409C146.543 -67.9996 147.284 -72.8926 149.865 -76.8653L252.611 -235.035C254.895 -238.552 258.438 -241.063 262.513 -242.053L432.084 -283.264C437.506 -284.581 443.227 -283.058 447.275 -279.218L553.971 -178.034C558.02 -174.194 559.845 -168.563 558.816 -163.078L526.649 8.43863C525.876 12.5605 523.557 16.2309 520.166 18.6985L367.662 129.681C363.832 132.469 358.985 133.468 354.364 132.423L202.402 98.0463Z" stroke="url(#paint47_linear_4566_18828)" stroke-width="2.85847"/>
<path opacity="0.710145" d="M198.319 104.059C192.426 103.026 187.56 98.8728 185.614 93.2151L135.462 -52.6171C133.917 -57.1078 134.391 -62.0469 136.76 -66.1625L229.317 -226.941C231.423 -230.6 234.856 -233.308 238.905 -234.504L403.898 -283.245C409.23 -284.82 414.996 -283.593 419.225 -279.984L530.189 -185.274C534.418 -181.665 536.535 -176.163 535.817 -170.65L513.599 -0.0482708C513.054 4.13795 510.919 7.95388 507.636 10.6086L363.392 127.272C359.7 130.258 354.896 131.501 350.219 130.682L198.319 104.059Z" stroke="url(#paint48_linear_4566_18828)" stroke-width="2.85847"/>
<path opacity="0.724638" d="M194.337 109.35C188.44 108.612 183.402 104.748 181.159 99.2456L123.548 -42.0953C121.751 -46.5036 121.954 -51.4743 124.104 -55.7217L206.485 -218.482C208.404 -222.274 211.718 -225.175 215.73 -226.576L375.828 -282.486C381.057 -284.312 386.853 -283.382 391.248 -280.012L506.099 -191.944C510.494 -188.573 512.896 -183.216 512.49 -177.693L500.032 -8.57176C499.719 -4.33302 497.777 -0.380028 494.613 2.45753L358.8 124.246C355.256 127.424 350.508 128.909 345.785 128.318L194.337 109.35Z" stroke="url(#paint49_linear_4566_18828)" stroke-width="2.85847"/>
<path opacity="0.73913" d="M190.414 113.923C184.53 113.477 179.336 109.91 176.807 104.578L112.07 -31.8961C110.025 -36.2077 109.954 -41.1955 111.877 -45.5631L184.133 -209.685C185.858 -213.602 189.042 -216.691 193.009 -218.297L347.918 -281.003C353.031 -283.073 358.842 -282.439 363.39 -279.316L481.741 -198.033C486.288 -194.909 488.965 -189.713 488.869 -184.197L485.952 -17.1041C485.877 -12.825 484.137 -8.74385 481.1 -5.72824L353.856 120.628C350.47 123.99 345.789 125.715 341.031 125.354L190.414 113.923Z" stroke="url(#paint50_linear_4566_18828)" stroke-width="2.85847"/>
<path opacity="0.753623" d="M186.506 117.784C180.649 117.626 175.319 114.362 172.516 109.217L101.004 -22.0385C98.7149 -26.2395 98.37 -31.2292 100.059 -35.7051L162.278 -200.58C163.799 -204.613 166.844 -207.886 170.756 -209.695L320.208 -278.812C325.195 -281.118 331.004 -280.78 335.69 -277.911L457.15 -203.535C461.836 -200.666 464.778 -195.645 464.99 -190.154L471.364 -25.6177C471.531 -21.3108 469.999 -17.1108 467.099 -13.9224L348.527 116.444C345.308 119.983 340.706 121.944 335.924 121.815L186.506 117.784Z" stroke="url(#paint51_linear_4566_18828)" stroke-width="2.85847"/>
<path opacity="0.768116" d="M182.571 120.94C176.756 121.067 171.308 118.111 168.244 113.167L90.324 -12.5406C87.7973 -16.6171 87.1771 -21.5938 88.626 -26.1657L140.931 -191.199C142.242 -195.337 145.138 -198.789 148.985 -200.8L292.737 -275.934C297.587 -278.469 303.379 -278.424 308.189 -275.815L432.363 -208.446C437.173 -205.837 440.369 -201.005 440.888 -195.558L456.273 -34.0863C456.685 -29.7646 455.37 -25.4555 452.616 -22.0997L342.782 111.722C339.739 115.429 335.229 117.623 330.434 117.727L182.571 120.94Z" stroke="url(#paint52_linear_4566_18828)" stroke-width="2.85847"/>
<path opacity="0.782609" d="M178.57 123.404C172.812 123.81 167.263 121.165 163.952 116.437L80.0091 -3.4179C77.2508 -7.35621 76.3554 -12.3048 77.5586 -16.96L120.107 -181.571C121.201 -185.806 123.938 -189.429 127.712 -191.64L265.548 -272.391C270.249 -275.145 276.009 -275.391 280.927 -273.047L407.421 -212.763C412.34 -210.419 415.777 -205.79 416.599 -200.404L440.689 -42.4827C441.349 -38.1594 440.258 -33.7513 437.659 -30.2344L336.598 106.491C333.74 110.358 329.332 112.779 324.536 113.117L178.57 123.404Z" stroke="url(#paint53_linear_4566_18828)" stroke-width="2.85847"/>
<path opacity="0.797101" d="M174.461 125.188C168.774 125.868 163.143 123.538 159.599 119.038L70.0306 5.31519C67.048 1.52831 65.8782 -3.37699 66.8307 -8.10234L99.8137 -171.729C100.684 -176.048 103.253 -179.837 106.944 -182.246L238.673 -268.207C243.216 -271.171 248.929 -271.703 253.941 -269.629L382.358 -216.486C387.37 -214.412 391.036 -209.999 392.155 -204.691L424.619 -50.7817C425.529 -46.4701 424.669 -41.9738 422.232 -38.302L329.945 100.782C327.279 104.799 322.985 107.443 318.199 108.015L174.461 125.188Z" stroke="url(#paint54_linear_4566_18828)" stroke-width="2.85847"/>
<path opacity="0.811594" d="M170.206 126.309C164.603 127.256 158.909 125.241 155.147 120.982L60.363 13.646C57.1641 10.0235 55.7216 5.17674 56.419 0.394546L80.0599 -161.702C80.7007 -166.097 83.0924 -170.045 86.6903 -172.647L212.149 -263.407C216.524 -266.572 222.174 -267.386 227.264 -265.586L357.209 -219.618C362.3 -217.817 366.181 -213.631 367.592 -208.419L408.073 -58.9581C409.234 -54.6718 408.611 -50.0982 406.346 -46.2785L322.8 94.6269C320.335 98.7839 316.166 101.645 311.4 102.451L170.206 126.309Z" stroke="url(#paint55_linear_4566_18828)" stroke-width="2.85847"/>
<path opacity="0.826087" d="M165.765 126.783C160.259 127.99 154.52 126.292 150.557 122.284L50.9779 21.5631C47.5714 18.1176 45.8587 13.3444 46.2974 8.51907L60.8495 -151.525C61.2549 -155.983 63.4604 -160.082 66.9568 -162.876L186.006 -258.021C190.204 -261.376 195.778 -262.467 200.931 -260.943L332.009 -222.162C337.163 -220.637 341.245 -216.69 342.942 -211.591L391.06 -66.9879C392.474 -62.7411 392.094 -58.1015 390.008 -54.1411L315.14 88.0581C312.882 92.3454 308.848 95.4183 304.115 96.4558L165.765 126.783Z" stroke="url(#paint56_linear_4566_18828)" stroke-width="2.85847"/>
<path opacity="0.84058" d="M161.106 126.632C155.711 128.091 149.944 126.708 145.797 122.962L41.8531 29.058C38.2484 25.8015 36.2688 21.1172 36.446 16.2625L42.1918 -141.228C42.3563 -145.737 44.3673 -149.98 47.7533 -152.963L160.28 -252.077C164.294 -255.612 169.776 -256.973 174.976 -255.727L306.798 -224.124C311.999 -222.878 316.267 -219.179 318.242 -214.209L373.598 -74.8471C375.264 -70.6536 375.132 -65.9599 373.235 -61.8663L306.949 81.1109C304.905 85.5181 301.017 88.7958 296.328 90.0639L161.106 126.632Z" stroke="url(#paint57_linear_4566_18828)" stroke-width="2.85847"/>
<path opacity="0.855072" d="M156.19 125.875C150.918 127.578 145.142 126.509 140.828 123.033L32.9572 36.1215C29.1645 33.0657 26.9224 28.4851 26.8357 23.6153L24.0851 -130.845C24.004 -135.393 25.8121 -139.772 29.0788 -142.939L134.996 -245.608C138.817 -249.312 144.194 -250.936 149.426 -249.968L281.605 -225.515C286.837 -224.547 291.277 -221.106 293.52 -216.281L355.696 -82.5144C357.614 -78.3887 357.736 -73.6528 356.033 -69.434L298.205 73.8188C296.382 78.3353 292.65 81.8106 288.015 83.3073L156.19 125.875Z" stroke="url(#paint58_linear_4566_18828)" stroke-width="2.85847"/>
<path opacity="0.869565" d="M150.986 124.539C145.847 126.476 140.081 125.718 135.617 122.52L24.2633 42.7489C20.2935 39.9049 17.7938 35.443 17.4418 30.5723L6.52993 -120.405C6.19919 -124.982 7.79636 -129.488 10.9352 -132.834L110.18 -238.646C113.801 -242.506 119.06 -244.387 124.308 -243.698L256.464 -226.343C261.712 -225.654 266.307 -222.479 268.808 -217.815L337.369 -89.967C339.538 -85.9236 339.917 -81.1578 338.416 -76.822L288.894 66.2193C287.296 70.834 283.729 74.4993 279.16 76.2218L150.986 124.539Z" stroke="url(#paint59_linear_4566_18828)" stroke-width="2.85847"/>
<path opacity="0.884058" d="M145.464 122.647C140.471 124.808 134.731 124.359 130.135 121.445L15.747 48.9346C11.6115 46.3131 8.86017 41.9844 8.24212 37.1272L-10.4719 -109.943C-11.0561 -114.534 -9.67754 -119.159 -6.67501 -122.681L85.8599 -231.225C89.2754 -235.231 94.4034 -237.359 99.652 -236.948L231.408 -226.622C236.657 -226.21 241.391 -223.31 244.141 -218.82L318.636 -97.1855C321.053 -93.2388 321.694 -88.4558 320.402 -84.0118L279.005 58.3476C277.637 63.0492 274.245 66.8964 269.752 68.8416L145.464 122.647Z" stroke="url(#paint60_linear_4566_18828)" stroke-width="2.85847"/>
<path opacity="0.898551" d="M139.596 120.227C134.757 122.604 129.061 122.456 124.352 119.833L7.3805 54.6771C3.09164 52.2881 0.0952322 48.107 -0.788777 43.2779L-26.9239 -99.4886C-27.7647 -104.082 -26.6122 -108.816 -23.7542 -112.508L62.0568 -223.38C65.2611 -227.52 70.246 -229.886 75.4795 -229.75L206.47 -226.363C211.704 -226.228 216.56 -223.607 219.546 -219.307L299.512 -104.149C302.175 -100.314 303.081 -95.5265 302.004 -90.983L268.526 50.242C267.393 55.019 264.185 59.0396 259.778 61.2038L139.596 120.227Z" stroke="url(#paint61_linear_4566_18828)" stroke-width="2.85847"/>
<path opacity="0.913043" d="M133.349 117.309C128.675 119.889 123.04 120.038 118.236 117.71L-0.866831 59.9747C-5.29627 57.8275 -8.53018 53.8081 -9.67933 49.0217L-42.8347 -89.0735C-43.9348 -93.6554 -43.0154 -98.489 -40.3101 -102.347L38.7867 -215.147C41.775 -219.409 46.6053 -222.003 51.8085 -222.141L181.674 -225.585C186.877 -225.722 191.838 -223.388 195.048 -219.29L280.011 -110.84C282.917 -107.131 284.091 -102.352 283.236 -97.7187L257.445 41.9394C256.551 46.7799 253.534 50.9651 249.225 53.3439L133.349 117.309Z" stroke="url(#paint62_linear_4566_18828)" stroke-width="2.85847"/>
<path opacity="0.927536" d="M126.703 113.922C122.204 116.694 116.645 117.133 111.766 115.102L-9.01645 64.8276C-13.573 62.931 -17.0362 59.087 -18.4489 54.358L-58.2056 -78.7285C-59.5669 -83.2857 -58.8874 -88.2092 -56.3426 -92.2273L16.0725 -206.565C18.8407 -210.936 23.5054 -213.748 28.6631 -214.156L157.055 -224.303C162.212 -224.71 167.261 -222.666 170.681 -218.784L260.158 -117.241C263.302 -113.672 264.747 -108.916 264.118 -104.202L245.76 33.4773C245.108 38.3696 242.291 42.7098 238.089 45.2986L126.703 113.922Z" stroke="url(#paint63_linear_4566_18828)" stroke-width="2.85847"/>
<path opacity="0.942029" d="M119.636 110.096C115.318 113.049 109.853 113.77 104.917 112.038L-17.0955 69.2371C-21.7652 67.5989 -25.4484 63.9439 -27.1222 59.2868L-73.0455 -68.4847C-74.6697 -73.0035 -74.2365 -78.0067 -71.8597 -82.1792L-6.07191 -197.672C-3.52706 -202.139 0.961758 -205.159 6.05908 -205.831L132.637 -222.538C137.735 -223.211 142.853 -221.459 146.47 -217.805L239.97 -123.336C243.347 -119.923 245.064 -115.204 244.668 -110.418L233.467 24.8928C233.059 29.8247 230.451 34.3101 226.366 37.1038L119.636 110.096Z" stroke="url(#paint64_linear_4566_18828)" stroke-width="2.85847"/>
<path opacity="0.956522" d="M112.121 105.865C107.993 108.987 102.636 109.981 97.662 108.55L-25.1345 73.2082C-29.903 71.8358 -33.7963 68.3826 -35.728 63.812L-87.3693 -58.3697C-89.2572 -62.8364 -89.0763 -67.9088 -86.8751 -72.2296L-27.6388 -188.504C-25.32 -193.056 -21.0166 -196.271 -15.9942 -197.203L108.443 -220.308C113.465 -221.241 118.636 -219.785 122.434 -216.369L219.462 -129.109C223.067 -125.867 225.057 -121.198 224.898 -116.351L220.56 16.2251C220.398 21.1845 218.004 25.8051 214.046 28.7978L112.121 105.865Z" stroke="url(#paint65_linear_4566_18828)" stroke-width="2.85847"/>
<path opacity="0.971014" d="M104.145 101.262C100.213 104.54 94.9784 105.798 89.9863 104.666L-33.1532 76.7445C-38.0054 75.6443 -42.098 72.4054 -44.2838 67.9359L-101.183 -48.414C-103.335 -52.8143 -103.412 -57.9451 -101.393 -62.4081L-48.6125 -179.103C-46.5215 -183.726 -42.4125 -187.124 -37.4791 -188.31L84.5002 -217.637C89.4336 -218.823 94.6382 -217.664 98.6022 -214.497L198.661 -134.548C202.487 -131.491 204.751 -126.886 204.835 -121.988L207.044 7.51056C207.129 12.4852 204.956 17.2305 201.134 20.4161L104.145 101.262Z" stroke="url(#paint66_linear_4566_18828)" stroke-width="2.85847"/>
<path opacity="0.985507" d="M95.6915 96.3214C91.9617 99.7423 86.8639 101.254 81.8722 100.42L-41.176 79.8532C-46.0964 79.0308 -50.3769 76.0182 -52.8118 71.6641L-114.498 -38.6446C-116.914 -42.9642 -117.255 -48.1424 -115.426 -52.7411L-68.9853 -169.506C-67.1232 -174.188 -63.2166 -177.757 -58.386 -179.19L60.8323 -214.546C65.6629 -215.979 70.8837 -215.117 74.9972 -212.207L177.587 -139.64C181.628 -136.782 184.166 -132.255 184.496 -127.317L192.922 -1.21293C193.254 3.76462 191.308 8.62384 187.632 11.9958L95.6915 96.3214Z" stroke="url(#paint67_linear_4566_18828)" stroke-width="2.85847"/>
<path d="M86.743 91.0777C83.2205 94.6289 78.2726 96.3829 73.2999 95.8431L-49.2307 82.5417C-54.2034 82.0019 -58.6597 79.227 -61.338 75.0026L-127.335 -29.0889C-130.013 -33.3133 -130.622 -38.5275 -128.99 -43.2554L-88.7561 -159.754C-87.1233 -164.482 -83.4264 -168.209 -78.7119 -169.88L37.4556 -211.06C42.17 -212.731 47.389 -212.165 51.635 -209.521L156.26 -144.373C160.506 -141.729 163.317 -137.295 163.897 -132.327L178.195 -9.90867C178.775 -4.9405 177.061 0.0215169 173.539 3.57278L86.743 91.0777Z" stroke="url(#paint68_linear_4566_18828)" stroke-width="2.85847"/>
</g>
<defs>
<linearGradient id="paint0_linear_4566_18828" x1="1118.49" y1="-524.107" x2="1052.86" y2="313.348" gradientUnits="userSpaceOnUse">
<stop stop-color="#112D44"/>
<stop offset="1" stop-color="#06E7ED"/>
</linearGradient>
<linearGradient id="paint1_linear_4566_18828" x1="1081.66" y1="-520.664" x2="1060.14" y2="311.667" gradientUnits="userSpaceOnUse">
<stop stop-color="#112D44"/>
<stop offset="1" stop-color="#06E7ED"/>
</linearGradient>
<linearGradient id="paint2_linear_4566_18828" x1="1045.17" y1="-516.113" x2="1067.04" y2="308.791" gradientUnits="userSpaceOnUse">
<stop stop-color="#112D44"/>
<stop offset="1" stop-color="#06E7ED"/>
</linearGradient>
<linearGradient id="paint3_linear_4566_18828" x1="1009.08" y1="-510.482" x2="1073.51" y2="304.757" gradientUnits="userSpaceOnUse">
<stop stop-color="#112D44"/>
<stop offset="1" stop-color="#06E7ED"/>
</linearGradient>
<linearGradient id="paint4_linear_4566_18828" x1="973.452" y1="-503.803" x2="1079.49" y2="299.596" gradientUnits="userSpaceOnUse">
<stop stop-color="#112D44"/>
<stop offset="1" stop-color="#06E7ED"/>
</linearGradient>
<linearGradient id="paint5_linear_4566_18828" x1="938.334" y1="-496.112" x2="1084.92" y2="293.347" gradientUnits="userSpaceOnUse">
<stop stop-color="#112D44"/>
<stop offset="1" stop-color="#06E7ED"/>
</linearGradient>
<linearGradient id="paint6_linear_4566_18828" x1="903.777" y1="-487.447" x2="1089.74" y2="286.05" gradientUnits="userSpaceOnUse">
<stop stop-color="#112D44"/>
<stop offset="1" stop-color="#06E7ED"/>
</linearGradient>
<linearGradient id="paint7_linear_4566_18828" x1="869.829" y1="-477.847" x2="1093.92" y2="277.748" gradientUnits="userSpaceOnUse">
<stop stop-color="#112D44"/>
<stop offset="1" stop-color="#06E7ED"/>
</linearGradient>
<linearGradient id="paint8_linear_4566_18828" x1="836.537" y1="-467.355" x2="1097.38" y2="268.489" gradientUnits="userSpaceOnUse">
<stop stop-color="#112D44"/>
<stop offset="1" stop-color="#06E7ED"/>
</linearGradient>
<linearGradient id="paint9_linear_4566_18828" x1="803.94" y1="-456.017" x2="1100.1" y2="258.318" gradientUnits="userSpaceOnUse">
<stop stop-color="#112D44"/>
<stop offset="1" stop-color="#06E7ED"/>
</linearGradient>
<linearGradient id="paint10_linear_4566_18828" x1="772.082" y1="-443.878" x2="1102.03" y2="247.287" gradientUnits="userSpaceOnUse">
<stop stop-color="#112D44"/>
<stop offset="1" stop-color="#06E7ED"/>
</linearGradient>
<linearGradient id="paint11_linear_4566_18828" x1="740.995" y1="-430.987" x2="1103.12" y2="235.448" gradientUnits="userSpaceOnUse">
<stop stop-color="#112D44"/>
<stop offset="1" stop-color="#06E7ED"/>
</linearGradient>
<linearGradient id="paint12_linear_4566_18828" x1="710.715" y1="-417.395" x2="1103.35" y2="222.855" gradientUnits="userSpaceOnUse">
<stop stop-color="#112D44"/>
<stop offset="1" stop-color="#06E7ED"/>
</linearGradient>
<linearGradient id="paint13_linear_4566_18828" x1="681.277" y1="-403.152" x2="1102.68" y2="209.562" gradientUnits="userSpaceOnUse">
<stop stop-color="#112D44"/>
<stop offset="1" stop-color="#06E7ED"/>
</linearGradient>
<linearGradient id="paint14_linear_4566_18828" x1="652.698" y1="-388.312" x2="1101.07" y2="195.628" gradientUnits="userSpaceOnUse">
<stop stop-color="#112D44"/>
<stop offset="1" stop-color="#06E7ED"/>
</linearGradient>
<linearGradient id="paint15_linear_4566_18828" x1="625.009" y1="-372.928" x2="1098.52" y2="181.109" gradientUnits="userSpaceOnUse">
<stop stop-color="#112D44"/>
<stop offset="1" stop-color="#06E7ED"/>
</linearGradient>
<linearGradient id="paint16_linear_4566_18828" x1="598.231" y1="-357.056" x2="1094.98" y2="166.064" gradientUnits="userSpaceOnUse">
<stop stop-color="#112D44"/>
<stop offset="1" stop-color="#06E7ED"/>
</linearGradient>
<linearGradient id="paint17_linear_4566_18828" x1="572.382" y1="-340.75" x2="1090.45" y2="150.553" gradientUnits="userSpaceOnUse">
<stop stop-color="#112D44"/>
<stop offset="1" stop-color="#06E7ED"/>
</linearGradient>
<linearGradient id="paint18_linear_4566_18828" x1="547.474" y1="-324.066" x2="1084.9" y2="134.638" gradientUnits="userSpaceOnUse">
<stop stop-color="#112D44"/>
<stop offset="1" stop-color="#06E7ED"/>
</linearGradient>
<linearGradient id="paint19_linear_4566_18828" x1="523.517" y1="-307.061" x2="1078.33" y2="118.375" gradientUnits="userSpaceOnUse">
<stop stop-color="#112D44"/>
<stop offset="1" stop-color="#06E7ED"/>
</linearGradient>
<linearGradient id="paint20_linear_4566_18828" x1="500.521" y1="-289.791" x2="1070.73" y2="101.828" gradientUnits="userSpaceOnUse">
<stop stop-color="#112D44"/>
<stop offset="1" stop-color="#06E7ED"/>
</linearGradient>
<linearGradient id="paint21_linear_4566_18828" x1="478.491" y1="-272.312" x2="1062.09" y2="85.0565" gradientUnits="userSpaceOnUse">
<stop stop-color="#112D44"/>
<stop offset="1" stop-color="#06E7ED"/>
</linearGradient>
<linearGradient id="paint22_linear_4566_18828" x1="457.426" y1="-254.679" x2="1052.41" y2="68.1206" gradientUnits="userSpaceOnUse">
<stop stop-color="#112D44"/>
<stop offset="1" stop-color="#06E7ED"/>
</linearGradient>
<linearGradient id="paint23_linear_4566_18828" x1="437.325" y1="-236.949" x2="1041.7" y2="51.0794" gradientUnits="userSpaceOnUse">
<stop stop-color="#112D44"/>
<stop offset="1" stop-color="#06E7ED"/>
</linearGradient>
<linearGradient id="paint24_linear_4566_18828" x1="418.184" y1="-219.177" x2="1029.95" y2="33.9916" gradientUnits="userSpaceOnUse">
<stop stop-color="#112D44"/>
<stop offset="1" stop-color="#06E7ED"/>
</linearGradient>
<linearGradient id="paint25_linear_4566_18828" x1="399.995" y1="-201.415" x2="1017.18" y2="16.9164" gradientUnits="userSpaceOnUse">
<stop stop-color="#112D44"/>
<stop offset="1" stop-color="#06E7ED"/>
</linearGradient>
<linearGradient id="paint26_linear_4566_18828" x1="382.743" y1="-183.717" x2="1003.4" y2="-0.0897929" gradientUnits="userSpaceOnUse">
<stop stop-color="#112D44"/>
<stop offset="1" stop-color="#06E7ED"/>
</linearGradient>
<linearGradient id="paint27_linear_4566_18828" x1="366.419" y1="-166.136" x2="988.63" y2="-16.9713" gradientUnits="userSpaceOnUse">
<stop stop-color="#112D44"/>
<stop offset="1" stop-color="#06E7ED"/>
</linearGradient>
<linearGradient id="paint28_linear_4566_18828" x1="351.004" y1="-148.721" x2="972.879" y2="-33.6737" gradientUnits="userSpaceOnUse">
<stop stop-color="#112D44"/>
<stop offset="1" stop-color="#06E7ED"/>
</linearGradient>
<linearGradient id="paint29_linear_4566_18828" x1="336.479" y1="-131.522" x2="956.171" y2="-50.1444" gradientUnits="userSpaceOnUse">
<stop stop-color="#112D44"/>
<stop offset="1" stop-color="#06E7ED"/>
</linearGradient>
<linearGradient id="paint30_linear_4566_18828" x1="322.821" y1="-114.586" x2="938.532" y2="-66.3317" gradientUnits="userSpaceOnUse">
<stop stop-color="#112D44"/>
<stop offset="1" stop-color="#06E7ED"/>
</linearGradient>
<linearGradient id="paint31_linear_4566_18828" x1="310.006" y1="-97.9602" x2="919.986" y2="-82.187" gradientUnits="userSpaceOnUse">
<stop stop-color="#112D44"/>
<stop offset="1" stop-color="#06E7ED"/>
</linearGradient>
<linearGradient id="paint32_linear_4566_18828" x1="298.005" y1="-81.6864" x2="900.564" y2="-97.6622" gradientUnits="userSpaceOnUse">
<stop stop-color="#112D44"/>
<stop offset="1" stop-color="#06E7ED"/>
</linearGradient>
<linearGradient id="paint33_linear_4566_18828" x1="286.792" y1="-65.808" x2="880.297" y2="-112.713" gradientUnits="userSpaceOnUse">
<stop stop-color="#112D44"/>
<stop offset="1" stop-color="#06E7ED"/>
</linearGradient>
<linearGradient id="paint34_linear_4566_18828" x1="276.332" y1="-50.3641" x2="859.218" y2="-127.297" gradientUnits="userSpaceOnUse">
<stop stop-color="#112D44"/>
<stop offset="1" stop-color="#06E7ED"/>
</linearGradient>
<linearGradient id="paint35_linear_4566_18828" x1="266.594" y1="-35.3931" x2="837.366" y2="-141.373" gradientUnits="userSpaceOnUse">
<stop stop-color="#112D44"/>
<stop offset="1" stop-color="#06E7ED"/>
</linearGradient>
<linearGradient id="paint36_linear_4566_18828" x1="257.538" y1="-20.9295" x2="814.773" y2="-154.903" gradientUnits="userSpaceOnUse">
<stop stop-color="#112D44"/>
<stop offset="1" stop-color="#06E7ED"/>
</linearGradient>
<linearGradient id="paint37_linear_4566_18828" x1="249.134" y1="-7.00622" x2="791.485" y2="-167.851" gradientUnits="userSpaceOnUse">
<stop stop-color="#112D44"/>
<stop offset="1" stop-color="#06E7ED"/>
</linearGradient>
<linearGradient id="paint38_linear_4566_18828" x1="241.34" y1="6.34556" x2="767.542" y2="-180.186" gradientUnits="userSpaceOnUse">
<stop stop-color="#112D44"/>
<stop offset="1" stop-color="#06E7ED"/>
</linearGradient>
<linearGradient id="paint39_linear_4566_18828" x1="234.118" y1="19.0988" x2="742.988" y2="-191.877" gradientUnits="userSpaceOnUse">
<stop stop-color="#112D44"/>
<stop offset="1" stop-color="#06E7ED"/>
</linearGradient>
<linearGradient id="paint40_linear_4566_18828" x1="227.422" y1="31.2273" x2="717.862" y2="-202.897" gradientUnits="userSpaceOnUse">
<stop stop-color="#112D44"/>
<stop offset="1" stop-color="#06E7ED"/>
</linearGradient>
<linearGradient id="paint41_linear_4566_18828" x1="221.213" y1="42.7097" x2="692.213" y2="-213.222" gradientUnits="userSpaceOnUse">
<stop stop-color="#112D44"/>
<stop offset="1" stop-color="#06E7ED"/>
</linearGradient>
<linearGradient id="paint42_linear_4566_18828" x1="215.448" y1="53.5248" x2="666.087" y2="-222.83" gradientUnits="userSpaceOnUse">
<stop stop-color="#112D44"/>
<stop offset="1" stop-color="#06E7ED"/>
</linearGradient>
<linearGradient id="paint43_linear_4566_18828" x1="210.082" y1="63.6567" x2="639.532" y2="-231.703" gradientUnits="userSpaceOnUse">
<stop stop-color="#112D44"/>
<stop offset="1" stop-color="#06E7ED"/>
</linearGradient>
<linearGradient id="paint44_linear_4566_18828" x1="205.074" y1="73.0897" x2="612.597" y2="-239.826" gradientUnits="userSpaceOnUse">
<stop stop-color="#112D44"/>
<stop offset="1" stop-color="#06E7ED"/>
</linearGradient>
<linearGradient id="paint45_linear_4566_18828" x1="200.373" y1="81.8131" x2="585.325" y2="-247.184" gradientUnits="userSpaceOnUse">
<stop stop-color="#112D44"/>
<stop offset="1" stop-color="#06E7ED"/>
</linearGradient>
<linearGradient id="paint46_linear_4566_18828" x1="195.939" y1="89.8174" x2="557.768" y2="-253.771" gradientUnits="userSpaceOnUse">
<stop stop-color="#112D44"/>
<stop offset="1" stop-color="#06E7ED"/>
</linearGradient>
<linearGradient id="paint47_linear_4566_18828" x1="191.727" y1="97.0966" x2="529.976" y2="-259.578" gradientUnits="userSpaceOnUse">
<stop stop-color="#112D44"/>
<stop offset="1" stop-color="#06E7ED"/>
</linearGradient>
<linearGradient id="paint48_linear_4566_18828" x1="187.69" y1="103.647" x2="501.996" y2="-264.601" gradientUnits="userSpaceOnUse">
<stop stop-color="#112D44"/>
<stop offset="1" stop-color="#06E7ED"/>
</linearGradient>
<linearGradient id="paint49_linear_4566_18828" x1="183.783" y1="109.469" x2="473.874" y2="-268.841" gradientUnits="userSpaceOnUse">
<stop stop-color="#112D44"/>
<stop offset="1" stop-color="#06E7ED"/>
</linearGradient>
<linearGradient id="paint50_linear_4566_18828" x1="179.962" y1="114.563" x2="445.658" y2="-272.299" gradientUnits="userSpaceOnUse">
<stop stop-color="#112D44"/>
<stop offset="1" stop-color="#06E7ED"/>
</linearGradient>
<linearGradient id="paint51_linear_4566_18828" x1="176.183" y1="118.935" x2="417.397" y2="-274.979" gradientUnits="userSpaceOnUse">
<stop stop-color="#112D44"/>
<stop offset="1" stop-color="#06E7ED"/>
</linearGradient>
<linearGradient id="paint52_linear_4566_18828" x1="172.403" y1="122.591" x2="389.135" y2="-276.891" gradientUnits="userSpaceOnUse">
<stop stop-color="#112D44"/>
<stop offset="1" stop-color="#06E7ED"/>
</linearGradient>
<linearGradient id="paint53_linear_4566_18828" x1="168.583" y1="125.541" x2="360.921" y2="-278.044" gradientUnits="userSpaceOnUse">
<stop stop-color="#112D44"/>
<stop offset="1" stop-color="#06E7ED"/>
</linearGradient>
<linearGradient id="paint54_linear_4566_18828" x1="164.678" y1="127.797" x2="332.796" y2="-278.45" gradientUnits="userSpaceOnUse">
<stop stop-color="#112D44"/>
<stop offset="1" stop-color="#06E7ED"/>
</linearGradient>
<linearGradient id="paint55_linear_4566_18828" x1="160.651" y1="129.373" x2="304.804" y2="-278.126" gradientUnits="userSpaceOnUse">
<stop stop-color="#112D44"/>
<stop offset="1" stop-color="#06E7ED"/>
</linearGradient>
<linearGradient id="paint56_linear_4566_18828" x1="156.459" y1="130.286" x2="276.984" y2="-277.089" gradientUnits="userSpaceOnUse">
<stop stop-color="#112D44"/>
<stop offset="1" stop-color="#06E7ED"/>
</linearGradient>
<linearGradient id="paint57_linear_4566_18828" x1="152.071" y1="130.555" x2="249.382" y2="-275.36" gradientUnits="userSpaceOnUse">
<stop stop-color="#112D44"/>
<stop offset="1" stop-color="#06E7ED"/>
</linearGradient>
<linearGradient id="paint58_linear_4566_18828" x1="147.446" y1="130.201" x2="222.031" y2="-272.961" gradientUnits="userSpaceOnUse">
<stop stop-color="#112D44"/>
<stop offset="1" stop-color="#06E7ED"/>
</linearGradient>
<linearGradient id="paint59_linear_4566_18828" x1="142.551" y1="129.246" x2="194.968" y2="-269.915" gradientUnits="userSpaceOnUse">
<stop stop-color="#112D44"/>
<stop offset="1" stop-color="#06E7ED"/>
</linearGradient>
<linearGradient id="paint60_linear_4566_18828" x1="137.355" y1="127.714" x2="168.231" y2="-266.252" gradientUnits="userSpaceOnUse">
<stop stop-color="#112D44"/>
<stop offset="1" stop-color="#06E7ED"/>
</linearGradient>
<linearGradient id="paint61_linear_4566_18828" x1="131.829" y1="125.634" x2="141.852" y2="-261.996" gradientUnits="userSpaceOnUse">
<stop stop-color="#112D44"/>
<stop offset="1" stop-color="#06E7ED"/>
</linearGradient>
<linearGradient id="paint62_linear_4566_18828" x1="125.939" y1="123.032" x2="115.858" y2="-257.18" gradientUnits="userSpaceOnUse">
<stop stop-color="#112D44"/>
<stop offset="1" stop-color="#06E7ED"/>
</linearGradient>
<linearGradient id="paint63_linear_4566_18828" x1="119.664" y1="119.938" x2="90.282" y2="-251.835" gradientUnits="userSpaceOnUse">
<stop stop-color="#112D44"/>
<stop offset="1" stop-color="#06E7ED"/>
</linearGradient>
<linearGradient id="paint64_linear_4566_18828" x1="112.978" y1="116.381" x2="65.1498" y2="-245.994" gradientUnits="userSpaceOnUse">
<stop stop-color="#112D44"/>
<stop offset="1" stop-color="#06E7ED"/>
</linearGradient>
<linearGradient id="paint65_linear_4566_18828" x1="105.855" y1="112.395" x2="40.4803" y2="-239.69" gradientUnits="userSpaceOnUse">
<stop stop-color="#112D44"/>
<stop offset="1" stop-color="#06E7ED"/>
</linearGradient>
<linearGradient id="paint66_linear_4566_18828" x1="98.2792" y1="108.012" x2="16.3009" y2="-232.961" gradientUnits="userSpaceOnUse">
<stop stop-color="#112D44"/>
<stop offset="1" stop-color="#06E7ED"/>
</linearGradient>
<linearGradient id="paint67_linear_4566_18828" x1="90.2338" y1="103.266" x2="-7.36926" y2="-225.84" gradientUnits="userSpaceOnUse">
<stop stop-color="#112D44"/>
<stop offset="1" stop-color="#06E7ED"/>
</linearGradient>
<linearGradient id="paint68_linear_4566_18828" x1="81.6989" y1="98.1925" x2="-30.5173" y2="-218.367" gradientUnits="userSpaceOnUse">
<stop stop-color="#112D44"/>
<stop offset="1" stop-color="#06E7ED"/>
</linearGradient>
</defs>
</svg>
