<svg width="32" height="32" viewBox="0 0 32 32" fill="none" xmlns="http://www.w3.org/2000/svg">
<path d="M16 32C7.16341 32 0 24.8366 0 16C0 7.16341 7.16341 0 16 0C24.8366 0 32 7.16341 32 16C32 24.8366 24.8366 32 16 32Z" fill="#112D44"/>
<path d="M18.543 22.7965L23.8763 16.3442C23.8862 16.3279 23.8953 16.3109 23.9034 16.2935C23.9195 16.2723 23.9339 16.2499 23.9466 16.2263C23.9531 16.2113 23.9589 16.1961 23.9638 16.1806C23.9719 16.1552 23.9781 16.1292 23.9823 16.1027C23.9888 16.0767 23.993 16.0504 23.9953 16.0236C23.9953 16.015 24 16.0087 24 16C24 15.9913 23.9958 15.9845 23.9953 15.9758C23.993 15.9499 23.9888 15.9241 23.9828 15.8989C23.9786 15.8716 23.9721 15.8448 23.9638 15.8188C23.9578 15.8031 23.9536 15.7881 23.9466 15.7732C23.9339 15.7501 23.9195 15.728 23.9039 15.707C23.8927 15.6907 23.8891 15.6716 23.8763 15.6558L18.543 9.20346C18.4227 9.05066 18.2294 8.97557 18.0385 9.00708C17.8474 9.03885 17.6885 9.17248 17.6232 9.35627C17.5578 9.53979 17.5964 9.74484 17.7237 9.89186L22.3281 15.4623L8.53333 15.4623C8.2388 15.4623 8 15.7031 8 16C8 16.2969 8.2388 16.5377 8.53333 16.5377L22.3281 16.5377L17.7237 22.1081C17.5964 22.2552 17.5578 22.4602 17.6232 22.6437C17.6885 22.8275 17.8474 22.9612 18.0385 22.9929C18.2294 23.0244 18.4227 22.9493 18.543 22.7965Z" fill="white" stroke="white"/>
</svg>
