<svg width="38" height="29" viewBox="0 0 38 29" fill="none" xmlns="http://www.w3.org/2000/svg">
<path fill-rule="evenodd" clip-rule="evenodd" d="M33.5451 22.0366C33.0094 21.5183 32.0887 21.8867 32.0887 22.6202C32.0887 23.3536 33.0094 23.722 33.5451 23.2038C33.8782 22.8815 33.8781 22.3588 33.5451 22.0366ZM22.6644 4.25211C20.4537 2.11339 16.869 2.11346 14.6583 4.25211C12.4475 6.39076 12.4476 9.85865 14.6583 11.9974C16.869 14.136 20.4537 14.136 22.6644 11.9974C24.8752 9.85865 24.8751 6.39084 22.6644 4.25211ZM18.6613 1.54591C22.4169 1.54591 25.4618 4.49152 25.4618 8.12475C25.4618 11.758 22.4169 14.7036 18.6613 14.7036C14.9056 14.7036 11.8609 11.758 11.8609 8.12475C11.8609 4.49152 14.9057 1.54591 18.6613 1.54591ZM28.8438 17.2533H27.1789L26.0687 18.8719H28.8438V17.2533ZM32.9212 18.872L31.6696 17.2534H29.983V18.872H32.9212ZM8.85106 18.7882C8.44904 18.3993 7.75829 18.6757 7.75829 19.226C7.75829 19.7764 8.44912 20.0528 8.85106 19.6639C9.10098 19.4222 9.10098 19.0298 8.85106 18.7882ZM8.39834 17.5046C9.97809 17.5046 10.775 19.3613 9.65656 20.4433C8.53791 21.5254 6.61897 20.7542 6.61897 19.2261C6.61897 18.2755 7.41576 17.5046 8.39834 17.5046ZM24.6 2.37964C27.8797 5.55246 27.8797 10.697 24.6 13.8699C21.3203 17.0427 16.0024 17.0428 12.7226 13.8699C9.44293 10.697 9.44293 5.55246 12.7226 2.37964C16.0024 -0.793254 21.3203 -0.793175 24.6 2.37964ZM13.1887 19.4816H12.3457C12.0311 19.4816 11.776 19.7283 11.776 20.0327V24.5313H5.02066V20.0327C5.02066 19.7283 4.76562 19.4816 4.451 19.4816H3.60799L8.39834 14.8473L13.1887 19.4816ZM8.80109 13.6785L14.9666 19.6431C15.3261 19.9909 15.0669 20.5837 14.5639 20.5837L12.9153 20.5838V25.0824C12.9153 25.3867 12.6603 25.6335 12.3457 25.6335H4.451C4.13639 25.6335 3.88134 25.3867 3.88134 25.0824V20.5838H2.23282C1.72615 20.5838 1.47046 19.9877 1.83398 19.6393L7.99559 13.6784C8.218 13.4632 8.57868 13.4632 8.80109 13.6785ZM26.8969 21.7525C26.3612 21.2342 25.4405 21.6027 25.4405 22.3361C25.4405 23.0695 26.3612 23.438 26.8969 22.9197C27.2301 22.5975 27.2301 22.0747 26.8969 21.7525ZM28.2053 22.8809C27.782 24.2729 25.9584 24.7375 24.8849 23.699C24.6547 23.4763 24.4805 23.1994 24.3847 22.8897L22.6292 22.8959C22.3146 22.8959 22.0595 22.6491 22.0595 22.3448V19.4296C22.0595 19.1253 22.3146 18.8785 22.6292 18.8785H24.6999L26.3796 16.4296C26.4776 16.2633 26.6626 16.1512 26.8747 16.1512H31.9521V16.1534C32.1244 16.1535 32.2946 16.2293 32.406 16.3729L34.4192 18.9765L36.561 19.8893C36.7767 19.9678 36.9301 20.1692 36.9301 20.4052V22.3133H36.9279C36.9279 22.6165 36.6738 22.8623 36.3604 22.8623L34.9181 22.8656C34.711 24.4413 32.706 25.1179 31.5329 23.983C31.2307 23.6907 31.0252 23.305 30.9666 22.8746L28.2053 22.8809ZM26.2937 20.4086C25.399 20.4086 24.6276 20.9829 24.382 21.7917L23.1989 21.7945V19.9806H25.0041V19.9795C25.0304 19.9795 25.0566 19.9777 25.0825 19.9741H33.9379L35.7909 20.7638V21.7656L34.7294 21.7681C33.9975 20.3343 31.875 20.3392 31.1502 21.7763L28.2029 21.783C27.9542 20.9788 27.1851 20.4086 26.2937 20.4086ZM10.0154 12.0254C11.2057 14.4906 13.4811 16.3487 16.2256 17.0479C16.3973 17.4725 16.5325 17.9115 16.6277 18.3611C17.6918 23.3881 13.7248 28.1258 8.39842 28.1258C3.75992 28.1258 1.02379e-09 24.4883 1.02379e-09 20.001C-8.1379e-05 14.8638 4.85147 11.0528 10.0154 12.0254ZM21.5491 16.921C24.057 16.1512 26.1252 14.4018 27.2595 12.1231C30.1565 11.4126 33.193 12.2525 35.2639 14.2559C38.5436 17.4288 38.5436 22.5733 35.2639 25.7461C31.9842 28.919 26.6664 28.919 23.3866 25.7461C21.0007 23.438 20.2665 19.9518 21.5491 16.921ZM17.2525 11.2499C16.9379 11.2499 16.6828 11.0031 16.6828 10.6988C16.6828 10.3944 16.9379 10.1477 17.2525 10.1477H19.0781C19.7425 10.1477 20.0997 9.36149 19.6149 8.89242C19.4768 8.75882 19.2867 8.67584 19.0781 8.67584H18.2448C16.5697 8.67584 15.7011 6.70142 16.9025 5.53916C17.2001 5.25125 17.5959 5.05774 18.0359 5.01074V4.28565C18.0359 3.98129 18.2909 3.73456 18.6055 3.73456C18.9201 3.73456 19.1752 3.98129 19.1752 4.28565V4.99964H20.0704C20.3851 4.99964 20.6401 5.24637 20.6401 5.55073C20.6401 5.8551 20.3851 6.10183 20.0704 6.10183H18.2447C17.5802 6.10183 17.2231 6.88809 17.7079 7.35707C17.846 7.49067 18.0361 7.57365 18.2447 7.57365H19.078C20.753 7.57365 21.6217 9.54807 20.4204 10.7103C20.0977 11.0224 19.6597 11.2236 19.175 11.2474V11.9638C19.175 12.2681 18.92 12.5149 18.6053 12.5149C18.2907 12.5149 18.0357 12.2681 18.0357 11.9638V11.2498L17.2525 11.2499Z" fill="#06E7ED"/>
</svg>
