<svg width="28" height="32" viewBox="0 0 28 32" fill="none" xmlns="http://www.w3.org/2000/svg">
<path fill-rule="evenodd" clip-rule="evenodd" d="M12.5183 31.1028C5.79316 27.0305 1.14039 21.0336 0.179553 13.181C-0.104938 10.8559 -0.051158 8.48919 0.339457 6.14674C0.632984 4.38652 1.01889 3.27729 1.06193 3.15661L2.18753 0.000103524C6.94978 2.65985 8.56914 4.07661 14 1.03061C19.4311 4.07666 21.0501 2.66006 25.8124 0L26.9381 3.15661C26.9811 3.27727 27.367 4.3865 27.6605 6.1467C28.0511 8.48912 28.1049 10.8558 27.8205 13.1809C26.8596 21.0335 22.2069 27.0303 15.4818 31.1027L14 32L12.5183 31.1028ZM11.1083 19.0362C11.6539 19.5759 12.5385 19.5759 13.084 19.0362L20.6927 11.5091C21.2354 10.9722 21.2354 10.1017 20.6927 9.56481C20.15 9.02792 19.2701 9.02792 18.7274 9.56481L12.0962 16.125L10.5671 14.6123C10.0244 14.0754 9.14451 14.0754 8.60182 14.6123C8.05912 15.1492 8.05912 16.0196 8.60182 16.5565L11.1083 19.0362ZM3.67191 3.36477C3.63943 3.34238 3.60327 3.32407 3.56389 3.31084C3.33837 3.23501 3.0934 3.3544 3.01676 3.5775L3.01739 3.57814C3.00162 3.62406 -2.65006 19.4742 13.7435 29.427C13.8806 29.5272 14.0709 29.5412 14.2252 29.4478L14.2246 29.4469C30.3244 19.6973 25.22 4.26876 24.9911 3.60269C24.9819 3.56931 24.9685 3.53653 24.9505 3.50504C24.8334 3.29985 24.5703 3.22743 24.3629 3.34327L24.3639 3.34503C21.9152 4.71262 19.6484 4.90768 17.8579 4.68437C16.0981 4.46484 14.7994 3.84332 14.2403 3.53311C14.109 3.44615 13.9341 3.43402 13.7873 3.51633L13.7878 3.51751C13.245 3.82188 11.9323 4.461 10.1425 4.68426C8.36069 4.90655 6.1071 4.71435 3.67191 3.36477ZM10.2503 5.52761C8.42489 5.75533 6.14568 5.58342 3.68264 4.33407C2.9233 6.98183 0.0611398 19.9819 14 28.5807C27.9389 19.9818 25.0767 6.98189 24.3174 4.3341C21.8546 5.58345 19.5755 5.7554 17.7501 5.52771C16.0113 5.31083 14.6833 4.72967 14 4.37235C13.3169 4.72958 11.989 5.31073 10.2503 5.52761Z" fill="#06E7ED"/>
</svg>
