<svg width="14" height="14" viewBox="0 0 14 14" fill="none" xmlns="http://www.w3.org/2000/svg">
<path d="M6.5343 0.429851C6.5343 0.171771 6.32514 -0.0187492 6.06904 0.00885201C6.06904 0.00885201 6.22015 -0.0113878 6.06538 0.00934029C2.64127 0.467923 0 3.41116 0 6.97363C0 10.8542 3.13401 14 7 14C10.866 14 14 10.8542 14 6.97363C14 3.41219 11.3603 0.469627 7.93759 0.00973797C7.78188 -0.0111837 7.93018 0.00875378 7.93018 0.00875378C7.67369 -0.016757 7.46577 0.171865 7.46577 0.429856V8.42975C7.46577 8.55879 7.53923 8.58944 7.62924 8.49883L9.4633 6.65244C9.90226 6.21067 10.561 6.87308 10.1218 7.31484L7.40083 10.081C7.17482 10.3108 6.80847 10.3099 6.58138 10.0778L3.87822 7.31484C3.43904 6.87308 4.09758 6.21067 4.53677 6.65244L6.37084 8.49883C6.46112 8.58971 6.5343 8.55964 6.5343 8.42975V0.429851Z" fill="#06E7ED"/>
</svg>
