<svg width="16" height="16" viewBox="0 0 16 16" fill="none" xmlns="http://www.w3.org/2000/svg">
<path d="M11.1111 4.13511e-06C10.2096 -0.0011692 9.32547 0.24738 8.55665 0.718086C7.78783 1.18879 7.16442 1.86325 6.75555 2.66667H4C3.01183 2.66055 2.05637 3.02044 1.31778 3.67696C0.579202 4.33347 0.10978 5.24015 0 6.22223H6.39111C6.47394 6.53158 6.5933 6.82998 6.74667 7.11111H0V12C0.00234806 13.0601 0.424529 14.0762 1.17417 14.8258C1.9238 15.5755 2.93986 15.9977 4 16H11.1111C12.1713 15.9977 13.1873 15.5755 13.9369 14.8258C14.6866 14.0762 15.1088 13.0601 15.1111 12V7.67111C15.2404 7.49505 15.3535 7.30762 15.4489 7.11111C15.6023 6.82998 15.7216 6.53158 15.8044 6.22223C15.9377 5.78437 16.0037 5.32879 16 4.87111C15.9953 3.57758 15.4781 2.33864 14.5618 1.42564C13.6455 0.512632 12.4046 -4.41724e-06 11.1111 4.13511e-06ZM15.0044 5.78667C14.9789 5.94272 14.9341 6.09499 14.8711 6.24C14.7615 6.55568 14.6089 6.85478 14.4178 7.12889C14.3584 7.22193 14.2931 7.31101 14.2222 7.39556C13.8307 7.88259 13.3302 8.27088 12.7612 8.52914C12.1921 8.78741 11.5704 8.90845 10.946 8.8825C10.3216 8.85656 9.71207 8.68436 9.16642 8.37978C8.62076 8.07519 8.15424 7.64673 7.80444 7.12889C7.61329 6.85478 7.46075 6.55568 7.35111 6.24C7.18674 5.80258 7.10535 5.33836 7.11111 4.87111C7.11118 4.42326 7.18629 3.97859 7.33333 3.55556C7.43988 3.24023 7.58944 2.94111 7.77778 2.66667C8.25245 1.95107 8.94482 1.40722 9.75249 1.11555C10.5602 0.823875 11.4403 0.79987 12.2626 1.04708C13.085 1.29429 13.806 1.79959 14.319 2.48826C14.8319 3.17692 15.1097 4.01239 15.1111 4.87111C15.1123 5.1736 15.0765 5.47511 15.0044 5.76889V5.78667Z" fill="#06E7ED"/>
<path d="M12.9627 5.25861C13.1673 5.25861 13.3331 5.09277 13.3331 4.88824C13.3331 4.6837 13.1673 4.51787 12.9627 4.51787H11.4813V3.03639C11.4813 2.83185 11.3154 2.66602 11.1109 2.66602C10.9064 2.66602 10.7405 2.83185 10.7405 3.03639V4.51787H9.25904C9.05451 4.51787 8.88867 4.6837 8.88867 4.88824C8.88867 5.09277 9.05451 5.25861 9.25904 5.25861H10.7405V6.74009C10.7405 6.94462 10.9064 7.11046 11.1109 7.11046C11.3154 7.11046 11.4813 6.94462 11.4813 6.74009V5.25861H12.9627Z" fill="#06E7ED"/>
</svg>
