<svg width="16" height="14" viewBox="0 0 16 14" fill="none" xmlns="http://www.w3.org/2000/svg">
<path d="M3.16121 14.0003H12.8356C13.1804 13.9984 13.5105 13.8654 13.7544 13.6302C13.9982 13.395 14.136 13.0765 14.138 12.7439V2.69275C14.136 2.55052 14.0766 2.41464 13.9723 2.31406C13.8681 2.21348 13.7272 2.15616 13.5798 2.1543H2.41703C2.2696 2.15616 2.12875 2.21348 2.02449 2.31406C1.92024 2.41464 1.86081 2.55052 1.85889 2.69275V12.7439C1.86084 13.0765 1.99868 13.395 2.24249 13.6302C2.4863 13.8654 2.81642 13.9984 3.16121 14.0003ZM5.39377 8.05574C5.49842 7.9549 5.64028 7.89826 5.78819 7.89826C5.9361 7.89826 6.07796 7.9549 6.18261 8.05574L7.46261 9.29059V5.5645C7.46261 5.42169 7.52141 5.28473 7.62608 5.18375C7.73075 5.08277 7.87272 5.02604 8.02075 5.02604C8.16877 5.02604 8.31074 5.08277 8.41541 5.18375C8.52008 5.28473 8.57889 5.42169 8.57889 5.5645V9.29059L9.85889 8.05574C9.96469 7.96062 10.1046 7.90884 10.2492 7.91131C10.3938 7.91377 10.5318 7.97028 10.634 8.06893C10.7363 8.16758 10.7949 8.30068 10.7974 8.44018C10.8 8.57967 10.7463 8.71468 10.6477 8.81675L8.94354 10.4608C8.69819 10.6958 8.36648 10.8277 8.02075 10.8277C7.67502 10.8277 7.34331 10.6958 7.09796 10.4608L5.37144 8.81675C5.26692 8.71579 5.20821 8.57893 5.20821 8.43624C5.20821 8.29355 5.26692 8.1567 5.37144 8.05574H5.39377Z" fill="#0C151E"/>
<path d="M14.6977 0H1.30233C0.95753 0.00188466 0.627412 0.134859 0.383601 0.37007C0.13979 0.605282 0.00195356 0.923755 0 1.25639V6.28195C0 6.42475 0.0588038 6.56171 0.163475 6.66269C0.268147 6.76367 0.410112 6.8204 0.55814 6.8204C0.706167 6.8204 0.848132 6.76367 0.952804 6.66269C1.05748 6.56171 1.11628 6.42475 1.11628 6.28195V1.25639C1.11628 1.20879 1.13588 1.16313 1.17077 1.12947C1.20566 1.09581 1.25298 1.07691 1.30233 1.07691H14.6977C14.747 1.07691 14.7943 1.09581 14.8292 1.12947C14.8641 1.16313 14.8837 1.20879 14.8837 1.25639V6.28195C14.8837 6.42475 14.9425 6.56171 15.0472 6.66269C15.1519 6.76367 15.2938 6.8204 15.4419 6.8204C15.5899 6.8204 15.7319 6.76367 15.8365 6.66269C15.9412 6.56171 16 6.42475 16 6.28195V1.25639C15.998 0.923755 15.8602 0.605282 15.6164 0.37007C15.3726 0.134859 15.0425 0.00188466 14.6977 0Z" fill="#0C151E"/>
</svg>
