<svg width="14" height="14" viewBox="0 0 14 14" fill="none" xmlns="http://www.w3.org/2000/svg">
<path d="M6.5343 13.5701C6.5343 13.8282 6.32514 14.0187 6.06904 13.9911C6.06904 13.9911 6.22015 14.0114 6.06538 13.9907C2.64127 13.5321 0 10.5888 0 7.02637C0 3.14581 3.13401 0 7 0C10.866 0 14 3.14581 14 7.02637C14 10.5878 11.3603 13.5304 7.93759 13.9903C7.78188 14.0112 7.93018 13.9912 7.93018 13.9912C7.67369 14.0168 7.46577 13.8281 7.46577 13.5701V5.57025C7.46577 5.44121 7.53923 5.41056 7.62924 5.50117L9.4633 7.34756C9.90226 7.78933 10.561 7.12692 10.1218 6.68516L7.40083 3.91897C7.17482 3.68921 6.80847 3.69013 6.58138 3.92224L3.87822 6.68516C3.43904 7.12692 4.09758 7.78933 4.53677 7.34756L6.37084 5.50117C6.46112 5.41029 6.5343 5.44036 6.5343 5.57025V13.5701Z" fill="#06E7ED"/>
</svg>
