<svg width="14" height="14" viewBox="0 0 14 14" fill="none" xmlns="http://www.w3.org/2000/svg">
<path d="M7 0C3.14018 0 0 3.14018 0 7C0 10.8598 3.14018 14 7 14C10.8598 14 14 10.8598 14 7C14 3.14018 10.8598 0 7 0ZM10.1818 7.63636H7.63636V10.1818C7.63636 10.5332 7.35143 10.8182 7 10.8182C6.64857 10.8182 6.36364 10.5332 6.36364 10.1818V7.63636H3.81818C3.46675 7.63636 3.18182 7.35143 3.18182 7C3.18182 6.64857 3.46675 6.36364 3.81818 6.36364H6.36364V3.81818C6.36364 3.46675 6.64857 3.18182 7 3.18182C7.35143 3.18182 7.63636 3.46675 7.63636 3.81818V6.36364H10.1818C10.5332 6.36364 10.8182 6.64857 10.8182 7C10.8182 7.35143 10.5332 7.63636 10.1818 7.63636Z" fill="#0C151E"/>
</svg>
