<svg width="78" height="52" viewBox="0 0 78 52" fill="none" xmlns="http://www.w3.org/2000/svg">
<path d="M77.9983 37.3428C77.9983 41.5532 76.2296 45.3974 73.3998 48.1432C70.9236 50.5229 67.5632 51.9874 63.8489 51.9874C63.8489 51.9874 63.1415 51.9874 46.516 51.9874H44.3936C43.6861 51.9874 42.9787 51.9874 42.2712 51.9874C41.21 51.9874 39.9719 51.9874 38.9107 51.9874H16.8024C7.25154 52.3535 0 44.4821 0 35.1462C0 25.6272 7.42841 17.9388 16.9792 18.3049H17.1561C18.0404 15.7421 19.1016 13.3624 20.3397 11.3488C20.5166 11.1657 20.6934 10.9827 20.6934 10.7996L20.8703 10.6165C23.5233 6.77235 27.0606 4.20955 30.9517 2.56204C31.1286 2.37899 31.4823 2.37898 31.836 2.19592C32.0129 2.19592 32.0129 2.19592 32.1898 2.01287C32.1898 2.01287 32.1898 2.01287 32.3666 2.01287H32.5435C38.2033 -0.000760138 44.3936 0.182305 50.0533 2.37899C50.2302 2.37899 50.2302 2.37899 50.4071 2.56204C50.5839 2.56204 50.7608 2.7451 50.9377 2.7451C58.5429 5.85706 64.7333 12.9963 65.9713 23.4305C72.6923 23.7966 77.9983 29.8375 77.9983 37.3428Z" fill="url(#paint0_linear_1_32994)"/>
<path d="M63.8508 51.9893C71.6652 51.9893 78.0001 45.4327 78.0001 37.3448C78.0001 29.2568 71.6652 22.7002 63.8508 22.7002C56.0363 22.7002 49.7014 29.2568 49.7014 37.3448C49.7014 45.4327 56.0363 51.9893 63.8508 51.9893Z" fill="url(#paint1_linear_1_32994)"/>
<path d="M40.6791 51.9882C54.5498 51.9882 65.7942 40.3502 65.7942 25.9941C65.7942 11.6379 54.5498 0 40.6791 0C26.8084 0 15.564 11.6379 15.564 25.9941C15.564 40.3502 26.8084 51.9882 40.6791 51.9882Z" fill="url(#paint2_linear_1_32994)"/>
<path d="M73.4922 48.087C71.0161 50.4667 67.6556 51.9312 63.9414 51.9312C63.9414 51.9312 63.2339 51.9312 46.6084 51.9312L46.4316 51.7481L46.0778 51.382L40.5949 43.6936L39.0031 36.0052L40.5949 25.571L33.5203 22.2759L43.7785 22.0929L47.4928 15.1367L63.5876 36.5544L73.4922 48.087Z" fill="url(#paint3_linear_1_32994)"/>
<path d="M39.3572 15.931C39.3572 14.8327 40.2415 14.1005 41.1259 14.1005C42.1871 14.1005 42.8946 15.0158 42.8946 15.931C42.8946 17.0294 42.0102 17.7616 41.1259 17.7616C40.0647 17.7616 39.3572 16.8463 39.3572 15.931ZM33.3438 19.7752C33.3438 23.2533 35.4662 26.3653 38.6498 27.4636V39.5454C38.6498 39.9115 38.6497 40.0946 38.8266 40.4607L40.4184 43.3896L40.5953 43.7557C40.7721 43.9388 41.1259 44.1218 41.3028 43.9388C41.3028 43.9388 41.3027 43.9388 41.4796 43.9388L43.2483 42.1082C43.602 41.7421 43.7789 41.3759 43.7789 40.8268V40.0946C43.7789 39.9115 43.7789 39.7284 43.602 39.5454L42.8946 38.6301C42.7177 38.447 42.7177 38.264 42.8946 38.0809L43.602 37.3487C43.7789 37.1657 43.7789 36.9826 43.7789 36.7995V36.0673C43.7789 35.8842 43.7789 35.7012 43.602 35.5181L42.8946 34.6029C42.7177 34.4198 42.7177 34.0537 42.8946 34.0537C43.0714 33.8706 43.2483 33.6876 43.2483 33.3214V33.1384L43.602 32.9553C43.7789 32.7723 43.7789 32.5892 43.7789 32.5892L42.5408 31.4909C42.364 31.3078 42.364 31.1248 42.5408 30.9417L43.4252 29.6603C43.7789 29.1111 43.9558 28.562 43.9558 28.0128V27.6467C48.0237 26.1822 50.1461 21.6058 48.7312 17.2124C47.3162 13.0021 42.8946 10.8054 38.6498 12.2699C35.2893 13.1852 33.3438 16.2972 33.3438 19.7752Z" fill="white"/>
<defs>
<linearGradient id="paint0_linear_1_32994" x1="-24.3877" y1="48.2203" x2="-7.27902" y2="-13.2397" gradientUnits="userSpaceOnUse">
<stop offset="0.241509" stop-color="#2CD7A1"/>
<stop offset="0.6402" stop-color="#54DEB2"/>
<stop offset="1" stop-color="#7EE7C6"/>
</linearGradient>
<linearGradient id="paint1_linear_1_32994" x1="48.2244" y1="19.6863" x2="61.2603" y2="33.4264" gradientUnits="userSpaceOnUse">
<stop stop-color="#A8FFD7"/>
<stop offset="1" stop-color="#52E07F" stop-opacity="0"/>
</linearGradient>
<linearGradient id="paint2_linear_1_32994" x1="21.654" y1="10.8436" x2="30.3062" y2="17.2876" gradientUnits="userSpaceOnUse">
<stop stop-color="#A8FFD7"/>
<stop offset="1" stop-color="#52E07F" stop-opacity="0"/>
</linearGradient>
<linearGradient id="paint3_linear_1_32994" x1="36.5277" y1="22.6283" x2="66.5199" y2="51.6064" gradientUnits="userSpaceOnUse">
<stop stop-color="#21C29A"/>
<stop offset="1" stop-color="#19B33C" stop-opacity="0"/>
</linearGradient>
</defs>
</svg>
