<svg width="48" height="48" viewBox="0 0 48 48" fill="none" xmlns="http://www.w3.org/2000/svg">
<g id="Frame 35605">
<path id="Vector" d="M43.3964 0H4.60365C2.06112 0 0 2.06112 0 4.60365V43.3964C0 45.9389 2.06112 48 4.60365 48H43.3964C45.9389 48 48 45.9389 48 43.3964V4.60365C48 2.06112 45.9389 0 43.3964 0Z" fill="white"/>
<path id="Vector_2" d="M18.5756 26.1179C18.6088 24.541 18.6421 22.9763 18.6753 21.3934L17.0471 21.487L13.0718 21.7227C11.9286 21.7459 10.819 22.1133 9.88788 22.7769C6.86711 25.0425 7.29002 28.613 9.0904 30.501C9.84559 31.2955 10.634 32.0567 11.4103 32.83C13.2228 34.6425 15.0353 36.4791 16.8749 38.2886C17.6806 39.0741 18.7189 39.5778 19.8345 39.7243C20.9502 39.8708 22.0834 39.6522 23.0645 39.1011C24.7319 38.1345 25.5113 36.5999 25.6231 34.718C25.7348 32.8361 25.7922 30.8846 25.8738 28.9785L26.4266 15.8442C26.4266 15.5089 26.4477 15.1736 26.4628 14.8353C26.4664 14.4732 26.5814 14.1209 26.7921 13.8264C26.9129 13.6396 27.0927 13.4986 27.3029 13.4258C27.5131 13.353 27.7416 13.3526 27.9521 13.4246C28.2684 13.5323 28.5586 13.7052 28.8039 13.9321C30.4774 15.5694 32.1348 17.2217 33.7761 18.8892C33.99 19.1248 34.148 19.4057 34.2383 19.7108C34.2784 19.8153 34.2966 19.9269 34.2918 20.0387C34.2869 20.1504 34.2591 20.26 34.2101 20.3606C34.1611 20.4612 34.0919 20.5506 34.0069 20.6233C33.9218 20.696 33.8227 20.7504 33.7157 20.7832C33.259 20.9466 32.7826 21.0482 32.299 21.0853C31.2296 21.1578 30.1603 21.1638 29.0637 21.194C28.9822 22.7769 28.8976 24.3447 28.813 25.9397L30.0727 25.8913C31.5528 25.8339 33.03 25.7916 34.5071 25.7161C35.6256 25.6906 36.7111 25.332 37.6246 24.686C38.2016 24.2852 38.6901 23.7702 39.0601 23.1729C39.4301 22.5757 39.6736 21.9089 39.7755 21.2137C39.8775 20.5186 39.8357 19.8099 39.6527 19.1316C39.4698 18.4533 39.1497 17.8197 38.712 17.27C38.4829 17.0036 38.2378 16.7514 37.978 16.5149C35.5856 14.0982 33.2022 11.6816 30.7976 9.3073C29.1423 7.66099 27.1727 7.27131 25.0159 8.099C23.5055 8.6669 22.5993 9.83896 22.1462 11.3614C21.9924 11.9169 21.9062 12.489 21.8894 13.0651C21.693 17.3788 21.5178 21.6925 21.3366 26.0091C21.2419 28.2062 21.1493 30.4033 21.0587 32.6004C21.0541 32.7199 21.042 32.839 21.0224 32.9569C20.8291 34.0534 19.8625 34.4492 18.9895 33.7665C18.5799 33.4206 18.1915 33.0504 17.8265 32.6578C16.4953 31.3327 15.1672 30.0036 13.8421 28.6704C13.5825 28.4296 13.3935 28.1225 13.2953 27.7823C13.2243 27.5618 13.2405 27.3224 13.3405 27.1134C13.4405 26.9044 13.6167 26.7417 13.833 26.6586C14.3948 26.446 14.9904 26.3365 15.5911 26.3354L18.5756 26.1179Z" fill="#112D44"/>
</g>
</svg>
