<svg width="16" height="16" viewBox="0 0 16 16" fill="none" xmlns="http://www.w3.org/2000/svg">
<g filter="url(#filter0_d_1_81482)">
<path d="M11.8072 7.62764C12.5254 7.3976 12.3585 6.3394 11.6059 6.3394H11.6028C12.1499 5.94557 11.8192 5.1406 11.2314 5.14053C11.1609 5.14053 11.0868 5.15208 11.01 5.17737C11.3626 4.69638 10.9616 4.12118 10.4772 4.12118C10.3487 4.12118 10.2143 4.16165 10.0866 4.2551C10.2474 3.76677 9.8537 3.38487 9.44677 3.38477C9.25658 3.38477 9.06373 3.4681 8.92305 3.66302C8.92467 3.23884 8.5895 3 8.25491 3C7.99439 3 7.73435 3.14452 7.63333 3.45893C7.5324 3.14461 7.27216 3 7.01174 3C6.67705 3 6.34189 3.23873 6.34353 3.66292C6.20295 3.4681 6.00989 3.38467 5.81981 3.38467C5.41287 3.38467 5.01911 3.76668 5.17998 4.255C5.0523 4.16156 4.91783 4.12108 4.78938 4.12108C4.30483 4.12099 3.90393 4.69618 4.25668 5.17728C4.17984 5.15208 4.10568 5.14043 4.03525 5.14043C3.4474 5.14043 3.11682 5.94547 3.66385 6.33931H3.66079C2.90807 6.33921 2.74132 7.3974 3.45952 7.62754C2.74132 7.85758 2.90818 8.91578 3.66079 8.91578H3.66385C3.11682 9.30961 3.44748 10.1147 4.03525 10.1147C4.10578 10.1147 4.17984 10.1031 4.25668 10.0778C3.90442 10.5582 4.30408 11.1324 4.78776 11.1338H4.78948C4.91803 11.1338 5.0523 11.0935 5.18008 11.0001C5.01924 11.4884 5.41299 11.8704 5.81992 11.8704C6.0101 11.8704 6.20296 11.7871 6.34363 11.5922C6.34211 11.9998 6.65166 12.2358 6.97287 12.2535C6.98587 12.2543 6.99897 12.2546 7.01196 12.2546C7.2724 12.2546 7.53243 12.1104 7.63335 11.7961C7.73427 12.1104 7.99442 12.2546 8.25474 12.2546C8.26783 12.2546 8.28083 12.2542 8.29383 12.2535C8.61504 12.2358 8.92458 11.9998 8.92307 11.5922C9.06365 11.787 9.25671 11.8704 9.44678 11.8704C9.85373 11.8704 10.2475 11.4884 10.0866 11.0001C10.2143 11.0935 10.3488 11.1338 10.4772 11.1338H10.4789C10.9626 11.1325 11.3622 10.5582 11.01 10.0778C11.0869 10.103 11.161 10.1147 11.2315 10.1147C11.8193 10.1147 12.1499 9.30961 11.6028 8.91578H11.6059C12.3587 8.91587 12.5254 7.85778 11.8072 7.62764H11.8072ZM7.63326 11.4479C5.52403 11.4479 3.80801 9.73409 3.80801 7.62739C3.80801 5.52075 5.52398 3.80684 7.63326 3.80684C9.74254 3.80684 11.4585 5.5207 11.4585 7.62739C11.4585 9.73404 9.74254 11.4479 7.63326 11.4479Z" fill="#54DEB2"/>
<path d="M7.63326 4.08032C5.67513 4.08032 4.08203 5.67132 4.08203 7.62695C4.08203 9.58278 5.67508 11.1738 7.63326 11.1738C9.59144 11.1738 11.1843 9.58273 11.1843 7.62695C11.1843 5.67117 9.5913 4.08008 7.63326 4.08008V4.08032ZM6.42631 9.33526C6.42631 9.37717 6.39229 9.41105 6.35043 9.41105H5.37198C5.33003 9.41105 5.2961 9.37707 5.2961 9.33526L5.2962 6.91181C5.2962 6.86991 5.33022 6.83602 5.37208 6.83602H6.35052C6.39248 6.83602 6.4264 6.87 6.4264 6.91181L6.42631 9.33526ZM9.97045 7.03093C9.97045 7.20828 9.82661 7.35195 9.64953 7.35195H9.54765C9.72522 7.35195 9.86906 7.4956 9.86906 7.67296V7.71659C9.86906 7.89394 9.72522 8.0376 9.54765 8.0376H9.39732C9.57489 8.0376 9.71873 8.18126 9.71873 8.35861V8.40224C9.71873 8.57959 9.57489 8.72325 9.39732 8.72325H9.22519C9.41519 8.72325 9.56943 8.87779 9.56848 9.06802C9.56695 9.2573 9.40973 9.40841 9.22023 9.40841L7.46431 9.40851C7.36061 9.40851 7.12264 9.15814 6.95243 9.17321H6.61859V7.03048C6.80161 7.03096 7.0134 7.03143 7.02142 7.03143C7.50311 7.01807 7.59733 6.22285 7.59733 6.22285V5.42343C7.59733 5.24655 8.2536 5.08162 8.28333 5.86738V6.54988C8.28333 6.61431 8.33589 6.66633 8.4004 6.66633H9.64961C9.8267 6.66633 9.97053 6.80998 9.97053 6.98734L9.97045 7.03093Z" fill="#54DEB2"/>
</g>
<defs>
<filter id="filter0_d_1_81482" x="-1" y="-1" width="17.2667" height="17.2546" filterUnits="userSpaceOnUse" color-interpolation-filters="sRGB">
<feFlood flood-opacity="0" result="BackgroundImageFix"/>
<feColorMatrix in="SourceAlpha" type="matrix" values="0 0 0 0 0 0 0 0 0 0 0 0 0 0 0 0 0 0 127 0" result="hardAlpha"/>
<feOffset/>
<feGaussianBlur stdDeviation="2"/>
<feComposite in2="hardAlpha" operator="out"/>
<feColorMatrix type="matrix" values="0 0 0 0 0.329412 0 0 0 0 0.870588 0 0 0 0 0.698039 0 0 0 0.25 0"/>
<feBlend mode="normal" in2="BackgroundImageFix" result="effect1_dropShadow_1_81482"/>
<feBlend mode="normal" in="SourceGraphic" in2="effect1_dropShadow_1_81482" result="shape"/>
</filter>
</defs>
</svg>
