<svg width="20" height="20" viewBox="0 0 20 20" fill="none" xmlns="http://www.w3.org/2000/svg">
<path d="M19.6018 10.24C19.6018 9.5646 19.5364 8.86745 19.4275 8.21387H9.99414V12.07H15.3971C15.1792 13.3118 14.4603 14.4011 13.3928 15.0983L16.6171 17.6037C18.5125 15.839 19.6018 13.2682 19.6018 10.24Z" fill="#4280EF"/>
<path d="M9.9943 20.0001C12.6958 20.0001 14.9615 19.1068 16.6173 17.5818L13.3929 15.0982C12.4997 15.7082 11.345 16.0568 9.9943 16.0568C7.37997 16.0568 5.17958 14.2921 4.37349 11.9392L1.06201 14.4882C2.76133 17.865 6.20353 20.0001 9.9943 20.0001Z" fill="#34A353"/>
<path d="M4.37356 11.9173C3.95962 10.6755 3.95962 9.32477 4.37356 8.08296L1.06207 5.51221C-0.354024 8.3444 -0.354024 11.6777 1.06207 14.4881L4.37356 11.9173Z" fill="#F6B704"/>
<path d="M9.9943 3.96544C11.4104 3.94366 12.8047 4.48831 13.8286 5.46868L16.6826 2.59292C14.8744 0.893608 12.4779 -0.0214058 9.9943 0.000380229C6.20352 0.000380229 2.76132 2.13541 1.06201 5.51225L4.37349 8.083C5.17958 5.70832 7.37997 3.96544 9.9943 3.96544Z" fill="#E54335"/>
</svg>
