<svg width="3654" height="2200" viewBox="0 0 3654 2514" fill="none" xmlns="http://www.w3.org/2000/svg">
<path d="M3643.8 2198.66C3626.03 2228.94 3602.71 2257.3 3572.39 2281.93C3569.21 2284.67 3565.89 2287.37 3562.52 2290.05C3531.68 2314.56 3493.34 2337.83 3445.93 2358.92C3440.29 2361.46 3434.52 2363.96 3428.6 2366.37C3422.67 2368.78 3416.97 2371.16 3410.96 2373.5L3408.06 2374.62C3399.51 2377.91 3390.72 2381.11 3381.65 2384.28L3375.95 2386.24C3369.56 2388.4 3363.06 2390.62 3356.39 2392.68C3355.35 2392.97 3354.39 2393.31 3353.31 2393.64C3333.29 2399.88 3312.13 2405.87 3289.65 2411.49C3204.55 2432.8 3101.63 2449.28 2977.23 2458.94C2895.72 2465.26 2805.07 2468.72 2704.12 2468.72H1230.73C1216.2 2468.72 1201.58 2468.58 1186.87 2468.3C1122.85 2467.25 1058.96 2463.75 995.448 2457.81C995.202 2457.83 994.954 2457.83 994.708 2457.81C937.445 2452.55 880.606 2445.07 824.428 2435.42C802.594 2431.66 781.127 2427.55 760.027 2423.09C741.143 2419.1 722.625 2414.83 704.475 2410.28C689.888 2406.66 675.574 2402.84 661.534 2398.83C582.86 2376.43 513.055 2348.34 458.123 2314.11C457.986 2314.04 457.87 2313.96 457.783 2313.86C452.478 2310.61 447.333 2307.24 442.328 2303.84C436.162 2299.63 430.177 2295.34 424.471 2290.92C425.28 2290.32 426.136 2289.76 427.034 2289.23C387.216 2253.76 357.388 2211.14 341.693 2159.91C986.82 1917.75 2247.93 1802.72 3156.54 2003.61L3163.73 2005.24C3228.8 2019.77 3291.91 2035.96 3353.05 2053.81C3401.32 2067.92 3448.13 2083.11 3493.48 2099.38C3544.58 2117.7 3593.66 2137.46 3640.72 2158.66C3644.24 2160.23 3647.66 2161.81 3651.15 2163.4C3653.19 2175.43 3650.65 2187.63 3643.8 2198.66Z" fill="#EAFBF6"/>
<path d="M857.792 896.201C875.852 1089.84 353.733 1828.68 341.693 2213.99C373.799 2624.98 1134.21 2481.12 1868.63 2489.02C2603.04 2496.92 3734.35 2469.58 3648.98 2158.82C3525.83 1710.59 3135.29 1560.11 3135.29 1226.18C3135.29 1095.77 3213.8 1002.82 3285.78 878.419C3372.11 729.214 3457.63 571.567 3502.49 388.388C3530.99 260.9 3442.04 155.753 3340.04 155.896C2951.43 156.443 3161.37 -8.77289 2948.67 32.7212C2709.49 63.8458 2412.61 117.231 2107.91 82.1199C1543.31 17.0608 608.973 214.507 619.006 439.763C629.039 665.018 839.733 702.56 857.792 896.201Z" fill="#EAFBF6"/>
<path d="M3618.07 2210.56C3614.82 2219.07 3611.43 2229.32 3608.14 2237.98L3583.12 2290.94C3580.33 2295.78 3577.4 2300.6 3574.33 2305.35C3558.39 2330.06 3539.24 2352.5 3517.39 2372.09L3349.22 2402.52L3443.69 2202.39L3631.24 2167.48C3630.72 2169.75 3629.67 2173.98 3629.24 2175.79C3626.33 2187.63 3622.6 2199.25 3618.07 2210.56Z" fill="#6C8BAB"/>
<path d="M3344.73 2413.69L3443.68 2202.45L3254.78 2010.03L3155.84 2221.27L3344.73 2413.69Z" fill="#546E88"/>
<path d="M3280.75 2364.1L3380.52 2138.28L3322.42 2078.42L3222.65 2304.25L3280.75 2364.1Z" fill="#0C151E"/>
<path d="M3445.13 2406.79C3368.09 2458.9 3168.05 2494.35 3002.62 2494.35C3002.62 2494.35 3077.36 2472.99 3096.58 2396.11C3096.58 2370.49 3100.83 2252.65 3100.83 2252.65C3130.31 2167.74 3245.09 2116 3199.6 2260.31C3249.28 2192.41 3245.65 2279.81 3233.03 2322.25C3278.49 2261.98 3288.6 2323.95 3278.49 2346.86C3308.8 2315.5 3309.6 2357.91 3308.8 2362.14C3335.75 2330.77 3342.49 2361.29 3340.8 2376.6C3364.37 2326.5 3396.37 2372.34 3395.53 2391.88C3413.35 2354.61 3438.59 2377.47 3445.13 2406.79Z" fill="#ABEFD9"/>
<path d="M914.027 2513.49L746.859 2495.16C665.381 2489.03 566.069 2467.81 491.184 2430.2C497.213 2424.72 512.293 2415.71 542.277 2432.08C497.034 2380.77 519.285 2342.85 574.867 2417.38C511.523 2310.72 558.839 2276.63 583.282 2274.39C624.272 2270.62 626.672 2401.2 624.006 2426.86C633.339 2377.38 663.752 2384.24 671.322 2424.73C660.344 2343.67 696.683 2281.05 729.096 2286.9C761.51 2292.76 716.445 2386.31 717.586 2401.61C747.333 2371.53 789.33 2389.9 762.71 2438.84C801.33 2396.13 810.707 2422.31 806.248 2456.96C842.542 2404.94 874.689 2429.04 865.889 2466.4C905.887 2445.09 898.91 2473.45 894.984 2480.77C928.123 2462.47 932.174 2499.2 914.027 2513.49Z" fill="#ABEFD9"/>
<path d="M538.219 1371.04V1528.33H595.802V1442.04H670.983V1371.04H746.164V1644.53H851.729V1839.74L477.719 1924.24V1371.04H538.219Z" fill="#A3C4D8"/>
<path d="M3052.76 1372.7H3089.6V1653.86H3139.72V1557.11H3198.56V1222.74H3248.5V1204.46H3286.88V1220.59H3340.21V1234.57H3329.56V1589.89H3387.23V1735.13H3446.49V1506.04C3446.49 1506.04 3483.17 1504.43 3483.17 1506.04V1564.1H3517.24V2005.97H3011.16V1372.7H3052.76Z" fill="#A3C4D8"/>
<path d="M287.351 556.22L286.009 558.271L287.294 556.186L287.351 556.22Z" fill="#FFC84E"/>
<path d="M335.66 936.933C326.13 917.081 391.643 881.36 391.643 881.36L391.231 941.154L348.452 947.296L335.66 936.933Z" fill="#142232"/>
<path d="M679.252 809.988C676.911 839.053 671.879 867.837 664.223 895.963C636.808 999.466 583.471 1087.7 581.366 1091.15C590.217 1074.19 553.121 1007.86 524.197 960.714C507.018 932.612 492.634 911.328 492.634 911.328C492.634 911.328 496.372 865.642 501.296 806.296C508.005 725.801 516.926 620.099 521.896 569.34C521.896 569.34 611.823 658.734 655.771 736.936C671.022 764.023 680.729 789.759 679.252 809.988Z" fill="url(#paint0_linear_810_70605)"/>
<g style="mix-blend-mode:multiply" opacity="0.2">
<path d="M679.251 809.984C676.91 839.048 671.879 867.832 664.222 895.959C645.734 802.36 581.844 671.011 580.651 668.524L655.802 736.904C671.021 764.018 680.728 789.755 679.251 809.984Z" fill="#595959"/>
</g>
<g style="mix-blend-mode:multiply" opacity="0.2">
<path d="M532.94 1039.43L492.636 911.291C492.636 911.291 496.374 865.606 501.299 806.26C510.423 853.551 518.488 913.435 524.199 960.678C529.476 1004.46 532.742 1037.34 532.94 1039.43Z" fill="#595959"/>
</g>
<path d="M305.922 601.835C329.844 577.544 349.238 597.801 365.601 609.469C381.963 621.137 423.352 640.323 431.294 658.991C439.236 677.659 437.829 736.463 421.261 754.692C404.692 772.921 330.847 733.908 327.656 733.666C324.465 733.424 307.259 693.172 318.845 673.636C330.432 654.1 332.059 621.136 305.922 601.835Z" fill="#FDBA9D"/>
<path d="M351.918 940.956C330.823 879.528 311.594 794.696 306.043 782.112C298.196 764.35 284.433 751.711 278.303 747.531C272.173 743.35 256.244 741.226 250.526 734.755C244.807 728.285 245.277 716.038 239.84 711.925C234.403 707.812 211.015 700.224 205.492 694.697C199.97 689.169 197.266 672.742 192.013 669.332C186.76 665.922 172.489 653.709 175.784 637.723C179.078 621.736 210.541 640.363 210.541 640.363L338.803 726.168L371.526 749.519L421.26 754.691L463.38 836.034L440.703 904.562C440.703 904.562 418.131 935.321 408.694 938.304C399.256 941.287 351.918 940.956 351.918 940.956Z" fill="#FDBA9D"/>
<path d="M425.423 700.287C411.896 699.226 398.466 703.376 387.844 711.902L160.616 529.17L173.56 510.142L172.15 509.151C172.786 509.156 173.413 509.004 173.977 508.707C174.541 508.41 175.024 507.978 175.384 507.45L200.179 470.898C200.738 470.08 200.974 469.081 200.84 468.098C200.705 467.115 200.211 466.218 199.453 465.585L187.514 455.541C187.095 455.189 186.608 454.928 186.085 454.774C185.561 454.619 185.012 454.575 184.471 454.643C183.929 454.712 183.407 454.892 182.937 455.171C182.467 455.451 182.059 455.826 181.738 456.271L153.479 495.795L127.603 477.353C128.162 477.082 128.636 476.662 128.973 476.139L149.81 445.337C150.399 444.466 150.625 443.397 150.44 442.36C150.255 441.324 149.673 440.402 148.819 439.795L139.272 433.078C138.837 432.776 138.347 432.563 137.83 432.453C137.313 432.343 136.78 432.338 136.261 432.438C135.742 432.538 135.247 432.741 134.807 433.036C134.366 433.33 133.987 433.709 133.693 434.152L112.911 465.212C112.633 465.589 112.448 466.026 112.369 466.489L92.2331 452.078L116.437 410.583C116.943 409.722 117.112 408.702 116.912 407.723C116.711 406.744 116.156 405.875 115.354 405.288L108.92 400.8C108.488 400.491 107.998 400.274 107.48 400.161C106.962 400.048 106.426 400.041 105.906 400.141C105.385 400.241 104.889 400.447 104.449 400.744C104.008 401.042 103.631 401.426 103.341 401.874L77.4573 441.429L75.7811 443.938L75.5255 444.368L49.156 486.791C47.3762 489.654 46.7417 493.091 47.381 496.404C48.0203 499.718 49.8856 502.662 52.599 504.638L136.18 564.911L368.13 744.556C367.732 746.558 367.459 748.584 367.313 750.62C366.501 761.379 368.872 772.134 374.125 781.527C379.378 790.92 387.277 798.529 396.824 803.391C406.371 808.254 417.137 810.152 427.762 808.846C438.386 807.539 448.392 803.087 456.514 796.052C464.636 789.017 470.51 779.715 473.393 769.321C476.276 758.928 476.038 747.91 472.711 737.661C469.383 727.411 463.115 718.39 454.698 711.738C446.281 705.085 436.093 701.101 425.423 700.287ZM419.327 780.529C414.255 780.15 409.411 778.262 405.407 775.105C401.404 771.947 398.421 767.662 396.836 762.792C395.252 757.921 395.136 752.685 396.505 747.745C397.874 742.805 400.666 738.384 404.526 735.041C408.387 731.698 413.143 729.583 418.193 728.965C423.243 728.347 428.359 729.253 432.895 731.568C437.43 733.883 441.181 737.504 443.671 741.971C446.162 746.439 447.281 751.552 446.887 756.665C446.359 763.507 443.161 769.862 437.995 774.336C432.828 778.81 426.115 781.037 419.327 780.529Z" fill="url(#paint1_linear_810_70605)"/>
<path d="M779.746 958.568C712.448 899.667 521.887 569.26 521.887 569.26C525.712 524.325 531.969 479.632 540.63 435.38C543.418 421.168 546.589 406.61 550.217 392.101C551.467 386.984 552.804 381.902 554.169 376.839C554.169 376.839 616.924 292.347 629.911 279.419C633.872 275.781 638.098 272.447 642.554 269.445C650.821 263.677 661.946 256.673 674.611 249.547C700.986 234.819 733.763 219.724 759.891 215.088C807.481 206.631 816.946 372.46 816.946 372.46C816.946 372.46 909.755 1065.65 779.746 958.568Z" fill="url(#paint2_linear_810_70605)"/>
<path d="M356.458 209.022C364.841 243.975 403.972 243.607 414.793 240.415C425.613 237.223 389.495 192.059 389.495 192.059L356.458 209.022Z" fill="#0C151E"/>
<path d="M577.909 436.724C563.588 413.438 552.991 396.471 545.272 384.261C533.329 365.469 528.272 357.91 526.865 355.901L526.465 355.302C526.465 355.302 526.636 355 526.95 354.395C528.057 352.142 531.277 345.736 535.353 337.253C546.791 313.422 565.113 272.694 564.615 257.543C563.846 235.585 600.251 215.164 600.251 215.164C634.229 262.681 659.879 288.596 668.336 318.087C676.792 347.579 618.756 503.142 577.909 436.724Z" fill="#FDBA9D"/>
<g style="mix-blend-mode:multiply" opacity="0.2">
<path d="M545.272 384.264C533.328 365.472 528.272 357.913 526.864 355.904L526.977 354.415L527.543 341.486L535.381 337.273L569.453 319.011C577.164 341.885 560.427 367.231 545.272 384.264Z" fill="#595959"/>
</g>
<path d="M389.495 192.042C437.771 331.596 480.731 376.066 525.997 361.425C571.264 346.785 582.517 285.089 584.724 256.033C586.932 226.977 600.252 215.122 600.252 215.122L516.154 117.258C516.154 117.258 450.181 119.736 434.566 131.476C418.951 143.217 389.495 192.042 389.495 192.042Z" fill="#FDBA9D"/>
<path d="M420.494 177.25C389.988 221.711 318.317 234.061 298.399 161.249C278.48 88.4375 333.837 85.8874 378.463 82.8066C459.284 77.128 452.848 30.0402 499.979 40.9152C528.71 47.5914 534.866 90.1642 534.866 90.1642C555.303 75.3749 592.495 108.158 579.026 140.148C565.557 172.138 530.765 166.439 530.765 166.439C509.864 133.351 472.367 101.653 420.494 177.25Z" fill="#0C151E"/>
<path d="M529.526 160.664C533.492 108.45 601.399 109.085 575.788 187.485C550.176 265.886 529.526 160.664 529.526 160.664Z" fill="#FDBA9D"/>
<path d="M581.344 1091.24C550.837 1138.27 505.463 1151.39 474.553 1149.92C403.958 1146.55 350.806 956.178 335.703 936.936C377.929 944.323 463.425 836.035 463.425 836.035C463.425 836.035 500.936 928.967 530.753 966.717C560.57 1004.47 596.155 1068.37 581.344 1091.24Z" fill="url(#paint3_linear_810_70605)"/>
<path d="M700.549 378.446C696.232 434.288 648.686 488.719 609.717 490.282C577.064 491.621 552.314 477.519 540.626 435.424C543.414 421.212 546.585 406.653 550.213 392.145C550.811 394.243 582.778 457.275 625.5 427.822C682.136 388.686 642.523 269.442 642.523 269.442C650.791 263.674 661.916 256.67 674.58 249.544C694.561 282.232 704.331 329.244 700.549 378.446Z" fill="#546E88"/>
<path d="M503.504 307.834C533.025 306.841 547.065 262.447 549.029 245.386" stroke="#142232" stroke-width="8.48476" stroke-linecap="round" stroke-linejoin="round"/>
<path d="M544.056 149.532C546.772 134.894 572.375 134.053 570.495 161.741" stroke="#142232" stroke-width="8.48476" stroke-linecap="round" stroke-linejoin="round"/>
<path d="M448.938 190.677C459.688 254.898 487.112 287.583 493.995 239.41" stroke="#142232" stroke-width="8.48476" stroke-linecap="round" stroke-linejoin="round"/>
<path d="M218.797 649.797C218.797 649.797 225.986 613.825 231.097 601.301C236.209 588.778 282.858 573.928 282.858 573.928C282.858 573.928 277.048 552.621 258.392 549.242C239.736 545.862 207.156 566.784 198.294 577.63C190.264 587.505 179.947 601.28 175.806 637.604C175.806 637.604 199.102 659.31 203.694 657.921C208.286 656.533 218.797 649.797 218.797 649.797Z" fill="#FDBA9D"/>
<path d="M217.751 645.198C221.216 624.236 225.299 600.206 233.712 593.895C242.125 587.584 280.693 569.993 288.966 570.607C299.941 571.44 316.457 585.577 314.464 602.816C312.471 620.054 273.301 626.815 273.301 626.815L252.72 679.864L217.751 645.198Z" fill="#FDBA9D"/>
<path d="M246.828 680.177C246.828 680.177 262.634 634.629 268.415 627.564C275.639 618.721 302.361 607.255 314.276 605.299C324.4 603.642 347.866 617.243 347.808 631.498C347.75 645.753 322.7 644.21 315.947 655.86C309.193 667.509 286.157 707.52 286.157 707.52L246.828 680.177Z" fill="#FDBA9D"/>
<path d="M277.277 701.98C291.775 674.622 303.588 654.459 312.444 647.598C323.078 639.418 340.733 629.571 352.595 632.224C364.457 634.878 375.342 646.684 381.342 658.059C390.437 675.227 379.8 696.542 375.874 702.85L347.638 679.495C338.371 692.347 320.325 726.116 317.833 735.648C315.341 745.18 277.277 701.98 277.277 701.98Z" fill="#FDBA9D"/>
<path d="M815.721 137.184C788.767 145.702 776.103 159.84 776.186 174.482C776.269 189.124 781.93 194.794 780.202 203.771C778.474 212.748 764.014 226.294 765.28 238.842C766.546 251.389 774.315 263.618 772.892 274.936C771.469 286.254 764.575 297.281 765.572 304.517C766.569 311.752 774.945 318.637 775.569 328.03C776.193 337.422 774.585 362.834 797.421 363.307C820.257 363.78 807.122 348.757 805.623 344.202C804.123 339.646 797.994 255.909 797.994 255.909L816.009 188.082L815.721 137.184Z" fill="#FDBA9D"/>
<path d="M816.01 188.194C877.833 211.614 885.932 228.312 885.99 238.483C886.048 248.655 793.995 229.435 793.995 229.435C793.995 229.435 778.486 214.8 783.466 203.475C788.447 192.151 816.01 188.194 816.01 188.194Z" fill="#FDBA9D"/>
<path d="M824.424 235.188C878.345 248.669 907.812 266.745 905.805 280.234C903.797 293.723 793.685 280.869 793.685 280.869L791.449 251.57L793.978 229.432L824.424 235.188Z" fill="#FDBA9D"/>
<path d="M818.063 283.297C850.687 289.202 886.336 299.426 886.408 312.021C886.531 333.85 813.241 327.158 795.721 325.397C778.201 323.635 778.948 296.18 778.948 296.18L793.689 280.852L818.063 283.297Z" fill="#FDBA9D"/>
<path d="M797.448 363.36C824.752 362.87 870.417 355.478 870.356 344.704C870.295 333.93 807.047 323.835 795.786 325.398C784.524 326.961 785.023 363.591 797.448 363.36Z" fill="#FDBA9D"/>
<path d="M397.217 1618.84H510.485V1914.68L397.217 1927.96V1618.84Z" fill="#A3C4D8"/>
<path d="M546.155 2382.47C512.231 2319.4 496.424 2241.9 546.273 2170.01" stroke="#ABEFD9" stroke-width="5.79165" stroke-linecap="round" stroke-linejoin="round"/>
<path d="M602.861 2135.84C609.938 2135.84 615.675 2130.06 615.675 2122.92C615.675 2115.79 609.938 2110 602.861 2110C595.784 2110 590.047 2115.79 590.047 2122.92C590.047 2130.06 595.784 2135.84 602.861 2135.84Z" fill="#56DFB4"/>
<path d="M598.61 2101.19C590.299 2102.85 574.152 2062.09 590.314 2058.86C606.477 2055.64 606.921 2099.53 598.61 2101.19Z" fill="#56DFB4"/>
<path d="M584.626 2110.58C579.9 2117.68 539.902 2100.37 549.072 2086.57C558.242 2072.77 589.337 2103.51 584.626 2110.58Z" fill="#56DFB4"/>
<path d="M581.323 2127.21C582.952 2135.58 542.524 2151.86 539.339 2135.57C536.154 2119.27 579.678 2118.84 581.323 2127.21Z" fill="#56DFB4"/>
<path d="M590.645 2141.32C597.681 2146.07 580.512 2186.41 566.824 2177.17C553.135 2167.92 583.608 2136.63 590.645 2141.32Z" fill="#56DFB4"/>
<path d="M607.128 2144.65C615.439 2142.99 631.586 2183.75 615.424 2186.98C599.262 2190.2 598.817 2146.31 607.128 2144.65Z" fill="#56DFB4"/>
<path d="M621.112 2135.24C625.837 2128.16 665.835 2145.47 656.665 2159.27C647.495 2173.07 616.401 2142.34 621.112 2135.24Z" fill="#56DFB4"/>
<path d="M624.46 2118.71C622.831 2110.33 663.258 2094.05 666.443 2110.34C669.628 2126.64 626.06 2127 624.46 2118.71Z" fill="#56DFB4"/>
<path d="M615.102 2104.52C608.065 2099.77 625.235 2059.43 638.923 2068.67C652.611 2077.92 622.138 2109.27 615.102 2104.52Z" fill="#56DFB4"/>
<rect x="523.551" y="1616.66" width="60.8123" height="60.8123" fill="#CBE0EC"/>
<rect x="636.487" y="1671.67" width="60.8123" height="60.8123" fill="#CBE0EC"/>
<path d="M551.212 2409.81C549.2 2416.39 545.669 2422.41 540.911 2427.36C539.656 2428.81 538.323 2430.18 536.915 2431.48L535.975 2432.38C525.583 2441.52 519.235 2439.38 516.81 2440.96C506.709 2434.28 496.415 2435.43 486.912 2428.15C422.844 2393.98 363.048 2332.05 352.371 2267.98C356.318 2264.09 367.655 2258.52 372.399 2255.67C373.134 2255.23 373.894 2254.83 374.677 2254.48C391.636 2246.65 392.113 2268.03 390.651 2277.07C448.264 2241.47 493.287 2270.29 462.585 2332.81C488.205 2307.18 500.339 2341.64 493.518 2352.54C522.36 2341.29 525.009 2360.76 519.141 2377.43C517.273 2383 514.331 2388.15 510.485 2392.58C510.378 2392.75 510.252 2392.91 510.108 2393.06C510.226 2393 510.35 2392.97 510.477 2392.95C517.599 2390.4 525.079 2389.04 532.628 2388.9C534.022 2388.9 535.414 2389 536.795 2389.19C549.322 2390.8 554.013 2399.2 551.212 2409.81Z" fill="#56DFB4"/>
<rect x="3189.32" y="1634.58" width="60.8123" height="60.8123" fill="#CBE0EC"/>
<rect x="3281.99" y="1721.45" width="60.8123" height="60.8123" fill="#CBE0EC"/>
<path d="M3609.12 2297.88C3584.31 2336.16 3504.49 2385.33 3461.76 2402.52C3447.04 2412.5 3417.31 2421.78 3399.83 2430.28C3389.03 2417.71 3394.65 2398.05 3395.7 2373.46C3398.66 2304.29 3428.54 2301.31 3451.27 2358.62C3451.27 2337.39 3460.54 2289.43 3500.15 2329.33C3501.31 2287.15 3572.35 2271.31 3609.12 2297.88Z" fill="#56DFB4"/>
<path d="M3475.44 401.819C3484.14 392.369 3492.06 382.221 3499.13 371.476C3499.68 370.422 3500.15 369.339 3500.67 368.228C3501.82 365.863 3502.9 363.527 3503.94 361.105L3530.71 299.75L3553.48 247.454L3574.25 199.788C3575.14 197.695 3575.18 195.334 3574.38 193.206C3573.57 191.079 3571.97 189.352 3569.92 188.392C3567.83 187.409 3565.68 186.369 3563.63 185.315C3554.22 180.699 3545 175.642 3535.97 170.243C3471.21 131.538 3416.04 74.0426 3396.02 18.5988C3395.82 17.9763 3395.49 17.4023 3395.06 16.9124C3394.62 16.4225 3394.1 16.0269 3393.51 15.7497C3393.44 15.7412 3393.37 15.7412 3393.31 15.7497C3392.69 15.457 3392.01 15.3052 3391.32 15.3052C3390.64 15.3052 3389.96 15.457 3389.34 15.7497C3324.55 42.9018 3225.94 34.8673 3144.96 0.464248C3143.58 -0.131869 3142.03 -0.154788 3140.64 0.400602C3139.25 0.955992 3138.13 2.04435 3137.53 3.42727L3066.06 167.408C3021.46 269.763 3037.13 391.391 3108.23 495.056L3138.49 539.218C3139.19 539.218 3139.91 539.018 3140.57 538.961C3140.76 538.961 3140.91 538.961 3141.01 538.862C3149.75 537.736 3158.4 536.582 3166.99 535.272C3181 533.163 3194.88 530.87 3208.51 528.234L3209.6 528.035C3224.34 524.602 3238.97 521.026 3253.42 517.194C3246.35 518.619 3239.14 519.844 3231.86 520.87L3169.55 529.573L3163.9 521.453L3133.7 477.378C3131.68 474.529 3129.7 471.48 3127.81 468.531C3124.92 464.086 3122.14 459.575 3119.45 454.998C3116.8 450.468 3114.22 445.952 3111.79 441.336C3109.36 436.721 3107.01 432.105 3104.72 427.475C3102.43 422.846 3100.33 418.187 3098.38 413.515C3097.05 410.438 3095.79 407.247 3094.56 404.098C3092.14 397.859 3089.85 391.505 3087.79 385.152C3086.77 382.004 3085.75 378.855 3084.82 375.707C3082.97 369.353 3081.33 362.986 3079.87 356.561C3078.42 350.136 3077.17 343.825 3076.1 337.415C3074.3 326.344 3073.1 315.183 3072.51 303.98C3072.23 299.208 3072.1 294.45 3072.1 289.735C3071.98 267.751 3074.48 245.833 3079.53 224.447C3080.28 221.413 3080.95 218.407 3081.84 215.444C3082.67 212.424 3083.52 209.447 3084.44 206.441C3085.36 203.435 3086.35 200.572 3087.35 197.58C3087.92 196.156 3088.45 194.646 3089.02 193.207C3090.14 190.272 3091.24 187.338 3092.41 184.503C3093.03 183.078 3093.6 181.654 3094.26 180.144L3156.07 38.3004C3177.28 45.8813 3199.04 51.7967 3221.16 55.9935C3226 56.9622 3230.82 57.7883 3235.65 58.5291C3266 63.4139 3296.83 64.5668 3327.46 61.9623C3333.57 61.421 3339.61 60.7087 3345.51 59.7969C3347.95 59.4266 3350.38 59.0562 3352.78 58.5433C3357.02 57.831 3361.12 56.9763 3365.12 56.0503C3369.12 55.1244 3373.19 54.0846 3377.14 52.9734C3377.14 52.9734 3377.22 52.9734 3377.26 52.9734C3406.77 111.038 3467.18 169.345 3537.51 207.096L3475.62 348.925C3448.2 411.933 3396.69 462.035 3330.73 492.321C3328.93 493.19 3327.11 493.988 3325.29 494.8C3353.8 484.23 3380.54 472.135 3404.87 457.762C3406.45 456.907 3407.94 456.052 3409.45 455.097C3414.53 452.006 3419.47 448.844 3424.32 445.553C3442.99 433.025 3460.14 418.348 3475.44 401.819Z" fill="url(#paint4_linear_810_70605)"/>
<path d="M3330.79 491.995C3328.99 492.849 3327.17 493.633 3325.34 494.473C3325.22 494.499 3325.1 494.541 3324.99 494.601L3324.72 494.715C3303.77 503.81 3281.99 510.828 3259.7 515.671C3257.63 516.098 3255.54 516.568 3253.45 516.967C3246.38 518.391 3239.13 519.645 3231.85 520.656L3169.55 529.361L3163.9 521.198L3133.68 477.193C3131.65 474.273 3129.69 471.281 3127.77 468.29C3116.43 450.841 3106.63 432.434 3098.46 413.273C3097.13 410.182 3095.85 407.034 3094.62 403.885C3092.16 397.632 3089.88 391.307 3087.85 384.953C3086.83 381.805 3085.83 378.628 3084.89 375.451C3083.04 369.126 3081.4 362.744 3079.93 356.362C3078.46 349.98 3077.23 343.541 3076.17 337.202C3074.34 326.13 3073.14 314.962 3072.57 303.753C3072.31 298.981 3072.16 294.194 3072.17 289.508C3072.04 267.519 3074.53 245.595 3079.59 224.206C3080.33 221.157 3081 218.166 3081.9 215.174C3082.72 212.154 3083.58 209.177 3084.5 206.214C3085.42 203.236 3086.4 200.302 3087.41 197.353C3087.96 195.928 3088.48 194.39 3089.06 192.937C3090.14 190.088 3091.27 187.11 3092.46 184.247C3093.06 182.822 3093.67 181.398 3094.31 179.973L3156.14 38.1443C3177.33 45.7232 3199.07 51.6478 3221.16 55.8657C3226 56.8154 3230.83 57.6512 3235.65 58.3729C3266 63.2529 3296.83 64.4009 3327.45 61.7919C3333.61 61.2363 3339.59 60.524 3345.52 59.6123C3347.95 59.2419 3350.39 58.8573 3352.8 58.3872C3357.04 57.6322 3361.09 56.7917 3365.15 55.8942C3369.21 54.9968 3373.24 53.9142 3377.18 52.8031C3377.18 52.8031 3377.18 52.8031 3377.26 52.8031C3406.78 110.868 3467.23 169.189 3537.5 206.94L3475.66 348.769C3448.26 411.607 3396.76 461.651 3330.79 491.995Z" fill="url(#paint5_linear_810_70605)"/>
<path d="M3499.13 371.476C3427.45 536.297 3154.84 563.791 3154.84 563.791L3134.41 533.049C3134.41 533.049 3387.36 518.034 3469.35 362.102L3499.13 371.476Z" fill="url(#paint6_linear_810_70605)"/>
<path d="M3187.56 236.069L3233.87 340.561L3421.34 281.242" stroke="white" stroke-width="49.6054" stroke-linecap="round" stroke-linejoin="round"/>
<g style="mix-blend-mode:multiply" opacity="0.2">
<path d="M3424.41 445.261C3419.56 448.551 3414.61 451.714 3409.54 454.805C3408.03 455.76 3406.54 456.615 3404.96 457.469C3380.63 471.829 3353.89 483.923 3325.37 494.508C3325.25 494.541 3325.14 494.599 3325.05 494.679C3324.92 494.679 3324.88 494.679 3324.74 494.679C3303.79 503.793 3282.01 510.817 3259.71 515.648C3257.65 516.118 3255.54 516.545 3253.45 516.973C3239.07 520.805 3224.44 524.381 3209.63 527.814L3208.54 528.013C3194.91 530.649 3181.03 532.942 3167.02 535.051L3169.45 529.352L3254.57 334.017L3377.12 52.624L3393.28 15.5855C3393.35 15.577 3393.41 15.577 3393.48 15.5855C3394.07 15.8626 3394.6 16.2582 3395.03 16.7481C3395.46 17.2381 3395.79 17.812 3396 18.4346C3415.97 73.8784 3471.14 131.373 3535.94 170.079C3544.97 175.478 3554.19 180.535 3563.61 185.151C3565.68 186.205 3567.85 187.245 3569.9 188.228C3571.95 189.188 3573.54 190.915 3574.35 193.042C3575.16 195.17 3575.11 197.531 3574.22 199.624L3553.46 247.29L3530.68 299.585L3503.91 360.941C3502.88 363.377 3501.79 365.713 3500.64 368.064C3500.12 369.175 3499.65 370.258 3499.1 371.312C3492.04 382.056 3484.11 392.204 3475.41 401.655C3460.14 418.132 3443.03 432.766 3424.41 445.261Z" fill="#DBDBDB"/>
</g>
<path d="M3631.64 2165.86L3631.27 2167.57L3443.68 2202.46L3380.66 2138.23L3367.65 2125L3322.27 2078.79L3254.78 2010.08L3433.84 1977.61L3452.96 1974.16L3518.81 2041.28L3536.2 2058.98L3571.58 2095.02C3571.58 2095.02 3619.61 2151.21 3631.64 2165.86Z" fill="#6C8BAB"/>
<path d="M3571.67 2094.96L3380.52 2138.29L3322.42 2078.43L3519.42 2041.13L3571.67 2094.96Z" fill="#0C151E"/>
<defs>
<linearGradient id="paint0_linear_810_70605" x1="426.813" y1="1041.36" x2="771.878" y2="800.099" gradientUnits="userSpaceOnUse">
<stop stop-color="#46C7FF"/>
<stop offset="0.6402" stop-color="#70E5FE"/>
<stop offset="1" stop-color="#89F7FE"/>
</linearGradient>
<linearGradient id="paint1_linear_810_70605" x1="-111.799" y1="740.564" x2="79.8413" y2="316.334" gradientUnits="userSpaceOnUse">
<stop offset="0.241509" stop-color="#2CD7A1"/>
<stop offset="0.6402" stop-color="#54DEB2"/>
<stop offset="1" stop-color="#7EE7C6"/>
</linearGradient>
<linearGradient id="paint2_linear_810_70605" x1="389.557" y1="883.052" x2="909.281" y2="395.425" gradientUnits="userSpaceOnUse">
<stop stop-color="#46C7FF"/>
<stop offset="0.6402" stop-color="#70E5FE"/>
<stop offset="1" stop-color="#89F7FE"/>
</linearGradient>
<linearGradient id="paint3_linear_810_70605" x1="241.359" y1="1109.2" x2="427.703" y2="802.936" gradientUnits="userSpaceOnUse">
<stop stop-color="#46C7FF"/>
<stop offset="0.6402" stop-color="#70E5FE"/>
<stop offset="1" stop-color="#89F7FE"/>
</linearGradient>
<linearGradient id="paint4_linear_810_70605" x1="2874.13" y1="499.561" x2="3124.96" y2="-88.2608" gradientUnits="userSpaceOnUse">
<stop stop-color="#46C7FF"/>
<stop offset="0.6402" stop-color="#70E5FE"/>
<stop offset="1" stop-color="#89F7FE"/>
</linearGradient>
<linearGradient id="paint5_linear_810_70605" x1="2926.67" y1="493.234" x2="3162.15" y2="-34.74" gradientUnits="userSpaceOnUse">
<stop offset="0.241509" stop-color="#2CD7A1"/>
<stop offset="0.6402" stop-color="#54DEB2"/>
<stop offset="1" stop-color="#7EE7C6"/>
</linearGradient>
<linearGradient id="paint6_linear_810_70605" x1="3020.37" y1="548.958" x2="3077.96" y2="302.507" gradientUnits="userSpaceOnUse">
<stop stop-color="#46C7FF"/>
<stop offset="0.6402" stop-color="#70E5FE"/>
<stop offset="1" stop-color="#89F7FE"/>
</linearGradient>
</defs>
</svg>
