<svg width="16" height="16" viewBox="0 0 16 16" fill="none" xmlns="http://www.w3.org/2000/svg">
<g clip-path="url(#clip0_1_13652)">
<path d="M7.94999 0.5C4.69999 0.5 1.92499 2.6 0.899994 5.5H15.05C14 2.6 11.225 0.5 7.94999 0.5Z" fill="#F2B200"/>
<path d="M7.94999 15.5C11.225 15.5 14 13.425 15.025 10.5H0.899994C1.92499 13.425 4.69999 15.5 7.94999 15.5Z" fill="#83BF4F"/>
<path d="M0.900006 5.5C0.625006 6.275 0.475006 7.125 0.475006 8C0.475006 8.875 0.625006 9.725 0.900006 10.5H15.05C15.325 9.725 15.475 8.875 15.475 8C15.475 7.125 15.325 6.275 15.05 5.5H0.900006Z" fill="white"/>
<path d="M7.95 10C9.05457 10 9.95 9.10457 9.95 8C9.95 6.89543 9.05457 6 7.95 6C6.84543 6 5.95 6.89543 5.95 8C5.95 9.10457 6.84543 10 7.95 10Z" fill="#428BC1"/>
<path d="M7.95 9.75C8.9165 9.75 9.7 8.9665 9.7 8C9.7 7.0335 8.9165 6.25 7.95 6.25C6.9835 6.25 6.2 7.0335 6.2 8C6.2 8.9665 6.9835 9.75 7.95 9.75Z" fill="white"/>
<path d="M7.3 6.5C7.36904 6.5 7.425 6.44404 7.425 6.375C7.425 6.30596 7.36904 6.25 7.3 6.25C7.23097 6.25 7.175 6.30596 7.175 6.375C7.175 6.44404 7.23097 6.5 7.3 6.5Z" fill="#428BC1"/>
<path d="M6.90001 6.72485C6.96904 6.72485 7.02501 6.66889 7.02501 6.59985C7.02501 6.53082 6.96904 6.47485 6.90001 6.47485C6.83097 6.47485 6.77501 6.53082 6.77501 6.59985C6.77501 6.66889 6.83097 6.72485 6.90001 6.72485Z" fill="#428BC1"/>
<path d="M6.57501 7.0498C6.64405 7.0498 6.70001 6.99384 6.70001 6.9248C6.70001 6.85577 6.64405 6.7998 6.57501 6.7998C6.50598 6.7998 6.45001 6.85577 6.45001 6.9248C6.45001 6.99384 6.50598 7.0498 6.57501 7.0498Z" fill="#428BC1"/>
<path d="M6.35001 7.44995C6.41904 7.44995 6.47501 7.39399 6.47501 7.32495C6.47501 7.25592 6.41904 7.19995 6.35001 7.19995C6.28097 7.19995 6.22501 7.25592 6.22501 7.32495C6.22501 7.39399 6.28097 7.44995 6.35001 7.44995Z" fill="#428BC1"/>
<path d="M6.22501 7.8999C6.29404 7.8999 6.35001 7.84394 6.35001 7.7749C6.35001 7.70587 6.29404 7.6499 6.22501 7.6499C6.15597 7.6499 6.10001 7.70587 6.10001 7.7749C6.10001 7.84394 6.15597 7.8999 6.22501 7.8999Z" fill="#428BC1"/>
<path d="M6.22501 8.34985C6.29404 8.34985 6.35001 8.29389 6.35001 8.22485C6.35001 8.15582 6.29404 8.09985 6.22501 8.09985C6.15597 8.09985 6.10001 8.15582 6.10001 8.22485C6.10001 8.29389 6.15597 8.34985 6.22501 8.34985Z" fill="#428BC1"/>
<path d="M6.35001 8.7998C6.41904 8.7998 6.47501 8.74384 6.47501 8.6748C6.47501 8.60577 6.41904 8.5498 6.35001 8.5498C6.28097 8.5498 6.22501 8.60577 6.22501 8.6748C6.22501 8.74384 6.28097 8.7998 6.35001 8.7998Z" fill="#428BC1"/>
<path d="M6.57501 9.19995C6.64405 9.19995 6.70001 9.14399 6.70001 9.07495C6.70001 9.00592 6.64405 8.94995 6.57501 8.94995C6.50598 8.94995 6.45001 9.00592 6.45001 9.07495C6.45001 9.14399 6.50598 9.19995 6.57501 9.19995Z" fill="#428BC1"/>
<path d="M6.90001 9.5249C6.96904 9.5249 7.02501 9.46894 7.02501 9.3999C7.02501 9.33087 6.96904 9.2749 6.90001 9.2749C6.83097 9.2749 6.77501 9.33087 6.77501 9.3999C6.77501 9.46894 6.83097 9.5249 6.90001 9.5249Z" fill="#428BC1"/>
<path d="M7.3 9.75C7.36904 9.75 7.425 9.69404 7.425 9.625C7.425 9.55596 7.36904 9.5 7.3 9.5C7.23097 9.5 7.175 9.55596 7.175 9.625C7.175 9.69404 7.23097 9.75 7.3 9.75Z" fill="#428BC1"/>
<path d="M7.72501 9.84985C7.79404 9.84985 7.85001 9.79389 7.85001 9.72485C7.85001 9.65582 7.79404 9.59985 7.72501 9.59985C7.65597 9.59985 7.60001 9.65582 7.60001 9.72485C7.60001 9.79389 7.65597 9.84985 7.72501 9.84985Z" fill="#428BC1"/>
<path d="M8.07501 9.74985C8.07501 9.67485 8.12501 9.62485 8.17501 9.59985C8.25001 9.59985 8.30001 9.64985 8.32501 9.69985C8.32501 9.77485 8.27501 9.82485 8.22501 9.84985C8.12501 9.87485 8.07501 9.82485 8.07501 9.74985Z" fill="#428BC1"/>
<path d="M8.625 9.75C8.69404 9.75 8.75 9.69404 8.75 9.625C8.75 9.55596 8.69404 9.5 8.625 9.5C8.55596 9.5 8.5 9.55596 8.5 9.625C8.5 9.69404 8.55596 9.75 8.625 9.75Z" fill="#428BC1"/>
<path d="M9.02501 9.5249C9.09404 9.5249 9.15001 9.46894 9.15001 9.3999C9.15001 9.33087 9.09404 9.2749 9.02501 9.2749C8.95597 9.2749 8.90001 9.33087 8.90001 9.3999C8.90001 9.46894 8.95597 9.5249 9.02501 9.5249Z" fill="#428BC1"/>
<path d="M9.35001 9.19995C9.41904 9.19995 9.47501 9.14399 9.47501 9.07495C9.47501 9.00592 9.41904 8.94995 9.35001 8.94995C9.28097 8.94995 9.22501 9.00592 9.22501 9.07495C9.22501 9.14399 9.28097 9.19995 9.35001 9.19995Z" fill="#428BC1"/>
<path d="M9.57501 8.7998C9.64405 8.7998 9.70001 8.74384 9.70001 8.6748C9.70001 8.60577 9.64405 8.5498 9.57501 8.5498C9.50598 8.5498 9.45001 8.60577 9.45001 8.6748C9.45001 8.74384 9.50598 8.7998 9.57501 8.7998Z" fill="#428BC1"/>
<path d="M9.70001 8.34985C9.76905 8.34985 9.82501 8.29389 9.82501 8.22485C9.82501 8.15582 9.76905 8.09985 9.70001 8.09985C9.63098 8.09985 9.57501 8.15582 9.57501 8.22485C9.57501 8.29389 9.63098 8.34985 9.70001 8.34985Z" fill="#428BC1"/>
<path d="M9.7 7.8999C9.625 7.8999 9.575 7.8499 9.55 7.7999C9.55 7.7249 9.6 7.6749 9.65 7.6499C9.725 7.6499 9.775 7.6999 9.8 7.7499C9.825 7.8249 9.775 7.8749 9.7 7.8999Z" fill="#428BC1"/>
<path d="M9.57501 7.44995C9.64405 7.44995 9.70001 7.39399 9.70001 7.32495C9.70001 7.25592 9.64405 7.19995 9.57501 7.19995C9.50598 7.19995 9.45001 7.25592 9.45001 7.32495C9.45001 7.39399 9.50598 7.44995 9.57501 7.44995Z" fill="#428BC1"/>
<path d="M9.35001 7.0498C9.41904 7.0498 9.47501 6.99384 9.47501 6.9248C9.47501 6.85577 9.41904 6.7998 9.35001 6.7998C9.28097 6.7998 9.22501 6.85577 9.22501 6.9248C9.22501 6.99384 9.28097 7.0498 9.35001 7.0498Z" fill="#428BC1"/>
<path d="M9.02501 6.72485C9.09404 6.72485 9.15001 6.66889 9.15001 6.59985C9.15001 6.53082 9.09404 6.47485 9.02501 6.47485C8.95597 6.47485 8.90001 6.53082 8.90001 6.59985C8.90001 6.66889 8.95597 6.72485 9.02501 6.72485Z" fill="#428BC1"/>
<path d="M8.75001 6.42491C8.72501 6.49991 8.65001 6.52491 8.57501 6.49991C8.50001 6.47491 8.47501 6.39991 8.50001 6.32491C8.52501 6.24991 8.60001 6.22491 8.67501 6.24991C8.75001 6.29991 8.77501 6.37491 8.75001 6.42491ZM8.30001 6.27491C8.30001 6.34991 8.22501 6.39991 8.15001 6.37491C8.07501 6.37491 8.02501 6.29991 8.05001 6.22491C8.05001 6.14991 8.12501 6.09991 8.20001 6.12491C8.27501 6.14991 8.32501 6.22491 8.30001 6.27491ZM7.85001 6.24991C7.85001 6.32491 7.80001 6.37491 7.75001 6.39991C7.67501 6.39991 7.62501 6.34991 7.60001 6.29991C7.60001 6.22491 7.65001 6.17491 7.70001 6.14991C7.77501 6.12491 7.85001 6.17491 7.85001 6.24991Z" fill="#428BC1"/>
<path d="M7.95001 8.375C8.15712 8.375 8.32501 8.20711 8.32501 8C8.32501 7.79289 8.15712 7.625 7.95001 7.625C7.74291 7.625 7.57501 7.79289 7.57501 8C7.57501 8.20711 7.74291 8.375 7.95001 8.375Z" fill="#428BC1"/>
<path d="M7.95 6.25L7.9 7.325L7.95 8L8.025 7.325L7.95 6.25ZM7.5 6.3L7.725 7.375L7.95 8L7.85 7.325L7.5 6.3Z" fill="#428BC1"/>
<path d="M7.07501 6.47485L7.57501 7.44985L7.95001 7.99985L7.67501 7.37485L7.07501 6.47485ZM6.72501 6.74985L7.45001 7.57485L7.95001 7.99985L7.52501 7.47485L6.72501 6.74985Z" fill="#428BC1"/>
<path d="M6.45001 7.125L7.35001 7.725L7.95001 8L7.40001 7.6L6.45001 7.125Z" fill="#428BC1"/>
<path d="M6.27501 7.5498L7.30001 7.8748L7.95001 7.9998L7.32501 7.7748L6.27501 7.5498ZM6.20001 7.9998L7.30001 8.0498L7.95001 7.9998L7.30001 7.9498L6.20001 7.9998Z" fill="#428BC1"/>
<path d="M6.27501 8.45L7.32501 8.225L7.95001 8L7.30001 8.125L6.27501 8.45ZM6.45001 8.875L7.40001 8.4L7.95001 8L7.35001 8.275L6.45001 8.875Z" fill="#428BC1"/>
<path d="M6.72501 9.225L7.52501 8.525L7.95001 8L7.45001 8.425L6.72501 9.225ZM7.07501 9.525L7.67501 8.6L7.95001 8L7.57501 8.55L7.07501 9.525Z" fill="#428BC1"/>
<path d="M7.5 9.7L7.85 8.675L7.95 8L7.725 8.625L7.5 9.7ZM7.95 9.75L8.025 8.675L7.95 8L7.9 8.675L7.95 9.75ZM8.4 9.7L8.2 8.625L7.95 8L8.075 8.675L8.4 9.7Z" fill="#428BC1"/>
<path d="M8.82501 9.525L8.35001 8.55L7.95001 8L8.25001 8.625L8.82501 9.525ZM9.20001 9.225L8.47501 8.425L7.95001 8L8.40001 8.525L9.20001 9.225Z" fill="#428BC1"/>
<path d="M9.47501 8.8748L8.57501 8.2748L7.95001 7.9998L8.50001 8.3998L9.47501 8.8748ZM9.65001 8.4498L8.62501 8.1248L7.95001 7.9998L8.60001 8.2248L9.65001 8.4498ZM9.70001 7.9998L8.62501 7.9248L7.95001 7.9998L8.62501 8.0498L9.70001 7.9998ZM9.65001 7.5498L8.60001 7.7748L7.95001 7.9998L8.62501 7.8748L9.65001 7.5498Z" fill="#428BC1"/>
<path d="M9.47501 7.1249L8.50001 7.5999L7.95001 7.9999L8.57501 7.7249L9.47501 7.1249ZM9.20001 6.7749L8.40001 7.4749L7.95001 7.9999L8.47501 7.5749L9.20001 6.7749Z" fill="#428BC1"/>
<path d="M8.82501 6.47485L8.25001 7.39985L7.95001 7.99985L8.35001 7.44985L8.82501 6.47485Z" fill="#428BC1"/>
<path d="M8.42501 6.2998L8.07501 7.3248L7.95001 7.9998L8.20001 7.3748L8.42501 6.2998Z" fill="#428BC1"/>
</g>
<defs>
<clipPath id="clip0_1_13652">
<rect width="16" height="16" fill="white"/>
</clipPath>
</defs>
</svg>
