<svg width="164" height="40" viewBox="0 0 164 40" fill="none" xmlns="http://www.w3.org/2000/svg">
<path d="M63.2172 12.4966V27.9594H63.1514L51.4058 16.802L51.4519 27.473H49.2812V12.041H49.3909L61.1145 23.3277L61.0707 12.5007L63.2172 12.4966Z" fill="#112D44"/>
<path d="M77.0256 12.041V14.0884H68.4345V18.934H75.9432V20.9813H68.4345V25.8902H77.1525V27.9594H66.2461V12.041H77.0256Z" fill="#112D44"/>
<path d="M82.8679 24.0959C83.2048 24.6508 83.6864 25.1089 84.2639 25.4236C84.8605 25.7519 85.5354 25.9209 86.2205 25.9137C86.9256 25.923 87.6216 25.7582 88.2436 25.4344C88.8331 25.128 89.324 24.6684 89.6617 24.1067C90.0059 23.5327 90.1836 22.8783 90.1758 22.2134V12.041H92.3008V22.276C92.3212 23.3208 92.0418 24.3503 91.4942 25.2488C90.9702 26.1022 90.212 26.796 89.305 27.2522C88.3508 27.7172 87.2985 27.9594 86.2316 27.9594C85.1647 27.9594 84.1124 27.7172 83.1582 27.2522C82.2525 26.7975 81.4967 26.1031 80.9778 25.2488C80.4394 24.3472 80.165 23.319 80.1846 22.276V12.041H82.3539V22.2134C82.3443 22.8751 82.5222 23.5264 82.8679 24.0959Z" fill="#112D44"/>
<path d="M105.59 27.5306C104.803 27.8202 103.973 27.9648 103.137 27.9577C101.699 27.9878 100.279 27.6236 99.0245 26.9029C97.8718 26.2317 96.9249 25.2445 96.2903 24.0524C95.6478 22.8437 95.3182 21.4868 95.333 20.1109C95.3118 18.6676 95.6445 17.2419 96.3007 15.9643C96.9187 14.7703 97.8468 13.7742 98.9828 13.0861C100.159 12.3808 101.501 12.0197 102.864 12.042C103.676 12.0349 104.484 12.1507 105.262 12.3858C105.965 12.5971 106.637 12.9015 107.263 13.2911L106.447 15.2448C105.283 14.4405 104.113 14.0384 102.935 14.0384C101.971 14.0327 101.025 14.309 100.209 14.8348C99.3728 15.3691 98.6847 16.1147 98.2111 16.9999C97.7092 17.9172 97.4497 18.9527 97.4582 20.0041C97.443 21.0579 97.6778 22.0998 98.1423 23.0403C98.5797 23.9269 99.2593 24.6643 100.099 25.1627C101.109 25.7275 102.255 25.9872 103.404 25.9116C104.553 25.836 105.657 25.4283 106.589 24.7357L107.45 26.6104C106.866 26.9882 106.242 27.297 105.59 27.5306Z" fill="#112D44"/>
<path d="M119.588 27.9594L115.958 22.0818C115.788 22.0994 115.617 22.1067 115.446 22.1036H113.154V27.9594H111.082V12.0421H115.203C116.171 12.0247 117.133 12.2204 118.022 12.6161C118.815 12.969 119.491 13.554 119.965 14.2988C120.451 15.0994 120.696 16.0305 120.67 16.9746C120.677 17.9176 120.459 18.8478 120.035 19.6832C119.609 20.51 118.93 21.1678 118.103 21.5536L121.988 27.9594H119.588ZM117.81 19.131C118.292 18.5568 118.554 17.8211 118.547 17.0619C118.543 16.5818 118.436 16.1085 118.234 15.676C118.017 15.2096 117.676 14.8161 117.252 14.5411C116.742 14.2236 116.153 14.0666 115.558 14.0893H113.154V20.0346H115.395C116.513 20.0346 117.318 19.7334 117.81 19.131Z" fill="#112D44"/>
<path d="M126.692 16.0412C127.386 14.8386 128.373 13.8352 129.56 13.1265C130.749 12.4159 132.106 12.041 133.488 12.041C134.87 12.041 136.227 12.4159 137.416 13.1265C138.608 13.8356 139.602 14.8385 140.305 16.0412C141.015 17.2362 141.387 18.605 141.38 19.9985C141.392 21.3969 141.027 22.7721 140.324 23.9772C139.628 25.1802 138.632 26.1779 137.435 26.8706C136.24 27.5783 134.881 27.9539 133.496 27.9593C132.111 27.9647 130.749 27.5996 129.549 26.9013C128.349 26.2029 127.354 25.1962 126.665 23.9837C125.976 22.7711 125.618 21.3961 125.627 19.9985C125.62 18.6064 125.988 17.2384 126.692 16.0412ZM128.527 22.9665C129.026 23.8578 129.75 24.6 130.625 25.1179C131.277 25.5121 132.001 25.7699 132.754 25.8759C133.506 25.9819 134.273 25.9341 135.007 25.7351C135.741 25.5362 136.427 25.1902 137.026 24.7179C137.625 24.2455 138.123 23.6564 138.491 22.9857C138.991 22.0715 139.253 21.0446 139.253 20.0007C139.253 18.9567 138.991 17.9298 138.491 17.0156C137.999 16.1169 137.278 15.3669 136.403 14.8429C135.524 14.3203 134.522 14.0456 133.502 14.0475C132.482 14.0494 131.481 14.3277 130.604 14.8535C129.731 15.3825 129.014 16.136 128.525 17.0369C128.022 17.9498 127.762 18.9779 127.768 20.022C127.758 21.054 128.02 22.0702 128.527 22.9665Z" fill="#112D44"/>
<path d="M146.549 12.5006L146.506 23.3248L158.234 12.041H158.344V27.4588H156.177L156.22 16.8007L144.476 27.9594H144.408V12.5006H146.549Z" fill="#112D44"/>
<path d="M36.331 2.85693H8.9086C7.1113 2.85693 5.6543 4.32917 5.6543 6.14526V33.8543C5.6543 35.6704 7.1113 37.1426 8.9086 37.1426H36.331C38.1283 37.1426 39.5853 35.6704 39.5853 33.8543V6.14526C39.5853 4.32917 38.1283 2.85693 36.331 2.85693Z" fill="#112D44"/>
<path d="M18.9132 21.7362C18.937 20.593 18.9608 19.4586 18.9846 18.311L17.8186 18.3789L14.9717 18.5497C14.153 18.5665 13.3584 18.8329 12.6916 19.314C10.5283 20.9565 10.8312 23.5452 12.1205 24.914C12.6613 25.49 13.2259 26.0418 13.7819 26.6025C15.0799 27.9165 16.3778 29.2481 17.6952 30.5599C18.2722 31.1295 19.0157 31.4946 19.8147 31.6008C20.6137 31.707 21.4252 31.5485 22.1278 31.149C23.3219 30.4482 23.88 29.3357 23.9601 27.9713C24.0401 26.6069 24.0812 25.1921 24.1396 23.8102L24.5355 14.2878C24.5355 14.0448 24.5506 13.8017 24.5615 13.5564C24.564 13.2938 24.6464 13.0384 24.7973 12.8249C24.8838 12.6895 25.0125 12.5872 25.1631 12.5344C25.3136 12.4817 25.4772 12.4814 25.6279 12.5336C25.8545 12.6117 26.0623 12.737 26.238 12.9015C27.4364 14.0886 28.6234 15.2865 29.7987 16.4954C29.9519 16.6662 30.0651 16.8699 30.1297 17.0911C30.1584 17.1668 30.1715 17.2477 30.168 17.3288C30.1645 17.4098 30.1446 17.4893 30.1095 17.5622C30.0744 17.6351 30.0249 17.7 29.964 17.7527C29.9031 17.8054 29.8321 17.8448 29.7555 17.8686C29.4284 17.9871 29.0872 18.0607 28.7409 18.0876C27.9751 18.1401 27.2093 18.1445 26.424 18.1664C26.3656 19.314 26.3051 20.4506 26.2445 21.607L27.1466 21.572C28.2066 21.5303 29.2644 21.4997 30.3222 21.4449C31.1232 21.4264 31.9006 21.1664 32.5547 20.6981C32.9679 20.4075 33.3178 20.0341 33.5828 19.6011C33.8477 19.1681 34.0221 18.6847 34.0951 18.1807C34.1681 17.6767 34.1382 17.163 34.0072 16.6712C33.8762 16.1794 33.6469 15.72 33.3335 15.3215C33.1694 15.1284 32.9939 14.9456 32.8078 14.774C31.0945 13.022 29.3877 11.27 27.6657 9.54858C26.4803 8.355 25.0698 8.07249 23.5253 8.67256C22.4436 9.08429 21.7946 9.93403 21.4701 11.0378C21.36 11.4406 21.2983 11.8553 21.2863 12.273C21.1457 15.4004 21.0202 18.5278 20.8904 21.6574C20.8226 23.2503 20.7563 24.8432 20.6914 26.4361C20.6881 26.5227 20.6794 26.609 20.6654 26.6945C20.527 27.4895 19.8347 27.7764 19.2095 27.2814C18.9162 27.0307 18.6381 26.7623 18.3767 26.4777C17.4234 25.517 16.4723 24.5533 15.5233 23.5868C15.3374 23.4122 15.2021 23.1896 15.1318 22.9429C15.0809 22.783 15.0925 22.6095 15.1641 22.458C15.2357 22.3064 15.3619 22.1885 15.5168 22.1282C15.9192 21.9741 16.3457 21.8947 16.7759 21.8939L18.9132 21.7362Z" fill="#06E7ED"/>
</svg>
