<svg width="218" height="274" viewBox="0 0 218 274" fill="none" xmlns="http://www.w3.org/2000/svg">
<path d="M67.277 128.227L66.9629 128.707L67.2637 128.219L67.277 128.227Z" fill="#FFC84E"/>
<path d="M78.5878 217.363C76.3565 212.715 91.695 204.352 91.695 204.352L91.5985 218.352L81.5828 219.79L78.5878 217.363Z" fill="#142232"/>
<path d="M159.033 187.642C158.485 194.447 157.306 201.186 155.514 207.771C149.095 232.004 136.607 252.662 136.115 253.47C138.187 249.499 129.502 233.97 122.73 222.931C118.708 216.352 115.34 211.368 115.34 211.368C115.34 211.368 116.215 200.672 117.368 186.777C118.939 167.931 121.027 143.183 122.191 131.299C122.191 131.299 143.245 152.229 153.535 170.538C157.106 176.88 159.378 182.906 159.033 187.642Z" fill="url(#paint0_linear_1_13576)"/>
<g style="mix-blend-mode:multiply" opacity="0.2">
<path d="M159.032 187.641C158.484 194.446 157.306 201.185 155.514 207.77C151.185 185.856 136.227 155.103 135.947 154.521L153.542 170.531C157.105 176.879 159.378 182.905 159.032 187.641Z" fill="#595959"/>
</g>
<g style="mix-blend-mode:multiply" opacity="0.2">
<path d="M124.777 241.36L115.34 211.36C115.34 211.36 116.216 200.663 117.369 186.769C119.505 197.841 121.393 211.862 122.73 222.923C123.966 233.173 124.73 240.872 124.777 241.36Z" fill="#595959"/>
</g>
<path d="M71.6252 138.907C77.2261 133.22 81.7669 137.963 85.5978 140.694C89.4287 143.426 99.1191 147.918 100.979 152.289C102.838 156.66 102.509 170.428 98.6294 174.695C94.7503 178.963 77.4609 169.829 76.7138 169.773C75.9668 169.716 71.9382 160.292 74.651 155.718C77.3637 151.144 77.7448 143.426 71.6252 138.907Z" fill="#FDBA9D"/>
<path d="M82.394 218.305C77.455 203.923 72.9531 184.062 71.6534 181.115C69.8162 176.957 66.5939 173.998 65.1586 173.019C63.7233 172.04 59.994 171.543 58.6551 170.028C57.3163 168.513 57.4263 165.645 56.1533 164.682C54.8803 163.72 49.4046 161.943 48.1115 160.649C46.8185 159.355 46.1854 155.509 44.9556 154.71C43.7257 153.912 40.3845 151.052 41.1559 147.31C41.9272 143.567 49.2936 147.928 49.2936 147.928L79.3234 168.017L86.9849 173.484L98.6291 174.695L108.491 193.74L103.181 209.784C103.181 209.784 97.8965 216.986 95.6869 217.684C93.4772 218.383 82.394 218.305 82.394 218.305Z" fill="#FDBA9D"/>
<path d="M99.6038 161.958C96.4367 161.709 93.2925 162.681 90.8056 164.677L37.6047 121.894L40.6354 117.439L40.3052 117.207C40.4541 117.208 40.601 117.173 40.733 117.103C40.8651 117.034 40.9782 116.933 41.0625 116.809L46.8676 108.251C46.9985 108.059 47.0538 107.826 47.0223 107.595C46.9909 107.365 46.8751 107.155 46.6977 107.007L43.9023 104.655C43.8042 104.573 43.6904 104.512 43.5678 104.476C43.4452 104.44 43.3166 104.429 43.1898 104.445C43.0631 104.461 42.9409 104.503 42.8309 104.569C42.7208 104.634 42.6253 104.722 42.5501 104.826L35.9339 114.08L29.8756 109.762C30.0063 109.699 30.1172 109.6 30.1963 109.478L35.0747 102.266C35.2126 102.062 35.2656 101.812 35.2222 101.569C35.1789 101.327 35.0426 101.111 34.8429 100.969L32.6075 99.3962C32.5057 99.3253 32.391 99.2756 32.27 99.2499C32.149 99.2241 32.0241 99.2229 31.9025 99.2463C31.781 99.2697 31.6652 99.3173 31.562 99.3862C31.4588 99.4551 31.3702 99.544 31.3014 99.6476L26.4357 106.92C26.3707 107.008 26.3271 107.11 26.3087 107.219L21.5944 103.845L27.2613 94.1294C27.3796 93.9278 27.4193 93.689 27.3724 93.4598C27.3254 93.2305 27.1954 93.0272 27.0076 92.8897L25.5013 91.8389C25.4 91.7667 25.2853 91.7157 25.1641 91.6892C25.0428 91.6627 24.9174 91.6612 24.7955 91.6847C24.6735 91.7081 24.5575 91.7562 24.4544 91.8259C24.3512 91.8956 24.2631 91.9856 24.1952 92.0904L18.1349 101.351L17.7425 101.939L17.6826 102.039L11.5088 111.972C11.0921 112.642 10.9435 113.447 11.0932 114.223C11.2428 114.999 11.6796 115.688 12.3149 116.15L31.8837 130.262L86.1899 172.322C86.0967 172.791 86.0328 173.265 85.9985 173.742C85.8086 176.261 86.3636 178.779 87.5934 180.978C88.8232 183.177 90.6727 184.959 92.9079 186.097C95.1432 187.236 97.6639 187.68 100.151 187.374C102.639 187.068 104.982 186.026 106.883 184.379C108.785 182.732 110.16 180.554 110.835 178.12C111.51 175.687 111.454 173.108 110.675 170.708C109.896 168.308 108.429 166.196 106.458 164.639C104.487 163.081 102.102 162.148 99.6038 161.958ZM98.1766 180.745C96.9892 180.656 95.855 180.214 94.9176 179.475C93.9802 178.735 93.2819 177.732 92.9108 176.592C92.5398 175.451 92.5129 174.225 92.8334 173.069C93.1539 171.912 93.8074 170.877 94.7113 170.094C95.6152 169.312 96.7288 168.817 97.9111 168.672C99.0934 168.527 100.291 168.739 101.353 169.281C102.415 169.823 103.293 170.671 103.876 171.717C104.459 172.763 104.721 173.96 104.629 175.157C104.506 176.759 103.757 178.247 102.547 179.295C101.338 180.342 99.7658 180.863 98.1766 180.745Z" fill="url(#paint1_linear_1_13576)"/>
<path d="M182.561 222.429C166.805 208.638 122.189 131.28 122.189 131.28C123.084 120.76 124.549 110.296 126.577 99.9353C127.23 96.6077 127.972 93.1992 128.822 89.8023C129.114 88.6042 129.427 87.4145 129.747 86.2289C129.747 86.2289 144.44 66.4471 147.48 63.4201C148.408 62.5683 149.397 61.7878 150.44 61.0849C152.376 59.7345 154.981 58.0947 157.946 56.4262C164.121 52.978 171.795 49.4438 177.912 48.3585C189.055 46.3783 191.271 85.2038 191.271 85.2038C191.271 85.2038 213 247.5 182.561 222.429Z" fill="url(#paint2_linear_1_13576)"/>
<path d="M83.4569 46.9382C85.4197 55.1217 94.5814 55.0357 97.1148 54.2882C99.6482 53.5408 91.1919 42.9667 91.1919 42.9667L83.4569 46.9382Z" fill="#0C151E"/>
<path d="M135.305 100.25C131.952 94.7978 129.471 90.8254 127.664 87.9667C124.868 83.567 123.684 81.7972 123.354 81.3268L123.261 81.1864C123.261 81.1864 123.301 81.1158 123.374 80.9741C123.633 80.4467 124.387 78.9469 125.342 76.9608C128.02 71.3812 132.309 61.8456 132.193 58.2982C132.013 53.1574 140.536 48.3761 140.536 48.3761C148.491 59.5013 154.497 65.5686 156.477 72.4734C158.457 79.3782 144.869 115.8 135.305 100.25Z" fill="#FDBA9D"/>
<g style="mix-blend-mode:multiply" opacity="0.2">
<path d="M127.664 87.9673C124.867 83.5675 123.684 81.7978 123.354 81.3274L123.381 80.9787L123.513 77.9517L125.348 76.9654L133.325 72.6897C135.131 78.0452 131.212 83.9794 127.664 87.9673Z" fill="#595959"/>
</g>
<path d="M91.192 42.9626C102.495 75.6363 112.553 86.048 123.151 82.6202C133.749 79.1924 136.384 64.7475 136.901 57.9447C137.418 51.1419 140.536 48.3663 140.536 48.3663L120.847 25.4535C120.847 25.4535 105.4 26.0336 101.744 28.7824C98.0884 31.5312 91.192 42.9626 91.192 42.9626Z" fill="#FDBA9D"/>
<path d="M98.4498 39.4993C91.3075 49.909 74.5272 52.8005 69.8637 35.7532C65.2002 18.7058 78.1609 18.1087 88.6091 17.3874C107.532 16.0579 106.025 5.03328 117.06 7.57943C123.786 9.14252 125.227 19.11 125.227 19.11C130.012 15.6474 138.72 23.3228 135.567 30.8126C132.413 38.3024 124.267 36.9682 124.267 36.9682C119.374 29.2213 110.595 21.8 98.4498 39.4993Z" fill="#0C151E"/>
<path d="M123.977 35.616C124.906 23.3912 140.805 23.5399 134.809 41.8957C128.812 60.2515 123.977 35.616 123.977 35.616Z" fill="#FDBA9D"/>
<path d="M136.11 253.492C128.967 264.501 118.344 267.573 111.107 267.23C94.5783 266.441 82.134 221.869 78.5978 217.364C88.4842 219.093 108.501 193.74 108.501 193.74C108.501 193.74 117.284 215.498 124.265 224.337C131.246 233.175 139.577 248.137 136.11 253.492Z" fill="url(#paint3_linear_1_13576)"/>
<path d="M164.019 86.6053C163.008 99.6796 151.876 112.423 142.752 112.789C135.107 113.103 129.313 109.801 126.576 99.9456C127.229 96.618 127.971 93.2095 128.821 89.8127C128.961 90.3037 136.445 105.061 146.448 98.1656C159.708 89.0027 150.433 61.0842 150.433 61.0842C152.369 59.7338 154.974 58.094 157.939 56.4255C162.617 64.0788 164.904 75.0856 164.019 86.6053Z" fill="#546E88"/>
<path d="M117.885 70.0728C124.797 69.8403 128.084 59.4464 128.544 55.4519" stroke="#142232" stroke-width="1.98653" stroke-linecap="round" stroke-linejoin="round"/>
<path d="M127.379 33.0098C128.015 29.5827 134.01 29.3858 133.569 35.8683" stroke="#142232" stroke-width="1.98653" stroke-linecap="round" stroke-linejoin="round"/>
<path d="M105.109 42.6431C107.626 57.6792 114.047 65.3317 115.659 54.053" stroke="#142232" stroke-width="1.98653" stroke-linecap="round" stroke-linejoin="round"/>
<path d="M51.2266 150.136C51.2266 150.136 52.9099 141.714 54.1066 138.782C55.3033 135.85 66.2252 132.373 66.2252 132.373C66.2252 132.373 64.865 127.385 60.4971 126.594C56.1292 125.802 48.5012 130.701 46.4265 133.24C44.5464 135.552 42.1309 138.777 41.1614 147.282C41.1614 147.282 46.6155 152.364 47.6907 152.039C48.7659 151.714 51.2266 150.136 51.2266 150.136Z" fill="#FDBA9D"/>
<path d="M50.9818 149.06C51.7929 144.152 52.749 138.526 54.7187 137.048C56.6884 135.571 65.7181 131.452 67.6551 131.596C70.2247 131.791 74.0917 135.101 73.6251 139.137C73.1585 143.173 63.9875 144.756 63.9875 144.756L59.169 157.176L50.9818 149.06Z" fill="#FDBA9D"/>
<path d="M57.7896 157.249C57.7896 157.249 61.4903 146.585 62.8438 144.931C64.5351 142.86 70.7914 140.176 73.5811 139.718C75.9515 139.33 81.4455 142.514 81.4319 145.852C81.4184 149.19 75.5535 148.828 73.9723 151.556C72.3911 154.283 66.9976 163.651 66.9976 163.651L57.7896 157.249Z" fill="#FDBA9D"/>
<path d="M64.9184 162.354C68.3129 155.949 71.0786 151.228 73.152 149.621C75.6419 147.706 79.7755 145.401 82.5527 146.022C85.33 146.643 87.8784 149.407 89.2831 152.071C91.4126 156.09 88.9221 161.081 88.0029 162.557L81.392 157.089C79.2224 160.098 74.9973 168.005 74.4139 170.236C73.8304 172.468 64.9184 162.354 64.9184 162.354Z" fill="#FDBA9D"/>
<path d="M190.984 30.1186C184.673 32.1129 181.708 35.4232 181.728 38.8512C181.747 42.2793 183.072 43.6068 182.668 45.7086C182.263 47.8104 178.878 50.9821 179.174 53.9197C179.47 56.8574 181.289 59.7207 180.956 62.3705C180.623 65.0203 179.009 67.6022 179.243 69.2961C179.476 70.9901 181.437 72.6023 181.583 74.8013C181.729 77.0002 181.353 82.95 186.699 83.0607C192.046 83.1715 188.971 79.6541 188.62 78.5876C188.269 77.521 186.833 57.9156 186.833 57.9156L191.051 42.0355L190.984 30.1186Z" fill="#FDBA9D"/>
<path d="M191.052 42.0616C205.526 47.5449 207.422 51.4544 207.436 53.8359C207.449 56.2173 185.897 51.7173 185.897 51.7173C185.897 51.7173 182.266 48.2909 183.432 45.6395C184.598 42.9881 191.052 42.0616 191.052 42.0616Z" fill="#FDBA9D"/>
<path d="M193.021 53.0645C205.646 56.2207 212.545 60.4527 212.075 63.611C211.605 66.7692 185.825 63.7597 185.825 63.7597L185.301 56.9L185.893 51.7167L193.021 53.0645Z" fill="#FDBA9D"/>
<path d="M191.532 64.3279C199.17 65.7104 207.517 68.1043 207.534 71.0529C207.563 76.1637 190.403 74.597 186.301 74.1847C182.199 73.7723 182.374 67.3442 182.374 67.3442L185.826 63.7555L191.532 64.3279Z" fill="#FDBA9D"/>
<path d="M186.706 83.0729C193.098 82.9584 203.79 81.2276 203.775 78.7051C203.761 76.1826 188.953 73.8191 186.316 74.185C183.68 74.5509 183.797 83.127 186.706 83.0729Z" fill="#FDBA9D"/>
<defs>
<linearGradient id="paint0_linear_1_13576" x1="99.9292" y1="241.813" x2="180.719" y2="185.327" gradientUnits="userSpaceOnUse">
<stop stop-color="#46C7FF"/>
<stop offset="0.6402" stop-color="#70E5FE"/>
<stop offset="1" stop-color="#89F7FE"/>
</linearGradient>
<linearGradient id="paint1_linear_1_13576" x1="-26.1754" y1="171.388" x2="18.6931" y2="72.063" gradientUnits="userSpaceOnUse">
<stop offset="0.241509" stop-color="#2CD7A1"/>
<stop offset="0.6402" stop-color="#54DEB2"/>
<stop offset="1" stop-color="#7EE7C6"/>
</linearGradient>
<linearGradient id="paint2_linear_1_13576" x1="91.2065" y1="204.748" x2="212.889" y2="90.5806" gradientUnits="userSpaceOnUse">
<stop stop-color="#46C7FF"/>
<stop offset="0.6402" stop-color="#70E5FE"/>
<stop offset="1" stop-color="#89F7FE"/>
</linearGradient>
<linearGradient id="paint3_linear_1_13576" x1="56.5092" y1="257.696" x2="100.138" y2="185.991" gradientUnits="userSpaceOnUse">
<stop stop-color="#46C7FF"/>
<stop offset="0.6402" stop-color="#70E5FE"/>
<stop offset="1" stop-color="#89F7FE"/>
</linearGradient>
</defs>
</svg>
