<svg width="141" height="268" viewBox="0 0 141 268" fill="none" xmlns="http://www.w3.org/2000/svg">
<path d="M137.587 267.481L98.4479 263.191C79.3717 261.754 56.1197 256.786 38.5869 247.981C39.9986 246.698 43.5292 244.588 50.5493 248.42C39.9568 236.408 45.1663 227.53 58.1797 244.979C43.3489 220.008 54.4269 212.025 60.1498 211.5C69.7469 210.619 70.3087 241.192 69.6844 247.2C71.8695 235.615 78.9901 237.22 80.7625 246.7C78.1924 227.722 86.7004 213.06 94.2893 214.43C101.878 215.801 91.3272 237.706 91.5943 241.286C98.5589 234.244 108.392 238.545 102.159 250.004C111.201 240.003 113.397 246.133 112.353 254.246C120.85 242.066 128.377 247.71 126.316 256.456C135.681 251.466 134.048 258.106 133.128 259.82C140.887 255.536 141.836 264.135 137.587 267.481Z" fill="#ABEFD9"/>
<path d="M49.5995 0V36.8257H63.0812V16.6242H80.6833V0H98.2855V64.0314H123.001V109.736L35.4346 129.521V0H49.5995Z" fill="#A3C4D8"/>
<path d="M16.5869 58.0166H43.1063V127.283L16.5869 130.392V58.0166Z" fill="#A3C4D8"/>
<path d="M51.4574 236.806C43.5148 222.038 39.814 203.893 51.4852 187.062" stroke="#ABEFD9" stroke-width="1.35599" stroke-linecap="round" stroke-linejoin="round"/>
<path d="M64.7345 179.063C66.3915 179.063 67.7347 177.709 67.7347 176.038C67.7347 174.367 66.3915 173.013 64.7345 173.013C63.0776 173.013 61.7344 174.367 61.7344 176.038C61.7344 177.709 63.0776 179.063 64.7345 179.063Z" fill="#56DFB4"/>
<path d="M63.7393 170.95C61.7935 171.338 58.013 161.795 61.797 161.04C65.5811 160.284 65.6851 170.562 63.7393 170.95Z" fill="#56DFB4"/>
<path d="M60.4651 173.15C59.3587 174.811 49.994 170.758 52.1409 167.527C54.2879 164.295 61.568 171.492 60.4651 173.15Z" fill="#56DFB4"/>
<path d="M59.6917 177.041C60.0733 179.003 50.608 182.814 49.8622 178.999C49.1165 175.184 59.3067 175.083 59.6917 177.041Z" fill="#56DFB4"/>
<path d="M61.8736 180.346C63.5211 181.458 59.5012 190.903 56.2964 188.738C53.0916 186.574 60.2261 179.248 61.8736 180.346Z" fill="#56DFB4"/>
<path d="M65.7336 181.125C67.6793 180.737 71.4599 190.28 67.6759 191.035C63.8919 191.791 63.7878 181.513 65.7336 181.125Z" fill="#56DFB4"/>
<path d="M69.0076 178.922C70.114 177.265 79.4787 181.318 77.3317 184.549C75.1848 187.78 67.9046 180.583 69.0076 178.922Z" fill="#56DFB4"/>
<path d="M69.7915 175.051C69.41 173.089 78.8753 169.278 79.621 173.093C80.3667 176.908 70.1661 176.992 69.7915 175.051Z" fill="#56DFB4"/>
<path d="M67.5999 171.729C65.9524 170.617 69.9723 161.172 73.1771 163.337C76.3819 165.501 69.2474 172.841 67.5999 171.729Z" fill="#56DFB4"/>
<rect x="46.165" y="57.5068" width="14.2379" height="14.2379" fill="#CBE0EC"/>
<rect x="72.6074" y="70.3877" width="14.2379" height="14.2379" fill="#CBE0EC"/>
<path d="M52.6421 243.207C52.1708 244.748 51.3443 246.156 50.2301 247.315C49.9365 247.654 49.6242 247.976 49.2948 248.28L49.0746 248.491C46.6415 250.63 45.1553 250.131 44.5874 250.5C42.2226 248.936 39.8125 249.204 37.5874 247.5C22.5874 239.5 8.5874 225 6.0874 210C7.01172 209.089 9.66604 207.784 10.7767 207.119C10.9487 207.015 11.1268 206.922 11.31 206.839C15.2807 205.006 15.3922 210.011 15.0499 212.128C28.5389 203.792 39.08 210.541 31.8919 225.178C37.8903 219.178 40.7311 227.246 39.1341 229.797C45.8868 227.165 46.5071 231.722 45.1332 235.625C44.6958 236.93 44.0071 238.136 43.1067 239.173C43.0816 239.214 43.052 239.251 43.0185 239.285C43.046 239.272 43.0749 239.263 43.1047 239.258C44.7722 238.663 46.5236 238.343 48.2909 238.311C48.6173 238.312 48.9433 238.334 49.2665 238.379C52.1995 238.755 53.2979 240.722 52.6421 243.207Z" fill="#56DFB4"/>
</svg>
