<svg width="148" height="302" viewBox="0 0 148 302" fill="none" xmlns="http://www.w3.org/2000/svg">
<path d="M144.095 235.556C143.335 237.549 142.541 239.948 141.771 241.976L135.913 254.376C135.261 255.509 134.574 256.638 133.856 257.75C130.123 263.534 125.639 268.789 120.524 273.375L81.1504 280.501L103.268 233.643L147.178 225.471C147.057 226.002 146.811 226.992 146.71 227.415C146.03 230.187 145.156 232.908 144.095 235.556Z" fill="#6C8BAB"/>
<path d="M80.0996 283.114L103.265 233.658L59.0395 188.607L35.874 238.064L80.0996 283.114Z" fill="#546E88"/>
<path d="M65.1187 271.504L88.4784 218.635L74.8753 204.619L51.5156 257.492L65.1187 271.504Z" fill="#0C151E"/>
<path d="M103.604 281.5C85.5684 293.701 38.7316 302 0 302C0 302 17.5 297 22 279C22 273 22.9945 245.41 22.9945 245.41C29.8966 225.53 56.7698 213.417 46.1183 247.204C57.7513 231.307 56.9015 251.771 53.9465 261.705C64.591 247.596 66.9565 262.104 64.591 267.468C71.6873 260.125 71.8746 270.056 71.6873 271.046C77.9964 263.702 79.5745 270.846 79.1791 274.431C84.6973 262.702 92.1891 273.434 91.9914 278.008C96.1638 269.283 102.075 274.636 103.604 281.5Z" fill="#ABEFD9"/>
<path d="M11.7393 39.3888H20.3652V105.218H32.0988V82.5649H45.8753V4.28018H57.5672V0H66.5539V3.77665H79.0401V7.04968H76.5463V90.2405H90.0488V124.244H103.922V70.609C103.922 70.609 112.51 70.2313 112.51 70.609V84.2014H120.488V187.657H2V39.3888H11.7393Z" fill="#A3C4D8"/>
<rect x="43.7129" y="100.702" width="14.2379" height="14.2379" fill="#CBE0EC"/>
<rect x="65.4082" y="121.042" width="14.2379" height="14.2379" fill="#CBE0EC"/>
<path d="M142 256C136.192 264.962 117.502 276.475 107.5 280.5C104.052 282.836 97.0927 285.01 93 287C90.4715 284.056 91.786 279.453 92.0323 273.697C92.726 257.503 99.7217 256.803 105.042 270.221C105.042 265.252 107.213 254.023 116.488 263.363C116.758 253.488 133.391 249.779 142 256Z" fill="#56DFB4"/>
<path d="M147.272 225.092L147.185 225.49L103.265 233.659L88.5101 218.622L85.4648 215.524L74.8411 204.705L59.0391 188.619L100.962 181.017L105.439 180.209L120.856 195.924L124.928 200.068L133.211 208.506C133.211 208.506 144.455 221.661 147.272 225.092Z" fill="#6C8BAB"/>
<path d="M133.232 208.491L88.4791 218.636L74.876 204.62L120.999 195.889L133.232 208.491Z" fill="#0C151E"/>
</svg>
