<svg width="250" height="250" viewBox="0 0 250 250" fill="none" xmlns="http://www.w3.org/2000/svg">
<mask id="mask0_1819_11852" style="mask-type:alpha" maskUnits="userSpaceOnUse" x="0" y="0" width="250" height="250">
<circle cx="125" cy="125" r="125" fill="#C4C4C4"/>
</mask>
<g mask="url(#mask0_1819_11852)">
<path opacity="0.1" d="M318.01 157.137C318.01 157.137 371.408 120.202 362.814 40.8298C354.22 -38.5423 287.433 -107.918 220.625 -137.217C153.818 -166.516 100.173 -110.865 48.3879 -96.7431C-3.39696 -82.6213 -40.8981 -115.598 -90.8423 -70.6536C-140.787 -25.7091 -139.658 27.3313 -117.964 71.3904C-96.27 115.45 -58.0926 141.741 -36.5651 179.845C-15.0378 217.949 11.4157 273.653 76.5685 310.443C141.721 347.234 208.788 310.043 249.418 264.916C290.047 219.789 287.249 181.97 318.01 157.137Z" fill="#06E7ED"/>
<path opacity="0.1" d="M327.232 -25.1724C327.232 -25.1724 332.035 -89.9219 264.878 -133.093C197.72 -176.263 101.787 -167.875 37.0247 -134.296C-27.7376 -100.718 -18.1327 -24.0198 -39.6732 25.1443C-61.2137 74.3083 -110.429 82.7734 -106.83 149.866C-103.232 216.96 -61.2521 249.398 -13.3431 260.194C34.5659 270.99 79.0044 257.799 122.175 264.984C165.346 272.168 225.306 286.576 294.857 258.99C364.409 231.405 377.6 155.86 368.008 95.9C358.416 35.9401 327.232 14.3612 327.232 -25.1724Z" fill="#06E7ED"/>
<path d="M125.815 115.766V-1.45181H170.42V-50.7695" stroke="#333333" stroke-miterlimit="10"/>
<path d="M129.145 134.45H334.509V105.251H373.761" stroke="#333333" stroke-miterlimit="10"/>
<path d="M119.079 133.439H-76.2073V102.242H-118.481" stroke="#333333" stroke-miterlimit="10"/>
<path d="M85.8591 -81.9795V-37.6819H60.6943V-9.50766H91.9037V85.1194" stroke="#333333" stroke-miterlimit="10"/>
<path d="M223.771 48.8767V-14.541H240.88V-41.7163H254.98" stroke="#333333" stroke-miterlimit="10"/>
<path d="M16.4085 42.8452V-5.47366L2.30859 -19.5736V-54.8042" stroke="#333333" stroke-miterlimit="10"/>
<path d="M91.857 206.535V232.712H74.7475V261.91H25.417" stroke="#333333" stroke-miterlimit="10"/>
<path d="M142.473 225.861V253.037H181.724V241.972H192.802V265.113H227.034" stroke="#333333" stroke-miterlimit="10"/>
<path d="M126.225 29.3086C112.574 42.1151 77.5606 54.9216 36.8232 82.1865C36.8232 82.1865 39.3845 174.393 126.225 224.735V29.3086Z" fill="#06E7ED" stroke="#333333" stroke-linecap="round" stroke-linejoin="round"/>
<path d="M126.225 29.3086C139.889 42.1151 174.889 54.9216 215.639 82.1865C215.639 82.1865 213.078 174.393 126.225 224.735V29.3086Z" fill="#333333" stroke="#333333" stroke-linecap="round" stroke-linejoin="round"/>
<path d="M126.224 37.1592C109.704 48.6082 81.158 59.5065 43.3789 84.7865C43.3789 84.7865 45.7481 170.206 126.224 216.898C206.713 170.206 209.082 84.7865 209.082 84.7865C171.303 59.5065 142.847 48.6082 126.224 37.1592Z" fill="#333333" stroke="#333333" stroke-linecap="round" stroke-linejoin="round"/>
<path d="M209.082 84.7865C171.303 59.5193 142.847 48.6082 126.225 37.1592V216.898C206.713 170.206 209.082 84.7865 209.082 84.7865Z" fill="#06E7ED" stroke="#333333" stroke-linecap="round" stroke-linejoin="round"/>
<path d="M277.75 130.006H-26.1221V149.677H277.75V130.006Z" fill="#333333" stroke="#333333" stroke-linecap="round" stroke-linejoin="round"/>
<path d="M3.80745 133.13C3.81508 133.535 3.70218 133.932 3.48312 134.272C3.26407 134.612 2.94879 134.879 2.57745 135.039C2.20611 135.199 1.79553 135.245 1.39805 135.17C1.00056 135.096 0.634149 134.905 0.345521 134.622C0.0568937 134.339 -0.140884 133.976 -0.222617 133.58C-0.30435 133.184 -0.266326 132.773 -0.113402 132.399C0.0395219 132.024 0.300421 131.704 0.636059 131.479C0.971697 131.253 1.36687 131.133 1.77122 131.132C2.03633 131.129 2.29949 131.178 2.54556 131.277C2.79162 131.376 3.01574 131.522 3.20499 131.708C3.39425 131.893 3.54491 132.115 3.6483 132.359C3.7517 132.603 3.80578 132.865 3.80745 133.13Z" fill="white"/>
<path d="M0.592773 134.232C0.817501 134.464 1.10597 134.625 1.42188 134.694C1.7378 134.763 2.06706 134.737 2.36822 134.619C2.66938 134.502 2.92899 134.298 3.1144 134.033C3.29981 133.768 3.40272 133.454 3.41019 133.131C3.40587 132.746 3.25995 132.377 3.00038 132.093C2.15034 132.751 1.34596 133.465 0.592773 134.232Z" fill="#333333"/>
<path d="M11.785 133.13C11.7926 133.535 11.6797 133.932 11.4607 134.272C11.2416 134.612 10.9263 134.879 10.555 135.039C10.1837 135.199 9.77307 135.245 9.37558 135.17C8.9781 135.096 8.61171 134.905 8.32308 134.622C8.03445 134.339 7.83665 133.976 7.75492 133.58C7.67319 133.184 7.71121 132.773 7.86414 132.399C8.01706 132.024 8.27796 131.704 8.6136 131.479C8.94924 131.253 9.34441 131.133 9.74876 131.132C10.0139 131.129 10.277 131.178 10.5231 131.277C10.7692 131.376 10.9933 131.522 11.1825 131.708C11.3718 131.893 11.5224 132.115 11.6258 132.359C11.7292 132.603 11.7833 132.865 11.785 133.13Z" fill="white"/>
<path d="M8.5332 134.232C8.6865 134.389 8.86966 134.515 9.07197 134.6C9.27428 134.686 9.49166 134.731 9.7114 134.731C9.92437 134.735 10.1359 134.696 10.3338 134.617C10.5317 134.538 10.7121 134.421 10.8645 134.272C11.0168 134.124 11.1383 133.946 11.2217 133.75C11.3052 133.554 11.349 133.344 11.3506 133.131C11.3463 132.746 11.2004 132.377 10.9408 132.093C10.0935 132.754 9.28933 133.468 8.5332 134.232Z" fill="#333333"/>
<path d="M19.7645 133.13C19.7721 133.535 19.6592 133.932 19.4401 134.272C19.2211 134.612 18.9058 134.879 18.5345 135.039C18.1631 135.199 17.7526 135.245 17.3551 135.17C16.9576 135.096 16.5912 134.905 16.3026 134.622C16.0139 134.339 15.8162 133.976 15.7344 133.58C15.6527 133.184 15.6907 132.773 15.8436 132.399C15.9965 132.024 16.2575 131.704 16.5931 131.479C16.9287 131.253 17.3239 131.133 17.7282 131.132C17.9934 131.129 18.2565 131.178 18.5026 131.277C18.7487 131.376 18.9728 131.522 19.162 131.708C19.3513 131.893 19.5019 132.115 19.6053 132.359C19.7087 132.603 19.7628 132.865 19.7645 133.13Z" fill="white"/>
<path d="M16.5625 134.232C16.7854 134.466 17.0732 134.629 17.389 134.699C17.7048 134.769 18.0342 134.743 18.3353 134.625C18.6364 134.507 18.8953 134.301 19.0791 134.035C19.2629 133.769 19.3632 133.454 19.3671 133.131C19.3628 132.746 19.2169 132.377 18.9573 132.093C18.1113 132.751 17.3111 133.465 16.5625 134.232Z" fill="#333333"/>
<path d="M27.7429 133.13C27.7531 133.538 27.6417 133.939 27.4228 134.282C27.2039 134.626 26.8876 134.897 26.5142 135.059C26.1408 135.222 25.7273 135.27 25.3265 135.197C24.9257 135.124 24.5558 134.933 24.2641 134.649C23.9724 134.364 23.7721 133.999 23.6888 133.6C23.6055 133.202 23.643 132.787 23.7964 132.41C23.9499 132.032 24.2124 131.709 24.5504 131.482C24.8884 131.254 25.2865 131.133 25.6939 131.132C25.9596 131.129 26.2234 131.178 26.4702 131.277C26.717 131.375 26.9419 131.521 27.1322 131.707C27.3225 131.892 27.4744 132.114 27.5792 132.358C27.684 132.602 27.7396 132.865 27.7429 133.13Z" fill="white"/>
<path d="M24.54 134.232C24.763 134.466 25.0507 134.629 25.3665 134.699C25.6823 134.769 26.0118 134.743 26.3128 134.625C26.6139 134.507 26.8729 134.301 27.0567 134.035C27.2405 133.769 27.3407 133.454 27.3447 133.131C27.3403 132.746 27.1944 132.377 26.9348 132.093C26.0915 132.754 25.2916 133.468 24.54 134.232Z" fill="#333333"/>
<path d="M35.7342 133.13C35.7418 133.535 35.6289 133.932 35.4099 134.272C35.1908 134.612 34.8755 134.879 34.5042 135.039C34.1329 135.199 33.7223 135.245 33.3248 135.17C32.9273 135.096 32.5609 134.905 32.2723 134.622C31.9837 134.339 31.7859 133.976 31.7041 133.58C31.6224 133.184 31.6604 132.773 31.8133 132.399C31.9663 132.024 32.2272 131.704 32.5628 131.479C32.8985 131.253 33.2936 131.133 33.698 131.132C33.9631 131.129 34.2263 131.178 34.4723 131.277C34.7184 131.376 34.9425 131.522 35.1317 131.708C35.321 131.893 35.4717 132.115 35.575 132.359C35.6784 132.603 35.7325 132.865 35.7342 133.13Z" fill="white"/>
<path d="M32.5195 134.232C32.6724 134.39 32.8555 134.516 33.0579 134.601C33.2603 134.687 33.4779 134.731 33.6977 134.731C33.9096 134.733 34.1198 134.693 34.3162 134.613C34.5126 134.534 34.6915 134.417 34.8425 134.268C34.9935 134.119 35.1138 133.942 35.1964 133.747C35.2791 133.552 35.3225 133.343 35.3242 133.131C35.3248 132.745 35.1782 132.374 34.9144 132.093C34.0711 132.754 33.2711 133.468 32.5195 134.232Z" fill="#333333"/>
<path d="M43.7117 133.13C43.7194 133.535 43.6065 133.932 43.3874 134.272C43.1683 134.612 42.8531 134.879 42.4817 135.039C42.1104 135.199 41.6998 135.245 41.3023 135.17C40.9049 135.096 40.5384 134.905 40.2498 134.622C39.9612 134.339 39.7634 133.976 39.6817 133.58C39.5999 133.184 39.638 132.773 39.7909 132.399C39.9438 132.024 40.2047 131.704 40.5404 131.479C40.876 131.253 41.2712 131.133 41.6755 131.132C41.9406 131.129 42.2038 131.178 42.4499 131.277C42.6959 131.376 42.92 131.522 43.1093 131.708C43.2985 131.893 43.4492 132.115 43.5526 132.359C43.656 132.603 43.7101 132.865 43.7117 133.13Z" fill="white"/>
<path d="M40.5488 134.232C40.7736 134.464 41.062 134.625 41.3779 134.694C41.6939 134.763 42.0231 134.737 42.3243 134.619C42.6254 134.502 42.885 134.298 43.0705 134.033C43.2559 133.768 43.3588 133.454 43.3662 133.131C43.3619 132.746 43.216 132.377 42.9565 132.093C42.1091 132.754 41.305 133.468 40.5488 134.232Z" fill="#333333"/>
<path d="M51.6912 133.13C51.6989 133.535 51.586 133.932 51.3669 134.272C51.1479 134.612 50.8326 134.879 50.4612 135.039C50.0899 135.199 49.6793 135.245 49.2818 135.17C48.8843 135.096 48.5179 134.905 48.2293 134.622C47.9407 134.339 47.7429 133.976 47.6612 133.58C47.5794 133.184 47.6175 132.773 47.7704 132.399C47.9233 132.024 48.1842 131.704 48.5198 131.479C48.8555 131.253 49.2507 131.133 49.655 131.132C49.9201 131.129 50.1833 131.178 50.4293 131.277C50.6754 131.376 50.8995 131.522 51.0888 131.708C51.278 131.893 51.4287 132.115 51.5321 132.359C51.6355 132.603 51.6896 132.865 51.6912 133.13Z" fill="white"/>
<path d="M48.4756 134.232C48.6289 134.389 48.812 134.515 49.0144 134.6C49.2167 134.686 49.434 134.731 49.6538 134.731C49.8668 134.735 50.0783 134.696 50.2762 134.617C50.4741 134.538 50.6544 134.421 50.8068 134.272C50.9592 134.124 51.0806 133.946 51.1641 133.75C51.2475 133.554 51.2913 133.344 51.293 133.131C51.2887 132.746 51.1428 132.377 50.8832 132.093C50.0359 132.754 49.2317 133.468 48.4756 134.232Z" fill="#333333"/>
<path d="M59.6697 133.13C59.6774 133.535 59.5645 133.932 59.3454 134.272C59.1264 134.612 58.8111 134.879 58.4397 135.039C58.0684 135.199 57.6578 135.245 57.2603 135.17C56.8628 135.096 56.4965 134.905 56.2078 134.622C55.9192 134.339 55.7214 133.976 55.6397 133.58C55.558 133.184 55.596 132.773 55.7489 132.399C55.9018 132.024 56.1627 131.704 56.4983 131.479C56.834 131.253 57.2292 131.133 57.6335 131.132C57.8986 131.129 58.1618 131.178 58.4078 131.277C58.6539 131.376 58.878 131.522 59.0673 131.708C59.2565 131.893 59.4072 132.115 59.5106 132.359C59.614 132.603 59.6681 132.865 59.6697 133.13Z" fill="white"/>
<path d="M56.4688 134.232C56.6917 134.466 56.9795 134.629 57.2952 134.699C57.611 134.769 57.9405 134.743 58.2416 134.625C58.5426 134.507 58.8016 134.301 58.9854 134.035C59.1692 133.769 59.2694 133.454 59.2734 133.131C59.269 132.746 59.1231 132.377 58.8636 132.093C58.0203 132.754 57.2203 133.468 56.4688 134.232Z" fill="#333333"/>
<path d="M67.6609 133.13C67.6711 133.538 67.5593 133.94 67.3399 134.284C67.1204 134.628 66.8033 134.898 66.4292 135.061C66.055 135.223 65.6408 135.271 65.2397 135.196C64.8385 135.122 64.4687 134.93 64.1775 134.644C63.8863 134.358 63.687 133.992 63.6051 133.593C63.5233 133.193 63.5626 132.778 63.7181 132.401C63.8735 132.024 64.138 131.701 64.4777 131.475C64.8173 131.249 65.2167 131.13 65.6247 131.132C65.8898 131.129 66.1529 131.178 66.399 131.277C66.6451 131.376 66.8692 131.522 67.0585 131.708C67.2477 131.893 67.3984 132.115 67.5018 132.359C67.6052 132.603 67.6592 132.865 67.6609 133.13Z" fill="white"/>
<path d="M64.4463 134.232C64.6692 134.466 64.957 134.629 65.2728 134.699C65.5885 134.769 65.918 134.743 66.2191 134.625C66.5202 134.507 66.7791 134.301 66.9629 134.035C67.1467 133.769 67.247 133.454 67.2509 133.131C67.2516 132.745 67.105 132.374 66.8411 132.093C65.9978 132.754 65.1979 133.468 64.4463 134.232Z" fill="#333333"/>
<path d="M75.6395 133.13C75.6471 133.535 75.5342 133.932 75.3152 134.272C75.0961 134.612 74.7808 134.879 74.4095 135.039C74.0381 135.199 73.6276 135.245 73.2301 135.17C72.8326 135.096 72.4662 134.905 72.1776 134.622C71.8889 134.339 71.6911 133.976 71.6094 133.58C71.5277 133.184 71.5657 132.773 71.7186 132.399C71.8716 132.024 72.1325 131.704 72.4681 131.479C72.8037 131.253 73.1989 131.133 73.6033 131.132C73.8684 131.129 74.1315 131.178 74.3776 131.277C74.6237 131.376 74.8478 131.522 75.037 131.708C75.2263 131.893 75.3769 132.115 75.4803 132.359C75.5837 132.603 75.6378 132.865 75.6395 133.13Z" fill="white"/>
<path d="M72.4248 134.232C72.6495 134.464 72.938 134.625 73.2539 134.694C73.5698 134.763 73.8991 134.737 74.2003 134.619C74.5014 134.502 74.761 134.298 74.9464 134.033C75.1318 133.768 75.2347 133.454 75.2422 133.131C75.2379 132.746 75.092 132.377 74.8324 132.093C73.9824 132.751 73.178 133.465 72.4248 134.232Z" fill="#333333"/>
<path d="M83.617 133.13C83.6247 133.535 83.5117 133.932 83.2927 134.272C83.0736 134.612 82.7583 134.879 82.387 135.039C82.0157 135.199 81.6051 135.245 81.2076 135.17C80.8101 135.096 80.4437 134.905 80.1551 134.622C79.8665 134.339 79.6687 133.976 79.587 133.58C79.5052 133.184 79.5432 132.773 79.6962 132.399C79.8491 132.024 80.11 131.704 80.4456 131.479C80.7813 131.253 81.1764 131.133 81.5808 131.132C81.8459 131.129 82.1091 131.178 82.3551 131.277C82.6012 131.376 82.8253 131.522 83.0146 131.708C83.2038 131.893 83.3545 132.115 83.4579 132.359C83.5613 132.603 83.6154 132.865 83.617 133.13Z" fill="white"/>
<path d="M80.4023 134.232C80.5556 134.389 80.7388 134.515 80.9411 134.6C81.1434 134.686 81.3608 134.731 81.5805 134.731C81.7935 134.735 82.0051 134.696 82.203 134.617C82.4009 134.538 82.5812 134.421 82.7336 134.272C82.886 134.124 83.0074 133.946 83.0909 133.75C83.1743 133.554 83.2181 133.344 83.2198 133.131C83.2155 132.746 83.0695 132.377 82.81 132.093C81.9627 132.754 81.1585 133.468 80.4023 134.232Z" fill="#333333"/>
<path d="M3.80717 145.823C3.81736 146.227 3.70664 146.626 3.48918 146.967C3.27172 147.309 2.95738 147.578 2.58632 147.74C2.21526 147.902 1.80434 147.95 1.40604 147.877C1.00773 147.804 0.640128 147.614 0.350209 147.332C0.0602904 147.049 -0.138793 146.687 -0.221603 146.29C-0.304413 145.894 -0.267191 145.482 -0.114694 145.107C0.0378031 144.732 0.298657 144.411 0.634532 144.185C0.970408 143.959 1.36606 143.838 1.77095 143.838C2.03499 143.834 2.29712 143.883 2.54235 143.981C2.78759 144.079 3.01114 144.224 3.20022 144.408C3.38931 144.593 3.54023 144.812 3.64437 145.055C3.74852 145.298 3.80383 145.559 3.80717 145.823Z" fill="white"/>
<path d="M0.592773 146.936C0.818274 147.169 1.1079 147.33 1.42497 147.399C1.74205 147.467 2.07232 147.44 2.37399 147.321C2.67565 147.202 2.93512 146.995 3.11958 146.729C3.30404 146.462 3.40518 146.146 3.41019 145.822C3.40275 145.442 3.25704 145.078 3.00038 144.797C2.15034 145.455 1.34596 146.169 0.592773 146.936Z" fill="#333333"/>
<path d="M11.7866 145.823C11.7968 146.227 11.6861 146.626 11.4687 146.967C11.2512 147.309 10.9369 147.578 10.5658 147.74C10.1948 147.902 9.78381 147.95 9.38551 147.877C8.9872 147.804 8.61962 147.614 8.3297 147.332C8.03978 147.049 7.8407 146.687 7.75789 146.29C7.67508 145.894 7.7123 145.482 7.8648 145.107C8.0173 144.732 8.27813 144.411 8.61401 144.185C8.94988 143.959 9.34554 143.838 9.75042 143.838C10.0145 143.834 10.2766 143.883 10.5218 143.981C10.7671 144.079 10.9906 144.224 11.1797 144.408C11.3688 144.593 11.5197 144.812 11.6238 145.055C11.728 145.298 11.7833 145.559 11.7866 145.823Z" fill="white"/>
<path d="M8.5332 146.936C8.6865 147.093 8.86966 147.219 9.07197 147.304C9.27428 147.39 9.49166 147.435 9.7114 147.435C9.92498 147.437 10.1368 147.397 10.3348 147.317C10.5328 147.236 10.713 147.118 10.8652 146.968C11.0174 146.818 11.1387 146.64 11.2219 146.443C11.3052 146.247 11.3489 146.035 11.3506 145.822C11.3432 145.442 11.1975 145.078 10.9408 144.797C10.0935 145.458 9.28933 146.173 8.5332 146.936Z" fill="#333333"/>
<path d="M19.7642 145.823C19.7744 146.227 19.6637 146.626 19.4462 146.967C19.2287 147.309 18.9144 147.578 18.5434 147.74C18.1723 147.902 17.7614 147.95 17.363 147.877C16.9647 147.804 16.5972 147.614 16.3072 147.332C16.0173 147.049 15.8182 146.687 15.7354 146.29C15.6526 145.894 15.6898 145.482 15.8423 145.107C15.9948 144.732 16.2557 144.411 16.5916 144.185C16.9274 143.959 17.3231 143.838 17.728 143.838C17.992 143.834 18.2541 143.883 18.4994 143.981C18.7446 144.079 18.9681 144.224 19.1572 144.408C19.3463 144.593 19.4972 144.812 19.6014 145.055C19.7055 145.298 19.7609 145.559 19.7642 145.823Z" fill="white"/>
<path d="M16.5625 146.936C16.7125 147.094 16.8932 147.22 17.0936 147.306C17.294 147.392 17.5098 147.436 17.7279 147.435C17.9415 147.437 18.1533 147.397 18.3513 147.317C18.5492 147.236 18.7295 147.118 18.8817 146.968C19.0339 146.818 19.1551 146.64 19.2384 146.443C19.3217 146.247 19.3654 146.035 19.3671 145.822C19.3597 145.442 19.214 145.078 18.9573 144.797C18.1113 145.455 17.3111 146.169 16.5625 146.936Z" fill="#333333"/>
<path d="M27.7426 145.823C27.7553 146.23 27.6461 146.633 27.4288 146.978C27.2115 147.323 26.8962 147.596 26.5231 147.761C26.1499 147.926 25.7361 147.975 25.3345 147.904C24.9329 147.832 24.5618 147.642 24.2688 147.358C23.9758 147.074 23.7742 146.71 23.6898 146.31C23.6054 145.911 23.6421 145.496 23.7951 145.118C23.9482 144.74 24.2106 144.416 24.5488 144.188C24.887 143.96 25.2856 143.838 25.6935 143.838C26.228 143.831 26.7435 144.036 27.1274 144.408C27.5113 144.779 27.7325 145.288 27.7426 145.823Z" fill="white"/>
<path d="M24.54 146.936C24.69 147.094 24.8708 147.22 25.0712 147.306C25.2716 147.392 25.4874 147.436 25.7054 147.435C25.919 147.437 26.1308 147.397 26.3288 147.317C26.5268 147.236 26.707 147.118 26.8592 146.968C27.0115 146.818 27.1327 146.64 27.216 146.443C27.2992 146.247 27.343 146.035 27.3447 145.822C27.3372 145.442 27.1915 145.078 26.9348 144.797C26.0915 145.458 25.2916 146.173 24.54 146.936Z" fill="#333333"/>
<path d="M35.7339 145.823C35.7441 146.227 35.6334 146.626 35.4159 146.967C35.1985 147.309 34.8841 147.578 34.5131 147.74C34.142 147.902 33.7311 147.95 33.3328 147.877C32.9345 147.804 32.5669 147.614 32.277 147.332C31.987 147.049 31.788 146.687 31.7052 146.29C31.6223 145.894 31.6596 145.482 31.8121 145.107C31.9646 144.732 32.2254 144.411 32.5613 144.185C32.8972 143.959 33.2928 143.838 33.6977 143.838C33.9617 143.834 34.2239 143.883 34.4691 143.981C34.7143 144.079 34.9379 144.224 35.127 144.408C35.316 144.593 35.467 144.812 35.5711 145.055C35.6753 145.298 35.7306 145.559 35.7339 145.823Z" fill="white"/>
<path d="M32.5195 146.936C32.7432 147.171 33.0322 147.334 33.3491 147.403C33.6661 147.473 33.9966 147.446 34.2982 147.326C34.5998 147.207 34.8586 146.999 35.0415 146.731C35.2243 146.463 35.3227 146.146 35.3242 145.822C35.3228 145.441 35.1763 145.074 34.9144 144.797C34.0711 145.458 33.2711 146.173 32.5195 146.936Z" fill="#333333"/>
<path d="M43.7134 145.823C43.7236 146.227 43.6129 146.626 43.3954 146.967C43.178 147.309 42.8636 147.578 42.4926 147.74C42.1215 147.902 41.7106 147.95 41.3123 147.877C40.914 147.804 40.5464 147.614 40.2565 147.332C39.9665 147.049 39.7675 146.687 39.6846 146.29C39.6018 145.894 39.6391 145.482 39.7916 145.107C39.9441 144.732 40.2049 144.411 40.5408 144.185C40.8767 143.959 41.2723 143.838 41.6772 143.838C41.9412 143.834 42.2034 143.883 42.4486 143.981C42.6938 144.079 42.9174 144.224 43.1065 144.408C43.2955 144.593 43.4465 144.812 43.5506 145.055C43.6547 145.298 43.7101 145.559 43.7134 145.823Z" fill="white"/>
<path d="M40.5488 146.936C40.7743 147.169 41.064 147.33 41.381 147.399C41.6981 147.467 42.0284 147.44 42.33 147.321C42.6317 147.202 42.8912 146.995 43.0756 146.729C43.2601 146.462 43.3612 146.146 43.3662 145.822C43.3588 145.442 43.2131 145.078 42.9565 144.797C42.1091 145.458 41.305 146.173 40.5488 146.936Z" fill="#333333"/>
<path d="M51.691 145.823C51.7011 146.227 51.5904 146.626 51.373 146.967C51.1555 147.309 50.8412 147.578 50.4701 147.74C50.099 147.902 49.6881 147.95 49.2898 147.877C48.8915 147.804 48.5239 147.614 48.234 147.332C47.9441 147.049 47.745 146.687 47.6622 146.29C47.5794 145.894 47.6166 145.482 47.7691 145.107C47.9216 144.732 48.1824 144.411 48.5183 144.185C48.8542 143.959 49.2499 143.838 49.6547 143.838C49.9188 143.834 50.1809 143.883 50.4261 143.981C50.6714 144.079 50.8949 144.224 51.084 144.408C51.2731 144.593 51.424 144.812 51.5282 145.055C51.6323 145.298 51.6876 145.559 51.691 145.823Z" fill="white"/>
<path d="M48.4756 146.936C48.6289 147.093 48.812 147.219 49.0144 147.304C49.2167 147.39 49.434 147.435 49.6538 147.435C49.8674 147.437 50.0792 147.397 50.2772 147.317C50.4751 147.236 50.6554 147.118 50.8076 146.968C50.9598 146.818 51.081 146.64 51.1643 146.443C51.2476 146.247 51.2913 146.035 51.293 145.822C51.2856 145.442 51.1399 145.078 50.8832 144.797C50.0359 145.458 49.2317 146.173 48.4756 146.936Z" fill="#333333"/>
<path d="M59.6695 145.823C59.6796 146.227 59.5689 146.626 59.3515 146.967C59.134 147.309 58.8197 147.578 58.4486 147.74C58.0776 147.902 57.6666 147.95 57.2683 147.877C56.87 147.804 56.5024 147.614 56.2125 147.332C55.9226 147.049 55.7235 146.687 55.6407 146.29C55.5579 145.894 55.5951 145.482 55.7476 145.107C55.9001 144.732 56.1609 144.411 56.4968 144.185C56.8327 143.959 57.2283 143.838 57.6332 143.838C57.8973 143.834 58.1594 143.883 58.4046 143.981C58.6499 144.079 58.8734 144.224 59.0625 144.408C59.2516 144.593 59.4025 144.812 59.5067 145.055C59.6108 145.298 59.6661 145.559 59.6695 145.823Z" fill="white"/>
<path d="M56.4688 146.936C56.6188 147.094 56.7995 147.22 56.9999 147.306C57.2003 147.392 57.4161 147.436 57.6341 147.435C57.8477 147.437 58.0596 147.397 58.2575 147.317C58.4555 147.236 58.6358 147.118 58.788 146.968C58.9402 146.818 59.0614 146.64 59.1447 146.443C59.228 146.247 59.2717 146.035 59.2734 145.822C59.2659 145.442 59.1202 145.078 58.8636 144.797C58.0203 145.458 57.2203 146.173 56.4688 146.936Z" fill="#333333"/>
<path d="M67.6605 145.823C67.6733 146.231 67.5637 146.634 67.3459 146.979C67.1281 147.325 66.8119 147.597 66.4381 147.762C66.0642 147.927 65.6497 147.976 65.2477 147.903C64.8458 147.83 64.4747 147.639 64.1822 147.354C63.8897 147.069 63.6891 146.703 63.6062 146.303C63.5232 145.903 63.5617 145.487 63.7167 145.109C63.8717 144.731 64.1362 144.408 64.4761 144.182C64.816 143.955 65.2158 143.835 65.6243 143.838C65.8884 143.834 66.1505 143.883 66.3957 143.981C66.641 144.079 66.8645 144.224 67.0536 144.408C67.2427 144.593 67.3936 144.812 67.4978 145.055C67.6019 145.298 67.6572 145.559 67.6605 145.823Z" fill="white"/>
<path d="M64.4463 146.936C64.67 147.171 64.9589 147.334 65.2759 147.403C65.5928 147.473 65.9234 147.446 66.225 147.326C66.5265 147.207 66.7854 146.999 66.9682 146.731C67.1511 146.463 67.2495 146.146 67.2509 145.822C67.2496 145.441 67.103 145.074 66.8411 144.797C65.9978 145.458 65.1979 146.173 64.4463 146.936Z" fill="#333333"/>
<path d="M75.6392 145.823C75.6494 146.227 75.5387 146.626 75.3212 146.967C75.1037 147.309 74.7894 147.578 74.4184 147.74C74.0473 147.902 73.6364 147.95 73.238 147.877C72.8397 147.804 72.4722 147.614 72.1822 147.332C71.8923 147.049 71.6932 146.687 71.6104 146.29C71.5276 145.894 71.5648 145.482 71.7173 145.107C71.8698 144.732 72.1307 144.411 72.4665 144.185C72.8024 143.959 73.1981 143.838 73.603 143.838C73.867 143.834 74.1291 143.883 74.3744 143.981C74.6196 144.079 74.8431 144.224 75.0322 144.408C75.2213 144.593 75.3722 144.812 75.4764 145.055C75.5805 145.298 75.6358 145.559 75.6392 145.823Z" fill="white"/>
<path d="M72.4248 146.936C72.6503 147.169 72.9399 147.33 73.257 147.399C73.5741 147.467 73.9044 147.44 74.206 147.321C74.5077 147.202 74.7672 146.995 74.9516 146.729C75.1361 146.462 75.2372 146.146 75.2422 145.822C75.2348 145.442 75.0891 145.078 74.8324 144.797C73.9824 145.455 73.178 146.169 72.4248 146.936Z" fill="#333333"/>
<path d="M83.6167 145.823C83.6269 146.227 83.5162 146.626 83.2987 146.967C83.0813 147.309 82.7669 147.578 82.3959 147.74C82.0248 147.902 81.6139 147.95 81.2156 147.877C80.8173 147.804 80.4497 147.614 80.1598 147.332C79.8699 147.049 79.6708 146.687 79.588 146.29C79.5052 145.894 79.5424 145.482 79.6949 145.107C79.8474 144.732 80.1082 144.411 80.4441 144.185C80.78 143.959 81.1756 143.838 81.5805 143.838C81.8445 143.834 82.1067 143.883 82.3519 143.981C82.5971 144.079 82.8207 144.224 83.0098 144.408C83.1989 144.593 83.3498 144.812 83.4539 145.055C83.5581 145.298 83.6134 145.559 83.6167 145.823Z" fill="white"/>
<path d="M80.4023 146.936C80.5556 147.093 80.7388 147.219 80.9411 147.304C81.1434 147.39 81.3608 147.435 81.5805 147.435C81.7941 147.437 82.006 147.397 82.2039 147.317C82.4019 147.236 82.5821 147.118 82.7344 146.968C82.8866 146.818 83.0078 146.64 83.0911 146.443C83.1744 146.247 83.2181 146.035 83.2198 145.822C83.2123 145.442 83.0666 145.078 82.81 144.797C81.9627 145.458 81.1585 146.173 80.4023 146.936Z" fill="#333333"/>
<path d="M172.047 133.13C172.054 133.535 171.941 133.932 171.722 134.272C171.503 134.612 171.188 134.879 170.817 135.039C170.445 135.199 170.035 135.245 169.637 135.17C169.24 135.096 168.873 134.905 168.585 134.622C168.296 134.339 168.098 133.976 168.017 133.58C167.935 133.184 167.973 132.773 168.126 132.399C168.279 132.024 168.54 131.704 168.875 131.479C169.211 131.253 169.606 131.133 170.01 131.132C170.276 131.129 170.539 131.178 170.785 131.277C171.031 131.376 171.255 131.522 171.444 131.708C171.633 131.893 171.784 132.115 171.888 132.359C171.991 132.603 172.045 132.865 172.047 133.13Z" fill="white"/>
<path d="M168.845 134.232C169.068 134.466 169.355 134.629 169.671 134.699C169.987 134.769 170.316 134.743 170.618 134.625C170.919 134.507 171.178 134.301 171.361 134.035C171.545 133.769 171.645 133.454 171.649 133.131C171.645 132.746 171.499 132.377 171.24 132.093C170.396 132.754 169.596 133.468 168.845 134.232Z" fill="#333333"/>
<path d="M180.038 133.13C180.048 133.538 179.936 133.94 179.717 134.284C179.497 134.628 179.18 134.898 178.806 135.061C178.432 135.223 178.018 135.271 177.617 135.196C177.216 135.122 176.846 134.93 176.554 134.644C176.263 134.358 176.064 133.992 175.982 133.593C175.9 133.193 175.94 132.778 176.095 132.401C176.25 132.024 176.515 131.701 176.855 131.475C177.194 131.249 177.594 131.13 178.002 131.132C178.267 131.129 178.53 131.178 178.776 131.277C179.022 131.376 179.246 131.522 179.435 131.708C179.625 131.893 179.775 132.115 179.879 132.359C179.982 132.603 180.036 132.865 180.038 133.13Z" fill="white"/>
<path d="M176.822 134.232C177.045 134.466 177.333 134.629 177.649 134.699C177.965 134.769 178.294 134.743 178.595 134.625C178.896 134.507 179.155 134.301 179.339 134.035C179.523 133.769 179.623 133.454 179.627 133.131C179.628 132.745 179.481 132.374 179.217 132.093C178.374 132.754 177.574 133.468 176.822 134.232Z" fill="#333333"/>
<path d="M188.015 133.13C188.023 133.535 187.91 133.932 187.691 134.272C187.472 134.612 187.157 134.879 186.785 135.039C186.414 135.199 186.004 135.245 185.606 135.17C185.209 135.096 184.842 134.905 184.554 134.622C184.265 134.339 184.067 133.976 183.985 133.58C183.904 133.184 183.942 132.773 184.095 132.399C184.248 132.024 184.508 131.704 184.844 131.479C185.18 131.253 185.575 131.133 185.979 131.132C186.244 131.129 186.507 131.178 186.754 131.277C187 131.376 187.224 131.522 187.413 131.708C187.602 131.893 187.753 132.115 187.856 132.359C187.96 132.603 188.014 132.865 188.015 133.13Z" fill="white"/>
<path d="M184.802 134.232C185.026 134.464 185.315 134.625 185.631 134.694C185.947 134.763 186.276 134.737 186.577 134.619C186.878 134.502 187.138 134.298 187.323 134.033C187.509 133.768 187.612 133.454 187.619 133.131C187.615 132.746 187.469 132.377 187.209 132.093C186.359 132.751 185.555 133.465 184.802 134.232Z" fill="#333333"/>
<path d="M195.994 133.13C196.002 133.535 195.889 133.932 195.67 134.272C195.451 134.612 195.135 134.879 194.764 135.039C194.393 135.199 193.982 135.245 193.585 135.17C193.187 135.096 192.821 134.905 192.532 134.622C192.243 134.339 192.046 133.976 191.964 133.58C191.882 133.184 191.92 132.773 192.073 132.399C192.226 132.024 192.487 131.704 192.823 131.479C193.158 131.253 193.553 131.133 193.958 131.132C194.223 131.129 194.486 131.178 194.732 131.277C194.978 131.376 195.202 131.522 195.392 131.708C195.581 131.893 195.731 132.115 195.835 132.359C195.938 132.603 195.992 132.865 195.994 133.13Z" fill="white"/>
<path d="M192.779 134.232C192.933 134.389 193.116 134.515 193.318 134.6C193.52 134.686 193.738 134.731 193.958 134.731C194.17 134.735 194.382 134.696 194.58 134.617C194.778 134.538 194.958 134.421 195.111 134.272C195.263 134.124 195.384 133.946 195.468 133.75C195.551 133.554 195.595 133.344 195.597 133.131C195.592 132.746 195.446 132.377 195.187 132.093C194.34 132.754 193.535 133.468 192.779 134.232Z" fill="#333333"/>
<path d="M203.973 133.13C203.981 133.535 203.868 133.932 203.649 134.272C203.43 134.612 203.115 134.879 202.743 135.039C202.372 135.199 201.962 135.245 201.564 135.17C201.167 135.096 200.8 134.905 200.512 134.622C200.223 134.339 200.025 133.976 199.943 133.58C199.862 133.184 199.9 132.773 200.053 132.399C200.206 132.024 200.466 131.704 200.802 131.479C201.138 131.253 201.533 131.133 201.937 131.132C202.202 131.129 202.465 131.178 202.712 131.277C202.958 131.376 203.182 131.522 203.371 131.708C203.56 131.893 203.711 132.115 203.814 132.359C203.918 132.603 203.972 132.865 203.973 133.13Z" fill="white"/>
<path d="M200.771 134.232C200.994 134.466 201.282 134.629 201.598 134.699C201.914 134.769 202.243 134.743 202.544 134.625C202.845 134.507 203.104 134.301 203.288 134.035C203.472 133.769 203.572 133.454 203.576 133.131C203.572 132.746 203.426 132.377 203.166 132.093C202.32 132.751 201.52 133.465 200.771 134.232Z" fill="#333333"/>
<path d="M211.964 133.13C211.974 133.538 211.862 133.939 211.643 134.282C211.425 134.626 211.108 134.897 210.735 135.059C210.361 135.222 209.948 135.27 209.547 135.197C209.146 135.124 208.777 134.933 208.485 134.649C208.193 134.364 207.993 133.999 207.91 133.6C207.826 133.202 207.864 132.787 208.017 132.41C208.171 132.032 208.433 131.709 208.771 131.482C209.109 131.254 209.507 131.133 209.915 131.132C210.18 131.129 210.444 131.178 210.691 131.277C210.938 131.375 211.163 131.521 211.353 131.707C211.543 131.892 211.695 132.114 211.8 132.358C211.905 132.602 211.96 132.865 211.964 133.13Z" fill="white"/>
<path d="M208.749 134.232C208.972 134.466 209.26 134.629 209.575 134.699C209.891 134.769 210.221 134.743 210.522 134.625C210.823 134.507 211.082 134.301 211.266 134.035C211.449 133.769 211.55 133.454 211.554 133.131C211.549 132.746 211.403 132.377 211.144 132.093C210.301 132.754 209.501 133.468 208.749 134.232Z" fill="#333333"/>
<path d="M219.943 133.13C219.953 133.538 219.842 133.94 219.622 134.284C219.403 134.628 219.086 134.898 218.711 135.061C218.337 135.223 217.923 135.271 217.522 135.196C217.121 135.122 216.751 134.93 216.46 134.644C216.169 134.358 215.969 133.992 215.887 133.593C215.806 133.193 215.845 132.778 216 132.401C216.156 132.024 216.42 131.701 216.76 131.475C217.1 131.249 217.499 131.13 217.907 131.132C218.172 131.129 218.435 131.178 218.681 131.277C218.927 131.376 219.151 131.522 219.341 131.708C219.53 131.893 219.681 132.115 219.784 132.359C219.887 132.603 219.941 132.865 219.943 133.13Z" fill="white"/>
<path d="M216.729 134.232C216.951 134.466 217.239 134.629 217.555 134.699C217.871 134.769 218.2 134.743 218.501 134.625C218.802 134.507 219.061 134.301 219.245 134.035C219.429 133.769 219.529 133.454 219.533 133.131C219.534 132.745 219.387 132.374 219.123 132.093C218.28 132.754 217.48 133.468 216.729 134.232Z" fill="#333333"/>
<path d="M227.921 133.13C227.928 133.535 227.815 133.932 227.596 134.272C227.377 134.612 227.062 134.879 226.691 135.039C226.319 135.199 225.909 135.245 225.511 135.17C225.114 135.096 224.747 134.905 224.459 134.622C224.17 134.339 223.972 133.976 223.891 133.58C223.809 133.184 223.847 132.773 224 132.399C224.153 132.024 224.414 131.704 224.749 131.479C225.085 131.253 225.48 131.133 225.884 131.132C226.15 131.129 226.413 131.178 226.659 131.277C226.905 131.376 227.129 131.522 227.318 131.708C227.508 131.893 227.658 132.115 227.762 132.359C227.865 132.603 227.919 132.865 227.921 133.13Z" fill="white"/>
<path d="M224.706 134.232C224.931 134.464 225.219 134.625 225.535 134.694C225.851 134.763 226.18 134.737 226.482 134.619C226.783 134.502 227.042 134.298 227.228 134.033C227.413 133.768 227.516 133.454 227.523 133.131C227.519 132.746 227.373 132.377 227.114 132.093C226.264 132.751 225.459 133.465 224.706 134.232Z" fill="#333333"/>
<path d="M235.899 133.13C235.907 133.535 235.794 133.932 235.575 134.272C235.356 134.612 235.041 134.879 234.669 135.039C234.298 135.199 233.887 135.245 233.49 135.17C233.092 135.096 232.726 134.905 232.437 134.622C232.149 134.339 231.951 133.976 231.869 133.58C231.787 133.184 231.825 132.773 231.978 132.399C232.131 132.024 232.392 131.704 232.728 131.479C233.063 131.253 233.459 131.133 233.863 131.132C234.128 131.129 234.391 131.178 234.637 131.277C234.883 131.376 235.108 131.522 235.297 131.708C235.486 131.893 235.637 132.115 235.74 132.359C235.844 132.603 235.898 132.865 235.899 133.13Z" fill="white"/>
<path d="M232.646 134.232C232.799 134.389 232.982 134.515 233.184 134.6C233.387 134.686 233.604 134.731 233.824 134.731C234.037 134.735 234.248 134.696 234.446 134.617C234.644 134.538 234.824 134.421 234.977 134.272C235.129 134.124 235.251 133.946 235.334 133.75C235.417 133.554 235.461 133.344 235.463 133.131C235.459 132.746 235.313 132.377 235.053 132.093C234.206 132.754 233.402 133.468 232.646 134.232Z" fill="#333333"/>
<path d="M243.877 133.13C243.884 133.535 243.772 133.932 243.552 134.272C243.333 134.612 243.018 134.879 242.647 135.039C242.275 135.199 241.865 135.245 241.467 135.17C241.07 135.096 240.703 134.905 240.415 134.622C240.126 134.339 239.928 133.976 239.847 133.58C239.765 133.184 239.803 132.773 239.956 132.399C240.109 132.024 240.37 131.704 240.705 131.479C241.041 131.253 241.436 131.133 241.841 131.132C242.106 131.129 242.369 131.178 242.615 131.277C242.861 131.376 243.085 131.522 243.274 131.708C243.464 131.893 243.614 132.115 243.718 132.359C243.821 132.603 243.875 132.865 243.877 133.13Z" fill="white"/>
<path d="M240.676 134.232C240.899 134.466 241.187 134.629 241.502 134.699C241.818 134.769 242.148 134.743 242.449 134.625C242.75 134.507 243.009 134.301 243.192 134.035C243.376 133.769 243.476 133.454 243.48 133.131C243.476 132.746 243.33 132.377 243.071 132.093C242.225 132.751 241.424 133.465 240.676 134.232Z" fill="#333333"/>
<path d="M251.856 133.13C251.866 133.538 251.755 133.939 251.536 134.282C251.317 134.626 251.001 134.897 250.627 135.059C250.254 135.222 249.841 135.27 249.44 135.197C249.039 135.124 248.669 134.933 248.377 134.649C248.086 134.364 247.885 133.999 247.802 133.6C247.719 133.202 247.756 132.787 247.91 132.41C248.063 132.032 248.326 131.709 248.664 131.482C249.002 131.254 249.4 131.133 249.807 131.132C250.073 131.129 250.337 131.178 250.584 131.277C250.83 131.375 251.055 131.521 251.246 131.707C251.436 131.892 251.588 132.114 251.692 132.358C251.797 132.602 251.853 132.865 251.856 133.13Z" fill="white"/>
<path d="M248.654 134.232C248.877 134.466 249.165 134.629 249.481 134.699C249.797 134.769 250.126 134.743 250.427 134.625C250.728 134.507 250.987 134.301 251.171 134.035C251.355 133.769 251.455 133.454 251.459 133.131C251.455 132.746 251.309 132.377 251.049 132.093C250.206 132.754 249.406 133.468 248.654 134.232Z" fill="#333333"/>
<path d="M172.046 145.823C172.057 146.227 171.946 146.626 171.728 146.967C171.511 147.309 171.197 147.578 170.826 147.74C170.455 147.902 170.044 147.95 169.645 147.877C169.247 147.804 168.879 147.614 168.589 147.332C168.3 147.049 168.1 146.687 168.018 146.29C167.935 145.894 167.972 145.482 168.125 145.107C168.277 144.732 168.538 144.411 168.874 144.185C169.21 143.959 169.605 143.838 170.01 143.838C170.274 143.834 170.536 143.883 170.782 143.981C171.027 144.079 171.25 144.224 171.439 144.408C171.629 144.593 171.779 144.812 171.884 145.055C171.988 145.298 172.043 145.559 172.046 145.823Z" fill="white"/>
<path d="M168.845 146.936C168.995 147.094 169.175 147.22 169.376 147.306C169.576 147.392 169.792 147.436 170.01 147.435C170.224 147.437 170.436 147.397 170.634 147.317C170.831 147.236 171.012 147.118 171.164 146.968C171.316 146.818 171.437 146.64 171.521 146.443C171.604 146.247 171.648 146.035 171.649 145.822C171.642 145.442 171.496 145.078 171.24 144.797C170.396 145.458 169.596 146.173 168.845 146.936Z" fill="#333333"/>
<path d="M180.038 145.823C180.05 146.231 179.941 146.634 179.723 146.979C179.505 147.325 179.189 147.597 178.815 147.762C178.441 147.927 178.027 147.976 177.625 147.903C177.223 147.83 176.852 147.639 176.559 147.354C176.267 147.069 176.066 146.703 175.983 146.303C175.9 145.903 175.939 145.487 176.094 145.109C176.249 144.731 176.513 144.408 176.853 144.182C177.193 143.955 177.593 143.835 178.001 143.838C178.265 143.834 178.527 143.883 178.773 143.981C179.018 144.079 179.241 144.224 179.431 144.408C179.62 144.593 179.771 144.812 179.875 145.055C179.979 145.298 180.034 145.559 180.038 145.823Z" fill="white"/>
<path d="M176.822 146.936C177.046 147.171 177.335 147.334 177.652 147.403C177.969 147.473 178.299 147.446 178.601 147.326C178.903 147.207 179.161 146.999 179.344 146.731C179.527 146.463 179.625 146.146 179.627 145.822C179.626 145.441 179.479 145.074 179.217 144.797C178.374 145.458 177.574 146.173 176.822 146.936Z" fill="#333333"/>
<path d="M188.016 145.823C188.026 146.227 187.916 146.626 187.698 146.967C187.481 147.309 187.166 147.578 186.795 147.74C186.424 147.902 186.013 147.95 185.615 147.877C185.217 147.804 184.849 147.614 184.559 147.332C184.269 147.049 184.07 146.687 183.987 146.29C183.905 145.894 183.942 145.482 184.094 145.107C184.247 144.732 184.508 144.411 184.844 144.185C185.179 143.959 185.575 143.838 185.98 143.838C186.244 143.834 186.506 143.883 186.751 143.981C186.997 144.079 187.22 144.224 187.409 144.408C187.598 144.593 187.749 144.812 187.853 145.055C187.957 145.298 188.013 145.559 188.016 145.823Z" fill="white"/>
<path d="M184.802 146.936C185.027 147.169 185.317 147.33 185.634 147.399C185.951 147.467 186.281 147.44 186.583 147.321C186.885 147.202 187.144 146.995 187.329 146.729C187.513 146.462 187.614 146.146 187.619 145.822C187.612 145.442 187.466 145.078 187.209 144.797C186.359 145.455 185.555 146.169 184.802 146.936Z" fill="#333333"/>
<path d="M195.994 145.823C196.004 146.227 195.893 146.626 195.676 146.967C195.458 147.309 195.144 147.578 194.773 147.74C194.402 147.902 193.991 147.95 193.593 147.877C193.194 147.804 192.827 147.614 192.537 147.332C192.247 147.049 192.048 146.687 191.965 146.29C191.882 145.894 191.919 145.482 192.072 145.107C192.224 144.732 192.485 144.411 192.821 144.185C193.157 143.959 193.553 143.838 193.957 143.838C194.222 143.834 194.484 143.883 194.729 143.981C194.974 144.079 195.198 144.224 195.387 144.408C195.576 144.593 195.727 144.812 195.831 145.055C195.935 145.298 195.99 145.559 195.994 145.823Z" fill="white"/>
<path d="M192.779 146.936C192.933 147.093 193.116 147.219 193.318 147.304C193.52 147.39 193.738 147.435 193.958 147.435C194.171 147.437 194.383 147.397 194.581 147.317C194.779 147.236 194.959 147.118 195.111 146.968C195.264 146.818 195.385 146.64 195.468 146.443C195.551 146.247 195.595 146.035 195.597 145.822C195.589 145.442 195.444 145.078 195.187 144.797C194.34 145.458 193.535 146.173 192.779 146.936Z" fill="#333333"/>
<path d="M203.973 145.823C203.983 146.227 203.873 146.626 203.655 146.967C203.438 147.309 203.123 147.578 202.752 147.74C202.381 147.902 201.97 147.95 201.572 147.877C201.174 147.804 200.806 147.614 200.516 147.332C200.226 147.049 200.027 146.687 199.944 146.29C199.862 145.894 199.899 145.482 200.051 145.107C200.204 144.732 200.465 144.411 200.801 144.185C201.136 143.959 201.532 143.838 201.937 143.838C202.201 143.834 202.463 143.883 202.708 143.981C202.954 144.079 203.177 144.224 203.366 144.408C203.555 144.593 203.706 144.812 203.81 145.055C203.915 145.298 203.97 145.559 203.973 145.823Z" fill="white"/>
<path d="M200.771 146.936C200.921 147.094 201.102 147.22 201.303 147.306C201.503 147.392 201.719 147.436 201.937 147.435C202.15 147.437 202.362 147.397 202.56 147.317C202.758 147.236 202.938 147.118 203.091 146.968C203.243 146.818 203.364 146.64 203.447 146.443C203.531 146.247 203.574 146.035 203.576 145.822C203.569 145.442 203.423 145.078 203.166 144.797C202.32 145.455 201.52 146.169 200.771 146.936Z" fill="#333333"/>
<path d="M211.963 145.823C211.976 146.23 211.867 146.633 211.649 146.978C211.432 147.323 211.117 147.596 210.744 147.761C210.371 147.926 209.957 147.975 209.555 147.904C209.154 147.832 208.783 147.642 208.49 147.358C208.197 147.074 207.995 146.71 207.911 146.31C207.826 145.911 207.863 145.496 208.016 145.118C208.169 144.74 208.431 144.416 208.769 144.188C209.108 143.96 209.506 143.838 209.914 143.838C210.449 143.831 210.964 144.036 211.348 144.408C211.732 144.779 211.953 145.288 211.963 145.823Z" fill="white"/>
<path d="M208.749 146.936C208.899 147.094 209.08 147.22 209.28 147.306C209.481 147.392 209.696 147.436 209.914 147.435C210.128 147.437 210.34 147.397 210.538 147.317C210.736 147.236 210.916 147.118 211.068 146.968C211.22 146.818 211.342 146.64 211.425 146.443C211.508 146.247 211.552 146.035 211.554 145.822C211.546 145.442 211.4 145.078 211.144 144.797C210.301 145.458 209.501 146.173 208.749 146.936Z" fill="#333333"/>
<path d="M219.943 145.823C219.956 146.231 219.846 146.634 219.628 146.979C219.41 147.325 219.094 147.597 218.72 147.762C218.346 147.927 217.932 147.976 217.53 147.903C217.128 147.83 216.757 147.639 216.464 147.354C216.172 147.069 215.971 146.703 215.888 146.303C215.805 145.903 215.844 145.487 215.999 145.109C216.154 144.731 216.418 144.408 216.758 144.182C217.098 143.955 217.498 143.835 217.907 143.838C218.171 143.834 218.433 143.883 218.678 143.981C218.923 144.079 219.147 144.224 219.336 144.408C219.525 144.593 219.676 144.812 219.78 145.055C219.884 145.298 219.939 145.559 219.943 145.823Z" fill="white"/>
<path d="M216.729 146.936C216.952 147.171 217.241 147.334 217.558 147.403C217.875 147.473 218.206 147.446 218.507 147.326C218.809 147.207 219.068 146.999 219.25 146.731C219.433 146.463 219.532 146.146 219.533 145.822C219.532 145.441 219.385 145.074 219.123 144.797C218.28 145.458 217.48 146.173 216.729 146.936Z" fill="#333333"/>
<path d="M227.92 145.823C227.931 146.227 227.82 146.626 227.602 146.967C227.385 147.309 227.071 147.578 226.7 147.74C226.329 147.902 225.918 147.95 225.519 147.877C225.121 147.804 224.753 147.614 224.463 147.332C224.174 147.049 223.974 146.687 223.892 146.29C223.809 145.894 223.846 145.482 223.999 145.107C224.151 144.732 224.412 144.411 224.748 144.185C225.084 143.959 225.479 143.838 225.884 143.838C226.148 143.834 226.41 143.883 226.656 143.981C226.901 144.079 227.124 144.224 227.313 144.408C227.503 144.593 227.653 144.812 227.758 145.055C227.862 145.298 227.917 145.559 227.92 145.823Z" fill="white"/>
<path d="M224.706 146.936C224.932 147.169 225.221 147.33 225.538 147.399C225.855 147.467 226.186 147.44 226.487 147.321C226.789 147.202 227.048 146.995 227.233 146.729C227.417 146.462 227.518 146.146 227.523 145.822C227.516 145.442 227.37 145.078 227.114 144.797C226.264 145.455 225.459 146.169 224.706 146.936Z" fill="#333333"/>
<path d="M235.899 145.823C235.909 146.227 235.798 146.626 235.581 146.967C235.364 147.309 235.049 147.578 234.678 147.74C234.307 147.902 233.896 147.95 233.498 147.877C233.1 147.804 232.732 147.614 232.442 147.332C232.152 147.049 231.953 146.687 231.87 146.29C231.787 145.894 231.825 145.482 231.977 145.107C232.13 144.732 232.39 144.411 232.726 144.185C233.062 143.959 233.458 143.838 233.863 143.838C234.127 143.834 234.389 143.883 234.634 143.981C234.879 144.079 235.103 144.224 235.292 144.408C235.481 144.593 235.632 144.812 235.736 145.055C235.84 145.298 235.896 145.559 235.899 145.823Z" fill="white"/>
<path d="M232.646 146.936C232.799 147.093 232.982 147.219 233.184 147.304C233.387 147.39 233.604 147.435 233.824 147.435C234.037 147.437 234.249 147.397 234.447 147.317C234.645 147.236 234.825 147.118 234.978 146.968C235.13 146.818 235.251 146.64 235.334 146.443C235.418 146.247 235.461 146.035 235.463 145.822C235.455 145.442 235.31 145.078 235.053 144.797C234.206 145.458 233.402 146.173 232.646 146.936Z" fill="#333333"/>
<path d="M243.878 145.823C243.889 146.227 243.778 146.626 243.56 146.967C243.343 147.309 243.029 147.578 242.658 147.74C242.287 147.902 241.876 147.95 241.477 147.877C241.079 147.804 240.711 147.614 240.422 147.332C240.132 147.049 239.933 146.687 239.85 146.29C239.767 145.894 239.804 145.482 239.957 145.107C240.109 144.732 240.37 144.411 240.706 144.185C241.042 143.959 241.437 143.838 241.842 143.838C242.106 143.834 242.368 143.883 242.614 143.981C242.859 144.079 243.082 144.224 243.271 144.408C243.461 144.593 243.612 144.812 243.716 145.055C243.82 145.298 243.875 145.559 243.878 145.823Z" fill="white"/>
<path d="M240.676 146.936C240.826 147.094 241.007 147.22 241.207 147.306C241.407 147.392 241.623 147.436 241.841 147.435C242.055 147.437 242.267 147.397 242.465 147.317C242.663 147.236 242.843 147.118 242.995 146.968C243.147 146.818 243.268 146.64 243.352 146.443C243.435 146.247 243.479 146.035 243.48 145.822C243.473 145.442 243.327 145.078 243.071 144.797C242.225 145.455 241.424 146.169 240.676 146.936Z" fill="#333333"/>
<path d="M251.856 145.823C251.869 146.23 251.759 146.633 251.542 146.978C251.325 147.323 251.009 147.596 250.636 147.761C250.263 147.926 249.849 147.975 249.448 147.904C249.046 147.832 248.675 147.642 248.382 147.358C248.089 147.074 247.888 146.71 247.803 146.31C247.719 145.911 247.755 145.496 247.908 145.118C248.061 144.74 248.324 144.416 248.662 144.188C249 143.96 249.399 143.838 249.807 143.838C250.341 143.831 250.857 144.036 251.241 144.408C251.625 144.779 251.846 145.288 251.856 145.823Z" fill="white"/>
<path d="M248.654 146.936C248.804 147.094 248.985 147.22 249.185 147.306C249.386 147.392 249.602 147.436 249.82 147.435C250.033 147.437 250.245 147.397 250.443 147.317C250.641 147.236 250.821 147.118 250.974 146.968C251.126 146.818 251.247 146.64 251.33 146.443C251.414 146.247 251.457 146.035 251.459 145.822C251.451 145.442 251.306 145.078 251.049 144.797C250.206 145.458 249.406 146.173 248.654 146.936Z" fill="#333333"/>
<path d="M157.614 123.283H95.8736C94.5325 123.283 93.2449 122.757 92.2871 121.819C91.3293 120.88 90.7778 119.603 90.751 118.263V89.781C90.751 70.3536 106.9 54.5376 126.75 54.5376C146.6 54.5376 162.762 70.3536 162.762 89.781V118.263C162.735 119.608 162.18 120.888 161.217 121.828C160.253 122.767 158.959 123.29 157.614 123.283ZM100.996 113.294H152.478V89.781C152.478 82.9541 149.766 76.4067 144.939 71.5794C140.111 66.752 133.564 64.04 126.737 64.04C119.91 64.04 113.363 66.752 108.536 71.5794C103.708 76.4067 100.996 82.9541 100.996 89.781V113.294Z" fill="white" stroke="#333333" stroke-linecap="round" stroke-linejoin="round"/>
<path d="M165.527 109.554H86.9209V174.585H165.527V109.554Z" fill="#06E7ED" stroke="#333333" stroke-linecap="round" stroke-linejoin="round"/>
<path d="M134.407 136.563C134.322 134.35 133.382 132.256 131.786 130.72C130.19 129.184 128.061 128.327 125.846 128.327C123.631 128.327 121.503 129.184 119.906 130.72C118.31 132.256 117.371 134.35 117.285 136.563C117.292 138.085 117.714 139.577 118.507 140.877C119.299 142.177 120.431 143.236 121.78 143.94L120.346 158.705H131.347L129.912 143.94C131.262 143.236 132.394 142.177 133.186 140.877C133.978 139.577 134.4 138.085 134.407 136.563Z" fill="#333333" stroke="#333333" stroke-linecap="round" stroke-linejoin="round"/>
</g>
</svg>
