<svg width="260" height="260" viewBox="0 0 260 260" fill="none" xmlns="http://www.w3.org/2000/svg">
<mask id="mask0_1828_6696" style="mask-type:alpha" maskUnits="userSpaceOnUse" x="0" y="0" width="260" height="260">
<circle cx="130" cy="130" r="130" fill="#C4C4C4"/>
</mask>
<g mask="url(#mask0_1828_6696)">
<path opacity="0.1" d="M300.108 156.682C300.733 152.419 301.087 148.121 301.17 143.814C301.815 108.678 287.107 81.1598 266.789 53.8916C245.803 25.727 216.801 -2.00388 182.424 -12.1948C174.309 -14.5629 165.779 -15.8457 157.361 -14.8819C125.582 -11.3034 94.7208 13.5674 56.1827 21.2857C17.6445 29.004 -16.1932 50.5816 -22.8698 92.5429C-25.7016 110.311 -24.83 127.654 -21.3176 145.236C-16.9641 166.846 -17.5428 190.622 -9.20901 211.692C-0.449549 233.829 18.3632 254.85 39.4297 265.883C63.4621 278.469 90.4303 270.605 116.152 271.471C136.445 272.14 156.329 278.148 176.633 278.305C207.734 278.557 242.222 265.832 260.352 239.683C277.928 214.277 295.632 187.4 300.108 156.682Z" fill="#06E7ED"/>
<path opacity="0.1" d="M271.287 45.1384C269.015 41.4782 266.514 37.9653 263.798 34.6207C241.625 7.35693 212.635 -4.1817 179.52 -11.9107C145.315 -19.8931 105.266 -22.3735 72.4243 -7.98451C64.6953 -4.55855 57.3501 -0.0362892 51.5396 6.13043C29.5655 29.3653 22.0284 68.2773 -2.43976 99.0355C-26.9079 129.794 -38.844 168.11 -16.8767 204.48C-7.5787 219.883 4.27512 232.573 18.301 243.741C35.5678 257.445 50.4639 275.986 70.4235 286.71C91.3972 297.974 119.332 301.9 142.547 296.741C169.029 290.855 184.563 267.449 204.776 251.518C220.713 238.938 239.782 230.702 255.398 217.724C279.325 197.854 297.469 165.883 294.454 134.206C291.494 103.455 287.684 71.4977 271.287 45.1384Z" fill="#06E7ED"/>
<g opacity="0.5">
<path d="M-45.0057 183.102C-41.782 181.881 -36.4919 176.469 -36.0779 176.03C-33.0815 179.167 -29.8855 182.094 -26.5113 184.791C-24.5573 186.362 -22.5438 187.895 -20.4466 189.402C-21.4863 188.859 -22.4051 188.376 -22.5378 188.329C-26.3629 186.845 -34.5678 186.302 -37.4332 189.996C-37.9006 190.621 -38.2338 191.341 -38.4108 192.11C-38.5878 192.878 -38.6045 193.676 -38.4599 194.452C-38.3153 195.227 -38.0126 195.963 -37.5719 196.609C-37.1312 197.255 -36.5625 197.797 -35.9037 198.199C-33.1902 200.007 -29.2495 199.433 -26.3961 198.34C-23.5427 197.248 -18.8884 192.725 -17.6811 191.507C-16.8931 192.078 -16.1169 192.662 -15.329 193.221C-11.5348 195.943 -7.7289 198.64 -4.07815 201.401C-2.7925 202.374 -1.56633 203.386 -0.328339 204.384C-1.24716 203.901 -2.02079 203.503 -2.14147 203.455C-5.96658 201.972 -14.1714 201.429 -17.0369 205.123C-17.492 205.75 -17.8138 206.47 -17.9815 207.234C-18.1492 207.999 -18.159 208.792 -18.0103 209.561C-17.8615 210.33 -17.5576 211.058 -17.1182 211.698C-16.6788 212.338 -16.1138 212.876 -15.46 213.276C-12.7468 215.072 -8.80607 214.497 -5.95251 213.417C-3.09895 212.337 1.105 208.229 2.53747 206.797C3.75232 207.858 4.96717 208.919 6.18254 210.017C6.94913 210.774 7.73869 211.457 8.46996 212.264L10.6748 214.612C12.0161 216.142 13.4181 217.72 14.6877 219.263C15.5905 220.328 16.4207 221.345 17.2632 222.386C16.0494 221.4 13.4671 219.528 13.2492 219.395C9.62024 217.339 1.63758 215.505 -1.71454 218.722C-2.25697 219.269 -2.68139 219.929 -2.96011 220.657C-3.23882 221.385 -3.36558 222.166 -3.33212 222.949C-3.29866 223.732 -3.10573 224.498 -2.76591 225.199C-2.42609 225.9 -1.94702 226.519 -1.35993 227.016C1.0708 229.212 5.04425 229.268 8.02413 228.645C11.315 227.943 17.1243 223.627 17.849 223.084C19.2289 224.799 20.5724 226.49 21.8068 228.095C25.143 232.409 27.9204 236.248 30.0637 239.352L32.7314 237.854C30.4557 234.714 27.4967 230.767 23.9068 226.332C22.5024 224.58 20.9648 222.744 19.3786 220.871C20.8476 219.043 22.2079 217.126 23.452 215.129C26.721 216.322 33.4016 215.995 34.2653 215.958C34.512 218.184 34.7218 220.337 34.8942 222.39C35.3519 227.722 35.6086 232.401 35.7684 236.152L38.6623 234.514C38.4337 230.999 38.0999 226.817 37.5912 222.142C37.3559 219.879 37.0587 217.48 36.7245 215.008C37.5611 214.748 44.4322 212.572 46.945 210.283C49.2447 208.208 51.5995 204.905 51.3611 201.552C51.3301 200.769 51.1397 200.001 50.8023 199.298C50.4648 198.595 49.9879 197.974 49.4025 197.474C48.8171 196.973 48.1363 196.606 47.4045 196.395C46.6727 196.184 45.9062 196.135 45.1548 196.25C40.6654 197.067 37.2074 204.782 36.6529 208.952C36.6563 209.199 36.5498 211.913 36.5374 213.623C36.4035 212.621 36.27 211.645 36.1236 210.606C35.8193 208.554 35.467 206.515 35.1008 204.328C34.8863 203.282 34.6676 202.22 34.4446 201.142C34.2498 200.067 33.9105 198.969 33.6433 197.87C32.9841 195.328 32.1811 192.8 31.3298 190.26C33.0665 190.001 39.2205 188.912 41.8021 187.254C44.3836 185.596 47.1875 182.659 47.4418 179.348C47.5253 178.569 47.4493 177.78 47.2188 177.033C46.9883 176.286 46.6083 175.597 46.1035 175.011C45.5987 174.425 44.9804 173.954 44.2885 173.63C43.5966 173.306 42.8466 173.136 42.087 173.13C37.5271 173.193 32.9809 180.328 31.8132 184.419C31.7448 184.68 31.2221 187.673 30.9688 189.323C30.4436 187.795 29.9306 186.278 29.3456 184.763C27.6767 180.376 25.8399 175.992 24.039 171.608L22.4111 167.58C23.0339 167.485 30.3762 166.405 33.2665 164.507C35.8355 162.811 38.6519 159.911 38.8942 156.601C38.996 155.815 38.9343 155.015 38.7134 154.255C38.4925 153.495 38.1173 152.793 37.6128 152.194C37.1083 151.595 36.4862 151.114 35.7877 150.782C35.0892 150.45 34.3304 150.276 33.5619 150.271C28.99 150.334 24.4438 157.469 23.2872 161.498C23.1955 161.809 22.4629 166.118 22.3221 167.222C21.0811 164.266 19.9719 161.296 18.9469 158.338C17.5451 154.338 16.3942 150.25 15.5013 146.098C15.7893 146.094 23.4669 144.96 26.4284 143.012C28.9855 141.317 31.8019 138.417 32.0562 135.106C32.1415 134.327 32.0673 133.539 31.8382 132.792C31.6091 132.045 31.2303 131.356 30.7264 130.769C30.2226 130.183 29.6049 129.712 28.9135 129.388C28.2221 129.064 27.4725 128.893 26.7134 128.887C22.1415 128.951 17.5953 136.086 16.4388 140.115C16.3472 140.438 15.5472 145.082 15.4629 145.925C15.4594 145.678 15.3362 145.444 15.2848 145.197C14.5004 141.005 14.0761 136.75 14.0169 132.481C13.9844 130.128 14.0253 127.874 14.139 125.68C15.591 125.66 22.2114 125.32 25.0718 123.869C27.9322 122.417 30.8981 119.911 31.5131 116.645C31.6788 115.881 31.6872 115.089 31.5378 114.321C31.3885 113.553 31.0846 112.826 30.6459 112.187C30.2073 111.547 29.6435 111.01 28.9911 110.609C28.3388 110.208 27.6123 109.953 26.8586 109.86C22.3042 109.452 17.0295 115.978 15.4389 119.865C15.3578 120.077 14.7052 122.352 14.2952 123.956C14.3657 122.976 14.4115 121.948 14.4945 121.005C14.7934 117.446 15.2889 114.219 15.7414 111.351C16.007 109.725 16.2869 108.272 16.5561 106.906C17.961 106.081 23.5435 102.722 25.3919 100.12C27.2402 97.518 28.8102 93.8795 27.8774 90.6471C27.6846 89.8852 27.3379 89.1738 26.86 88.5596C26.3822 87.9454 25.784 87.4423 25.1047 87.0832C24.4255 86.7242 23.6804 86.5173 22.9185 86.4763C22.1566 86.4352 21.395 86.5608 20.6837 86.8448C16.4598 88.6373 14.7023 96.948 15.0243 101.142C15.0294 101.514 16.1272 107.135 16.1985 107.084L16.2825 107.083C16.0005 108.387 15.7078 109.791 15.4172 111.343C14.9046 114.199 14.3011 117.428 13.9662 120.988C13.5172 124.817 13.2859 128.671 13.2735 132.529C13.241 136.853 13.5818 141.172 14.2919 145.434C14.2919 145.434 14.2932 145.533 14.2939 145.582C13.6768 144.352 11.83 140.984 11.6588 140.751C9.21127 137.341 2.69523 132.204 -1.64133 133.664C-2.35495 133.929 -3.00657 134.345 -3.55395 134.886C-4.10132 135.428 -4.53222 136.082 -4.8187 136.807C-5.10518 137.531 -5.24086 138.31 -5.21691 139.092C-5.19296 139.875 -5.00993 140.643 -4.6797 141.348C-3.37747 144.39 0.187592 146.161 3.18612 146.888C6.53384 147.696 13.8343 146.196 14.4208 146.076C15.2415 150.393 16.3428 154.648 17.7172 158.813C18.5074 161.28 19.3686 163.671 20.2181 166.087C19.6516 165.042 19.1348 164.12 19.0491 163.997C16.6016 160.587 10.0855 155.45 5.74897 156.91C5.03535 157.175 4.38372 157.591 3.83635 158.133C3.28897 158.674 2.85807 159.328 2.57159 160.053C2.28511 160.777 2.14944 161.556 2.17339 162.338C2.19734 163.121 2.38036 163.889 2.7106 164.594C4.01299 167.648 7.57788 169.407 10.5644 170.134C13.551 170.861 19.8362 169.721 21.4879 169.389C21.8488 170.313 22.1856 171.237 22.5464 172.161C24.2519 176.596 25.9811 181.007 27.5298 185.383C28.0792 186.923 28.5686 188.465 29.07 190.006C28.5651 189.084 28.1224 188.31 28.0488 188.2C25.6013 184.79 19.0733 179.653 14.7487 181.112C14.034 181.376 13.3811 181.791 12.8325 182.332C12.2838 182.873 11.8515 183.527 11.5639 184.252C11.2762 184.977 11.1395 185.756 11.1627 186.539C11.1859 187.322 11.3684 188.091 11.6984 188.797C13.0126 191.838 16.5657 193.61 19.5642 194.336C22.5627 195.063 28.2252 194.019 30.1884 193.645C30.6545 195.236 31.1205 196.827 31.4542 198.396C31.6851 199.47 31.9873 200.494 32.1703 201.582C32.3534 202.669 32.5601 203.732 32.7546 204.782C33.047 206.834 33.3763 208.947 33.6202 210.963C33.7955 212.36 33.946 213.696 34.0964 215.031C33.5591 213.491 32.4615 210.496 32.3381 210.25C30.587 207.028 28.0716 204.318 25.0281 202.374C24.8452 202.007 24.6316 201.658 24.3896 201.33C23.9451 200.694 23.376 200.162 22.7193 199.768C22.0627 199.374 21.3331 199.126 20.578 199.042C19.823 198.958 19.0593 199.039 18.3367 199.279C17.6141 199.519 16.9488 199.914 16.3839 200.437C13.0681 203.679 14.3244 212.084 16.0813 215.887C16.1923 216.109 17.5803 218.406 18.5363 219.842C17.8777 219.083 17.3153 218.335 16.5725 217.565C15.231 216.023 13.842 214.519 12.3674 212.904L10.1153 210.606C9.38457 209.836 8.51033 209.105 7.68357 208.336C5.77532 206.604 3.75994 204.935 1.69724 203.316C3.0001 202.059 7.62096 197.722 8.78124 194.832C9.94152 191.943 10.8104 187.942 9.2459 185.028C8.90771 184.324 8.42927 183.702 7.84195 183.202C7.25463 182.703 6.57169 182.336 5.83789 182.128C5.10409 181.919 4.33601 181.873 3.58397 181.992C2.83195 182.111 2.11296 182.393 1.47411 182.819C-2.28135 185.51 -2.28382 194.019 -1.09991 198.053C-1.02449 198.3 0.142318 201.095 0.811343 202.609C-0.402142 201.648 -1.6158 200.674 -2.97294 199.739C-6.707 197.028 -10.5838 194.406 -14.4247 191.784L-17.9388 189.355C-17.4647 188.927 -11.9299 183.847 -10.5348 180.582C-9.30232 177.704 -8.5056 173.692 -10.0701 170.778C-10.4162 170.089 -10.8984 169.481 -11.4856 168.995C-12.0728 168.509 -12.7519 168.155 -13.4794 167.956C-14.2069 167.758 -14.9665 167.718 -15.7093 167.841C-16.4522 167.963 -17.1618 168.245 -17.7925 168.668C-21.5482 171.346 -21.5505 179.867 -20.3547 183.889C-20.2666 184.185 -18.5787 188.212 -18.1089 189.209C-20.6781 187.411 -23.2241 185.563 -25.674 183.715C-28.9849 181.179 -32.1339 178.426 -35.1014 175.472C-34.8882 175.271 -29.0682 169.988 -27.6494 166.698C-26.4167 163.832 -25.6082 159.808 -27.1727 156.894C-27.5188 156.196 -28.0032 155.581 -28.5944 155.089C-29.1857 154.597 -29.8706 154.238 -30.6046 154.037C-31.3386 153.836 -32.1054 153.796 -32.855 153.921C-33.6045 154.045 -34.3202 154.331 -34.9555 154.76C-38.7109 157.45 -38.7134 165.959 -37.5177 169.981C-37.4292 170.302 -35.6052 174.624 -35.2228 175.374L-35.7578 174.874C-38.6571 171.827 -41.2856 168.518 -43.6117 164.987C-44.9227 163.048 -46.0653 161.131 -47.1476 159.239C-45.9595 158.368 -40.6144 154.33 -39.0092 151.496C-37.4041 148.662 -36.2561 144.881 -37.4987 141.814C-37.7671 141.08 -38.182 140.413 -38.7166 139.855C-39.2512 139.298 -39.8934 138.863 -40.6015 138.578C-41.3096 138.293 -42.0677 138.166 -42.8265 138.203C-43.5853 138.241 -44.3278 138.443 -45.0056 138.796C-49.0192 141.044 -49.9225 149.504 -49.1693 153.643C-49.1662 153.866 -48.4751 156.111 -47.9127 157.726C-48.3806 156.865 -48.8849 155.98 -49.3166 155.144C-50.9681 152.008 -52.294 148.992 -53.4461 146.394C-54.0791 144.879 -54.6863 143.501 -55.1362 142.206C-54.4124 140.735 -51.5549 134.725 -51.4071 131.527C-51.2592 128.33 -52.0108 124.314 -54.4407 122.18C-55.0063 121.657 -55.6723 121.262 -56.3953 121.021C-57.1183 120.781 -57.8822 120.7 -58.6372 120.784C-59.3922 120.868 -60.1215 121.115 -60.7777 121.509C-61.4338 121.903 -62.0022 122.435 -62.4457 123.071C-65.0083 126.971 -62.0302 134.907 -59.5119 138.229C-59.2918 138.523 -55.3949 142.594 -55.3599 142.519L-55.3611 142.432C-54.9 143.665 -54.3891 145.032 -53.8169 146.486C-52.7118 149.159 -51.4459 152.176 -49.8656 155.362C-48.1832 158.816 -46.3055 162.165 -44.2422 165.392C-41.9596 169.016 -39.3701 172.425 -36.5042 175.578L-36.3947 175.688C-37.6042 175.011 -40.9048 173.273 -41.2305 173.153C-45.0556 171.67 -53.2604 171.127 -56.1139 174.821C-56.5693 175.446 -56.8918 176.164 -57.0603 176.927C-57.2288 177.69 -57.2396 178.482 -57.092 179.25C-56.9444 180.018 -56.6417 180.745 -56.2035 181.385C-55.7654 182.024 -55.2017 182.562 -54.5492 182.962C-51.7994 184.794 -47.8711 184.195 -45.0057 183.102Z" fill="#263238"/>
<path d="M13.5284 125.007C13.6124 125.006 12.2515 119.451 12.1267 119.105C10.692 115.162 5.66602 108.419 1.09636 108.643C0.340402 108.705 -0.394435 108.93 -1.06071 109.303C-1.72698 109.676 -2.30989 110.189 -2.77181 110.81C-3.23372 111.43 -3.56438 112.144 -3.74243 112.904C-3.92049 113.665 -3.94199 114.456 -3.80554 115.226C-3.31587 118.526 -0.314303 121.21 2.37084 122.708C5.51574 124.473 13.5164 125.007 13.5284 125.007Z" fill="#263238"/>
<path d="M312.998 178.156C309.742 177.024 304.304 171.761 303.866 171.334C300.961 174.555 297.846 177.569 294.545 180.356C292.636 181.98 290.665 183.568 288.67 185.131C289.683 184.56 290.6 184.052 290.731 184C294.514 182.412 302.701 181.643 305.655 185.256C306.127 185.87 306.468 186.579 306.657 187.338C306.846 188.096 306.877 188.888 306.75 189.659C306.622 190.431 306.339 191.167 305.917 191.818C305.496 192.469 304.946 193.02 304.304 193.437C301.641 195.319 297.698 194.854 294.804 193.841C291.909 192.828 287.144 188.435 285.915 187.25L283.599 189.029C279.882 191.855 276.164 194.656 272.591 197.517C271.333 198.525 270.123 199.57 268.913 200.602C269.818 200.094 270.58 199.675 270.712 199.624C274.482 198.036 282.681 197.266 285.635 200.879C286.108 201.494 286.449 202.204 286.638 202.964C286.827 203.724 286.858 204.516 286.731 205.288C286.604 206.061 286.32 206.798 285.898 207.45C285.477 208.102 284.927 208.655 284.284 209.073C281.622 210.943 277.667 210.477 274.784 209.476C271.902 208.476 267.586 204.485 266.115 203.093C264.93 204.187 263.745 205.281 262.56 206.412C261.803 207.191 261.032 207.895 260.324 208.722C259.615 209.55 258.893 210.328 258.196 211.13C256.886 212.696 255.54 214.313 254.302 215.891C253.44 216.98 252.627 218.019 251.813 219.084C253.059 218.063 255.529 216.121 255.755 215.982C259.254 213.828 267.255 211.773 270.683 214.896C271.24 215.429 271.682 216.076 271.981 216.796C272.28 217.517 272.428 218.294 272.416 219.077C272.404 219.86 272.233 220.632 271.912 221.342C271.592 222.052 271.13 222.684 270.557 223.197C268.188 225.459 264.23 225.625 261.222 225.085C257.925 224.474 251.998 220.32 251.259 219.797C249.915 221.55 248.631 223.277 247.429 224.916C244.225 229.32 241.543 233.234 239.486 236.396L236.766 234.972C238.954 231.771 241.815 227.743 245.269 223.212C246.625 221.422 248.111 219.543 249.657 217.627C248.137 215.839 246.72 213.96 245.414 212C242.18 213.284 235.492 213.141 234.628 213.128C234.455 215.36 234.293 217.517 234.177 219.575C233.867 224.918 233.74 229.601 233.695 233.355L230.745 231.798C230.877 228.279 231.107 224.089 231.474 219.402C231.659 217.132 231.89 214.726 232.144 212.245C231.3 212.009 224.384 210.024 221.796 207.805C219.452 205.794 217.007 202.558 217.153 199.199C217.161 198.416 217.328 197.643 217.645 196.932C217.961 196.22 218.42 195.585 218.99 195.069C219.561 194.553 220.23 194.166 220.955 193.935C221.68 193.704 222.445 193.633 223.198 193.728C227.721 194.421 231.378 202.037 232.048 206.19C232.051 206.438 232.233 209.148 232.292 210.856C232.411 209.851 232.505 208.871 232.635 207.829C232.87 205.77 233.166 203.722 233.484 201.525C233.661 200.47 233.85 199.402 234.04 198.322C234.229 197.242 234.513 196.135 234.75 195.03C235.351 192.47 236.072 189.921 236.853 187.358C235.109 187.147 228.928 186.229 226.301 184.643C223.675 183.056 220.791 180.198 220.457 176.895C220.351 176.12 220.403 175.329 220.611 174.576C220.82 173.823 221.179 173.124 221.667 172.524C222.154 171.923 222.759 171.436 223.441 171.093C224.123 170.75 224.868 170.558 225.626 170.532C230.198 170.468 234.94 177.476 236.208 181.533C236.296 181.792 236.889 184.769 237.188 186.412C237.67 184.87 238.153 183.339 238.684 181.809C240.243 177.378 241.946 172.945 243.625 168.512C244.147 167.154 244.644 165.798 245.141 164.441C244.528 164.362 237.147 163.486 234.205 161.668C231.602 160.045 228.707 157.223 228.361 153.921C228.255 153.145 228.307 152.355 228.515 151.602C228.724 150.849 229.083 150.149 229.571 149.549C230.058 148.949 230.663 148.462 231.345 148.118C232.027 147.775 232.772 147.584 233.53 147.557C238.102 147.494 242.844 154.501 244.123 158.497C244.211 158.805 245.075 163.091 245.234 164.191C246.393 161.203 247.42 158.203 248.375 155.218C249.67 151.181 250.711 147.062 251.493 142.887C251.205 142.891 243.511 141.969 240.497 140.104C237.882 138.48 234.986 135.659 234.641 132.356C234.536 131.58 234.59 130.789 234.8 130.036C235.009 129.283 235.37 128.584 235.859 127.984C236.347 127.384 236.952 126.897 237.635 126.554C238.317 126.211 239.062 126.019 239.821 125.993C244.393 125.929 249.123 132.937 250.402 136.932C250.503 137.253 251.419 141.873 251.526 142.713C251.523 142.466 251.652 142.229 251.684 141.98C252.359 137.769 252.665 133.503 252.6 129.235C252.568 126.882 252.465 124.629 252.291 122.439C250.839 122.459 244.211 122.303 241.324 120.931C238.436 119.558 235.378 117.136 234.685 113.888C234.497 113.128 234.465 112.337 234.592 111.564C234.72 110.791 235.003 110.055 235.424 109.403C235.845 108.751 236.395 108.198 237.037 107.78C237.679 107.362 238.399 107.088 239.151 106.976C243.692 106.443 249.145 112.821 250.83 116.662C250.929 116.871 251.633 119.128 252.087 120.72C251.989 119.743 251.915 118.716 251.806 117.776C251.409 114.226 250.836 111.014 250.293 108.16C249.983 106.542 249.663 105.097 249.356 103.739C247.941 102.953 242.267 99.7493 240.348 97.1994C238.428 94.6496 236.758 91.0559 237.59 87.7992C237.762 87.0366 238.088 86.3202 238.547 85.6964C239.005 85.0725 239.585 84.5553 240.25 84.1782C240.915 83.8011 241.649 83.5725 242.405 83.5074C243.162 83.4422 243.923 83.5419 244.64 83.8001C248.911 85.4751 250.898 93.7342 250.692 97.936C250.697 98.3075 249.755 103.956 249.682 103.908L249.598 103.909C249.916 105.205 250.259 106.6 250.593 108.144C251.184 110.984 251.877 114.195 252.31 117.744C252.86 121.56 253.194 125.406 253.309 129.262C253.465 133.583 253.248 137.909 252.659 142.19L252.661 142.339C253.244 141.092 254.997 137.674 255.162 137.436C257.515 133.96 263.886 128.645 268.261 129.984C268.983 130.228 269.647 130.625 270.21 131.151C270.774 131.676 271.223 132.319 271.53 133.036C271.836 133.752 271.993 134.528 271.99 135.311C271.987 136.095 271.823 136.868 271.511 137.582C270.293 140.658 266.778 142.527 263.813 143.336C260.489 144.237 253.138 142.939 252.548 142.836C251.847 147.174 250.864 151.458 249.605 155.659C248.883 158.146 248.088 160.56 247.306 162.999C247.843 161.938 248.334 161.003 248.417 160.878C250.769 157.402 257.153 152.086 261.516 153.426C262.238 153.669 262.902 154.067 263.465 154.592C264.029 155.118 264.479 155.76 264.786 156.476C265.094 157.192 265.252 157.968 265.251 158.751C265.249 159.534 265.088 160.308 264.777 161.023C263.548 164.112 260.045 165.969 257.068 166.778C254.09 167.587 247.788 166.621 246.128 166.334L245.158 169.135C243.564 173.616 241.957 178.072 240.542 182.489C240.035 184.044 239.589 185.599 239.142 187.153C239.621 186.218 240.031 185.432 240.101 185.319C242.453 181.843 248.837 176.528 253.2 177.867C253.921 178.112 254.584 178.511 255.146 179.037C255.708 179.563 256.157 180.205 256.463 180.921C256.77 181.637 256.927 182.412 256.924 183.195C256.922 183.978 256.76 184.751 256.45 185.465C255.22 188.541 251.717 190.411 248.74 191.22C245.763 192.029 240.073 191.141 238.101 190.822C237.691 192.425 237.269 194.029 236.967 195.606C236.765 196.686 236.492 197.718 236.351 198.81C236.21 199.902 236.02 200.97 235.855 202.025C235.607 204.085 235.349 206.206 235.161 208.228C235.012 209.63 234.898 210.969 234.785 212.308C235.279 210.753 236.306 207.729 236.41 207.48C238.047 204.172 240.48 201.354 243.475 199.294C243.638 198.917 243.843 198.561 244.084 198.233C244.51 197.585 245.063 197.038 245.707 196.626C246.352 196.213 247.073 195.946 247.825 195.841C248.576 195.736 249.341 195.796 250.069 196.016C250.797 196.236 251.472 196.612 252.05 197.119C255.454 200.268 254.442 208.705 252.779 212.555C252.674 212.779 251.35 215.114 250.434 216.576C251.072 215.799 251.685 215.035 252.347 214.246C253.645 212.667 254.98 211.125 256.421 209.47L258.597 207.111C259.318 206.321 260.172 205.566 260.965 204.775C262.825 202.99 264.793 201.266 266.823 199.591C265.485 198.371 260.747 194.163 259.507 191.306C258.267 188.45 257.276 184.475 258.76 181.519C259.085 180.811 259.551 180.181 260.128 179.672C260.705 179.162 261.38 178.784 262.108 178.561C262.836 178.338 263.602 178.276 264.355 178.379C265.109 178.482 265.833 178.747 266.48 179.158C270.309 181.743 270.534 190.25 269.462 194.315C269.393 194.563 268.304 197.39 267.677 198.922C268.864 197.927 270.11 196.919 271.381 195.948C275.051 193.135 278.842 190.407 282.621 187.68L286.054 185.155C285.581 184.74 279.896 179.815 278.411 176.59C277.099 173.747 276.192 169.759 277.675 166.803C278.001 166.094 278.467 165.465 279.044 164.955C279.622 164.446 280.297 164.068 281.025 163.846C281.754 163.624 282.52 163.564 283.273 163.669C284.027 163.774 284.75 164.041 285.396 164.454C289.212 167.027 289.45 175.546 288.378 179.599C288.298 179.897 286.722 183.969 286.268 184.979C288.799 183.111 291.292 181.193 293.678 179.278C296.92 176.655 299.992 173.815 302.875 170.778C302.656 170.582 296.704 165.462 295.183 162.213C293.872 159.383 292.964 155.382 294.448 152.426C294.773 151.719 295.239 151.091 295.815 150.583C296.392 150.075 297.066 149.697 297.793 149.476C298.52 149.254 299.284 149.193 300.036 149.297C300.788 149.401 301.511 149.667 302.156 150.078C305.985 152.663 306.222 161.169 305.138 165.222C305.059 165.545 303.367 169.916 303.005 170.677L303.526 170.162C306.333 167.033 308.865 163.653 311.092 160.061C312.349 158.087 313.438 156.14 314.468 154.218C313.256 153.38 307.801 149.492 306.131 146.703C304.46 143.914 303.196 140.166 304.353 137.066C304.601 136.325 304.998 135.647 305.516 135.075C306.035 134.503 306.665 134.05 307.365 133.746C308.065 133.442 308.82 133.293 309.579 133.31C310.339 133.326 311.086 133.508 311.774 133.842C315.848 135.979 316.985 144.41 316.346 148.569C316.349 148.791 315.708 151.055 315.203 152.684C315.647 151.811 316.126 150.913 316.547 150.065C318.111 146.884 319.341 143.833 320.421 141.204C321.024 139.672 321.581 138.277 322.007 136.971C321.231 135.52 318.22 129.592 317.972 126.399C317.724 123.207 318.293 119.198 320.699 116.998C321.25 116.459 321.904 116.046 322.621 115.785C323.337 115.525 324.098 115.423 324.855 115.486C325.612 115.549 326.348 115.776 327.015 116.152C327.681 116.527 328.264 117.044 328.725 117.667C331.395 121.495 328.637 129.51 326.223 132.9C326.011 133.2 322.216 137.377 322.179 137.303L322.178 137.216C321.763 138.461 321.29 139.842 320.746 141.311C319.728 144.013 318.546 147.064 317.042 150.293C315.463 153.791 313.687 157.191 311.722 160.474C309.548 164.166 307.053 167.645 304.268 170.87L304.162 170.983C305.352 170.273 308.603 168.444 308.926 168.316C312.696 166.728 320.895 165.958 323.849 169.571C324.321 170.185 324.663 170.894 324.851 171.653C325.04 172.412 325.072 173.203 324.944 173.975C324.817 174.747 324.533 175.482 324.111 176.133C323.69 176.784 323.14 177.336 322.498 177.752C319.836 179.66 315.881 179.169 312.998 178.156Z" fill="#263238"/>
<path d="M252.88 121.7C252.796 121.701 254.003 116.111 254.106 115.762C255.431 111.78 260.281 104.901 264.843 104.999C265.601 105.038 266.343 105.241 267.02 105.595C267.697 105.949 268.295 106.447 268.774 107.054C269.254 107.662 269.604 108.367 269.802 109.123C270 109.879 270.042 110.67 269.925 111.444C269.539 114.756 266.6 117.522 263.97 119.094C260.875 120.945 252.88 121.7 252.88 121.7Z" fill="#263238"/>
</g>
<path d="M228.614 140.171C228.614 131.024 241.083 120.262 238.827 111.786C236.48 103.021 220.246 99.9871 215.811 92.3041C211.375 84.6211 216.74 68.9654 210.415 62.6391C204.089 56.3128 188.557 61.7701 180.752 57.2579C172.948 52.7456 170.082 36.5869 161.287 34.2393C152.812 31.9832 142.097 44.4529 132.905 44.4529C123.714 44.4529 112.998 31.9832 104.523 34.2393C95.7589 36.5869 92.7256 52.8219 85.0433 57.2579C77.3609 61.6939 61.7067 56.328 55.3809 62.6543C49.0552 68.9806 54.5121 84.5143 50.0003 92.3193C45.4884 100.124 29.3311 102.99 26.9838 111.786C24.6821 120.262 37.1964 131.024 37.1964 140.171C37.1964 149.317 24.7278 160.079 26.9838 168.555C29.3311 177.32 45.5646 180.354 50.0003 188.037C54.4359 195.72 49.0705 211.376 55.3962 217.702C61.7219 224.028 77.2542 218.571 85.0585 223.083C92.8628 227.595 95.7284 243.754 104.523 246.102C112.998 248.358 123.714 235.888 132.905 235.888C142.097 235.888 152.812 248.358 161.287 246.102C170.052 243.754 173.085 227.519 180.768 223.083C188.45 218.647 204.104 224.013 210.43 217.687C216.756 211.361 211.299 195.827 215.811 188.022C220.322 180.217 236.48 177.351 238.827 168.555C241.129 160.079 228.614 149.317 228.614 140.171Z" fill="#06E7ED"/>
<path d="M129.554 179.317L87.8181 135.644C86.8593 134.635 86.345 133.292 86.3883 131.909C86.4315 130.526 87.0289 129.216 88.0489 128.268C89.0689 127.321 90.428 126.812 91.8272 126.855C93.2264 126.898 94.5512 127.488 95.51 128.497L128.277 162.802L169.659 103.497C170.035 102.896 170.531 102.376 171.117 101.97C171.702 101.564 172.365 101.28 173.065 101.135C173.765 100.99 174.487 100.987 175.188 101.126C175.89 101.266 176.555 101.545 177.143 101.946C177.732 102.348 178.232 102.863 178.613 103.461C178.994 104.06 179.248 104.728 179.36 105.426C179.471 106.125 179.438 106.838 179.262 107.523C179.086 108.209 178.771 108.851 178.336 109.412L129.554 179.317Z" fill="white"/>
</g>
</svg>
