<svg width="250" height="250" viewBox="0 0 250 250" fill="none" xmlns="http://www.w3.org/2000/svg">
<mask id="mask0_1819_10992" style="mask-type:alpha" maskUnits="userSpaceOnUse" x="0" y="0" width="250" height="250">
<circle cx="125" cy="125" r="125" fill="#C4C4C4"/>
</mask>
<g mask="url(#mask0_1819_10992)">
<path opacity="0.1" d="M-8.90197 96.4934C-8.90197 96.4934 -13.3413 144.717 22.7264 183.385C58.7941 222.054 114.027 233.607 158.61 244.152C203.194 254.697 240.866 235.034 250.839 197.466C260.812 159.898 227.911 142.872 214.741 96.0138C201.571 49.1553 205.032 35.0258 168.965 1.53443C132.897 -31.957 69.1668 -25.7407 31.0762 14.9814C-7.01435 55.7036 -8.90197 96.4934 -8.90197 96.4934Z" fill="#06E7ED"/>
<path opacity="0.1" d="M133.007 -17.8698C133.007 -17.8698 84.6345 -20.1816 47.5915 17.5535C10.5484 55.2887 1.43816 110.977 -7.13357 155.981C-15.7053 200.986 5.59745 237.756 43.568 246.065C81.5386 254.375 97.099 220.756 143.332 205.535C189.565 190.315 203.834 193.151 235.704 155.644C267.575 118.136 258.559 54.7416 216.2 18.4809C173.84 -17.7799 133.007 -17.8698 133.007 -17.8698Z" fill="#06E7ED"/>
<g opacity="0.5">
<path d="M-6.17401 201.137C-4.51389 200.553 -1.76546 197.903 -1.55026 197.688C-0.0374041 199.266 1.57918 200.74 3.28868 202.103C4.2786 202.896 5.29927 203.671 6.36298 204.433C5.8342 204.156 5.36691 203.91 5.29927 203.886C3.35017 203.123 -0.849323 202.797 -2.34343 204.611C-2.58727 204.918 -2.76308 205.274 -2.85919 205.654C-2.9553 206.034 -2.96953 206.43 -2.90093 206.816C-2.83232 207.202 -2.68246 207.569 -2.46126 207.893C-2.24007 208.217 -1.9526 208.49 -1.6179 208.694C-0.240612 209.61 1.78228 209.352 3.25179 208.829C4.72131 208.307 7.1377 206.093 7.76486 205.497C8.16452 205.786 8.55803 206.081 8.95769 206.364C10.8822 207.741 12.8129 209.106 14.6636 210.502C15.3153 210.994 15.9363 211.504 16.5635 212.008C16.0962 211.762 15.7027 211.559 15.6412 211.535C13.6921 210.772 9.49261 210.446 7.9985 212.26C7.76094 212.569 7.59096 212.923 7.49964 213.302C7.40831 213.68 7.39768 214.074 7.46844 214.456C7.5392 214.839 7.68976 215.203 7.91033 215.524C8.1309 215.844 8.41652 216.115 8.74863 216.318C10.1259 217.228 12.1488 216.97 13.6183 216.453C15.0878 215.937 17.2706 213.926 18.0146 213.225C18.6294 213.76 19.2443 214.295 19.8591 214.849C20.2465 215.23 20.6462 215.574 21.0151 215.98L22.128 217.161C22.8043 217.929 23.5114 218.722 24.1509 219.497C24.6059 220.032 25.024 220.542 25.4482 221.065C24.8334 220.567 23.5237 219.62 23.413 219.552C21.5685 218.507 17.4919 217.542 15.7519 219.116C15.4701 219.384 15.248 219.708 15.1001 220.068C14.9521 220.428 14.8817 220.814 14.8933 221.203C14.9049 221.592 14.9983 221.974 15.1674 222.324C15.3366 222.674 15.5776 222.985 15.8749 223.235C17.1046 224.342 19.1398 224.397 20.6708 224.108C22.3616 223.783 25.3683 221.68 25.7434 221.415C26.4381 222.276 27.1145 223.125 27.7355 223.93C29.4141 226.094 30.8098 228.019 31.8858 229.575L33.2631 228.849C32.1194 227.275 30.6315 225.295 28.8238 223.069C28.1167 222.19 27.342 221.268 26.5427 220.327C27.3081 219.43 28.0186 218.488 28.6701 217.505C30.3364 218.12 33.7611 218.003 34.2038 217.991C34.3145 219.097 34.4067 220.167 34.4805 221.188C34.6773 223.838 34.7756 226.162 34.831 228.025L36.3251 227.232C36.2329 225.486 36.0914 223.408 35.8639 221.083C35.7594 219.958 35.6241 218.765 35.4704 217.536C35.9008 217.413 39.4363 216.38 40.7398 215.261C41.9326 214.246 43.1623 212.623 43.0639 210.957C43.0536 210.568 42.9615 210.185 42.7936 209.834C42.6257 209.483 42.3858 209.171 42.0894 208.919C41.793 208.666 41.4469 208.479 41.0735 208.37C40.7001 208.26 40.3077 208.23 39.922 208.282C37.6163 208.657 35.7902 212.463 35.4766 214.529C35.4766 214.652 35.4028 215.998 35.3843 216.847C35.3229 216.349 35.2614 215.863 35.1937 215.347C35.0523 214.326 34.8863 213.312 34.7142 212.223C34.6117 211.703 34.5071 211.174 34.4006 210.637C34.3083 210.102 34.1423 209.555 34.0132 209.008C33.6935 207.741 33.3 206.48 32.8819 205.214C33.7734 205.097 36.9338 204.599 38.268 203.794C39.6023 202.988 41.0595 201.549 41.2132 199.908C41.2615 199.521 41.2282 199.129 41.1154 198.757C41.0025 198.385 40.8128 198.04 40.5583 197.745C40.3039 197.451 39.9904 197.213 39.6382 197.048C39.2861 196.882 38.9031 196.792 38.514 196.784C36.1775 196.784 33.798 200.295 33.1709 202.318C33.134 202.447 32.845 203.929 32.7036 204.747C32.4453 203.984 32.1932 203.228 31.9042 202.472C31.0803 200.283 30.1703 198.094 29.2788 195.905L28.4733 193.894C28.7931 193.851 32.5621 193.365 34.0563 192.443C35.3843 191.619 36.8477 190.199 36.9953 188.557C37.053 188.168 37.0271 187.77 36.9193 187.392C36.8114 187.013 36.6242 186.662 36.37 186.361C36.1158 186.06 35.8005 185.817 35.445 185.648C35.0895 185.478 34.702 185.386 34.3083 185.378C31.9657 185.378 29.5862 188.889 28.9652 190.881C28.916 191.035 28.5102 193.169 28.4303 193.716C27.8154 192.24 27.2682 190.758 26.764 189.283C26.0742 187.288 25.5135 185.25 25.0855 183.183C25.233 183.183 29.1743 182.673 30.7053 181.726C32.0272 180.902 33.4906 179.482 33.6443 177.84C33.6935 177.454 33.6611 177.063 33.549 176.69C33.4369 176.318 33.2477 175.973 32.9938 175.678C32.7398 175.384 32.4267 175.146 32.0748 174.98C31.7229 174.815 31.3401 174.725 30.9512 174.717C28.6086 174.717 26.2291 178.228 25.6081 180.22C25.5589 180.38 25.1162 182.679 25.067 183.097C25.067 182.974 25.0055 182.858 24.9809 182.735C24.6087 180.648 24.4215 178.533 24.4214 176.414C24.4214 175.246 24.4583 174.127 24.5321 173.038C25.2761 173.038 28.6701 172.915 30.1457 172.214C31.6214 171.513 33.1586 170.29 33.4967 168.673C33.587 168.295 33.5969 167.902 33.5258 167.519C33.4548 167.137 33.3042 166.774 33.084 166.453C32.8638 166.133 32.5788 165.862 32.2474 165.659C31.9161 165.455 31.5457 165.324 31.1603 165.273C28.8299 165.039 26.0815 168.242 25.2392 170.161C25.1961 170.265 24.8457 171.39 24.6243 172.184C24.6673 171.698 24.6981 171.188 24.7473 170.72C24.9256 168.956 25.2023 167.357 25.4544 165.937C25.6019 165.131 25.7556 164.412 25.9032 163.735C26.6287 163.336 29.5124 161.706 30.4778 160.427C31.4431 159.149 32.2732 157.353 31.8182 155.742C31.7248 155.363 31.5522 155.007 31.3117 154.699C31.0713 154.391 30.7684 154.137 30.4229 153.954C30.0775 153.771 29.6973 153.663 29.3072 153.638C28.9172 153.612 28.5262 153.669 28.1597 153.805C25.9831 154.666 25.024 158.78 25.1592 160.864C25.1592 161.048 25.6819 163.846 25.7188 163.821H25.7618C25.6081 164.467 25.4482 165.162 25.2884 165.93C25.0055 167.345 24.6735 168.943 24.4767 170.708C24.2196 172.606 24.0739 174.517 24.0402 176.432C23.993 178.578 24.137 180.725 24.4706 182.845C24.4706 182.845 24.4706 182.894 24.4706 182.919C24.1632 182.304 23.2409 180.619 23.1548 180.503C21.9251 178.793 18.6233 176.199 16.3913 176.893C16.0239 177.02 15.6871 177.222 15.4029 177.487C15.1186 177.752 14.8932 178.074 14.7413 178.432C14.5894 178.789 14.5144 179.175 14.5212 179.564C14.5279 179.952 14.6162 180.335 14.7804 180.687C15.426 182.206 17.2398 183.11 18.7708 183.491C20.4802 183.915 24.2308 183.22 24.5321 183.165C24.922 185.314 25.4561 187.433 26.1307 189.51C26.5181 190.74 26.9423 191.933 27.3604 193.138C27.0776 192.615 26.8194 192.154 26.7763 192.093C25.5466 190.383 22.2448 187.789 20.0129 188.484C19.6454 188.61 19.3086 188.812 19.0244 189.077C18.7401 189.342 18.5147 189.664 18.3629 190.022C18.211 190.379 18.136 190.765 18.1427 191.154C18.1494 191.542 18.2377 191.925 18.4019 192.277C19.0475 193.802 20.8614 194.7 22.3862 195.081C23.9111 195.462 27.1391 194.94 27.9876 194.786C28.1659 195.247 28.3319 195.708 28.5102 196.169C29.3526 198.383 30.2072 200.584 30.9697 202.767C31.2402 203.535 31.48 204.304 31.7259 205.072C31.4738 204.611 31.2525 204.224 31.2156 204.169C29.9859 202.459 26.6779 199.865 24.4521 200.559C24.0841 200.685 23.7467 200.887 23.4618 201.152C23.1769 201.416 22.9508 201.738 22.7983 202.096C22.6458 202.454 22.5703 202.84 22.5766 203.228C22.5829 203.617 22.671 204 22.8351 204.353C23.4868 205.872 25.2945 206.776 26.8255 207.157C28.3565 207.538 31.2648 207.058 32.2732 206.886C32.5007 207.679 32.7282 208.473 32.888 209.253C32.9987 209.788 33.1463 210.299 33.2323 210.84C33.3184 211.381 33.4168 211.91 33.509 212.432C33.6443 213.453 33.798 214.504 33.9087 215.507C33.9886 216.201 34.0563 216.865 34.1239 217.529C33.8595 216.761 33.3184 215.267 33.2569 215.144C32.3827 213.533 31.1132 212.17 29.5678 211.184C29.4767 211.001 29.3697 210.826 29.248 210.662C29.0248 210.343 28.7371 210.075 28.4034 209.875C28.0698 209.674 27.6978 209.547 27.3116 209.5C26.9254 209.453 26.5336 209.488 26.1617 209.602C25.7898 209.716 25.4462 209.908 25.1531 210.163C23.4315 211.75 24.0156 215.931 24.8887 217.831C24.944 217.941 25.6388 219.091 26.1184 219.811C25.7864 219.429 25.5036 219.054 25.1285 218.667C24.4521 217.892 23.7512 217.136 23.0072 216.324L21.8697 215.168C21.5008 214.781 21.0581 214.412 20.64 214.025C19.6747 213.152 18.654 212.309 17.6088 211.492C18.2851 210.877 20.6831 208.755 21.2979 207.329C21.9128 205.902 22.3862 203.923 21.6053 202.465C21.4371 202.114 21.1964 201.802 20.899 201.549C20.6017 201.297 20.2544 201.111 19.88 201.002C19.5055 200.894 19.1123 200.865 18.7262 200.92C18.3401 200.974 17.9698 201.108 17.6395 201.316C15.6965 202.625 15.6351 206.849 16.213 208.86C16.2499 208.983 16.8279 210.379 17.1599 211.135C16.5451 210.649 15.9302 210.157 15.2415 209.684C13.3478 208.313 11.3802 206.985 9.43113 205.657L7.64804 204.427C7.89398 204.218 10.7654 201.734 11.5032 200.123C12.155 198.702 12.5915 196.716 11.8106 195.259C11.6382 194.914 11.3955 194.61 11.0981 194.364C10.8007 194.119 10.4553 193.939 10.084 193.835C9.71275 193.731 9.32388 193.707 8.94245 193.762C8.56102 193.818 8.19549 193.953 7.86938 194.159C5.92643 195.462 5.86494 199.692 6.44906 201.697C6.4921 201.844 7.32831 203.855 7.56195 204.353C6.25845 203.443 4.96725 202.508 3.72523 201.574C2.04704 200.292 0.453292 198.904 -1.04608 197.417C-0.935403 197.319 2.08356 194.737 2.83369 193.113C3.48544 191.699 3.92813 189.707 3.14726 188.25C2.97492 187.901 2.73112 187.592 2.4317 187.344C2.13228 187.096 1.78394 186.913 1.40932 186.808C1.03471 186.703 0.642198 186.678 0.257304 186.735C-0.12759 186.791 -0.496253 186.929 -0.824728 187.137C-2.76768 188.447 -2.82917 192.671 -2.24505 194.675C-2.20201 194.835 -1.29817 196.993 -1.10756 197.368L-1.3781 197.116C-2.84184 195.584 -4.165 193.923 -5.33165 192.154C-5.98955 191.183 -6.56137 190.224 -7.10244 189.277C-6.48759 188.852 -3.72072 186.885 -2.87836 185.489C-2.036 184.093 -1.42114 182.224 -2.036 180.693C-2.16829 180.327 -2.37616 179.993 -2.64608 179.713C-2.916 179.432 -3.24194 179.212 -3.60268 179.066C-3.96342 178.919 -4.35088 178.851 -4.73987 178.864C-5.12886 178.878 -5.51066 178.973 -5.86043 179.144C-7.9325 180.232 -8.45513 184.425 -8.09852 186.485C-8.09852 186.596 -7.76034 187.715 -7.48366 188.52C-7.7173 188.09 -7.9694 187.647 -8.1846 187.229C-9.00851 185.661 -9.66641 184.155 -10.2382 182.858C-10.5518 182.101 -10.8531 181.413 -11.0744 180.767C-10.6932 180.041 -9.18682 177.078 -9.08844 175.492C-8.99006 173.905 -9.34668 171.907 -10.5764 170.831C-10.8625 170.567 -11.2009 170.367 -11.5696 170.242C-11.9383 170.118 -12.329 170.072 -12.7164 170.109C-13.1038 170.145 -13.4791 170.263 -13.8181 170.454C-14.157 170.645 -14.4519 170.906 -14.6837 171.218C-16.0241 173.137 -14.5545 177.096 -13.2879 178.763C-13.1773 178.91 -11.2097 180.958 -11.1913 180.921V180.878C-10.9638 181.493 -10.7117 182.175 -10.4288 182.901C-9.88161 184.235 -9.25445 185.741 -8.46743 187.334C-7.62997 189.06 -6.69171 190.735 -5.65752 192.351C-4.5138 194.166 -3.21134 195.876 -1.76546 197.46L-1.71013 197.516C-2.32499 197.171 -4.00355 196.286 -4.16957 196.225C-6.11867 195.462 -10.3182 195.136 -11.8061 196.95C-12.0438 197.258 -12.2141 197.612 -12.3059 197.989C-12.3976 198.367 -12.4087 198.76 -12.3385 199.142C-12.2684 199.524 -12.1184 199.888 -11.8985 200.208C-11.6786 200.529 -11.3936 200.799 -11.0621 201.002C-9.66641 201.93 -7.64967 201.66 -6.17401 201.137Z" fill="#333333"/>
<path d="M24.2244 172.7C24.2675 172.7 23.6096 169.933 23.5481 169.761C22.841 167.793 20.3139 164.412 17.9713 164.492C17.5836 164.517 17.2056 164.624 16.8616 164.804C16.5176 164.985 16.2154 165.236 15.9743 165.541C15.7333 165.846 15.5589 166.197 15.4623 166.574C15.3657 166.95 15.349 167.343 15.4135 167.726C15.641 169.367 17.1597 170.72 18.5247 171.483C20.1233 172.38 24.2183 172.7 24.2244 172.7Z" fill="#333333"/>
<path d="M263.14 201.137C261.479 200.553 258.731 197.903 258.51 197.688C256.998 199.267 255.382 200.742 253.671 202.103C252.681 202.896 251.66 203.671 250.627 204.433C251.15 204.156 251.623 203.91 251.691 203.886C253.64 203.123 257.839 202.797 259.327 204.611C259.565 204.919 259.735 205.274 259.826 205.652C259.917 206.029 259.928 206.422 259.857 206.805C259.786 207.187 259.636 207.55 259.415 207.87C259.195 208.191 258.909 208.461 258.577 208.663C257.2 209.579 255.183 209.321 253.708 208.798C252.232 208.276 249.822 206.062 249.201 205.466L248.002 206.333C246.077 207.71 244.153 209.075 242.302 210.471C241.65 210.963 241.023 211.473 240.396 211.977C240.863 211.731 241.257 211.528 241.324 211.504C243.267 210.741 247.473 210.416 248.961 212.229C249.198 212.538 249.368 212.893 249.46 213.271C249.551 213.65 249.562 214.043 249.491 214.426C249.42 214.808 249.27 215.172 249.049 215.493C248.829 215.814 248.543 216.084 248.211 216.287C246.834 217.197 244.811 216.939 243.341 216.423C241.872 215.906 239.689 213.896 238.945 213.195C238.33 213.73 237.715 214.265 237.1 214.818C236.707 215.199 236.307 215.543 235.938 215.949C235.569 216.355 235.194 216.736 234.831 217.13C234.149 217.898 233.448 218.692 232.802 219.466C232.354 220.001 231.929 220.512 231.505 221.034C232.151 220.536 233.43 219.589 233.546 219.522C235.354 218.476 239.467 217.511 241.201 219.085C241.483 219.353 241.705 219.677 241.853 220.037C242.001 220.397 242.072 220.784 242.06 221.172C242.048 221.561 241.955 221.943 241.786 222.293C241.617 222.643 241.376 222.954 241.078 223.205C239.849 224.311 237.82 224.367 236.283 224.078C234.598 223.752 231.591 221.649 231.216 221.385C230.515 222.245 229.845 223.094 229.218 223.899C227.545 226.064 226.143 227.988 225.067 229.544L223.684 228.818C224.828 227.244 226.322 225.264 228.123 223.039C228.83 222.159 229.605 221.237 230.411 220.296C229.644 219.398 228.932 218.456 228.277 217.474C226.611 218.089 223.186 217.972 222.743 217.96C222.639 219.067 222.54 220.136 222.467 221.157C222.27 223.807 222.171 226.131 222.122 227.994L220.622 227.201C220.714 225.455 220.862 223.377 221.083 221.053C221.194 219.927 221.329 218.735 221.477 217.505C221.046 217.382 217.517 216.349 216.207 215.23C215.021 214.215 213.791 212.592 213.889 210.926C213.899 210.537 213.99 210.155 214.157 209.804C214.325 209.452 214.564 209.141 214.86 208.888C215.156 208.636 215.501 208.449 215.875 208.339C216.248 208.229 216.64 208.199 217.025 208.251C219.337 208.626 221.157 212.432 221.471 214.498C221.471 214.621 221.544 215.968 221.563 216.816C221.63 216.318 221.686 215.832 221.76 215.316C221.895 214.295 222.061 213.281 222.239 212.192C222.337 211.67 222.442 211.141 222.547 210.606C222.651 210.071 222.805 209.524 222.934 208.977C223.26 207.71 223.647 206.45 224.065 205.183C223.174 205.066 220.013 204.568 218.679 203.763C217.345 202.957 215.888 201.518 215.74 199.877C215.691 199.491 215.723 199.099 215.835 198.727C215.947 198.354 216.137 198.01 216.391 197.715C216.645 197.42 216.958 197.183 217.31 197.017C217.661 196.851 218.044 196.761 218.433 196.753C220.776 196.753 223.155 200.264 223.776 202.287C223.819 202.416 224.102 203.898 224.244 204.716C224.502 203.953 224.76 203.197 225.043 202.441C225.873 200.252 226.777 198.063 227.668 195.874C227.945 195.204 228.209 194.534 228.474 193.863C228.16 193.82 224.385 193.335 222.891 192.412C221.569 191.589 220.106 190.168 219.952 188.527C219.903 188.141 219.935 187.749 220.047 187.376C220.159 187.004 220.348 186.659 220.602 186.365C220.856 186.07 221.169 185.832 221.521 185.667C221.873 185.501 222.256 185.411 222.645 185.403C224.988 185.403 227.367 188.914 227.994 190.906C228.037 191.06 228.449 193.193 228.523 193.741C229.138 192.265 229.685 190.783 230.195 189.307C230.887 187.313 231.45 185.275 231.88 183.208C231.733 183.208 227.797 182.698 226.266 181.751C224.938 180.927 223.475 179.507 223.321 177.865C223.273 177.479 223.306 177.087 223.419 176.714C223.532 176.342 223.722 175.997 223.976 175.703C224.231 175.408 224.544 175.171 224.896 175.005C225.248 174.839 225.631 174.75 226.02 174.741C228.363 174.741 230.736 178.252 231.364 180.244C231.413 180.404 231.849 182.704 231.899 183.122C231.899 182.999 231.966 182.882 231.985 182.759C232.36 180.673 232.547 178.558 232.544 176.438C232.544 175.27 232.507 174.151 232.433 173.063C231.69 173.063 228.295 172.94 226.826 172.239C225.356 171.538 223.807 170.314 223.475 168.697C223.384 168.319 223.373 167.926 223.444 167.543C223.514 167.16 223.665 166.797 223.885 166.476C224.106 166.156 224.391 165.885 224.723 165.682C225.055 165.479 225.426 165.348 225.811 165.297C228.142 165.063 230.89 168.267 231.726 170.185C231.776 170.29 232.12 171.415 232.341 172.208C232.298 171.722 232.267 171.212 232.218 170.745C232.04 168.98 231.769 167.381 231.511 165.961C231.364 165.156 231.21 164.436 231.062 163.76C230.343 163.36 227.459 161.731 226.494 160.452C225.529 159.173 224.699 157.378 225.147 155.767C225.241 155.389 225.413 155.036 225.652 154.73C225.892 154.423 226.193 154.17 226.536 153.988C226.879 153.805 227.257 153.697 227.645 153.669C228.033 153.642 228.422 153.697 228.787 153.83C230.964 154.691 231.923 158.804 231.788 160.889C231.788 161.073 231.265 163.871 231.228 163.846H231.185C231.339 164.492 231.505 165.186 231.665 165.955C231.948 167.369 232.28 168.968 232.477 170.732C232.731 172.631 232.875 174.542 232.907 176.457C232.956 178.603 232.814 180.749 232.483 182.87V182.944C232.79 182.329 233.712 180.644 233.798 180.527C235.028 178.818 238.33 176.223 240.562 176.918C240.93 177.044 241.267 177.245 241.552 177.51C241.837 177.775 242.063 178.097 242.215 178.455C242.367 178.813 242.442 179.199 242.434 179.588C242.427 179.977 242.338 180.36 242.173 180.712C241.527 182.23 239.713 183.134 238.189 183.515C236.479 183.94 232.722 183.245 232.421 183.19C232.031 185.338 231.497 187.458 230.823 189.535C230.435 190.765 230.011 191.957 229.593 193.163C229.876 192.64 230.134 192.179 230.177 192.117C231.407 190.408 234.715 187.813 236.94 188.508C237.308 188.634 237.646 188.836 237.931 189.1C238.216 189.365 238.442 189.687 238.594 190.045C238.747 190.402 238.822 190.788 238.816 191.177C238.81 191.566 238.722 191.949 238.557 192.302C237.906 193.827 236.098 194.724 234.567 195.106C233.036 195.487 229.814 194.964 228.966 194.81L228.449 196.194C227.601 198.407 226.746 200.608 225.99 202.791C225.719 203.56 225.479 204.328 225.24 205.097C225.492 204.636 225.707 204.248 225.744 204.193C226.974 202.484 230.281 199.889 232.507 200.584C232.875 200.71 233.212 200.913 233.496 201.178C233.78 201.443 234.005 201.764 234.157 202.122C234.309 202.48 234.384 202.865 234.377 203.254C234.371 203.643 234.282 204.025 234.118 204.378C233.466 205.896 231.659 206.8 230.128 207.181C228.597 207.563 225.688 207.083 224.68 206.911C224.459 207.704 224.231 208.497 224.065 209.278C223.955 209.813 223.807 210.323 223.727 210.864C223.647 211.405 223.543 211.934 223.45 212.457C223.309 213.478 223.161 214.529 223.051 215.531C222.965 216.226 222.897 216.89 222.829 217.554C223.094 216.785 223.641 215.291 223.696 215.168C224.558 213.538 225.824 212.155 227.373 211.153C227.46 210.968 227.567 210.792 227.693 210.631C227.916 210.312 228.203 210.044 228.536 209.844C228.869 209.644 229.24 209.516 229.626 209.469C230.012 209.422 230.403 209.457 230.775 209.571C231.146 209.686 231.489 209.877 231.782 210.133C233.503 211.719 232.925 215.9 232.046 217.8C231.991 217.911 231.296 219.06 230.816 219.78C231.148 219.399 231.468 219.024 231.812 218.636C232.489 217.861 233.184 217.105 233.934 216.294L235.065 215.138C235.44 214.75 235.883 214.381 236.295 213.994C237.26 213.121 238.281 212.279 239.332 211.461C238.656 210.846 236.258 208.725 235.643 207.298C235.028 205.872 234.549 203.892 235.329 202.435C235.501 202.085 235.745 201.776 236.044 201.527C236.343 201.278 236.691 201.095 237.066 200.989C237.441 200.884 237.833 200.858 238.218 200.914C238.604 200.971 238.973 201.107 239.301 201.316C241.244 202.625 241.3 206.849 240.722 208.86C240.685 208.983 240.107 210.379 239.775 211.135C240.39 210.649 241.035 210.157 241.693 209.684C243.593 208.313 245.555 206.985 247.51 205.656L249.287 204.427C249.047 204.218 246.169 201.734 245.432 200.123C244.78 198.702 244.343 196.716 245.124 195.259C245.296 194.91 245.539 194.6 245.839 194.351C246.138 194.103 246.486 193.92 246.861 193.814C247.236 193.709 247.629 193.685 248.014 193.742C248.399 193.799 248.768 193.937 249.096 194.146C251.033 195.45 251.094 199.68 250.517 201.685C250.473 201.832 249.637 203.843 249.397 204.341C250.707 203.431 251.998 202.496 253.234 201.562C254.914 200.282 256.508 198.893 258.006 197.405C257.895 197.307 254.882 194.724 254.126 193.101C253.474 191.687 253.037 189.695 253.818 188.238C253.99 187.889 254.233 187.58 254.532 187.332C254.831 187.084 255.179 186.901 255.553 186.796C255.927 186.691 256.319 186.666 256.704 186.723C257.088 186.779 257.456 186.916 257.784 187.125C259.727 188.434 259.789 192.658 259.204 194.663C259.161 194.823 258.264 196.981 258.073 197.356L258.344 197.104C259.804 195.57 261.125 193.909 262.291 192.142C262.949 191.17 263.521 190.211 264.062 189.264C263.447 188.84 260.68 186.873 259.844 185.477C259.008 184.081 258.387 182.212 259.002 180.681C259.134 180.315 259.342 179.981 259.612 179.7C259.882 179.42 260.207 179.199 260.568 179.053C260.929 178.907 261.316 178.839 261.705 178.852C262.094 178.866 262.476 178.961 262.826 179.131C264.898 180.22 265.421 184.413 265.064 186.473C265.064 186.584 264.72 187.703 264.449 188.508C264.683 188.078 264.935 187.635 265.156 187.217C265.98 185.649 266.632 184.143 267.204 182.845C267.524 182.089 267.819 181.4 268.046 180.755C267.659 180.029 266.159 177.066 266.054 175.479C265.949 173.893 266.269 171.907 267.517 170.831C267.803 170.567 268.142 170.367 268.511 170.242C268.879 170.118 269.27 170.072 269.657 170.109C270.045 170.145 270.42 170.263 270.759 170.454C271.098 170.645 271.393 170.906 271.625 171.218C272.965 173.137 271.496 177.096 270.235 178.763C270.124 178.91 268.151 180.958 268.132 180.921V180.878C267.911 181.493 267.659 182.175 267.37 182.901C266.829 184.235 266.202 185.741 265.408 187.334C264.575 189.059 263.641 190.735 262.611 192.351C261.471 194.169 260.168 195.879 258.719 197.46L258.663 197.516C259.278 197.171 260.957 196.286 261.123 196.225C263.066 195.462 267.271 195.136 268.759 196.95C268.997 197.258 269.167 197.612 269.258 197.99C269.349 198.368 269.36 198.761 269.289 199.144C269.218 199.526 269.068 199.889 268.847 200.209C268.627 200.529 268.341 200.8 268.009 201.002C266.632 201.93 264.609 201.66 263.14 201.137Z" fill="#333333"/>
<path d="M232.741 172.7C232.698 172.7 233.356 169.933 233.411 169.761C234.119 167.793 236.652 164.412 238.988 164.492C239.376 164.516 239.755 164.622 240.099 164.803C240.444 164.983 240.746 165.234 240.988 165.539C241.229 165.844 241.403 166.196 241.499 166.573C241.596 166.95 241.611 167.342 241.546 167.726C241.325 169.367 239.8 170.72 238.441 171.483C236.842 172.38 232.741 172.7 232.741 172.7Z" fill="#333333"/>
</g>
<path d="M36.9746 152.945L124.265 103.815L213.695 152.945V224.17H38.0497L36.9746 152.945Z" fill="#333333" stroke="#333333" stroke-linecap="round" stroke-linejoin="round"/>
<path d="M190.674 117.067H60.0068V233.275H190.674V117.067Z" fill="white" stroke="#333333" stroke-miterlimit="10"/>
<path d="M75.084 137.498H104.399" stroke="#06E7ED" stroke-width="2" stroke-miterlimit="10"/>
<path d="M74.9971 147.592H174.07" stroke="#333333" stroke-miterlimit="10"/>
<path d="M74.9971 157.767H174.07" stroke="#06E7ED" stroke-miterlimit="10"/>
<path d="M74.9971 167.942H174.07" stroke="#333333" stroke-miterlimit="10"/>
<path d="M74.9971 178.116H174.07" stroke="#333333" stroke-miterlimit="10"/>
<path d="M74.9971 188.291H174.07" stroke="#333333" stroke-miterlimit="10"/>
<path d="M213.695 250.948H36.9746V152.945L125.34 212.925L213.695 152.945V250.948Z" fill="#06E7ED" stroke="#333333" stroke-miterlimit="10"/>
<path d="M36.9746 250.948L101.227 196.53" stroke="#333333" stroke-miterlimit="10"/>
<path d="M213.415 250.949L149.64 196.443" stroke="#333333" stroke-miterlimit="10"/>
</g>
</svg>
