<svg width="350" height="350" viewBox="0 0 350 350" fill="none" xmlns="http://www.w3.org/2000/svg">
<mask id="mask0_1819_11594" style="mask-type:alpha" maskUnits="userSpaceOnUse" x="0" y="0" width="350" height="350">
<circle cx="175" cy="175" r="175" fill="#C4C4C4"/>
</mask>
<g mask="url(#mask0_1819_11594)">
<path opacity="0.1" d="M456.185 258.212C458.564 226.602 451.212 193.599 441.361 164.226C426.788 120.492 398.33 75.6763 350.504 65.3259C322.927 59.3773 294.862 65.7542 271.21 80.6968C248.475 95.0684 230.76 113.64 202.791 117.233C174.511 120.873 145.495 119.41 117.073 119.41C43.9892 119.41 -15.3174 196.181 -0.493716 276.153C14.33 356.125 84.2368 411.577 143.543 411.577C196.842 411.577 240.694 379.609 291.316 371.02C316.419 366.76 341.629 371.805 366.47 365.428C395.344 358.004 422.493 340.313 438.494 314.699C449.392 297.234 454.698 277.997 456.185 258.212Z" fill="#06E7ED"/>
<path opacity="0.1" d="M479.37 199.771C482.698 155.616 472.415 109.517 458.639 68.487C438.257 7.39841 398.459 -55.2024 331.574 -69.6603C293.006 -77.9694 253.757 -69.062 220.681 -48.1895C188.885 -28.1147 164.111 -2.17368 124.995 2.84502C85.4459 7.9302 44.8655 5.88615 5.11703 5.88615C-97.0909 5.88615 -180.032 113.124 -159.301 224.831C-138.57 336.539 -40.8042 413.996 42.1368 413.996C116.676 413.996 178.004 369.343 248.799 357.345C283.905 351.396 319.161 358.442 353.902 349.534C394.283 339.165 432.251 314.453 454.629 278.674C469.87 254.279 477.29 227.407 479.37 199.771Z" fill="#06E7ED"/>
<g opacity="0.5">
<path d="M28.3937 266.712C31.769 266.411 38.272 262.561 38.2833 262.561C38.2946 262.561 34.5042 258.91 34.231 258.706C31.1243 256.435 23.8109 253.817 20.3548 256.422C19.7916 256.87 19.3268 257.435 18.9907 258.08C18.6546 258.725 18.4548 259.436 18.4043 260.166C18.3538 260.896 18.4537 261.629 18.6976 262.317C18.9414 263.005 19.3237 263.632 19.8195 264.158C21.8455 266.479 25.5471 266.96 28.3937 266.712Z" fill="#263238"/>
<path d="M41.1187 285.107C44.1445 283.966 49.1101 278.911 49.4987 278.5C52.3109 281.43 55.3105 284.164 58.4773 286.684C60.3112 288.151 62.201 289.583 64.1693 290.991C63.1935 290.483 62.3311 290.032 62.2066 289.988C58.6165 288.603 50.9155 288.096 48.2258 291.546C47.7871 292.13 47.4743 292.803 47.3081 293.521C47.1419 294.238 47.1262 294.984 47.2619 295.709C47.3976 296.433 47.6816 297.12 48.0952 297.724C48.5088 298.327 49.0425 298.834 49.6609 299.209C52.2076 300.898 55.9063 300.361 58.5846 299.341C61.2628 298.32 65.6316 294.094 66.7649 292.956C67.5045 293.49 68.233 294.035 68.9724 294.557C72.5335 297.1 76.1055 299.619 79.5319 302.199C80.7385 303.108 81.8893 304.052 83.0512 304.985C82.1889 304.534 81.4628 304.162 81.3495 304.117C77.7594 302.732 70.0584 302.225 67.3686 305.676C66.9415 306.262 66.6394 306.934 66.4819 307.648C66.3245 308.363 66.3152 309.103 66.4548 309.822C66.5943 310.54 66.8796 311.22 67.2919 311.818C67.7043 312.416 68.2346 312.918 68.8482 313.292C71.3947 314.969 75.0935 314.432 77.7719 313.423C80.4503 312.414 84.3963 308.576 85.7409 307.239C86.8811 308.229 88.0213 309.22 89.1619 310.246C89.8814 310.953 90.6224 311.591 91.3088 312.345L93.378 314.538C94.6369 315.967 95.9527 317.442 97.1442 318.883C97.9916 319.878 98.7707 320.828 99.5614 321.8C98.4222 320.879 95.9986 319.13 95.7941 319.006C92.3881 317.086 84.8957 315.373 81.7493 318.378C81.2401 318.89 80.8417 319.506 80.5801 320.186C80.3184 320.867 80.1994 321.596 80.2308 322.327C80.2621 323.058 80.4432 323.774 80.7621 324.429C81.081 325.084 81.5306 325.662 82.0816 326.126C84.3629 328.177 88.0924 328.23 90.8893 327.647C93.9781 326.992 99.431 322.959 100.111 322.452C101.406 324.054 102.667 325.633 103.826 327.133C106.957 331.163 109.563 334.748 111.575 337.648L114.079 336.248C111.943 333.315 109.166 329.628 105.797 325.486C104.479 323.85 103.036 322.134 101.547 320.384C102.926 318.677 104.203 316.886 105.371 315.021C108.439 316.135 114.709 315.829 115.52 315.794C115.751 317.874 115.948 319.885 116.11 321.803C116.539 326.784 116.78 331.154 116.929 334.658L119.646 333.128C119.431 329.845 119.118 325.938 118.641 321.571C118.42 319.457 118.142 317.216 117.828 314.906C118.613 314.664 125.063 312.631 127.421 310.493C129.58 308.554 131.79 305.468 131.567 302.336C131.538 301.604 131.359 300.887 131.042 300.23C130.726 299.574 130.278 298.993 129.729 298.526C129.179 298.059 128.54 297.716 127.853 297.519C127.167 297.322 126.447 297.276 125.742 297.383C121.528 298.147 118.282 305.354 117.761 309.249C117.764 309.481 117.664 312.016 117.653 313.613C117.527 312.677 117.402 311.765 117.264 310.795C116.979 308.878 116.648 306.974 116.305 304.93C116.103 303.953 115.898 302.961 115.689 301.954C115.506 300.949 115.188 299.924 114.937 298.898C114.319 296.523 113.565 294.161 112.766 291.789C114.396 291.546 120.172 290.529 122.596 288.98C125.019 287.431 127.651 284.687 127.889 281.594C127.968 280.867 127.897 280.13 127.68 279.432C127.464 278.734 127.107 278.09 126.634 277.543C126.16 276.995 125.58 276.556 124.93 276.253C124.281 275.951 123.577 275.791 122.864 275.786C118.584 275.845 114.317 282.511 113.22 286.333C113.156 286.577 112.665 289.372 112.427 290.914C111.935 289.486 111.453 288.07 110.904 286.654C109.338 282.556 107.614 278.461 105.924 274.365L104.397 270.603C104.981 270.514 111.873 269.504 114.585 267.731C116.997 266.148 119.641 263.438 119.868 260.346C119.964 259.611 119.906 258.864 119.699 258.155C119.491 257.445 119.139 256.788 118.666 256.229C118.192 255.67 117.608 255.22 116.953 254.91C116.297 254.601 115.585 254.438 114.864 254.433C110.573 254.492 106.305 261.158 105.219 264.922C105.133 265.212 104.445 269.237 104.313 270.268C103.148 267.508 102.108 264.733 101.146 261.97C99.8302 258.234 98.7502 254.415 97.9123 250.536C98.1827 250.533 105.389 249.473 108.169 247.652C110.569 246.069 113.212 243.359 113.451 240.267C113.532 239.54 113.462 238.803 113.247 238.105C113.032 237.407 112.676 236.764 112.204 236.216C111.731 235.668 111.151 235.228 110.502 234.926C109.853 234.623 109.15 234.464 108.437 234.458C104.146 234.517 99.8784 241.183 98.7927 244.947C98.7067 245.249 97.9556 249.587 97.8763 250.375C97.8731 250.143 97.7575 249.925 97.7092 249.694C96.9732 245.778 96.5753 241.804 96.52 237.816C96.4896 235.618 96.5281 233.512 96.635 231.462C97.9978 231.444 104.212 231.126 106.897 229.77C109.581 228.414 112.365 226.073 112.943 223.022C113.098 222.308 113.106 221.569 112.966 220.851C112.826 220.134 112.541 219.454 112.129 218.857C111.717 218.26 111.188 217.758 110.576 217.383C109.964 217.009 109.282 216.771 108.575 216.684C104.3 216.303 99.3486 222.4 97.8554 226.031C97.7793 226.228 97.1666 228.354 96.7817 229.852C96.848 228.937 96.891 227.976 96.969 227.096C97.2497 223.771 97.715 220.756 98.1399 218.078C98.3892 216.558 98.6521 215.201 98.9048 213.925C100.223 213.154 105.463 210.016 107.198 207.585C108.933 205.154 110.407 201.756 109.532 198.736C109.351 198.024 109.026 197.36 108.577 196.786C108.129 196.212 107.567 195.742 106.93 195.407C106.292 195.072 105.593 194.879 104.878 194.84C104.163 194.802 103.448 194.919 102.78 195.185C98.8155 196.859 97.1654 204.623 97.4674 208.541C97.4722 208.888 98.5023 214.139 98.5692 214.091L98.648 214.09C98.3832 215.309 98.1085 216.62 97.8356 218.07C97.3543 220.738 96.7876 223.754 96.4731 227.079C96.0514 230.657 95.8341 234.257 95.8222 237.861C95.7914 241.9 96.1111 245.934 96.7773 249.916C96.7773 249.916 96.7786 250.008 96.7792 250.054C96.2001 248.905 94.4669 245.759 94.3061 245.541C92.0091 242.356 85.8936 237.558 81.8232 238.922C81.1534 239.169 80.5418 239.558 80.028 240.064C79.5142 240.57 79.1097 241.181 78.8408 241.858C78.5718 242.535 78.4444 243.262 78.4669 243.993C78.4893 244.724 78.661 245.442 78.9709 246.1C80.193 248.941 83.5391 250.596 86.3534 251.275C89.4955 252.03 96.3478 250.627 96.8982 250.516C97.6683 254.548 98.7017 258.523 99.9915 262.414C100.733 264.718 101.541 266.951 102.338 269.208C101.807 268.232 101.322 267.371 101.241 267.256C98.9442 264.071 92.8286 259.273 88.7583 260.637C88.0884 260.884 87.4768 261.273 86.963 261.779C86.4492 262.285 86.0447 262.896 85.7758 263.573C85.5069 264.249 85.3795 264.977 85.4019 265.708C85.4243 266.439 85.5961 267.157 85.906 267.815C87.1282 270.668 90.4741 272.311 93.2772 272.989C96.0803 273.668 101.98 272.603 103.53 272.292C103.869 273.156 104.185 274.019 104.523 274.882C106.124 279.025 107.747 283.145 109.2 287.233C109.715 288.672 110.175 290.112 110.645 291.552C110.171 290.691 109.756 289.967 109.687 289.864C107.39 286.679 101.263 281.881 97.2039 283.245C96.5331 283.491 95.9202 283.879 95.4052 284.384C94.8902 284.89 94.4845 285.501 94.2144 286.178C93.9444 286.855 93.816 287.582 93.8377 288.314C93.8594 289.045 94.0307 289.764 94.3404 290.423C95.5737 293.264 98.9085 294.919 101.723 295.598C104.537 296.276 109.852 295.3 111.695 294.951C112.132 296.437 112.569 297.924 112.882 299.389C113.099 300.393 113.383 301.349 113.554 302.365C113.726 303.381 113.92 304.373 114.103 305.354C114.377 307.271 114.686 309.245 114.915 311.128C115.079 312.433 115.22 313.681 115.361 314.929C114.857 313.489 113.827 310.692 113.711 310.462C112.068 307.453 109.707 304.921 106.851 303.105C106.679 302.763 106.479 302.437 106.251 302.13C105.834 301.536 105.3 301.039 104.684 300.671C104.068 300.303 103.383 300.072 102.674 299.993C101.965 299.915 101.249 299.99 100.57 300.215C99.8922 300.439 99.2677 300.808 98.7375 301.297C95.6251 304.325 96.8037 312.177 98.4525 315.729C98.5567 315.936 99.8593 318.082 100.756 319.423C100.138 318.714 99.6105 318.016 98.9134 317.297C97.6544 315.856 96.3508 314.451 94.9669 312.943L92.8532 310.797C92.1674 310.077 91.3468 309.394 90.5709 308.676C88.7799 307.058 86.8884 305.499 84.9525 303.986C86.1754 302.813 90.5128 298.761 91.602 296.061C92.6912 293.362 93.507 289.625 92.0387 286.903C91.7213 286.246 91.2723 285.664 90.7211 285.197C90.1699 284.731 89.5289 284.389 88.8402 284.194C88.1514 283.999 87.4305 283.956 86.7247 284.067C86.0188 284.179 85.344 284.442 84.7443 284.84C81.2193 287.353 81.2165 295.302 82.3274 299.071C82.3982 299.301 83.4932 301.912 84.121 303.327C82.9821 302.429 81.8431 301.519 80.5693 300.645C77.0647 298.113 73.4261 295.664 69.8213 293.215L66.5231 290.946C66.9682 290.547 72.1633 285.801 73.473 282.751C74.63 280.062 75.378 276.315 73.9097 273.593C73.5849 272.948 73.1324 272.381 72.5813 271.927C72.0302 271.473 71.3927 271.143 70.71 270.957C70.0272 270.771 69.3142 270.734 68.617 270.849C67.9197 270.963 67.2537 271.227 66.6617 271.622C63.1365 274.123 63.1338 282.084 64.2559 285.84C64.3385 286.117 65.9225 289.879 66.3635 290.81C63.9521 289.131 61.5626 287.405 59.2632 285.678C56.1559 283.31 53.2004 280.738 50.4152 277.978C50.6154 277.791 56.0784 272.855 57.4102 269.782C58.5673 267.105 59.3265 263.346 57.8582 260.624C57.5335 259.972 57.0789 259.397 56.5239 258.938C55.969 258.478 55.3262 258.143 54.6372 257.955C53.9483 257.767 53.2287 257.73 52.5251 257.846C51.8215 257.963 51.1498 258.23 50.5535 258.63C47.0285 261.144 47.0256 269.093 48.1477 272.849C48.2307 273.149 49.9424 277.187 50.3013 277.887L49.7992 277.42C47.0782 274.574 44.6113 271.483 42.4283 268.184C41.1979 266.373 40.1255 264.583 39.1098 262.815C40.225 262.001 45.2422 258.229 46.7489 255.582C48.2556 252.935 49.3333 249.402 48.1672 246.537C47.9154 245.852 47.526 245.229 47.0242 244.708C46.5225 244.187 45.9197 243.781 45.2552 243.515C44.5906 243.249 43.879 243.13 43.1668 243.165C42.4546 243.2 41.7578 243.389 41.1215 243.719C37.3542 245.819 36.5059 253.722 37.2126 257.588C37.2155 257.796 37.864 259.893 38.3918 261.402C37.9526 260.598 37.4794 259.771 37.0743 258.99C35.5243 256.061 34.28 253.244 33.1989 250.817C32.6048 249.402 32.035 248.114 31.6128 246.905C32.2922 245.53 34.9746 239.916 35.1136 236.929C35.2526 233.942 34.5474 230.191 32.2668 228.198C31.7359 227.709 31.1109 227.34 30.4323 227.115C29.7537 226.891 29.0368 226.815 28.3281 226.894C27.6194 226.972 26.9349 227.203 26.319 227.571C25.7031 227.939 25.1697 228.437 24.7533 229.03C22.3479 232.674 25.1426 240.087 27.5061 243.19C27.7126 243.464 31.37 247.267 31.4028 247.197L31.4017 247.116C31.8344 248.267 32.3139 249.545 32.8508 250.903C33.8879 253.399 35.0759 256.218 36.5589 259.194C38.1378 262.42 39.9 265.549 41.8364 268.563C43.9787 271.948 46.4089 275.133 49.0986 278.078L49.2014 278.18C48.0662 277.548 44.9684 275.925 44.6627 275.813C41.0726 274.428 33.3716 273.921 30.6931 277.372C30.2657 277.956 29.963 278.627 29.8047 279.34C29.6465 280.053 29.6363 280.792 29.7748 281.509C29.9133 282.227 30.1974 282.906 30.6086 283.504C31.0198 284.101 31.5488 284.603 32.1612 284.976C34.742 286.688 38.4292 286.128 41.1187 285.107Z" fill="#263238"/>
<path d="M96.0632 230.834C96.142 230.833 94.865 225.644 94.7479 225.322C93.4015 221.638 88.6846 215.339 84.3956 215.549C83.686 215.607 82.9963 215.817 82.3709 216.165C81.7455 216.514 81.1984 216.994 80.7648 217.573C80.3312 218.153 80.0208 218.819 79.8536 219.53C79.6865 220.24 79.6662 220.979 79.7943 221.698C80.2537 224.781 83.0707 227.288 85.5909 228.688C88.5426 230.337 96.0519 230.835 96.0632 230.834Z" fill="#263238"/>
<path d="M377.14 280.466C374.084 279.409 368.981 274.493 368.569 274.093C365.842 277.103 362.919 279.919 359.82 282.522C358.028 284.039 356.178 285.523 354.306 286.983C355.256 286.45 356.117 285.975 356.24 285.927C359.791 284.443 367.475 283.724 370.247 287.099C370.69 287.672 371.011 288.335 371.188 289.043C371.365 289.752 371.394 290.491 371.275 291.212C371.155 291.933 370.889 292.62 370.493 293.228C370.097 293.836 369.581 294.352 368.979 294.741C366.48 296.5 362.779 296.065 360.062 295.119C357.345 294.173 352.873 290.069 351.72 288.963L349.546 290.624C346.056 293.264 342.567 295.881 339.213 298.554C338.032 299.496 336.896 300.472 335.761 301.437C336.61 300.962 337.326 300.57 337.449 300.522C340.988 299.039 348.683 298.319 351.456 301.694C351.899 302.268 352.22 302.932 352.397 303.642C352.574 304.351 352.604 305.091 352.484 305.813C352.365 306.535 352.098 307.223 351.703 307.832C351.307 308.441 350.791 308.958 350.188 309.348C347.688 311.095 343.976 310.661 341.271 309.726C338.566 308.792 334.515 305.064 333.134 303.764C332.022 304.786 330.909 305.808 329.797 306.865C329.087 307.592 328.363 308.25 327.698 309.023C327.033 309.796 326.356 310.522 325.702 311.272C324.471 312.735 323.208 314.245 322.046 315.719C321.237 316.737 320.473 317.708 319.71 318.702C320.88 317.749 323.198 315.935 323.41 315.804C326.694 313.792 334.204 311.872 337.421 314.789C337.944 315.287 338.359 315.891 338.639 316.564C338.92 317.237 339.059 317.963 339.048 318.695C339.037 319.426 338.875 320.147 338.575 320.81C338.274 321.474 337.84 322.064 337.303 322.543C335.079 324.657 331.363 324.812 328.54 324.307C325.446 323.737 319.884 319.857 319.19 319.369C317.928 321.006 316.722 322.619 315.595 324.151C312.587 328.265 310.069 331.922 308.139 334.876L305.586 333.546C307.64 330.555 310.325 326.792 313.567 322.559C314.84 320.887 316.235 319.132 317.686 317.341C316.259 315.672 314.93 313.916 313.704 312.086C310.668 313.285 304.392 313.151 303.58 313.139C303.418 315.224 303.265 317.24 303.157 319.162C302.865 324.153 302.745 328.528 302.704 332.035L299.935 330.58C300.058 327.293 300.275 323.379 300.62 319C300.793 316.881 301.01 314.633 301.248 312.315C300.457 312.095 293.965 310.241 291.537 308.168C289.337 306.29 287.042 303.267 287.179 300.129C287.186 299.398 287.344 298.676 287.641 298.011C287.938 297.346 288.368 296.753 288.904 296.271C289.439 295.788 290.068 295.428 290.748 295.212C291.429 294.996 292.146 294.93 292.854 295.018C297.098 295.665 300.531 302.78 301.159 306.659C301.162 306.89 301.332 309.422 301.388 311.018C301.499 310.079 301.588 309.164 301.71 308.19C301.931 306.266 302.209 304.353 302.507 302.301C302.674 301.315 302.851 300.318 303.029 299.309C303.206 298.3 303.474 297.266 303.696 296.233C304.26 293.842 304.937 291.461 305.67 289.067C304.034 288.87 298.232 288.013 295.767 286.531C293.302 285.049 290.595 282.379 290.282 279.294C290.182 278.569 290.231 277.831 290.427 277.128C290.622 276.424 290.96 275.771 291.418 275.21C291.875 274.649 292.442 274.194 293.083 273.873C293.723 273.553 294.422 273.374 295.134 273.349C299.425 273.29 303.875 279.835 305.065 283.625C305.147 283.867 305.704 286.648 305.984 288.183C306.438 286.742 306.891 285.313 307.389 283.883C308.853 279.743 310.452 275.602 312.028 271.461C312.517 270.193 312.984 268.925 313.451 267.658C312.876 267.585 305.948 266.766 303.187 265.069C300.744 263.552 298.026 260.917 297.702 257.832C297.602 257.107 297.651 256.369 297.847 255.666C298.042 254.962 298.38 254.309 298.838 253.748C299.295 253.188 299.862 252.732 300.503 252.411C301.143 252.091 301.842 251.912 302.554 251.887C306.845 251.828 311.295 258.373 312.496 262.106C312.579 262.394 313.389 266.397 313.538 267.425C314.626 264.633 315.59 261.831 316.486 259.042C317.702 255.271 318.68 251.424 319.414 247.524C319.143 247.527 311.922 246.667 309.093 244.924C306.639 243.407 303.921 240.772 303.597 237.687C303.499 236.962 303.549 236.224 303.746 235.52C303.943 234.816 304.282 234.163 304.74 233.603C305.199 233.042 305.767 232.587 306.408 232.267C307.048 231.946 307.748 231.767 308.46 231.742C312.751 231.683 317.19 238.228 318.391 241.961C318.485 242.26 319.344 246.576 319.445 247.361C319.442 247.13 319.563 246.908 319.594 246.676C320.227 242.742 320.515 238.757 320.454 234.77C320.424 232.572 320.327 230.467 320.164 228.422C318.801 228.44 312.581 228.295 309.871 227.013C307.161 225.732 304.291 223.469 303.64 220.435C303.463 219.725 303.434 218.986 303.553 218.264C303.673 217.542 303.939 216.855 304.334 216.246C304.729 215.637 305.245 215.12 305.848 214.729C306.45 214.339 307.126 214.083 307.832 213.978C312.094 213.48 317.212 219.437 318.794 223.026C318.887 223.221 319.546 225.329 319.973 226.816C319.881 225.903 319.812 224.944 319.709 224.066C319.337 220.75 318.8 217.749 318.29 215.083C317.999 213.572 317.698 212.222 317.41 210.953C316.082 210.22 310.758 207.227 308.956 204.845C307.155 202.463 305.587 199.106 306.368 196.064C306.53 195.352 306.836 194.682 307.266 194.1C307.696 193.517 308.241 193.034 308.865 192.681C309.489 192.329 310.178 192.116 310.888 192.055C311.598 191.994 312.312 192.087 312.985 192.328C316.994 193.892 318.858 201.607 318.665 205.533C318.67 205.88 317.785 211.156 317.717 211.111L317.638 211.112C317.936 212.323 318.258 213.626 318.571 215.068C319.126 217.722 319.776 220.721 320.182 224.036C320.698 227.601 321.011 231.193 321.119 234.795C321.265 238.832 321.061 242.873 320.509 246.872L320.511 247.011C321.058 245.846 322.703 242.653 322.858 242.431C325.066 239.184 331.047 234.219 335.153 235.469C335.831 235.696 336.454 236.068 336.983 236.559C337.511 237.05 337.933 237.65 338.221 238.319C338.509 238.989 338.656 239.713 338.653 240.445C338.65 241.177 338.496 241.9 338.203 242.566C337.06 245.44 333.761 247.187 330.977 247.942C327.857 248.784 320.958 247.572 320.404 247.475C319.746 251.528 318.823 255.53 317.641 259.454C316.963 261.778 316.217 264.033 315.483 266.311C315.987 265.32 316.448 264.446 316.526 264.329C318.734 261.082 324.726 256.117 328.821 257.368C329.498 257.595 330.122 257.966 330.65 258.457C331.179 258.948 331.602 259.547 331.89 260.217C332.179 260.886 332.327 261.61 332.326 262.342C332.324 263.074 332.173 263.797 331.882 264.464C330.727 267.35 327.439 269.084 324.645 269.84C321.85 270.596 315.935 269.695 314.377 269.427L313.467 272.043C311.97 276.229 310.462 280.392 309.133 284.518C308.657 285.971 308.238 287.423 307.819 288.875C308.269 288.001 308.653 287.267 308.719 287.162C310.927 283.915 316.919 278.949 321.014 280.2C321.691 280.429 322.313 280.801 322.84 281.292C323.368 281.784 323.789 282.383 324.077 283.052C324.364 283.722 324.512 284.445 324.509 285.176C324.507 285.908 324.355 286.63 324.064 287.297C322.909 290.171 319.621 291.917 316.827 292.673C314.032 293.429 308.693 292.6 306.841 292.302C306.456 293.8 306.06 295.298 305.776 296.771C305.587 297.781 305.33 298.745 305.198 299.765C305.066 300.785 304.888 301.782 304.733 302.768C304.5 304.692 304.257 306.674 304.08 308.562C303.941 309.872 303.834 311.123 303.728 312.374C304.192 310.921 305.155 308.096 305.254 307.863C306.79 304.773 309.073 302.14 311.884 300.216C312.038 299.864 312.23 299.532 312.457 299.225C312.856 298.62 313.375 298.108 313.98 297.723C314.585 297.338 315.262 297.089 315.968 296.99C316.673 296.892 317.391 296.948 318.074 297.154C318.757 297.359 319.391 297.71 319.933 298.184C323.128 301.125 322.178 309.006 320.617 312.603C320.518 312.813 319.276 314.994 318.416 316.359C319.014 315.634 319.59 314.92 320.211 314.183C321.429 312.708 322.683 311.267 324.035 309.721L326.078 307.518C326.755 306.779 327.556 306.074 328.301 305.335C330.046 303.668 331.894 302.057 333.799 300.492C332.544 299.352 328.096 295.422 326.933 292.753C325.769 290.085 324.839 286.372 326.232 283.611C326.538 282.949 326.975 282.361 327.517 281.885C328.058 281.409 328.692 281.055 329.375 280.847C330.059 280.639 330.777 280.581 331.484 280.677C332.191 280.773 332.871 281.021 333.479 281.405C337.072 283.82 337.283 291.766 336.276 295.563C336.212 295.796 335.19 298.436 334.601 299.868C335.715 298.938 336.885 297.996 338.077 297.089C341.522 294.461 345.08 291.913 348.627 289.364L351.85 287.006C351.406 286.618 346.07 282.018 344.677 279.005C343.446 276.35 342.595 272.624 343.987 269.863C344.292 269.201 344.73 268.613 345.272 268.137C345.814 267.661 346.448 267.307 347.132 267.1C347.816 266.893 348.535 266.837 349.241 266.935C349.948 267.032 350.627 267.282 351.234 267.668C354.816 270.072 355.038 278.029 354.032 281.815C353.957 282.094 352.477 285.898 352.051 286.841C354.426 285.096 356.767 283.305 359.007 281.515C362.05 279.064 364.933 276.412 367.639 273.574C367.433 273.392 361.847 268.609 360.42 265.574C359.189 262.93 358.338 259.193 359.73 256.431C360.036 255.771 360.473 255.185 361.014 254.71C361.555 254.235 362.188 253.882 362.87 253.675C363.553 253.468 364.27 253.412 364.976 253.508C365.682 253.605 366.36 253.853 366.966 254.237C370.559 256.652 370.781 264.598 369.764 268.384C369.689 268.686 368.101 272.769 367.761 273.48L368.25 272.999C370.885 270.076 373.261 266.918 375.352 263.563C376.532 261.718 377.554 259.899 378.521 258.104C377.384 257.321 372.264 253.69 370.696 251.085C369.128 248.48 367.942 244.979 369.028 242.083C369.261 241.391 369.633 240.757 370.12 240.222C370.608 239.688 371.199 239.265 371.856 238.981C372.513 238.697 373.221 238.558 373.934 238.573C374.647 238.589 375.349 238.758 375.994 239.071C379.818 241.066 380.884 248.942 380.284 252.827C380.287 253.035 379.685 255.149 379.211 256.671C379.628 255.856 380.078 255.016 380.472 254.224C381.941 251.253 383.096 248.403 384.109 245.947C384.675 244.516 385.198 243.213 385.598 241.993C384.87 240.637 382.044 235.099 381.812 232.117C381.579 229.135 382.113 225.391 384.371 223.335C384.889 222.831 385.503 222.445 386.175 222.202C386.848 221.958 387.562 221.863 388.273 221.922C388.983 221.981 389.674 222.193 390.3 222.544C390.926 222.895 391.473 223.377 391.905 223.959C394.41 227.535 391.821 235.022 389.556 238.189C389.357 238.47 385.795 242.372 385.76 242.303L385.759 242.222C385.369 243.384 384.925 244.675 384.415 246.047C383.458 248.571 382.349 251.421 380.937 254.438C379.455 257.706 377.788 260.881 375.943 263.948C373.903 267.397 371.561 270.648 368.946 273.66L368.847 273.766C369.964 273.102 373.016 271.394 373.318 271.274C376.857 269.79 384.553 269.071 387.325 272.446C387.768 273.019 388.089 273.682 388.266 274.39C388.443 275.099 388.472 275.838 388.353 276.559C388.233 277.28 387.967 277.967 387.571 278.575C387.175 279.184 386.659 279.699 386.057 280.088C383.558 281.87 379.845 281.412 377.14 280.466Z" fill="#263238"/>
<path d="M320.719 227.732C320.64 227.733 321.773 222.51 321.87 222.185C323.114 218.465 327.667 212.038 331.949 212.13C332.66 212.166 333.356 212.356 333.992 212.687C334.628 213.017 335.189 213.482 335.638 214.05C336.088 214.617 336.417 215.276 336.603 215.982C336.789 216.689 336.828 217.427 336.718 218.15C336.355 221.244 333.597 223.828 331.128 225.297C328.223 227.026 320.719 227.732 320.719 227.732Z" fill="#263238"/>
</g>
<path d="M27.966 123.994C24.1174 116.575 22.5039 111.258 22.5039 110.028C22.5039 107.595 27.7941 106.14 27.7941 106.14C36.0467 101.775 74.8633 108.084 92.3341 110.994C102.114 112.699 112.008 113.671 121.933 113.903C121.933 113.903 124.353 111.972 127.223 109.539C130.093 107.105 143.715 91.1025 149.058 89.7006C154.401 88.2987 159.241 91.6447 159.241 91.6447C159.241 91.6447 167.983 96.9349 166.515 97.9533C165.047 98.9716 143.715 117.355 138.372 120.754C133.029 124.153 121.88 122.698 112.172 124.642C103.814 126.309 69.9567 128.372 62.1934 129.007C56.3631 130.389 50.2439 129.88 44.7226 127.552" fill="white"/>
<path d="M159.333 91.5919C159.333 91.5919 154.48 88.1929 149.15 89.6477C143.82 91.1025 130.224 107.118 127.315 109.486C124.405 111.853 122.024 113.85 122.024 113.85C112.1 113.618 102.206 112.646 92.4259 110.941C74.9551 108.031 36.1385 101.683 27.8859 106.087C27.8859 106.087 22.5957 107.542 22.5957 109.975C22.7795 111.336 23.1304 112.668 23.6405 113.943L24.3679 114.207C24.3679 114.207 34.0621 113.189 54.9847 113.692C75.9073 114.194 124.299 117.064 127.407 118.188C128.73 118.691 138.106 116.575 148.502 112.898C156.437 106.431 165.761 98.35 166.7 97.7813C168.075 96.9217 159.333 91.5919 159.333 91.5919Z" fill="#06E7ED"/>
<path opacity="0.5" d="M159.333 91.5919C159.333 91.5919 154.48 88.1929 149.15 89.6477C143.82 91.1025 130.224 107.118 127.315 109.486C124.405 111.853 122.024 113.85 122.024 113.85C112.1 113.618 102.206 112.646 92.4259 110.941C74.9551 108.031 36.1385 101.683 27.8859 106.087C27.8859 106.087 22.5957 107.542 22.5957 109.975C22.7795 111.336 23.1304 112.668 23.6405 113.943L24.3679 114.207C24.3679 114.207 34.0621 113.189 54.9847 113.692C75.9073 114.194 124.299 117.064 127.407 118.188C128.73 118.691 138.106 116.575 148.502 112.898C156.437 106.431 165.761 98.35 166.7 97.7813C168.075 96.9217 159.333 91.5919 159.333 91.5919Z" fill="white"/>
<path d="M27.966 123.994C24.1174 116.575 22.5039 111.258 22.5039 110.028C22.5039 107.595 27.7941 106.14 27.7941 106.14C36.0467 101.775 74.8633 108.084 92.3341 110.994C102.114 112.699 112.008 113.671 121.933 113.903C121.933 113.903 124.353 111.972 127.223 109.539C130.093 107.105 143.715 91.1025 149.058 89.7006C154.401 88.2987 159.241 91.6447 159.241 91.6447C159.241 91.6447 167.983 96.9349 166.515 97.9533C165.047 98.9716 143.715 117.355 138.372 120.754C133.029 124.153 121.88 122.698 112.172 124.642C103.814 126.309 69.9567 128.372 62.1934 129.007C56.3631 130.389 50.2439 129.88 44.7226 127.552" stroke="#263238" stroke-linecap="round" stroke-linejoin="round"/>
<path d="M219.617 167.136C220.494 165.469 221.811 164.075 223.424 163.103C225.037 162.131 226.885 161.618 228.769 161.621H316.982C316.982 161.621 323.357 161.621 321.452 173.735C319.548 185.85 293.388 259.819 287.066 282.183C280.745 304.548 279.409 351.683 279.409 351.683H173.605C173.605 351.683 181.99 238.963 219.617 167.136Z" fill="white"/>
<path opacity="0.16" d="M259.346 161.621H228.768C226.885 161.618 225.037 162.131 223.424 163.103C221.811 164.075 220.494 165.469 219.616 167.136C181.99 238.963 173.513 351.643 173.513 351.643H220.965L232.67 307.193L281.472 317.257C281.816 313.528 282.212 309.732 282.675 305.989L281.604 294.086C281.604 294.086 271.606 283.572 268.458 280.94C265.31 278.308 267.4 273.56 266.871 253.048C266.342 232.535 247.932 217.789 241.081 205.159C234.231 192.528 244.771 184.633 254.241 172.003C257.613 167.44 258.989 164.081 259.346 161.621Z" fill="black"/>
<path d="M219.617 167.136C220.494 165.469 221.811 164.075 223.424 163.103C225.037 162.131 226.885 161.618 228.769 161.621H316.982C316.982 161.621 323.357 161.621 321.452 173.735C319.548 185.85 293.388 259.819 287.066 282.183C280.745 304.548 279.409 351.683 279.409 351.683H173.605C173.605 351.683 181.99 238.963 219.617 167.136Z" stroke="#263238" stroke-linecap="round" stroke-linejoin="round"/>
<path d="M306.992 185.462C298.078 206.266 279.219 288.62 276.15 354.443H284.668C284.668 354.443 285.99 307.255 292.325 284.944C298.66 262.632 324.846 188.649 326.711 176.495C328.576 164.341 322.241 164.381 322.241 164.381C322.241 164.381 314.147 168.785 306.992 185.462Z" fill="#263238" stroke="#263238" stroke-linecap="round" stroke-linejoin="round"/>
<path d="M146.716 141.081C146.716 141.081 132.644 132.829 127.314 118.281C121.984 103.733 169.04 80.4294 189.474 78.9746C209.907 77.5198 215.673 82.8497 227.827 103.719C239.981 124.589 248.208 153.209 241.899 167.281C235.591 181.353 224.918 184.751 232.641 196.377C240.365 208.002 262.24 241.012 260.785 256.539C259.33 272.066 244.293 285.635 222.431 287.116C200.57 288.597 171.474 275.465 147.218 254.053C122.963 232.641 129.258 201.151 137.961 190.967C146.663 180.784 159.796 176.896 160.761 166.712C161.727 156.528 146.716 141.081 146.716 141.081Z" fill="#263238" stroke="#263238" stroke-linecap="round" stroke-linejoin="round"/>
<path d="M206.695 118.056C214.168 131.969 223.518 150.604 226.441 161.859C231.546 181.565 205.28 193.97 212.567 203.453" stroke="white" stroke-linecap="round" stroke-linejoin="round"/>
<path d="M196.512 99.8306C196.512 99.8306 199.421 104.79 203.442 112.091" stroke="white" stroke-linecap="round" stroke-linejoin="round"/>
<path d="M235.711 134.839C236.573 137.446 237.132 140.145 237.377 142.88" stroke="white" stroke-linecap="round" stroke-linejoin="round"/>
<path d="M201.564 92.5967C201.564 92.5967 224.55 109.578 233.729 129.906" stroke="white" stroke-linecap="round" stroke-linejoin="round"/>
<path d="M169.663 105.333C153.251 109.935 129.643 117.408 131.561 121.719" stroke="white" stroke-linecap="round" stroke-linejoin="round"/>
<path d="M184.832 101.286C184.832 101.286 181.328 102.159 176.104 103.561" stroke="white" stroke-linecap="round" stroke-linejoin="round"/>
<path d="M164.531 92.716C173.933 89.7531 183.779 88.4552 193.627 88.8807" stroke="white" stroke-linecap="round" stroke-linejoin="round"/>
<path d="M157.839 95.4536C159.325 94.6791 160.863 94.0075 162.441 93.4434" stroke="white" stroke-linecap="round" stroke-linejoin="round"/>
<path d="M22.5045 110.027C22.4985 110.12 22.4985 110.213 22.5045 110.305C22.4985 110.213 22.4985 110.12 22.5045 110.027ZM27.9666 123.993C25.7391 119.914 23.9651 115.604 22.6764 111.138C23.9589 115.606 25.7332 119.917 27.9666 123.993ZM22.531 110.384C22.531 110.464 22.531 110.556 22.531 110.675C22.5574 110.556 22.5442 110.464 22.531 110.384ZM22.5971 110.755C22.6134 110.884 22.6399 111.013 22.6764 111.138C22.6399 111.013 22.6134 110.884 22.5971 110.755ZM27.9666 123.98C32.9129 133.349 39.0667 142.028 46.2706 149.796C63.7413 168.722 114.209 218.224 119.01 221.623C123.811 225.022 122.409 234.716 119.01 244.424C115.611 254.131 102.994 268.23 103.484 283.73C103.973 299.23 108.774 323.036 108.337 327.89C107.901 332.743 95.76 349.249 95.76 349.249H220.952C220.952 349.249 205.346 329.41 205.346 322.626C205.346 315.841 226.771 228.911 227.736 222.602C228.702 216.294 224.827 211.929 217.064 211.44C209.3 210.95 179.702 204.642 178.247 199.788C176.792 194.934 186.01 176.498 186.01 176.498L156.914 177.953C156.914 177.953 155.46 190.57 153.515 193.004C151.571 195.437 148.662 190.57 141.864 187.184C135.066 183.799 122.026 180.876 117.119 176.988C112.212 173.099 65.6855 129.376 65.6855 129.376" fill="white"/>
<path d="M124.554 180.73C126.974 184.963 129.394 188.785 129.394 188.785C129.394 188.785 137.554 193.374 139.591 193.374C141.628 193.374 153.874 199.987 153.874 199.987C153.874 199.987 164.084 197.434 160.487 188.758C159.352 186.537 157.92 184.482 156.229 182.648C155.62 186.497 154.642 191.536 153.491 192.977C151.547 195.397 148.637 190.544 141.839 187.158C137.435 184.963 130.307 182.952 124.554 180.73Z" fill="#06E7ED"/>
<path d="M99.6361 161.091C84.6517 147.218 65.6865 129.429 65.6865 129.429L54.6565 127.842L53.334 128.583C53.334 128.583 84.4666 156.131 91.0925 159.2C93.7731 160.432 96.686 161.077 99.6361 161.091Z" fill="#06E7ED"/>
<path d="M115.334 175.454L114.144 174.396C114.752 175.401 115.096 176.035 115.096 176.035L115.334 175.454Z" fill="#06E7ED"/>
<g opacity="0.5">
<path opacity="0.5" d="M124.554 180.73C126.974 184.963 129.394 188.785 129.394 188.785C129.394 188.785 137.554 193.374 139.591 193.374C141.628 193.374 153.874 199.987 153.874 199.987C153.874 199.987 164.084 197.434 160.487 188.758C159.352 186.537 157.92 184.482 156.229 182.648C155.62 186.497 154.642 191.536 153.491 192.977C151.547 195.397 148.637 190.544 141.839 187.158C137.435 184.963 130.307 182.952 124.554 180.73Z" fill="white"/>
<path opacity="0.5" d="M99.6361 161.091C84.6517 147.218 65.6865 129.429 65.6865 129.429L54.6565 127.842L53.334 128.583C53.334 128.583 84.4666 156.131 91.0925 159.2C93.7731 160.432 96.686 161.077 99.6361 161.091Z" fill="white"/>
<path opacity="0.5" d="M115.334 175.454L114.144 174.396C114.752 175.401 115.096 176.035 115.096 176.035L115.334 175.454Z" fill="white"/>
</g>
<path d="M27.9666 123.98C32.9129 133.349 39.0667 142.028 46.2706 149.796C63.7413 168.722 114.209 218.224 119.01 221.623C123.811 225.022 122.409 234.717 119.01 244.424C115.611 254.131 102.994 268.23 103.484 283.73C103.973 299.23 108.774 323.036 108.337 327.89C107.901 332.743 95.7601 349.249 95.7601 349.249H220.952C220.952 349.249 205.346 329.41 205.346 322.626C205.346 315.841 226.771 228.911 227.736 222.602C228.702 216.294 224.827 211.929 217.064 211.44C209.3 210.95 179.702 204.642 178.247 199.788C176.792 194.934 186.01 176.498 186.01 176.498L156.914 177.953C156.914 177.953 155.46 190.57 153.515 193.004C151.571 195.437 148.662 190.57 141.864 187.184C135.066 183.799 122.026 180.876 117.119 176.988C112.212 173.099 65.6855 129.376 65.6855 129.376M22.5045 110.027C22.4985 110.12 22.4985 110.213 22.5045 110.305C22.4985 110.213 22.4985 110.12 22.5045 110.027V110.027ZM27.9666 123.993C25.7391 119.914 23.9651 115.604 22.6764 111.138C23.9589 115.606 25.7332 119.917 27.9666 123.993V123.993ZM22.531 110.384C22.531 110.464 22.531 110.556 22.531 110.675C22.5574 110.556 22.5442 110.464 22.531 110.384V110.384ZM22.5971 110.755C22.6134 110.884 22.6399 111.013 22.6764 111.138C22.6399 111.013 22.6134 110.884 22.5971 110.755Z" stroke="#263238" stroke-linecap="round" stroke-linejoin="round"/>
<path d="M65.6857 129.43C65.6857 129.43 50.1856 129.721 41.5361 122.592" stroke="#263238" stroke-linecap="round" stroke-linejoin="round"/>
<path d="M178.261 199.789C176.806 194.948 186.024 176.499 186.024 176.499L156.928 177.954C156.928 177.954 155.473 190.571 153.529 193.004C151.585 195.438 148.675 190.571 141.878 187.185C141.362 186.921 140.793 186.669 140.211 186.418L138.452 214.072C138.452 214.072 141.005 240.854 171.608 235.762C184 233.699 197.226 222.642 208.639 210.211C196.895 208.055 179.372 203.505 178.261 199.789Z" fill="white"/>
<path d="M177.44 180.162C177.44 180.162 175.681 190.028 174.266 200.939C172.85 211.85 171.806 219.971 171.806 219.971L178.26 199.789L185.534 178.403C185.534 178.403 178.498 178.403 177.44 180.162Z" fill="#06E7ED"/>
<path opacity="0.5" d="M177.44 180.162C177.44 180.162 175.681 190.028 174.266 200.939C172.85 211.85 171.806 219.971 171.806 219.971L178.26 199.789L185.534 178.403C185.534 178.403 178.498 178.403 177.44 180.162Z" fill="white"/>
<path d="M178.261 199.789C176.806 194.948 186.024 176.499 186.024 176.499L156.928 177.954C156.928 177.954 155.473 190.571 153.529 193.004C151.585 195.438 148.675 190.571 141.878 187.185C141.362 186.921 140.793 186.669 140.211 186.418L138.452 214.072C138.452 214.072 141.005 240.854 171.608 235.762C184 233.699 197.226 222.642 208.639 210.211C196.895 208.055 179.372 203.505 178.261 199.789Z" stroke="#263238" stroke-linecap="round" stroke-linejoin="round"/>
<path d="M153.515 193.004C151.571 195.424 148.662 190.571 141.864 187.185C137.579 185.029 130.755 183.072 125.107 180.956C123.507 177.16 121.391 172.214 120.029 169.225C117.608 163.935 113.72 167.281 113.72 167.281C111.692 164.973 110.052 162.351 108.866 159.517C106.446 154.227 102.558 154.664 97.2281 153.698C91.8983 152.733 80.7228 142.536 80.7228 142.536C80.7228 142.536 75.4988 138.568 73.343 136.598C70.8302 141.544 64.8126 150.246 51.7988 155.682C72.5495 177.358 114.646 218.542 119.063 221.637C123.917 225.023 122.462 234.73 119.063 244.438C115.664 254.145 103.047 268.243 103.537 283.744C104.026 299.244 108.827 323.05 108.39 327.903C107.954 332.228 98.2729 345.784 96.1701 348.694L101.103 349.249H126.787C126.641 336.235 126.655 283.122 135.555 261.961C145.752 237.64 153.515 193.004 153.515 193.004Z" fill="#06E7ED"/>
<path opacity="0.16" d="M141.863 187.185C137.577 185.029 130.753 183.072 125.106 180.956C123.506 177.16 121.39 172.214 120.027 169.225C117.607 163.935 113.719 167.281 113.719 167.281C111.69 164.973 110.051 162.351 108.865 159.517C106.445 154.227 102.557 154.664 97.2268 153.698C91.8969 152.733 80.7215 142.536 80.7215 142.536C80.7215 142.536 75.4974 138.568 73.3417 136.598C72.266 138.698 70.9857 140.687 69.5195 142.536C78.1954 149.876 87.7706 157.653 91.1166 159.2C97.7293 162.255 99.2767 159.702 104.342 162.771C109.407 165.839 115.055 175.996 115.055 175.996C115.055 175.996 118.123 167.823 120.675 173.444C123.228 179.064 129.351 188.745 129.351 188.745C129.351 188.745 137.511 193.335 139.548 193.335C141.148 193.335 148.991 197.408 152.324 199.167C153.064 195.292 153.474 192.964 153.474 192.964C151.57 195.424 148.66 190.571 141.863 187.185Z" fill="black"/>
<path d="M153.515 193.004C151.571 195.424 148.662 190.571 141.864 187.185C137.579 185.029 130.755 183.072 125.107 180.956C123.507 177.16 121.391 172.214 120.029 169.225C117.608 163.935 113.72 167.281 113.72 167.281C111.692 164.973 110.052 162.351 108.866 159.517C106.446 154.227 102.558 154.664 97.2281 153.698C91.8983 152.733 80.7228 142.536 80.7228 142.536C80.7228 142.536 75.4988 138.568 73.343 136.598C70.8302 141.544 64.8126 150.246 51.7988 155.682C72.5495 177.358 114.646 218.542 119.063 221.637C123.917 225.023 122.462 234.73 119.063 244.438C115.664 254.145 103.047 268.243 103.537 283.744C104.026 299.244 108.827 323.05 108.39 327.903C107.954 332.228 98.2729 345.784 96.1701 348.694L101.103 349.249H126.787C126.641 336.235 126.655 283.122 135.555 261.961C145.752 237.64 153.515 193.004 153.515 193.004Z" stroke="#263238" stroke-linecap="round" stroke-linejoin="round"/>
<path d="M153.86 191.312C153.86 191.312 147.829 189.46 144.113 192.714C140.396 195.967 134.855 212.658 131.588 230.763C129.575 241.303 130.964 252.21 135.556 261.909C135.556 261.909 143.187 241.899 145.501 232.152C147.816 222.405 153.86 191.312 153.86 191.312Z" fill="#06E7ED"/>
<path opacity="0.16" d="M142.286 194.261C142.286 194.261 146.651 193.203 148.449 193.811C149.964 194.461 151.379 195.32 152.655 196.364L153.858 191.312C152.053 190.389 150.005 190.052 148 190.346C144.997 190.955 142.286 194.261 142.286 194.261Z" fill="black"/>
<path d="M153.86 191.312C153.86 191.312 147.829 189.46 144.113 192.714C140.396 195.967 134.855 212.658 131.588 230.763C129.575 241.303 130.964 252.21 135.556 261.909C135.556 261.909 143.187 241.899 145.501 232.152C147.816 222.405 153.86 191.312 153.86 191.312Z" stroke="#263238" stroke-linecap="round" stroke-linejoin="round"/>
<path d="M113.244 192.898L121.007 224.441L103.536 184.646" stroke="#263238" stroke-linecap="round" stroke-linejoin="round"/>
<path d="M164.387 349.249H220.965C220.965 349.249 205.359 329.411 205.359 322.626C205.359 315.842 226.784 228.911 227.75 222.602C228.715 216.294 224.84 211.929 217.077 211.44C209.314 210.951 179.715 204.642 178.26 199.789C178.26 199.789 167.098 239.095 163.223 265.783C159.89 288.677 163.342 336.182 164.387 349.249Z" fill="#06E7ED"/>
<path opacity="0.16" d="M217.078 211.44C210.716 211.044 189.701 206.732 181.515 202.526L184.49 209.404C189.882 212.264 195.68 214.28 201.683 215.381C211.536 217.14 220.702 216.797 226.693 225.605L226.984 226.041C227.354 224.348 227.605 223.158 227.685 222.603C228.729 216.294 224.841 211.93 217.078 211.44Z" fill="black"/>
<path d="M164.387 349.249H220.965C220.965 349.249 205.359 329.411 205.359 322.626C205.359 315.842 226.784 228.911 227.75 222.602C228.715 216.294 224.84 211.929 217.077 211.44C209.314 210.951 179.715 204.642 178.26 199.789C178.26 199.789 167.098 239.095 163.223 265.783C159.89 288.677 163.342 336.182 164.387 349.249Z" stroke="#263238" stroke-linecap="round" stroke-linejoin="round"/>
<path d="M178.26 199.789C178.26 199.789 163.289 247.4 163.223 265.783C163.223 265.783 184.489 240.033 187.266 221.941C190.044 203.849 178.26 199.789 178.26 199.789Z" fill="#06E7ED"/>
<path opacity="0.16" d="M175.681 205.872C177.93 205.797 180.164 206.27 182.19 207.252C184.215 208.234 185.971 209.694 187.306 211.506C187.306 211.506 184.37 202.87 178.26 199.789L175.681 205.872Z" fill="black"/>
<path d="M178.26 199.789C178.26 199.789 163.289 247.4 163.223 265.783C163.223 265.783 184.489 240.033 187.266 221.941C190.044 203.849 178.26 199.789 178.26 199.789Z" stroke="#263238" stroke-linecap="round" stroke-linejoin="round"/>
<path d="M338.09 340.295C338.09 340.295 349.054 340.745 356.235 341.777C361.024 342.426 365.846 342.81 370.677 342.927C370.677 342.927 366.71 334.913 362.478 332.651C358.246 330.39 350.575 326.343 344.147 327.242C337.72 328.141 328.528 334.622 329.295 336.685C330.062 338.748 333.488 339.674 338.09 340.295Z" fill="white"/>
<path d="M338.09 340.295C338.09 340.295 349.054 340.745 356.235 341.777C361.024 342.426 365.846 342.81 370.677 342.927C370.677 342.927 366.71 334.913 362.478 332.651C358.246 330.39 350.575 326.343 344.147 327.242C337.72 328.141 328.528 334.622 329.295 336.685C330.062 338.748 333.488 339.674 338.09 340.295Z" fill="#06E7ED"/>
<path opacity="0.5" d="M338.09 340.295C338.09 340.295 349.054 340.745 356.235 341.777C361.024 342.426 365.846 342.81 370.677 342.927C370.677 342.927 366.71 334.913 362.478 332.651C358.246 330.39 350.575 326.343 344.147 327.242C337.72 328.141 328.528 334.622 329.295 336.685C330.062 338.748 333.488 339.674 338.09 340.295Z" fill="white"/>
<path d="M338.09 340.295C338.09 340.295 349.054 340.745 356.235 341.777C361.024 342.426 365.846 342.81 370.677 342.927C370.677 342.927 366.71 334.913 362.478 332.651C358.246 330.39 350.575 326.343 344.147 327.242C337.72 328.141 328.528 334.622 329.295 336.685C330.062 338.748 333.488 339.674 338.09 340.295Z" stroke="#263238" stroke-linecap="round" stroke-linejoin="round"/>
<path d="M350.099 329.597C350.099 329.597 361.684 329.226 363.985 330.39C366.287 331.554 376.682 349.382 375.121 350.678C373.561 351.974 369.249 351.59 369.381 350.149C369.514 348.707 359.806 339.158 359.806 339.158L352.254 337.505L350.099 329.597Z" stroke="#263238" stroke-linecap="round" stroke-linejoin="round"/>
<path d="M343.235 327.202C343.235 327.202 354.966 326.819 357.294 328.009C359.622 329.199 370.149 347.226 368.562 348.548C366.975 349.871 362.637 349.461 362.769 348.006C362.902 346.551 353.075 336.883 353.075 336.883L345.431 335.204L343.235 327.202Z" fill="white"/>
<path d="M343.234 327.202C343.234 327.202 354.965 326.818 357.293 328.009C359.621 329.199 370.148 347.225 368.561 348.548C366.974 349.87 362.636 349.46 362.768 348.006C362.901 346.551 353.074 336.883 353.074 336.883L345.43 335.203L343.234 327.202Z" fill="#06E7ED"/>
<path opacity="0.5" d="M343.234 327.202C343.234 327.202 354.965 326.818 357.293 328.009C359.621 329.199 370.148 347.225 368.561 348.548C366.974 349.87 362.636 349.46 362.768 348.006C362.901 346.551 353.074 336.883 353.074 336.883L345.43 335.203L343.234 327.202Z" fill="white"/>
<path d="M343.235 327.202C343.235 327.202 354.966 326.819 357.294 328.009C359.622 329.199 370.149 347.226 368.562 348.548C366.975 349.871 362.637 349.461 362.769 348.006C362.902 346.551 353.075 336.883 353.075 336.883L345.431 335.204L343.235 327.202Z" stroke="#263238" stroke-linecap="round" stroke-linejoin="round"/>
<path d="M209.856 259.991C218.346 273.071 235.394 306.214 240.367 309.943C248.13 315.763 300.027 329.887 305.026 333.749C310.025 337.611 309.681 341.486 314.416 342.901C319.15 344.316 336.899 348.376 343.67 349.011C350.442 349.646 347.413 345.454 347.413 345.454L335.867 337.518L345.932 335.032C345.932 335.032 356.023 347.173 357.914 347.834C359.805 348.495 363.138 347.834 362.927 346.34C362.556 343.946 351.791 324.359 347.969 323.526C344.147 322.693 320.949 325.906 320.949 325.906C320.949 325.906 272.293 293.094 271.42 291.93C271.42 291.93 268.51 283.678 266.13 280.279C263.749 276.88 262.242 277.858 262.242 277.858C262.242 277.858 263.22 273.481 261.765 272.026L254.002 264.263L253.724 264.633C252.402 261.988 251.079 258.973 249.624 255.534C245.564 245.972 231.188 219.138 228.768 215.263C226.956 212.366 211.773 210.29 204.076 209.417" fill="#06E7ED"/>
<path opacity="0.16" d="M243.658 260.824C250.007 266.458 247.891 266.458 246.475 271.404C245.06 276.351 247.534 269.645 253.525 270.002C259.516 270.359 257.757 278.096 257.043 279.511C256.328 280.927 264.449 282.686 263.034 285.846C261.619 289.007 253.525 293.596 248.949 298.186C244.373 302.775 260.918 290.779 266.552 290.436C268.271 290.317 269.686 290.541 270.876 290.515C269.628 286.976 268.024 283.573 266.089 280.358C263.655 276.959 262.201 277.938 262.201 277.938C262.201 277.938 263.179 273.56 261.724 272.105L253.961 264.342L253.683 264.712C252.361 262.067 251.038 259.052 249.583 255.613C245.523 246.051 231.147 219.217 228.727 215.342C226.915 212.445 211.732 210.369 204.035 209.496L204.736 215.619L204.908 215.752C204.908 215.752 214.417 217.511 217.591 217.868C220.765 218.225 224.64 221.029 224.283 223.158C223.926 225.287 214.774 234.783 217.591 235.497C220.408 236.211 223.582 228.448 226.756 229.506C229.931 230.564 237.271 255.19 243.658 260.824Z" fill="black"/>
<path d="M209.856 259.991C218.346 273.071 235.394 306.214 240.367 309.943C248.13 315.763 300.027 329.887 305.026 333.749C310.025 337.611 309.681 341.486 314.416 342.901C319.15 344.316 336.899 348.376 343.67 349.011C350.442 349.646 347.413 345.454 347.413 345.454L335.867 337.518L345.932 335.032C345.932 335.032 356.023 347.173 357.914 347.834C359.805 348.495 363.138 347.834 362.927 346.34C362.556 343.946 351.791 324.359 347.969 323.526C344.147 322.693 320.949 325.906 320.949 325.906C320.949 325.906 272.293 293.094 271.42 291.93C271.42 291.93 268.51 283.678 266.13 280.279C263.749 276.88 262.242 277.858 262.242 277.858C262.242 277.858 263.22 273.481 261.765 272.026L254.002 264.263L253.724 264.633C252.402 261.988 251.079 258.973 249.624 255.534C245.564 245.972 231.188 219.138 228.768 215.263C226.956 212.366 211.773 210.29 204.076 209.417" stroke="#263238" stroke-linecap="round" stroke-linejoin="round"/>
<path d="M209.989 242.043C209.632 243.234 209.328 244.424 209.09 245.641" stroke="#263238" stroke-linecap="round" stroke-linejoin="round"/>
<path d="M222.843 220.156C218.687 224.893 215.182 230.164 212.421 235.828" stroke="#263238" stroke-linecap="round" stroke-linejoin="round"/>
<path d="M242.271 295.25C245.842 289.959 251.529 283.254 257.798 281.336" stroke="#263238" stroke-linecap="round" stroke-linejoin="round"/>
<path d="M238.317 301.756C238.317 301.756 238.952 300.513 240.09 298.635" stroke="#263238" stroke-linecap="round" stroke-linejoin="round"/>
<path d="M238.317 293.398C238.317 293.398 244.811 277.157 251.305 272.978C257.798 268.799 254.082 277.157 254.082 277.157" stroke="#263238" stroke-linecap="round" stroke-linejoin="round"/>
<path d="M305.026 333.762C310.038 337.637 309.681 341.499 314.416 342.914C319.15 344.329 336.899 348.389 343.67 349.024C350.442 349.659 347.413 345.466 347.413 345.466L335.867 337.531L345.932 335.045C345.932 335.045 356.023 347.186 357.914 347.847C359.805 348.508 363.403 348.746 362.927 346.352C362.001 341.723 351.791 324.372 347.969 323.539C344.146 322.705 320.949 325.919 320.949 325.919C320.949 325.919 276.631 295.501 271.777 292.208C252.957 294.019 244.004 303.872 240.234 309.784L240.367 309.89C248.13 315.762 300.026 329.887 305.026 333.762Z" fill="white"/>
<path d="M362.914 346.406C360.507 340.521 351.778 324.425 347.956 323.592C344.134 322.759 320.937 325.973 320.937 325.973C320.937 325.973 276.618 295.554 271.765 292.261C266.825 292.691 261.978 293.863 257.389 295.74C264.385 299.707 311.018 326.158 316.903 327.335C323.145 328.658 343.975 325.232 347.639 327.692C349.967 329.253 356.897 340.243 361.578 348.046C362.914 347.848 363.404 347.596 362.914 346.406Z" fill="#06E7ED"/>
<path opacity="0.5" d="M362.914 346.406C359.158 337.981 351.778 324.425 347.956 323.592C344.134 322.759 320.937 325.973 320.937 325.973C320.937 325.973 276.618 295.554 271.765 292.261C266.825 292.691 261.978 293.863 257.389 295.74C264.385 299.707 311.018 326.158 316.903 327.335C323.145 328.658 343.975 325.232 347.639 327.692C349.967 329.253 356.897 340.243 361.578 348.046C362.914 347.848 363.443 347.583 362.914 346.406Z" fill="white"/>
<path d="M305.026 333.762C310.038 337.637 309.681 341.499 314.416 342.914C319.15 344.329 336.899 348.389 343.67 349.024C350.442 349.659 347.413 345.466 347.413 345.466L335.867 337.531L345.932 335.045C345.932 335.045 356.023 347.186 357.914 347.847C359.805 348.508 363.403 348.746 362.927 346.352C362.001 341.723 351.791 324.372 347.969 323.539C344.146 322.705 320.949 325.919 320.949 325.919C320.949 325.919 276.631 295.501 271.777 292.208C252.957 294.019 244.004 303.872 240.234 309.784L240.367 309.89C248.13 315.762 300.026 329.887 305.026 333.762Z" stroke="#263238" stroke-linecap="round" stroke-linejoin="round"/>
<path d="M188.139 102.819L148.304 119.444C147.822 126.445 146.088 133.302 143.186 139.692C138.478 149.65 141.229 168.497 145.752 178.667C150.275 188.837 170.206 184.857 177.493 183.587C182.435 182.647 187.276 181.234 191.948 179.368C194.076 180.188 196.377 180.453 198.635 180.138C200.893 179.824 203.034 178.94 204.856 177.569C204.856 177.569 183.537 117.724 188.139 102.819Z" fill="white"/>
<path d="M188.139 102.819L148.304 119.444C147.822 126.445 146.088 133.302 143.186 139.692C138.478 149.65 141.229 168.497 145.752 178.667C146.509 180.303 147.727 181.681 149.257 182.635V181.868C149.257 181.868 141.864 163.55 143.266 152.983C144.667 142.416 150.672 137.113 151.373 130.434C152.074 123.755 151.717 120.581 165.114 115.648C178.511 110.715 184.132 106.139 185.534 111.059C186.936 115.979 192.583 148.407 196.458 156.157C200.333 163.908 199.976 172.028 193.998 175.533C187.956 179.159 181.483 182.012 174.729 184.023L177.546 183.534C182.488 182.594 187.329 181.181 192.001 179.315C194.129 180.135 196.43 180.4 198.688 180.085C200.946 179.771 203.087 178.887 204.909 177.516C204.909 177.516 183.537 117.724 188.139 102.819Z" fill="#06E7ED"/>
<path opacity="0.5" d="M188.139 102.819L148.304 119.444C147.822 126.445 146.088 133.302 143.186 139.692C138.478 149.65 141.229 168.497 145.752 178.667C146.509 180.303 147.727 181.681 149.257 182.635V181.868C149.257 181.868 141.864 163.55 143.266 152.983C144.667 142.416 150.672 137.113 151.373 130.434C152.074 123.755 151.717 120.581 165.114 115.648C178.511 110.715 184.132 106.139 185.534 111.059C186.936 115.979 192.583 148.407 196.458 156.157C200.333 163.908 199.976 172.028 193.998 175.533C187.956 179.159 181.483 182.012 174.729 184.023L177.546 183.534C182.488 182.594 187.329 181.181 192.001 179.315C194.129 180.135 196.43 180.4 198.688 180.085C200.946 179.771 203.087 178.887 204.909 177.516C204.909 177.516 183.537 117.724 188.139 102.819Z" fill="white"/>
<path d="M188.139 102.819L148.304 119.444C147.822 126.445 146.088 133.302 143.186 139.692C138.478 149.65 141.229 168.497 145.752 178.667C150.275 188.837 170.206 184.857 177.493 183.587C182.435 182.647 187.276 181.234 191.948 179.368C194.076 180.188 196.377 180.453 198.635 180.138C200.893 179.824 203.034 178.94 204.856 177.569C204.856 177.569 183.537 117.724 188.139 102.819Z" stroke="#263238" stroke-linecap="round" stroke-linejoin="round"/>
<path d="M205.439 188.877C205.439 191.959 203.693 194.458 201.551 194.458C199.408 194.458 197.676 191.959 197.676 188.877C197.676 185.796 199.408 177.953 201.551 177.953C203.693 177.953 205.439 185.796 205.439 188.877Z" fill="#06E7ED" stroke="#263238" stroke-linecap="round" stroke-linejoin="round"/>
<path d="M239.531 358.288H94.4898L89.7604 278.554C89.6297 277.78 89.6683 276.988 89.8734 276.231C90.0785 275.475 90.4454 274.771 90.9487 274.17C91.4519 273.569 92.0796 273.084 92.7885 272.749C93.4973 272.414 94.2704 272.236 95.0544 272.229H238.91C239.699 272.228 240.478 272.4 241.194 272.731C241.91 273.063 242.545 273.547 243.054 274.149C243.563 274.751 243.935 275.457 244.144 276.218C244.352 276.979 244.392 277.776 244.26 278.554L239.531 358.288Z" fill="#263238" stroke="#263238" stroke-linecap="round" stroke-linejoin="round"/>
<path d="M101.633 274.135H237.865C238.635 274.127 239.397 274.288 240.098 274.605C240.799 274.923 241.422 275.39 241.924 275.973C242.425 276.557 242.793 277.243 243.002 277.984C243.21 278.725 243.254 279.502 243.131 280.262" stroke="white" stroke-linecap="round" stroke-linejoin="round"/>
<path d="M90.8193 279.005C90.933 277.671 91.5454 276.429 92.5345 275.526C93.5236 274.623 94.8166 274.126 96.1557 274.135" stroke="white" stroke-linecap="round" stroke-linejoin="round"/>
<path d="M175.04 316.16C176.104 315.149 176.866 313.854 177.241 312.422C177.615 310.99 177.587 309.48 177.158 308.064C176.729 306.648 175.917 305.384 174.816 304.416C173.715 303.448 172.368 302.816 170.93 302.591C169.493 302.367 168.022 302.56 166.687 303.147C165.352 303.735 164.206 304.694 163.381 305.914C162.556 307.135 162.085 308.567 162.022 310.047C161.958 311.528 162.306 312.997 163.024 314.285L161.45 315.78L161.827 318.448L159.382 317.747L157.413 319.625L157.789 322.29L155.344 321.592L153.649 323.204L153.877 324.843L152.388 324.42L151.4 325.358L151.252 327.826L154.865 328.75L166.592 317.606C167.983 318.239 169.527 318.439 171.03 318.182C172.533 317.925 173.928 317.222 175.04 316.16ZM173.895 306.454C174.195 306.782 174.393 307.193 174.464 307.635C174.535 308.077 174.475 308.531 174.293 308.939C174.111 309.347 173.814 309.69 173.44 309.926C173.066 310.162 172.632 310.28 172.192 310.264C171.753 310.248 171.328 310.1 170.971 309.838C170.614 309.577 170.341 309.213 170.187 308.793C170.033 308.373 170.005 307.916 170.106 307.48C170.207 307.044 170.433 306.648 170.755 306.343C170.968 306.14 171.218 305.982 171.492 305.878C171.765 305.773 172.056 305.725 172.347 305.735C172.639 305.746 172.926 305.814 173.191 305.938C173.457 306.061 173.696 306.237 173.895 306.454Z" fill="#F8F8F8"/>
</g>
</svg>
