<svg width="125" height="132" viewBox="0 0 125 132" fill="none" xmlns="http://www.w3.org/2000/svg">
<path d="M101.701 94.0776C103.738 91.8649 105.593 89.489 107.248 86.9734C107.377 86.7266 107.486 86.4731 107.609 86.2129C107.877 85.6592 108.132 85.1123 108.373 84.5452L114.642 70.1801L119.973 57.9362L124.835 46.7763C125.044 46.2861 125.055 45.7334 124.866 45.2353C124.677 44.7372 124.302 44.3328 123.823 44.108C123.333 43.8779 122.83 43.6344 122.35 43.3876C120.146 42.3069 117.988 41.1229 115.873 39.8588C100.712 30.7968 87.7941 17.3355 83.1076 4.35453C83.0597 4.20877 82.9827 4.07439 82.8814 3.95969C82.7801 3.84498 82.6566 3.75236 82.5185 3.68747C82.5031 3.68548 82.4876 3.68548 82.4722 3.68747C82.3266 3.61894 82.1678 3.5834 82.0072 3.5834C81.8465 3.5834 81.6877 3.61894 81.5422 3.68747C66.3742 10.0446 43.2862 8.16346 24.3254 0.108694C24.0036 -0.0308743 23.6401 -0.0362403 23.3144 0.0937927C22.9887 0.223826 22.7275 0.478641 22.5879 0.802423L5.85443 39.1951C-4.58743 63.1593 -0.920382 91.6361 15.727 115.907L22.8129 126.247C22.9751 126.247 23.1439 126.2 23.2994 126.187C23.3425 126.187 23.3789 126.187 23.4021 126.163C25.4474 125.9 27.4729 125.63 29.4851 125.323C32.765 124.829 36.015 124.292 39.2055 123.675L39.4603 123.628C42.9123 122.825 46.3377 121.987 49.7202 121.09C48.0654 121.424 46.3775 121.711 44.673 121.951L30.0842 123.989L28.7603 122.087L21.691 111.768C21.2177 111.101 20.7544 110.387 20.3109 109.697C19.6357 108.656 18.9837 107.6 18.3549 106.528C17.7327 105.468 17.1303 104.41 16.561 103.33C15.9918 102.249 15.4424 101.168 14.9062 100.084C14.3701 99.0005 13.8769 97.9098 13.4202 96.8159C13.1091 96.0954 12.8146 95.3483 12.5266 94.6112C11.9607 93.1503 11.4245 91.6628 10.9413 90.1753C10.703 89.4382 10.4647 88.701 10.2463 87.9639C9.81274 86.4764 9.42883 84.9855 9.08794 83.4813C8.74704 81.9771 8.45578 80.4995 8.20425 78.9986C7.78265 76.4067 7.502 73.7935 7.3636 71.1707C7.2974 70.0534 7.26764 68.9394 7.26764 67.8354C7.24019 62.6884 7.82465 57.5566 9.00851 52.5497C9.18392 51.8393 9.33947 51.1355 9.54798 50.4418C9.74325 49.7347 9.94181 49.0376 10.1569 48.3339C10.3721 47.6301 10.6037 46.9597 10.8387 46.2593C10.9711 45.9258 11.0969 45.5722 11.2292 45.2353C11.4907 44.5483 11.7489 43.8612 12.0236 43.1975C12.1692 42.8639 12.3016 42.5304 12.4571 42.1769L26.9268 8.96724C31.8934 10.7421 36.9889 12.1271 42.1676 13.1097C43.2995 13.3365 44.4281 13.5299 45.56 13.7034C52.6666 14.847 59.8848 15.117 67.056 14.5072C68.4857 14.3804 69.8989 14.2137 71.2823 14.0002C71.8516 13.9135 72.4208 13.8268 72.9835 13.7067C73.9764 13.5399 74.9361 13.3398 75.8728 13.123C76.8094 12.9062 77.7626 12.6628 78.6859 12.4026C78.6859 12.4026 78.7058 12.4026 78.7158 12.4026C85.6229 25.9973 99.7683 39.6487 116.234 48.4873L101.744 81.6935C95.3234 96.4456 83.2632 108.176 67.8205 115.267C67.4001 115.47 66.9732 115.657 66.5463 115.847C73.2218 113.372 79.4836 110.541 85.1795 107.175C85.5501 106.975 85.8976 106.775 86.2518 106.552C87.4399 105.828 88.5983 105.087 89.7335 104.317C94.1037 101.384 98.12 97.9475 101.701 94.0776Z" fill="url(#paint0_linear_1_13626)"/>
<path d="M67.8339 115.19C67.4136 115.39 66.9867 115.574 66.5597 115.771C66.5309 115.776 66.503 115.787 66.477 115.801L66.4141 115.827C61.5093 117.957 56.4105 119.6 51.1898 120.733C50.7066 120.834 50.2168 120.944 49.727 121.037C48.0721 121.37 46.3743 121.664 44.6699 121.901L30.0843 123.939L28.7605 122.028L21.6845 111.725C21.2112 111.041 20.7512 110.341 20.3011 109.64C17.648 105.555 15.3524 101.245 13.4403 96.7593C13.1292 96.0356 12.828 95.2984 12.54 94.5613C11.9642 93.0971 11.4313 91.6162 10.9547 90.1287C10.7165 89.3916 10.4814 88.6478 10.263 87.9041C9.82944 86.4232 9.44552 84.9289 9.10132 83.4347C8.75712 81.9405 8.46921 80.433 8.22099 78.9487C7.79306 76.3565 7.51127 73.7419 7.37702 71.1174C7.31745 70.0001 7.28103 68.8795 7.28434 67.7821C7.25379 62.6341 7.83715 57.5009 9.0219 52.4931C9.194 51.7793 9.35286 51.0789 9.56137 50.3785C9.75332 49.6714 9.95524 48.9744 10.1704 48.2806C10.3855 47.5835 10.6171 46.8965 10.8521 46.2061C10.9812 45.8725 11.1037 45.5123 11.2394 45.1721C11.4909 44.5051 11.7557 43.8079 12.0337 43.1376C12.176 42.804 12.3183 42.4705 12.4672 42.137L26.9435 8.93066C31.9052 10.7051 36.995 12.0922 42.1678 13.0798C43.2997 13.3021 44.4305 13.4978 45.5601 13.6668C52.6658 14.8093 59.8829 15.0781 67.0529 14.4673C68.4959 14.3372 69.8958 14.1704 71.2825 13.957C71.8518 13.8702 72.4244 13.7802 72.987 13.6701C73.9799 13.4934 74.9297 13.2966 75.8796 13.0864C76.8295 12.8763 77.7727 12.6229 78.6961 12.3627C78.6961 12.3627 78.6961 12.3627 78.716 12.3627C85.6265 25.9574 99.7784 39.6122 116.231 48.4507L101.754 81.6571C95.3369 96.3691 83.2799 108.086 67.8339 115.19Z" fill="url(#paint1_linear_1_13626)"/>
<path d="M107.248 86.9735C90.465 125.563 26.6389 132 26.6389 132L21.8564 124.802C21.8564 124.802 81.0789 121.287 100.275 84.7788L107.248 86.9735Z" fill="url(#paint2_linear_1_13626)"/>
<path d="M34.3008 55.2708L45.1431 79.7352L89.0353 65.847" stroke="white" stroke-width="11.6141" stroke-linecap="round" stroke-linejoin="round"/>
<g style="mix-blend-mode:multiply" opacity="0.2">
<path d="M89.7538 104.248C88.6186 105.019 87.4602 105.759 86.2721 106.483C85.918 106.707 85.5704 106.907 85.1998 107.107C79.5039 110.469 73.2421 113.301 66.5666 115.779C66.5387 115.787 66.5128 115.8 66.4905 115.819C66.4607 115.819 66.4507 115.819 66.4176 115.819C61.5143 117.953 56.4152 119.597 51.1934 120.728C50.7102 120.838 50.217 120.938 49.7272 121.038C46.3613 121.936 42.9358 122.773 39.4674 123.577L39.2126 123.623C36.0221 124.24 32.772 124.777 29.4922 125.271L30.0614 123.937L49.9887 78.203L78.6831 12.3207L82.466 3.64895C82.4814 3.64696 82.497 3.64696 82.5124 3.64895C82.6505 3.71385 82.7739 3.80646 82.8752 3.92117C82.9765 4.03587 83.0535 4.17025 83.1015 4.31601C87.778 17.297 100.695 30.7583 115.867 39.8203C117.982 41.0844 120.139 42.2684 122.344 43.3491C122.83 43.5959 123.337 43.8394 123.816 44.0695C124.296 44.2943 124.67 44.6987 124.86 45.1968C125.049 45.6949 125.038 46.2476 124.829 46.7378L119.967 57.8977L114.636 70.1416L108.367 84.5068C108.126 85.0771 107.871 85.6241 107.603 86.1745C107.48 86.4346 107.371 86.688 107.242 86.9348C105.587 89.4505 103.732 91.8264 101.695 94.0391C98.1204 97.8969 94.1132 101.323 89.7538 104.248Z" fill="#DBDBDB"/>
</g>
<defs>
<linearGradient id="paint0_linear_1_13626" x1="-39.0837" y1="116.962" x2="19.6445" y2="-20.6644" gradientUnits="userSpaceOnUse">
<stop stop-color="#46C7FF"/>
<stop offset="0.6402" stop-color="#70E5FE"/>
<stop offset="1" stop-color="#89F7FE"/>
</linearGradient>
<linearGradient id="paint1_linear_1_13626" x1="-26.7813" y1="115.481" x2="28.3522" y2="-8.13367" gradientUnits="userSpaceOnUse">
<stop offset="0.241509" stop-color="#2CD7A1"/>
<stop offset="0.6402" stop-color="#54DEB2"/>
<stop offset="1" stop-color="#7EE7C6"/>
</linearGradient>
<linearGradient id="paint2_linear_1_13626" x1="-4.84294" y1="128.527" x2="8.63878" y2="70.8257" gradientUnits="userSpaceOnUse">
<stop stop-color="#46C7FF"/>
<stop offset="0.6402" stop-color="#70E5FE"/>
<stop offset="1" stop-color="#89F7FE"/>
</linearGradient>
</defs>
</svg>
