<svg width="48" height="48" viewBox="0 0 48 48" fill="none" xmlns="http://www.w3.org/2000/svg">
<rect width="48" height="48" rx="9.6" fill="#7833F6" fill-opacity="0.3"/>
<circle cx="24" cy="24" r="12" fill="#7833F6"/>
<path fill-rule="evenodd" clip-rule="evenodd" d="M19.6998 24.0513C19.8923 24.2432 20.1531 24.351 20.425 24.351C20.6968 24.351 20.9576 24.2432 21.1501 24.0513L24.0513 21.1501C24.2432 20.9576 24.351 20.6968 24.351 20.425C24.351 20.1531 24.2432 19.8923 24.0513 19.6998C23.8588 19.5078 23.5979 19.3999 23.326 19.3999C23.054 19.3999 22.7932 19.5078 22.6007 19.6998L19.6998 22.6007C19.5078 22.7932 19.3999 23.054 19.3999 23.326C19.3999 23.5979 19.5078 23.8588 19.6998 24.0513ZM23.7494 26.65L26.6502 23.7492C26.8428 23.5571 27.1036 23.4492 27.3755 23.4492C27.6475 23.4492 27.9083 23.5571 28.1008 23.7492C28.2929 23.9417 28.4008 24.2025 28.4008 24.4745C28.4008 24.7464 28.2929 25.0073 28.1008 25.1998L25.2 28.1006C25.0075 28.2927 24.7467 28.4005 24.4747 28.4005C24.2028 28.4005 23.9419 28.2927 23.7494 28.1006C23.5573 27.9081 23.4495 27.6472 23.4495 27.3753C23.4495 27.1034 23.5573 26.8425 23.7494 26.65ZM23.5371 25.2875C23.2652 25.2875 23.0043 25.1796 22.8118 24.9876C22.6197 24.795 22.5119 24.5342 22.5119 24.2623C22.5119 23.9903 22.6197 23.7295 22.8118 23.5369L23.5371 22.8117C23.7296 22.6196 23.9905 22.5117 24.2624 22.5117C24.5344 22.5117 24.7952 22.6196 24.9877 22.8117C25.1798 23.0042 25.2877 23.265 25.2877 23.5369C25.2877 23.8089 25.1798 24.0697 24.9877 24.2623L24.2624 24.9876C24.0699 25.1796 23.8091 25.2875 23.5371 25.2875Z" fill="white"/>
</svg>
