<svg width="48" height="48" viewBox="0 0 48 48" fill="none" xmlns="http://www.w3.org/2000/svg">
<rect width="48" height="48" rx="9.6" fill="#F7931A" fill-opacity="0.3"/>
<path d="M35.641 26.9029C34.0381 33.3315 27.5262 37.2438 21.0961 35.6407C14.6686 34.0381 10.7559 27.5265 12.3594 21.0984C13.9616 14.669 20.4735 10.7564 26.9016 12.3591C33.3313 13.9618 37.2438 20.474 35.6408 26.903L35.6409 26.9029H35.641Z" fill="#F7931A"/>
<path fill-rule="evenodd" clip-rule="evenodd" d="M29.2923 22.2903C29.5312 20.6934 28.3153 19.835 26.6526 19.2623L27.192 17.0991L25.875 16.771L25.3499 18.8773C25.0037 18.7909 24.6482 18.7096 24.2948 18.6289L24.8237 16.5088L23.5075 16.1807L22.9679 18.3432C22.6814 18.2779 22.4 18.2135 22.1269 18.1455L22.1285 18.1387L20.3124 17.6853L19.962 19.0917C19.962 19.0917 20.9391 19.3157 20.9185 19.3294C21.4518 19.4625 21.5482 19.8155 21.5322 20.0953L20.9178 22.5597C20.9545 22.569 21.0022 22.5825 21.0547 22.6036L21.0165 22.5941C20.984 22.5859 20.9502 22.5775 20.9155 22.5692L20.0543 26.0214C19.9891 26.1834 19.8237 26.4266 19.4509 26.3342C19.4641 26.3534 18.4937 26.0954 18.4937 26.0954L17.8398 27.6027L19.5536 28.0299C19.7413 28.077 19.9268 28.1253 20.1103 28.1731C20.2386 28.2066 20.366 28.2398 20.4926 28.2721L19.9476 30.4601L21.263 30.7883L21.8027 28.6235C22.1621 28.721 22.5108 28.811 22.8522 28.8958L22.3144 31.0504L23.6314 31.3785L24.1763 29.1946C26.422 29.6196 28.1105 29.4482 28.8213 27.4172C29.394 25.7821 28.7928 24.8389 27.6113 24.2238C28.4718 24.0254 29.12 23.4595 29.2928 22.2905L29.2924 22.2902L29.2923 22.2903ZM26.2834 26.5091C25.91 28.0094 23.5615 27.3891 22.4869 27.1054C22.3903 27.0798 22.3039 27.057 22.2302 27.0387L22.9534 24.14C23.0432 24.1624 23.1529 24.187 23.2772 24.2149L23.2773 24.2149C24.3887 24.4644 26.666 24.9754 26.2835 26.5091H26.2834ZM23.5001 22.8696C24.396 23.1087 26.3503 23.6302 26.6906 22.2666H26.6908C27.0383 20.8721 25.1391 20.4517 24.2115 20.2463C24.1071 20.2232 24.0151 20.2028 23.9399 20.1841L23.2842 22.8131C23.3461 22.8285 23.4188 22.8479 23.5001 22.8696Z" fill="white"/>
</svg>
