<svg width="48" height="48" viewBox="0 0 48 48" fill="none" xmlns="http://www.w3.org/2000/svg">
<rect width="48" height="48" rx="9.6" fill="#E42D04" fill-opacity="0.3"/>
<path fill-rule="evenodd" clip-rule="evenodd" d="M24 36C17.4 36 12 30.6001 12 23.9402C12.06 17.3404 17.4 11.9405 24.06 12.0005C30.66 12.0605 36 17.4004 36 24.1202C35.94 30.6601 30.6 36 24 36Z" fill="#E42D04"/>
<path fill-rule="evenodd" clip-rule="evenodd" d="M24.2338 32.8004C25.1048 32.8004 27.339 32.4077 29.3082 30.8371C31.5725 29.0311 31.7859 28.0238 31.9235 27.3744C31.9355 27.3179 31.9468 27.2641 31.959 27.2126C31.982 27.1153 31.9954 26.9832 32 26.8261C31.5244 26.7491 30.8577 26.705 30.0797 26.7973C28.8073 26.9483 27.8076 27.8167 27.4668 28.232C27.2774 27.2881 26.3534 25.4004 24.1722 25.4004C21.9909 25.4004 20.8145 27.2881 20.4989 28.232C20.2969 27.8796 19.5446 27.0994 18.151 26.7973C17.2894 26.6106 16.5378 26.7029 16 26.86C16.0425 27.5619 16.2732 28.3105 16.8872 29.1004C17.9437 30.4596 19.5831 31.2989 20.3145 31.6733C20.3957 31.7149 20.4658 31.7508 20.5226 31.781C21.0906 32.083 22.6433 32.8004 24.2338 32.8004Z" fill="white"/>
<path fill-rule="evenodd" clip-rule="evenodd" d="M31.9982 26.7985C31.5228 26.7217 30.8566 26.6777 30.079 26.7698C28.8074 26.9204 27.8082 27.7863 27.4676 28.2004C27.2784 27.2592 26.3549 25.3769 24.1749 25.3769C21.9949 25.3769 20.8192 27.2592 20.5038 28.2004C20.3019 27.849 19.55 27.071 18.1573 26.7698C17.2961 26.5836 16.5449 26.6756 16.0075 26.8324C15.9688 26.1941 16.0865 25.5947 16.2129 25.038C16.4248 24.1044 16.9572 22.8671 17.1969 22.3651C16.9825 21.8506 16.4854 20.3924 16.2129 18.6757C15.9404 16.959 16.4021 15.802 16.6671 15.438C17.096 15.551 18.1204 15.9049 18.7865 16.4169C19.4526 16.9289 20.477 18.0608 20.9059 18.5627C21.461 18.4122 22.8891 18.111 24.1608 18.111C25.4324 18.111 26.6587 18.4122 27.1128 18.5627C27.4913 18.111 28.4223 17.0493 29.1187 16.4169C29.8151 15.7844 30.9479 15.4757 31.4274 15.4004C31.5535 15.5635 31.821 16.0404 31.8815 16.6427C31.9572 17.3957 31.7302 18.9769 31.4274 20.031C31.1852 20.8743 30.8722 21.8631 30.7461 22.2522C30.8092 22.3902 31.0262 22.8395 31.3895 23.5322C31.7748 24.2667 32.0238 25.9224 31.9982 26.7985Z" fill="#FFAA35"/>
<path d="M25.7875 30.149C25.6975 30.2694 25.6 30.5003 25.5625 30.6006V30.563L25.45 29.6598C25.2375 29.6848 24.685 29.735 24.175 29.735C23.665 29.735 23.0625 29.6848 22.825 29.6598L22.7875 30.563C22.7625 30.5253 22.6975 30.4199 22.6375 30.2995C22.5625 30.149 22.3 29.9232 22.3 29.8103C22.3 29.72 22.175 29.5218 22.1125 29.434L22 29.2834H22.675L22.825 29.3963C22.95 29.3837 23.2675 29.3737 23.5375 29.434C23.8075 29.4942 23.975 29.2584 24.025 29.1329V28.5308C23.9125 28.4555 23.635 28.2824 23.425 28.1921C23.1625 28.0792 22.9 27.6276 22.975 27.176C23.05 26.7243 23.275 26.5738 23.425 26.6114C23.575 26.6491 24.55 26.5738 24.7 26.6114C24.85 26.6491 25.1125 26.7243 25.225 26.9125C25.3375 27.1007 25.2625 27.8534 25.0375 28.1168C24.8575 28.3275 24.5125 28.4805 24.3625 28.5308V29.1329C24.3625 29.2082 24.625 29.3963 24.6625 29.434C24.7 29.4716 25.2625 29.434 25.375 29.434C25.465 29.434 25.5375 29.3587 25.5625 29.3211H26.2V29.4716C26.2 29.5469 26.0875 29.8856 26.05 29.9232C26.0125 29.9608 25.9 29.9985 25.7875 30.149Z" fill="black"/>
<path d="M24.5809 29.9003L24.1999 30.2003L23.8951 29.9003L23.6285 30.0336L23.3999 29.8003H24.9999L24.7713 30.067L24.5809 29.9003Z" fill="black"/>
<path d="M20.481 23.7461C20.0347 23.5614 19.5512 23.4384 19.3653 23.3999C19.3157 23.4255 19.2165 23.5076 19.2165 23.6307C19.2165 23.7845 19.1793 23.9384 19.2165 24.2461C19.2537 24.5537 19.5512 24.7461 20.0719 24.9768C20.5926 25.2076 21.4852 25.3999 22.1175 25.3999C22.7498 25.3999 22.1547 24.7461 21.9315 24.5922C21.7084 24.4384 21.0389 23.9768 20.481 23.7461Z" fill="black"/>
<path d="M21.092 22.7258C20.7585 22.7855 20.2961 22.8004 20.1066 22.8004C19.9171 22.7756 19.5153 22.6587 19.4244 22.3903C19.3106 22.0548 19.6139 21.682 19.9929 21.4957C20.3719 21.3093 20.8646 21.3838 21.1678 21.8312C21.471 22.2785 21.5089 22.6513 21.092 22.7258Z" fill="white"/>
<path d="M27.9189 23.5463C28.3652 23.3617 28.8487 23.2387 29.0347 23.2002C29.0843 23.2258 29.1835 23.3079 29.1835 23.431C29.1835 23.5848 29.2207 23.7387 29.1835 24.0463C29.1463 24.354 28.8487 24.5463 28.328 24.7771C27.8074 25.0079 26.9147 25.2002 26.2825 25.2002C25.6502 25.2002 26.2453 24.5463 26.4684 24.3925C26.6916 24.2387 27.361 23.7771 27.9189 23.5463Z" fill="black"/>
<path d="M26.708 22.7258C27.0416 22.7855 27.504 22.8004 27.6935 22.8004C27.883 22.7755 28.2847 22.6587 28.3757 22.3903C28.4894 22.0548 28.1862 21.682 27.8072 21.4957C27.4282 21.3093 26.9354 21.3838 26.6322 21.8312C26.329 22.2785 26.2911 22.6513 26.708 22.7258Z" fill="white"/>
<path d="M18.4859 19.9353C18.2134 20.2329 17.691 20.9027 17.4639 21.2004C17.3124 20.8779 16.9793 20.0171 16.8582 19.1539C16.7371 18.2906 16.833 16.9585 16.896 16.4004C17.0601 16.4128 17.5396 16.5492 18.1452 16.9957C18.7509 17.4423 19.6341 18.2733 20 18.6329C19.6089 18.943 18.7584 19.6376 18.4859 19.9353Z" fill="#FF8C30"/>
<path fill-rule="evenodd" clip-rule="evenodd" d="M16.8 17.1092C17.3953 17.3576 18.1789 17.7373 18.5073 18.0805C18.8404 18.4287 19.1335 18.8896 19.3075 19.2004C19.5687 18.9838 19.8282 18.7758 20 18.6406C19.6301 18.2797 18.737 17.4458 18.1246 16.9978C17.5122 16.5497 17.0273 16.4128 16.8615 16.4004C16.8417 16.5742 16.8187 16.8229 16.8 17.1092Z" fill="#FF9A32"/>
<path d="M29.3142 19.9353C29.5867 20.2329 30.1091 20.9027 30.3363 21.2004C30.4877 20.8779 30.8208 20.0171 30.9419 19.1539C31.063 18.2906 30.9671 16.9585 30.9041 16.4004C30.74 16.4128 30.2605 16.5492 29.6549 16.9957C29.0492 17.4423 28.1659 18.2733 27.8 18.6329C28.1912 18.943 29.0417 19.6376 29.3142 19.9353Z" fill="#FF8C30"/>
<path fill-rule="evenodd" clip-rule="evenodd" d="M31 17.1092C30.4047 17.3576 29.6212 17.7373 29.2928 18.0805C28.9596 18.4287 28.6666 18.8896 28.4927 19.2004C28.2315 18.9838 27.9719 18.7758 27.8 18.6406C28.17 18.2797 29.0631 17.4458 29.6755 16.9978C30.2879 16.5497 30.7727 16.4128 30.9386 16.4004C30.9584 16.5742 30.9814 16.8229 31 17.1092Z" fill="#FF9A32"/>
</svg>
