<svg width="48" height="48" viewBox="0 0 48 48" fill="none" xmlns="http://www.w3.org/2000/svg">
<rect width="48" height="48" rx="9.6" fill="#012041" fill-opacity="0.3"/>
<circle cx="24" cy="24" r="12" fill="#012041"/>
<path fill-rule="evenodd" clip-rule="evenodd" d="M18.7847 18.9895L20.0514 18.3164L20.2004 18.6156L24.82 15.9234L24.522 15.699L24.1494 15.4747L24.0004 15.3999L16.4004 19.8121V19.9616L18.5612 18.7651L18.7847 18.9895ZM18.7847 21.8312L22.4357 19.6625L22.5847 19.9616L27.2788 17.2695L26.9063 17.0451L26.5337 16.8955L26.3847 16.8208L16.4004 22.579V22.7286L18.5612 21.5321L18.7847 21.8312ZM23.6278 20.4103L18.7847 23.1773L18.5612 22.8782L16.4004 24.1495V23.9251L27.5769 17.4938L27.7259 17.5686L28.0984 17.793L28.471 17.9425L23.7769 20.6347L23.6278 20.4103ZM18.7847 24.5234L24.82 21.0834L24.969 21.3077L29.6631 18.6903L29.2906 18.466L28.918 18.2416L28.769 18.1669L16.4004 25.346V25.4956L18.5612 24.299L18.7847 24.5234ZM26.0122 21.7564L18.7847 25.9443L18.5612 25.6451L16.4004 26.9164V26.6921L29.9612 18.8399L30.1847 18.9895L30.4827 19.1391L30.8553 19.3634L26.1612 22.0556L26.0122 21.7564ZM31.3024 19.6625L31.1533 19.513L16.4004 28.113V28.2625L18.5612 27.066L18.7847 27.3651L26.0122 23.1025L26.1612 23.4017L31.6004 20.3356V19.8121L31.3024 19.6625ZM18.5611 28.4121L17.369 29.1599L17.1455 29.0103L31.6004 20.7095V21.6816L26.1611 24.8225L26.0121 24.5234L18.7102 28.7112L18.5611 28.4121ZM26.0124 25.9444L26.1614 26.2435L31.6007 23.0278V22.0557L18.3379 29.7583L18.5614 29.8331L19.7536 29.0852L19.9771 29.3844L26.0124 25.9444ZM21.0205 29.8328L19.7538 30.5059L19.5303 30.4311L31.6009 23.4763V24.4485L26.1617 27.5894L26.0126 27.2902L21.1695 30.132L21.0205 29.8328ZM20.9454 31.179L22.2121 30.506L22.3611 30.8051L26.0121 28.7112L26.1611 29.0103L31.6003 25.8695V24.8225L20.7219 31.1043L20.9454 31.179ZM22.1377 31.9269L21.9141 31.7773L31.6004 26.2434V27.2156L26.1612 30.3564L26.0122 30.0573L23.5534 31.4782L23.4043 31.179L22.1377 31.9269ZM23.3298 32.5999L24.5219 31.8521L24.7455 32.1512L26.0121 31.4782L26.1612 31.7773L31.6004 28.6364V27.5895L23.1808 32.5251L23.3298 32.5999ZM25.7141 16.3721L26.0867 16.5964L21.3925 19.2886L21.2435 18.9895L18.7847 20.4103L18.5612 20.1112L16.4004 21.3825V21.1582L25.1925 16.0729L25.3416 16.2225L25.7141 16.3721Z" fill="white"/>
</svg>
