<svg width="24" height="24" viewBox="0 0 24 24" fill="none" xmlns="http://www.w3.org/2000/svg">
<path d="M23.641 14.9029C22.0381 21.3315 15.5262 25.2438 9.09606 23.6407C2.66863 22.0381 -1.24415 15.5265 0.359423 9.09837C1.96159 2.66903 8.47349 -1.24361 14.9016 0.359081C21.3313 1.96177 25.2438 8.47405 23.6408 14.903L23.6409 14.9029H23.641Z" fill="white"/>
<g clip-path="url(#clip0_1_68193)">
<path d="M12.6859 7.9567C12.7272 8.6614 12.7483 9.36706 12.7781 10.0718C12.8462 11.6818 12.9134 13.2919 12.9816 14.902C12.9864 15.0258 12.9893 15.1487 12.996 15.2725C13.0027 15.407 13.0334 15.5337 13.116 15.6441C13.2197 15.7833 13.381 15.8515 13.5432 15.7919C13.6555 15.7507 13.7717 15.6883 13.8562 15.6057C14.4706 15.0018 15.0802 14.3921 15.684 13.7777C15.7627 13.698 15.8194 13.5838 15.8539 13.4753C15.9086 13.2996 15.8357 13.1421 15.6629 13.0816C15.4958 13.0231 15.3173 12.9808 15.1416 12.9693C14.749 12.9434 14.3544 12.9415 13.9531 12.929C13.9224 12.3481 13.8917 11.7711 13.86 11.1845C14.0203 11.1912 14.172 11.197 14.3237 11.2027C14.867 11.2239 15.4114 11.2402 15.9547 11.2671C16.3694 11.2872 16.7554 11.3957 17.101 11.6463C17.2114 11.726 17.3112 11.8153 17.3995 11.9113V7.63603C17.3995 7.06382 16.9358 6.6001 16.3637 6.6001H12.0917C12.468 6.94669 12.6533 7.41233 12.6859 7.9567Z" fill="url(#paint0_linear_1_68193)"/>
<path d="M6.60729 9.50723C6.88473 9.21537 7.17561 8.93598 7.45977 8.65084C8.12889 7.98166 8.79609 7.3096 9.47001 6.6433C9.48537 6.62794 9.50073 6.6145 9.51609 6.6001H7.63545C7.06329 6.6001 6.59961 7.06382 6.59961 7.63603V9.51588C6.60249 9.513 6.60441 9.51011 6.60729 9.50723Z" fill="url(#paint1_linear_1_68193)"/>
<path d="M11.4073 16.5488C11.3487 16.3481 11.3219 16.1331 11.3123 15.9238C11.2403 14.3377 11.1759 12.7507 11.1087 11.1647C11.0751 10.3572 11.0415 9.54883 11.007 8.7414C11.0051 8.69723 11.0012 8.65307 10.9935 8.60987C10.9225 8.20663 10.5673 8.0607 10.2457 8.31224C10.0911 8.43321 9.95481 8.57722 9.81561 8.71644C9.32601 9.20416 8.83833 9.6938 8.34969 10.1825C8.25657 10.2756 8.18169 10.3793 8.14905 10.5089C8.10105 10.6981 8.17209 10.8469 8.35065 10.9266C8.55609 11.0197 8.77689 11.0312 8.99673 11.0456C9.36057 11.0706 9.72345 11.0946 10.094 11.1205C10.1065 11.7004 10.118 12.2755 10.1305 12.8573C9.92409 12.8458 9.72825 12.8342 9.53241 12.8227C9.04473 12.7939 8.55801 12.7661 8.07033 12.7354C7.64697 12.7085 7.24761 12.6105 6.90009 12.3484C6.78681 12.263 6.68793 12.1718 6.59961 12.0777V16.3645C6.59961 16.9367 7.06329 17.4004 7.63545 17.4004H11.9027C11.6684 17.1757 11.5062 16.8858 11.4073 16.5488Z" fill="url(#paint2_linear_1_68193)"/>
<path d="M17.2281 14.6505C16.3487 15.5347 15.4732 16.4218 14.589 17.3013C14.5545 17.3358 14.5189 17.3685 14.4844 17.3992H16.3631C16.9353 17.3992 17.3989 16.9355 17.3989 16.3633V14.4844C17.3423 14.541 17.2837 14.5948 17.2281 14.6505Z" fill="url(#paint3_linear_1_68193)"/>
</g>
<defs>
<linearGradient id="paint0_linear_1_68193" x1="10.4321" y1="15.1359" x2="16.0941" y2="7.41564" gradientUnits="userSpaceOnUse">
<stop offset="0.241509" stop-color="#2CD7A1"/>
<stop offset="0.6402" stop-color="#54DEB2"/>
<stop offset="1" stop-color="#7EE7C6"/>
</linearGradient>
<linearGradient id="paint1_linear_1_68193" x1="5.68771" y1="9.30144" x2="7.03455" y2="6.11295" gradientUnits="userSpaceOnUse">
<stop offset="0.241509" stop-color="#2CD7A1"/>
<stop offset="0.6402" stop-color="#54DEB2"/>
<stop offset="1" stop-color="#7EE7C6"/>
</linearGradient>
<linearGradient id="paint2_linear_1_68193" x1="4.94151" y1="16.7229" x2="10.6043" y2="9.00772" gradientUnits="userSpaceOnUse">
<stop offset="0.241509" stop-color="#2CD7A1"/>
<stop offset="0.6402" stop-color="#54DEB2"/>
<stop offset="1" stop-color="#7EE7C6"/>
</linearGradient>
<linearGradient id="paint3_linear_1_68193" x1="13.5731" y1="17.1848" x2="14.9198" y2="13.9977" gradientUnits="userSpaceOnUse">
<stop offset="0.241509" stop-color="#2CD7A1"/>
<stop offset="0.6402" stop-color="#54DEB2"/>
<stop offset="1" stop-color="#7EE7C6"/>
</linearGradient>
<clipPath id="clip0_1_68193">
<rect width="12" height="12" fill="white" transform="translate(6 6)"/>
</clipPath>
</defs>
</svg>
