<svg width="728" height="536" viewBox="0 0 728 536" fill="none" xmlns="http://www.w3.org/2000/svg">
<g clip-path="url(#clip0_1_2950)">
<path d="M268.422 403.403C271.395 401.293 274.615 399.615 277.97 398.394L279.278 388.488L295.748 386.982L298.832 396.494C302.348 397.086 305.815 398.147 309.133 399.689L317.066 393.607L329.773 404.18L325.233 413.075C327.343 416.06 329.02 419.268 330.242 422.624L340.148 423.931L341.653 440.401L332.142 443.485C331.549 447.001 330.488 450.468 328.946 453.786L335.028 461.719L324.456 474.426L315.548 469.886C312.575 471.996 309.355 473.673 306 474.895L304.692 484.801L288.222 486.306L285.138 476.795C281.622 476.202 278.156 475.141 274.837 473.599L266.904 479.681L254.197 469.109L258.737 460.202C256.628 457.228 254.95 454.008 253.716 450.653L243.81 449.345L242.305 432.875L251.816 429.779C252.409 426.263 253.47 422.796 255.012 419.478L248.93 411.545L259.502 398.838L268.422 403.403ZM278.834 424.721C272.567 432.259 273.591 443.436 281.129 449.703C288.654 455.97 299.844 454.946 306.111 447.408C312.378 439.883 311.354 428.693 303.816 422.426C296.278 416.159 285.101 417.183 278.834 424.721Z" fill="#EBEBEB"/>
<path d="M366.171 457.475C368.034 456.155 370.057 455.094 372.154 454.329L372.981 448.112L383.307 447.162L385.244 453.12C387.452 453.49 389.623 454.157 391.696 455.119L396.668 451.307L404.637 457.944L401.8 463.52C403.132 465.383 404.181 467.406 404.946 469.504L411.164 470.33L412.114 480.656L406.155 482.593C405.785 484.801 405.119 486.973 404.156 489.045L407.968 494.017L401.331 501.987L395.755 499.149C393.892 500.469 391.869 501.53 389.772 502.295L388.945 508.513L378.619 509.463L376.682 503.504C374.474 503.134 372.303 502.468 370.23 501.505L365.258 505.318L357.289 498.68L360.126 493.104C358.806 491.241 357.745 489.218 356.98 487.121L350.762 486.294L349.812 475.968L355.771 474.031C356.141 471.823 356.808 469.652 357.77 467.579L353.958 462.607L360.595 454.638L366.171 457.475ZM372.697 470.848C368.774 475.573 369.416 482.581 374.128 486.516C378.853 490.439 385.861 489.798 389.796 485.085C393.719 480.36 393.078 473.353 388.365 469.417C383.64 465.482 376.62 466.123 372.697 470.848Z" fill="#EBEBEB"/>
<path d="M83.2292 85.3957C85.4005 83.8536 87.7321 82.6322 90.1748 81.744L91.1248 74.5269L103.116 73.429L105.361 80.3499C107.928 80.7817 110.444 81.5589 112.85 82.6816L118.624 78.2527L127.876 85.9508L124.57 92.4277C126.112 94.599 127.333 96.9306 128.222 99.3733L135.439 100.323L136.537 112.315L129.616 114.56C129.184 117.126 128.407 119.643 127.284 122.048L131.713 127.822L124.015 137.075L117.538 133.768C115.367 135.311 113.035 136.532 110.592 137.42L109.642 144.637L97.651 145.735L95.4057 138.814C92.8396 138.382 90.3229 137.605 87.9172 136.483L82.1435 140.911L72.8909 133.213L76.1972 126.736C74.6551 124.565 73.4337 122.233 72.5455 119.791L65.3284 118.841L64.2305 106.849L71.1514 104.604C71.5832 102.038 72.3604 99.5214 73.4831 97.1157L69.0542 91.342L76.7524 82.0894L83.2292 85.3957ZM90.8163 100.903C86.2517 106.381 87.0043 114.523 92.4818 119.088C97.9594 123.652 106.102 122.9 110.666 117.422C115.231 111.945 114.478 103.802 109.001 99.2376C103.511 94.673 95.381 95.4255 90.8163 100.903Z" fill="#E0E0E0"/>
<path d="M310.127 11.905C312.286 10.3753 314.618 9.16627 317.036 8.27802L317.986 1.09798L329.915 0L332.148 6.88396C334.702 7.31574 337.206 8.08063 339.612 9.20328L345.361 4.79903L354.564 12.4602L351.283 18.9124C352.813 21.0713 354.034 23.403 354.91 25.821L362.09 26.7709L363.188 38.7007L356.304 40.9336C355.872 43.4874 355.107 45.9917 353.985 48.3851L358.389 54.134L350.728 63.3373L344.275 60.0557C342.117 61.5855 339.785 62.7945 337.367 63.6828L336.417 70.8628L324.487 71.9608L322.254 65.0768C319.7 64.645 317.196 63.8801 314.79 62.7575L309.041 67.1617L299.838 59.5006L303.12 53.0484C301.59 50.8895 300.369 48.5578 299.493 46.1398L292.313 45.1898L291.215 33.2601L298.099 31.0271C298.53 28.4734 299.295 25.969 300.418 23.5757L296.014 17.8267L303.675 8.62345L310.127 11.905ZM317.665 27.3384C313.125 32.7913 313.865 40.8966 319.318 45.4366C324.771 49.9765 332.876 49.2363 337.416 43.7711C341.956 38.3182 341.216 30.2129 335.763 25.673C330.31 21.1453 322.205 21.8856 317.665 27.3384Z" fill="#F5F5F5"/>
<path d="M420.308 28.6214C421.529 27.7455 422.862 27.0547 424.243 26.5612L424.786 22.4777L431.571 21.8608L432.842 25.7716C434.298 26.0184 435.717 26.4501 437.086 27.0917L440.355 24.5873L445.598 28.9422L443.736 32.6062C444.611 33.8399 445.302 35.16 445.796 36.5417L449.879 37.0845L450.496 43.8698L446.585 45.1405C446.339 46.5839 445.907 48.0149 445.265 49.3843L447.77 52.6536L443.415 57.8967L439.751 56.0339C438.529 56.9098 437.197 57.6007 435.815 58.0941L435.272 62.1776L428.487 62.7945L427.217 58.8714C425.761 58.6246 424.342 58.1928 422.973 57.5513L419.703 60.0557L414.46 55.7008L416.323 52.0368C415.447 50.8154 414.756 49.483 414.263 48.1013L410.179 47.5585L409.562 40.7732L413.486 39.5025C413.732 38.0591 414.164 36.628 414.806 35.2586L412.301 31.9894L416.656 26.7462L420.308 28.6214ZM424.601 37.4053C422.023 40.5141 422.442 45.1158 425.539 47.6942C428.648 50.2726 433.249 49.8531 435.828 46.7566C438.406 43.6477 437.987 39.0461 434.878 36.4677C431.793 33.8769 427.192 34.2964 424.601 37.4053Z" fill="#F5F5F5"/>
<path d="M18.8107 223.951C20.8092 222.533 22.9682 221.41 25.2135 220.583L26.0894 213.934L37.1432 212.922L39.2158 219.3C41.5721 219.695 43.9038 220.411 46.1244 221.447L51.4416 217.363L59.9787 224.469L56.9315 230.44C58.3502 232.439 59.4729 234.598 60.2995 236.843L66.949 237.719L67.9606 248.773L61.5825 250.846C61.1877 253.202 60.4722 255.534 59.4359 257.754L63.5194 263.071L56.4257 271.608L50.4546 268.561C48.4561 269.98 46.2971 271.103 44.0518 271.929L43.1759 278.579L32.1221 279.59L30.0495 273.212C27.6932 272.817 25.3615 272.102 23.1409 271.066L17.8237 275.149L9.28662 268.043L12.3338 262.072C10.9151 260.074 9.79244 257.915 8.96587 255.669L2.31631 254.793L1.30469 243.74L7.68284 241.667C8.07762 239.311 8.79315 236.979 9.82945 234.758L5.74596 229.441L12.8396 220.904L18.8107 223.951ZM25.7933 238.262C21.5865 243.32 22.2773 250.821 27.3354 255.028C32.3935 259.235 39.8943 258.544 44.1012 253.486C48.308 248.428 47.6172 240.927 42.5591 236.72C37.5133 232.513 30.0002 233.204 25.7933 238.262Z" fill="#E0E0E0"/>
<path d="M727.83 535.209C727.83 535.382 535.227 535.53 297.693 535.53C60.0735 535.53 -132.492 535.382 -132.492 535.209C-132.492 535.036 60.0735 534.888 297.693 534.888C535.227 534.888 727.83 535.036 727.83 535.209Z" fill="#263238"/>
<path d="M466.589 426.3H46.2726C40.0302 426.3 34.9844 421.242 34.9844 415.012V131.894C34.9844 125.281 40.3386 119.927 46.9511 119.927H469.895C476.508 119.927 481.862 125.281 481.862 131.894V411.052C481.849 419.466 475.027 426.3 466.589 426.3Z" fill="#263238"/>
<path d="M121.552 163.871H94.0313C92.9267 163.871 92.0313 164.766 92.0313 165.871V168.742C92.0313 169.847 92.9267 170.742 94.0313 170.742H121.552C122.657 170.742 123.552 169.847 123.552 168.742V165.871C123.552 164.766 122.657 163.871 121.552 163.871Z" fill="#455A64"/>
<path d="M105.785 194.651H94.0313C92.9267 194.651 92.0313 195.546 92.0313 196.651V199.523C92.0313 200.627 92.9267 201.523 94.0313 201.523H105.785C106.89 201.523 107.785 200.627 107.785 199.523V196.651C107.785 195.546 106.89 194.651 105.785 194.651Z" fill="#07E1E8"/>
<path d="M124.081 210.134H105.887C104.782 210.134 103.887 211.029 103.887 212.134V215.005C103.887 216.11 104.782 217.005 105.887 217.005H124.081C125.185 217.005 126.081 216.11 126.081 215.005V212.134C126.081 211.029 125.185 210.134 124.081 210.134Z" fill="#455A64"/>
<path d="M140.535 210.134H131.606C130.501 210.134 129.606 211.03 129.606 212.134V215.006C129.606 216.11 130.501 217.006 131.606 217.006H140.535C141.639 217.006 142.535 216.11 142.535 215.006V212.134C142.535 211.03 141.639 210.134 140.535 210.134Z" fill="#455A64"/>
<path d="M256.457 210.134H233.871C232.767 210.134 231.871 211.029 231.871 212.134V215.005C231.871 216.11 232.767 217.005 233.871 217.005H256.457C257.562 217.005 258.457 216.11 258.457 215.005V212.134C258.457 211.029 257.562 210.134 256.457 210.134Z" fill="#455A64"/>
<path d="M334.176 225.222H293.258C292.153 225.222 291.258 226.117 291.258 227.222V230.093C291.258 231.198 292.153 232.093 293.258 232.093H334.176C335.281 232.093 336.176 231.198 336.176 230.093V227.222C336.176 226.117 335.281 225.222 334.176 225.222Z" fill="#455A64"/>
<path d="M403.487 210.133H385.91C384.806 210.133 383.91 211.029 383.91 212.133V215.005C383.91 216.11 384.806 217.005 385.91 217.005H403.487C404.592 217.005 405.487 216.11 405.487 215.005V212.133C405.487 211.029 404.592 210.133 403.487 210.133Z" fill="#455A64"/>
<path d="M453.482 210.134H414.105C413.001 210.134 412.105 211.03 412.105 212.134V215.006C412.105 216.111 413.001 217.006 414.105 217.006H453.482C454.586 217.006 455.482 216.111 455.482 215.006V212.134C455.482 211.03 454.586 210.134 453.482 210.134Z" fill="#455A64"/>
<path d="M124.081 225.222H105.887C104.782 225.222 103.887 226.118 103.887 227.222V230.094C103.887 231.198 104.782 232.094 105.887 232.094H124.081C125.185 232.094 126.081 231.198 126.081 230.094V227.222C126.081 226.118 125.185 225.222 124.081 225.222Z" fill="#455A64"/>
<path d="M110.448 240.285H92.254C91.1495 240.285 90.254 241.18 90.254 242.285V245.156C90.254 246.261 91.1495 247.156 92.254 247.156H110.448C111.553 247.156 112.448 246.261 112.448 245.156V242.285C112.448 241.18 111.553 240.285 110.448 240.285Z" fill="#07E1E8"/>
<path d="M110.437 255.336H104.074C102.97 255.336 102.074 256.231 102.074 257.336V260.207C102.074 261.312 102.97 262.207 104.074 262.207H110.437C111.542 262.207 112.437 261.312 112.437 260.207V257.336C112.437 256.231 111.542 255.336 110.437 255.336Z" fill="#455A64"/>
<path d="M148.496 287.041H142.133C141.028 287.041 140.133 287.937 140.133 289.041V291.913C140.133 293.018 141.028 293.913 142.133 293.913H148.496C149.6 293.913 150.496 293.018 150.496 291.913V289.041C150.496 287.937 149.6 287.041 148.496 287.041Z" fill="#455A64"/>
<path d="M303.003 344.346H282.746V351.218H303.003V344.346Z" fill="#455A64"/>
<path d="M416.186 344.347H366.555V351.218H416.186V344.347Z" fill="#455A64"/>
<path d="M224.738 329.308H208.481C207.376 329.308 206.481 330.204 206.481 331.308V334.18C206.481 335.284 207.376 336.18 208.481 336.18H224.738C225.842 336.18 226.738 335.284 226.738 334.18V331.308C226.738 330.204 225.842 329.308 224.738 329.308Z" fill="#E0E0E0"/>
<path d="M151.351 316.391H135.094C133.989 316.391 133.094 317.286 133.094 318.391V321.262C133.094 322.367 133.989 323.262 135.094 323.262H151.351C152.455 323.262 153.351 322.367 153.351 321.262V318.391C153.351 317.286 152.455 316.391 151.351 316.391Z" fill="#455A64"/>
<path d="M276.553 344.346H248.613C247.509 344.346 246.613 345.241 246.613 346.346V349.218C246.613 350.322 247.509 351.218 248.613 351.218H276.553C277.658 351.218 278.553 350.322 278.553 349.218V346.346C278.553 345.241 277.658 344.346 276.553 344.346Z" fill="#455A64"/>
<path d="M116.902 270.67H104.074C102.97 270.67 102.074 271.566 102.074 272.67V275.542C102.074 276.646 102.97 277.542 104.074 277.542H116.902C118.007 277.542 118.902 276.646 118.902 275.542V272.67C118.902 271.566 118.007 270.67 116.902 270.67Z" fill="#455A64"/>
<path d="M131.287 287.3H104.074C102.97 287.3 102.074 288.196 102.074 289.3V292.172C102.074 293.276 102.97 294.172 104.074 294.172H131.287C132.391 294.172 133.287 293.276 133.287 292.172V289.3C133.287 288.196 132.391 287.3 131.287 287.3Z" fill="#455A64"/>
<path d="M145.733 300.045H104.074C102.97 300.045 102.074 300.94 102.074 302.045V304.916C102.074 306.021 102.97 306.916 104.074 306.916H145.733C146.838 306.916 147.733 306.021 147.733 304.916V302.045C147.733 300.94 146.838 300.045 145.733 300.045Z" fill="#455A64"/>
<path d="M228.459 300.045H186.801C185.696 300.045 184.801 300.94 184.801 302.045V304.916C184.801 306.021 185.696 306.916 186.801 306.916H228.459C229.564 306.916 230.459 306.021 230.459 304.916V302.045C230.459 300.94 229.564 300.045 228.459 300.045Z" fill="#455A64"/>
<path d="M194.802 329.308H134.688C133.583 329.308 132.688 330.203 132.688 331.308V334.18C132.688 335.284 133.583 336.18 134.688 336.18H194.802C195.907 336.18 196.802 335.284 196.802 334.18V331.308C196.802 330.203 195.907 329.308 194.802 329.308Z" fill="#455A64"/>
<path d="M239.128 344.347H134.688C133.583 344.347 132.688 345.242 132.688 346.347V349.218C132.688 350.323 133.583 351.218 134.688 351.218H239.128C240.233 351.218 241.128 350.323 241.128 349.218V346.347C241.128 345.242 240.233 344.347 239.128 344.347Z" fill="#455A64"/>
<path d="M206.324 359.385H101.883C100.778 359.385 99.8829 360.28 99.8829 361.385V364.256C99.8829 365.361 100.778 366.256 101.883 366.256H206.324C207.428 366.256 208.324 365.361 208.324 364.256V361.385C208.324 360.28 207.428 359.385 206.324 359.385Z" fill="#455A64"/>
<path d="M177.943 300.045H154.555C153.45 300.045 152.555 300.94 152.555 302.045V304.916C152.555 306.021 153.45 306.916 154.555 306.916H177.943C179.047 306.916 179.943 306.021 179.943 304.916V302.045C179.943 300.94 179.047 300.045 177.943 300.045Z" fill="#455A64"/>
<path d="M142.795 255.336H118.531C117.427 255.336 116.531 256.231 116.531 257.336V260.207C116.531 261.312 117.427 262.207 118.531 262.207H142.795C143.9 262.207 144.795 261.312 144.795 260.207V257.336C144.795 256.231 143.9 255.336 142.795 255.336Z" fill="#455A64"/>
<path d="M149.022 270.67H124.758C123.653 270.67 122.758 271.566 122.758 272.67V275.542C122.758 276.647 123.653 277.542 124.758 277.542H149.022C150.126 277.542 151.022 276.647 151.022 275.542V272.67C151.022 271.566 150.126 270.67 149.022 270.67Z" fill="#455A64"/>
<path d="M258.547 270.67H187.699C186.595 270.67 185.699 271.566 185.699 272.67V275.542C185.699 276.647 186.595 277.542 187.699 277.542H258.547C259.651 277.542 260.547 276.647 260.547 275.542V272.67C260.547 271.566 259.651 270.67 258.547 270.67Z" fill="#455A64"/>
<path d="M347.022 270.67H264.578C263.474 270.67 262.578 271.566 262.578 272.67V275.542C262.578 276.647 263.474 277.542 264.578 277.542H347.022C348.127 277.542 349.022 276.647 349.022 275.542V272.67C349.022 271.566 348.127 270.67 347.022 270.67Z" fill="#455A64"/>
<path d="M177.07 270.67H157.68C156.575 270.67 155.68 271.566 155.68 272.67V275.542C155.68 276.647 156.575 277.542 157.68 277.542H177.07C178.175 277.542 179.07 276.647 179.07 275.542V272.67C179.07 271.566 178.175 270.67 177.07 270.67Z" fill="#455A64"/>
<path d="M183.719 255.336H150.672C149.567 255.336 148.672 256.231 148.672 257.336V260.207C148.672 261.312 149.567 262.207 150.672 262.207H183.719C184.824 262.207 185.719 261.312 185.719 260.207V257.336C185.719 256.231 184.824 255.336 183.719 255.336Z" fill="#455A64"/>
<path d="M208.44 255.336H191.813C190.708 255.336 189.813 256.231 189.813 257.336V260.207C189.813 261.312 190.708 262.207 191.813 262.207H208.44C209.544 262.207 210.44 261.312 210.44 260.207V257.336C210.44 256.231 209.544 255.336 208.44 255.336Z" fill="#E0E0E0"/>
<path d="M150.737 225.222H131.606C130.501 225.222 129.606 226.118 129.606 227.222V230.094C129.606 231.198 130.501 232.094 131.606 232.094H150.737C151.842 232.094 152.737 231.198 152.737 230.094V227.222C152.737 226.118 151.842 225.222 150.737 225.222Z" fill="#455A64"/>
<path d="M280.692 225.222H170.465C169.36 225.222 168.465 226.117 168.465 227.222V230.093C168.465 231.198 169.36 232.093 170.465 232.093H280.692C281.796 232.093 282.692 231.198 282.692 230.093V227.222C282.692 226.117 281.796 225.222 280.692 225.222Z" fill="#455A64"/>
<path d="M408.913 270.67H358.902C357.798 270.67 356.902 271.566 356.902 272.67V275.542C356.902 276.646 357.798 277.542 358.902 277.542H408.913C410.018 277.542 410.913 276.646 410.913 275.542V272.67C410.913 271.566 410.018 270.67 408.913 270.67Z" fill="#455A64"/>
<path d="M362.284 344.346H308.273V351.218H362.284V344.346Z" fill="#455A64"/>
<path d="M373.513 210.133H264.988C263.884 210.133 262.988 211.029 262.988 212.133V215.005C262.988 216.11 263.884 217.005 264.988 217.005H373.513C374.617 217.005 375.513 216.11 375.513 215.005V212.133C375.513 211.029 374.617 210.133 373.513 210.133Z" fill="#455A64"/>
<path d="M222.88 210.134H148.578C147.474 210.134 146.578 211.029 146.578 212.134V215.005C146.578 216.11 147.474 217.005 148.578 217.005H222.88C223.985 217.005 224.88 216.11 224.88 215.005V212.134C224.88 211.029 223.985 210.134 222.88 210.134Z" fill="#455A64"/>
<path d="M142.747 178.441H94.0313C92.9267 178.441 92.0313 179.336 92.0313 180.441V183.312C92.0313 184.417 92.9267 185.312 94.0313 185.312H142.747C143.851 185.312 144.747 184.417 144.747 183.312V180.441C144.747 179.336 143.851 178.441 142.747 178.441Z" fill="#455A64"/>
<path d="M220.187 178.441H152.004C150.899 178.441 150.004 179.336 150.004 180.441V183.312C150.004 184.417 150.899 185.312 152.004 185.312H220.187C221.291 185.312 222.187 184.417 222.187 183.312V180.441C222.187 179.336 221.291 178.441 220.187 178.441Z" fill="#455A64"/>
<path d="M149.682 163.871H130.477C129.372 163.871 128.477 164.766 128.477 165.871V168.742C128.477 169.847 129.372 170.742 130.477 170.742H149.682C150.787 170.742 151.682 169.847 151.682 168.742V165.871C151.682 164.766 150.787 163.871 149.682 163.871Z" fill="#E0E0E0"/>
<path d="M65.9744 163.871H63.3126C62.208 163.871 61.3126 164.766 61.3126 165.871V168.742C61.3126 169.847 62.208 170.742 63.3126 170.742H65.9744C67.079 170.742 67.9744 169.847 67.9744 168.742V165.871C67.9744 164.766 67.079 163.871 65.9744 163.871Z" fill="#455A64"/>
<path d="M65.9744 178.91H63.3126C62.208 178.91 61.3126 179.806 61.3126 180.91V183.782C61.3126 184.886 62.208 185.782 63.3126 185.782H65.9744C67.079 185.782 67.9744 184.886 67.9744 183.782V180.91C67.9744 179.806 67.079 178.91 65.9744 178.91Z" fill="#455A64"/>
<path d="M65.9744 193.948H63.3126C62.208 193.948 61.3126 194.843 61.3126 195.948V198.819C61.3126 199.924 62.208 200.819 63.3126 200.819H65.9744C67.079 200.819 67.9744 199.924 67.9744 198.819V195.948C67.9744 194.843 67.079 193.948 65.9744 193.948Z" fill="#455A64"/>
<path d="M65.9744 208.986H63.3126C62.208 208.986 61.3126 209.882 61.3126 210.986V213.858C61.3126 214.962 62.208 215.858 63.3126 215.858H65.9744C67.079 215.858 67.9744 214.962 67.9744 213.858V210.986C67.9744 209.882 67.079 208.986 65.9744 208.986Z" fill="#455A64"/>
<path d="M65.9744 224.025H63.3126C62.208 224.025 61.3126 224.921 61.3126 226.025V228.897C61.3126 230.001 62.208 230.897 63.3126 230.897H65.9744C67.079 230.897 67.9744 230.001 67.9744 228.897V226.025C67.9744 224.921 67.079 224.025 65.9744 224.025Z" fill="#455A64"/>
<path d="M65.9744 239.063H63.3126C62.208 239.063 61.3126 239.959 61.3126 241.063V243.935C61.3126 245.039 62.208 245.935 63.3126 245.935H65.9744C67.079 245.935 67.9744 245.039 67.9744 243.935V241.063C67.9744 239.959 67.079 239.063 65.9744 239.063Z" fill="#455A64"/>
<path d="M65.9744 254.102H63.3126C62.208 254.102 61.3126 254.998 61.3126 256.102V258.974C61.3126 260.079 62.208 260.974 63.3126 260.974H65.9744C67.079 260.974 67.9744 260.079 67.9744 258.974V256.102C67.9744 254.998 67.079 254.102 65.9744 254.102Z" fill="#455A64"/>
<path d="M65.9744 269.141H63.3126C62.208 269.141 61.3126 270.036 61.3126 271.141V274.013C61.3126 275.117 62.208 276.013 63.3126 276.013H65.9744C67.079 276.013 67.9744 275.117 67.9744 274.013V271.141C67.9744 270.036 67.079 269.141 65.9744 269.141Z" fill="#455A64"/>
<path d="M65.9744 284.179H63.3126C62.208 284.179 61.3126 285.075 61.3126 286.179V289.051C61.3126 290.156 62.208 291.051 63.3126 291.051H65.9744C67.079 291.051 67.9744 290.156 67.9744 289.051V286.179C67.9744 285.075 67.079 284.179 65.9744 284.179Z" fill="#455A64"/>
<path d="M145.957 391.868H139.594C138.489 391.868 137.594 392.763 137.594 393.868V396.739C137.594 397.844 138.489 398.739 139.594 398.739H145.957C147.061 398.739 147.957 397.844 147.957 396.739V393.868C147.957 392.763 147.061 391.868 145.957 391.868Z" fill="#E0E0E0"/>
<path d="M129.29 391.868H102.078C100.974 391.868 100.078 392.763 100.078 393.868V396.739C100.078 397.844 100.974 398.739 102.078 398.739H129.29C130.395 398.739 131.29 397.844 131.29 396.739V393.868C131.29 392.763 130.395 391.868 129.29 391.868Z" fill="#07E1E8"/>
<path d="M65.9744 391.103H63.3126C62.208 391.103 61.3126 391.999 61.3126 393.103V395.975C61.3126 397.08 62.208 397.975 63.3126 397.975H65.9744C67.079 397.975 67.9744 397.08 67.9744 395.975V393.103C67.9744 391.999 67.079 391.103 65.9744 391.103Z" fill="#455A64"/>
<path d="M65.9744 299.218H63.3126C62.208 299.218 61.3126 300.113 61.3126 301.218V304.09C61.3126 305.194 62.208 306.09 63.3126 306.09H65.9744C67.079 306.09 67.9744 305.194 67.9744 304.09V301.218C67.9744 300.113 67.079 299.218 65.9744 299.218Z" fill="#455A64"/>
<path d="M65.9744 314.269H63.3126C62.208 314.269 61.3126 315.164 61.3126 316.269V319.14C61.3126 320.245 62.208 321.14 63.3126 321.14H65.9744C67.079 321.14 67.9744 320.245 67.9744 319.14V316.269C67.9744 315.164 67.079 314.269 65.9744 314.269Z" fill="#455A64"/>
<path d="M65.9744 329.308H63.3126C62.208 329.308 61.3126 330.203 61.3126 331.308V334.179C61.3126 335.284 62.208 336.179 63.3126 336.179H65.9744C67.079 336.179 67.9744 335.284 67.9744 334.179V331.308C67.9744 330.203 67.079 329.308 65.9744 329.308Z" fill="#455A64"/>
<path d="M65.9744 344.346H63.3126C62.208 344.346 61.3126 345.242 61.3126 346.346V349.218C61.3126 350.322 62.208 351.218 63.3126 351.218H65.9744C67.079 351.218 67.9744 350.322 67.9744 349.218V346.346C67.9744 345.242 67.079 344.346 65.9744 344.346Z" fill="#455A64"/>
<path d="M65.9744 359.385H63.3126C62.208 359.385 61.3126 360.28 61.3126 361.385V364.257C61.3126 365.361 62.208 366.257 63.3126 366.257H65.9744C67.079 366.257 67.9744 365.361 67.9744 364.257V361.385C67.9744 360.28 67.079 359.385 65.9744 359.385Z" fill="#455A64"/>
<path d="M129.502 375.213H101.883C100.778 375.213 99.8829 376.108 99.8829 377.213V380.084C99.8829 381.189 100.778 382.084 101.883 382.084H129.502C130.607 382.084 131.502 381.189 131.502 380.084V377.213C131.502 376.108 130.607 375.213 129.502 375.213Z" fill="#455A64"/>
<path d="M207.11 375.213H139.594C138.489 375.213 137.594 376.108 137.594 377.213V380.084C137.594 381.189 138.489 382.084 139.594 382.084H207.11C208.215 382.084 209.11 381.189 209.11 380.084V377.213C209.11 376.108 208.215 375.213 207.11 375.213Z" fill="#455A64"/>
<path d="M65.9744 375.214H63.3126C62.208 375.214 61.3126 376.109 61.3126 377.214V380.085C61.3126 381.19 62.208 382.085 63.3126 382.085H65.9744C67.079 382.085 67.9744 381.19 67.9744 380.085V377.214C67.9744 376.109 67.079 375.214 65.9744 375.214Z" fill="#455A64"/>
<path d="M252.213 178.391H233.008C231.903 178.391 231.008 179.286 231.008 180.391V183.263C231.008 184.367 231.903 185.263 233.008 185.263H252.213C253.318 185.263 254.213 184.367 254.213 183.263V180.391C254.213 179.286 253.318 178.391 252.213 178.391Z" fill="#E0E0E0"/>
<path d="M59.9203 144.465C62.5299 144.465 64.6453 142.349 64.6453 139.74C64.6453 137.13 62.5299 135.015 59.9203 135.015C57.3108 135.015 55.1953 137.13 55.1953 139.74C55.1953 142.349 57.3108 144.465 59.9203 144.465Z" fill="#455A64"/>
<path d="M73.0219 144.465C75.6314 144.465 77.7469 142.349 77.7469 139.74C77.7469 137.13 75.6314 135.015 73.0219 135.015C70.4123 135.015 68.2969 137.13 68.2969 139.74C68.2969 142.349 70.4123 144.465 73.0219 144.465Z" fill="#455A64"/>
<path d="M86.1274 144.465C88.7369 144.465 90.8523 142.349 90.8523 139.74C90.8523 137.13 88.7369 135.015 86.1274 135.015C83.5178 135.015 81.4023 137.13 81.4023 139.74C81.4023 142.349 83.5178 144.465 86.1274 144.465Z" fill="#455A64"/>
<g opacity="0.3">
<path d="M442.592 410.139H274.33C269.396 410.139 265.398 406.141 265.398 401.207V312.394C265.398 307.459 269.396 303.462 274.33 303.462H442.592C447.527 303.462 451.524 307.459 451.524 312.394V401.207C451.524 406.141 447.527 410.139 442.592 410.139Z" fill="black"/>
</g>
<path d="M459.178 398.74H284.032C281.01 398.74 278.555 396.285 278.555 393.262V297.565C278.555 294.543 281.01 292.088 284.032 292.088H459.178C462.201 292.088 464.656 294.543 464.656 297.565V393.262C464.668 396.285 462.213 398.74 459.178 398.74Z" fill="#07E1E8"/>
<path d="M351.477 358.447H334.489L331.331 366.256H319.734L337.475 326.063H348.664L366.466 366.256H354.635L351.477 358.447ZM348.146 350.07L342.977 337.215L337.808 350.07H348.146Z" fill="white"/>
<path d="M397.52 327.876C400.197 329.085 402.27 330.8 403.725 333.045C405.181 335.291 405.909 337.918 405.909 340.941C405.909 343.963 405.181 346.591 403.725 348.812C402.27 351.033 400.209 352.747 397.52 353.956C394.843 355.165 391.685 355.77 388.045 355.77H381.038V366.281H369.676V326.063H388.045C391.685 326.063 394.843 326.667 397.52 327.876ZM392.647 345.271C393.831 344.26 394.423 342.816 394.423 340.941C394.423 339.066 393.831 337.61 392.647 336.574C391.463 335.537 389.699 335.019 387.367 335.019H381.05V346.789H387.367C389.699 346.789 391.45 346.283 392.647 345.271Z" fill="white"/>
<path d="M411.41 326.063H422.772V366.256H411.41V326.063Z" fill="white"/>
<path d="M79.7348 161.909C79.9075 161.909 80.0556 221.077 80.0556 294.037C80.0556 367.022 79.9075 426.177 79.7348 426.177C79.5621 426.177 79.4141 367.022 79.4141 294.037C79.4141 221.065 79.5498 161.909 79.7348 161.909Z" fill="#455A64"/>
<path d="M225.978 442.768C225.978 445.149 224.054 447.074 221.673 447.074C219.292 447.074 217.367 445.149 217.367 442.768C217.367 440.387 219.292 438.463 221.673 438.463C224.041 438.463 225.978 440.387 225.978 442.768Z" fill="#07E1E8"/>
<path d="M81.0135 509.018C81.0135 511.399 79.0889 513.323 76.7079 513.323C74.3269 513.323 72.4023 511.399 72.4023 509.018C72.4023 506.637 74.3269 504.712 76.7079 504.712C79.0889 504.712 81.0135 506.637 81.0135 509.018Z" fill="#07E1E8"/>
<path d="M568.116 408.966C568.116 412.284 565.427 414.961 562.121 414.961C558.802 414.961 556.125 412.272 556.125 408.966C556.125 405.647 558.814 402.97 562.121 402.97C565.427 402.958 568.116 405.647 568.116 408.966Z" fill="#07E1E8"/>
<path d="M597.226 382.355C597.226 385.674 594.536 388.351 591.23 388.351C587.911 388.351 585.234 385.661 585.234 382.355C585.234 379.036 587.924 376.359 591.23 376.359C594.536 376.347 597.226 379.036 597.226 382.355Z" fill="#07E1E8"/>
<path d="M568.702 355.744C568.702 359.063 566.013 361.74 562.707 361.74C559.388 361.74 556.711 359.05 556.711 355.744C556.711 352.426 559.4 349.749 562.707 349.749C566.013 349.749 568.702 352.438 568.702 355.744Z" fill="#07E1E8"/>
<path d="M258.056 136.247H167.627C161.915 136.247 157.289 131.621 157.289 125.909V73.1322C157.289 67.4202 161.915 62.7939 167.627 62.7939H258.056C263.768 62.7939 268.395 67.4202 268.395 73.1322V125.909C268.395 131.621 263.768 136.247 258.056 136.247Z" fill="#07E1E8"/>
<g opacity="0.3">
<path d="M258.056 136.247H167.627C161.915 136.247 157.289 131.621 157.289 125.909V73.1322C157.289 67.4202 161.915 62.7939 167.627 62.7939H258.056C263.768 62.7939 268.395 67.4202 268.395 73.1322V125.909C268.395 131.621 263.768 136.247 258.056 136.247Z" fill="black"/>
</g>
<path d="M250.595 136.248H160.178C154.466 136.248 149.84 131.621 149.84 125.909V73.1323C149.84 67.4204 154.466 62.7941 160.178 62.7941H250.595C256.307 62.7941 260.933 67.4204 260.933 73.1323V125.909C260.933 131.621 256.307 136.248 250.595 136.248Z" fill="#07E1E8"/>
<path d="M193.376 95.3883L178.239 100.755L193.376 106.121V113.055L169.973 104.419V97.1031L193.376 88.4673V95.3883Z" fill="white"/>
<path d="M210.043 77.4015H218.062L202.394 122.123H194.375L210.043 77.4015Z" fill="white"/>
<path d="M241.981 97.1034V104.419L218.578 113.055V106.122L233.716 100.755L218.578 95.3885V88.4552L241.981 97.1034Z" fill="white"/>
<path d="M368.116 89.0098C371.842 86.7521 375.814 85.0496 379.91 83.89L382.34 72.2193L402.067 71.8739L404.904 83.4582C409.037 84.4822 413.071 86.0489 416.871 88.1709L422.349 81.6323H426.839L441.027 95.3386L434.846 105.529C437.103 109.255 438.806 113.227 439.966 117.323L451.636 119.753L451.982 139.48L440.397 142.317C439.373 146.45 437.807 150.472 435.685 154.284L442.223 164.252L428.517 178.44H424.026L418.327 172.259C414.601 174.516 410.629 176.219 406.533 177.379L404.102 189.049L384.376 189.395L381.538 177.81C377.405 176.786 373.384 175.22 369.572 173.098L359.603 179.636H355.113L345.416 165.93L351.597 155.74C349.339 152.014 347.637 148.042 346.477 143.946L334.806 141.515L334.461 121.789L346.045 118.951C347.069 114.818 348.636 110.797 350.758 106.985L344.219 97.0164L353.423 82.829H357.913L368.116 89.0098ZM378.627 115.287C370.509 123.701 370.744 137.086 379.157 145.204C387.571 153.322 400.957 153.087 409.074 144.674C417.192 136.26 416.957 122.874 408.544 114.757C400.142 106.639 386.744 106.874 378.627 115.287Z" fill="#E0E0E0"/>
<g opacity="0.3">
<path d="M368.116 89.0098C371.842 86.7521 375.814 85.0496 379.91 83.89L382.34 72.2193L402.067 71.8739L404.904 83.4582C409.037 84.4822 413.071 86.0489 416.871 88.1709L422.349 81.6323H426.839L441.027 95.3386L434.846 105.529C437.103 109.255 438.806 113.227 439.966 117.323L451.636 119.753L451.982 139.48L440.397 142.317C439.373 146.45 437.807 150.472 435.685 154.284L442.223 164.252L428.517 178.44H424.026L418.327 172.259C414.601 174.516 410.629 176.219 406.533 177.379L404.102 189.049L384.376 189.395L381.538 177.81C377.405 176.786 373.384 175.22 369.572 173.098L359.603 179.636H355.113L345.416 165.93L351.597 155.74C349.339 152.014 347.637 148.042 346.477 143.946L334.806 141.515L334.461 121.789L346.045 118.951C347.069 114.818 348.636 110.797 350.758 106.985L344.219 97.0164L353.423 82.829H357.913L368.116 89.0098ZM378.627 115.287C370.509 123.701 370.744 137.086 379.157 145.204C387.571 153.322 400.957 153.087 409.074 144.674C417.192 136.26 416.957 122.874 408.544 114.757C400.142 106.639 386.744 106.874 378.627 115.287Z" fill="black"/>
</g>
<path d="M363.613 89.0101C367.338 86.7524 371.311 85.05 375.407 83.8903L377.837 72.2196L397.564 71.8742L400.401 83.4585C404.534 84.4825 408.568 86.0492 412.368 88.1712L422.336 81.6326L436.523 95.3389L430.343 105.529C432.6 109.255 434.303 113.227 435.462 117.323L447.133 119.753L447.478 139.48L435.894 142.318C434.87 146.45 433.303 150.472 431.181 154.284L437.72 164.252L424.014 178.44L413.823 172.259C410.098 174.517 406.125 176.219 402.029 177.379L399.599 189.05L379.873 189.395L377.035 177.811C372.902 176.787 368.88 175.22 365.068 173.098L355.1 179.636L340.913 165.93L347.094 155.74C344.836 152.014 343.133 148.042 341.961 143.946L330.291 141.516L329.945 121.789L341.53 118.952C342.554 114.819 344.12 110.797 346.242 106.985L339.704 97.0167L353.41 82.8293L363.613 89.0101ZM374.124 115.288C366.006 123.701 366.24 137.087 374.654 145.204C383.068 153.322 396.453 153.088 404.571 144.674C412.688 136.26 412.454 122.875 404.04 114.757C395.639 106.639 382.241 106.874 374.124 115.288Z" fill="#E0E0E0"/>
<path d="M712.191 324.705H525.042C518.17 324.705 512.594 319.129 512.594 312.257V45.6212C512.594 38.7496 518.17 33.1733 525.042 33.1733H712.191C719.063 33.1733 724.639 38.7496 724.639 45.6212V312.257C724.639 319.129 719.063 324.705 712.191 324.705Z" fill="white"/>
<path d="M644.399 193.972H592.855V236.991H644.399V193.972Z" fill="#E0E0E0"/>
<path d="M709.614 194.527H658.07V237.545H709.614V194.527Z" fill="#E0E0E0"/>
<path d="M579.184 194.527H527.641V237.545H579.184V194.527Z" fill="#E0E0E0"/>
<path d="M724.639 95.0916H512.594V173.714H724.639V95.0916Z" fill="#E0E0E0"/>
<path d="M724.639 62.2884H512.594V44.6097C512.594 38.2933 517.713 33.1611 524.042 33.1611H711.809C718.903 33.1611 724.639 38.9101 724.639 45.9914V62.2884Z" fill="#E0E0E0"/>
<path d="M542.057 78.6847C542.057 83.7799 537.925 87.9127 532.829 87.9127C527.734 87.9127 523.602 83.7799 523.602 78.6847C523.602 73.5896 527.734 69.4568 532.829 69.4568C537.925 69.4568 542.057 73.5896 542.057 78.6847Z" fill="#07E1E8"/>
<path d="M625.016 74.5889H591.102V82.4968H625.016V74.5889Z" fill="#E0E0E0"/>
<path d="M667.293 74.5889H633.379V82.4968H667.293V74.5889Z" fill="#E0E0E0"/>
<path d="M709.562 74.5889H675.648V82.4968H709.562V74.5889Z" fill="#E0E0E0"/>
<path d="M579.184 252.078H527.641V258.962H579.184V252.078Z" fill="#E0E0E0"/>
<path d="M579.184 267.116H527.641V274H579.184V267.116Z" fill="#E0E0E0"/>
<path d="M555.547 282.155H527.641V289.039H555.547V282.155Z" fill="#E0E0E0"/>
<path d="M645.426 252.078H593.883V258.962H645.426V252.078Z" fill="#E0E0E0"/>
<path d="M645.426 267.117H593.883V274.001H645.426V267.117Z" fill="#E0E0E0"/>
<path d="M621.789 282.156H593.883V289.04H621.789V282.156Z" fill="#E0E0E0"/>
<path d="M711.692 252.078H660.148V258.962H711.692V252.078Z" fill="#E0E0E0"/>
<path d="M711.692 267.117H660.148V274.001H711.692V267.117Z" fill="#E0E0E0"/>
<path d="M688.054 282.156H660.148V289.04H688.054V282.156Z" fill="#E0E0E0"/>
<path d="M712.197 324.706C712.197 324.706 712.407 324.681 712.839 324.656C713.27 324.656 713.9 324.557 714.726 324.409C716.33 324.052 718.834 323.2 721.117 320.832C722.239 319.66 723.276 318.093 723.917 316.181C724.645 314.269 724.559 312.036 724.546 309.63C724.534 304.831 724.522 299.292 724.522 293.049C724.497 268.104 724.46 232.007 724.423 187.421C724.411 165.116 724.398 140.702 724.386 114.474C724.386 101.359 724.374 87.8013 724.374 73.836C724.374 66.8533 724.374 59.772 724.361 52.5796C724.361 50.7784 724.361 48.9773 724.361 47.1761C724.386 45.3502 724.361 43.5861 723.781 41.8836C722.696 38.5033 720.056 35.6041 716.688 34.2964C715.01 33.6179 713.209 33.3958 711.371 33.4329C709.52 33.4329 707.657 33.4329 705.794 33.4329C702.069 33.4329 698.306 33.4329 694.543 33.4329C686.993 33.4329 679.356 33.4329 671.646 33.4329C656.212 33.4329 640.458 33.4329 624.42 33.4452C592.332 33.4452 559.122 33.4452 525.097 33.4575C523.024 33.4822 520.951 33.988 519.15 34.9996C517.361 36.0236 515.795 37.4793 514.746 39.2435C513.648 40.9953 513.043 43.0186 512.969 45.0788C512.92 47.1638 512.957 49.2857 512.945 51.383C512.945 59.7843 512.945 68.1364 512.945 76.4144C512.945 92.9828 512.945 109.317 512.945 125.367C512.932 157.455 512.932 188.408 512.92 217.893C512.908 247.378 512.895 275.395 512.895 301.623C512.895 304.905 512.895 308.15 512.895 311.369C512.747 314.552 513.734 317.711 515.77 320.079C517.756 322.448 520.655 324.015 523.69 324.335C525.195 324.483 526.762 324.397 528.292 324.422C529.834 324.422 531.364 324.422 532.881 324.422C545.058 324.434 556.728 324.434 567.881 324.446C612.478 324.483 648.564 324.521 673.509 324.545C685.969 324.57 695.653 324.595 702.229 324.607C705.51 324.619 708.003 324.632 709.693 324.644C711.333 324.681 712.197 324.706 712.197 324.706C712.197 324.706 711.333 324.73 709.656 324.743C707.966 324.755 705.461 324.755 702.192 324.78C695.616 324.792 685.944 324.817 673.472 324.841C648.527 324.866 612.441 324.903 567.844 324.94C556.691 324.952 545.008 324.952 532.844 324.965C531.327 324.965 529.797 324.965 528.255 324.965C526.713 324.94 525.183 325.026 523.591 324.878C520.433 324.545 517.411 322.929 515.338 320.449C513.216 317.994 512.18 314.651 512.34 311.406C512.34 308.187 512.34 304.93 512.34 301.66C512.328 275.432 512.316 247.415 512.316 217.93C512.316 188.445 512.303 157.492 512.291 125.404C512.291 109.354 512.291 93.0321 512.291 76.4514C512.291 68.1611 512.291 59.8214 512.291 51.42C512.303 49.3104 512.266 47.2254 512.316 45.0912C512.39 42.9322 513.031 40.7856 514.191 38.9474C515.301 37.0846 516.942 35.5548 518.829 34.4815C520.729 33.4205 522.913 32.8654 525.084 32.853C559.109 32.853 592.32 32.853 624.408 32.8654C640.446 32.8654 656.212 32.8654 671.634 32.8777C679.344 32.8777 686.981 32.8777 694.531 32.8777C698.306 32.8777 702.056 32.8777 705.782 32.8777C707.645 32.8777 709.508 32.8777 711.358 32.8777C713.209 32.8407 715.158 33.0751 716.897 33.7906C720.426 35.16 723.189 38.1949 724.324 41.7479C724.941 43.5121 724.966 45.4366 724.929 47.2131C724.929 49.0266 724.929 50.8278 724.929 52.6166C724.929 59.7967 724.929 66.8904 724.916 73.873C724.916 87.8383 724.904 101.396 724.904 114.511C724.892 140.726 724.879 165.153 724.867 187.458C724.818 232.056 724.793 268.141 724.768 293.086C724.756 299.316 724.744 304.856 724.744 309.667C724.719 310.864 724.781 312.011 724.694 313.134C724.633 314.244 724.398 315.293 724.077 316.267C723.411 318.204 722.363 319.771 721.215 320.955C718.884 323.336 716.367 324.163 714.738 324.508C713.9 324.644 713.27 324.73 712.851 324.718C712.407 324.706 712.197 324.706 712.197 324.706Z" fill="#263238"/>
<path d="M533.299 49.2476C533.299 51.1968 531.72 52.7759 529.771 52.7759C527.821 52.7759 526.242 51.1968 526.242 49.2476C526.242 47.2983 527.821 45.7192 529.771 45.7192C531.72 45.7192 533.299 47.2983 533.299 49.2476Z" fill="white"/>
<path d="M544.479 49.2476C544.479 51.1968 542.899 52.7759 540.95 52.7759C539.001 52.7759 537.422 51.1968 537.422 49.2476C537.422 47.2983 539.001 45.7192 540.95 45.7192C542.887 45.7192 544.479 47.2983 544.479 49.2476Z" fill="white"/>
<path d="M555.643 49.2476C555.643 51.1968 554.063 52.7759 552.114 52.7759C550.165 52.7759 548.586 51.1968 548.586 49.2476C548.586 47.2983 550.165 45.7192 552.114 45.7192C554.063 45.7192 555.643 47.2983 555.643 49.2476Z" fill="white"/>
<path d="M603.934 136.013V118.791C603.934 115.559 607.536 113.535 610.423 115.152L625.795 123.763L641.166 132.374C644.053 133.99 644.053 138.036 641.166 139.653L625.795 148.264L610.423 156.875C607.536 158.491 603.934 156.468 603.934 153.235V136.013Z" fill="white"/>
<path d="M705.444 535.21L624.033 534.852C614.238 534.815 606.342 527.29 606.379 518.062L607.243 325.644C607.28 316.404 615.262 308.952 625.057 308.989L706.468 309.347C716.263 309.384 724.159 316.909 724.122 326.137L723.258 518.567C723.209 527.808 715.239 535.259 705.444 535.21Z" fill="#263238"/>
<path d="M706.336 315.997L690.545 315.923L644.442 315.725L638.89 315.701L625.073 315.639C618.214 315.614 612.625 320.833 612.601 327.297L611.762 515.113C611.737 521.578 617.264 526.846 624.123 526.87L705.374 527.228C712.233 527.253 717.822 522.034 717.846 515.57L718.685 327.754C718.734 321.289 713.195 316.021 706.336 315.997Z" fill="white"/>
<path d="M707.023 333.463C707.023 334.006 706.566 334.437 706.011 334.437C705.456 334.437 705.012 333.993 705.012 333.45C705.012 332.908 705.468 332.476 706.023 332.476C706.579 332.488 707.023 332.932 707.023 333.463Z" fill="#263238"/>
<path d="M707.011 336.993C707.011 337.535 706.554 337.967 705.999 337.967C705.444 337.967 705 337.523 705 336.98C705 336.437 705.456 336.006 706.012 336.006C706.567 336.006 707.011 336.45 707.011 336.993Z" fill="#263238"/>
<path d="M706.999 340.507C706.999 341.05 706.543 341.482 705.988 341.482C705.433 341.482 704.976 341.038 704.989 340.495C704.989 339.952 705.445 339.52 706 339.52C706.543 339.52 706.999 339.965 706.999 340.507Z" fill="#263238"/>
<path d="M637.979 337.955C637.979 341.52 635.006 344.407 631.329 344.407C627.653 344.407 624.68 341.52 624.68 337.955C624.68 334.39 627.653 331.503 631.329 331.503C635.006 331.503 637.979 334.402 637.979 337.955Z" fill="#07E1E8"/>
<path d="M687.382 339.202H653.295C652.073 339.202 651.074 338.215 651.074 336.981C651.074 335.76 652.061 334.76 653.295 334.76H687.382C688.603 334.76 689.602 335.747 689.602 336.981C689.602 338.202 688.603 339.202 687.382 339.202Z" fill="#E0E0E0"/>
<path d="M645.223 421.438V402.366C645.223 398.788 649.22 396.543 652.415 398.332L669.428 407.868L686.44 417.404C689.635 419.193 689.635 423.671 686.44 425.46L669.428 434.997L652.415 444.533C649.22 446.322 645.223 444.089 645.223 440.499V421.438Z" fill="#07E1E8"/>
<path d="M465.391 504.404C472.608 492.919 484.833 490.241 495.937 492.771C494.234 476.424 501.587 459.412 514.664 449.456C527.741 439.5 546.098 436.934 561.396 442.942C576.706 448.938 588.426 463.285 591.263 479.471C602.774 471.317 620.045 476.831 628.484 488.144C636.922 499.445 637.44 523.6 627.546 534.963L468.154 534.05C468.166 534.05 456.027 519.295 465.391 504.404Z" fill="#07E1E8"/>
<g opacity="0.3">
<path d="M465.387 504.404C472.604 492.919 484.83 490.241 495.933 492.771C494.23 476.424 501.583 459.412 514.66 449.456C527.737 439.5 546.094 436.934 561.392 442.942C576.702 448.938 588.422 463.285 591.259 479.471C602.77 471.317 620.041 476.831 628.48 488.144C636.918 499.445 637.436 523.6 627.542 534.963L468.15 534.05C468.162 534.05 456.023 519.295 465.387 504.404Z" fill="black"/>
</g>
<path d="M451.695 504.404C458.924 492.918 471.138 490.241 482.241 492.77C480.538 476.424 487.891 459.411 500.968 449.456C514.045 439.5 532.402 436.934 547.7 442.942C563.01 448.937 574.73 463.285 577.568 479.471C589.078 471.316 606.35 476.831 614.788 488.144C623.226 499.444 623.744 523.6 613.85 534.962L454.458 534.049C454.458 534.049 442.319 519.294 451.695 504.404Z" fill="#07E1E8"/>
<mask id="path-129-inside-1_1_2950" fill="white">
<path d="M78 465C78 451.745 88.7452 441 102 441H223V498C223 504.627 217.627 510 211 510H78V465Z"/>
</mask>
<path fill-rule="evenodd" clip-rule="evenodd" d="M79.0076 509.5V510.5V511H78V510.5V510V509.5V509H79.0076V509.5ZM81.0227 509V509.5V510.5V511H83.0379V510.5V509.5V509H81.0227ZM85.053 509V509.5V510.5V511H87.0682V510.5V509.5V509H85.053ZM89.0833 509V509.5V510.5V511H91.0985V510.5V509.5V509H89.0833ZM93.1136 509V509.5V510.5V511H95.1288V510.5V509.5V509H93.1136ZM97.1439 509V509.5V510.5V511H99.1591V510.5V509.5V509H97.1439ZM101.174 509V509.5V510.5V511H103.189V510.5V509.5V509H101.174ZM105.205 509V509.5V510.5V511H107.22V510.5V509.5V509H105.205ZM109.235 509V509.5V510.5V511H111.25V510.5V509.5V509H109.235ZM113.265 509V509.5V510.5V511H115.28V510.5V509.5V509H113.265ZM117.295 509V509.5V510.5V511H119.311V510.5V509.5V509H117.295ZM121.326 509V509.5V510.5V511H123.341V510.5V509.5V509H121.326ZM125.356 509V509.5V510.5V511H127.371V510.5V509.5V509H125.356ZM129.386 509V509.5V510.5V511H131.402V510.5V509.5V509H129.386ZM133.417 509V509.5V510.5V511H135.432V510.5V509.5V509H133.417ZM137.447 509V509.5V510.5V511H139.462V510.5V509.5V509H137.447ZM141.477 509V509.5V510.5V511H143.492V510.5V509.5V509H141.477ZM145.508 509V509.5V510.5V511H147.523V510.5V509.5V509H145.508ZM149.538 509V509.5V510.5V511H151.553V510.5V509.5V509H149.538ZM153.568 509V509.5V510.5V511H155.583V510.5V509.5V509H153.568ZM157.598 509V509.5V510.5V511H159.614V510.5V509.5V509H157.598ZM161.629 509V509.5V510.5V511H163.644V510.5V509.5V509H161.629ZM165.659 509V509.5V510.5V511H167.674V510.5V509.5V509H165.659ZM169.689 509V509.5V510.5V511H171.705V510.5V509.5V509H169.689ZM173.72 509V509.5V510.5V511H175.735V510.5V509.5V509H173.72ZM177.75 509V509.5V510.5V511H179.765V510.5V509.5V509H177.75ZM181.78 509V509.5V510.5V511H183.795V510.5V509.5V509H181.78ZM185.811 509V509.5V510.5V511H187.826V510.5V509.5V509H185.811ZM189.841 509V509.5V510.5V511H191.856V510.5V509.5V509H189.841ZM193.871 509V509.5V510.5V511H195.886V510.5V509.5V509H193.871ZM197.902 509V509.5V510.5V511H199.917V510.5V509.5V509H197.902ZM201.932 509V509.5V510.5V511H203.947V510.5V509.5V509H201.932ZM205.962 509V509.5V510.5V511H207.977V510.5V509.5V509H205.962ZM209.992 509V509.5V510.5V511H211C211.343 511 211.683 510.987 212.02 510.961L211.981 510.462L211.904 509.465L211.865 508.967C211.58 508.989 211.291 509 211 509H209.992ZM213.919 510.157L213.686 509.185L213.57 508.698C214.135 508.563 214.683 508.384 215.21 508.166L215.402 508.628L215.785 509.551L215.977 510.013C215.352 510.272 214.704 510.484 214.035 510.644L213.919 510.157ZM217.532 508.659L217.009 507.807L216.747 507.381C216.87 507.306 216.992 507.228 217.112 507.147C217.471 506.907 217.816 506.645 218.144 506.365L218.469 506.745L219.118 507.505L219.443 507.885C219.016 508.251 218.564 508.589 218.091 508.897C217.993 508.961 217.894 509.024 217.794 509.085L217.532 508.659ZM220.505 506.118L219.745 505.469L219.365 505.144C219.69 504.764 219.989 504.361 220.26 503.939C220.301 503.876 220.342 503.812 220.381 503.747L220.807 504.009L221.659 504.532L222.085 504.794C221.996 504.939 221.904 505.083 221.809 505.225C221.525 505.649 221.216 506.056 220.885 506.443L220.505 506.118ZM222.551 502.785L221.628 502.402L221.166 502.21C221.384 501.683 221.563 501.135 221.698 500.57L222.185 500.686L223.157 500.919L223.644 501.035C223.484 501.704 223.272 502.352 223.013 502.977L222.551 502.785ZM223.462 498.981L222.465 498.904L221.967 498.865C221.989 498.58 222 498.291 222 498V496.982H222.5H223.5H224V498C224 498.343 223.987 498.683 223.961 499.02L223.462 498.981ZM224 494.946V492.911H223.5H222.5H222V494.946H222.5H223.5H224ZM222 490.875H222.5H223.5H224V488.839H223.5H222.5H222V490.875ZM222 486.804H222.5H223.5H224V484.768H223.5H222.5H222V486.804ZM222 482.732H222.5H223.5H224V480.696H223.5H222.5H222V482.732ZM222 478.661H222.5H223.5H224V476.625H223.5H222.5H222V478.661ZM222 474.589H222.5H223.5H224V472.554H223.5H222.5H222V474.589ZM222 470.518H222.5H223.5H224V468.482H223.5H222.5H222V470.518ZM222 466.446H222.5H223.5H224V464.411H223.5H222.5H222V466.446ZM222 462.375H222.5H223.5H224V460.339H223.5H222.5H222V462.375ZM222 458.304H222.5H223.5H224V456.268H223.5H222.5H222V458.304ZM222 454.232H222.5H223.5H224V452.196H223.5H222.5H222V454.232ZM222 450.161H222.5H223.5H224V448.125H223.5H222.5H222V450.161ZM222 446.089H222.5H223.5H224V444.054H223.5H222.5H222V446.089ZM222 442.018H222.5H223.5H224V441H223.5H223H222.5H222V442.018Z" fill="#07E1E8" mask="url(#path-129-inside-1_1_2950)"/>
<mask id="path-131-inside-2_1_2950" fill="white">
<path d="M445 377H590V382H445V377Z"/>
</mask>
<path fill-rule="evenodd" clip-rule="evenodd" d="M588.993 383H590V382.5V382V381.5V381H588.993V381.5V382.5V383ZM584.965 383H586.979V382.5V381.5V381H584.965V381.5V382.5V383ZM580.937 383H582.951V382.5V381.5V381H580.937V381.5V382.5V383ZM576.91 383H578.924V382.5V381.5V381H576.91V381.5V382.5V383ZM572.882 383H574.896V382.5V381.5V381H572.882V381.5V382.5V383ZM568.854 383H570.868V382.5V381.5V381H568.854V381.5V382.5V383ZM564.826 383H566.84V382.5V381.5V381H564.826V381.5V382.5V383ZM560.799 383H562.812V382.5V381.5V381H560.799V381.5V382.5V383ZM556.771 383H558.785V382.5V381.5V381H556.771V381.5V382.5V383ZM552.743 383H554.757V382.5V381.5V381H552.743V381.5V382.5V383ZM548.715 383H550.729V382.5V381.5V381H548.715V381.5V382.5V383ZM544.687 383H546.701V382.5V381.5V381H544.687V381.5V382.5V383ZM540.66 383H542.674V382.5V381.5V381H540.66V381.5V382.5V383ZM536.632 383H538.646V382.5V381.5V381H536.632V381.5V382.5V383ZM532.604 383H534.618V382.5V381.5V381H532.604V381.5V382.5V383ZM528.576 383H530.59V382.5V381.5V381H528.576V381.5V382.5V383ZM524.549 383H526.562V382.5V381.5V381H524.549V381.5V382.5V383ZM520.521 383H522.535V382.5V381.5V381H520.521V381.5V382.5V383ZM516.493 383H518.507V382.5V381.5V381H516.493V381.5V382.5V383ZM512.465 383H514.479V382.5V381.5V381H512.465V381.5V382.5V383ZM508.438 383H510.451V382.5V381.5V381H508.438V381.5V382.5V383ZM504.41 383H506.424V382.5V381.5V381H504.41V381.5V382.5V383ZM500.382 383H502.396V382.5V381.5V381H500.382V381.5V382.5V383ZM496.354 383H498.368V382.5V381.5V381H496.354V381.5V382.5V383ZM492.326 383H494.34V382.5V381.5V381H492.326V381.5V382.5V383ZM488.299 383H490.313V382.5V381.5V381H488.299V381.5V382.5V383ZM484.271 383H486.285V382.5V381.5V381H484.271V381.5V382.5V383ZM480.243 383H482.257V382.5V381.5V381H480.243V381.5V382.5V383ZM476.215 383H478.229V382.5V381.5V381H476.215V381.5V382.5V383ZM472.188 383H474.201V382.5V381.5V381H472.188V381.5V382.5V383ZM468.16 383H470.174V382.5V381.5V381H468.16V381.5V382.5V383ZM464.132 383H466.146V382.5V381.5V381H464.132V381.5V382.5V383ZM460.104 383H462.118V382.5V381.5V381H460.104V381.5V382.5V383ZM456.076 383H458.09V382.5V381.5V381H456.076V381.5V382.5V383ZM452.049 383H454.062V382.5V381.5V381H452.049V381.5V382.5V383ZM448.021 383H450.035V382.5V381.5V381H448.021V381.5V382.5V383ZM446.007 381.5V382.5V383H445V382.5V382V381.5V381H446.007V381.5Z" fill="#07E1E8" mask="url(#path-131-inside-2_1_2950)"/>
<mask id="path-133-inside-3_1_2950" fill="white">
<path d="M558 415V352H563V415H558Z"/>
</mask>
<path fill-rule="evenodd" clip-rule="evenodd" d="M564 352.984V352H563.5H563H562.5H562V352.984H562.5H563.5H564ZM564 356.922V354.953H563.5H562.5H562V356.922H562.5H563.5H564ZM564 360.859V358.891H563.5H562.5H562V360.859H562.5H563.5H564ZM564 364.797V362.828H563.5H562.5H562V364.797H562.5H563.5H564ZM564 368.734V366.766H563.5H562.5H562V368.734H562.5H563.5H564ZM564 372.672V370.703H563.5H562.5H562V372.672H562.5H563.5H564ZM564 376.609V374.641H563.5H562.5H562V376.609H562.5H563.5H564ZM564 380.547V378.578H563.5H562.5H562V380.547H562.5H563.5H564ZM564 384.484V382.516H563.5H562.5H562V384.484H562.5H563.5H564ZM564 388.422V386.453H563.5H562.5H562V388.422H562.5H563.5H564ZM564 392.359V390.391H563.5H562.5H562V392.359H562.5H563.5H564ZM564 396.297V394.328H563.5H562.5H562V396.297H562.5H563.5H564ZM564 400.234V398.266H563.5H562.5H562V400.234H562.5H563.5H564ZM564 404.172V402.203H563.5H562.5H562V404.172H562.5H563.5H564ZM564 408.109V406.141H563.5H562.5H562V408.109H562.5H563.5H564ZM564 412.047V410.078H563.5H562.5H562V412.047H562.5H563.5H564ZM562.5 414.016H563.5H564V415H563.5H563H562.5H562V414.016H562.5Z" fill="#07E1E8" mask="url(#path-133-inside-3_1_2950)"/>
</g>
<defs>
<clipPath id="clip0_1_2950">
<rect width="726.394" height="536" fill="white" transform="translate(0.988281)"/>
</clipPath>
</defs>
</svg>
