<svg width="80" height="80" viewBox="0 0 80 80" fill="none" xmlns="http://www.w3.org/2000/svg">
<rect width="80" height="80" rx="8" fill="#112D44"/>
<path fill-rule="evenodd" clip-rule="evenodd" d="M26.2069 34.0866L32.1478 31.9898C30.9212 33.6412 29.8675 35.4148 29.0034 37.2827L26.2069 34.0866ZM22.0789 34.4309L27.583 40.7212L26.7857 42.7144C26.5381 43.3334 26.6833 44.0404 27.1547 44.5119L27.6774 45.0346C24.8389 48.2352 23.271 51.5827 21.7521 56.1397C21.5524 56.7386 21.7083 57.3989 22.1547 57.8452C22.6011 58.2916 23.2614 58.4476 23.8603 58.2479C28.4172 56.7289 31.7647 55.1611 34.9653 52.3226L35.488 52.8452C35.9595 53.3167 36.6665 53.4617 37.2855 53.2142L39.2787 52.4169L45.569 57.9211C45.985 58.2851 46.5544 58.4191 47.089 58.2789C47.6239 58.1387 48.0542 57.7427 48.2382 57.2214L53.215 43.1204C56.496 39.2381 58.3332 34.2914 58.3332 29.1347V23.3334C58.3332 22.4129 57.587 21.6667 56.6665 21.6667H50.8652C45.7085 21.6667 40.7619 23.5038 36.8795 26.7849L22.7785 31.7618C22.2573 31.9457 21.8611 32.3762 21.721 32.9108C21.5809 33.4455 21.7149 34.0149 22.0789 34.4309ZM26.142 53.8579C27.1878 51.3321 28.3615 49.3216 30.0391 47.3964L32.6036 49.9607C30.6784 51.6384 28.6679 52.8121 26.142 53.8579ZM37.0679 49.7111L36.1784 48.8216L31.1784 43.8216L30.2888 42.9321L31.472 39.9741C32.5576 37.2601 34.0821 34.7429 35.9845 32.5234L36.9455 31.4022C40.4285 27.3387 45.5132 25.0001 50.8652 25.0001H54.9999V29.1347C54.9999 34.4867 52.6612 39.5714 48.5977 43.0544L47.4765 44.0154C45.257 45.9177 42.7399 47.4422 40.0259 48.5279L37.0679 49.7111ZM45.9134 53.7931L42.7172 50.9966C44.5852 50.1326 46.3587 49.0787 48.0102 47.8521L45.9134 53.7931ZM44.9999 33.3334C44.9999 32.4129 45.746 31.6667 46.6665 31.6667C47.587 31.6667 48.3332 32.4129 48.3332 33.3334C48.3332 34.2539 47.587 35.0001 46.6665 35.0001C45.746 35.0001 44.9999 34.2539 44.9999 33.3334ZM46.6665 28.3334C43.905 28.3334 41.6665 30.572 41.6665 33.3334C41.6665 36.0948 43.905 38.3334 46.6665 38.3334C49.428 38.3334 51.6665 36.0948 51.6665 33.3334C51.6665 30.572 49.428 28.3334 46.6665 28.3334Z" fill="#06E7ED"/>
</svg>
