<svg width="20" height="20" viewBox="0 0 20 20" fill="none" xmlns="http://www.w3.org/2000/svg">
<path d="M7.5013 18.3337H12.5013C16.668 18.3337 18.3346 16.667 18.3346 12.5003V7.50033C18.3346 3.33366 16.668 1.66699 12.5013 1.66699H7.5013C3.33464 1.66699 1.66797 3.33366 1.66797 7.50033V12.5003C1.66797 16.667 3.33464 18.3337 7.5013 18.3337Z" stroke="#112D44" stroke-width="1.5" stroke-linecap="round" stroke-linejoin="round"/>
<path d="M13.5657 11.3417C12.624 12.2834 11.274 12.575 10.0824 12.2L7.92402 14.35C7.77402 14.5084 7.46569 14.6084 7.24069 14.575L6.24069 14.4417C5.90736 14.4 5.60736 14.0834 5.55736 13.7584L5.42403 12.7584C5.39069 12.5417 5.49902 12.2334 5.64902 12.075L7.79902 9.92503C7.43236 8.73337 7.71569 7.38337 8.65736 6.4417C10.0074 5.0917 12.2074 5.0917 13.5657 6.4417C14.9157 7.78337 14.9157 9.98337 13.5657 11.3417Z" stroke="#112D44" stroke-width="1.5" stroke-miterlimit="10" stroke-linecap="round" stroke-linejoin="round"/>
<path d="M8.70833 13.5668L8 12.8501" stroke="#112D44" stroke-width="1.5" stroke-miterlimit="10" stroke-linecap="round" stroke-linejoin="round"/>
<path d="M11.1621 8.91667H11.1696" stroke="#112D44" stroke-width="2" stroke-linecap="round" stroke-linejoin="round"/>
</svg>
