<svg width="24" height="24" viewBox="0 0 24 24" fill="none" xmlns="http://www.w3.org/2000/svg">
<path d="M9.31198 5.98498C9.31198 6.06224 9.28621 6.1395 9.20889 6.19101L7.0439 7.89074C6.96657 7.94225 6.86348 7.968 6.78616 7.91649C6.70884 7.86499 6.63152 7.78773 6.63152 7.68471V7.45293C5.80676 7.53019 5.08509 8.07101 4.72426 8.81787C4.67271 8.92088 4.59539 8.97239 4.4923 8.97239C4.3892 8.97239 4.28611 8.92088 4.26033 8.81787C3.43557 7.01512 4.67271 4.95484 6.63152 4.77456V4.28525C6.63152 4.18223 6.68306 4.10497 6.78616 4.05347C6.86348 4.00196 6.99235 4.02771 7.0439 4.07922L9.20889 5.77895C9.28621 5.83046 9.31198 5.90772 9.31198 5.98498Z" fill="#112D44"/>
<path d="M8.97665 19.5051C8.97665 19.6082 8.92511 19.7112 8.82201 19.7369C7.01785 20.561 4.95595 19.3506 4.77554 17.3676H4.26006C4.15697 17.3676 4.07965 17.3161 4.0281 17.2131C3.97655 17.1358 4.00232 17.0071 4.05387 16.9298L5.75494 14.7665C5.85803 14.6377 6.06422 14.6377 6.16732 14.7665L7.86838 16.9298C7.91993 17.0071 7.9457 17.1101 7.89416 17.2131C7.84261 17.2903 7.76529 17.3676 7.66219 17.3676H7.43023C7.53333 18.1917 8.0488 18.9128 8.79624 19.2734C8.92511 19.3249 8.97665 19.4021 8.97665 19.5051Z" fill="#112D44"/>
<path d="M17.3537 19.2219V19.7369C17.3537 19.84 17.3021 19.9172 17.199 19.9687C17.1733 19.9945 17.1475 19.9945 17.0959 19.9945C17.0444 19.9945 16.9929 19.9687 16.9413 19.943L14.7763 18.2432C14.7248 18.1917 14.6732 18.1145 14.6732 18.0372C14.6732 17.96 14.699 17.8827 14.7763 17.8312L16.9413 16.1315C17.0186 16.0799 17.1217 16.0542 17.2248 16.1057C17.3021 16.1572 17.3795 16.2345 17.3795 16.3375V16.5693C18.2042 16.4662 18.9259 15.9512 19.2867 15.2043C19.3383 15.1013 19.4156 15.0498 19.5187 15.0498C19.6218 15.0498 19.6991 15.1013 19.7506 15.2043C20.5496 16.9556 19.3383 19.0416 17.3537 19.2219Z" fill="#112D44"/>
<path d="M19.9307 7.06628L18.2296 9.22958C18.1781 9.28109 18.1008 9.33259 18.0234 9.33259C17.9461 9.33259 17.8688 9.30684 17.8173 9.22958L16.1162 7.06628C16.0646 6.98902 16.0389 6.88601 16.0904 6.783C16.142 6.70574 16.2193 6.62847 16.3224 6.62847H16.5543C16.477 5.80436 15.9358 5.08326 15.1883 4.72272C15.0852 4.67121 15.0337 4.59395 15.0337 4.49093C15.0337 4.38792 15.0852 4.28491 15.1883 4.25915C16.9925 3.43504 19.0544 4.67121 19.2348 6.62847H19.7503C19.8534 6.62847 19.9307 6.67998 19.9822 6.783C20.008 6.88601 19.9822 6.98902 19.9307 7.06628Z" fill="#112D44"/>
<path d="M12 15C13.6541 15 15 13.6541 15 12C15 10.3459 13.6541 9 12 9C10.3459 9 9 10.3459 9 12C9 13.6541 10.3459 15 12 15ZM12.2727 12.2727H11.7273C11.1256 12.2727 10.6364 11.7835 10.6364 11.1818C10.6364 10.5802 11.1256 10.0909 11.7273 10.0909V9.82724H12.2727V10.0909C12.8744 10.0909 13.3636 10.5802 13.3636 11.1818H12.8182C12.8182 10.881 12.5735 10.6364 12.2727 10.6364H11.7273C11.4265 10.6364 11.1818 10.881 11.1818 11.1818C11.1818 11.4826 11.4265 11.7273 11.7273 11.7273H12.2727C12.8744 11.7273 13.3636 12.2165 13.3636 12.8182C13.3636 13.4198 12.8744 13.9091 12.2727 13.9091V14.1922H11.7273V13.9091C11.1256 13.9091 10.6364 13.4198 10.6364 12.8182H11.1818C11.1818 13.119 11.4265 13.3636 11.7273 13.3636H12.2727C12.5735 13.3636 12.8182 13.119 12.8182 12.8182C12.8182 12.5174 12.5735 12.2727 12.2727 12.2727Z" fill="#112D44"/>
</svg>
