<svg width="20" height="20" viewBox="0 0 20 20" fill="none" xmlns="http://www.w3.org/2000/svg">
<g id="vuesax/linear/bitcoin-refresh">
<g id="bitcoin-refresh">
<path id="Vector" d="M3.7237 9.5164L2.2737 8.06641L0.832031 9.5164" stroke="#112D44" stroke-width="1.5" stroke-linecap="round" stroke-linejoin="round"/>
<path id="Vector_2" d="M16.2754 10.4834L17.7254 11.9334L19.1754 10.4834" stroke="#112D44" stroke-width="1.5" stroke-linecap="round" stroke-linejoin="round"/>
<path id="Vector_3" d="M17.7163 11.9332V9.99988C17.7163 5.73321 14.2579 2.2832 9.99961 2.2832C7.56628 2.2832 5.39128 3.41656 3.97461 5.1749" stroke="#112D44" stroke-width="1.5" stroke-linecap="round" stroke-linejoin="round"/>
<path id="Vector_4" d="M2.2832 8.06689V10.0002C2.2832 14.2669 5.74154 17.7169 9.99987 17.7169C12.4332 17.7169 14.6082 16.5835 16.0249 14.8252" stroke="#112D44" stroke-width="1.5" stroke-linecap="round" stroke-linejoin="round"/>
<g id="Group">
<path id="Vector_5" d="M7.5 7.0835H11.15C11.9583 7.0835 12.6083 7.81683 12.6083 8.54183C12.6083 9.35016 11.9583 10.0002 11.15 10.0002H7.5V7.0835Z" stroke="#112D44" stroke-width="1.5" stroke-miterlimit="10" stroke-linecap="round" stroke-linejoin="round"/>
<path id="Vector_6" d="M7.5 10H11.6667C12.5833 10 13.3333 10.65 13.3333 11.4583C13.3333 12.2667 12.5833 12.9167 11.6667 12.9167H7.5V10Z" stroke="#112D44" stroke-width="1.5" stroke-miterlimit="10" stroke-linecap="round" stroke-linejoin="round"/>
<path id="Vector_7" d="M9.83203 12.917V14.3753" stroke="#112D44" stroke-width="1.5" stroke-miterlimit="10" stroke-linecap="round" stroke-linejoin="round"/>
<path id="Vector_8" d="M9.83203 5.625V7.08333" stroke="#112D44" stroke-width="1.5" stroke-miterlimit="10" stroke-linecap="round" stroke-linejoin="round"/>
</g>
</g>
</g>
</svg>
