<svg width="24" height="24" viewBox="0 0 24 24" fill="none" xmlns="http://www.w3.org/2000/svg">
<path d="M17.3328 13.6671C16.3875 13.6671 15.5217 14.0306 14.8707 14.6226L12.329 12.8257V10.3329C12.329 10.3329 12.329 10.3226 12.329 10.3156C14.1955 10.1495 15.6672 8.57415 15.6672 6.66647C15.6672 4.64108 14.0223 3 12 3C9.97768 3 8.33282 4.64455 8.33282 6.66647C8.33282 8.57761 9.80454 10.1495 11.671 10.3156C11.671 10.3226 11.671 10.326 11.671 10.3329V12.8257L9.12928 14.6226C8.47826 14.0306 7.61601 13.6671 6.66718 13.6671C4.6414 13.6671 3 15.3116 3 17.3335C3 19.3555 4.64486 21 6.66718 21C8.6895 21 10.3344 19.3555 10.3344 17.3335C10.3344 16.4991 10.0504 15.734 9.58292 15.1212L12 13.4074L14.4171 15.1212C13.9496 15.734 13.6656 16.5026 13.6656 17.3335C13.6656 19.3589 15.3105 21 17.3328 21C19.3551 21 21 19.3555 21 17.3335C21 15.3116 19.3551 13.6671 17.3328 13.6671ZM7.99692 18.1818C7.99692 18.7253 7.55367 19.1685 7.01 19.1685H6.99615V19.3347C6.99615 19.5182 6.84725 19.667 6.66372 19.667C6.48018 19.667 6.33128 19.5182 6.33128 19.3347V19.1685C5.79107 19.1685 5.35129 18.7219 5.35129 18.1818C5.35129 17.9983 5.49673 17.8494 5.68372 17.8494C5.87072 17.8494 6.01616 17.9983 6.01616 18.1818C6.01616 18.3653 6.15814 18.5003 6.33474 18.5003H7.01C7.18661 18.5003 7.32859 18.3583 7.32859 18.1818V17.9879C7.32859 17.8113 7.18661 17.6694 7.01 17.6694H6.31743C5.77376 17.6694 5.33051 17.2262 5.33051 16.6826V16.4887C5.33051 15.9452 5.77376 15.502 6.31743 15.502H6.33128V15.3358C6.33128 15.1523 6.48018 15.0035 6.66372 15.0035C6.84725 15.0035 6.99615 15.1523 6.99615 15.3358V15.502C7.53636 15.502 7.97614 15.9486 7.97614 16.4887C7.97614 16.6722 7.8307 16.8211 7.64371 16.8211C7.45671 16.8211 7.31127 16.6722 7.31127 16.4887C7.31127 16.3053 7.1693 16.1702 6.99269 16.1702H6.31743C6.14082 16.1702 5.99885 16.3122 5.99885 16.4887V16.6826C5.99885 16.8592 6.14082 17.0012 6.31743 17.0012H7.01C7.55367 17.0012 7.99692 17.4443 7.99692 17.9879V18.1818ZM11.6641 8.66763V8.50144C11.1239 8.50144 10.6841 8.05482 10.6841 7.51471C10.6841 7.33122 10.8295 7.18234 11.0165 7.18234C11.2035 7.18234 11.349 7.33122 11.349 7.51471C11.349 7.69821 11.491 7.83324 11.6676 7.83324H12.3428C12.5194 7.83324 12.6614 7.69129 12.6614 7.51471V7.32083C12.6614 7.14426 12.5194 7.00231 12.3428 7.00231H11.6503C11.1066 7.00231 10.6633 6.55915 10.6633 6.01558V5.8217C10.6633 5.27813 11.1066 4.83497 11.6503 4.83497H11.6641V4.66878C11.6641 4.48529 11.813 4.33641 11.9965 4.33641C12.1801 4.33641 12.329 4.48529 12.329 4.66878V4.83497C12.8692 4.83497 13.309 5.28159 13.309 5.8217C13.309 6.00519 13.1635 6.15407 12.9765 6.15407C12.7895 6.15407 12.6441 6.00519 12.6441 5.8217C12.6441 5.6382 12.5021 5.50317 12.3255 5.50317H11.6503C11.4736 5.50317 11.3317 5.64512 11.3317 5.8217V6.01558C11.3317 6.19215 11.4736 6.3341 11.6503 6.3341H12.3428C12.8865 6.3341 13.3297 6.77726 13.3297 7.32083V7.51471C13.3297 8.05828 12.8865 8.50144 12.3428 8.50144H12.329V8.66763C12.329 8.85113 12.1801 9 11.9965 9C11.813 9 11.6641 8.85113 11.6641 8.66763ZM18.666 18.1818C18.666 18.7253 18.2228 19.1685 17.6791 19.1685H17.6653V19.3347C17.6653 19.5182 17.5164 19.667 17.3328 19.667C17.1493 19.667 17.0004 19.5182 17.0004 19.3347V19.1685C16.4602 19.1685 16.0204 18.7219 16.0204 18.1818C16.0204 17.9983 16.1658 17.8494 16.3528 17.8494C16.5398 17.8494 16.6853 17.9983 16.6853 18.1818C16.6853 18.3653 16.8272 18.5003 17.0038 18.5003H17.6791C17.8557 18.5003 17.9977 18.3583 17.9977 18.1818V17.9879C17.9977 17.8113 17.8557 17.6694 17.6791 17.6694H16.9865C16.4429 17.6694 15.9996 17.2262 15.9996 16.6826V16.4887C15.9996 15.9452 16.4429 15.502 16.9865 15.502H17.0004V15.3358C17.0004 15.1523 17.1493 15.0035 17.3328 15.0035C17.5164 15.0035 17.6653 15.1523 17.6653 15.3358V15.502C18.2055 15.502 18.6452 15.9486 18.6452 16.4887C18.6452 16.6722 18.4998 16.8211 18.3128 16.8211C18.1258 16.8211 17.9804 16.6722 17.9804 16.4887C17.9804 16.3053 17.8384 16.1702 17.6618 16.1702H16.9865C16.8099 16.1702 16.6679 16.3122 16.6679 16.4887V16.6826C16.6679 16.8592 16.8099 17.0012 16.9865 17.0012H17.6791C18.2228 17.0012 18.666 17.4443 18.666 17.9879V18.1818Z" fill="#112D44"/>
</svg>
