<svg width="27" height="27" viewBox="0 0 27 27" fill="none" xmlns="http://www.w3.org/2000/svg">
<circle cx="13.335" cy="13.335" r="13.335" fill="#F34949"/>
<path fill-rule="evenodd" clip-rule="evenodd" d="M8.38289 8.29289C8.77342 7.90237 9.40658 7.90237 9.79711 8.29289L13.545 12.0408L17.2029 8.38289C17.5934 7.99237 18.2266 7.99237 18.6171 8.38289C19.0076 8.77342 19.0076 9.40658 18.6171 9.79711L14.9592 13.455L18.7071 17.2029C19.0976 17.5934 19.0976 18.2266 18.7071 18.6171C18.3166 19.0076 17.6834 19.0076 17.2929 18.6171L13.545 14.8692L9.70711 18.7071C9.31658 19.0976 8.68342 19.0976 8.29289 18.7071C7.90237 18.3166 7.90237 17.6834 8.29289 17.2929L12.1308 13.455L8.38289 9.70711C7.99237 9.31658 7.99237 8.68342 8.38289 8.29289Z" fill="#112D44"/>
</svg>
