<svg width="337" height="306" viewBox="0 0 337 306" fill="none" xmlns="http://www.w3.org/2000/svg">
<path d="M0.539062 7.26661C0.539062 3.80296 3.34519 0.995117 6.80673 0.995117H387.567C391.029 0.995117 393.835 3.80296 393.835 7.26661V261.262C393.835 264.726 391.029 267.533 387.567 267.533H6.80673C3.34519 267.533 0.539062 264.726 0.539062 261.262V7.26661Z" fill="#F3F5F7"/>
<path d="M0.539062 7.26661C0.539062 3.80296 3.34519 0.995117 6.80673 0.995117H387.567C391.029 0.995117 393.835 3.80296 393.835 7.26661V22.9453H0.539062V7.26661Z" fill="white"/>
<g filter="url(#filter0_d_39_1874)">
<path d="M0.539062 7.26661C0.539062 3.80296 3.34519 0.995117 6.80673 0.995117H22.4759V267.533H6.80673C3.34519 267.533 0.539062 264.726 0.539062 261.262V7.26661Z" fill="white"/>
</g>
<path d="M37.508 65.6699C37.508 63.9382 38.9111 62.5342 40.6418 62.5342H112.72C114.451 62.5342 115.854 63.9382 115.854 65.6699V97.0274C115.854 98.7591 114.451 100.163 112.72 100.163H40.6418C38.9111 100.163 37.508 98.7591 37.508 97.0274V65.6699Z" fill="white"/>
<path d="M71.4453 77.0369C71.4453 76.6037 71.7959 76.2529 72.2288 76.2529H92.5987C93.0315 76.2529 93.3821 76.6037 93.3821 77.0369V77.8208C93.3821 78.2539 93.0315 78.6047 92.5987 78.6047H72.2288C71.7959 78.6047 71.4453 78.2539 71.4453 77.8208V77.0369Z" fill="#92B0C9"/>
<path opacity="0.1" d="M71.4453 84.8767C71.4453 84.4436 71.7959 84.0928 72.2288 84.0928H108.268C108.701 84.0928 109.051 84.4436 109.051 84.8767V85.6606C109.051 86.0938 108.701 86.4446 108.268 86.4446H72.2288C71.7959 86.4446 71.4453 86.0938 71.4453 85.6606V84.8767Z" fill="#5A7184"/>
<path fill-rule="evenodd" clip-rule="evenodd" d="M56.1673 90.7559C61.3597 90.7559 65.5688 86.5442 65.5688 81.3486C65.5688 76.1531 61.3597 71.9414 56.1673 71.9414C50.9749 71.9414 46.7658 76.1531 46.7658 81.3486C46.7658 86.5442 50.9749 90.7559 56.1673 90.7559Z" fill="#112D44"/>
<path d="M125.5 65.6699C125.5 63.9382 126.903 62.5342 128.634 62.5342H200.712C202.443 62.5342 203.846 63.9382 203.846 65.6699V97.0274C203.846 98.7591 202.443 100.163 200.712 100.163H128.634C126.903 100.163 125.5 98.7591 125.5 97.0274V65.6699Z" fill="white"/>
<path d="M159.578 77.0369C159.578 76.6037 159.929 76.2529 160.362 76.2529H180.731C181.164 76.2529 181.515 76.6037 181.515 77.0369V77.8208C181.515 78.2539 181.164 78.6047 180.731 78.6047H160.362C159.929 78.6047 159.578 78.2539 159.578 77.8208V77.0369Z" fill="#92B0C9"/>
<path opacity="0.1" d="M159.578 84.8767C159.578 84.4436 159.929 84.0928 160.362 84.0928H196.401C196.834 84.0928 197.184 84.4436 197.184 84.8767V85.6606C197.184 86.0938 196.834 86.4446 196.401 86.4446H160.362C159.929 86.4446 159.578 86.0938 159.578 85.6606V84.8767Z" fill="#5A7184"/>
<path fill-rule="evenodd" clip-rule="evenodd" d="M144.3 90.7559C149.492 90.7559 153.701 86.5442 153.701 81.3486C153.701 76.1531 149.492 71.9414 144.3 71.9414C139.108 71.9414 134.898 76.1531 134.898 81.3486C134.898 86.5442 139.108 90.7559 144.3 90.7559Z" fill="#AEF1F4"/>
<path d="M213.641 65.6699C213.641 63.9382 215.044 62.5342 216.774 62.5342H288.853C290.583 62.5342 291.986 63.9382 291.986 65.6699V97.0274C291.986 98.7591 290.583 100.163 288.853 100.163H216.774C215.044 100.163 213.641 98.7591 213.641 97.0274V65.6699Z" fill="white"/>
<path d="M247.719 77.0369C247.719 76.6037 248.069 76.2529 248.502 76.2529H268.872C269.305 76.2529 269.656 76.6037 269.656 77.0369V77.8208C269.656 78.2539 269.305 78.6047 268.872 78.6047H248.502C248.069 78.6047 247.719 78.2539 247.719 77.8208V77.0369Z" fill="#92B0C9"/>
<path opacity="0.1" d="M247.719 84.8762C247.719 84.4431 248.069 84.0923 248.502 84.0923H284.541C284.974 84.0923 285.325 84.4431 285.325 84.8762V85.6602C285.325 86.0933 284.974 86.4441 284.541 86.4441H248.502C248.069 86.4441 247.719 86.0933 247.719 85.6602V84.8762Z" fill="#5A7184"/>
<path fill-rule="evenodd" clip-rule="evenodd" d="M232.441 90.7559C237.633 90.7559 241.842 86.5442 241.842 81.3486C241.842 76.1531 237.633 71.9414 232.441 71.9414C227.248 71.9414 223.039 76.1531 223.039 81.3486C223.039 86.5442 227.248 90.7559 232.441 90.7559Z" fill="#92B0C9"/>
<path d="M301.773 65.6699C301.773 63.9382 303.177 62.5342 304.907 62.5342H376.985C378.716 62.5342 380.119 63.9382 380.119 65.6699V97.0274C380.119 98.7591 378.716 100.163 376.985 100.163H304.907C303.177 100.163 301.773 98.7591 301.773 97.0274V65.6699Z" fill="#F5F9FF"/>
<path fill-rule="evenodd" clip-rule="evenodd" d="M303.708 99.9252L303.858 99.563C304.181 99.6971 304.535 99.7712 304.907 99.7712H305.908V100.163H304.907C304.482 100.163 304.077 100.078 303.708 99.9252ZM375.984 100.163V99.7712H376.985C377.358 99.7712 377.712 99.6971 378.035 99.563L378.185 99.9252C377.815 100.078 377.41 100.163 376.985 100.163H375.984ZM380.119 66.6498H379.727V65.6699C379.727 65.2972 379.653 64.9428 379.519 64.6198L379.881 64.4697C380.035 64.8393 380.119 65.2446 380.119 65.6699V66.6498ZM305.909 62.5342H304.907C304.482 62.5342 304.077 62.6188 303.708 62.7721L303.858 63.1343C304.181 63.0002 304.535 62.9261 304.907 62.9261H305.909V62.5342ZM301.773 96.0475H302.165V97.0274C302.165 97.4001 302.239 97.7545 302.373 98.0775L302.011 98.2276C301.858 97.858 301.773 97.4527 301.773 97.0274V96.0475ZM301.773 94.0876H302.165V92.1278H301.773V94.0876ZM301.773 90.1679H302.165V88.2081H301.773V90.1679ZM301.773 86.2483H302.165V84.2884H301.773V86.2483ZM301.773 82.3286H302.165V80.3687H301.773V82.3286ZM301.773 78.4089H302.165V76.4491H301.773V78.4089ZM301.773 74.4892H302.165V72.5294H301.773V74.4892ZM301.773 70.5695H302.165V68.6097H301.773V70.5695ZM301.773 66.6498H302.165V65.6699C302.165 65.2972 302.239 64.9428 302.373 64.6198L302.011 64.4697C301.858 64.8393 301.773 65.2446 301.773 65.6699V66.6498ZM307.911 62.5342V62.9261H309.913V62.5342H307.911ZM311.915 62.5342V62.9261H313.917V62.5342H311.915ZM315.919 62.5342V62.9261H317.921V62.5342H315.919ZM319.923 62.5342V62.9261H321.926V62.5342H319.923ZM323.928 62.5342V62.9261H325.93V62.5342H323.928ZM327.932 62.5342V62.9261H329.934V62.5342H327.932ZM331.937 62.5342V62.9261H333.939V62.5342H331.937ZM335.941 62.5342V62.9261H337.943V62.5342H335.941ZM339.945 62.5342V62.9261H341.948V62.5342H339.945ZM343.95 62.5342V62.9261H345.952V62.5342H343.95ZM347.954 62.5342V62.9261H349.956V62.5342H347.954ZM351.958 62.5342V62.9261H353.96V62.5342H351.958ZM355.962 62.5342V62.9261H357.965V62.5342H355.962ZM359.967 62.5342V62.9261H361.969V62.5342H359.967ZM363.971 62.5342V62.9261H365.973V62.5342H363.971ZM367.976 62.5342V62.9261H369.978V62.5342H367.976ZM371.98 62.5342V62.9261H373.982V62.5342H371.98ZM375.985 62.5342V62.9261H376.985C377.358 62.9261 377.712 63.0002 378.035 63.1343L378.185 62.7721C377.815 62.6188 377.41 62.5342 376.985 62.5342H375.985ZM380.119 68.6097H379.727V70.5695H380.119V68.6097ZM380.119 72.5294H379.727V74.4892H380.119V72.5294ZM380.119 76.4491H379.727V78.4089H380.119V76.4491ZM380.119 80.3687H379.727V82.3286H380.119V80.3687ZM380.119 84.2884H379.727V86.2483H380.119V84.2884ZM380.119 88.2081H379.727V90.1679H380.119V88.2081ZM380.119 92.1278H379.727V94.0876H380.119V92.1278ZM380.119 96.0475H379.727V97.0274C379.727 97.4001 379.653 97.7545 379.519 98.0775L379.881 98.2276C380.035 97.858 380.119 97.4527 380.119 97.0274V96.0475ZM373.982 100.163V99.7712H371.98V100.163H373.982ZM369.978 100.163V99.7712H367.976V100.163H369.978ZM365.973 100.163V99.7712H363.971V100.163H365.973ZM361.969 100.163V99.7712H359.967V100.163H361.969ZM357.965 100.163V99.7712H355.962V100.163H357.965ZM353.96 100.163V99.7712H351.958V100.163H353.96ZM349.956 100.163V99.7712H347.954V100.163H349.956ZM345.952 100.163V99.7712H343.95V100.163H345.952ZM341.948 100.163V99.7712H339.945V100.163H341.948ZM337.943 100.163V99.7712H335.941V100.163H337.943ZM333.939 100.163V99.7712H331.937V100.163H333.939ZM329.934 100.163V99.7712H327.932V100.163H329.934ZM325.93 100.163V99.7712H323.928V100.163H325.93ZM321.926 100.163V99.7712H319.923V100.163H321.926ZM317.921 100.163V99.7712H315.919V100.163H317.921ZM313.917 100.163V99.7712H311.915V100.163H313.917ZM309.913 100.163V99.7712H307.911V100.163H309.913Z" fill="#122D44"/>
<path d="M322.551 39.4077C322.551 38.5418 323.252 37.8398 324.118 37.8398H378.568C379.433 37.8398 380.135 38.5418 380.135 39.4077V51.1668C380.135 52.0326 379.433 52.7346 378.568 52.7346H324.118C323.252 52.7346 322.551 52.0326 322.551 51.1668V39.4077Z" fill="white"/>
<g filter="url(#filter1_d_39_1874)">
<path d="M37.3594 113.097C37.3594 111.365 38.7624 109.961 40.4932 109.961H288.849C290.58 109.961 291.983 111.365 291.983 113.097V208.737C291.983 210.469 290.58 211.873 288.849 211.873H40.4932C38.7624 211.873 37.3594 210.469 37.3594 208.737V113.097Z" fill="white"/>
</g>
<path opacity="0.1" fill-rule="evenodd" clip-rule="evenodd" d="M54.004 132.109H53.2268V131.717H54.004V132.109ZM57.1128 132.109H55.5584V131.717H57.1128V132.109ZM60.2219 132.109H58.6671V131.717H60.2219V132.109ZM63.3307 132.109H61.7763V131.717H63.3307V132.109ZM66.4394 132.109H64.8851V131.717H66.4394V132.109ZM69.5486 132.109H67.9938V131.717H69.5486V132.109ZM72.6573 132.109H71.103V131.717H72.6573V132.109ZM75.7661 132.109H74.2117V131.717H75.7661V132.109ZM78.8749 132.109H77.3205V131.717H78.8749V132.109ZM81.984 132.109H80.4296V131.717H81.984V132.109ZM85.0928 132.109H83.5384V131.717H85.0928V132.109ZM88.2015 132.109H86.6472V131.717H88.2015V132.109ZM91.3107 132.109H89.7559V131.717H91.3107V132.109ZM94.4195 132.109H92.8651V131.717H94.4195V132.109ZM97.5282 132.109H95.9738V131.717H97.5282V132.109ZM100.637 132.109H99.0826V131.717H100.637V132.109ZM103.746 132.109H102.192V131.717H103.746V132.109ZM106.855 132.109H105.301V131.717H106.855V132.109ZM109.964 132.109H108.409V131.717H109.964V132.109ZM113.073 132.109H111.518V131.717H113.073V132.109ZM116.182 132.109H114.627V131.717H116.182V132.109ZM119.29 132.109H117.736V131.717H119.29V132.109ZM122.399 132.109H120.845V131.717H122.399V132.109ZM125.508 132.109H123.954V131.717H125.508V132.109ZM128.617 132.109H127.063V131.717H128.617V132.109ZM131.726 132.109H130.171V131.717H131.726V132.109ZM134.835 132.109H133.281V131.717H134.835V132.109ZM137.944 132.109H136.389V131.717H137.944V132.109ZM141.052 132.109H139.498V131.717H141.052V132.109ZM144.162 132.109H142.607V131.717H144.162V132.109ZM147.27 132.109H145.716V131.717H147.27V132.109ZM150.379 132.109H148.825V131.717H150.379V132.109ZM153.488 132.109H151.934V131.717H153.488V132.109ZM156.597 132.109H155.043V131.717H156.597V132.109ZM159.706 132.109H158.151V131.717H159.706V132.109ZM162.815 132.109H161.26V131.717H162.815V132.109ZM165.924 132.109H164.369V131.717H165.924V132.109ZM169.032 132.109H167.478V131.717H169.032V132.109ZM172.141 132.109H170.587V131.717H172.141V132.109ZM175.25 132.109H173.696V131.717H175.25V132.109ZM178.359 132.109H176.805V131.717H178.359V132.109ZM181.468 132.109H179.914V131.717H181.468V132.109ZM184.577 132.109H183.022V131.717H184.577V132.109ZM187.686 132.109H186.131V131.717H187.686V132.109ZM190.795 132.109H189.24V131.717H190.795V132.109ZM193.903 132.109H192.349V131.717H193.903V132.109ZM197.012 132.109H195.458V131.717H197.012V132.109ZM200.121 132.109H198.567V131.717H200.121V132.109ZM203.23 132.109H201.676V131.717H203.23V132.109ZM206.339 132.109H204.784V131.717H206.339V132.109ZM209.448 132.109H207.894V131.717H209.448V132.109ZM212.557 132.109H211.002V131.717H212.557V132.109ZM215.665 132.109H214.111V131.717H215.665V132.109ZM218.775 132.109H217.22V131.717H218.775V132.109ZM221.883 132.109H220.329V131.717H221.883V132.109ZM224.992 132.109H223.438V131.717H224.992V132.109ZM228.101 132.109H226.546V131.717H228.101V132.109ZM231.21 132.109H229.656V131.717H231.21V132.109ZM233.542 132.109H232.764V131.717H233.542V132.109Z" fill="#112D44"/>
<path opacity="0.1" fill-rule="evenodd" clip-rule="evenodd" d="M54.004 154.059H53.2268V153.667H54.004V154.059ZM57.1128 154.059H55.5584V153.667H57.1128V154.059ZM60.2219 154.059H58.6671V153.667H60.2219V154.059ZM63.3307 154.059H61.7763V153.667H63.3307V154.059ZM66.4394 154.059H64.8851V153.667H66.4394V154.059ZM69.5486 154.059H67.9938V153.667H69.5486V154.059ZM72.6573 154.059H71.103V153.667H72.6573V154.059ZM75.7661 154.059H74.2117V153.667H75.7661V154.059ZM78.8749 154.059H77.3205V153.667H78.8749V154.059ZM81.984 154.059H80.4296V153.667H81.984V154.059ZM85.0928 154.059H83.5384V153.667H85.0928V154.059ZM88.2015 154.059H86.6472V153.667H88.2015V154.059ZM91.3107 154.059H89.7559V153.667H91.3107V154.059ZM94.4195 154.059H92.8651V153.667H94.4195V154.059ZM97.5282 154.059H95.9738V153.667H97.5282V154.059ZM100.637 154.059H99.0826V153.667H100.637V154.059ZM103.746 154.059H102.192V153.667H103.746V154.059ZM106.855 154.059H105.301V153.667H106.855V154.059ZM109.964 154.059H108.409V153.667H109.964V154.059ZM113.073 154.059H111.518V153.667H113.073V154.059ZM116.182 154.059H114.627V153.667H116.182V154.059ZM119.29 154.059H117.736V153.667H119.29V154.059ZM122.399 154.059H120.845V153.667H122.399V154.059ZM125.508 154.059H123.954V153.667H125.508V154.059ZM128.617 154.059H127.063V153.667H128.617V154.059ZM131.726 154.059H130.171V153.667H131.726V154.059ZM134.835 154.059H133.281V153.667H134.835V154.059ZM137.944 154.059H136.389V153.667H137.944V154.059ZM141.052 154.059H139.498V153.667H141.052V154.059ZM144.162 154.059H142.607V153.667H144.162V154.059ZM147.27 154.059H145.716V153.667H147.27V154.059ZM150.379 154.059H148.825V153.667H150.379V154.059ZM153.488 154.059H151.934V153.667H153.488V154.059ZM156.597 154.059H155.043V153.667H156.597V154.059ZM159.706 154.059H158.151V153.667H159.706V154.059ZM162.815 154.059H161.26V153.667H162.815V154.059ZM165.924 154.059H164.369V153.667H165.924V154.059ZM169.032 154.059H167.478V153.667H169.032V154.059ZM172.141 154.059H170.587V153.667H172.141V154.059ZM175.25 154.059H173.696V153.667H175.25V154.059ZM178.359 154.059H176.805V153.667H178.359V154.059ZM181.468 154.059H179.914V153.667H181.468V154.059ZM184.577 154.059H183.022V153.667H184.577V154.059ZM187.686 154.059H186.131V153.667H187.686V154.059ZM190.795 154.059H189.24V153.667H190.795V154.059ZM193.903 154.059H192.349V153.667H193.903V154.059ZM197.012 154.059H195.458V153.667H197.012V154.059ZM200.121 154.059H198.567V153.667H200.121V154.059ZM203.23 154.059H201.676V153.667H203.23V154.059ZM206.339 154.059H204.784V153.667H206.339V154.059ZM209.448 154.059H207.894V153.667H209.448V154.059ZM212.557 154.059H211.002V153.667H212.557V154.059ZM215.665 154.059H214.111V153.667H215.665V154.059ZM218.775 154.059H217.22V153.667H218.775V154.059ZM221.883 154.059H220.329V153.667H221.883V154.059ZM224.992 154.059H223.438V153.667H224.992V154.059ZM228.101 154.059H226.546V153.667H228.101V154.059ZM231.21 154.059H229.656V153.667H231.21V154.059ZM233.542 154.059H232.764V153.667H233.542V154.059Z" fill="#112D44"/>
<path opacity="0.1" fill-rule="evenodd" clip-rule="evenodd" d="M54.004 176.009H53.2268V175.617H54.004V176.009ZM57.1128 176.009H55.5584V175.617H57.1128V176.009ZM60.2219 176.009H58.6671V175.617H60.2219V176.009ZM63.3307 176.009H61.7763V175.617H63.3307V176.009ZM66.4394 176.009H64.8851V175.617H66.4394V176.009ZM69.5486 176.009H67.9938V175.617H69.5486V176.009ZM72.6573 176.009H71.103V175.617H72.6573V176.009ZM75.7661 176.009H74.2117V175.617H75.7661V176.009ZM78.8749 176.009H77.3205V175.617H78.8749V176.009ZM81.984 176.009H80.4296V175.617H81.984V176.009ZM85.0928 176.009H83.5384V175.617H85.0928V176.009ZM88.2015 176.009H86.6472V175.617H88.2015V176.009ZM91.3107 176.009H89.7559V175.617H91.3107V176.009ZM94.4195 176.009H92.8651V175.617H94.4195V176.009ZM97.5282 176.009H95.9738V175.617H97.5282V176.009ZM100.637 176.009H99.0826V175.617H100.637V176.009ZM103.746 176.009H102.192V175.617H103.746V176.009ZM106.855 176.009H105.301V175.617H106.855V176.009ZM109.964 176.009H108.409V175.617H109.964V176.009ZM113.073 176.009H111.518V175.617H113.073V176.009ZM116.182 176.009H114.627V175.617H116.182V176.009ZM119.29 176.009H117.736V175.617H119.29V176.009ZM122.399 176.009H120.845V175.617H122.399V176.009ZM125.508 176.009H123.954V175.617H125.508V176.009ZM128.617 176.009H127.063V175.617H128.617V176.009ZM131.726 176.009H130.171V175.617H131.726V176.009ZM134.835 176.009H133.281V175.617H134.835V176.009ZM137.944 176.009H136.389V175.617H137.944V176.009ZM141.052 176.009H139.498V175.617H141.052V176.009ZM144.162 176.009H142.607V175.617H144.162V176.009ZM147.27 176.009H145.716V175.617H147.27V176.009ZM150.379 176.009H148.825V175.617H150.379V176.009ZM153.488 176.009H151.934V175.617H153.488V176.009ZM156.597 176.009H155.043V175.617H156.597V176.009ZM159.706 176.009H158.151V175.617H159.706V176.009ZM162.815 176.009H161.26V175.617H162.815V176.009ZM165.924 176.009H164.369V175.617H165.924V176.009ZM169.032 176.009H167.478V175.617H169.032V176.009ZM172.141 176.009H170.587V175.617H172.141V176.009ZM175.25 176.009H173.696V175.617H175.25V176.009ZM178.359 176.009H176.805V175.617H178.359V176.009ZM181.468 176.009H179.914V175.617H181.468V176.009ZM184.577 176.009H183.022V175.617H184.577V176.009ZM187.686 176.009H186.131V175.617H187.686V176.009ZM190.795 176.009H189.24V175.617H190.795V176.009ZM193.903 176.009H192.349V175.617H193.903V176.009ZM197.012 176.009H195.458V175.617H197.012V176.009ZM200.121 176.009H198.567V175.617H200.121V176.009ZM203.23 176.009H201.676V175.617H203.23V176.009ZM206.339 176.009H204.784V175.617H206.339V176.009ZM209.448 176.009H207.894V175.617H209.448V176.009ZM212.557 176.009H211.002V175.617H212.557V176.009ZM215.665 176.009H214.111V175.617H215.665V176.009ZM218.775 176.009H217.22V175.617H218.775V176.009ZM221.883 176.009H220.329V175.617H221.883V176.009ZM224.992 176.009H223.438V175.617H224.992V176.009ZM228.101 176.009H226.546V175.617H228.101V176.009ZM231.21 176.009H229.656V175.617H231.21V176.009ZM233.542 176.009H232.764V175.617H233.542V176.009Z" fill="#112D44"/>
<path opacity="0.1" fill-rule="evenodd" clip-rule="evenodd" d="M54.004 197.959H53.2268V197.567H54.004V197.959ZM57.1128 197.959H55.5584V197.567H57.1128V197.959ZM60.2219 197.959H58.6671V197.567H60.2219V197.959ZM63.3307 197.959H61.7763V197.567H63.3307V197.959ZM66.4394 197.959H64.8851V197.567H66.4394V197.959ZM69.5486 197.959H67.9938V197.567H69.5486V197.959ZM72.6573 197.959H71.103V197.567H72.6573V197.959ZM75.7661 197.959H74.2117V197.567H75.7661V197.959ZM78.8749 197.959H77.3205V197.567H78.8749V197.959ZM81.984 197.959H80.4296V197.567H81.984V197.959ZM85.0928 197.959H83.5384V197.567H85.0928V197.959ZM88.2015 197.959H86.6472V197.567H88.2015V197.959ZM91.3107 197.959H89.7559V197.567H91.3107V197.959ZM94.4195 197.959H92.8651V197.567H94.4195V197.959ZM97.5282 197.959H95.9738V197.567H97.5282V197.959ZM100.637 197.959H99.0826V197.567H100.637V197.959ZM103.746 197.959H102.192V197.567H103.746V197.959ZM106.855 197.959H105.301V197.567H106.855V197.959ZM109.964 197.959H108.409V197.567H109.964V197.959ZM113.073 197.959H111.518V197.567H113.073V197.959ZM116.182 197.959H114.627V197.567H116.182V197.959ZM119.29 197.959H117.736V197.567H119.29V197.959ZM122.399 197.959H120.845V197.567H122.399V197.959ZM125.508 197.959H123.954V197.567H125.508V197.959ZM128.617 197.959H127.063V197.567H128.617V197.959ZM131.726 197.959H130.171V197.567H131.726V197.959ZM134.835 197.959H133.281V197.567H134.835V197.959ZM137.944 197.959H136.389V197.567H137.944V197.959ZM141.052 197.959H139.498V197.567H141.052V197.959ZM144.162 197.959H142.607V197.567H144.162V197.959ZM147.27 197.959H145.716V197.567H147.27V197.959ZM150.379 197.959H148.825V197.567H150.379V197.959ZM153.488 197.959H151.934V197.567H153.488V197.959ZM156.597 197.959H155.043V197.567H156.597V197.959ZM159.706 197.959H158.151V197.567H159.706V197.959ZM162.815 197.959H161.26V197.567H162.815V197.959ZM165.924 197.959H164.369V197.567H165.924V197.959ZM169.032 197.959H167.478V197.567H169.032V197.959ZM172.141 197.959H170.587V197.567H172.141V197.959ZM175.25 197.959H173.696V197.567H175.25V197.959ZM178.359 197.959H176.805V197.567H178.359V197.959ZM181.468 197.959H179.914V197.567H181.468V197.959ZM184.577 197.959H183.022V197.567H184.577V197.959ZM187.686 197.959H186.131V197.567H187.686V197.959ZM190.795 197.959H189.24V197.567H190.795V197.959ZM193.903 197.959H192.349V197.567H193.903V197.959ZM197.012 197.959H195.458V197.567H197.012V197.959ZM200.121 197.959H198.567V197.567H200.121V197.959ZM203.23 197.959H201.676V197.567H203.23V197.959ZM206.339 197.959H204.784V197.567H206.339V197.959ZM209.448 197.959H207.894V197.567H209.448V197.959ZM212.557 197.959H211.002V197.567H212.557V197.959ZM215.665 197.959H214.111V197.567H215.665V197.959ZM218.775 197.959H217.22V197.567H218.775V197.959ZM221.883 197.959H220.329V197.567H221.883V197.959ZM224.992 197.959H223.438V197.567H224.992V197.959ZM228.101 197.959H226.546V197.567H228.101V197.959ZM231.21 197.959H229.656V197.567H231.21V197.959ZM233.542 197.959H232.764V197.567H233.542V197.959Z" fill="#112D44"/>
<path d="M59.0078 168.758C59.0078 168.324 59.3584 167.974 59.7913 167.974H61.3582C61.791 167.974 62.1416 168.324 62.1416 168.758V196.979C62.1416 197.412 61.791 197.763 61.3582 197.763H59.7913C59.3584 197.763 59.0078 197.412 59.0078 196.979V168.758Z" fill="#82FB8E"/>
<path d="M66.3438 172.677C66.3438 172.244 66.6943 171.894 67.1272 171.894H68.6941C69.127 171.894 69.4776 172.244 69.4776 172.677V196.98C69.4776 197.413 69.127 197.763 68.6941 197.763H67.1272C66.6943 197.763 66.3438 197.413 66.3438 196.98V172.677Z" fill="#06E7ED"/>
<path d="M84.7578 149.159C84.7578 148.726 85.1084 148.375 85.5413 148.375H87.1082C87.541 148.375 87.8916 148.726 87.8916 149.159V196.979C87.8916 197.412 87.541 197.763 87.1082 197.763H85.5413C85.1084 197.763 84.7578 197.412 84.7578 196.979V149.159Z" fill="#82FB8E"/>
<path d="M91.8125 153.079C91.8125 152.646 92.1631 152.295 92.596 152.295H94.1629C94.5957 152.295 94.9463 152.646 94.9463 153.079V196.979C94.9463 197.412 94.5957 197.763 94.1629 197.763H92.596C92.1631 197.763 91.8125 197.412 91.8125 196.979V153.079Z" fill="#06E7ED"/>
<path d="M110.219 156.999C110.219 156.566 110.569 156.215 111.002 156.215H112.569C113.002 156.215 113.353 156.566 113.353 156.999V196.98C113.353 197.413 113.002 197.763 112.569 197.763H111.002C110.569 197.763 110.219 197.413 110.219 196.98V156.999Z" fill="#82FB8E"/>
<path d="M117.273 160.918C117.273 160.485 117.624 160.134 118.057 160.134H119.624C120.057 160.134 120.407 160.485 120.407 160.918V196.979C120.407 197.412 120.057 197.763 119.624 197.763H118.057C117.624 197.763 117.273 197.412 117.273 196.979V160.918Z" fill="#06E7ED"/>
<path d="M135.688 160.919C135.688 160.486 136.038 160.135 136.471 160.135H138.038C138.471 160.135 138.821 160.486 138.821 160.919V196.98C138.821 197.413 138.471 197.764 138.038 197.764H136.471C136.038 197.764 135.688 197.413 135.688 196.98V160.919Z" fill="#82FB8E"/>
<path d="M142.734 164.838C142.734 164.405 143.085 164.054 143.518 164.054H145.085C145.518 164.054 145.868 164.405 145.868 164.838V196.979C145.868 197.412 145.518 197.763 145.085 197.763H143.518C143.085 197.763 142.734 197.412 142.734 196.979V164.838Z" fill="#06E7ED"/>
<path d="M161.148 153.079C161.148 152.646 161.499 152.295 161.932 152.295H163.499C163.932 152.295 164.282 152.646 164.282 153.079V196.979C164.282 197.412 163.932 197.763 163.499 197.763H161.932C161.499 197.763 161.148 197.412 161.148 196.979V153.079Z" fill="#82FB8E"/>
<path d="M168.195 156.999C168.195 156.566 168.546 156.215 168.979 156.215H170.546C170.979 156.215 171.329 156.566 171.329 156.999V196.98C171.329 197.413 170.979 197.763 170.546 197.763H168.979C168.546 197.763 168.195 197.413 168.195 196.98V156.999Z" fill="#06E7ED"/>
<path d="M186.609 141.32C186.609 140.886 186.96 140.536 187.393 140.536H188.96C189.393 140.536 189.743 140.886 189.743 141.32V196.979C189.743 197.412 189.393 197.763 188.96 197.763H187.393C186.96 197.763 186.609 197.412 186.609 196.979V141.32Z" fill="#82FB8E"/>
<path d="M193.656 145.24C193.656 144.807 194.007 144.456 194.44 144.456H196.007C196.439 144.456 196.79 144.807 196.79 145.24V196.98C196.79 197.413 196.439 197.764 196.007 197.764H194.44C194.007 197.764 193.656 197.413 193.656 196.98V145.24Z" fill="#06E7ED"/>
<path d="M212.07 137.4C212.07 136.967 212.421 136.616 212.854 136.616H214.421C214.854 136.616 215.204 136.967 215.204 137.4V196.979C215.204 197.412 214.854 197.763 214.421 197.763H212.854C212.421 197.763 212.07 197.412 212.07 196.979V137.4Z" fill="#82FB8E"/>
<path d="M219.125 141.32C219.125 140.887 219.476 140.536 219.908 140.536H221.475C221.908 140.536 222.259 140.887 222.259 141.32V196.98C222.259 197.413 221.908 197.763 221.475 197.763H219.908C219.476 197.763 219.125 197.413 219.125 196.98V141.32Z" fill="#06E7ED"/>
<path d="M37.3596 224.025C37.3596 222.293 38.7626 220.889 40.4934 220.889H183.083C184.813 220.889 186.217 222.293 186.217 224.025V276.549C186.217 278.281 184.813 279.685 183.083 279.685H40.4934C38.7626 279.685 37.3596 278.281 37.3596 276.549V224.025Z" fill="white"/>
<path d="M46.7658 231.081C46.7658 230.647 47.1164 230.297 47.5493 230.297H64.7853C65.2182 230.297 65.5688 230.647 65.5688 231.081V231.865C65.5688 232.298 65.2182 232.648 64.7853 232.648H47.5493C47.1164 232.648 46.7658 232.298 46.7658 231.865V231.081Z" fill="#B3BAC5"/>
<path opacity="0.1" d="M161.93 231.081C161.93 230.648 162.28 230.297 162.713 230.297H176.032C176.465 230.297 176.815 230.648 176.815 231.081V231.865C176.815 232.298 176.465 232.649 176.032 232.649H162.713C162.28 232.649 161.93 232.298 161.93 231.865V231.081Z" fill="#5A7184"/>
<path fill-rule="evenodd" clip-rule="evenodd" d="M47.5551 247.151H46.7658V246.76H47.5551V247.151ZM50.7129 247.151H49.1342V246.76H50.7129V247.151ZM53.8706 247.151H52.2919V246.76H53.8706V247.151ZM57.0283 247.151H55.4497V246.76H57.0283V247.151ZM60.1861 247.151H58.6074V246.76H60.1861V247.151ZM63.3438 247.151H61.7651V246.76H63.3438V247.151ZM66.5015 247.151H64.9228V246.76H66.5015V247.151ZM69.6592 247.151H68.0806V246.76H69.6592V247.151ZM72.817 247.151H71.2383V246.76H72.817V247.151ZM75.9747 247.151H74.396V246.76H75.9747V247.151ZM79.1324 247.151H77.5537V246.76H79.1324V247.151ZM82.2901 247.151H80.7115V246.76H82.2901V247.151ZM85.4479 247.151H83.8692V246.76H85.4479V247.151ZM88.6056 247.151H87.0269V246.76H88.6056V247.151ZM91.7633 247.151H90.1847V246.76H91.7633V247.151ZM94.921 247.151H93.3424V246.76H94.921V247.151ZM98.0788 247.151H96.5001V246.76H98.0788V247.151ZM101.237 247.151H99.6578V246.76H101.237V247.151ZM104.394 247.151H102.816V246.76H104.394V247.151ZM107.552 247.151H105.973V246.76H107.552V247.151ZM110.71 247.151H109.131V246.76H110.71V247.151ZM113.867 247.151H112.289V246.76H113.867V247.151ZM117.025 247.151H115.446V246.76H117.025V247.151ZM120.183 247.151H118.604V246.76H120.183V247.151ZM123.341 247.151H121.762V246.76H123.341V247.151ZM126.498 247.151H124.92V246.76H126.498V247.151ZM129.656 247.151H128.077V246.76H129.656V247.151ZM132.814 247.151H131.235V246.76H132.814V247.151ZM135.971 247.151H134.393V246.76H135.971V247.151ZM139.129 247.151H137.551V246.76H139.129V247.151ZM142.287 247.151H140.708V246.76H142.287V247.151ZM145.445 247.151H143.866V246.76H145.445V247.151ZM148.602 247.151H147.024V246.76H148.602V247.151ZM151.76 247.151H150.181V246.76H151.76V247.151ZM154.918 247.151H153.339V246.76H154.918V247.151ZM158.076 247.151H156.497V246.76H158.076V247.151ZM161.234 247.151H159.655V246.76H161.234V247.151ZM164.391 247.151H162.812V246.76H164.391V247.151ZM167.549 247.151H165.97V246.76H167.549V247.151ZM170.707 247.151H169.128V246.76H170.707V247.151ZM173.865 247.151H172.286V246.76H173.865V247.151ZM176.233 247.151H175.443V246.76H176.233V247.151Z" fill="#EEF0F2"/>
<path fill-rule="evenodd" clip-rule="evenodd" d="M47.5551 262.83H46.7658V262.438H47.5551V262.83ZM50.7129 262.83H49.1342V262.438H50.7129V262.83ZM53.8706 262.83H52.2919V262.438H53.8706V262.83ZM57.0283 262.83H55.4497V262.438H57.0283V262.83ZM60.1861 262.83H58.6074V262.438H60.1861V262.83ZM63.3438 262.83H61.7651V262.438H63.3438V262.83ZM66.5015 262.83H64.9228V262.438H66.5015V262.83ZM69.6592 262.83H68.0806V262.438H69.6592V262.83ZM72.817 262.83H71.2383V262.438H72.817V262.83ZM75.9747 262.83H74.396V262.438H75.9747V262.83ZM79.1324 262.83H77.5537V262.438H79.1324V262.83ZM82.2901 262.83H80.7115V262.438H82.2901V262.83ZM85.4479 262.83H83.8692V262.438H85.4479V262.83ZM88.6056 262.83H87.0269V262.438H88.6056V262.83ZM91.7633 262.83H90.1847V262.438H91.7633V262.83ZM94.921 262.83H93.3424V262.438H94.921V262.83ZM98.0788 262.83H96.5001V262.438H98.0788V262.83ZM101.237 262.83H99.6578V262.438H101.237V262.83ZM104.394 262.83H102.816V262.438H104.394V262.83ZM107.552 262.83H105.973V262.438H107.552V262.83ZM110.71 262.83H109.131V262.438H110.71V262.83ZM113.867 262.83H112.289V262.438H113.867V262.83ZM117.025 262.83H115.446V262.438H117.025V262.83ZM120.183 262.83H118.604V262.438H120.183V262.83ZM123.341 262.83H121.762V262.438H123.341V262.83ZM126.498 262.83H124.92V262.438H126.498V262.83ZM129.656 262.83H128.077V262.438H129.656V262.83ZM132.814 262.83H131.235V262.438H132.814V262.83ZM135.971 262.83H134.393V262.438H135.971V262.83ZM139.129 262.83H137.551V262.438H139.129V262.83ZM142.287 262.83H140.708V262.438H142.287V262.83ZM145.445 262.83H143.866V262.438H145.445V262.83ZM148.602 262.83H147.024V262.438H148.602V262.83ZM151.76 262.83H150.181V262.438H151.76V262.83ZM154.918 262.83H153.339V262.438H154.918V262.83ZM158.076 262.83H156.497V262.438H158.076V262.83ZM161.234 262.83H159.655V262.438H161.234V262.83ZM164.391 262.83H162.812V262.438H164.391V262.83ZM167.549 262.83H165.97V262.438H167.549V262.83ZM170.707 262.83H169.128V262.438H170.707V262.83ZM173.865 262.83H172.286V262.438H173.865V262.83ZM176.233 262.83H175.443V262.438H176.233V262.83Z" fill="#EEF0F2"/>
<path fill-rule="evenodd" clip-rule="evenodd" d="M47.5551 278.509H46.7658V278.117H47.5551V278.509ZM50.7129 278.509H49.1342V278.117H50.7129V278.509ZM53.8706 278.509H52.2919V278.117H53.8706V278.509ZM57.0283 278.509H55.4497V278.117H57.0283V278.509ZM60.1861 278.509H58.6074V278.117H60.1861V278.509ZM63.3438 278.509H61.7651V278.117H63.3438V278.509ZM66.5015 278.509H64.9228V278.117H66.5015V278.509ZM69.6592 278.509H68.0806V278.117H69.6592V278.509ZM72.817 278.509H71.2383V278.117H72.817V278.509ZM75.9747 278.509H74.396V278.117H75.9747V278.509ZM79.1324 278.509H77.5537V278.117H79.1324V278.509ZM82.2901 278.509H80.7115V278.117H82.2901V278.509ZM85.4479 278.509H83.8692V278.117H85.4479V278.509ZM88.6056 278.509H87.0269V278.117H88.6056V278.509ZM91.7633 278.509H90.1847V278.117H91.7633V278.509ZM94.921 278.509H93.3424V278.117H94.921V278.509ZM98.0788 278.509H96.5001V278.117H98.0788V278.509ZM101.237 278.509H99.6578V278.117H101.237V278.509ZM104.394 278.509H102.816V278.117H104.394V278.509ZM107.552 278.509H105.973V278.117H107.552V278.509ZM110.71 278.509H109.131V278.117H110.71V278.509ZM113.867 278.509H112.289V278.117H113.867V278.509ZM117.025 278.509H115.446V278.117H117.025V278.509ZM120.183 278.509H118.604V278.117H120.183V278.509ZM123.341 278.509H121.762V278.117H123.341V278.509ZM126.498 278.509H124.92V278.117H126.498V278.509ZM129.656 278.509H128.077V278.117H129.656V278.509ZM132.814 278.509H131.235V278.117H132.814V278.509ZM135.971 278.509H134.393V278.117H135.971V278.509ZM139.129 278.509H137.551V278.117H139.129V278.509ZM142.287 278.509H140.708V278.117H142.287V278.509ZM145.445 278.509H143.866V278.117H145.445V278.509ZM148.602 278.509H147.024V278.117H148.602V278.509ZM151.76 278.509H150.181V278.117H151.76V278.509ZM154.918 278.509H153.339V278.117H154.918V278.509ZM158.076 278.509H156.497V278.117H158.076V278.509ZM161.234 278.509H159.655V278.117H161.234V278.509ZM164.391 278.509H162.812V278.117H164.391V278.509ZM167.549 278.509H165.97V278.117H167.549V278.509ZM170.707 278.509H169.128V278.117H170.707V278.509ZM173.865 278.509H172.286V278.117H173.865V278.509ZM176.233 278.509H175.443V278.117H176.233V278.509Z" fill="#EEF0F2"/>
<path fill-rule="evenodd" clip-rule="evenodd" d="M93.3536 245.887L107.346 252.288L126.081 256.926L144.596 252.145L157.996 268.906H167.916L176.318 262.028C176.653 261.754 177.147 261.803 177.421 262.138C177.694 262.473 177.645 262.967 177.311 263.241L168.476 270.474H157.243L144.006 253.917L126.089 258.543L106.827 253.775L93.3983 247.632L74.8949 257.275L59.196 263.287L47.3834 278.788C47.121 279.133 46.6294 279.199 46.285 278.937C45.9411 278.674 45.8749 278.182 46.1373 277.838L58.2198 261.982L74.2509 255.843L93.3536 245.887Z" fill="#AEF1F4"/>
<path fill-rule="evenodd" clip-rule="evenodd" d="M59.6885 264.79C61.4192 264.79 62.8224 263.386 62.8224 261.654C62.8224 259.922 61.4192 258.518 59.6885 258.518C57.9579 258.518 56.5547 259.922 56.5547 261.654C56.5547 263.386 57.9579 264.79 59.6885 264.79Z" fill="#D8D8D8"/>
<path fill-rule="evenodd" clip-rule="evenodd" d="M59.6885 264.006C60.9867 264.006 62.0389 262.953 62.0389 261.654C62.0389 260.355 60.9867 259.302 59.6885 259.302C58.3903 259.302 57.3381 260.355 57.3381 261.654C57.3381 262.953 58.3903 264.006 59.6885 264.006ZM62.8224 261.654C62.8224 263.386 61.4192 264.79 59.6885 264.79C57.9579 264.79 56.5547 263.386 56.5547 261.654C56.5547 259.922 57.9579 258.518 59.6885 258.518C61.4192 258.518 62.8224 259.922 62.8224 261.654Z" fill="white"/>
<path fill-rule="evenodd" clip-rule="evenodd" d="M93.7666 249.895C95.4973 249.895 96.9005 248.491 96.9005 246.759C96.9005 245.028 95.4973 243.624 93.7666 243.624C92.036 243.624 90.6328 245.028 90.6328 246.759C90.6328 248.491 92.036 249.895 93.7666 249.895Z" fill="#D8D8D8"/>
<path fill-rule="evenodd" clip-rule="evenodd" d="M93.7666 249.111C95.0648 249.111 96.117 248.058 96.117 246.759C96.117 245.46 95.0648 244.407 93.7666 244.407C92.4685 244.407 91.4163 245.46 91.4163 246.759C91.4163 248.058 92.4685 249.111 93.7666 249.111ZM96.9005 246.759C96.9005 248.491 95.4973 249.895 93.7666 249.895C92.036 249.895 90.6328 248.491 90.6328 246.759C90.6328 245.028 92.036 243.624 93.7666 243.624C95.4973 243.624 96.9005 245.028 96.9005 246.759Z" fill="white"/>
<path fill-rule="evenodd" clip-rule="evenodd" d="M125.892 260.478C127.622 260.478 129.025 259.074 129.025 257.342C129.025 255.611 127.622 254.207 125.892 254.207C124.161 254.207 122.758 255.611 122.758 257.342C122.758 259.074 124.161 260.478 125.892 260.478Z" fill="#D8D8D8"/>
<path fill-rule="evenodd" clip-rule="evenodd" d="M125.892 259.694C127.19 259.694 128.242 258.641 128.242 257.342C128.242 256.043 127.19 254.99 125.892 254.99C124.593 254.99 123.541 256.043 123.541 257.342C123.541 258.641 124.593 259.694 125.892 259.694ZM129.025 257.342C129.025 259.074 127.622 260.478 125.892 260.478C124.161 260.478 122.758 259.074 122.758 257.342C122.758 255.611 124.161 254.207 125.892 254.207C127.622 254.207 129.025 255.611 129.025 257.342Z" fill="white"/>
<path fill-rule="evenodd" clip-rule="evenodd" d="M143.907 256.167C145.638 256.167 147.041 254.762 147.041 253.031C147.041 251.299 145.638 249.895 143.907 249.895C142.177 249.895 140.773 251.299 140.773 253.031C140.773 254.762 142.177 256.167 143.907 256.167Z" fill="#D8D8D8"/>
<path fill-rule="evenodd" clip-rule="evenodd" d="M143.907 255.383C145.205 255.383 146.258 254.33 146.258 253.031C146.258 251.732 145.205 250.679 143.907 250.679C142.609 250.679 141.557 251.732 141.557 253.031C141.557 254.33 142.609 255.383 143.907 255.383ZM147.041 253.031C147.041 254.762 145.638 256.167 143.907 256.167C142.177 256.167 140.773 254.762 140.773 253.031C140.773 251.299 142.177 249.895 143.907 249.895C145.638 249.895 147.041 251.299 147.041 253.031Z" fill="white"/>
<path fill-rule="evenodd" clip-rule="evenodd" d="M158.009 272.628C159.739 272.628 161.143 271.224 161.143 269.493C161.143 267.761 159.739 266.357 158.009 266.357C156.278 266.357 154.875 267.761 154.875 269.493C154.875 271.224 156.278 272.628 158.009 272.628Z" fill="#D8D8D8"/>
<path fill-rule="evenodd" clip-rule="evenodd" d="M158.009 271.844C159.307 271.844 160.359 270.792 160.359 269.493C160.359 268.194 159.307 267.141 158.009 267.141C156.711 267.141 155.658 268.194 155.658 269.493C155.658 270.792 156.711 271.844 158.009 271.844ZM161.143 269.493C161.143 271.224 159.739 272.628 158.009 272.628C156.278 272.628 154.875 271.224 154.875 269.493C154.875 267.761 156.278 266.357 158.009 266.357C159.739 266.357 161.143 267.761 161.143 269.493Z" fill="white"/>
<path fill-rule="evenodd" clip-rule="evenodd" d="M168.196 272.628C169.927 272.628 171.33 271.224 171.33 269.493C171.33 267.761 169.927 266.357 168.196 266.357C166.466 266.357 165.062 267.761 165.062 269.493C165.062 271.224 166.466 272.628 168.196 272.628Z" fill="#D8D8D8"/>
<path fill-rule="evenodd" clip-rule="evenodd" d="M168.196 271.844C169.495 271.844 170.547 270.792 170.547 269.493C170.547 268.194 169.495 267.141 168.196 267.141C166.898 267.141 165.846 268.194 165.846 269.493C165.846 270.792 166.898 271.844 168.196 271.844ZM171.33 269.493C171.33 271.224 169.927 272.628 168.196 272.628C166.466 272.628 165.062 271.224 165.062 269.493C165.062 267.761 166.466 266.357 168.196 266.357C169.927 266.357 171.33 267.761 171.33 269.493Z" fill="white"/>
<path fill-rule="evenodd" clip-rule="evenodd" d="M177.595 264.79C179.325 264.79 180.729 263.386 180.729 261.654C180.729 259.922 179.325 258.518 177.595 258.518C175.864 258.518 174.461 259.922 174.461 261.654C174.461 263.386 175.864 264.79 177.595 264.79Z" fill="#D8D8D8"/>
<path fill-rule="evenodd" clip-rule="evenodd" d="M177.595 264.006C178.893 264.006 179.945 262.953 179.945 261.654C179.945 260.355 178.893 259.302 177.595 259.302C176.297 259.302 175.244 260.355 175.244 261.654C175.244 262.953 176.297 264.006 177.595 264.006ZM180.729 261.654C180.729 263.386 179.325 264.79 177.595 264.79C175.864 264.79 174.461 263.386 174.461 261.654C174.461 259.922 175.864 258.518 177.595 258.518C179.325 258.518 180.729 259.922 180.729 261.654Z" fill="white"/>
<path d="M301.773 113.099C301.773 111.367 303.177 109.963 304.907 109.963H376.985C378.716 109.963 380.119 111.367 380.119 113.099V208.739C380.119 210.471 378.716 211.875 376.985 211.875H304.907C303.177 211.875 301.773 210.471 301.773 208.739V113.099Z" fill="white"/>
<path d="M311.18 120.153C311.18 119.72 311.53 119.369 311.963 119.369H329.199C329.632 119.369 329.983 119.72 329.983 120.153V120.937C329.983 121.37 329.632 121.721 329.199 121.721H311.963C311.53 121.721 311.18 121.37 311.18 120.937V120.153Z" fill="#92B0C9"/>
<path fill-rule="evenodd" clip-rule="evenodd" d="M337.949 142.206C338.164 143.267 337.478 144.301 336.418 144.515C326.041 146.616 318.23 155.796 318.23 166.798C318.23 179.353 328.402 189.532 340.95 189.532C347.171 189.532 352.805 187.032 356.91 182.978C357.68 182.218 358.92 182.226 359.68 182.996C360.44 183.767 360.432 185.008 359.662 185.768C354.854 190.517 348.242 193.451 340.95 193.451C326.239 193.451 314.312 181.518 314.312 166.798C314.312 153.895 323.473 143.137 335.641 140.674C336.701 140.459 337.735 141.145 337.949 142.206Z" fill="#92B0C9"/>
<g filter="url(#filter2_d_39_1874)">
<path d="M301.777 224.025C301.777 222.294 303.181 220.89 304.911 220.89H376.989C378.72 220.89 380.123 222.294 380.123 224.025V276.549C380.123 278.281 378.72 279.685 376.989 279.685H304.911C303.181 279.685 301.777 278.281 301.777 276.549V224.025Z" fill="white"/>
</g>
<path d="M311.18 231.08C311.18 230.647 311.53 230.296 311.963 230.296H329.199C329.632 230.296 329.983 230.647 329.983 231.08V231.864C329.983 232.297 329.632 232.648 329.199 232.648H311.963C311.53 232.648 311.18 232.297 311.18 231.864V231.08Z" fill="#92B0C9"/>
<path opacity="0.1" d="M311.18 237.743C311.18 237.31 311.53 236.959 311.963 236.959H340.951C341.384 236.959 341.735 237.31 341.735 237.743V238.527C341.735 238.96 341.384 239.311 340.951 239.311H311.963C311.53 239.311 311.18 238.96 311.18 238.527V237.743Z" fill="#5A7184"/>
<path fill-rule="evenodd" clip-rule="evenodd" d="M375.357 245.837C375.511 246.241 375.308 246.694 374.904 246.848C373.496 247.385 372.747 248.587 371.854 250.019C371.75 250.186 371.644 250.356 371.535 250.528C371.04 251.31 370.471 252.137 369.696 252.761C368.895 253.407 367.902 253.814 366.611 253.814C364.626 253.814 363.554 255.046 362.074 256.745C361.973 256.861 361.87 256.979 361.765 257.099C360.16 258.931 358.158 260.958 354.293 261.066C350.612 261.168 348.144 260.291 346.038 259.413C345.793 259.311 345.554 259.21 345.322 259.111C343.544 258.357 342.077 257.734 340.169 257.734C339.171 257.734 338.075 258.091 336.893 258.688C335.715 259.283 334.517 260.082 333.316 260.905C333.19 260.99 333.065 261.077 332.938 261.163C331.878 261.89 330.811 262.622 329.805 263.176C328.697 263.787 327.529 264.262 326.415 264.2C324.406 264.089 323.021 263.128 321.907 262.311C321.867 262.282 321.829 262.253 321.79 262.225C320.68 261.409 319.946 260.87 319.016 260.87C318.531 260.87 317.847 261.045 317.037 261.366C316.244 261.68 315.401 262.104 314.621 262.536C313.844 262.966 313.142 263.398 312.635 263.723C312.381 263.885 312.177 264.02 312.037 264.114C311.966 264.161 311.912 264.197 311.876 264.222L311.836 264.25L311.826 264.256L311.823 264.258C311.467 264.504 310.979 264.416 310.733 264.06C310.487 263.704 310.575 263.216 310.931 262.969L311.377 263.614C310.931 262.969 310.931 262.969 310.931 262.969L310.933 262.968L310.936 262.966L310.948 262.957C310.959 262.95 310.974 262.94 310.994 262.926C311.034 262.899 311.092 262.86 311.166 262.81C311.314 262.711 311.527 262.57 311.791 262.402C312.317 262.065 313.048 261.615 313.862 261.164C314.674 260.714 315.582 260.256 316.46 259.908C317.321 259.567 318.228 259.302 319.016 259.302C320.48 259.302 321.621 260.148 322.597 260.871C322.677 260.93 322.755 260.989 322.833 261.046C323.923 261.846 324.986 262.55 326.502 262.635C327.152 262.671 327.991 262.387 329.049 261.803C329.984 261.288 330.984 260.602 332.057 259.866C332.181 259.782 332.305 259.696 332.431 259.61C333.628 258.791 334.904 257.937 336.187 257.288C337.465 256.642 338.817 256.166 340.169 256.166C342.415 256.166 344.183 256.92 345.941 257.67C346.174 257.769 346.407 257.868 346.64 257.966C348.647 258.802 350.88 259.592 354.25 259.498C357.436 259.41 359.057 257.812 360.587 256.066C360.708 255.927 360.831 255.785 360.954 255.642C362.34 254.035 363.882 252.246 366.611 252.246C367.534 252.246 368.182 251.968 368.713 251.54C369.271 251.091 369.725 250.457 370.211 249.689C370.312 249.53 370.415 249.363 370.52 249.191C371.372 247.809 372.41 246.121 374.346 245.383C374.751 245.229 375.203 245.432 375.357 245.837Z" fill="#F0F1F5"/>
<path d="M329.984 44.8953C329.984 44.4621 330.335 44.1113 330.768 44.1113H347.22C347.653 44.1113 348.004 44.4621 348.004 44.8953V45.6792C348.004 46.1123 347.653 46.4631 347.22 46.4631H330.768C330.335 46.4631 329.984 46.1123 329.984 45.6792V44.8953Z" fill="#B3BAC5"/>
<g filter="url(#filter3_d_39_1874)">
<path d="M305.699 38.405C305.699 35.9285 307.706 33.9209 310.181 33.9209H413.252C415.728 33.9209 417.734 35.9285 417.734 38.405V83.2462C417.734 85.7226 415.728 87.7303 413.252 87.7303H310.181C307.706 87.7303 305.699 85.7226 305.699 83.2462V38.405Z" fill="white"/>
</g>
<path fill-rule="evenodd" clip-rule="evenodd" d="M332.46 74.1518C339.885 74.1518 345.904 68.1288 345.904 60.6994C345.904 53.2701 339.885 47.2471 332.46 47.2471C325.035 47.2471 319.016 53.2701 319.016 60.6994C319.016 68.1288 325.035 74.1518 332.46 74.1518Z" fill="#F0F1F5"/>
<path d="M330.005 60.6724H328.781C328.567 60.6724 328.414 60.8409 328.414 61.0401V64.7144C328.414 64.9288 328.567 65.082 328.781 65.082H330.005C330.204 65.082 330.373 64.9288 330.373 64.7144V61.0401C330.373 60.8409 330.204 60.6724 330.005 60.6724ZM329.393 64.4698C329.179 64.4698 329.026 64.3165 329.026 64.1021C329.026 63.903 329.179 63.7344 329.393 63.7344C329.592 63.7344 329.761 63.903 329.761 64.1021C329.761 64.3165 329.592 64.4698 329.393 64.4698ZM334.29 58.4982C334.29 57.365 333.555 57.2427 333.188 57.2427C332.867 57.2427 332.729 57.8549 332.668 58.1309C332.576 58.4676 332.5 58.8043 332.27 59.034C331.781 59.5392 331.52 60.1671 330.908 60.7641C330.878 60.8104 330.862 60.8562 330.862 60.9021V64.1786C330.862 64.2707 330.939 64.3471 331.031 64.3624C331.276 64.3624 331.597 64.5004 331.842 64.6074C332.331 64.8218 332.928 65.082 333.662 65.082H333.709C334.366 65.082 335.147 65.082 335.453 64.6379C335.591 64.4541 335.621 64.2244 335.545 63.9489C335.805 63.6886 335.927 63.1986 335.805 62.8008C336.065 62.4484 336.095 61.9432 335.943 61.5912C336.126 61.4073 336.249 61.1165 336.233 60.8409C336.233 60.3663 335.835 59.9375 335.33 59.9375H333.77C333.892 59.5086 334.29 59.1414 334.29 58.4982Z" fill="#06E7ED"/>
<defs>
<filter id="filter0_d_39_1874" x="-0.844985" y="-0.85028" width="25.6276" height="270.229" filterUnits="userSpaceOnUse" color-interpolation-filters="sRGB">
<feFlood flood-opacity="0" result="BackgroundImageFix"/>
<feColorMatrix in="SourceAlpha" type="matrix" values="0 0 0 0 0 0 0 0 0 0 0 0 0 0 0 0 0 0 127 0" result="hardAlpha"/>
<feOffset dx="0.461349"/>
<feGaussianBlur stdDeviation="0.922699"/>
<feColorMatrix type="matrix" values="0 0 0 0 0.956012 0 0 0 0 0.956012 0 0 0 0 0.956012 0 0 0 1 0"/>
<feBlend mode="normal" in2="BackgroundImageFix" result="effect1_dropShadow_39_1874"/>
<feBlend mode="normal" in="SourceGraphic" in2="effect1_dropShadow_39_1874" result="shape"/>
</filter>
<filter id="filter1_d_39_1874" x="15.676" y="97.505" width="297.991" height="145.278" filterUnits="userSpaceOnUse" color-interpolation-filters="sRGB">
<feFlood flood-opacity="0" result="BackgroundImageFix"/>
<feColorMatrix in="SourceAlpha" type="matrix" values="0 0 0 0 0 0 0 0 0 0 0 0 0 0 0 0 0 0 127 0" result="hardAlpha"/>
<feOffset dy="9.22699"/>
<feGaussianBlur stdDeviation="10.8417"/>
<feColorMatrix type="matrix" values="0 0 0 0 0 0 0 0 0 0 0 0 0 0 0 0 0 0 0.05 0"/>
<feBlend mode="normal" in2="BackgroundImageFix" result="effect1_dropShadow_39_1874"/>
<feBlend mode="normal" in="SourceGraphic" in2="effect1_dropShadow_39_1874" result="shape"/>
</filter>
<filter id="filter2_d_39_1874" x="280.094" y="208.433" width="121.713" height="102.162" filterUnits="userSpaceOnUse" color-interpolation-filters="sRGB">
<feFlood flood-opacity="0" result="BackgroundImageFix"/>
<feColorMatrix in="SourceAlpha" type="matrix" values="0 0 0 0 0 0 0 0 0 0 0 0 0 0 0 0 0 0 127 0" result="hardAlpha"/>
<feOffset dy="9.22699"/>
<feGaussianBlur stdDeviation="10.8417"/>
<feColorMatrix type="matrix" values="0 0 0 0 0 0 0 0 0 0 0 0 0 0 0 0 0 0 0.05 0"/>
<feBlend mode="normal" in2="BackgroundImageFix" result="effect1_dropShadow_39_1874"/>
<feBlend mode="normal" in="SourceGraphic" in2="effect1_dropShadow_39_1874" result="shape"/>
</filter>
<filter id="filter3_d_39_1874" x="287.707" y="23.7712" width="148.02" height="89.7946" filterUnits="userSpaceOnUse" color-interpolation-filters="sRGB">
<feFlood flood-opacity="0" result="BackgroundImageFix"/>
<feColorMatrix in="SourceAlpha" type="matrix" values="0 0 0 0 0 0 0 0 0 0 0 0 0 0 0 0 0 0 127 0" result="hardAlpha"/>
<feOffset dy="7.84294"/>
<feGaussianBlur stdDeviation="8.99631"/>
<feColorMatrix type="matrix" values="0 0 0 0 0 0 0 0 0 0 0 0 0 0 0 0 0 0 0.05 0"/>
<feBlend mode="normal" in2="BackgroundImageFix" result="effect1_dropShadow_39_1874"/>
<feBlend mode="normal" in="SourceGraphic" in2="effect1_dropShadow_39_1874" result="shape"/>
</filter>
</defs>
</svg>
