<svg width="443" height="415" viewBox="0 0 443 415" fill="none" xmlns="http://www.w3.org/2000/svg">
<g clip-path="url(#clip0_1929_8809)">
<g filter="url(#filter0_f_1929_8809)">
<rect x="6" y="360.001" width="430.224" height="156.75" fill="#0C4F7E" fill-opacity="0.09"/>
</g>
<path d="M0.00390625 394.132V20.7447C0.00390625 8.98993 8.99286 0.000976562 20.7477 0.000976562H421.793C433.548 0.000976562 442.537 8.98993 442.537 20.7447V394.132C442.537 405.887 433.548 414.876 421.793 414.876H20.7477C8.99286 414.876 0.00390625 405.887 0.00390625 394.132Z" fill="#CAD1D8"/>
<path d="M20.7505 34.5743C24.5693 34.5743 27.6651 31.4785 27.6651 27.6597C27.6651 23.8409 24.5693 20.7451 20.7505 20.7451C16.9317 20.7451 13.8359 23.8409 13.8359 27.6597C13.8359 31.4785 16.9317 34.5743 20.7505 34.5743Z" fill="#9BA7AF"/>
<path d="M48.4068 34.5743C52.2256 34.5743 55.3214 31.4785 55.3214 27.6597C55.3214 23.8409 52.2256 20.7451 48.4068 20.7451C44.588 20.7451 41.4922 23.8409 41.4922 27.6597C41.4922 31.4785 44.588 34.5743 48.4068 34.5743Z" fill="#9BA7AF"/>
<path d="M76.063 34.5743C79.8819 34.5743 82.9776 31.4785 82.9776 27.6597C82.9776 23.8409 79.8819 20.7451 76.063 20.7451C72.2441 20.7451 69.1484 23.8409 69.1484 27.6597C69.1484 31.4785 72.2441 34.5743 76.063 34.5743Z" fill="#9BA7AF"/>
<path d="M421.796 401.047H20.7505C16.6018 401.047 13.8359 398.281 13.8359 394.132V62.232C13.8359 58.0832 16.6018 55.3174 20.7505 55.3174H421.796C425.945 55.3174 428.711 58.0832 428.711 62.232V394.132C428.711 398.281 425.945 401.047 421.796 401.047Z" fill="#112D44"/>
<path d="M421.794 34.5743H103.723C99.5744 34.5743 96.8086 31.8085 96.8086 27.6597C96.8086 23.511 99.5744 20.7451 103.723 20.7451H421.794C425.943 20.7451 428.709 23.511 428.709 27.6597C428.709 31.8085 425.943 34.5743 421.794 34.5743Z" fill="#E2E5E7"/>
<path d="M110.638 96.8048H55.3208C51.1721 96.8048 48.4062 94.0389 48.4062 89.8902C48.4062 85.7414 51.1721 82.9756 55.3208 82.9756H110.638C114.786 82.9756 117.552 85.7414 117.552 89.8902C117.552 94.0389 114.786 96.8048 110.638 96.8048Z" fill="#CAD1D8"/>
<path d="M152.123 124.463H82.9771C78.8283 124.463 76.0625 121.697 76.0625 117.549C76.0625 113.4 78.8283 110.634 82.9771 110.634H152.123C156.272 110.634 159.037 113.4 159.037 117.549C159.037 121.697 156.272 124.463 152.123 124.463Z" fill="#CAD1D8"/>
<path d="M304.248 124.463H235.102C230.953 124.463 228.188 121.697 228.188 117.548C228.188 113.4 230.953 110.634 235.102 110.634H304.248C308.397 110.634 311.162 113.4 311.162 117.548C311.162 121.697 308.397 124.463 304.248 124.463Z" fill="#CAD1D8"/>
<path d="M221.271 179.779H152.126C147.977 179.779 145.211 177.014 145.211 172.865C145.211 168.716 147.977 165.95 152.126 165.95H221.271C225.42 165.95 228.186 168.716 228.186 172.865C228.186 177.014 225.42 179.779 221.271 179.779Z" fill="#EE2C39"/>
<path d="M207.44 124.463H179.782C175.633 124.463 172.867 121.697 172.867 117.548C172.867 113.4 175.633 110.634 179.782 110.634H207.44C211.589 110.634 214.355 113.4 214.355 117.548C214.355 121.697 211.589 124.463 207.44 124.463Z" fill="#3BB54A"/>
<path d="M172.867 152.121H82.9771C78.8283 152.121 76.0625 149.355 76.0625 145.207C76.0625 141.058 78.8283 138.292 82.9771 138.292H172.867C177.015 138.292 179.781 141.058 179.781 145.207C179.781 149.355 177.015 152.121 172.867 152.121Z" fill="#CAD1D8"/>
<path d="M124.465 179.779H82.9771C78.8283 179.779 76.0625 177.014 76.0625 172.865C76.0625 168.716 78.8283 165.95 82.9771 165.95H124.465C128.613 165.95 131.379 168.716 131.379 172.865C131.379 177.014 128.613 179.779 124.465 179.779Z" fill="#FDBA4D"/>
<path d="M338.816 152.122H297.329C293.18 152.122 290.414 149.356 290.414 145.208C290.414 141.059 293.18 138.293 297.329 138.293H338.816C342.965 138.293 345.731 141.059 345.731 145.208C345.731 149.356 342.965 152.122 338.816 152.122Z" fill="#CAD1D8"/>
<path d="M262.761 290.413H221.274C217.125 290.413 214.359 287.647 214.359 283.499C214.359 279.35 217.125 276.584 221.274 276.584H262.761C266.91 276.584 269.676 279.35 269.676 283.499C269.676 287.647 266.91 290.413 262.761 290.413Z" fill="#CAD1D8"/>
<path d="M214.359 318.071H172.872C168.723 318.071 165.957 315.306 165.957 311.157C165.957 307.008 168.723 304.242 172.872 304.242H214.359C218.508 304.242 221.274 307.008 221.274 311.157C221.274 315.306 218.508 318.071 214.359 318.071Z" fill="#EE2C39"/>
<path d="M283.504 318.071H242.016C237.867 318.071 235.102 315.306 235.102 311.157C235.102 307.008 237.867 304.242 242.016 304.242H283.504C287.652 304.242 290.418 307.008 290.418 311.157C290.418 315.306 287.652 318.071 283.504 318.071Z" fill="#EE2C39"/>
<path d="M228.186 262.755H200.528C196.379 262.755 193.613 259.989 193.613 255.84C193.613 251.692 196.379 248.926 200.528 248.926H228.186C232.335 248.926 235.101 251.692 235.101 255.84C235.101 259.989 232.335 262.755 228.186 262.755Z" fill="#3BB54A"/>
<path d="M387.221 345.73H359.563C355.414 345.73 352.648 342.964 352.648 338.815C352.648 334.666 355.414 331.9 359.563 331.9H387.221C391.37 331.9 394.136 334.666 394.136 338.815C394.136 342.964 391.37 345.73 387.221 345.73Z" fill="#3689C9"/>
<path d="M235.098 207.439H179.782C175.633 207.439 172.867 204.673 172.867 200.524C172.867 196.375 175.633 193.609 179.782 193.609H235.098C239.247 193.609 242.013 196.375 242.013 200.524C242.013 204.673 239.247 207.439 235.098 207.439Z" fill="#3689C9"/>
<path d="M269.674 152.122H200.528C196.379 152.122 193.613 149.356 193.613 145.208C193.613 141.059 196.379 138.293 200.528 138.293H269.674C273.822 138.293 276.588 141.059 276.588 145.208C276.588 149.356 273.822 152.122 269.674 152.122Z" fill="#CAD1D8"/>
<path d="M152.123 207.439H82.9771C78.8283 207.439 76.0625 204.673 76.0625 200.524C76.0625 196.375 78.8283 193.609 82.9771 193.609H152.123C156.272 193.609 159.037 196.375 159.037 200.524C159.037 204.673 156.272 207.439 152.123 207.439Z" fill="#CAD1D8"/>
<path d="M110.638 235.097H55.3208C51.1721 235.097 48.4062 232.331 48.4062 228.182C48.4062 224.033 51.1721 221.268 55.3208 221.268H110.638C114.786 221.268 117.552 224.033 117.552 228.182C117.552 232.331 114.786 235.097 110.638 235.097Z" fill="#CAD1D8"/>
<path d="M172.867 262.755H82.9771C78.8283 262.755 76.0625 259.989 76.0625 255.84C76.0625 251.692 78.8283 248.926 82.9771 248.926H172.867C177.015 248.926 179.781 251.692 179.781 255.84C179.781 259.989 177.015 262.755 172.867 262.755Z" fill="#CAD1D8"/>
<path d="M193.61 290.413H82.9771C78.8283 290.413 76.0625 287.647 76.0625 283.498C76.0625 279.35 78.8283 276.584 82.9771 276.584H193.61C197.759 276.584 200.525 279.35 200.525 283.498C200.525 287.647 197.759 290.413 193.61 290.413Z" fill="#FDBA4D"/>
<path d="M297.332 262.755H255.844C251.696 262.755 248.93 259.989 248.93 255.84C248.93 251.692 251.696 248.926 255.844 248.926H297.332C301.481 248.926 304.246 251.692 304.246 255.84C304.246 259.989 301.481 262.755 297.332 262.755Z" fill="#FDBA4D"/>
<path d="M145.208 318.071H82.9771C78.8283 318.071 76.0625 315.306 76.0625 311.157C76.0625 307.008 78.8283 304.242 82.9771 304.242H145.208C149.357 304.242 152.123 307.008 152.123 311.157C152.123 315.306 149.357 318.071 145.208 318.071Z" fill="#CAD1D8"/>
<path d="M193.61 345.73H82.9771C78.8283 345.73 76.0625 342.964 76.0625 338.815C76.0625 334.666 78.8283 331.9 82.9771 331.9H193.61C197.759 331.9 200.525 334.666 200.525 338.815C200.525 342.964 197.759 345.73 193.61 345.73Z" fill="#CAD1D8"/>
<path d="M331.907 345.73H221.274C217.125 345.73 214.359 342.964 214.359 338.815C214.359 334.666 217.125 331.9 221.274 331.9H331.907C336.056 331.9 338.822 334.666 338.822 338.815C338.822 342.964 336.056 345.73 331.907 345.73Z" fill="#CAD1D8"/>
<path d="M48.4062 366.473C48.4062 362.324 51.1721 359.559 55.3208 359.559H110.638C114.786 359.559 117.552 362.324 117.552 366.473C117.552 370.622 114.786 373.388 110.638 373.388H55.3208C51.1721 373.388 48.4062 370.622 48.4062 366.473Z" fill="#CAD1D8"/>
<path d="M324.993 262.755C328.812 262.755 331.907 259.659 331.907 255.84C331.907 252.021 328.812 248.926 324.993 248.926C321.174 248.926 318.078 252.021 318.078 255.84C318.078 259.659 321.174 262.755 324.993 262.755Z" fill="#CAD1D8"/>
<path d="M248.93 179.779C252.749 179.779 255.845 176.684 255.845 172.865C255.845 169.046 252.749 165.95 248.93 165.95C245.111 165.95 242.016 169.046 242.016 172.865C242.016 176.684 245.111 179.779 248.93 179.779Z" fill="#CAD1D8"/>
</g>
<defs>
<filter id="filter0_f_1929_8809" x="-144" y="210.001" width="730.224" height="456.75" filterUnits="userSpaceOnUse" color-interpolation-filters="sRGB">
<feFlood flood-opacity="0" result="BackgroundImageFix"/>
<feBlend mode="normal" in="SourceGraphic" in2="BackgroundImageFix" result="shape"/>
<feGaussianBlur stdDeviation="75" result="effect1_foregroundBlur_1929_8809"/>
</filter>
<clipPath id="clip0_1929_8809">
<rect width="442.533" height="414.875" fill="white" transform="translate(0 0.000976562)"/>
</clipPath>
</defs>
</svg>
