<svg width="48" height="48" viewBox="0 0 48 48" fill="none" xmlns="http://www.w3.org/2000/svg">
    <rect width="48" height="48" rx="24" fill="#104156"/>
    <path d="M27.12 26.6019C26.1757 26.54 25.4332 25.7588 25.4332 24.8038C25.4332 24.7719 25.4338 24.74 25.4357 24.7082V24.7125C25.4338 24.6825 25.4325 24.6475 25.4325 24.6119C25.4325 23.6588 26.1763 22.88 27.115 22.8232H27.12C28.0632 22.8744 28.8082 23.6513 28.8082 24.6025C28.8082 24.6413 28.8069 24.6794 28.8044 24.7175V24.7125C28.8063 24.7438 28.8075 24.7807 28.8075 24.8175C28.8075 25.7694 28.0632 26.5475 27.1244 26.6013H27.1194L27.12 26.6019ZM20.8913 26.6019C19.9469 26.54 19.2044 25.7588 19.2044 24.8038C19.2044 24.7719 19.205 24.74 19.2069 24.7082V24.7125C19.205 24.6825 19.2038 24.6475 19.2038 24.6119C19.2038 23.6588 19.9475 22.88 20.8863 22.8232H20.8913C21.8344 22.8744 22.5794 23.6513 22.5794 24.6025C22.5794 24.6413 22.5782 24.6794 22.5757 24.7175V24.7125C22.5775 24.7425 22.5788 24.7775 22.5788 24.8132C22.5788 25.7663 21.835 26.545 20.8963 26.6019H20.8913ZM30.4957 18.0407C29.3938 17.5207 28.1138 17.1094 26.7738 16.8713L26.6807 16.8575C26.6775 16.8569 26.6738 16.8563 26.67 16.8563C26.6482 16.8563 26.6294 16.8682 26.6194 16.8857C26.4732 17.1425 26.3144 17.4632 26.1713 17.7919L26.1444 17.8613C25.5007 17.7582 24.7582 17.6994 24.0019 17.6994C23.2457 17.6994 22.5032 17.7582 21.7788 17.8713L21.8594 17.8607C21.6907 17.4669 21.5294 17.1469 21.3513 16.8369L21.3769 16.885C21.3663 16.8669 21.3469 16.8557 21.325 16.8557C21.3219 16.8557 21.3182 16.8557 21.315 16.8563C19.8819 17.1082 18.6019 17.5188 17.4057 18.0794L17.5 18.0394C17.4894 18.0438 17.4807 18.0513 17.475 18.0607C15.6913 20.5863 14.6238 23.7288 14.6238 27.1207C14.6238 27.6875 14.6538 28.2469 14.7119 28.7982L14.7063 28.7294C14.7082 28.7475 14.7175 28.7625 14.7307 28.7732C16.0682 29.7738 17.6232 30.58 19.3013 31.1094L19.4113 31.1394C19.4163 31.1413 19.4225 31.1419 19.4288 31.1419C19.4488 31.1419 19.4663 31.1325 19.4769 31.1182C19.8113 30.6682 20.1294 30.1582 20.405 29.6232L20.4344 29.5607C20.4382 29.5532 20.4407 29.5438 20.4407 29.5338C20.4407 29.5082 20.4244 29.4869 20.4019 29.4782H20.4013C19.8313 29.2582 19.3494 29.0238 18.8907 28.755L18.9388 28.7813C18.9207 28.7707 18.9088 28.7513 18.9088 28.7294C18.9088 28.71 18.9182 28.6925 18.9325 28.6819C19.0307 28.6082 19.1294 28.5319 19.2232 28.4544C19.2332 28.4463 19.2463 28.4413 19.26 28.4413C19.2688 28.4413 19.2769 28.4432 19.2838 28.4463H19.2832C20.6632 29.1094 22.2832 29.4969 23.9932 29.4969C25.7032 29.4969 27.3238 29.1094 28.77 28.4175L28.7032 28.4463C28.7107 28.4425 28.7188 28.4407 28.7282 28.4407C28.7419 28.4407 28.755 28.4457 28.765 28.4538C28.8588 28.5313 28.9569 28.6088 29.0563 28.6819C29.0707 28.6932 29.08 28.7107 29.08 28.73C29.08 28.7519 29.0682 28.7707 29.0513 28.7813C28.6382 29.0282 28.1563 29.2619 27.6544 29.455L27.5888 29.4775C27.5663 29.4863 27.55 29.5082 27.55 29.5332C27.55 29.5432 27.5525 29.5525 27.5569 29.5607C27.87 30.1607 28.1875 30.6694 28.5388 31.1525L28.5138 31.1169C28.5244 31.1319 28.5425 31.1419 28.5619 31.1419C28.5682 31.1419 28.5744 31.1407 28.58 31.1394C30.3707 30.5819 31.9282 29.7757 33.3082 28.7444L33.2675 28.7738C33.2813 28.7638 33.29 28.7482 33.2919 28.7307C33.3463 28.2407 33.3769 27.6719 33.3769 27.0963C33.3769 23.7119 32.3069 20.5775 30.4875 18.0125L30.52 18.0613C30.515 18.0513 30.5063 18.0432 30.4963 18.0388L30.4957 18.0407Z" fill="#06E7ED"/>
    </svg>
    