<svg width="20" height="20" viewBox="0 0 20 20" fill="none" xmlns="http://www.w3.org/2000/svg">
<path d="M15.032 11.2918C14.682 11.6335 14.482 12.1252 14.532 12.6502C14.607 13.5502 15.432 14.2085 16.332 14.2085H17.9154V15.2002C17.9154 16.9252 16.507 18.3335 14.782 18.3335H6.35703C6.61536 18.1168 6.84036 17.8502 7.01536 17.5502C7.3237 17.0502 7.4987 16.4585 7.4987 15.8335C7.4987 13.9918 6.00703 12.5002 4.16536 12.5002C3.38203 12.5002 2.65703 12.7752 2.08203 13.2335V9.59184C2.08203 7.86684 3.49037 6.4585 5.21537 6.4585H14.782C16.507 6.4585 17.9154 7.86684 17.9154 9.59184V10.7918H16.232C15.7654 10.7918 15.3404 10.9752 15.032 11.2918Z" stroke="#112D44" stroke-width="1.5" stroke-linecap="round" stroke-linejoin="round"/>
<path d="M2.08203 10.3416V6.5333C2.08203 5.54163 2.69036 4.65826 3.61536 4.30826L10.232 1.80826C11.2654 1.41659 12.3737 2.18329 12.3737 3.29162V6.45828" stroke="#112D44" stroke-width="1.5" stroke-linecap="round" stroke-linejoin="round"/>
<path d="M18.7977 11.642V13.3587C18.7977 13.817 18.431 14.192 17.9644 14.2086H16.331C15.431 14.2086 14.606 13.5503 14.531 12.6503C14.481 12.1253 14.681 11.6336 15.031 11.292C15.3394 10.9753 15.7644 10.792 16.231 10.792H17.9644C18.431 10.8087 18.7977 11.1836 18.7977 11.642Z" stroke="#112D44" stroke-width="1.5" stroke-linecap="round" stroke-linejoin="round"/>
<path d="M5.83203 10H11.6654" stroke="#112D44" stroke-width="1.5" stroke-linecap="round" stroke-linejoin="round"/>
<path d="M7.4987 15.8333C7.4987 16.4583 7.3237 17.05 7.01536 17.55C6.84036 17.85 6.61536 18.1167 6.35703 18.3333C5.7737 18.8583 5.00703 19.1667 4.16536 19.1667C2.9487 19.1667 1.89037 18.5167 1.31537 17.55C1.00703 17.05 0.832031 16.4583 0.832031 15.8333C0.832031 14.7833 1.31536 13.8417 2.08203 13.2333C2.65703 12.775 3.38203 12.5 4.16536 12.5C6.00703 12.5 7.4987 13.9917 7.4987 15.8333Z" stroke="#112D44" stroke-width="1.5" stroke-miterlimit="10" stroke-linecap="round" stroke-linejoin="round"/>
<path d="M5.40911 15.8164H2.92578" stroke="#112D44" stroke-width="1.5" stroke-miterlimit="10" stroke-linecap="round" stroke-linejoin="round"/>
<path d="M4.16602 14.5996V17.0913" stroke="#112D44" stroke-width="1.5" stroke-miterlimit="10" stroke-linecap="round" stroke-linejoin="round"/>
</svg>
