<svg width="232" height="56" viewBox="0 0 232 56" fill="none" xmlns="http://www.w3.org/2000/svg">
<path d="M89.4291 17.495V39.1429H89.3361L72.7204 23.5225L72.7855 38.462H69.7148V16.8572H69.8699L86.4546 32.6586L86.3926 17.5007L89.4291 17.495Z" fill="#112D44"/>
<path d="M108.964 16.8572V19.7235H96.8107V26.5073H107.433V29.3736H96.8107V36.246H109.143V39.1429H93.7148V16.8572H108.964Z" fill="#112D44"/>
<path d="M117.227 33.7341C117.704 34.5109 118.385 35.1522 119.202 35.5928C120.046 36.0524 121.001 36.289 121.97 36.2789C122.967 36.292 123.952 36.0612 124.832 35.6079C125.666 35.179 126.36 34.5356 126.838 33.7492C127.325 32.9455 127.576 32.0293 127.565 31.0986V16.8572H130.571V31.1862C130.6 32.6488 130.205 34.0902 129.43 35.348C128.689 36.5428 127.616 37.5142 126.333 38.1528C124.983 38.8039 123.495 39.1429 121.985 39.1429C120.476 39.1429 118.988 38.8039 117.638 38.1528C116.356 37.5163 115.287 36.5441 114.553 35.348C113.792 34.0858 113.403 32.6463 113.431 31.1862V16.8572H116.5V31.0986C116.486 32.0248 116.738 32.9367 117.227 33.7341Z" fill="#112D44"/>
<path d="M149.371 38.5426C148.258 38.9481 147.083 39.1505 145.901 39.1405C143.866 39.1826 141.858 38.6728 140.083 37.6638C138.452 36.7241 137.113 35.342 136.215 33.6731C135.306 31.981 134.84 30.0813 134.861 28.1549C134.831 26.1344 135.301 24.1384 136.23 22.3498C137.104 20.6782 138.417 19.2837 140.024 18.3203C141.687 17.3329 143.587 16.8273 145.514 16.8585C146.663 16.8486 147.806 17.0108 148.907 17.3398C149.901 17.6357 150.852 18.0618 151.737 18.6073L150.583 21.3424C148.937 20.2165 147.281 19.6535 145.615 19.6535C144.251 19.6455 142.913 20.0323 141.759 20.7685C140.576 21.5166 139.602 22.5604 138.932 23.7996C138.222 25.0838 137.855 26.5335 137.867 28.0055C137.846 29.4808 138.178 30.9394 138.835 32.2562C139.454 33.4975 140.415 34.5298 141.602 35.2275C143.032 36.0183 144.653 36.3819 146.278 36.276C147.904 36.1702 149.466 35.5993 150.784 34.6297L152.002 37.2542C151.176 37.7833 150.293 38.2155 149.371 38.5426Z" fill="#112D44"/>
<path d="M169.174 39.1429L164.039 30.9143C163.798 30.9389 163.556 30.9491 163.314 30.9448H160.072V39.1429H157.141V16.8587H162.97C164.34 16.8343 165.7 17.1083 166.958 17.6623C168.081 18.1563 169.036 18.9754 169.707 20.0181C170.394 21.1389 170.741 22.4425 170.704 23.7642C170.714 25.0843 170.406 26.3867 169.806 27.5562C169.203 28.7137 168.242 29.6347 167.072 30.1748L172.569 39.1429H169.174ZM166.659 26.7831C167.34 25.9793 167.711 24.9493 167.701 23.8865C167.695 23.2142 167.544 22.5516 167.258 21.9462C166.951 21.2932 166.469 20.7423 165.868 20.3573C165.147 19.9128 164.315 19.693 163.473 19.7248H160.072V28.0481H163.243C164.823 28.0481 165.962 27.6265 166.659 26.7831Z" fill="#112D44"/>
<path d="M179.222 22.4574C180.203 20.7738 181.6 19.369 183.279 18.3768C184.961 17.382 186.88 16.8572 188.835 16.8572C190.79 16.8572 192.709 17.382 194.392 18.3768C196.078 19.3696 197.484 20.7736 198.478 22.4574C199.484 24.1304 200.01 26.0467 200 27.9977C200.017 29.9553 199.5 31.8807 198.505 33.5678C197.522 35.2521 196.112 36.6489 194.418 37.6186C192.729 38.6093 190.806 39.1353 188.846 39.1428C186.887 39.1504 184.96 38.6393 183.263 37.6615C181.565 36.6838 180.158 35.2745 179.183 33.5769C178.209 31.8793 177.702 29.9543 177.715 27.9977C177.705 26.0487 178.226 24.1336 179.222 22.4574ZM181.817 32.1529C182.523 33.4007 183.547 34.4398 184.786 35.1649C185.708 35.7167 186.732 36.0776 187.797 36.226C188.861 36.3745 189.945 36.3074 190.984 36.0289C192.022 35.7504 192.993 35.266 193.84 34.6048C194.687 33.9435 195.392 33.1188 195.913 32.1798C196.62 30.8999 196.991 29.4622 196.991 28.0007C196.991 26.5392 196.62 25.1015 195.913 23.8216C195.217 22.5635 194.197 21.5135 192.959 20.7798C191.716 20.0482 190.299 19.6636 188.856 19.6662C187.412 19.6689 185.996 20.0586 184.756 20.7947C183.521 21.5353 182.506 22.5902 181.814 23.8514C181.104 25.1295 180.735 26.5688 180.744 28.0305C180.729 29.4754 181.099 30.8981 181.817 32.1529Z" fill="#112D44"/>
<path d="M207.314 17.5006L207.252 32.6545L223.844 16.8572H223.999V38.4421H220.933L220.995 23.5208L204.381 39.1429H204.285V17.5006H207.314Z" fill="#112D44"/>
<path d="M51.3964 4H12.6037C10.0611 4 8 6.06112 8 8.60365V47.3964C8 49.9389 10.0611 52 12.6037 52H51.3964C53.9389 52 56 49.9389 56 47.3964V8.60365C56 6.06112 53.9389 4 51.3964 4Z" fill="#112D44"/>
<path d="M26.7544 30.4303C26.788 28.8298 26.8217 27.2416 26.8553 25.635L25.2059 25.73L21.1786 25.9692C20.0205 25.9928 18.8964 26.3657 17.9531 27.0392C14.8929 29.3388 15.3213 32.9629 17.1452 34.8792C17.9103 35.6855 18.709 36.4582 19.4955 37.2431C21.3316 39.0827 23.1678 40.9469 25.0314 42.7835C25.8476 43.5809 26.8995 44.0921 28.0297 44.2408C29.16 44.3894 30.3079 44.1675 31.3019 43.6083C32.9911 42.6271 33.7806 41.0696 33.8939 39.1594C34.0071 37.2492 34.0652 35.2686 34.1479 33.3339L34.7079 20.0026C34.7079 19.6623 34.7293 19.3219 34.7446 18.9785C34.7483 18.611 34.8647 18.2534 35.0782 17.9545C35.2006 17.7649 35.3827 17.6217 35.5957 17.5478C35.8086 17.4739 36.0401 17.4735 36.2533 17.5467C36.5738 17.6559 36.8678 17.8314 37.1163 18.0618C38.8117 19.7236 40.4907 21.4007 42.1534 23.0932C42.3702 23.3323 42.5302 23.6174 42.6217 23.9272C42.6623 24.0332 42.6808 24.1464 42.6758 24.2599C42.6709 24.3734 42.6428 24.4846 42.5931 24.5867C42.5435 24.6888 42.4734 24.7796 42.3872 24.8533C42.301 24.9271 42.2006 24.9824 42.0922 25.0156C41.6296 25.1815 41.1469 25.2846 40.657 25.3222C39.5737 25.3958 38.4903 25.4019 37.3795 25.4326C37.2969 27.0392 37.2112 28.6305 37.1255 30.2494L38.4016 30.2003C39.9011 30.1421 41.3976 30.0992 42.894 30.0225C44.0271 29.9966 45.1268 29.6326 46.0522 28.977C46.6367 28.5701 47.1317 28.0474 47.5065 27.4412C47.8813 26.835 48.128 26.1581 48.2312 25.4526C48.3345 24.747 48.2922 24.0278 48.1068 23.3393C47.9215 22.6507 47.5972 22.0077 47.1539 21.4498C46.9218 21.1794 46.6734 20.9234 46.4102 20.6833C43.9865 18.2304 41.572 15.7776 39.1361 13.3676C37.459 11.6966 35.4638 11.3011 33.2788 12.1412C31.7487 12.7176 30.8306 13.9072 30.3715 15.4525C30.2158 16.0164 30.1285 16.597 30.1114 17.1818C29.9125 21.5602 29.735 25.9385 29.5514 30.3199C29.4555 32.55 29.3617 34.78 29.2699 37.0101C29.2652 37.1313 29.2529 37.2522 29.2331 37.3719C29.0373 38.4849 28.058 38.8865 27.1736 38.1936C26.7587 37.8425 26.3653 37.4668 25.9954 37.0683C24.6469 35.7234 23.3014 34.3743 21.959 33.0211C21.696 32.7767 21.5045 32.465 21.4051 32.1197C21.3331 31.8959 21.3495 31.6529 21.4508 31.4408C21.5521 31.2286 21.7307 31.0634 21.9498 30.9791C22.5189 30.7633 23.1223 30.6522 23.7308 30.6511L26.7544 30.4303Z" fill="#06E7ED"/>
</svg>
