<svg width="874" height="650" viewBox="0 0 874 650" fill="none" xmlns="http://www.w3.org/2000/svg">
<g opacity="0.5">
<path d="M13.6146 201.394C13.5491 201.569 13.4835 201.766 13.418 201.941L362.688 0C362.425 0 362.185 0 361.923 0.0218811L13.6146 201.394Z" fill="url(#paint0_radial_1_2884)"/>
<path d="M0.00390625 268.394L461.632 1.48798C461.414 1.46609 461.173 1.46609 460.955 1.44421L0.00390625 267.956C0.00390625 268.087 0.00390625 268.24 0.00390625 268.394Z" fill="url(#paint1_radial_1_2884)"/>
<path d="M7.84754 322.549L549.91 9.16818C549.714 9.1463 549.495 9.12442 549.298 9.10254L7.73828 322.177C7.78198 322.309 7.82569 322.418 7.84754 322.549Z" fill="url(#paint2_radial_1_2884)"/>
<path d="M25.9844 370.338C26.0281 370.447 26.0936 370.557 26.1373 370.666L629.012 22.1219C628.837 22.0781 628.64 22.0562 628.466 22.0125L25.9844 370.338Z" fill="url(#paint3_radial_1_2884)"/>
<path d="M50.0859 415.106C50.1515 415.216 50.217 415.325 50.2826 415.434L702.912 38.1168C702.738 38.073 702.563 38.0292 702.388 37.9855L50.0859 415.106Z" fill="url(#paint4_radial_1_2884)"/>
<path d="M775.109 54.6371L78.668 457.293C78.7335 457.403 78.8209 457.49 78.8865 457.599L775.634 54.7684C775.459 54.7246 775.284 54.6808 775.109 54.6371Z" fill="url(#paint5_radial_1_2884)"/>
<path d="M117.171 494.163L829.367 82.4042C829.257 82.3166 829.17 82.2291 829.061 82.1416L116.777 493.966C116.908 494.031 117.04 494.097 117.171 494.163Z" fill="url(#paint6_radial_1_2884)"/>
<path d="M168.455 523.221L875.167 114.635C875.035 114.569 874.926 114.482 874.795 114.416L168.105 522.98C168.215 523.068 168.346 523.133 168.455 523.221Z" fill="url(#paint7_radial_1_2884)"/>
<path d="M218.121 553.198L925.379 144.306C925.248 144.24 925.139 144.153 925.008 144.087L217.75 553.001C217.859 553.067 217.99 553.132 218.121 553.198Z" fill="url(#paint8_radial_1_2884)"/>
<path d="M272.925 580.221L973.671 175.092C973.562 175.005 973.431 174.939 973.322 174.852L272.488 580.046C272.641 580.09 272.794 580.155 272.925 580.221Z" fill="url(#paint9_radial_1_2884)"/>
<path d="M336.203 602.343L1020.58 206.667C1020.47 206.579 1020.36 206.514 1020.23 206.426L335.723 602.19C335.876 602.234 336.05 602.277 336.203 602.343Z" fill="url(#paint10_radial_1_2884)"/>
<path d="M405.192 621.161L1051.35 247.585C1051.33 247.453 1051.29 247.344 1051.27 247.213L404.668 621.029C404.843 621.073 405.018 621.117 405.192 621.161Z" fill="url(#paint11_radial_1_2884)"/>
<path d="M479.789 636.74L1060.62 300.931C1060.59 300.799 1060.59 300.668 1060.57 300.515L479.199 636.631C479.396 636.674 479.593 636.696 479.789 636.74Z" fill="url(#paint12_radial_1_2884)"/>
<path d="M566.713 645.186L1062.36 358.631C1062.36 358.478 1062.39 358.347 1062.39 358.193L566.035 645.142C566.254 645.142 566.494 645.164 566.713 645.186Z" fill="url(#paint13_radial_1_2884)"/>
<path d="M659.91 650L1056.47 420.73C1056.49 420.577 1056.51 420.424 1056.55 420.249L659.211 649.978C659.429 649.978 659.67 650 659.91 650Z" fill="url(#paint14_radial_1_2884)"/>
<path d="M1046.24 230.999C1046.17 230.824 1046.11 230.627 1046.04 230.452L720.001 41.946C719.586 41.8584 719.193 41.7709 718.777 41.6615L1046.24 230.999Z" fill="url(#paint15_radial_1_2884)"/>
<path d="M564.309 11.0497L1060.33 297.823C1060.31 297.67 1060.29 297.517 1060.27 297.364L565.27 11.2028C564.942 11.1591 564.615 11.1153 564.309 11.0497Z" fill="url(#paint16_radial_1_2884)"/>
<path d="M444.895 0.721802L1062.41 357.734C1062.41 357.603 1062.41 357.449 1062.43 357.318L445.703 0.765564C445.419 0.743683 445.157 0.743683 444.895 0.721802Z" fill="url(#paint17_radial_1_2884)"/>
<path d="M342.977 0.503052L1057.55 413.618C1057.58 413.487 1057.6 413.356 1057.62 413.224L343.676 0.503052C343.457 0.503052 343.217 0.503052 342.977 0.503052Z" fill="url(#paint18_radial_1_2884)"/>
<path d="M272.051 18.2047L1022.57 452.107C1022.66 452.019 1022.75 451.932 1022.86 451.844L272.444 18.0078C272.313 18.0735 272.182 18.1391 272.051 18.2047Z" fill="url(#paint19_radial_1_2884)"/>
<path d="M983.569 488.255C983.678 488.167 983.766 488.079 983.875 487.992L218.253 45.3811C218.122 45.4467 217.99 45.5124 217.859 45.578L983.569 488.255Z" fill="url(#paint20_radial_1_2884)"/>
<path d="M940.784 522.236C940.894 522.149 941.003 522.083 941.112 521.995L165.766 73.7391C165.635 73.8048 165.504 73.8704 165.395 73.9579L940.784 522.236Z" fill="url(#paint21_radial_1_2884)"/>
<path d="M893.715 553.723C893.825 553.657 893.956 553.57 894.065 553.504L114.895 103.038C114.764 103.103 114.655 103.191 114.523 103.257L893.715 553.723Z" fill="url(#paint22_radial_1_2884)"/>
<path d="M843.131 583.197C843.262 583.131 843.393 583.066 843.502 582.978L65.4902 133.168C65.381 133.234 65.2499 133.321 65.1406 133.387L843.131 583.197Z" fill="url(#paint23_radial_1_2884)"/>
<path d="M28.6289 170.979L791.869 612.233C792.001 612.167 792.11 612.08 792.241 612.014L28.8256 170.672C28.76 170.782 28.6945 170.891 28.6289 170.979Z" fill="url(#paint24_radial_1_2884)"/>
<path d="M7.97656 217.761L740.604 641.313C740.735 641.247 740.866 641.182 740.975 641.094L8.08582 217.389C8.06397 217.52 8.02026 217.629 7.97656 217.761Z" fill="url(#paint25_radial_1_2884)"/>
<path d="M0.0234375 271.851L653.79 649.825C654.052 649.825 654.314 649.847 654.576 649.847L0.0234375 271.435C0.0234375 271.566 0.0234375 271.719 0.0234375 271.851Z" fill="url(#paint26_radial_1_2884)"/>
<path d="M12.8295 337.953L540.754 643.173C541.039 643.195 541.323 643.217 541.629 643.238L12.6328 337.428C12.6984 337.603 12.7639 337.778 12.8295 337.953Z" fill="url(#paint27_radial_1_2884)"/>
</g>
<defs>
<radialGradient id="paint0_radial_1_2884" cx="0" cy="0" r="1" gradientUnits="userSpaceOnUse" gradientTransform="translate(509.532 303.809) scale(311.524 311.95)">
<stop stop-color="#70C5A3"/>
<stop offset="0.4947" stop-color="#0A11AB"/>
<stop offset="1"/>
</radialGradient>
<radialGradient id="paint1_radial_1_2884" cx="0" cy="0" r="1" gradientUnits="userSpaceOnUse" gradientTransform="translate(509.535 303.809) scale(311.522 311.949)">
<stop stop-color="#70C5A3"/>
<stop offset="0.4947" stop-color="#0A11AB"/>
<stop offset="1"/>
</radialGradient>
<radialGradient id="paint2_radial_1_2884" cx="0" cy="0" r="1" gradientUnits="userSpaceOnUse" gradientTransform="translate(509.534 303.809) scale(311.523 311.949)">
<stop stop-color="#70C5A3"/>
<stop offset="0.4947" stop-color="#0A11AB"/>
<stop offset="1"/>
</radialGradient>
<radialGradient id="paint3_radial_1_2884" cx="0" cy="0" r="1" gradientUnits="userSpaceOnUse" gradientTransform="translate(509.534 303.81) scale(311.524 311.95)">
<stop stop-color="#70C5A3"/>
<stop offset="0.4947" stop-color="#0A11AB"/>
<stop offset="1"/>
</radialGradient>
<radialGradient id="paint4_radial_1_2884" cx="0" cy="0" r="1" gradientUnits="userSpaceOnUse" gradientTransform="translate(509.534 303.809) scale(311.524 311.95)">
<stop stop-color="#70C5A3"/>
<stop offset="0.4947" stop-color="#0A11AB"/>
<stop offset="1"/>
</radialGradient>
<radialGradient id="paint5_radial_1_2884" cx="0" cy="0" r="1" gradientUnits="userSpaceOnUse" gradientTransform="translate(509.534 303.809) scale(311.525 311.951)">
<stop stop-color="#70C5A3"/>
<stop offset="0.4947" stop-color="#0A11AB"/>
<stop offset="1"/>
</radialGradient>
<radialGradient id="paint6_radial_1_2884" cx="0" cy="0" r="1" gradientUnits="userSpaceOnUse" gradientTransform="translate(509.535 303.809) scale(311.524 311.95)">
<stop stop-color="#70C5A3"/>
<stop offset="0.4947" stop-color="#0A11AB"/>
<stop offset="1"/>
</radialGradient>
<radialGradient id="paint7_radial_1_2884" cx="0" cy="0" r="1" gradientUnits="userSpaceOnUse" gradientTransform="translate(509.535 303.809) scale(311.524 311.951)">
<stop stop-color="#70C5A3"/>
<stop offset="0.4947" stop-color="#0A11AB"/>
<stop offset="1"/>
</radialGradient>
<radialGradient id="paint8_radial_1_2884" cx="0" cy="0" r="1" gradientUnits="userSpaceOnUse" gradientTransform="translate(509.534 303.809) scale(311.524 311.95)">
<stop stop-color="#70C5A3"/>
<stop offset="0.4947" stop-color="#0A11AB"/>
<stop offset="1"/>
</radialGradient>
<radialGradient id="paint9_radial_1_2884" cx="0" cy="0" r="1" gradientUnits="userSpaceOnUse" gradientTransform="translate(509.535 303.809) scale(311.524 311.95)">
<stop stop-color="#70C5A3"/>
<stop offset="0.4947" stop-color="#0A11AB"/>
<stop offset="1"/>
</radialGradient>
<radialGradient id="paint10_radial_1_2884" cx="0" cy="0" r="1" gradientUnits="userSpaceOnUse" gradientTransform="translate(509.531 303.809) scale(311.524 311.95)">
<stop stop-color="#70C5A3"/>
<stop offset="0.4947" stop-color="#0A11AB"/>
<stop offset="1"/>
</radialGradient>
<radialGradient id="paint11_radial_1_2884" cx="0" cy="0" r="1" gradientUnits="userSpaceOnUse" gradientTransform="translate(509.536 303.809) scale(311.524 311.95)">
<stop stop-color="#70C5A3"/>
<stop offset="0.4947" stop-color="#0A11AB"/>
<stop offset="1"/>
</radialGradient>
<radialGradient id="paint12_radial_1_2884" cx="0" cy="0" r="1" gradientUnits="userSpaceOnUse" gradientTransform="translate(509.533 303.809) scale(311.524 311.95)">
<stop stop-color="#70C5A3"/>
<stop offset="0.4947" stop-color="#0A11AB"/>
<stop offset="1"/>
</radialGradient>
<radialGradient id="paint13_radial_1_2884" cx="0" cy="0" r="1" gradientUnits="userSpaceOnUse" gradientTransform="translate(509.533 303.809) scale(311.524 311.95)">
<stop stop-color="#70C5A3"/>
<stop offset="0.4947" stop-color="#0A11AB"/>
<stop offset="1"/>
</radialGradient>
<radialGradient id="paint14_radial_1_2884" cx="0" cy="0" r="1" gradientUnits="userSpaceOnUse" gradientTransform="translate(509.535 303.808) scale(311.524 311.95)">
<stop stop-color="#70C5A3"/>
<stop offset="0.4947" stop-color="#0A11AB"/>
<stop offset="1"/>
</radialGradient>
<radialGradient id="paint15_radial_1_2884" cx="0" cy="0" r="1" gradientUnits="userSpaceOnUse" gradientTransform="translate(509.534 303.809) scale(311.524 311.95)">
<stop stop-color="#70C5A3"/>
<stop offset="0.6481" stop-color="#0A11AB"/>
<stop offset="1"/>
</radialGradient>
<radialGradient id="paint16_radial_1_2884" cx="0" cy="0" r="1" gradientUnits="userSpaceOnUse" gradientTransform="translate(509.532 303.809) scale(311.524 311.95)">
<stop stop-color="#70C5A3"/>
<stop offset="0.6481" stop-color="#0A11AB"/>
<stop offset="1"/>
</radialGradient>
<radialGradient id="paint17_radial_1_2884" cx="0" cy="0" r="1" gradientUnits="userSpaceOnUse" gradientTransform="translate(509.535 303.809) scale(311.524 311.95)">
<stop stop-color="#70C5A3"/>
<stop offset="0.6481" stop-color="#0A11AB"/>
<stop offset="1"/>
</radialGradient>
<radialGradient id="paint18_radial_1_2884" cx="0" cy="0" r="1" gradientUnits="userSpaceOnUse" gradientTransform="translate(509.531 303.809) scale(311.524 311.95)">
<stop stop-color="#70C5A3"/>
<stop offset="0.6481" stop-color="#0A11AB"/>
<stop offset="1"/>
</radialGradient>
<radialGradient id="paint19_radial_1_2884" cx="0" cy="0" r="1" gradientUnits="userSpaceOnUse" gradientTransform="translate(509.534 303.809) scale(311.524 311.95)">
<stop stop-color="#70C5A3"/>
<stop offset="0.6481" stop-color="#0A11AB"/>
<stop offset="1"/>
</radialGradient>
<radialGradient id="paint20_radial_1_2884" cx="0" cy="0" r="1" gradientUnits="userSpaceOnUse" gradientTransform="translate(509.534 303.809) scale(311.524 311.95)">
<stop stop-color="#70C5A3"/>
<stop offset="0.6481" stop-color="#0A11AB"/>
<stop offset="1"/>
</radialGradient>
<radialGradient id="paint21_radial_1_2884" cx="0" cy="0" r="1" gradientUnits="userSpaceOnUse" gradientTransform="translate(509.534 303.809) scale(311.524 311.95)">
<stop stop-color="#70C5A3"/>
<stop offset="0.6481" stop-color="#0A11AB"/>
<stop offset="1"/>
</radialGradient>
<radialGradient id="paint22_radial_1_2884" cx="0" cy="0" r="1" gradientUnits="userSpaceOnUse" gradientTransform="translate(509.532 303.809) scale(311.524 311.95)">
<stop stop-color="#70C5A3"/>
<stop offset="0.6481" stop-color="#0A11AB"/>
<stop offset="1"/>
</radialGradient>
<radialGradient id="paint23_radial_1_2884" cx="0" cy="0" r="1" gradientUnits="userSpaceOnUse" gradientTransform="translate(509.533 303.809) scale(311.522 311.949)">
<stop stop-color="#70C5A3"/>
<stop offset="0.6481" stop-color="#0A11AB"/>
<stop offset="1"/>
</radialGradient>
<radialGradient id="paint24_radial_1_2884" cx="0" cy="0" r="1" gradientUnits="userSpaceOnUse" gradientTransform="translate(509.534 303.809) scale(311.524 311.95)">
<stop stop-color="#70C5A3"/>
<stop offset="0.6481" stop-color="#0A11AB"/>
<stop offset="1"/>
</radialGradient>
<radialGradient id="paint25_radial_1_2884" cx="0" cy="0" r="1" gradientUnits="userSpaceOnUse" gradientTransform="translate(509.532 303.809) scale(311.524 311.95)">
<stop stop-color="#70C5A3"/>
<stop offset="0.6481" stop-color="#0A11AB"/>
<stop offset="1"/>
</radialGradient>
<radialGradient id="paint26_radial_1_2884" cx="0" cy="0" r="1" gradientUnits="userSpaceOnUse" gradientTransform="translate(509.532 303.809) scale(311.524 311.95)">
<stop stop-color="#70C5A3"/>
<stop offset="0.6481" stop-color="#0A11AB"/>
<stop offset="1"/>
</radialGradient>
<radialGradient id="paint27_radial_1_2884" cx="0" cy="0" r="1" gradientUnits="userSpaceOnUse" gradientTransform="translate(509.534 303.809) scale(311.524 311.95)">
<stop stop-color="#70C5A3"/>
<stop offset="0.6481" stop-color="#0A11AB"/>
<stop offset="1"/>
</radialGradient>
</defs>
</svg>
