<svg width="24" height="24" viewBox="0 0 24 24" fill="none" xmlns="http://www.w3.org/2000/svg">
<path d="M16.2568 5C12.5395 5 9.51514 8.14015 9.51514 11.9997C9.51514 15.8593 12.5395 18.9994 16.2568 18.9994C19.9741 18.9994 22.9988 15.8593 22.9988 11.9997C22.9988 8.14015 19.9744 5 16.2568 5ZM15.0373 15.0305C14.8738 14.9987 14.4295 14.8785 14.2904 14.8281V14.4816V13.8831V13.5586C14.4271 13.6433 14.9069 13.8397 15.0548 13.8947C15.3299 13.9968 15.6078 14.0479 15.8885 14.0479C15.9074 14.0479 15.9255 14.0479 15.944 14.0472C16.0852 14.0443 16.2104 14.0291 16.3196 14.0019C16.4151 13.978 16.4984 13.9469 16.5692 13.9081C16.5895 13.8973 16.6086 13.8857 16.6268 13.8737C16.7091 13.8191 16.7704 13.7546 16.8109 13.6804C16.8513 13.6062 16.8719 13.5254 16.8719 13.4389C16.8719 13.3212 16.8395 13.2166 16.7746 13.1239C16.722 13.0486 16.6536 12.978 16.5692 12.9121C16.5501 12.8965 16.5302 12.882 16.5096 12.8676C16.3977 12.7894 16.2648 12.7137 16.111 12.6409C16.0566 12.6152 16.0008 12.5895 15.944 12.5631C15.839 12.5156 15.7285 12.4671 15.6134 12.4179C15.1604 12.222 14.8222 11.9827 14.5997 11.6999C14.3772 11.4172 14.266 11.0754 14.266 10.6753C14.266 10.3617 14.327 10.092 14.4484 9.86645C14.5697 9.64125 14.7347 9.45551 14.9435 9.30996C15.1528 9.16441 15.3948 9.05725 15.6699 8.98845C15.7595 8.96601 15.8509 8.94754 15.944 8.9327V8.48121H16.5692V8.88563C16.8611 8.88671 17.1202 8.9059 17.3472 8.94247C17.456 8.96021 17.898 8.97321 17.9995 9L17.9923 9.4461V9.97434V10.0982C17.9923 10.0982 17.4421 10.0906 17.3207 10.0558C17.1994 10.021 17.0787 9.99498 16.9584 9.97796C16.8384 9.96131 16.7248 9.95298 16.617 9.95298C16.601 9.95298 16.5849 9.95298 16.5692 9.95371C16.4392 9.95624 16.3203 9.97072 16.2122 9.99715C16.1093 10.0218 16.0197 10.0554 15.944 10.0982C15.9304 10.1054 15.9175 10.113 15.9046 10.1213C15.8212 10.1746 15.7564 10.2379 15.7107 10.3121C15.6647 10.3864 15.6417 10.4696 15.6417 10.5623C15.6417 10.6633 15.6675 10.7531 15.7184 10.8331C15.77 10.9128 15.8425 10.9888 15.937 11.0602C15.9395 11.0616 15.9416 11.0638 15.944 11.0656C16.0367 11.1347 16.1494 11.2035 16.2808 11.2702C16.3694 11.3154 16.4653 11.3614 16.5692 11.4085C16.6236 11.4327 16.6798 11.4573 16.738 11.4827C16.9703 11.5837 17.1788 11.6905 17.3633 11.8042C17.5477 11.9175 17.7064 12.0457 17.8385 12.1883C17.9704 12.3314 18.0715 12.4943 18.1419 12.6778C18.212 12.8614 18.2472 13.0747 18.2472 13.3183C18.2472 13.6543 18.1859 13.9364 18.0631 14.1645C17.9407 14.3926 17.774 14.5779 17.5634 14.7188C17.3531 14.8603 17.1083 14.9621 16.8294 15.0236C16.7443 15.0421 16.6578 15.0584 16.5696 15.0711V15.5204H15.9443V15.116C15.6263 15.1141 15.324 15.0863 15.0373 15.0305ZM16.1804 17.856H15.9583V17.0769H16.1804C18.8767 17.0769 21.0701 14.7995 21.0701 12.0001C21.0701 9.20062 18.8767 6.92326 16.1804 6.92326H15.9583V6.14375H16.1804C19.2906 6.14375 21.8208 8.77086 21.8208 12.0001C21.8208 15.2293 19.2902 17.856 16.1804 17.856Z" fill="#112D44"/>
<path d="M8.77713 6.54925H10.2156C10.716 5.95186 11.2966 5.4294 11.9403 5H8.77713C8.36495 5 8.03088 5.34685 8.03088 5.77481C8.03088 6.20276 8.36495 6.54925 8.77713 6.54925Z" fill="#112D44"/>
<path d="M9.17751 8.11328H4.96158C4.5494 8.11328 4.21533 8.46013 4.21533 8.88809C4.21533 9.31604 4.5494 9.6629 4.96158 9.6629H8.5704C8.72313 9.12126 8.92713 8.60279 9.17751 8.11328Z" fill="#112D44"/>
<path d="M8.24763 11.9994C8.24763 11.738 8.26088 11.4799 8.28355 11.2246H1.74624C1.33407 11.2246 1 11.5715 1 11.9994C1 12.4274 1.33407 12.7742 1.74624 12.7742H8.28355C8.26053 12.519 8.24763 12.2608 8.24763 11.9994Z" fill="#112D44"/>
<path d="M8.5745 14.3379H4.89908C4.4869 14.3379 4.15283 14.6847 4.15283 15.1127C4.15283 15.5407 4.4869 15.8875 4.89908 15.8875H9.18161C8.93123 15.3976 8.72724 14.8792 8.5745 14.3379Z" fill="#112D44"/>
<path d="M10.2119 17.4512H8.74038C8.32821 17.4512 7.99414 17.798 7.99414 18.226C7.99414 18.6539 8.32821 19.0008 8.74038 19.0008H11.937C11.293 18.571 10.7124 18.0486 10.2119 17.4512Z" fill="#112D44"/>
</svg>
