<svg xmlns="http://www.w3.org/2000/svg" width="48" height="48" viewBox="0 0 48 48" fill="none">
    <rect width="48" height="48" rx="24" fill="#104156"/>
    <path d="M26.7 23.5C26.7 24.1329 26.5123 24.7516 26.1607 25.2778C25.8091 25.8041 25.3093 26.2142 24.7246 26.4564C24.1399 26.6986 23.4965 26.762 22.8757 26.6385C22.255 26.515 21.6848 26.2103 21.2373 25.7627C20.7897 25.3152 20.485 24.745 20.3615 24.1243C20.238 23.5035 20.3014 22.8601 20.5436 22.2754C20.7858 21.6907 21.1959 21.1909 21.7222 20.8393C22.2484 20.4877 22.8671 20.3 23.5 20.3C24.3484 20.301 25.1618 20.6384 25.7617 21.2383C26.3616 21.8382 26.699 22.6516 26.7 23.5ZM33.5 19.1V27.9C33.4983 29.3847 32.9078 30.8081 31.8579 31.8579C30.8081 32.9078 29.3847 33.4983 27.9 33.5H19.1C17.6153 33.4983 16.1919 32.9078 15.1421 31.8579C14.0922 30.8081 13.5017 29.3847 13.5 27.9V19.1C13.5017 17.6153 14.0922 16.1919 15.1421 15.1421C16.1919 14.0922 17.6153 13.5017 19.1 13.5H27.9C29.3847 13.5017 30.8081 14.0922 31.8579 15.1421C32.9078 16.1919 33.4983 17.6153 33.5 19.1ZM28.3 23.5C28.3 22.5506 28.0185 21.6226 27.4911 20.8333C26.9636 20.0439 26.214 19.4287 25.3369 19.0654C24.4598 18.7021 23.4947 18.607 22.5636 18.7922C21.6325 18.9774 20.7772 19.4346 20.1059 20.1059C19.4346 20.7772 18.9774 21.6325 18.7922 22.5636C18.607 23.4947 18.7021 24.4598 19.0654 25.3369C19.4287 26.214 20.0439 26.9636 20.8333 27.4911C21.6226 28.0185 22.5506 28.3 23.5 28.3C24.7726 28.2986 25.9927 27.7924 26.8925 26.8925C27.7924 25.9927 28.2986 24.7726 28.3 23.5ZM29.9 18.3C29.9 18.0627 29.8296 17.8307 29.6978 17.6333C29.5659 17.436 29.3785 17.2822 29.1592 17.1913C28.9399 17.1005 28.6987 17.0768 28.4659 17.1231C28.2331 17.1694 28.0193 17.2836 27.8515 17.4515C27.6837 17.6193 27.5694 17.8331 27.5231 18.0659C27.4768 18.2987 27.5005 18.5399 27.5913 18.7592C27.6822 18.9785 27.836 19.1659 28.0333 19.2978C28.2307 19.4296 28.4627 19.5 28.7 19.5C29.0183 19.5 29.3235 19.3736 29.5485 19.1485C29.7736 18.9235 29.9 18.6183 29.9 18.3Z" fill="#06E7ED"/>
  </svg>