<svg width="650" height="526" viewBox="0 0 650 526" fill="none" xmlns="http://www.w3.org/2000/svg">
<g clip-path="url(#clip0_2984_11343)">
<rect width="650" height="526" fill="#112D44"/>
<rect x="0.5" y="324.5" width="649" height="201" rx="19.5" fill="#275276" stroke="#E0E0E0"/>
<rect x="69" y="415" width="43" height="10" rx="5" fill="#67ACE4"/>
<rect x="69" y="435" width="57" height="10" rx="5" fill="#E0E0E0"/>
<rect x="131" y="435" width="67" height="10" rx="5" fill="#67ACE4"/>
<rect x="180" y="455" width="83" height="10" rx="5" fill="#67ACE4"/>
<rect x="69" y="475" width="170" height="10" rx="5" fill="#67ACE4"/>
<rect x="203" y="435" width="113" height="10" rx="5" fill="#67ACE4"/>
<rect x="117" y="415" width="143" height="10" rx="5" fill="#E0E0E0"/>
<rect x="69" y="455" width="106" height="10" rx="5" fill="#E0E0E0"/>
<rect x="244" y="475" width="56" height="10" rx="5" fill="#E0E0E0"/>
<rect x="305" y="475" width="142" height="10" rx="5" fill="#E0E0E0"/>
<line y1="391.5" x2="650" y2="391.5" stroke="#E0E0E0"/>
<path d="M46.2 378.2C45.2 378.2 44.3133 378 43.54 377.6C42.7667 377.187 42.1667 376.607 41.74 375.86C41.3267 375.113 41.12 374.253 41.12 373.28V368.72C41.12 367.76 41.3333 366.913 41.76 366.18C42.1867 365.433 42.78 364.86 43.54 364.46C44.3133 364.047 45.2 363.84 46.2 363.84C47.2133 363.84 48.1 364.047 48.86 364.46C49.6333 364.86 50.2333 365.433 50.66 366.18C51.0867 366.913 51.3 367.76 51.3 368.72V373.28C51.3 374.253 51.0867 375.113 50.66 375.86C50.2333 376.607 49.6333 377.187 48.86 377.6C48.1 378 47.2133 378.2 46.2 378.2ZM46.2 376.2C47.04 376.2 47.7133 375.94 48.22 375.42C48.7267 374.9 48.98 374.213 48.98 373.36V368.7C48.98 367.833 48.7267 367.14 48.22 366.62C47.7133 366.1 47.04 365.84 46.2 365.84C45.3733 365.84 44.7067 366.1 44.2 366.62C43.6933 367.14 43.44 367.833 43.44 368.7V373.36C43.44 374.213 43.6933 374.9 44.2 375.42C44.7067 375.94 45.3733 376.2 46.2 376.2ZM59.7019 368.02C59.7019 367.953 59.7219 367.9 59.7619 367.86C59.8152 367.807 59.8752 367.78 59.9419 367.78H61.7619C61.8285 367.78 61.8819 367.807 61.9219 367.86C61.9752 367.9 62.0019 367.953 62.0019 368.02V377.76C62.0019 377.827 61.9752 377.887 61.9219 377.94C61.8819 377.98 61.8285 378 61.7619 378H59.9419C59.8752 378 59.8152 377.98 59.7619 377.94C59.7219 377.887 59.7019 377.827 59.7019 377.76V377.12C59.7019 377.08 59.6885 377.053 59.6619 377.04C59.6352 377.027 59.6085 377.04 59.5819 377.08C59.0352 377.787 58.2152 378.14 57.1219 378.14C56.1085 378.14 55.2552 377.847 54.5619 377.26C53.8819 376.673 53.5419 375.84 53.5419 374.76V368.02C53.5419 367.953 53.5619 367.9 53.6019 367.86C53.6552 367.807 53.7152 367.78 53.7819 367.78H55.6219C55.6885 367.78 55.7419 367.807 55.7819 367.86C55.8352 367.9 55.8619 367.953 55.8619 368.02V374.1C55.8619 374.727 56.0219 375.227 56.3419 375.6C56.6752 375.973 57.1352 376.16 57.7219 376.16C58.3219 376.16 58.8019 375.973 59.1619 375.6C59.5219 375.227 59.7019 374.727 59.7019 374.1V368.02ZM69.9022 369.42C69.9022 369.487 69.8755 369.547 69.8222 369.6C69.7822 369.64 69.7289 369.66 69.6622 369.66H67.6222C67.5555 369.66 67.5222 369.693 67.5222 369.76V374.58C67.5222 375.087 67.6289 375.453 67.8422 375.68C68.0689 375.907 68.4222 376.02 68.9022 376.02H69.5022C69.5689 376.02 69.6222 376.047 69.6622 376.1C69.7155 376.14 69.7422 376.193 69.7422 376.26V377.76C69.7422 377.907 69.6622 377.993 69.5022 378.02L68.4622 378.04C67.4089 378.04 66.6222 377.86 66.1022 377.5C65.5822 377.14 65.3155 376.46 65.3022 375.46V369.76C65.3022 369.693 65.2689 369.66 65.2022 369.66H64.0622C63.9955 369.66 63.9355 369.64 63.8822 369.6C63.8422 369.547 63.8222 369.487 63.8222 369.42V368.02C63.8222 367.953 63.8422 367.9 63.8822 367.86C63.9355 367.807 63.9955 367.78 64.0622 367.78H65.2022C65.2689 367.78 65.3022 367.747 65.3022 367.68V365.34C65.3022 365.273 65.3222 365.22 65.3622 365.18C65.4155 365.127 65.4755 365.1 65.5422 365.1H67.2822C67.3489 365.1 67.4022 365.127 67.4422 365.18C67.4955 365.22 67.5222 365.273 67.5222 365.34V367.68C67.5222 367.747 67.5555 367.78 67.6222 367.78H69.6622C69.7289 367.78 69.7822 367.807 69.8222 367.86C69.8755 367.9 69.9022 367.953 69.9022 368.02V369.42ZM80.6227 370.42C80.8627 371.1 80.9827 371.933 80.9827 372.92C80.9827 373.867 80.8693 374.68 80.6427 375.36C80.3493 376.24 79.876 376.927 79.2227 377.42C78.5827 377.913 77.7693 378.16 76.7827 378.16C75.836 378.16 75.076 377.82 74.5027 377.14C74.476 377.113 74.4493 377.107 74.4227 377.12C74.396 377.133 74.3827 377.16 74.3827 377.2V381.54C74.3827 381.607 74.356 381.66 74.3027 381.7C74.2627 381.753 74.2093 381.78 74.1427 381.78H72.3027C72.236 381.78 72.176 381.753 72.1227 381.7C72.0827 381.66 72.0627 381.607 72.0627 381.54V368.02C72.0627 367.953 72.0827 367.9 72.1227 367.86C72.176 367.807 72.236 367.78 72.3027 367.78H74.1427C74.2093 367.78 74.2627 367.807 74.3027 367.86C74.356 367.9 74.3827 367.953 74.3827 368.02V368.62C74.3827 368.66 74.396 368.687 74.4227 368.7C74.4493 368.713 74.476 368.7 74.5027 368.66C75.0893 367.967 75.856 367.62 76.8027 367.62C77.7493 367.62 78.5493 367.867 79.2027 368.36C79.856 368.853 80.3293 369.54 80.6227 370.42ZM78.0227 375.32C78.4227 374.707 78.6227 373.893 78.6227 372.88C78.6227 371.907 78.4627 371.14 78.1427 370.58C77.7693 369.927 77.2027 369.6 76.4427 369.6C75.7493 369.6 75.2293 369.92 74.8827 370.56C74.576 371.08 74.4227 371.853 74.4227 372.88C74.4227 373.933 74.5893 374.733 74.9227 375.28C75.2693 375.867 75.7693 376.16 76.4227 376.16C77.1293 376.16 77.6627 375.88 78.0227 375.32ZM89.2722 368.02C89.2722 367.953 89.2922 367.9 89.3322 367.86C89.3855 367.807 89.4455 367.78 89.5122 367.78H91.3322C91.3989 367.78 91.4522 367.807 91.4922 367.86C91.5455 367.9 91.5722 367.953 91.5722 368.02V377.76C91.5722 377.827 91.5455 377.887 91.4922 377.94C91.4522 377.98 91.3989 378 91.3322 378H89.5122C89.4455 378 89.3855 377.98 89.3322 377.94C89.2922 377.887 89.2722 377.827 89.2722 377.76V377.12C89.2722 377.08 89.2589 377.053 89.2322 377.04C89.2055 377.027 89.1789 377.04 89.1522 377.08C88.6055 377.787 87.7855 378.14 86.6922 378.14C85.6789 378.14 84.8255 377.847 84.1322 377.26C83.4522 376.673 83.1122 375.84 83.1122 374.76V368.02C83.1122 367.953 83.1322 367.9 83.1722 367.86C83.2255 367.807 83.2855 367.78 83.3522 367.78H85.1922C85.2589 367.78 85.3122 367.807 85.3522 367.86C85.4055 367.9 85.4322 367.953 85.4322 368.02V374.1C85.4322 374.727 85.5922 375.227 85.9122 375.6C86.2455 375.973 86.7055 376.16 87.2922 376.16C87.8922 376.16 88.3722 375.973 88.7322 375.6C89.0922 375.227 89.2722 374.727 89.2722 374.1V368.02ZM99.4725 369.42C99.4725 369.487 99.4458 369.547 99.3925 369.6C99.3525 369.64 99.2992 369.66 99.2325 369.66H97.1925C97.1258 369.66 97.0925 369.693 97.0925 369.76V374.58C97.0925 375.087 97.1992 375.453 97.4125 375.68C97.6392 375.907 97.9925 376.02 98.4725 376.02H99.0725C99.1392 376.02 99.1925 376.047 99.2325 376.1C99.2858 376.14 99.3125 376.193 99.3125 376.26V377.76C99.3125 377.907 99.2325 377.993 99.0725 378.02L98.0325 378.04C96.9792 378.04 96.1925 377.86 95.6725 377.5C95.1525 377.14 94.8858 376.46 94.8725 375.46V369.76C94.8725 369.693 94.8392 369.66 94.7725 369.66H93.6325C93.5658 369.66 93.5058 369.64 93.4525 369.6C93.4125 369.547 93.3925 369.487 93.3925 369.42V368.02C93.3925 367.953 93.4125 367.9 93.4525 367.86C93.5058 367.807 93.5658 367.78 93.6325 367.78H94.7725C94.8392 367.78 94.8725 367.747 94.8725 367.68V365.34C94.8725 365.273 94.8925 365.22 94.9325 365.18C94.9858 365.127 95.0458 365.1 95.1125 365.1H96.8525C96.9192 365.1 96.9725 365.127 97.0125 365.18C97.0658 365.22 97.0925 365.273 97.0925 365.34V367.68C97.0925 367.747 97.1258 367.78 97.1925 367.78H99.2325C99.2992 367.78 99.3525 367.807 99.3925 367.86C99.4458 367.9 99.4725 367.953 99.4725 368.02V369.42Z" fill="#07E1E8"/>
<rect x="1" y="1" width="648" height="351" rx="19" fill="#112D44" stroke="#07E1E8" stroke-width="2"/>
<mask id="mask0_2984_11343" style="mask-type:alpha" maskUnits="userSpaceOnUse" x="37" y="53" width="9" height="272">
<path d="M38.6 53.03C38.6533 53.01 38.7033 53 38.75 53H39.71C39.7433 53 39.77 53.0133 39.79 53.04C39.8167 53.06 39.83 53.0867 39.83 53.12V59.88C39.83 59.9133 39.8167 59.9433 39.79 59.97C39.77 59.99 39.7433 60 39.71 60H38.79C38.7567 60 38.7267 59.99 38.7 59.97C38.68 59.9433 38.67 59.9133 38.67 59.88V54.2C38.67 54.1867 38.6633 54.1767 38.65 54.17C38.6367 54.1567 38.6233 54.1533 38.61 54.16L37.61 54.47C37.5967 54.4767 37.58 54.48 37.56 54.48C37.5333 54.48 37.51 54.47 37.49 54.45C37.4767 54.43 37.47 54.4033 37.47 54.37L37.44 53.71C37.44 53.6433 37.4667 53.5967 37.52 53.57L38.6 53.03Z" fill="#06E7ED"/>
<path d="M39.05 80.94C39.0367 80.9533 39.03 80.9667 39.03 80.98C39.0367 80.9933 39.05 81 39.07 81H41.92C41.9533 81 41.98 81.0133 42 81.04C42.0267 81.06 42.04 81.0867 42.04 81.12V81.88C42.04 81.9133 42.0267 81.9433 42 81.97C41.98 81.99 41.9533 82 41.92 82H37.62C37.5867 82 37.5567 81.99 37.53 81.97C37.51 81.9433 37.5 81.9133 37.5 81.88V81.16C37.5 81.1 37.52 81.05 37.56 81.01C38.0667 80.47 38.6533 79.8067 39.32 79.02L39.79 78.47C40.4033 77.7567 40.71 77.2167 40.71 76.85C40.71 76.5767 40.6133 76.3533 40.42 76.18C40.2267 76.0067 39.9767 75.92 39.67 75.92C39.3633 75.92 39.1133 76.0067 38.92 76.18C38.7333 76.3533 38.64 76.5833 38.64 76.87V77.13C38.64 77.1633 38.6267 77.1933 38.6 77.22C38.58 77.24 38.5533 77.25 38.52 77.25H37.59C37.5567 77.25 37.5267 77.24 37.5 77.22C37.48 77.1933 37.47 77.1633 37.47 77.13V76.7C37.4833 76.34 37.5867 76.0267 37.78 75.76C37.9733 75.4933 38.2333 75.2867 38.56 75.14C38.8933 74.9933 39.2633 74.92 39.67 74.92C40.1167 74.92 40.5067 75.0033 40.84 75.17C41.1733 75.3367 41.43 75.5667 41.61 75.86C41.79 76.1467 41.88 76.47 41.88 76.83C41.88 77.3767 41.59 78.0067 41.01 78.72C40.69 79.12 40.1633 79.72 39.43 80.52L39.05 80.94Z" fill="#06E7ED"/>
<path d="M41.6 100.67C41.7333 100.99 41.8 101.357 41.8 101.77C41.8 102.143 41.7433 102.473 41.63 102.76C41.4767 103.18 41.2233 103.507 40.87 103.74C40.5167 103.967 40.09 104.08 39.59 104.08C39.0967 104.08 38.6667 103.957 38.3 103.71C37.94 103.457 37.6833 103.117 37.53 102.69C37.45 102.483 37.4033 102.213 37.39 101.88C37.39 101.8 37.43 101.76 37.51 101.76H38.44C38.52 101.76 38.56 101.8 38.56 101.88C38.5733 102.093 38.6067 102.263 38.66 102.39C38.72 102.603 38.83 102.773 38.99 102.9C39.1567 103.02 39.3567 103.08 39.59 103.08C40.03 103.08 40.3333 102.88 40.5 102.48C40.5867 102.287 40.63 102.037 40.63 101.73C40.63 101.39 40.58 101.11 40.48 100.89C40.3067 100.517 40.0067 100.33 39.58 100.33C39.4667 100.33 39.3133 100.397 39.12 100.53C39.0933 100.543 39.07 100.55 39.05 100.55C39.0167 100.55 38.9833 100.53 38.95 100.49L38.49 99.85C38.47 99.8167 38.46 99.79 38.46 99.77C38.46 99.7367 38.4733 99.7067 38.5 99.68L40.15 98.06C40.1633 98.0467 40.1667 98.0333 40.16 98.02C40.1533 98.0067 40.14 98 40.12 98H37.62C37.5867 98 37.5567 97.99 37.53 97.97C37.51 97.9433 37.5 97.9133 37.5 97.88V97.12C37.5 97.0867 37.51 97.06 37.53 97.04C37.5567 97.0133 37.5867 97 37.62 97H41.61C41.6433 97 41.67 97.0133 41.69 97.04C41.7167 97.06 41.73 97.0867 41.73 97.12V97.99C41.73 98.05 41.71 98.1 41.67 98.14L40.24 99.58C40.2133 99.6067 40.2267 99.6267 40.28 99.64C40.9 99.7267 41.34 100.07 41.6 100.67Z" fill="#06E7ED"/>
<path d="M42.22 123.12C42.2533 123.12 42.28 123.133 42.3 123.16C42.3267 123.18 42.34 123.207 42.34 123.24V124.04C42.34 124.073 42.3267 124.103 42.3 124.13C42.28 124.15 42.2533 124.16 42.22 124.16H41.8C41.7667 124.16 41.75 124.177 41.75 124.21V125.88C41.75 125.913 41.7367 125.943 41.71 125.97C41.69 125.99 41.6633 126 41.63 126H40.71C40.6767 126 40.6467 125.99 40.62 125.97C40.6 125.943 40.59 125.913 40.59 125.88V124.21C40.59 124.177 40.5733 124.16 40.54 124.16H37.5C37.4667 124.16 37.4367 124.15 37.41 124.13C37.39 124.103 37.38 124.073 37.38 124.04V123.4C37.38 123.36 37.39 123.31 37.41 123.25L39.3 119.09C39.3267 119.03 39.3733 119 39.44 119H40.42C40.4667 119 40.4967 119.013 40.51 119.04C40.53 119.06 40.53 119.093 40.51 119.14L38.73 123.06C38.7233 123.073 38.7233 123.087 38.73 123.1C38.7367 123.113 38.7467 123.12 38.76 123.12H40.54C40.5733 123.12 40.59 123.103 40.59 123.07V121.71C40.59 121.677 40.6 121.65 40.62 121.63C40.6467 121.603 40.6767 121.59 40.71 121.59H41.63C41.6633 121.59 41.69 121.603 41.71 121.63C41.7367 121.65 41.75 121.677 41.75 121.71V123.07C41.75 123.103 41.7667 123.12 41.8 123.12H42.22Z" fill="#06E7ED"/>
<path d="M41.78 144.86C41.8667 145.16 41.91 145.47 41.91 145.79C41.91 146.103 41.8667 146.4 41.78 146.68C41.64 147.107 41.3833 147.447 41.01 147.7C40.6367 147.947 40.2 148.07 39.7 148.07C39.2067 148.07 38.7767 147.95 38.41 147.71C38.0433 147.463 37.7867 147.133 37.64 146.72C37.5867 146.573 37.5433 146.407 37.51 146.22V146.2C37.51 146.127 37.55 146.09 37.63 146.09H38.58C38.6467 146.09 38.69 146.127 38.71 146.2C38.7167 146.24 38.7333 146.3 38.76 146.38C38.8333 146.6 38.95 146.77 39.11 146.89C39.27 147.01 39.4633 147.07 39.69 147.07C39.9233 147.07 40.1233 147.007 40.29 146.88C40.4567 146.747 40.5733 146.567 40.64 146.34C40.7 146.18 40.73 145.997 40.73 145.79C40.73 145.597 40.7033 145.407 40.65 145.22C40.6033 145 40.4967 144.833 40.33 144.72C40.1633 144.6 39.96 144.54 39.72 144.54C39.4933 144.54 39.2867 144.593 39.1 144.7C38.92 144.8 38.8033 144.933 38.75 145.1C38.7233 145.167 38.6767 145.2 38.61 145.2H37.64C37.6067 145.2 37.5767 145.19 37.55 145.17C37.53 145.143 37.52 145.113 37.52 145.08V141.12C37.52 141.087 37.53 141.06 37.55 141.04C37.5767 141.013 37.6067 141 37.64 141H41.53C41.5633 141 41.59 141.013 41.61 141.04C41.6367 141.06 41.65 141.087 41.65 141.12V141.88C41.65 141.913 41.6367 141.943 41.61 141.97C41.59 141.99 41.5633 142 41.53 142H38.73C38.6967 142 38.68 142.017 38.68 142.05L38.67 143.85C38.67 143.877 38.6767 143.893 38.69 143.9C38.7033 143.9 38.7167 143.893 38.73 143.88C39.0433 143.647 39.42 143.53 39.86 143.53C40.3267 143.53 40.73 143.65 41.07 143.89C41.4167 144.123 41.6533 144.447 41.78 144.86Z" fill="#06E7ED"/>
<path d="M41.63 166.55C41.81 166.89 41.9 167.303 41.9 167.79C41.9 168.197 41.8333 168.553 41.7 168.86C41.54 169.247 41.2867 169.547 40.94 169.76C40.6 169.967 40.19 170.07 39.71 170.07C39.21 170.07 38.7833 169.957 38.43 169.73C38.0767 169.497 37.8233 169.173 37.67 168.76C37.5633 168.48 37.51 168.153 37.51 167.78V164.73C37.51 164.37 37.6 164.053 37.78 163.78C37.96 163.507 38.21 163.297 38.53 163.15C38.8567 162.997 39.23 162.92 39.65 162.92C40.0567 162.92 40.4167 162.993 40.73 163.14C41.05 163.287 41.2967 163.493 41.47 163.76C41.65 164.027 41.74 164.333 41.74 164.68V164.9C41.74 164.933 41.7267 164.963 41.7 164.99C41.68 165.01 41.6533 165.02 41.62 165.02H40.7C40.6667 165.02 40.6367 165.01 40.61 164.99C40.59 164.963 40.58 164.933 40.58 164.9V164.83C40.58 164.563 40.49 164.347 40.31 164.18C40.1367 164.007 39.9133 163.92 39.64 163.92C39.36 163.92 39.1267 164.01 38.94 164.19C38.76 164.363 38.67 164.59 38.67 164.87V165.96C38.67 165.98 38.6767 165.993 38.69 166C38.7033 166.007 38.7167 166.003 38.73 165.99C39.01 165.717 39.3967 165.58 39.89 165.58C40.2833 165.58 40.6267 165.663 40.92 165.83C41.22 165.997 41.4567 166.237 41.63 166.55ZM40.59 168.52C40.69 168.32 40.74 168.083 40.74 167.81C40.74 167.51 40.6833 167.253 40.57 167.04C40.3833 166.72 40.0933 166.56 39.7 166.56C39.2867 166.56 38.9933 166.727 38.82 167.06C38.72 167.26 38.67 167.52 38.67 167.84C38.67 168.113 38.7133 168.337 38.8 168.51C38.96 168.877 39.26 169.06 39.7 169.06C40.12 169.06 40.4167 168.88 40.59 168.52Z" fill="#06E7ED"/>
<path d="M38.35 192C38.25 192 38.2167 191.953 38.25 191.86L40.46 186.06C40.4733 186.02 40.46 186 40.42 186H38.27C38.2367 186 38.22 186.017 38.22 186.05V186.5C38.22 186.533 38.2067 186.563 38.18 186.59C38.16 186.61 38.1333 186.62 38.1 186.62H37.38C37.3467 186.62 37.3167 186.61 37.29 186.59C37.27 186.563 37.26 186.533 37.26 186.5V185.12C37.26 185.087 37.27 185.06 37.29 185.04C37.3167 185.013 37.3467 185 37.38 185H41.59C41.6233 185 41.65 185.013 41.67 185.04C41.6967 185.06 41.71 185.087 41.71 185.12V185.92C41.71 185.96 41.7 186.01 41.68 186.07L39.48 191.9C39.46 191.967 39.4133 192 39.34 192H38.35Z" fill="#06E7ED"/>
<path d="M41.65 210.97C41.7967 211.263 41.87 211.6 41.87 211.98C41.87 212.38 41.7833 212.743 41.61 213.07C41.4367 213.383 41.1833 213.63 40.85 213.81C40.5167 213.99 40.1233 214.08 39.67 214.08C39.2233 214.08 38.8267 213.993 38.48 213.82C38.1333 213.64 37.8733 213.38 37.7 213.04C37.5267 212.727 37.44 212.37 37.44 211.97C37.44 211.61 37.5167 211.27 37.67 210.95C37.8033 210.677 37.9933 210.47 38.24 210.33C38.2733 210.31 38.2767 210.287 38.25 210.26C38.0833 210.14 37.9333 209.973 37.8 209.76C37.6267 209.48 37.54 209.17 37.54 208.83C37.54 208.41 37.6633 208.033 37.91 207.7C38.09 207.44 38.3333 207.24 38.64 207.1C38.9467 206.953 39.29 206.88 39.67 206.88C40.0633 206.88 40.4067 206.953 40.7 207.1C41 207.24 41.24 207.44 41.42 207.7C41.6533 208.04 41.77 208.417 41.77 208.83C41.77 209.197 41.68 209.517 41.5 209.79C41.3733 209.977 41.2267 210.13 41.06 210.25C41.0333 210.277 41.0333 210.3 41.06 210.32C41.3133 210.467 41.51 210.683 41.65 210.97ZM38.81 208.39C38.73 208.563 38.69 208.717 38.69 208.85C38.69 209.077 38.7467 209.28 38.86 209.46C39.02 209.733 39.2867 209.87 39.66 209.87C40.02 209.87 40.2933 209.73 40.48 209.45C40.58 209.303 40.63 209.1 40.63 208.84C40.63 208.693 40.5933 208.54 40.52 208.38C40.4333 208.227 40.3167 208.107 40.17 208.02C40.0233 207.927 39.85 207.88 39.65 207.88C39.4633 207.88 39.2967 207.927 39.15 208.02C39.0033 208.107 38.89 208.23 38.81 208.39ZM40.49 212.67C40.63 212.477 40.7 212.213 40.7 211.88C40.7 211.573 40.6467 211.333 40.54 211.16C40.3733 210.853 40.08 210.7 39.66 210.7C39.2667 210.7 38.98 210.847 38.8 211.14C38.6867 211.32 38.63 211.57 38.63 211.89C38.63 212.197 38.69 212.447 38.81 212.64C38.99 212.933 39.2767 213.08 39.67 213.08C40.0433 213.08 40.3167 212.943 40.49 212.67Z" fill="#06E7ED"/>
<path d="M41.61 230.24C41.7167 230.52 41.77 230.847 41.77 231.22V234.27C41.77 234.63 41.68 234.947 41.5 235.22C41.32 235.493 41.0667 235.707 40.74 235.86C40.42 236.007 40.05 236.08 39.63 236.08C39.2233 236.08 38.86 236.007 38.54 235.86C38.2267 235.713 37.98 235.507 37.8 235.24C37.6267 234.973 37.54 234.667 37.54 234.32V234.1C37.54 234.067 37.55 234.04 37.57 234.02C37.5967 233.993 37.6267 233.98 37.66 233.98H38.58C38.6133 233.98 38.64 233.993 38.66 234.02C38.6867 234.04 38.7 234.067 38.7 234.1V234.17C38.7 234.437 38.7867 234.657 38.96 234.83C39.1333 234.997 39.3567 235.08 39.63 235.08C39.9167 235.08 40.15 234.993 40.33 234.82C40.5167 234.64 40.61 234.41 40.61 234.13V233.03C40.61 233.01 40.6033 232.997 40.59 232.99C40.5767 232.983 40.5633 232.987 40.55 233C40.2633 233.28 39.8733 233.42 39.38 233.42C38.9867 233.42 38.64 233.337 38.34 233.17C38.0467 233.003 37.8167 232.763 37.65 232.45C37.4633 232.117 37.37 231.703 37.37 231.21C37.37 230.803 37.4367 230.447 37.57 230.14C37.73 229.76 37.9833 229.463 38.33 229.25C38.6767 229.037 39.0867 228.93 39.56 228.93C40.06 228.93 40.4867 229.047 40.84 229.28C41.2 229.507 41.4567 229.827 41.61 230.24ZM40.45 231.94C40.5567 231.727 40.61 231.467 40.61 231.16C40.61 230.907 40.5667 230.683 40.48 230.49C40.32 230.123 40.02 229.94 39.58 229.94C39.1533 229.94 38.8533 230.12 38.68 230.48C38.58 230.7 38.53 230.937 38.53 231.19C38.53 231.49 38.59 231.747 38.71 231.96C38.8967 232.28 39.1833 232.44 39.57 232.44C39.9833 232.44 40.2767 232.273 40.45 231.94Z" fill="#06E7ED"/>
<path d="M38.6 251.03C38.6533 251.01 38.7033 251 38.75 251H39.71C39.7433 251 39.77 251.013 39.79 251.04C39.8167 251.06 39.83 251.087 39.83 251.12V257.88C39.83 257.913 39.8167 257.943 39.79 257.97C39.77 257.99 39.7433 258 39.71 258H38.79C38.7567 258 38.7267 257.99 38.7 257.97C38.68 257.943 38.67 257.913 38.67 257.88V252.2C38.67 252.187 38.6633 252.177 38.65 252.17C38.6367 252.157 38.6233 252.153 38.61 252.16L37.61 252.47C37.5967 252.477 37.58 252.48 37.56 252.48C37.5333 252.48 37.51 252.47 37.49 252.45C37.4767 252.43 37.47 252.403 37.47 252.37L37.44 251.71C37.44 251.643 37.4667 251.597 37.52 251.57L38.6 251.03ZM43.3554 258.11C42.6554 258.11 42.0987 257.913 41.6854 257.52C41.2787 257.12 41.0754 256.583 41.0754 255.91V253.09C41.0754 252.423 41.2787 251.897 41.6854 251.51C42.0987 251.117 42.6554 250.92 43.3554 250.92C44.0554 250.92 44.6121 251.117 45.0254 251.51C45.4454 251.897 45.6554 252.423 45.6554 253.09V255.91C45.6554 256.583 45.4454 257.12 45.0254 257.52C44.6121 257.913 44.0554 258.11 43.3554 258.11ZM43.3554 257.1C43.7021 257.1 43.9787 257 44.1854 256.8C44.3921 256.593 44.4954 256.317 44.4954 255.97V253.05C44.4954 252.703 44.3921 252.43 44.1854 252.23C43.9787 252.023 43.7021 251.92 43.3554 251.92C43.0154 251.92 42.7421 252.023 42.5354 252.23C42.3354 252.43 42.2354 252.703 42.2354 253.05V255.97C42.2354 256.317 42.3354 256.593 42.5354 256.8C42.7421 257 43.0154 257.1 43.3554 257.1Z" fill="#06E7ED"/>
<path d="M38.6 273.03C38.6533 273.01 38.7033 273 38.75 273H39.71C39.7433 273 39.77 273.013 39.79 273.04C39.8167 273.06 39.83 273.087 39.83 273.12V279.88C39.83 279.913 39.8167 279.943 39.79 279.97C39.77 279.99 39.7433 280 39.71 280H38.79C38.7567 280 38.7267 279.99 38.7 279.97C38.68 279.943 38.67 279.913 38.67 279.88V274.2C38.67 274.187 38.6633 274.177 38.65 274.17C38.6367 274.157 38.6233 274.153 38.61 274.16L37.61 274.47C37.5967 274.477 37.58 274.48 37.56 274.48C37.5333 274.48 37.51 274.47 37.49 274.45C37.4767 274.43 37.47 274.403 37.47 274.37L37.44 273.71C37.44 273.643 37.4667 273.597 37.52 273.57L38.6 273.03ZM42.184 273.03C42.2373 273.01 42.2873 273 42.334 273H43.294C43.3273 273 43.354 273.013 43.374 273.04C43.4007 273.06 43.414 273.087 43.414 273.12V279.88C43.414 279.913 43.4007 279.943 43.374 279.97C43.354 279.99 43.3273 280 43.294 280H42.374C42.3407 280 42.3107 279.99 42.284 279.97C42.264 279.943 42.254 279.913 42.254 279.88V274.2C42.254 274.187 42.2473 274.177 42.234 274.17C42.2207 274.157 42.2073 274.153 42.194 274.16L41.194 274.47C41.1807 274.477 41.164 274.48 41.144 274.48C41.1173 274.48 41.094 274.47 41.074 274.45C41.0607 274.43 41.054 274.403 41.054 274.37L41.024 273.71C41.024 273.643 41.0507 273.597 41.104 273.57L42.184 273.03Z" fill="#06E7ED"/>
<path d="M38.6 295.03C38.6533 295.01 38.7033 295 38.75 295H39.71C39.7433 295 39.77 295.013 39.79 295.04C39.8167 295.06 39.83 295.087 39.83 295.12V301.88C39.83 301.913 39.8167 301.943 39.79 301.97C39.77 301.99 39.7433 302 39.71 302H38.79C38.7567 302 38.7267 301.99 38.7 301.97C38.68 301.943 38.67 301.913 38.67 301.88V296.2C38.67 296.187 38.6633 296.177 38.65 296.17C38.6367 296.157 38.6233 296.153 38.61 296.16L37.61 296.47C37.5967 296.477 37.58 296.48 37.56 296.48C37.5333 296.48 37.51 296.47 37.49 296.45C37.4767 296.43 37.47 296.403 37.47 296.37L37.44 295.71C37.44 295.643 37.4667 295.597 37.52 295.57L38.6 295.03ZM42.5754 300.94C42.5621 300.953 42.5554 300.967 42.5554 300.98C42.5621 300.993 42.5754 301 42.5954 301H45.4454C45.4787 301 45.5054 301.013 45.5254 301.04C45.5521 301.06 45.5654 301.087 45.5654 301.12V301.88C45.5654 301.913 45.5521 301.943 45.5254 301.97C45.5054 301.99 45.4787 302 45.4454 302H41.1454C41.1121 302 41.0821 301.99 41.0554 301.97C41.0354 301.943 41.0254 301.913 41.0254 301.88V301.16C41.0254 301.1 41.0454 301.05 41.0854 301.01C41.5921 300.47 42.1787 299.807 42.8454 299.02L43.3154 298.47C43.9287 297.757 44.2354 297.217 44.2354 296.85C44.2354 296.577 44.1387 296.353 43.9454 296.18C43.7521 296.007 43.5021 295.92 43.1954 295.92C42.8887 295.92 42.6387 296.007 42.4454 296.18C42.2587 296.353 42.1654 296.583 42.1654 296.87V297.13C42.1654 297.163 42.1521 297.193 42.1254 297.22C42.1054 297.24 42.0787 297.25 42.0454 297.25H41.1154C41.0821 297.25 41.0521 297.24 41.0254 297.22C41.0054 297.193 40.9954 297.163 40.9954 297.13V296.7C41.0087 296.34 41.1121 296.027 41.3054 295.76C41.4987 295.493 41.7587 295.287 42.0854 295.14C42.4187 294.993 42.7887 294.92 43.1954 294.92C43.6421 294.92 44.0321 295.003 44.3654 295.17C44.6987 295.337 44.9554 295.567 45.1354 295.86C45.3154 296.147 45.4054 296.47 45.4054 296.83C45.4054 297.377 45.1154 298.007 44.5354 298.72C44.2154 299.12 43.6887 299.72 42.9554 300.52L42.5754 300.94Z" fill="#06E7ED"/>
<path d="M38.6 317.03C38.6533 317.01 38.7033 317 38.75 317H39.71C39.7433 317 39.77 317.013 39.79 317.04C39.8167 317.06 39.83 317.087 39.83 317.12V323.88C39.83 323.913 39.8167 323.943 39.79 323.97C39.77 323.99 39.7433 324 39.71 324H38.79C38.7567 324 38.7267 323.99 38.7 323.97C38.68 323.943 38.67 323.913 38.67 323.88V318.2C38.67 318.187 38.6633 318.177 38.65 318.17C38.6367 318.157 38.6233 318.153 38.61 318.16L37.61 318.47C37.5967 318.477 37.58 318.48 37.56 318.48C37.5333 318.48 37.51 318.47 37.49 318.45C37.4767 318.43 37.47 318.403 37.47 318.37L37.44 317.71C37.44 317.643 37.4667 317.597 37.52 317.57L38.6 317.03ZM45.1254 320.67C45.2587 320.99 45.3254 321.357 45.3254 321.77C45.3254 322.143 45.2687 322.473 45.1554 322.76C45.0021 323.18 44.7487 323.507 44.3954 323.74C44.0421 323.967 43.6154 324.08 43.1154 324.08C42.6221 324.08 42.1921 323.957 41.8254 323.71C41.4654 323.457 41.2087 323.117 41.0554 322.69C40.9754 322.483 40.9287 322.213 40.9154 321.88C40.9154 321.8 40.9554 321.76 41.0354 321.76H41.9654C42.0454 321.76 42.0854 321.8 42.0854 321.88C42.0987 322.093 42.1321 322.263 42.1854 322.39C42.2454 322.603 42.3554 322.773 42.5154 322.9C42.6821 323.02 42.8821 323.08 43.1154 323.08C43.5554 323.08 43.8587 322.88 44.0254 322.48C44.1121 322.287 44.1554 322.037 44.1554 321.73C44.1554 321.39 44.1054 321.11 44.0054 320.89C43.8321 320.517 43.5321 320.33 43.1054 320.33C42.9921 320.33 42.8387 320.397 42.6454 320.53C42.6187 320.543 42.5954 320.55 42.5754 320.55C42.5421 320.55 42.5087 320.53 42.4754 320.49L42.0154 319.85C41.9954 319.817 41.9854 319.79 41.9854 319.77C41.9854 319.737 41.9987 319.707 42.0254 319.68L43.6754 318.06C43.6887 318.047 43.6921 318.033 43.6854 318.02C43.6787 318.007 43.6654 318 43.6454 318H41.1454C41.1121 318 41.0821 317.99 41.0554 317.97C41.0354 317.943 41.0254 317.913 41.0254 317.88V317.12C41.0254 317.087 41.0354 317.06 41.0554 317.04C41.0821 317.013 41.1121 317 41.1454 317H45.1354C45.1687 317 45.1954 317.013 45.2154 317.04C45.2421 317.06 45.2554 317.087 45.2554 317.12V317.99C45.2554 318.05 45.2354 318.1 45.1954 318.14L43.7654 319.58C43.7387 319.607 43.7521 319.627 43.8054 319.64C44.4254 319.727 44.8654 320.07 45.1254 320.67Z" fill="#06E7ED"/>
</mask>
<g mask="url(#mask0_2984_11343)">
<rect x="34" y="49" width="13" height="299" fill="#07E1E8"/>
</g>
<rect x="69" y="73" width="47" height="10" rx="5" fill="#67ACE4"/>
<rect x="121" y="73" width="104" height="10" rx="5" fill="#1E4E76"/>
<rect x="230" y="73" width="16" height="10" rx="5" fill="#07E1E8"/>
<rect x="69" y="95" width="78" height="10" rx="5" fill="#1E4E76"/>
<rect x="152" y="95" width="113" height="10" rx="5" fill="#67ACE4"/>
<rect x="270" y="95" width="23" height="10" rx="5" fill="#E0E0E0"/>
<rect x="69" y="117" width="27" height="10" rx="5" fill="#07E1E8"/>
<rect x="96" y="139" width="40" height="10" rx="5" fill="#67ACE4"/>
<rect x="141" y="139" width="84" height="10" rx="5" fill="#1E4E76"/>
<rect x="96" y="161" width="129" height="10" rx="5" fill="#67ACE4"/>
<rect x="230" y="161" width="45" height="10" rx="5" fill="#67ACE4"/>
<rect x="280" y="161" width="24" height="10" rx="5" fill="#E0E0E0"/>
<rect x="309" y="161" width="115" height="10" rx="5" fill="#1E4E76"/>
<rect x="69" y="183" width="27" height="10" rx="5" fill="#07E1E8"/>
<rect x="69" y="205" width="83" height="10" rx="5" fill="#1E4E76"/>
<rect x="156" y="205" width="83" height="10" rx="5" fill="#1E4E76"/>
<rect x="96" y="227" width="74" height="10" rx="5" fill="#1E4E76"/>
<rect x="175" y="227" width="190" height="10" rx="5" fill="#1E4E76"/>
<rect x="370" y="227" width="63" height="10" rx="5" fill="#67ACE4"/>
<rect x="96" y="249" width="25" height="10" rx="5" fill="#67ACE4"/>
<rect x="126" y="249" width="25" height="10" rx="5" fill="#E0E0E0"/>
<rect x="156" y="249" width="89" height="10" rx="5" fill="#1E4E76"/>
<rect x="96" y="271" width="56" height="10" rx="5" fill="#67ACE4"/>
<rect x="69" y="293" width="63" height="10" rx="5" fill="#1E4E76"/>
<rect x="137" y="293" width="108" height="10" rx="5" fill="#67ACE4"/>
<rect x="69" y="315" width="63" height="10" rx="5" fill="#07E1E8"/>
<rect x="137" y="315" width="33" height="10" rx="5" fill="#E0E0E0"/>
<path d="M46.14 29.16C45.14 29.16 44.26 28.9667 43.5 28.58C42.74 28.18 42.1533 27.6267 41.74 26.92C41.3267 26.2133 41.12 25.3933 41.12 24.46V19.52C41.12 18.5867 41.3267 17.7667 41.74 17.06C42.1533 16.3533 42.74 15.8067 43.5 15.42C44.26 15.0333 45.14 14.84 46.14 14.84C47.1267 14.84 48 15.0267 48.76 15.4C49.52 15.7733 50.1067 16.3 50.52 16.98C50.9333 17.66 51.14 18.4467 51.14 19.34C51.14 19.4067 51.1133 19.4667 51.06 19.52C51.02 19.56 50.9667 19.58 50.9 19.58L49.06 19.68C48.9 19.68 48.82 19.6067 48.82 19.46C48.82 18.6733 48.5733 18.04 48.08 17.56C47.6 17.08 46.9533 16.84 46.14 16.84C45.3267 16.84 44.6733 17.08 44.18 17.56C43.6867 18.04 43.44 18.6733 43.44 19.46V24.56C43.44 25.3333 43.6867 25.96 44.18 26.44C44.6733 26.92 45.3267 27.16 46.14 27.16C46.9533 27.16 47.6 26.9267 48.08 26.46C48.5733 25.98 48.82 25.3467 48.82 24.56C48.82 24.4133 48.9 24.34 49.06 24.34L50.9 24.42C50.9667 24.42 51.02 24.44 51.06 24.48C51.1133 24.52 51.14 24.5667 51.14 24.62C51.14 25.5267 50.9333 26.3267 50.52 27.02C50.1067 27.7 49.52 28.2267 48.76 28.6C48 28.9733 47.1267 29.16 46.14 29.16ZM57.7284 29.16C56.6751 29.16 55.7684 28.8933 55.0084 28.36C54.2618 27.8267 53.7351 27.0867 53.4284 26.14C53.2018 25.42 53.0884 24.66 53.0884 23.86C53.0884 23.0067 53.1951 22.2467 53.4084 21.58C53.7151 20.6467 54.2484 19.92 55.0084 19.4C55.7684 18.88 56.6818 18.62 57.7484 18.62C58.7618 18.62 59.6351 18.88 60.3684 19.4C61.1151 19.92 61.6418 20.64 61.9484 21.56C62.1884 22.2 62.3084 22.96 62.3084 23.84C62.3084 24.68 62.1951 25.44 61.9684 26.12C61.6618 27.0667 61.1351 27.8133 60.3884 28.36C59.6418 28.8933 58.7551 29.16 57.7284 29.16ZM57.7284 27.16C58.2218 27.16 58.6418 27.02 58.9884 26.74C59.3484 26.46 59.6084 26.0667 59.7684 25.56C59.9018 25.12 59.9684 24.56 59.9684 23.88C59.9684 23.16 59.9018 22.6 59.7684 22.2C59.6218 21.6933 59.3684 21.3067 59.0084 21.04C58.6484 20.76 58.2084 20.62 57.6884 20.62C57.1951 20.62 56.7684 20.76 56.4084 21.04C56.0484 21.3067 55.7884 21.6933 55.6284 22.2C55.4951 22.6667 55.4284 23.2267 55.4284 23.88C55.4284 24.5333 55.4951 25.0933 55.6284 25.56C55.7751 26.0667 56.0284 26.46 56.3884 26.74C56.7618 27.02 57.2084 27.16 57.7284 27.16ZM70.8417 15.24C70.8417 15.1733 70.8617 15.12 70.9017 15.08C70.9551 15.0267 71.0151 15 71.0817 15H72.9217C72.9884 15 73.0417 15.0267 73.0817 15.08C73.1351 15.12 73.1617 15.1733 73.1617 15.24V28.76C73.1617 28.8267 73.1351 28.8867 73.0817 28.94C73.0417 28.98 72.9884 29 72.9217 29H71.0817C71.0151 29 70.9551 28.98 70.9017 28.94C70.8617 28.8867 70.8417 28.8267 70.8417 28.76V28.16C70.8417 28.12 70.8284 28.0933 70.8017 28.08C70.7751 28.0667 70.7484 28.08 70.7217 28.12C70.1351 28.8133 69.3684 29.16 68.4217 29.16C67.4751 29.16 66.6751 28.9133 66.0217 28.42C65.3684 27.9267 64.8951 27.24 64.6017 26.36C64.3617 25.6133 64.2417 24.78 64.2417 23.86C64.2417 22.9133 64.3551 22.1 64.5817 21.42C64.8751 20.54 65.3484 19.8533 66.0017 19.36C66.6551 18.8667 67.4751 18.62 68.4617 18.62C69.3817 18.62 70.1351 18.9533 70.7217 19.62C70.7484 19.6467 70.7751 19.66 70.8017 19.66C70.8284 19.6467 70.8417 19.62 70.8417 19.58V15.24ZM70.3617 26.2C70.6684 25.6533 70.8217 24.88 70.8217 23.88C70.8217 22.84 70.6551 22.0467 70.3217 21.5C69.9617 20.9133 69.4551 20.62 68.8017 20.62C68.1217 20.62 67.5884 20.9 67.2017 21.46C66.8017 22.0467 66.6017 22.86 66.6017 23.9C66.6017 24.8333 66.7617 25.6 67.0817 26.2C67.4551 26.84 68.0217 27.16 68.7817 27.16C69.4617 27.16 69.9884 26.84 70.3617 26.2ZM84.2936 22.74C84.3469 23.0733 84.3736 23.4467 84.3736 23.86L84.3536 24.48C84.3536 24.64 84.2736 24.72 84.1136 24.72H77.8536C77.7869 24.72 77.7536 24.7533 77.7536 24.82C77.7936 25.26 77.8536 25.56 77.9336 25.72C78.2536 26.68 79.0336 27.1667 80.2736 27.18C81.1803 27.18 81.9003 26.8067 82.4336 26.06C82.4869 25.98 82.5536 25.94 82.6336 25.94C82.6869 25.94 82.7336 25.96 82.7736 26L84.0136 27.02C84.1336 27.1133 84.1536 27.22 84.0736 27.34C83.6603 27.9267 83.1069 28.38 82.4136 28.7C81.7336 29.02 80.9736 29.18 80.1336 29.18C79.0936 29.18 78.2069 28.9467 77.4736 28.48C76.7536 28.0133 76.2269 27.36 75.8936 26.52C75.5869 25.8 75.4336 24.8 75.4336 23.52C75.4336 22.7467 75.5136 22.12 75.6736 21.64C75.9403 20.7067 76.4403 19.9733 77.1736 19.44C77.9203 18.8933 78.8136 18.62 79.8536 18.62C82.4803 18.62 83.9603 19.9933 84.2936 22.74ZM79.8536 20.62C79.3603 20.62 78.9469 20.7467 78.6136 21C78.2936 21.24 78.0669 21.58 77.9336 22.02C77.8536 22.2467 77.8003 22.54 77.7736 22.9C77.7469 22.9667 77.7736 23 77.8536 23H81.9136C81.9803 23 82.0136 22.9667 82.0136 22.9C81.9869 22.5667 81.9469 22.3133 81.8936 22.14C81.7736 21.66 81.5336 21.2867 81.1736 21.02C80.8269 20.7533 80.3869 20.62 79.8536 20.62Z" fill="#F3F5F7"/>
<rect x="96" y="9" width="97" height="24" rx="5" fill="#2C628E"/>
<path d="M125.71 26.112C125.029 26.112 124.431 25.986 123.918 25.734C123.405 25.4727 123.008 25.1087 122.728 24.642C122.448 24.1753 122.308 23.634 122.308 23.018V22.08C122.308 22.0333 122.322 21.996 122.35 21.968C122.387 21.9307 122.429 21.912 122.476 21.912H123.764C123.811 21.912 123.848 21.9307 123.876 21.968C123.913 21.996 123.932 22.0333 123.932 22.08V23.018C123.932 23.522 124.091 23.9327 124.408 24.25C124.735 24.558 125.169 24.712 125.71 24.712C126.233 24.712 126.662 24.558 126.998 24.25C127.334 23.9327 127.502 23.522 127.502 23.018V16.368C127.502 16.3213 127.516 16.284 127.544 16.256C127.581 16.2187 127.623 16.2 127.67 16.2H128.944C128.991 16.2 129.028 16.2187 129.056 16.256C129.093 16.284 129.112 16.3213 129.112 16.368V23.018C129.112 23.634 128.967 24.1753 128.678 24.642C128.398 25.1087 127.997 25.4727 127.474 25.734C126.961 25.986 126.373 26.112 125.71 26.112ZM133.733 18.734C134.321 18.734 134.839 18.8367 135.287 19.042C135.735 19.2473 136.08 19.532 136.323 19.896C136.565 20.2507 136.687 20.6567 136.687 21.114V25.832C136.687 25.8787 136.668 25.9207 136.631 25.958C136.603 25.986 136.565 26 136.519 26H135.231C135.184 26 135.142 25.986 135.105 25.958C135.077 25.9207 135.063 25.8787 135.063 25.832V25.384C135.063 25.356 135.053 25.342 135.035 25.342C135.016 25.3327 134.997 25.3373 134.979 25.356C134.521 25.86 133.859 26.112 132.991 26.112C132.291 26.112 131.712 25.9347 131.255 25.58C130.807 25.2253 130.583 24.698 130.583 23.998C130.583 23.27 130.835 22.7053 131.339 22.304C131.852 21.8933 132.571 21.688 133.495 21.688H134.993C135.039 21.688 135.063 21.6647 135.063 21.618V21.282C135.063 20.918 134.955 20.638 134.741 20.442C134.526 20.2367 134.204 20.134 133.775 20.134C133.42 20.134 133.131 20.1993 132.907 20.33C132.692 20.4513 132.557 20.624 132.501 20.848C132.473 20.96 132.407 21.0067 132.305 20.988L130.947 20.82C130.9 20.8107 130.858 20.7967 130.821 20.778C130.793 20.75 130.783 20.7173 130.793 20.68C130.867 20.1107 131.171 19.644 131.703 19.28C132.244 18.916 132.921 18.734 133.733 18.734ZM133.397 24.824C133.854 24.824 134.246 24.7027 134.573 24.46C134.899 24.2173 135.063 23.9093 135.063 23.536V22.878C135.063 22.8313 135.039 22.808 134.993 22.808H133.817C133.322 22.808 132.93 22.9013 132.641 23.088C132.361 23.2747 132.221 23.5407 132.221 23.886C132.221 24.1847 132.328 24.418 132.543 24.586C132.767 24.7447 133.051 24.824 133.397 24.824ZM140.099 26C140.005 26 139.945 25.9533 139.917 25.86L137.663 19.028C137.653 19.0093 137.649 18.986 137.649 18.958C137.649 18.874 137.7 18.832 137.803 18.832H139.231C139.333 18.832 139.399 18.8787 139.427 18.972L140.785 23.648C140.794 23.676 140.808 23.69 140.827 23.69C140.845 23.69 140.859 23.676 140.869 23.648L142.227 18.972C142.255 18.8787 142.32 18.832 142.423 18.832L143.851 18.86C143.907 18.86 143.949 18.8787 143.977 18.916C144.005 18.944 144.009 18.9907 143.991 19.056L141.751 25.86C141.723 25.9533 141.662 26 141.569 26H140.099ZM147.637 18.734C148.225 18.734 148.743 18.8367 149.191 19.042C149.639 19.2473 149.984 19.532 150.227 19.896C150.47 20.2507 150.591 20.6567 150.591 21.114V25.832C150.591 25.8787 150.572 25.9207 150.535 25.958C150.507 25.986 150.47 26 150.423 26H149.135C149.088 26 149.046 25.986 149.009 25.958C148.981 25.9207 148.967 25.8787 148.967 25.832V25.384C148.967 25.356 148.958 25.342 148.939 25.342C148.92 25.3327 148.902 25.3373 148.883 25.356C148.426 25.86 147.763 26.112 146.895 26.112C146.195 26.112 145.616 25.9347 145.159 25.58C144.711 25.2253 144.487 24.698 144.487 23.998C144.487 23.27 144.739 22.7053 145.243 22.304C145.756 21.8933 146.475 21.688 147.399 21.688H148.897C148.944 21.688 148.967 21.6647 148.967 21.618V21.282C148.967 20.918 148.86 20.638 148.645 20.442C148.43 20.2367 148.108 20.134 147.679 20.134C147.324 20.134 147.035 20.1993 146.811 20.33C146.596 20.4513 146.461 20.624 146.405 20.848C146.377 20.96 146.312 21.0067 146.209 20.988L144.851 20.82C144.804 20.8107 144.762 20.7967 144.725 20.778C144.697 20.75 144.688 20.7173 144.697 20.68C144.772 20.1107 145.075 19.644 145.607 19.28C146.148 18.916 146.825 18.734 147.637 18.734ZM147.301 24.824C147.758 24.824 148.15 24.7027 148.477 24.46C148.804 24.2173 148.967 23.9093 148.967 23.536V22.878C148.967 22.8313 148.944 22.808 148.897 22.808H147.721C147.226 22.808 146.834 22.9013 146.545 23.088C146.265 23.2747 146.125 23.5407 146.125 23.886C146.125 24.1847 146.232 24.418 146.447 24.586C146.671 24.7447 146.956 24.824 147.301 24.824ZM155.54 26.112C154.812 26.112 154.177 25.9953 153.636 25.762C153.094 25.5287 152.674 25.202 152.376 24.782C152.086 24.362 151.942 23.8673 151.942 23.298V22.948C151.942 22.9013 151.956 22.864 151.984 22.836C152.021 22.7987 152.063 22.78 152.11 22.78H153.356C153.402 22.78 153.44 22.7987 153.468 22.836C153.505 22.864 153.524 22.9013 153.524 22.948V23.214C153.524 23.6433 153.715 24.0027 154.098 24.292C154.48 24.572 155.003 24.712 155.666 24.712C156.235 24.712 156.664 24.5907 156.954 24.348C157.243 24.1053 157.388 23.7927 157.388 23.41C157.388 23.1487 157.308 22.9293 157.15 22.752C156.991 22.5653 156.762 22.3973 156.464 22.248C156.174 22.0987 155.736 21.912 155.148 21.688C154.485 21.4453 153.948 21.2167 153.538 21.002C153.127 20.7873 152.782 20.498 152.502 20.134C152.231 19.7607 152.096 19.2987 152.096 18.748C152.096 17.9267 152.394 17.278 152.992 16.802C153.589 16.326 154.387 16.088 155.386 16.088C156.086 16.088 156.702 16.2093 157.234 16.452C157.775 16.6947 158.195 17.0353 158.494 17.474C158.792 17.9033 158.942 18.4027 158.942 18.972V19.21C158.942 19.2567 158.923 19.2987 158.886 19.336C158.858 19.364 158.82 19.378 158.774 19.378H157.514C157.467 19.378 157.425 19.364 157.388 19.336C157.36 19.2987 157.346 19.2567 157.346 19.21V19.056C157.346 18.6173 157.164 18.2487 156.8 17.95C156.445 17.642 155.95 17.488 155.316 17.488C154.802 17.488 154.401 17.5953 154.112 17.81C153.832 18.0247 153.692 18.328 153.692 18.72C153.692 19 153.766 19.2287 153.916 19.406C154.065 19.5833 154.289 19.7467 154.588 19.896C154.886 20.036 155.348 20.218 155.974 20.442C156.636 20.694 157.164 20.9227 157.556 21.128C157.957 21.3333 158.298 21.6227 158.578 21.996C158.867 22.36 159.012 22.8173 159.012 23.368C159.012 24.208 158.699 24.8753 158.074 25.37C157.458 25.8647 156.613 26.112 155.54 26.112ZM163.475 26.112C162.756 26.112 162.136 25.93 161.613 25.566C161.09 25.1927 160.726 24.6933 160.521 24.068C160.372 23.648 160.297 23.088 160.297 22.388C160.297 21.716 160.372 21.1653 160.521 20.736C160.717 20.12 161.076 19.6347 161.599 19.28C162.131 18.916 162.756 18.734 163.475 18.734C164.203 18.734 164.838 18.916 165.379 19.28C165.92 19.644 166.28 20.1013 166.457 20.652C166.504 20.8013 166.536 20.9507 166.555 21.1V21.128C166.555 21.2213 166.504 21.2773 166.401 21.296L165.141 21.478H165.113C165.029 21.478 164.973 21.4313 164.945 21.338C164.945 21.2913 164.94 21.254 164.931 21.226C164.912 21.1513 164.894 21.086 164.875 21.03C164.791 20.7687 164.623 20.554 164.371 20.386C164.119 20.218 163.82 20.134 163.475 20.134C163.12 20.134 162.817 20.2273 162.565 20.414C162.322 20.5913 162.159 20.8387 162.075 21.156C161.982 21.4547 161.935 21.87 161.935 22.402C161.935 22.9153 161.977 23.3307 162.061 23.648C162.154 23.9747 162.322 24.236 162.565 24.432C162.808 24.6187 163.111 24.712 163.475 24.712C163.83 24.712 164.133 24.6233 164.385 24.446C164.646 24.2593 164.814 24.012 164.889 23.704C164.898 23.6853 164.903 23.662 164.903 23.634C164.912 23.6247 164.917 23.6107 164.917 23.592C164.945 23.48 165.01 23.4333 165.113 23.452L166.373 23.648C166.42 23.6573 166.457 23.6807 166.485 23.718C166.522 23.746 166.536 23.788 166.527 23.844C166.499 23.9933 166.476 24.1007 166.457 24.166C166.28 24.7633 165.92 25.2393 165.379 25.594C164.838 25.9393 164.203 26.112 163.475 26.112ZM171.263 18.762C171.561 18.762 171.823 18.8227 172.047 18.944C172.121 18.9813 172.149 19.0513 172.131 19.154L171.893 20.414C171.883 20.526 171.818 20.5587 171.697 20.512C171.557 20.4653 171.393 20.442 171.207 20.442C171.085 20.442 170.992 20.4467 170.927 20.456C170.535 20.4747 170.208 20.6147 169.947 20.876C169.685 21.128 169.555 21.4593 169.555 21.87V25.832C169.555 25.8787 169.536 25.9207 169.499 25.958C169.471 25.986 169.433 26 169.387 26H168.099C168.052 26 168.01 25.986 167.973 25.958C167.945 25.9207 167.931 25.8787 167.931 25.832V19.014C167.931 18.9673 167.945 18.93 167.973 18.902C168.01 18.8647 168.052 18.846 168.099 18.846H169.387C169.433 18.846 169.471 18.8647 169.499 18.902C169.536 18.93 169.555 18.9673 169.555 19.014V19.644C169.555 19.6813 169.559 19.7047 169.569 19.714C169.587 19.714 169.606 19.7 169.625 19.672C170.017 19.0653 170.563 18.762 171.263 18.762ZM174.118 17.866C173.829 17.866 173.591 17.7727 173.404 17.586C173.218 17.3993 173.124 17.1613 173.124 16.872C173.124 16.5827 173.218 16.3447 173.404 16.158C173.591 15.9713 173.829 15.878 174.118 15.878C174.408 15.878 174.646 15.9713 174.832 16.158C175.019 16.3447 175.112 16.5827 175.112 16.872C175.112 17.1613 175.019 17.3993 174.832 17.586C174.646 17.7727 174.408 17.866 174.118 17.866ZM173.446 26C173.4 26 173.358 25.986 173.32 25.958C173.292 25.9207 173.278 25.8787 173.278 25.832V19C173.278 18.9533 173.292 18.916 173.32 18.888C173.358 18.8507 173.4 18.832 173.446 18.832H174.734C174.781 18.832 174.818 18.8507 174.846 18.888C174.884 18.916 174.902 18.9533 174.902 19V25.832C174.902 25.8787 174.884 25.9207 174.846 25.958C174.818 25.986 174.781 26 174.734 26H173.446ZM182.825 20.694C182.993 21.17 183.077 21.7533 183.077 22.444C183.077 23.1067 182.997 23.676 182.839 24.152C182.633 24.768 182.302 25.2487 181.845 25.594C181.397 25.9393 180.827 26.112 180.137 26.112C179.474 26.112 178.942 25.874 178.541 25.398C178.522 25.3793 178.503 25.3747 178.485 25.384C178.466 25.3933 178.457 25.412 178.457 25.44V28.478C178.457 28.5247 178.438 28.562 178.401 28.59C178.373 28.6273 178.335 28.646 178.289 28.646H177.001C176.954 28.646 176.912 28.6273 176.875 28.59C176.847 28.562 176.833 28.5247 176.833 28.478V19.014C176.833 18.9673 176.847 18.93 176.875 18.902C176.912 18.8647 176.954 18.846 177.001 18.846H178.289C178.335 18.846 178.373 18.8647 178.401 18.902C178.438 18.93 178.457 18.9673 178.457 19.014V19.434C178.457 19.462 178.466 19.4807 178.485 19.49C178.503 19.4993 178.522 19.49 178.541 19.462C178.951 18.9767 179.488 18.734 180.151 18.734C180.813 18.734 181.373 18.9067 181.831 19.252C182.288 19.5973 182.619 20.078 182.825 20.694ZM181.005 24.124C181.285 23.6947 181.425 23.1253 181.425 22.416C181.425 21.7347 181.313 21.198 181.089 20.806C180.827 20.3487 180.431 20.12 179.899 20.12C179.413 20.12 179.049 20.344 178.807 20.792C178.592 21.156 178.485 21.6973 178.485 22.416C178.485 23.1533 178.601 23.7133 178.835 24.096C179.077 24.5067 179.427 24.712 179.885 24.712C180.379 24.712 180.753 24.516 181.005 24.124ZM188.445 19.994C188.445 20.0407 188.427 20.0827 188.389 20.12C188.361 20.148 188.324 20.162 188.277 20.162H186.849C186.803 20.162 186.779 20.1853 186.779 20.232V23.606C186.779 23.9607 186.854 24.2173 187.003 24.376C187.162 24.5347 187.409 24.614 187.745 24.614H188.165C188.212 24.614 188.249 24.6327 188.277 24.67C188.315 24.698 188.333 24.7353 188.333 24.782V25.832C188.333 25.9347 188.277 25.9953 188.165 26.014L187.437 26.028C186.7 26.028 186.149 25.902 185.785 25.65C185.421 25.398 185.235 24.922 185.225 24.222V20.232C185.225 20.1853 185.202 20.162 185.155 20.162H184.357C184.311 20.162 184.269 20.148 184.231 20.12C184.203 20.0827 184.189 20.0407 184.189 19.994V19.014C184.189 18.9673 184.203 18.93 184.231 18.902C184.269 18.8647 184.311 18.846 184.357 18.846H185.155C185.202 18.846 185.225 18.8227 185.225 18.776V17.138C185.225 17.0913 185.239 17.054 185.267 17.026C185.305 16.9887 185.347 16.97 185.393 16.97H186.611C186.658 16.97 186.695 16.9887 186.723 17.026C186.761 17.054 186.779 17.0913 186.779 17.138V18.776C186.779 18.8227 186.803 18.846 186.849 18.846H188.277C188.324 18.846 188.361 18.8647 188.389 18.902C188.427 18.93 188.445 18.9673 188.445 19.014V19.994Z" fill="white"/>
<rect x="102" y="14" width="14" height="14" rx="2" fill="#112D44"/>
<path d="M107.136 26.112C106.248 26.112 105.608 25.736 105.24 25.024L106.352 24.384C106.528 24.696 106.712 24.864 107.144 24.864C107.704 24.864 107.872 24.544 107.872 24.2V20.4H109.152V24.2C109.152 25.432 108.288 26.112 107.136 26.112ZM112.034 26.112C110.858 26.112 110.106 25.552 109.794 24.728L110.898 24.088C111.098 24.552 111.442 24.864 112.074 24.864C112.682 24.864 112.834 24.624 112.834 24.408C112.834 24.064 112.514 23.928 111.674 23.696C110.842 23.464 110.026 23.064 110.026 21.992C110.026 20.912 110.938 20.288 111.906 20.288C112.826 20.288 113.546 20.728 113.954 21.552L112.874 22.184C112.682 21.784 112.418 21.536 111.906 21.536C111.506 21.536 111.306 21.736 111.306 21.96C111.306 22.216 111.442 22.392 112.314 22.656C113.162 22.912 114.114 23.208 114.114 24.392C114.114 25.472 113.25 26.112 112.034 26.112Z" fill="#F3F5F7"/>
<line y1="38.5" x2="650" y2="38.5" stroke="#07E1E8"/>
<path d="M615.375 13H605.375C605.209 13 605.05 13.0658 604.933 13.1831C604.816 13.3003 604.75 13.4592 604.75 13.625V16.75H601.625C601.459 16.75 601.3 16.8158 601.183 16.9331C601.066 17.0503 601 17.2092 601 17.375V27.375C601 27.5408 601.066 27.6997 601.183 27.8169C601.3 27.9342 601.459 28 601.625 28H611.625C611.791 28 611.95 27.9342 612.067 27.8169C612.184 27.6997 612.25 27.5408 612.25 27.375V24.25H615.375C615.541 24.25 615.7 24.1842 615.817 24.0669C615.934 23.9497 616 23.7908 616 23.625V13.625C616 13.4592 615.934 13.3003 615.817 13.1831C615.7 13.0658 615.541 13 615.375 13ZM611 26.75H602.25V18H611V26.75ZM614.75 23H612.25V17.375C612.25 17.2092 612.184 17.0503 612.067 16.9331C611.95 16.8158 611.791 16.75 611.625 16.75H606V14.25H614.75V23Z" fill="#F3F5F7"/>
<rect x="593" y="480" width="33" height="33" rx="5" fill="#112D44"/>
<path d="M605.77 498.363C605.8 497.193 605.83 496.032 605.859 494.857L604.652 494.915L601.706 495.062C600.859 495.072 600.036 495.337 599.343 495.823C597.098 497.484 597.4 500.137 598.728 501.551C599.284 502.146 599.866 502.717 600.439 503.296C601.777 504.654 603.114 506.03 604.471 507.386C605.065 507.975 605.833 508.356 606.659 508.472C607.485 508.588 608.325 508.434 609.054 508.032C610.293 507.326 610.875 506.192 610.964 504.796C611.052 503.399 611.101 501.952 611.168 500.537L611.619 490.791C611.621 490.542 611.637 490.294 611.649 490.043C611.653 489.774 611.74 489.513 611.896 489.296C611.986 489.159 612.12 489.055 612.276 489.002C612.432 488.95 612.601 488.951 612.757 489.006C612.991 489.088 613.206 489.218 613.387 489.388C614.621 490.615 615.844 491.854 617.055 493.103C617.213 493.279 617.329 493.489 617.395 493.716C617.424 493.794 617.437 493.876 617.433 493.959C617.429 494.042 617.408 494.124 617.372 494.198C617.335 494.272 617.284 494.338 617.22 494.391C617.157 494.445 617.083 494.484 617.004 494.508C616.665 494.626 616.312 494.698 615.954 494.723C615.161 494.769 614.369 494.766 613.556 494.781C613.491 495.955 613.423 497.118 613.355 498.302L614.289 498.275C615.386 498.242 616.481 498.221 617.575 498.175C618.404 498.164 619.209 497.905 619.888 497.432C620.317 497.138 620.681 496.759 620.957 496.319C621.232 495.878 621.415 495.385 621.493 494.869C621.571 494.354 621.542 493.828 621.409 493.323C621.276 492.818 621.04 492.346 620.718 491.935C620.549 491.735 620.368 491.547 620.177 491.369C618.412 489.559 616.654 487.748 614.88 485.969C613.659 484.736 612.201 484.433 610.6 485.032C609.479 485.443 608.803 486.307 608.463 487.434C608.347 487.846 608.282 488.27 608.267 488.697C608.108 491.898 607.965 495.099 607.816 498.302C607.739 499.933 607.663 501.563 607.589 503.193C607.585 503.282 607.576 503.37 607.561 503.457C607.414 504.27 606.697 504.557 606.052 504.044C605.75 503.785 605.463 503.507 605.194 503.213C604.212 502.22 603.232 501.224 602.254 500.226C602.063 500.045 601.924 499.816 601.852 499.563C601.8 499.399 601.813 499.221 601.888 499.067C601.962 498.913 602.094 498.793 602.254 498.733C602.671 498.579 603.113 498.502 603.558 498.505L605.77 498.363Z" fill="#06E7ED" stroke="#01004C" stroke-width="0.5" stroke-miterlimit="10"/>
<mask id="mask1_2984_11343" style="mask-type:alpha" maskUnits="userSpaceOnUse" x="69" y="52" width="322" height="12">
<path d="M69.492 61C69.404 61 69.372 60.956 69.396 60.868L72.048 52.696C72.072 52.632 72.12 52.6 72.192 52.6H72.792C72.88 52.6 72.912 52.644 72.888 52.732L70.236 60.904C70.212 60.968 70.164 61 70.092 61H69.492ZM74.2967 61C74.2087 61 74.1767 60.956 74.2007 60.868L76.8527 52.696C76.8767 52.632 76.9247 52.6 76.9967 52.6H77.5967C77.6847 52.6 77.7167 52.644 77.6927 52.732L75.0407 60.904C75.0167 60.968 74.9687 61 74.8967 61H74.2967ZM87.1197 61C87.0477 61 86.9997 60.968 86.9757 60.904L86.4957 59.392C86.4877 59.368 86.4717 59.356 86.4477 59.356H82.8597C82.8357 59.356 82.8197 59.368 82.8117 59.392L82.3317 60.904C82.3077 60.968 82.2597 61 82.1877 61H81.5397C81.4517 61 81.4197 60.956 81.4437 60.868L84.0957 52.696C84.1197 52.632 84.1677 52.6 84.2397 52.6H85.0557C85.1277 52.6 85.1757 52.632 85.1997 52.696L87.8637 60.868L87.8757 60.916C87.8757 60.972 87.8397 61 87.7677 61H87.1197ZM83.0517 58.6C83.0437 58.616 83.0437 58.632 83.0517 58.648C83.0677 58.656 83.0837 58.66 83.0997 58.66H86.1957C86.2117 58.66 86.2237 58.656 86.2317 58.648C86.2477 58.632 86.2517 58.616 86.2437 58.6L84.6837 53.704C84.6757 53.688 84.6637 53.68 84.6477 53.68C84.6317 53.68 84.6197 53.688 84.6117 53.704L83.0517 58.6ZM92.9328 55.048C92.9328 54.968 92.9728 54.928 93.0528 54.928H93.6648C93.7448 54.928 93.7848 54.968 93.7848 55.048V60.88C93.7848 60.96 93.7448 61 93.6648 61H93.0528C92.9728 61 92.9328 60.96 92.9328 60.88V60.364C92.9328 60.348 92.9248 60.336 92.9088 60.328C92.8928 60.32 92.8808 60.324 92.8728 60.34C92.5368 60.836 92.0048 61.084 91.2768 61.084C90.8928 61.084 90.5368 61.008 90.2088 60.856C89.8888 60.696 89.6328 60.468 89.4408 60.172C89.2568 59.876 89.1648 59.52 89.1648 59.104V55.048C89.1648 54.968 89.2048 54.928 89.2848 54.928H89.8968C89.9768 54.928 90.0168 54.968 90.0168 55.048V58.852C90.0168 59.308 90.1448 59.672 90.4008 59.944C90.6568 60.208 91.0048 60.34 91.4448 60.34C91.9008 60.34 92.2608 60.204 92.5248 59.932C92.7968 59.66 92.9328 59.3 92.9328 58.852V55.048ZM98.4184 55.516C98.4184 55.596 98.3784 55.636 98.2984 55.636H96.9424C96.9104 55.636 96.8944 55.652 96.8944 55.684V59.224C96.8944 59.608 96.9784 59.88 97.1464 60.04C97.3224 60.192 97.5944 60.268 97.9624 60.268H98.2624C98.3424 60.268 98.3824 60.308 98.3824 60.388V60.88C98.3824 60.96 98.3424 61 98.2624 61C98.1664 61.008 98.0184 61.012 97.8184 61.012C97.2424 61.012 96.8064 60.904 96.5104 60.688C96.2144 60.472 96.0664 60.072 96.0664 59.488V55.684C96.0664 55.652 96.0504 55.636 96.0184 55.636H95.2864C95.2064 55.636 95.1664 55.596 95.1664 55.516V55.048C95.1664 54.968 95.2064 54.928 95.2864 54.928H96.0184C96.0504 54.928 96.0664 54.912 96.0664 54.88V53.488C96.0664 53.408 96.1064 53.368 96.1864 53.368H96.7744C96.8544 53.368 96.8944 53.408 96.8944 53.488V54.88C96.8944 54.912 96.9104 54.928 96.9424 54.928H98.2984C98.3784 54.928 98.4184 54.968 98.4184 55.048V55.516ZM102.585 54.844C103.225 54.844 103.733 55.032 104.109 55.408C104.493 55.784 104.685 56.288 104.685 56.92V60.88C104.685 60.96 104.645 61 104.565 61H103.953C103.873 61 103.833 60.96 103.833 60.88V57.088C103.833 56.648 103.697 56.288 103.425 56.008C103.161 55.728 102.817 55.588 102.393 55.588C101.953 55.588 101.597 55.724 101.325 55.996C101.053 56.268 100.917 56.624 100.917 57.064V60.88C100.917 60.96 100.877 61 100.797 61H100.185C100.105 61 100.065 60.96 100.065 60.88V52.72C100.065 52.64 100.105 52.6 100.185 52.6H100.797C100.877 52.6 100.917 52.64 100.917 52.72V55.564C100.917 55.58 100.921 55.592 100.929 55.6C100.945 55.608 100.957 55.604 100.965 55.588C101.317 55.092 101.857 54.844 102.585 54.844ZM108.768 61.096C108.192 61.096 107.696 60.948 107.28 60.652C106.864 60.356 106.576 59.948 106.416 59.428C106.304 59.06 106.248 58.568 106.248 57.952C106.248 57.336 106.304 56.848 106.416 56.488C106.568 55.976 106.852 55.572 107.268 55.276C107.684 54.98 108.188 54.832 108.78 54.832C109.348 54.832 109.836 54.98 110.244 55.276C110.66 55.572 110.944 55.972 111.096 56.476C111.208 56.82 111.264 57.312 111.264 57.952C111.264 58.6 111.208 59.092 111.096 59.428C110.944 59.948 110.66 60.356 110.244 60.652C109.836 60.948 109.344 61.096 108.768 61.096ZM108.768 60.352C109.152 60.352 109.48 60.248 109.752 60.04C110.024 59.824 110.208 59.536 110.304 59.176C110.376 58.888 110.412 58.484 110.412 57.964C110.412 57.436 110.38 57.032 110.316 56.752C110.22 56.392 110.032 56.108 109.752 55.9C109.48 55.684 109.148 55.576 108.756 55.576C108.364 55.576 108.032 55.684 107.76 55.9C107.488 56.108 107.304 56.392 107.208 56.752C107.144 57.032 107.112 57.436 107.112 57.964C107.112 58.492 107.144 58.896 107.208 59.176C107.296 59.536 107.476 59.824 107.748 60.04C108.028 60.248 108.368 60.352 108.768 60.352ZM115.439 54.868C115.703 54.868 115.931 54.92 116.123 55.024C116.187 55.056 116.211 55.108 116.195 55.18L116.063 55.768C116.039 55.848 115.987 55.872 115.907 55.84C115.771 55.784 115.615 55.756 115.439 55.756L115.283 55.768C114.867 55.784 114.523 55.94 114.251 56.236C113.979 56.524 113.843 56.892 113.843 57.34V60.88C113.843 60.96 113.803 61 113.723 61H113.111C113.031 61 112.991 60.96 112.991 60.88V55.048C112.991 54.968 113.031 54.928 113.111 54.928H113.723C113.803 54.928 113.843 54.968 113.843 55.048V55.78C113.843 55.804 113.847 55.82 113.855 55.828C113.871 55.828 113.883 55.82 113.891 55.804C114.059 55.508 114.271 55.28 114.527 55.12C114.791 54.952 115.095 54.868 115.439 54.868ZM117.938 53.824C117.746 53.824 117.586 53.76 117.458 53.632C117.33 53.504 117.266 53.344 117.266 53.152C117.266 52.952 117.33 52.792 117.458 52.672C117.586 52.544 117.746 52.48 117.938 52.48C118.13 52.48 118.29 52.544 118.418 52.672C118.546 52.792 118.61 52.952 118.61 53.152C118.61 53.344 118.546 53.504 118.418 53.632C118.29 53.76 118.13 53.824 117.938 53.824ZM117.602 60.988C117.522 60.988 117.482 60.948 117.482 60.868V55.036C117.482 54.956 117.522 54.916 117.602 54.916H118.214C118.294 54.916 118.334 54.956 118.334 55.036V60.868C118.334 60.948 118.294 60.988 118.214 60.988H117.602ZM119.989 61C119.909 61 119.869 60.96 119.869 60.88V60.304C119.869 60.248 119.885 60.2 119.917 60.16L123.325 55.768C123.341 55.752 123.345 55.74 123.337 55.732C123.329 55.716 123.317 55.708 123.301 55.708H120.037C119.957 55.708 119.917 55.668 119.917 55.588V55.048C119.917 54.968 119.957 54.928 120.037 54.928H124.249C124.329 54.928 124.369 54.968 124.369 55.048V55.624C124.369 55.68 124.353 55.728 124.321 55.768L120.877 60.16C120.861 60.176 120.857 60.192 120.865 60.208C120.873 60.216 120.885 60.22 120.901 60.22H124.249C124.329 60.22 124.369 60.26 124.369 60.34V60.88C124.369 60.96 124.329 61 124.249 61H119.989ZM127.865 54.832C128.585 54.832 129.141 55.016 129.533 55.384C129.925 55.752 130.121 56.24 130.121 56.848V60.88C130.121 60.96 130.081 61 130.001 61H129.389C129.309 61 129.269 60.96 129.269 60.88V60.388C129.269 60.372 129.261 60.36 129.245 60.352C129.237 60.344 129.225 60.348 129.209 60.364C129.009 60.604 128.749 60.788 128.429 60.916C128.109 61.036 127.753 61.096 127.361 61.096C126.793 61.096 126.317 60.952 125.933 60.664C125.549 60.376 125.357 59.936 125.357 59.344C125.357 58.744 125.573 58.272 126.005 57.928C126.445 57.576 127.053 57.4 127.829 57.4H129.221C129.253 57.4 129.269 57.384 129.269 57.352V56.896C129.269 56.488 129.153 56.168 128.921 55.936C128.697 55.696 128.345 55.576 127.865 55.576C127.481 55.576 127.169 55.652 126.929 55.804C126.689 55.948 126.541 56.152 126.485 56.416C126.461 56.496 126.413 56.532 126.341 56.524L125.693 56.44C125.605 56.424 125.569 56.392 125.585 56.344C125.649 55.896 125.889 55.532 126.305 55.252C126.721 54.972 127.241 54.832 127.865 54.832ZM127.529 60.364C128.001 60.364 128.409 60.248 128.753 60.016C129.097 59.776 129.269 59.456 129.269 59.056V58.12C129.269 58.088 129.253 58.072 129.221 58.072H127.961C127.433 58.072 127.009 58.18 126.689 58.396C126.369 58.612 126.209 58.912 126.209 59.296C126.209 59.648 126.329 59.916 126.569 60.1C126.817 60.276 127.137 60.364 127.529 60.364ZM134.571 55.516C134.571 55.596 134.531 55.636 134.451 55.636H133.095C133.063 55.636 133.047 55.652 133.047 55.684V59.224C133.047 59.608 133.131 59.88 133.299 60.04C133.475 60.192 133.747 60.268 134.115 60.268H134.415C134.495 60.268 134.535 60.308 134.535 60.388V60.88C134.535 60.96 134.495 61 134.415 61C134.319 61.008 134.171 61.012 133.971 61.012C133.395 61.012 132.959 60.904 132.663 60.688C132.367 60.472 132.219 60.072 132.219 59.488V55.684C132.219 55.652 132.203 55.636 132.171 55.636H131.439C131.359 55.636 131.319 55.596 131.319 55.516V55.048C131.319 54.968 131.359 54.928 131.439 54.928H132.171C132.203 54.928 132.219 54.912 132.219 54.88V53.488C132.219 53.408 132.259 53.368 132.339 53.368H132.927C133.007 53.368 133.047 53.408 133.047 53.488V54.88C133.047 54.912 133.063 54.928 133.095 54.928H134.451C134.531 54.928 134.571 54.968 134.571 55.048V55.516ZM136.794 53.824C136.602 53.824 136.442 53.76 136.314 53.632C136.186 53.504 136.122 53.344 136.122 53.152C136.122 52.952 136.186 52.792 136.314 52.672C136.442 52.544 136.602 52.48 136.794 52.48C136.986 52.48 137.146 52.544 137.274 52.672C137.402 52.792 137.466 52.952 137.466 53.152C137.466 53.344 137.402 53.504 137.274 53.632C137.146 53.76 136.986 53.824 136.794 53.824ZM136.458 60.988C136.378 60.988 136.338 60.948 136.338 60.868V55.036C136.338 54.956 136.378 54.916 136.458 54.916H137.07C137.15 54.916 137.19 54.956 137.19 55.036V60.868C137.19 60.948 137.15 60.988 137.07 60.988H136.458ZM141.592 61.096C141.016 61.096 140.52 60.948 140.104 60.652C139.688 60.356 139.4 59.948 139.24 59.428C139.128 59.06 139.072 58.568 139.072 57.952C139.072 57.336 139.128 56.848 139.24 56.488C139.392 55.976 139.676 55.572 140.092 55.276C140.508 54.98 141.012 54.832 141.604 54.832C142.172 54.832 142.66 54.98 143.068 55.276C143.484 55.572 143.768 55.972 143.92 56.476C144.032 56.82 144.088 57.312 144.088 57.952C144.088 58.6 144.032 59.092 143.92 59.428C143.768 59.948 143.484 60.356 143.068 60.652C142.66 60.948 142.168 61.096 141.592 61.096ZM141.592 60.352C141.976 60.352 142.304 60.248 142.576 60.04C142.848 59.824 143.032 59.536 143.128 59.176C143.2 58.888 143.236 58.484 143.236 57.964C143.236 57.436 143.204 57.032 143.14 56.752C143.044 56.392 142.856 56.108 142.576 55.9C142.304 55.684 141.972 55.576 141.58 55.576C141.188 55.576 140.856 55.684 140.584 55.9C140.312 56.108 140.128 56.392 140.032 56.752C139.968 57.032 139.936 57.436 139.936 57.964C139.936 58.492 139.968 58.896 140.032 59.176C140.12 59.536 140.3 59.824 140.572 60.04C140.852 60.248 141.192 60.352 141.592 60.352ZM148.335 54.844C148.975 54.844 149.483 55.032 149.859 55.408C150.243 55.784 150.435 56.288 150.435 56.92V60.88C150.435 60.96 150.395 61 150.315 61H149.703C149.623 61 149.583 60.96 149.583 60.88V57.088C149.583 56.648 149.447 56.288 149.175 56.008C148.911 55.728 148.567 55.588 148.143 55.588C147.703 55.588 147.347 55.724 147.075 55.996C146.803 56.268 146.667 56.624 146.667 57.064V60.88C146.667 60.96 146.627 61 146.547 61H145.935C145.855 61 145.815 60.96 145.815 60.88V55.048C145.815 54.968 145.855 54.928 145.935 54.928H146.547C146.627 54.928 146.667 54.968 146.667 55.048V55.564C146.667 55.58 146.671 55.592 146.679 55.6C146.695 55.608 146.707 55.604 146.715 55.588C147.067 55.092 147.607 54.844 148.335 54.844ZM157.411 55.516C157.411 55.596 157.371 55.636 157.291 55.636H155.935C155.903 55.636 155.887 55.652 155.887 55.684V59.224C155.887 59.608 155.971 59.88 156.139 60.04C156.315 60.192 156.587 60.268 156.955 60.268H157.255C157.335 60.268 157.375 60.308 157.375 60.388V60.88C157.375 60.96 157.335 61 157.255 61C157.159 61.008 157.011 61.012 156.811 61.012C156.235 61.012 155.799 60.904 155.503 60.688C155.207 60.472 155.059 60.072 155.059 59.488V55.684C155.059 55.652 155.043 55.636 155.011 55.636H154.279C154.199 55.636 154.159 55.596 154.159 55.516V55.048C154.159 54.968 154.199 54.928 154.279 54.928H155.011C155.043 54.928 155.059 54.912 155.059 54.88V53.488C155.059 53.408 155.099 53.368 155.179 53.368H155.767C155.847 53.368 155.887 53.408 155.887 53.488V54.88C155.887 54.912 155.903 54.928 155.935 54.928H157.291C157.371 54.928 157.411 54.968 157.411 55.048V55.516ZM161.198 61.096C160.622 61.096 160.126 60.948 159.71 60.652C159.294 60.356 159.006 59.948 158.846 59.428C158.734 59.06 158.678 58.568 158.678 57.952C158.678 57.336 158.734 56.848 158.846 56.488C158.998 55.976 159.282 55.572 159.698 55.276C160.114 54.98 160.618 54.832 161.21 54.832C161.778 54.832 162.266 54.98 162.674 55.276C163.09 55.572 163.374 55.972 163.526 56.476C163.638 56.82 163.694 57.312 163.694 57.952C163.694 58.6 163.638 59.092 163.526 59.428C163.374 59.948 163.09 60.356 162.674 60.652C162.266 60.948 161.774 61.096 161.198 61.096ZM161.198 60.352C161.582 60.352 161.91 60.248 162.182 60.04C162.454 59.824 162.638 59.536 162.734 59.176C162.806 58.888 162.842 58.484 162.842 57.964C162.842 57.436 162.81 57.032 162.746 56.752C162.65 56.392 162.462 56.108 162.182 55.9C161.91 55.684 161.578 55.576 161.186 55.576C160.794 55.576 160.462 55.684 160.19 55.9C159.918 56.108 159.734 56.392 159.638 56.752C159.574 57.032 159.542 57.436 159.542 57.964C159.542 58.492 159.574 58.896 159.638 59.176C159.726 59.536 159.906 59.824 160.178 60.04C160.458 60.248 160.798 60.352 161.198 60.352ZM165.541 61C165.461 61 165.421 60.96 165.421 60.88V52.72C165.421 52.64 165.461 52.6 165.541 52.6H166.153C166.233 52.6 166.273 52.64 166.273 52.72V57.628C166.273 57.644 166.277 57.656 166.285 57.664C166.301 57.672 166.317 57.668 166.333 57.652L168.877 54.988C168.917 54.948 168.965 54.928 169.021 54.928H169.741C169.789 54.928 169.821 54.944 169.837 54.976C169.853 55.008 169.845 55.04 169.813 55.072L168.277 56.776C168.261 56.792 168.257 56.812 168.265 56.836L170.101 60.856L170.113 60.904C170.113 60.968 170.077 61 170.005 61H169.357C169.293 61 169.249 60.968 169.225 60.904L167.677 57.4C167.661 57.368 167.641 57.364 167.617 57.388L166.297 58.78C166.281 58.796 166.273 58.816 166.273 58.84V60.88C166.273 60.96 166.233 61 166.153 61H165.541ZM175.866 56.944C175.898 57.168 175.914 57.448 175.914 57.784V58.168C175.914 58.248 175.874 58.288 175.794 58.288H171.918C171.886 58.288 171.87 58.304 171.87 58.336C171.886 58.776 171.91 59.06 171.942 59.188C172.03 59.548 172.218 59.832 172.506 60.04C172.794 60.248 173.162 60.352 173.61 60.352C173.946 60.352 174.242 60.276 174.498 60.124C174.754 59.972 174.954 59.756 175.098 59.476C175.146 59.404 175.202 59.388 175.266 59.428L175.734 59.704C175.798 59.744 175.814 59.8 175.782 59.872C175.582 60.256 175.282 60.56 174.882 60.784C174.482 61 174.022 61.108 173.502 61.108C172.934 61.1 172.458 60.964 172.074 60.7C171.69 60.436 171.414 60.068 171.246 59.596C171.102 59.212 171.03 58.66 171.03 57.94C171.03 57.604 171.034 57.332 171.042 57.124C171.058 56.908 171.09 56.716 171.138 56.548C171.274 56.028 171.546 55.612 171.954 55.3C172.37 54.988 172.87 54.832 173.454 54.832C174.182 54.832 174.742 55.016 175.134 55.384C175.526 55.752 175.77 56.272 175.866 56.944ZM173.454 55.576C173.062 55.576 172.734 55.68 172.47 55.888C172.214 56.088 172.046 56.36 171.966 56.704C171.918 56.872 171.886 57.144 171.87 57.52C171.87 57.552 171.886 57.568 171.918 57.568H175.026C175.058 57.568 175.074 57.552 175.074 57.52C175.058 57.16 175.034 56.904 175.002 56.752C174.914 56.392 174.734 56.108 174.462 55.9C174.198 55.684 173.862 55.576 173.454 55.576ZM180.128 54.844C180.768 54.844 181.276 55.032 181.652 55.408C182.036 55.784 182.228 56.288 182.228 56.92V60.88C182.228 60.96 182.188 61 182.108 61H181.496C181.416 61 181.376 60.96 181.376 60.88V57.088C181.376 56.648 181.24 56.288 180.968 56.008C180.704 55.728 180.36 55.588 179.936 55.588C179.496 55.588 179.14 55.724 178.868 55.996C178.596 56.268 178.46 56.624 178.46 57.064V60.88C178.46 60.96 178.42 61 178.34 61H177.728C177.648 61 177.608 60.96 177.608 60.88V55.048C177.608 54.968 177.648 54.928 177.728 54.928H178.34C178.42 54.928 178.46 54.968 178.46 55.048V55.564C178.46 55.58 178.464 55.592 178.472 55.6C178.488 55.608 178.5 55.604 178.508 55.588C178.86 55.092 179.4 54.844 180.128 54.844ZM189.204 55.516C189.204 55.596 189.164 55.636 189.084 55.636H187.728C187.696 55.636 187.68 55.652 187.68 55.684V59.224C187.68 59.608 187.764 59.88 187.932 60.04C188.108 60.192 188.38 60.268 188.748 60.268H189.048C189.128 60.268 189.168 60.308 189.168 60.388V60.88C189.168 60.96 189.128 61 189.048 61C188.952 61.008 188.804 61.012 188.604 61.012C188.028 61.012 187.592 60.904 187.296 60.688C187 60.472 186.852 60.072 186.852 59.488V55.684C186.852 55.652 186.836 55.636 186.804 55.636H186.072C185.992 55.636 185.952 55.596 185.952 55.516V55.048C185.952 54.968 185.992 54.928 186.072 54.928H186.804C186.836 54.928 186.852 54.912 186.852 54.88V53.488C186.852 53.408 186.892 53.368 186.972 53.368H187.56C187.64 53.368 187.68 53.408 187.68 53.488V54.88C187.68 54.912 187.696 54.928 187.728 54.928H189.084C189.164 54.928 189.204 54.968 189.204 55.048V55.516ZM193.371 54.844C194.011 54.844 194.519 55.032 194.895 55.408C195.279 55.784 195.471 56.288 195.471 56.92V60.88C195.471 60.96 195.431 61 195.351 61H194.739C194.659 61 194.619 60.96 194.619 60.88V57.088C194.619 56.648 194.483 56.288 194.211 56.008C193.947 55.728 193.603 55.588 193.179 55.588C192.739 55.588 192.383 55.724 192.111 55.996C191.839 56.268 191.703 56.624 191.703 57.064V60.88C191.703 60.96 191.663 61 191.583 61H190.971C190.891 61 190.851 60.96 190.851 60.88V52.72C190.851 52.64 190.891 52.6 190.971 52.6H191.583C191.663 52.6 191.703 52.64 191.703 52.72V55.564C191.703 55.58 191.707 55.592 191.715 55.6C191.731 55.608 191.743 55.604 191.751 55.588C192.103 55.092 192.643 54.844 193.371 54.844ZM199.419 54.832C200.139 54.832 200.695 55.016 201.087 55.384C201.479 55.752 201.675 56.24 201.675 56.848V60.88C201.675 60.96 201.635 61 201.555 61H200.943C200.863 61 200.823 60.96 200.823 60.88V60.388C200.823 60.372 200.815 60.36 200.799 60.352C200.791 60.344 200.779 60.348 200.763 60.364C200.563 60.604 200.303 60.788 199.983 60.916C199.663 61.036 199.307 61.096 198.915 61.096C198.347 61.096 197.871 60.952 197.487 60.664C197.103 60.376 196.911 59.936 196.911 59.344C196.911 58.744 197.127 58.272 197.559 57.928C197.999 57.576 198.607 57.4 199.383 57.4H200.775C200.807 57.4 200.823 57.384 200.823 57.352V56.896C200.823 56.488 200.707 56.168 200.475 55.936C200.251 55.696 199.899 55.576 199.419 55.576C199.035 55.576 198.723 55.652 198.483 55.804C198.243 55.948 198.095 56.152 198.039 56.416C198.015 56.496 197.967 56.532 197.895 56.524L197.247 56.44C197.159 56.424 197.123 56.392 197.139 56.344C197.203 55.896 197.443 55.532 197.859 55.252C198.275 54.972 198.795 54.832 199.419 54.832ZM199.083 60.364C199.555 60.364 199.963 60.248 200.307 60.016C200.651 59.776 200.823 59.456 200.823 59.056V58.12C200.823 58.088 200.807 58.072 200.775 58.072H199.515C198.987 58.072 198.563 58.18 198.243 58.396C197.923 58.612 197.763 58.912 197.763 59.296C197.763 59.648 197.883 59.916 198.123 60.1C198.371 60.276 198.691 60.364 199.083 60.364ZM206.125 55.516C206.125 55.596 206.085 55.636 206.005 55.636H204.649C204.617 55.636 204.601 55.652 204.601 55.684V59.224C204.601 59.608 204.685 59.88 204.853 60.04C205.029 60.192 205.301 60.268 205.669 60.268H205.969C206.049 60.268 206.089 60.308 206.089 60.388V60.88C206.089 60.96 206.049 61 205.969 61C205.873 61.008 205.725 61.012 205.525 61.012C204.949 61.012 204.513 60.904 204.217 60.688C203.921 60.472 203.773 60.072 203.773 59.488V55.684C203.773 55.652 203.757 55.636 203.725 55.636H202.993C202.913 55.636 202.873 55.596 202.873 55.516V55.048C202.873 54.968 202.913 54.928 202.993 54.928H203.725C203.757 54.928 203.773 54.912 203.773 54.88V53.488C203.773 53.408 203.813 53.368 203.893 53.368H204.481C204.561 53.368 204.601 53.408 204.601 53.488V54.88C204.601 54.912 204.617 54.928 204.649 54.928H206.005C206.085 54.928 206.125 54.968 206.125 55.048V55.516ZM216.319 54.844C216.919 54.844 217.391 55.024 217.735 55.384C218.087 55.744 218.263 56.236 218.263 56.86V60.88C218.263 60.96 218.223 61 218.143 61H217.543C217.463 61 217.423 60.96 217.423 60.88V57.028C217.423 56.588 217.295 56.24 217.039 55.984C216.791 55.72 216.463 55.588 216.055 55.588C215.631 55.588 215.287 55.716 215.023 55.972C214.767 56.228 214.639 56.572 214.639 57.004V60.88C214.639 60.96 214.599 61 214.519 61H213.907C213.827 61 213.787 60.96 213.787 60.88V57.028C213.787 56.588 213.663 56.24 213.415 55.984C213.167 55.72 212.835 55.588 212.419 55.588C211.995 55.588 211.655 55.716 211.399 55.972C211.151 56.228 211.027 56.572 211.027 57.004V60.88C211.027 60.96 210.987 61 210.907 61H210.295C210.215 61 210.175 60.96 210.175 60.88V55.048C210.175 54.968 210.215 54.928 210.295 54.928H210.907C210.987 54.928 211.027 54.968 211.027 55.048V55.528C211.027 55.544 211.031 55.556 211.039 55.564C211.055 55.564 211.071 55.556 211.087 55.54C211.263 55.308 211.487 55.136 211.759 55.024C212.039 54.904 212.347 54.844 212.683 54.844C213.099 54.844 213.455 54.928 213.751 55.096C214.047 55.264 214.271 55.508 214.423 55.828C214.439 55.868 214.459 55.868 214.483 55.828C214.659 55.5 214.907 55.256 215.227 55.096C215.547 54.928 215.911 54.844 216.319 54.844ZM223.773 55.048C223.773 54.968 223.813 54.928 223.893 54.928H224.505C224.585 54.928 224.625 54.968 224.625 55.048V60.88C224.625 60.96 224.585 61 224.505 61H223.893C223.813 61 223.773 60.96 223.773 60.88V60.364C223.773 60.348 223.765 60.336 223.749 60.328C223.733 60.32 223.721 60.324 223.713 60.34C223.377 60.836 222.845 61.084 222.117 61.084C221.733 61.084 221.377 61.008 221.049 60.856C220.729 60.696 220.473 60.468 220.281 60.172C220.097 59.876 220.005 59.52 220.005 59.104V55.048C220.005 54.968 220.045 54.928 220.125 54.928H220.737C220.817 54.928 220.857 54.968 220.857 55.048V58.852C220.857 59.308 220.985 59.672 221.241 59.944C221.497 60.208 221.845 60.34 222.285 60.34C222.741 60.34 223.101 60.204 223.365 59.932C223.637 59.66 223.773 59.3 223.773 58.852V55.048ZM228.526 61.06C228.078 61.06 227.678 60.988 227.326 60.844C226.982 60.7 226.714 60.508 226.522 60.268C226.338 60.028 226.246 59.76 226.246 59.464V59.32C226.246 59.24 226.286 59.2 226.366 59.2H226.942C227.022 59.2 227.062 59.24 227.062 59.32V59.416C227.062 59.68 227.198 59.912 227.47 60.112C227.75 60.304 228.098 60.4 228.514 60.4C228.93 60.4 229.266 60.308 229.522 60.124C229.778 59.932 229.906 59.692 229.906 59.404C229.906 59.204 229.838 59.04 229.702 58.912C229.574 58.784 229.418 58.684 229.234 58.612C229.058 58.54 228.782 58.448 228.406 58.336C227.958 58.208 227.59 58.08 227.302 57.952C227.014 57.824 226.77 57.648 226.57 57.424C226.378 57.192 226.282 56.9 226.282 56.548C226.282 56.036 226.482 55.628 226.882 55.324C227.282 55.02 227.81 54.868 228.466 54.868C228.906 54.868 229.294 54.94 229.63 55.084C229.974 55.228 230.238 55.428 230.422 55.684C230.606 55.932 230.698 56.212 230.698 56.524V56.56C230.698 56.64 230.658 56.68 230.578 56.68H230.014C229.934 56.68 229.894 56.64 229.894 56.56V56.524C229.894 56.252 229.762 56.024 229.498 55.84C229.242 55.656 228.894 55.564 228.454 55.564C228.046 55.564 227.718 55.648 227.47 55.816C227.222 55.976 227.098 56.2 227.098 56.488C227.098 56.76 227.218 56.968 227.458 57.112C227.698 57.256 228.07 57.4 228.574 57.544C229.038 57.68 229.414 57.808 229.702 57.928C229.99 58.048 230.238 58.224 230.446 58.456C230.654 58.68 230.758 58.976 230.758 59.344C230.758 59.864 230.554 60.28 230.146 60.592C229.738 60.904 229.198 61.06 228.526 61.06ZM235.024 55.516C235.024 55.596 234.984 55.636 234.904 55.636H233.548C233.516 55.636 233.5 55.652 233.5 55.684V59.224C233.5 59.608 233.584 59.88 233.752 60.04C233.928 60.192 234.2 60.268 234.568 60.268H234.868C234.948 60.268 234.988 60.308 234.988 60.388V60.88C234.988 60.96 234.948 61 234.868 61C234.772 61.008 234.624 61.012 234.424 61.012C233.848 61.012 233.412 60.904 233.116 60.688C232.82 60.472 232.672 60.072 232.672 59.488V55.684C232.672 55.652 232.656 55.636 232.624 55.636H231.892C231.812 55.636 231.772 55.596 231.772 55.516V55.048C231.772 54.968 231.812 54.928 231.892 54.928H232.624C232.656 54.928 232.672 54.912 232.672 54.88V53.488C232.672 53.408 232.712 53.368 232.792 53.368H233.38C233.46 53.368 233.5 53.408 233.5 53.488V54.88C233.5 54.912 233.516 54.928 233.548 54.928H234.904C234.984 54.928 235.024 54.968 235.024 55.048V55.516ZM241.593 54.844C242.233 54.844 242.741 55.032 243.117 55.408C243.501 55.784 243.693 56.288 243.693 56.92V60.88C243.693 60.96 243.653 61 243.573 61H242.961C242.881 61 242.841 60.96 242.841 60.88V57.088C242.841 56.648 242.705 56.288 242.433 56.008C242.169 55.728 241.825 55.588 241.401 55.588C240.961 55.588 240.605 55.724 240.333 55.996C240.061 56.268 239.925 56.624 239.925 57.064V60.88C239.925 60.96 239.885 61 239.805 61H239.193C239.113 61 239.073 60.96 239.073 60.88V52.72C239.073 52.64 239.113 52.6 239.193 52.6H239.805C239.885 52.6 239.925 52.64 239.925 52.72V55.564C239.925 55.58 239.929 55.592 239.937 55.6C239.953 55.608 239.965 55.604 239.973 55.588C240.325 55.092 240.865 54.844 241.593 54.844ZM247.642 54.832C248.362 54.832 248.918 55.016 249.31 55.384C249.702 55.752 249.898 56.24 249.898 56.848V60.88C249.898 60.96 249.858 61 249.778 61H249.166C249.086 61 249.046 60.96 249.046 60.88V60.388C249.046 60.372 249.038 60.36 249.022 60.352C249.014 60.344 249.002 60.348 248.986 60.364C248.786 60.604 248.526 60.788 248.206 60.916C247.886 61.036 247.53 61.096 247.138 61.096C246.57 61.096 246.094 60.952 245.71 60.664C245.326 60.376 245.134 59.936 245.134 59.344C245.134 58.744 245.35 58.272 245.782 57.928C246.222 57.576 246.83 57.4 247.606 57.4H248.998C249.03 57.4 249.046 57.384 249.046 57.352V56.896C249.046 56.488 248.93 56.168 248.698 55.936C248.474 55.696 248.122 55.576 247.642 55.576C247.258 55.576 246.946 55.652 246.706 55.804C246.466 55.948 246.318 56.152 246.262 56.416C246.238 56.496 246.19 56.532 246.118 56.524L245.47 56.44C245.382 56.424 245.346 56.392 245.362 56.344C245.426 55.896 245.666 55.532 246.082 55.252C246.498 54.972 247.018 54.832 247.642 54.832ZM247.306 60.364C247.778 60.364 248.186 60.248 248.53 60.016C248.874 59.776 249.046 59.456 249.046 59.056V58.12C249.046 58.088 249.03 58.072 248.998 58.072H247.738C247.21 58.072 246.786 58.18 246.466 58.396C246.146 58.612 245.986 58.912 245.986 59.296C245.986 59.648 246.106 59.916 246.346 60.1C246.594 60.276 246.914 60.364 247.306 60.364ZM253.149 61C253.077 61 253.029 60.968 253.005 60.904L251.037 55.06L251.025 55.012C251.025 54.956 251.061 54.928 251.133 54.928H251.817C251.889 54.928 251.937 54.96 251.961 55.024L253.461 59.728C253.469 59.744 253.481 59.752 253.497 59.752C253.513 59.752 253.525 59.744 253.533 59.728L255.033 55.024C255.057 54.96 255.105 54.928 255.177 54.928L255.861 54.94C255.949 54.94 255.981 54.984 255.957 55.072L253.989 60.904C253.965 60.968 253.917 61 253.845 61H253.149ZM261.753 56.944C261.785 57.168 261.801 57.448 261.801 57.784V58.168C261.801 58.248 261.761 58.288 261.681 58.288H257.805C257.773 58.288 257.757 58.304 257.757 58.336C257.773 58.776 257.797 59.06 257.829 59.188C257.917 59.548 258.105 59.832 258.393 60.04C258.681 60.248 259.049 60.352 259.497 60.352C259.833 60.352 260.129 60.276 260.385 60.124C260.641 59.972 260.841 59.756 260.985 59.476C261.033 59.404 261.089 59.388 261.153 59.428L261.621 59.704C261.685 59.744 261.701 59.8 261.669 59.872C261.469 60.256 261.169 60.56 260.769 60.784C260.369 61 259.909 61.108 259.389 61.108C258.821 61.1 258.345 60.964 257.961 60.7C257.577 60.436 257.301 60.068 257.133 59.596C256.989 59.212 256.917 58.66 256.917 57.94C256.917 57.604 256.921 57.332 256.929 57.124C256.945 56.908 256.977 56.716 257.025 56.548C257.161 56.028 257.433 55.612 257.841 55.3C258.257 54.988 258.757 54.832 259.341 54.832C260.069 54.832 260.629 55.016 261.021 55.384C261.413 55.752 261.657 56.272 261.753 56.944ZM259.341 55.576C258.949 55.576 258.621 55.68 258.357 55.888C258.101 56.088 257.933 56.36 257.853 56.704C257.805 56.872 257.773 57.144 257.757 57.52C257.757 57.552 257.773 57.568 257.805 57.568H260.913C260.945 57.568 260.961 57.552 260.961 57.52C260.945 57.16 260.921 56.904 260.889 56.752C260.801 56.392 260.621 56.108 260.349 55.9C260.085 55.684 259.749 55.576 259.341 55.576ZM270.566 56.476C270.662 56.836 270.71 57.332 270.71 57.964C270.71 58.62 270.654 59.128 270.542 59.488C270.39 59.984 270.126 60.376 269.75 60.664C269.374 60.952 268.906 61.096 268.346 61.096C268.026 61.096 267.734 61.032 267.47 60.904C267.206 60.776 266.986 60.592 266.81 60.352C266.802 60.336 266.79 60.332 266.774 60.34C266.758 60.34 266.75 60.348 266.75 60.364V60.88C266.75 60.96 266.71 61 266.63 61H266.018C265.938 61 265.898 60.96 265.898 60.88V52.72C265.898 52.64 265.938 52.6 266.018 52.6H266.63C266.71 52.6 266.75 52.64 266.75 52.72V55.552C266.75 55.568 266.754 55.58 266.762 55.588C266.778 55.588 266.794 55.58 266.81 55.564C266.986 55.332 267.206 55.152 267.47 55.024C267.734 54.896 268.026 54.832 268.346 54.832C268.914 54.832 269.39 54.98 269.774 55.276C270.158 55.564 270.422 55.964 270.566 56.476ZM269.642 59.416C269.722 59.248 269.778 59.06 269.81 58.852C269.842 58.636 269.858 58.34 269.858 57.964C269.858 57.572 269.834 57.268 269.786 57.052C269.746 56.828 269.678 56.628 269.582 56.452C269.478 56.188 269.31 55.976 269.078 55.816C268.846 55.656 268.57 55.576 268.25 55.576C267.946 55.576 267.682 55.66 267.458 55.828C267.242 55.988 267.086 56.204 266.99 56.476C266.91 56.644 266.85 56.836 266.81 57.052C266.778 57.268 266.762 57.572 266.762 57.964C266.762 58.348 266.778 58.648 266.81 58.864C266.85 59.072 266.906 59.26 266.978 59.428C267.082 59.708 267.242 59.932 267.458 60.1C267.674 60.268 267.942 60.352 268.262 60.352C268.598 60.352 268.886 60.268 269.126 60.1C269.374 59.932 269.546 59.704 269.642 59.416ZM277.022 56.944C277.054 57.168 277.07 57.448 277.07 57.784V58.168C277.07 58.248 277.03 58.288 276.95 58.288H273.074C273.042 58.288 273.026 58.304 273.026 58.336C273.042 58.776 273.066 59.06 273.098 59.188C273.186 59.548 273.374 59.832 273.662 60.04C273.95 60.248 274.318 60.352 274.766 60.352C275.102 60.352 275.398 60.276 275.654 60.124C275.91 59.972 276.11 59.756 276.254 59.476C276.302 59.404 276.358 59.388 276.422 59.428L276.89 59.704C276.954 59.744 276.97 59.8 276.938 59.872C276.738 60.256 276.438 60.56 276.038 60.784C275.638 61 275.178 61.108 274.658 61.108C274.09 61.1 273.614 60.964 273.23 60.7C272.846 60.436 272.57 60.068 272.402 59.596C272.258 59.212 272.186 58.66 272.186 57.94C272.186 57.604 272.19 57.332 272.198 57.124C272.214 56.908 272.246 56.716 272.294 56.548C272.43 56.028 272.702 55.612 273.11 55.3C273.526 54.988 274.026 54.832 274.61 54.832C275.338 54.832 275.898 55.016 276.29 55.384C276.682 55.752 276.926 56.272 277.022 56.944ZM274.61 55.576C274.218 55.576 273.89 55.68 273.626 55.888C273.37 56.088 273.202 56.36 273.122 56.704C273.074 56.872 273.042 57.144 273.026 57.52C273.026 57.552 273.042 57.568 273.074 57.568H276.182C276.214 57.568 276.23 57.552 276.23 57.52C276.214 57.16 276.19 56.904 276.158 56.752C276.07 56.392 275.89 56.108 275.618 55.9C275.354 55.684 275.018 55.576 274.61 55.576ZM283.421 56.944C283.453 57.168 283.469 57.448 283.469 57.784V58.168C283.469 58.248 283.429 58.288 283.349 58.288H279.473C279.441 58.288 279.425 58.304 279.425 58.336C279.441 58.776 279.465 59.06 279.497 59.188C279.585 59.548 279.773 59.832 280.061 60.04C280.349 60.248 280.717 60.352 281.165 60.352C281.501 60.352 281.797 60.276 282.053 60.124C282.309 59.972 282.509 59.756 282.653 59.476C282.701 59.404 282.757 59.388 282.821 59.428L283.289 59.704C283.353 59.744 283.369 59.8 283.337 59.872C283.137 60.256 282.837 60.56 282.437 60.784C282.037 61 281.577 61.108 281.057 61.108C280.489 61.1 280.013 60.964 279.629 60.7C279.245 60.436 278.969 60.068 278.801 59.596C278.657 59.212 278.585 58.66 278.585 57.94C278.585 57.604 278.589 57.332 278.597 57.124C278.613 56.908 278.645 56.716 278.693 56.548C278.829 56.028 279.101 55.612 279.509 55.3C279.925 54.988 280.425 54.832 281.009 54.832C281.737 54.832 282.297 55.016 282.689 55.384C283.081 55.752 283.325 56.272 283.421 56.944ZM281.009 55.576C280.617 55.576 280.289 55.68 280.025 55.888C279.769 56.088 279.601 56.36 279.521 56.704C279.473 56.872 279.441 57.144 279.425 57.52C279.425 57.552 279.441 57.568 279.473 57.568H282.581C282.613 57.568 282.629 57.552 282.629 57.52C282.613 57.16 282.589 56.904 282.557 56.752C282.469 56.392 282.289 56.108 282.017 55.9C281.753 55.684 281.417 55.576 281.009 55.576ZM287.683 54.844C288.323 54.844 288.831 55.032 289.207 55.408C289.591 55.784 289.783 56.288 289.783 56.92V60.88C289.783 60.96 289.743 61 289.663 61H289.051C288.971 61 288.931 60.96 288.931 60.88V57.088C288.931 56.648 288.795 56.288 288.523 56.008C288.259 55.728 287.915 55.588 287.491 55.588C287.051 55.588 286.695 55.724 286.423 55.996C286.151 56.268 286.015 56.624 286.015 57.064V60.88C286.015 60.96 285.975 61 285.895 61H285.283C285.203 61 285.163 60.96 285.163 60.88V55.048C285.163 54.968 285.203 54.928 285.283 54.928H285.895C285.975 54.928 286.015 54.968 286.015 55.048V55.564C286.015 55.58 286.019 55.592 286.027 55.6C286.043 55.608 286.055 55.604 286.063 55.588C286.415 55.092 286.955 54.844 287.683 54.844ZM296.326 61.096C295.75 61.096 295.254 60.948 294.838 60.652C294.43 60.348 294.15 59.94 293.998 59.428C293.894 59.076 293.842 58.58 293.842 57.94C293.842 57.364 293.894 56.876 293.998 56.476C294.142 55.98 294.422 55.584 294.838 55.288C295.254 54.984 295.75 54.832 296.326 54.832C296.91 54.832 297.414 54.98 297.838 55.276C298.27 55.572 298.55 55.94 298.678 56.38C298.718 56.524 298.742 56.644 298.75 56.74V56.764C298.75 56.82 298.714 56.856 298.642 56.872L298.042 56.956H298.018C297.962 56.956 297.926 56.92 297.91 56.848L297.874 56.668C297.802 56.364 297.626 56.108 297.346 55.9C297.066 55.684 296.726 55.576 296.326 55.576C295.926 55.576 295.59 55.684 295.318 55.9C295.054 56.108 294.882 56.388 294.802 56.74C294.73 57.044 294.694 57.448 294.694 57.952C294.694 58.48 294.73 58.888 294.802 59.176C294.882 59.536 295.054 59.824 295.318 60.04C295.59 60.248 295.926 60.352 296.326 60.352C296.718 60.352 297.054 60.252 297.334 60.052C297.622 59.844 297.802 59.58 297.874 59.26V59.212L297.886 59.164C297.894 59.084 297.942 59.052 298.03 59.068L298.618 59.164C298.698 59.18 298.734 59.224 298.726 59.296L298.678 59.536C298.558 60 298.282 60.376 297.85 60.664C297.418 60.952 296.91 61.096 296.326 61.096ZM302.717 54.868C302.981 54.868 303.209 54.92 303.401 55.024C303.465 55.056 303.489 55.108 303.473 55.18L303.341 55.768C303.317 55.848 303.265 55.872 303.185 55.84C303.049 55.784 302.893 55.756 302.717 55.756L302.561 55.768C302.145 55.784 301.801 55.94 301.529 56.236C301.257 56.524 301.121 56.892 301.121 57.34V60.88C301.121 60.96 301.081 61 301.001 61H300.389C300.309 61 300.269 60.96 300.269 60.88V55.048C300.269 54.968 300.309 54.928 300.389 54.928H301.001C301.081 54.928 301.121 54.968 301.121 55.048V55.78C301.121 55.804 301.125 55.82 301.133 55.828C301.149 55.828 301.161 55.82 301.169 55.804C301.337 55.508 301.549 55.28 301.805 55.12C302.069 54.952 302.373 54.868 302.717 54.868ZM309.237 56.944C309.269 57.168 309.285 57.448 309.285 57.784V58.168C309.285 58.248 309.245 58.288 309.165 58.288H305.289C305.257 58.288 305.241 58.304 305.241 58.336C305.257 58.776 305.281 59.06 305.313 59.188C305.401 59.548 305.589 59.832 305.877 60.04C306.165 60.248 306.533 60.352 306.981 60.352C307.317 60.352 307.613 60.276 307.869 60.124C308.125 59.972 308.325 59.756 308.469 59.476C308.517 59.404 308.573 59.388 308.637 59.428L309.105 59.704C309.169 59.744 309.185 59.8 309.153 59.872C308.953 60.256 308.653 60.56 308.253 60.784C307.853 61 307.393 61.108 306.873 61.108C306.305 61.1 305.829 60.964 305.445 60.7C305.061 60.436 304.785 60.068 304.617 59.596C304.473 59.212 304.401 58.66 304.401 57.94C304.401 57.604 304.405 57.332 304.413 57.124C304.429 56.908 304.461 56.716 304.509 56.548C304.645 56.028 304.917 55.612 305.325 55.3C305.741 54.988 306.241 54.832 306.825 54.832C307.553 54.832 308.113 55.016 308.505 55.384C308.897 55.752 309.141 56.272 309.237 56.944ZM306.825 55.576C306.433 55.576 306.105 55.68 305.841 55.888C305.585 56.088 305.417 56.36 305.337 56.704C305.289 56.872 305.257 57.144 305.241 57.52C305.241 57.552 305.257 57.568 305.289 57.568H308.397C308.429 57.568 308.445 57.552 308.445 57.52C308.429 57.16 308.405 56.904 308.373 56.752C308.285 56.392 308.105 56.108 307.833 55.9C307.569 55.684 307.233 55.576 306.825 55.576ZM313.021 54.832C313.741 54.832 314.297 55.016 314.689 55.384C315.081 55.752 315.277 56.24 315.277 56.848V60.88C315.277 60.96 315.237 61 315.157 61H314.545C314.465 61 314.425 60.96 314.425 60.88V60.388C314.425 60.372 314.417 60.36 314.401 60.352C314.393 60.344 314.381 60.348 314.365 60.364C314.165 60.604 313.905 60.788 313.585 60.916C313.265 61.036 312.909 61.096 312.517 61.096C311.949 61.096 311.473 60.952 311.089 60.664C310.705 60.376 310.513 59.936 310.513 59.344C310.513 58.744 310.729 58.272 311.161 57.928C311.601 57.576 312.209 57.4 312.985 57.4H314.377C314.409 57.4 314.425 57.384 314.425 57.352V56.896C314.425 56.488 314.309 56.168 314.077 55.936C313.853 55.696 313.501 55.576 313.021 55.576C312.637 55.576 312.325 55.652 312.085 55.804C311.845 55.948 311.697 56.152 311.641 56.416C311.617 56.496 311.569 56.532 311.497 56.524L310.849 56.44C310.761 56.424 310.725 56.392 310.741 56.344C310.805 55.896 311.045 55.532 311.461 55.252C311.877 54.972 312.397 54.832 313.021 54.832ZM312.685 60.364C313.157 60.364 313.565 60.248 313.909 60.016C314.253 59.776 314.425 59.456 314.425 59.056V58.12C314.425 58.088 314.409 58.072 314.377 58.072H313.117C312.589 58.072 312.165 58.18 311.845 58.396C311.525 58.612 311.365 58.912 311.365 59.296C311.365 59.648 311.485 59.916 311.725 60.1C311.973 60.276 312.293 60.364 312.685 60.364ZM319.727 55.516C319.727 55.596 319.687 55.636 319.607 55.636H318.251C318.219 55.636 318.203 55.652 318.203 55.684V59.224C318.203 59.608 318.287 59.88 318.455 60.04C318.631 60.192 318.903 60.268 319.271 60.268H319.571C319.651 60.268 319.691 60.308 319.691 60.388V60.88C319.691 60.96 319.651 61 319.571 61C319.475 61.008 319.327 61.012 319.127 61.012C318.551 61.012 318.115 60.904 317.819 60.688C317.523 60.472 317.375 60.072 317.375 59.488V55.684C317.375 55.652 317.359 55.636 317.327 55.636H316.595C316.515 55.636 316.475 55.596 316.475 55.516V55.048C316.475 54.968 316.515 54.928 316.595 54.928H317.327C317.359 54.928 317.375 54.912 317.375 54.88V53.488C317.375 53.408 317.415 53.368 317.495 53.368H318.083C318.163 53.368 318.203 53.408 318.203 53.488V54.88C318.203 54.912 318.219 54.928 318.251 54.928H319.607C319.687 54.928 319.727 54.968 319.727 55.048V55.516ZM325.854 56.944C325.886 57.168 325.902 57.448 325.902 57.784V58.168C325.902 58.248 325.862 58.288 325.782 58.288H321.906C321.874 58.288 321.858 58.304 321.858 58.336C321.874 58.776 321.898 59.06 321.93 59.188C322.018 59.548 322.206 59.832 322.494 60.04C322.782 60.248 323.15 60.352 323.598 60.352C323.934 60.352 324.23 60.276 324.486 60.124C324.742 59.972 324.942 59.756 325.086 59.476C325.134 59.404 325.19 59.388 325.254 59.428L325.722 59.704C325.786 59.744 325.802 59.8 325.77 59.872C325.57 60.256 325.27 60.56 324.87 60.784C324.47 61 324.01 61.108 323.49 61.108C322.922 61.1 322.446 60.964 322.062 60.7C321.678 60.436 321.402 60.068 321.234 59.596C321.09 59.212 321.018 58.66 321.018 57.94C321.018 57.604 321.022 57.332 321.03 57.124C321.046 56.908 321.078 56.716 321.126 56.548C321.262 56.028 321.534 55.612 321.942 55.3C322.358 54.988 322.858 54.832 323.442 54.832C324.17 54.832 324.73 55.016 325.122 55.384C325.514 55.752 325.758 56.272 325.854 56.944ZM323.442 55.576C323.05 55.576 322.722 55.68 322.458 55.888C322.202 56.088 322.034 56.36 321.954 56.704C321.906 56.872 321.874 57.144 321.858 57.52C321.858 57.552 321.874 57.568 321.906 57.568H325.014C325.046 57.568 325.062 57.552 325.062 57.52C325.046 57.16 325.022 56.904 324.99 56.752C324.902 56.392 324.722 56.108 324.45 55.9C324.186 55.684 323.85 55.576 323.442 55.576ZM331.365 52.72C331.365 52.64 331.405 52.6 331.485 52.6H332.097C332.177 52.6 332.217 52.64 332.217 52.72V60.88C332.217 60.96 332.177 61 332.097 61H331.485C331.405 61 331.365 60.96 331.365 60.88V60.376C331.365 60.36 331.357 60.352 331.341 60.352C331.333 60.344 331.321 60.348 331.305 60.364C331.129 60.596 330.909 60.776 330.645 60.904C330.389 61.032 330.101 61.096 329.781 61.096C329.221 61.096 328.749 60.952 328.365 60.664C327.989 60.376 327.729 59.984 327.585 59.488C327.473 59.128 327.417 58.62 327.417 57.964C327.417 57.3 327.465 56.804 327.561 56.476C327.705 55.964 327.969 55.564 328.353 55.276C328.737 54.98 329.213 54.832 329.781 54.832C330.093 54.832 330.381 54.896 330.645 55.024C330.909 55.144 331.129 55.32 331.305 55.552C331.321 55.568 331.333 55.576 331.341 55.576C331.357 55.568 331.365 55.556 331.365 55.54V52.72ZM331.149 59.428C331.221 59.268 331.273 59.08 331.305 58.864C331.337 58.648 331.353 58.348 331.353 57.964C331.353 57.58 331.337 57.28 331.305 57.064C331.273 56.84 331.217 56.644 331.137 56.476C331.041 56.204 330.881 55.988 330.657 55.828C330.441 55.66 330.181 55.576 329.877 55.576C329.557 55.576 329.281 55.656 329.049 55.816C328.817 55.976 328.649 56.188 328.545 56.452C328.449 56.628 328.377 56.828 328.329 57.052C328.289 57.268 328.269 57.572 328.269 57.964C328.269 58.34 328.285 58.636 328.317 58.852C328.349 59.06 328.405 59.248 328.485 59.416C328.581 59.704 328.749 59.932 328.989 60.1C329.237 60.268 329.529 60.352 329.865 60.352C330.185 60.352 330.453 60.268 330.669 60.1C330.885 59.932 331.045 59.708 331.149 59.428ZM341.266 56.44C341.386 56.824 341.446 57.332 341.446 57.964C341.446 58.604 341.394 59.1 341.29 59.452C341.146 59.964 340.882 60.368 340.498 60.664C340.122 60.952 339.646 61.096 339.07 61.096C338.758 61.096 338.47 61.036 338.206 60.916C337.942 60.788 337.722 60.608 337.546 60.376C337.53 60.36 337.514 60.356 337.498 60.364C337.49 60.364 337.486 60.372 337.486 60.388V63.208C337.486 63.288 337.446 63.328 337.366 63.328H336.754C336.674 63.328 336.634 63.288 336.634 63.208V55.048C336.634 54.968 336.674 54.928 336.754 54.928H337.366C337.446 54.928 337.486 54.968 337.486 55.048V55.552C337.486 55.568 337.49 55.58 337.498 55.588C337.514 55.588 337.53 55.58 337.546 55.564C337.722 55.332 337.938 55.152 338.194 55.024C338.458 54.896 338.75 54.832 339.07 54.832C339.63 54.832 340.098 54.976 340.474 55.264C340.858 55.552 341.122 55.944 341.266 56.44ZM340.318 59.476C340.406 59.3 340.47 59.104 340.51 58.888C340.558 58.664 340.582 58.356 340.582 57.964C340.582 57.588 340.566 57.296 340.534 57.088C340.502 56.872 340.446 56.68 340.366 56.512C340.27 56.224 340.098 55.996 339.85 55.828C339.61 55.66 339.322 55.576 338.986 55.576C338.666 55.576 338.398 55.66 338.182 55.828C337.966 55.996 337.806 56.22 337.702 56.5C337.63 56.66 337.578 56.848 337.546 57.064C337.514 57.28 337.498 57.58 337.498 57.964C337.498 58.348 337.514 58.652 337.546 58.876C337.578 59.092 337.634 59.284 337.714 59.452C337.81 59.724 337.966 59.944 338.182 60.112C338.406 60.272 338.67 60.352 338.974 60.352C339.294 60.352 339.57 60.272 339.802 60.112C340.042 59.952 340.214 59.74 340.318 59.476ZM345.619 54.868C345.883 54.868 346.111 54.92 346.303 55.024C346.367 55.056 346.391 55.108 346.375 55.18L346.243 55.768C346.219 55.848 346.167 55.872 346.087 55.84C345.951 55.784 345.795 55.756 345.619 55.756L345.463 55.768C345.047 55.784 344.703 55.94 344.431 56.236C344.159 56.524 344.023 56.892 344.023 57.34V60.88C344.023 60.96 343.983 61 343.903 61H343.291C343.211 61 343.171 60.96 343.171 60.88V55.048C343.171 54.968 343.211 54.928 343.291 54.928H343.903C343.983 54.928 344.023 54.968 344.023 55.048V55.78C344.023 55.804 344.027 55.82 344.035 55.828C344.051 55.828 344.063 55.82 344.071 55.804C344.239 55.508 344.451 55.28 344.707 55.12C344.971 54.952 345.275 54.868 345.619 54.868ZM352.139 56.944C352.171 57.168 352.187 57.448 352.187 57.784V58.168C352.187 58.248 352.147 58.288 352.067 58.288H348.191C348.159 58.288 348.143 58.304 348.143 58.336C348.159 58.776 348.183 59.06 348.215 59.188C348.303 59.548 348.491 59.832 348.779 60.04C349.067 60.248 349.435 60.352 349.883 60.352C350.219 60.352 350.515 60.276 350.771 60.124C351.027 59.972 351.227 59.756 351.371 59.476C351.419 59.404 351.475 59.388 351.539 59.428L352.007 59.704C352.071 59.744 352.087 59.8 352.055 59.872C351.855 60.256 351.555 60.56 351.155 60.784C350.755 61 350.295 61.108 349.775 61.108C349.207 61.1 348.731 60.964 348.347 60.7C347.963 60.436 347.687 60.068 347.519 59.596C347.375 59.212 347.303 58.66 347.303 57.94C347.303 57.604 347.307 57.332 347.315 57.124C347.331 56.908 347.363 56.716 347.411 56.548C347.547 56.028 347.819 55.612 348.227 55.3C348.643 54.988 349.143 54.832 349.727 54.832C350.455 54.832 351.015 55.016 351.407 55.384C351.799 55.752 352.043 56.272 352.139 56.944ZM349.727 55.576C349.335 55.576 349.007 55.68 348.743 55.888C348.487 56.088 348.319 56.36 348.239 56.704C348.191 56.872 348.159 57.144 348.143 57.52C348.143 57.552 348.159 57.568 348.191 57.568H351.299C351.331 57.568 351.347 57.552 351.347 57.52C351.331 57.16 351.307 56.904 351.275 56.752C351.187 56.392 351.007 56.108 350.735 55.9C350.471 55.684 350.135 55.576 349.727 55.576ZM355.278 61C355.206 61 355.158 60.968 355.134 60.904L353.166 55.06L353.154 55.012C353.154 54.956 353.19 54.928 353.262 54.928H353.946C354.018 54.928 354.066 54.96 354.09 55.024L355.59 59.728C355.598 59.744 355.61 59.752 355.626 59.752C355.642 59.752 355.654 59.744 355.662 59.728L357.162 55.024C357.186 54.96 357.234 54.928 357.306 54.928L357.99 54.94C358.078 54.94 358.11 54.984 358.086 55.072L356.118 60.904C356.094 60.968 356.046 61 355.974 61H355.278ZM360.001 53.824C359.809 53.824 359.649 53.76 359.521 53.632C359.393 53.504 359.329 53.344 359.329 53.152C359.329 52.952 359.393 52.792 359.521 52.672C359.649 52.544 359.809 52.48 360.001 52.48C360.193 52.48 360.353 52.544 360.481 52.672C360.609 52.792 360.673 52.952 360.673 53.152C360.673 53.344 360.609 53.504 360.481 53.632C360.353 53.76 360.193 53.824 360.001 53.824ZM359.665 60.988C359.585 60.988 359.545 60.948 359.545 60.868V55.036C359.545 54.956 359.585 54.916 359.665 54.916H360.277C360.357 54.916 360.397 54.956 360.397 55.036V60.868C360.397 60.948 360.357 60.988 360.277 60.988H359.665ZM364.799 61.096C364.223 61.096 363.727 60.948 363.311 60.652C362.895 60.356 362.607 59.948 362.447 59.428C362.335 59.06 362.279 58.568 362.279 57.952C362.279 57.336 362.335 56.848 362.447 56.488C362.599 55.976 362.883 55.572 363.299 55.276C363.715 54.98 364.219 54.832 364.811 54.832C365.379 54.832 365.867 54.98 366.275 55.276C366.691 55.572 366.975 55.972 367.127 56.476C367.239 56.82 367.295 57.312 367.295 57.952C367.295 58.6 367.239 59.092 367.127 59.428C366.975 59.948 366.691 60.356 366.275 60.652C365.867 60.948 365.375 61.096 364.799 61.096ZM364.799 60.352C365.183 60.352 365.511 60.248 365.783 60.04C366.055 59.824 366.239 59.536 366.335 59.176C366.407 58.888 366.443 58.484 366.443 57.964C366.443 57.436 366.411 57.032 366.347 56.752C366.251 56.392 366.063 56.108 365.783 55.9C365.511 55.684 365.179 55.576 364.787 55.576C364.395 55.576 364.063 55.684 363.791 55.9C363.519 56.108 363.335 56.392 363.239 56.752C363.175 57.032 363.143 57.436 363.143 57.964C363.143 58.492 363.175 58.896 363.239 59.176C363.327 59.536 363.507 59.824 363.779 60.04C364.059 60.248 364.399 60.352 364.799 60.352ZM372.695 55.048C372.695 54.968 372.735 54.928 372.815 54.928H373.427C373.507 54.928 373.547 54.968 373.547 55.048V60.88C373.547 60.96 373.507 61 373.427 61H372.815C372.735 61 372.695 60.96 372.695 60.88V60.364C372.695 60.348 372.687 60.336 372.671 60.328C372.655 60.32 372.643 60.324 372.635 60.34C372.299 60.836 371.767 61.084 371.039 61.084C370.655 61.084 370.299 61.008 369.971 60.856C369.651 60.696 369.395 60.468 369.203 60.172C369.019 59.876 368.927 59.52 368.927 59.104V55.048C368.927 54.968 368.967 54.928 369.047 54.928H369.659C369.739 54.928 369.779 54.968 369.779 55.048V58.852C369.779 59.308 369.907 59.672 370.163 59.944C370.419 60.208 370.767 60.34 371.207 60.34C371.663 60.34 372.023 60.204 372.287 59.932C372.559 59.66 372.695 59.3 372.695 58.852V55.048ZM377.448 61.06C377 61.06 376.6 60.988 376.248 60.844C375.904 60.7 375.636 60.508 375.444 60.268C375.26 60.028 375.168 59.76 375.168 59.464V59.32C375.168 59.24 375.208 59.2 375.288 59.2H375.864C375.944 59.2 375.984 59.24 375.984 59.32V59.416C375.984 59.68 376.12 59.912 376.392 60.112C376.672 60.304 377.02 60.4 377.436 60.4C377.852 60.4 378.188 60.308 378.444 60.124C378.7 59.932 378.828 59.692 378.828 59.404C378.828 59.204 378.76 59.04 378.624 58.912C378.496 58.784 378.34 58.684 378.156 58.612C377.98 58.54 377.704 58.448 377.328 58.336C376.88 58.208 376.512 58.08 376.224 57.952C375.936 57.824 375.692 57.648 375.492 57.424C375.3 57.192 375.204 56.9 375.204 56.548C375.204 56.036 375.404 55.628 375.804 55.324C376.204 55.02 376.732 54.868 377.388 54.868C377.828 54.868 378.216 54.94 378.552 55.084C378.896 55.228 379.16 55.428 379.344 55.684C379.528 55.932 379.62 56.212 379.62 56.524V56.56C379.62 56.64 379.58 56.68 379.5 56.68H378.936C378.856 56.68 378.816 56.64 378.816 56.56V56.524C378.816 56.252 378.684 56.024 378.42 55.84C378.164 55.656 377.816 55.564 377.376 55.564C376.968 55.564 376.64 55.648 376.392 55.816C376.144 55.976 376.02 56.2 376.02 56.488C376.02 56.76 376.14 56.968 376.38 57.112C376.62 57.256 376.992 57.4 377.496 57.544C377.96 57.68 378.336 57.808 378.624 57.928C378.912 58.048 379.16 58.224 379.368 58.456C379.576 58.68 379.68 58.976 379.68 59.344C379.68 59.864 379.476 60.28 379.068 60.592C378.66 60.904 378.12 61.06 377.448 61.06ZM381.353 61C381.273 61 381.233 60.96 381.233 60.88V52.72C381.233 52.64 381.273 52.6 381.353 52.6H381.965C382.045 52.6 382.085 52.64 382.085 52.72V60.88C382.085 60.96 382.045 61 381.965 61H381.353ZM383.723 63.4C383.667 63.4 383.639 63.36 383.639 63.28V62.8C383.639 62.72 383.679 62.68 383.759 62.68H383.807C384.119 62.672 384.359 62.624 384.527 62.536C384.703 62.456 384.851 62.3 384.971 62.068C385.099 61.844 385.235 61.5 385.379 61.036C385.395 61.004 385.395 60.98 385.379 60.964L383.351 55.06L383.339 55.012C383.339 54.956 383.375 54.928 383.447 54.928H384.083C384.155 54.928 384.203 54.96 384.227 55.024L385.787 59.872C385.795 59.888 385.807 59.896 385.823 59.896C385.839 59.896 385.851 59.888 385.859 59.872L387.395 55.024C387.419 54.96 387.467 54.928 387.539 54.928H388.163C388.251 54.928 388.283 54.972 388.259 55.06L386.039 61.528C385.847 62.064 385.667 62.46 385.499 62.716C385.331 62.972 385.119 63.148 384.863 63.244C384.615 63.348 384.263 63.4 383.807 63.4H383.723ZM389.699 60.976C389.499 60.976 389.335 60.912 389.207 60.784C389.087 60.656 389.027 60.496 389.027 60.304C389.027 60.104 389.087 59.944 389.207 59.824C389.335 59.696 389.499 59.632 389.699 59.632C389.891 59.632 390.051 59.696 390.179 59.824C390.307 59.944 390.371 60.104 390.371 60.304C390.371 60.496 390.307 60.656 390.179 60.784C390.051 60.912 389.891 60.976 389.699 60.976Z" fill="#ADA6A6"/>
</mask>
<g mask="url(#mask1_2984_11343)">
<rect x="65" y="50" width="333" height="17" fill="#D9D9D9"/>
</g>
<rect x="54" y="50" width="1" height="298" fill="#07E1E8"/>
</g>
<defs>
<clipPath id="clip0_2984_11343">
<rect width="650" height="526" fill="white"/>
</clipPath>
</defs>
</svg>
