<svg width="717" height="610" viewBox="0 0 717 610" fill="none" xmlns="http://www.w3.org/2000/svg">
<path d="M369.379 110.768L366.675 97.1175L355.231 120.288L379.017 117.301L369.379 110.768Z" stroke="#112D44" stroke-width="2" stroke-linecap="round"/>
<path d="M369.379 110.767L356.119 119.494" stroke="#112D44" stroke-width="2" stroke-linecap="round"/>
<path d="M610.646 382.296C628.841 237.681 579.478 33.034 370.268 109.106" stroke="#112D44" stroke-width="3" stroke-linecap="round" stroke-dasharray="5 5"/>
<path d="M53.7695 575.196C-74.3452 459.45 58.1987 305.944 124.079 261.176C554.513 21.1203 724.028 748.425 436.551 551.19C149.074 353.955 213.913 719.878 53.7695 575.196Z" fill="#07E1E8"/>
<g clip-path="url(#clip0_2161_7457)">
<g filter="url(#filter0_f_2161_7457)">
<rect x="74" y="510.001" width="430.224" height="156.75" fill="#0C4F7E" fill-opacity="0.09"/>
</g>
<path d="M68.0039 544.132V170.745C68.0039 158.99 76.9929 150.001 88.7477 150.001H489.793C501.548 150.001 510.537 158.99 510.537 170.745V544.132C510.537 555.887 501.548 564.876 489.793 564.876H88.7477C76.9929 564.876 68.0039 555.887 68.0039 544.132Z" fill="#CAD1D8"/>
<path d="M88.7505 184.574C92.5693 184.574 95.6651 181.478 95.6651 177.66C95.6651 173.841 92.5693 170.745 88.7505 170.745C84.9317 170.745 81.8359 173.841 81.8359 177.66C81.8359 181.478 84.9317 184.574 88.7505 184.574Z" fill="#9BA7AF"/>
<path d="M116.407 184.574C120.226 184.574 123.321 181.478 123.321 177.66C123.321 173.841 120.226 170.745 116.407 170.745C112.588 170.745 109.492 173.841 109.492 177.66C109.492 181.478 112.588 184.574 116.407 184.574Z" fill="#9BA7AF"/>
<path d="M144.063 184.574C147.882 184.574 150.978 181.478 150.978 177.66C150.978 173.841 147.882 170.745 144.063 170.745C140.244 170.745 137.148 173.841 137.148 177.66C137.148 181.478 140.244 184.574 144.063 184.574Z" fill="#9BA7AF"/>
<path d="M489.796 551.047H88.7505C84.6018 551.047 81.8359 548.281 81.8359 544.132V212.232C81.8359 208.083 84.6018 205.317 88.7505 205.317H489.796C493.945 205.317 496.711 208.083 496.711 212.232V544.132C496.711 548.281 493.945 551.047 489.796 551.047Z" fill="#112D44"/>
<path d="M489.794 184.574H171.723C167.574 184.574 164.809 181.808 164.809 177.66C164.809 173.511 167.574 170.745 171.723 170.745H489.794C493.943 170.745 496.709 173.511 496.709 177.66C496.709 181.808 493.943 184.574 489.794 184.574Z" fill="#E2E5E7"/>
<path d="M178.638 246.805H123.321C119.172 246.805 116.406 244.039 116.406 239.89C116.406 235.741 119.172 232.976 123.321 232.976H178.638C182.786 232.976 185.552 235.741 185.552 239.89C185.552 244.039 182.786 246.805 178.638 246.805Z" fill="#CAD1D8"/>
<path d="M220.123 274.463H150.977C146.828 274.463 144.062 271.697 144.062 267.549C144.062 263.4 146.828 260.634 150.977 260.634H220.123C224.272 260.634 227.037 263.4 227.037 267.549C227.037 271.697 224.272 274.463 220.123 274.463Z" fill="#CAD1D8"/>
<path d="M372.248 274.463H303.102C298.953 274.463 296.188 271.697 296.188 267.548C296.188 263.4 298.953 260.634 303.102 260.634H372.248C376.397 260.634 379.162 263.4 379.162 267.548C379.162 271.697 376.397 274.463 372.248 274.463Z" fill="#CAD1D8"/>
<path d="M289.271 329.779H220.126C215.977 329.779 213.211 327.014 213.211 322.865C213.211 318.716 215.977 315.95 220.126 315.95H289.271C293.42 315.95 296.186 318.716 296.186 322.865C296.186 327.014 293.42 329.779 289.271 329.779Z" fill="#EE2C39"/>
<path d="M275.44 274.463H247.782C243.633 274.463 240.867 271.697 240.867 267.548C240.867 263.4 243.633 260.634 247.782 260.634H275.44C279.589 260.634 282.355 263.4 282.355 267.548C282.355 271.697 279.589 274.463 275.44 274.463Z" fill="#3BB54A"/>
<path d="M240.867 302.121H150.977C146.828 302.121 144.062 299.355 144.062 295.207C144.062 291.058 146.828 288.292 150.977 288.292H240.867C245.015 288.292 247.781 291.058 247.781 295.207C247.781 299.355 245.015 302.121 240.867 302.121Z" fill="#CAD1D8"/>
<path d="M192.465 329.779H150.977C146.828 329.779 144.062 327.014 144.062 322.865C144.062 318.716 146.828 315.95 150.977 315.95H192.465C196.613 315.95 199.379 318.716 199.379 322.865C199.379 327.014 196.613 329.779 192.465 329.779Z" fill="#FDBA4D"/>
<path d="M406.816 302.122H365.329C361.18 302.122 358.414 299.356 358.414 295.208C358.414 291.059 361.18 288.293 365.329 288.293H406.816C410.965 288.293 413.731 291.059 413.731 295.208C413.731 299.356 410.965 302.122 406.816 302.122Z" fill="#CAD1D8"/>
<path d="M330.761 440.413H289.274C285.125 440.413 282.359 437.647 282.359 433.499C282.359 429.35 285.125 426.584 289.274 426.584H330.761C334.91 426.584 337.676 429.35 337.676 433.499C337.676 437.647 334.91 440.413 330.761 440.413Z" fill="#CAD1D8"/>
<path d="M282.359 468.071H240.872C236.723 468.071 233.957 465.306 233.957 461.157C233.957 457.008 236.723 454.242 240.872 454.242H282.359C286.508 454.242 289.274 457.008 289.274 461.157C289.274 465.306 286.508 468.071 282.359 468.071Z" fill="#EE2C39"/>
<path d="M351.504 468.071H310.016C305.867 468.071 303.102 465.306 303.102 461.157C303.102 457.008 305.867 454.242 310.016 454.242H351.504C355.652 454.242 358.418 457.008 358.418 461.157C358.418 465.306 355.652 468.071 351.504 468.071Z" fill="#EE2C39"/>
<path d="M296.186 412.755H268.528C264.379 412.755 261.613 409.989 261.613 405.84C261.613 401.692 264.379 398.926 268.528 398.926H296.186C300.335 398.926 303.101 401.692 303.101 405.84C303.101 409.989 300.335 412.755 296.186 412.755Z" fill="#3BB54A"/>
<path d="M455.221 495.73H427.563C423.414 495.73 420.648 492.964 420.648 488.815C420.648 484.666 423.414 481.9 427.563 481.9H455.221C459.37 481.9 462.136 484.666 462.136 488.815C462.136 492.964 459.37 495.73 455.221 495.73Z" fill="#3689C9"/>
<path d="M303.098 357.439H247.782C243.633 357.439 240.867 354.673 240.867 350.524C240.867 346.375 243.633 343.609 247.782 343.609H303.098C307.247 343.609 310.013 346.375 310.013 350.524C310.013 354.673 307.247 357.439 303.098 357.439Z" fill="#3689C9"/>
<path d="M337.674 302.122H268.528C264.379 302.122 261.613 299.356 261.613 295.208C261.613 291.059 264.379 288.293 268.528 288.293H337.674C341.822 288.293 344.588 291.059 344.588 295.208C344.588 299.356 341.822 302.122 337.674 302.122Z" fill="#CAD1D8"/>
<path d="M220.123 357.439H150.977C146.828 357.439 144.062 354.673 144.062 350.524C144.062 346.375 146.828 343.609 150.977 343.609H220.123C224.272 343.609 227.037 346.375 227.037 350.524C227.037 354.673 224.272 357.439 220.123 357.439Z" fill="#CAD1D8"/>
<path d="M178.638 385.097H123.321C119.172 385.097 116.406 382.331 116.406 378.182C116.406 374.033 119.172 371.268 123.321 371.268H178.638C182.786 371.268 185.552 374.033 185.552 378.182C185.552 382.331 182.786 385.097 178.638 385.097Z" fill="#CAD1D8"/>
<path d="M240.867 412.755H150.977C146.828 412.755 144.062 409.989 144.062 405.84C144.062 401.692 146.828 398.926 150.977 398.926H240.867C245.015 398.926 247.781 401.692 247.781 405.84C247.781 409.989 245.015 412.755 240.867 412.755Z" fill="#CAD1D8"/>
<path d="M261.61 440.413H150.977C146.828 440.413 144.062 437.647 144.062 433.498C144.062 429.35 146.828 426.584 150.977 426.584H261.61C265.759 426.584 268.525 429.35 268.525 433.498C268.525 437.647 265.759 440.413 261.61 440.413Z" fill="#FDBA4D"/>
<path d="M365.332 412.755H323.844C319.696 412.755 316.93 409.989 316.93 405.84C316.93 401.692 319.696 398.926 323.844 398.926H365.332C369.481 398.926 372.246 401.692 372.246 405.84C372.246 409.989 369.481 412.755 365.332 412.755Z" fill="#FDBA4D"/>
<path d="M213.208 468.071H150.977C146.828 468.071 144.062 465.306 144.062 461.157C144.062 457.008 146.828 454.242 150.977 454.242H213.208C217.357 454.242 220.123 457.008 220.123 461.157C220.123 465.306 217.357 468.071 213.208 468.071Z" fill="#CAD1D8"/>
<path d="M261.61 495.73H150.977C146.828 495.73 144.062 492.964 144.062 488.815C144.062 484.666 146.828 481.9 150.977 481.9H261.61C265.759 481.9 268.525 484.666 268.525 488.815C268.525 492.964 265.759 495.73 261.61 495.73Z" fill="#CAD1D8"/>
<path d="M399.907 495.73H289.274C285.125 495.73 282.359 492.964 282.359 488.815C282.359 484.666 285.125 481.9 289.274 481.9H399.907C404.056 481.9 406.822 484.666 406.822 488.815C406.822 492.964 404.056 495.73 399.907 495.73Z" fill="#CAD1D8"/>
<path d="M116.406 516.473C116.406 512.324 119.172 509.559 123.321 509.559H178.638C182.786 509.559 185.552 512.324 185.552 516.473C185.552 520.622 182.786 523.388 178.638 523.388H123.321C119.172 523.388 116.406 520.622 116.406 516.473Z" fill="#CAD1D8"/>
<path d="M392.993 412.755C396.812 412.755 399.907 409.659 399.907 405.84C399.907 402.021 396.812 398.926 392.993 398.926C389.174 398.926 386.078 402.021 386.078 405.84C386.078 409.659 389.174 412.755 392.993 412.755Z" fill="#CAD1D8"/>
<path d="M316.93 329.779C320.749 329.779 323.845 326.684 323.845 322.865C323.845 319.046 320.749 315.95 316.93 315.95C313.111 315.95 310.016 319.046 310.016 322.865C310.016 326.684 313.111 329.779 316.93 329.779Z" fill="#CAD1D8"/>
</g>
<defs>
<filter id="filter0_f_2161_7457" x="-76" y="360.001" width="730.224" height="456.75" filterUnits="userSpaceOnUse" color-interpolation-filters="sRGB">
<feFlood flood-opacity="0" result="BackgroundImageFix"/>
<feBlend mode="normal" in="SourceGraphic" in2="BackgroundImageFix" result="shape"/>
<feGaussianBlur stdDeviation="75" result="effect1_foregroundBlur_2161_7457"/>
</filter>
<clipPath id="clip0_2161_7457">
<rect width="442.533" height="414.875" fill="white" transform="translate(68 150.001)"/>
</clipPath>
</defs>
</svg>
