<svg width="164" height="40" viewBox="0 0 164 40" fill="none" xmlns="http://www.w3.org/2000/svg">
<path d="M63.2172 12.4966V27.9594H63.1514L51.4058 16.802L51.4519 27.473H49.2812V12.041H49.3909L61.1145 23.3277L61.0707 12.5007L63.2172 12.4966Z" fill="#FCFDFD"/>
<path d="M77.0262 12.041V14.0884H68.4351V18.934H75.9438V20.9813H68.4351V25.8902H77.1531V27.9594H66.2467V12.041H77.0262Z" fill="#FCFDFD"/>
<path d="M82.8674 24.0959C83.2042 24.6508 83.6859 25.1089 84.2634 25.4236C84.86 25.7519 85.5349 25.9209 86.22 25.9137C86.9251 25.9231 87.6211 25.7582 88.243 25.4344C88.8326 25.128 89.3234 24.6685 89.6612 24.1067C90.0054 23.5327 90.1831 22.8783 90.1752 22.2134V12.041H92.3002V22.2761C92.3206 23.3208 92.0413 24.3503 91.4937 25.2488C90.9697 26.1022 90.2114 26.796 89.3044 27.2522C88.3502 27.7172 87.298 27.9594 86.231 27.9594C85.1641 27.9594 84.1119 27.7172 83.1577 27.2522C82.2519 26.7975 81.4962 26.1031 80.9773 25.2488C80.4388 24.3472 80.1645 23.319 80.184 22.2761V12.041H82.3533V22.2134C82.3438 22.8751 82.5217 23.5264 82.8674 24.0959Z" fill="#FCFDFD"/>
<path d="M105.59 27.5306C104.803 27.8202 103.973 27.9648 103.137 27.9577C101.699 27.9878 100.279 27.6236 99.0241 26.9029C97.8714 26.2317 96.9245 25.2445 96.2899 24.0524C95.6474 22.8438 95.3178 21.4868 95.3326 20.1109C95.3114 18.6676 95.6441 17.2419 96.3003 15.9643C96.9183 14.7703 97.8465 13.7742 98.9824 13.0861C100.158 12.3808 101.501 12.0197 102.864 12.042C103.675 12.0349 104.484 12.1507 105.262 12.3858C105.964 12.5971 106.637 12.9015 107.262 13.2911L106.447 15.2448C105.283 14.4405 104.112 14.0384 102.935 14.0384C101.97 14.0327 101.025 14.309 100.209 14.8348C99.3724 15.3691 98.6844 16.1147 98.2107 16.9999C97.7088 17.9172 97.4493 18.9527 97.4578 20.0041C97.4427 21.0579 97.6774 22.0998 98.1419 23.0403C98.5793 23.9269 99.259 24.6643 100.098 25.1627C101.109 25.7275 102.255 25.9872 103.404 25.9116C104.553 25.8361 105.657 25.4283 106.589 24.7357L107.45 26.6104C106.866 26.9882 106.242 27.297 105.59 27.5306Z" fill="#FCFDFD"/>
<path d="M119.588 27.9594L115.959 22.0818C115.788 22.0994 115.617 22.1067 115.446 22.1036H113.154V27.9594H111.082V12.0421H115.203C116.172 12.0247 117.133 12.2204 118.022 12.6161C118.816 12.969 119.491 13.554 119.965 14.2988C120.451 15.0994 120.697 16.0305 120.67 16.9746C120.677 17.9176 120.459 18.8478 120.035 19.6832C119.609 20.51 118.93 21.1678 118.103 21.5536L121.989 27.9594H119.588ZM117.811 19.131C118.292 18.5568 118.554 17.8211 118.547 17.0619C118.543 16.5818 118.436 16.1085 118.234 15.676C118.017 15.2096 117.677 14.8161 117.252 14.5411C116.742 14.2236 116.154 14.0666 115.559 14.0893H113.154V20.0346H115.396C116.513 20.0346 117.318 19.7334 117.811 19.131Z" fill="#FCFDFD"/>
<path d="M126.691 16.0412C127.385 14.8386 128.372 13.8352 129.559 13.1265C130.748 12.4159 132.105 12.041 133.487 12.041C134.869 12.041 136.226 12.4159 137.415 13.1265C138.607 13.8356 139.601 14.8385 140.304 16.0412C141.014 17.2362 141.386 18.605 141.379 19.9985C141.391 21.3969 141.026 22.7721 140.323 23.9772C139.627 25.1802 138.631 26.178 137.434 26.8706C136.239 27.5783 134.88 27.9539 133.495 27.9593C132.11 27.9647 130.748 27.5996 129.548 26.9013C128.348 26.2029 127.353 25.1962 126.664 23.9837C125.975 22.7711 125.617 21.3961 125.626 19.9985C125.619 18.6064 125.987 17.2384 126.691 16.0412ZM128.526 22.9665C129.025 23.8578 129.749 24.6 130.624 25.1179C131.276 25.5121 132 25.7699 132.753 25.8759C133.505 25.982 134.272 25.9341 135.006 25.7351C135.74 25.5362 136.426 25.1902 137.025 24.7179C137.624 24.2455 138.122 23.6565 138.49 22.9857C138.99 22.0715 139.252 21.0446 139.252 20.0007C139.252 18.9567 138.99 17.9298 138.49 17.0156C137.998 16.1169 137.277 15.3669 136.402 14.8429C135.523 14.3203 134.522 14.0456 133.501 14.0475C132.481 14.0494 131.48 14.3277 130.603 14.8535C129.73 15.3825 129.013 16.136 128.524 17.0369C128.021 17.9498 127.761 18.9779 127.767 20.022C127.757 21.054 128.019 22.0702 128.526 22.9665Z" fill="#FCFDFD"/>
<path d="M146.55 12.5006L146.506 23.3248L158.235 12.041H158.344V27.4588H156.177L156.221 16.8007L144.477 27.9594H144.409V12.5006H146.55Z" fill="#FCFDFD"/>
<path d="M36.3321 2.85498H8.90964C7.11234 2.85498 5.65533 4.32721 5.65533 6.1433V33.8524C5.65533 35.6685 7.11234 37.1407 8.90964 37.1407H36.3321C38.1294 37.1407 39.5864 35.6685 39.5864 33.8524V6.1433C39.5864 4.32721 38.1294 2.85498 36.3321 2.85498Z" fill="white"/>
<path d="M18.9127 21.7347C18.9365 20.5915 18.9603 19.4571 18.9841 18.3095L17.8181 18.3774L14.9712 18.5482C14.1525 18.5651 13.3579 18.8314 12.6911 19.3125C10.5279 20.9551 10.8307 23.5437 12.12 24.9125C12.6608 25.4885 13.2254 26.0404 13.7814 26.601C15.0794 27.9151 16.3773 29.2466 17.6948 30.5585C18.2717 31.128 19.0153 31.4932 19.8142 31.5994C20.6132 31.7056 21.4247 31.5471 22.1273 31.1476C23.3214 30.4468 23.8795 29.3342 23.9596 27.9698C24.0396 26.6054 24.0807 25.1906 24.1391 23.8087L24.535 14.2864C24.535 14.0433 24.5502 13.8002 24.561 13.5549C24.5635 13.2924 24.6459 13.037 24.7968 12.8234C24.8833 12.688 25.012 12.5858 25.1626 12.533C25.3131 12.4802 25.4767 12.4799 25.6275 12.5322C25.854 12.6102 26.0618 12.7355 26.2375 12.9001C27.436 14.0871 28.6229 15.285 29.7982 16.494C29.9514 16.6648 30.0646 16.8684 30.1292 17.0896C30.158 17.1654 30.171 17.2463 30.1675 17.3273C30.1641 17.4084 30.1442 17.4878 30.109 17.5607C30.0739 17.6337 30.0244 17.6985 29.9635 17.7512C29.9026 17.8039 29.8316 17.8434 29.755 17.8671C29.4279 17.9856 29.0867 18.0593 28.7404 18.0861C27.9746 18.1387 27.2088 18.1431 26.4235 18.165C26.3651 19.3125 26.3046 20.4492 26.244 21.6055L27.1461 21.5705C28.2061 21.5289 29.2639 21.4982 30.3218 21.4435C31.1227 21.425 31.9001 21.1649 32.5542 20.6967C32.9674 20.406 33.3173 20.0327 33.5823 19.5997C33.8472 19.1667 34.0216 18.6832 34.0946 18.1792C34.1676 17.6753 34.1377 17.1615 34.0067 16.6697C33.8757 16.1779 33.6464 15.7186 33.333 15.3201C33.1689 15.1269 32.9934 14.9441 32.8074 14.7726C31.094 13.0205 29.3872 11.2685 27.6653 9.54711C26.4798 8.35354 25.0693 8.07102 23.5248 8.67109C22.4431 9.08282 21.7942 9.93256 21.4697 11.0363C21.3596 11.4391 21.2978 11.8538 21.2858 12.2715C21.1452 15.3989 21.0197 18.5263 20.8899 21.6559C20.8221 23.2488 20.7558 24.8417 20.6909 26.4346C20.6876 26.5212 20.6789 26.6075 20.6649 26.693C20.5265 27.488 19.8342 27.7749 19.209 27.2799C18.9158 27.0292 18.6376 26.7608 18.3762 26.4762C17.4229 25.5155 16.4718 24.5519 15.5228 23.5853C15.337 23.4107 15.2016 23.1881 15.1313 22.9415C15.0804 22.7816 15.092 22.608 15.1636 22.4565C15.2352 22.305 15.3615 22.187 15.5163 22.1268C15.9187 21.9726 16.3452 21.8932 16.7754 21.8924L18.9127 21.7347Z" fill="#112D44"/>
</svg>
