<svg width="838" height="731" viewBox="0 0 838 731" fill="none" xmlns="http://www.w3.org/2000/svg">
<g filter="url(#filter0_f_1929_8715)">
<rect x="257" y="424.001" width="430.224" height="156.75" fill="#0C4F7E" fill-opacity="0.09"/>
</g>
<path d="M229.77 551.196C101.655 435.45 234.199 281.944 300.079 237.176C730.513 -2.87973 900.028 724.425 612.551 527.19C325.074 329.955 389.913 695.878 229.77 551.196Z" fill="#07E1E8"/>
<g filter="url(#filter1_f_1929_8715)">
<ellipse cx="434.816" cy="520.48" rx="286.851" ry="3.16963" fill="black"/>
</g>
<path d="M203.125 177C203.125 162.088 215.213 150 230.125 150H691.409C706.32 150 718.409 162.088 718.409 177V496.195C718.409 497.852 717.065 499.195 715.409 499.195H206.125C204.468 499.195 203.125 497.852 203.125 496.195V177Z" fill="#1A202C" stroke="#4A5568" stroke-width="2"/>
<path d="M205.293 174.17C205.293 162.02 215.143 152.17 227.293 152.17H694.237C706.387 152.17 716.237 162.02 716.237 174.17V486.883H205.293V174.17Z" fill="black"/>
<rect x="215.438" y="168.651" width="488.123" height="304.284" rx="10" fill="white"/>
<path d="M400.229 316.366V333.82H396.539V316.366H400.229ZM406.828 326.252V333.82H403.197V320.729H406.658V323.039H406.811C407.101 322.278 407.587 321.675 408.268 321.232C408.95 320.783 409.777 320.559 410.749 320.559C411.658 320.559 412.45 320.758 413.126 321.156C413.802 321.553 414.328 322.121 414.703 322.86C415.078 323.593 415.266 324.468 415.266 325.485V333.82H411.635V326.133C411.641 325.332 411.436 324.707 411.021 324.258C410.606 323.803 410.035 323.576 409.308 323.576C408.82 323.576 408.388 323.681 408.013 323.891C407.643 324.102 407.354 324.408 407.143 324.812C406.939 325.21 406.834 325.69 406.828 326.252ZM429.019 324.462L425.695 324.667C425.638 324.383 425.516 324.127 425.329 323.9C425.141 323.667 424.894 323.482 424.587 323.346C424.286 323.204 423.925 323.133 423.505 323.133C422.942 323.133 422.468 323.252 422.082 323.491C421.695 323.724 421.502 324.036 421.502 324.428C421.502 324.741 421.627 325.005 421.877 325.221C422.127 325.437 422.556 325.61 423.164 325.741L425.533 326.218C426.806 326.479 427.755 326.9 428.38 327.479C429.005 328.059 429.317 328.82 429.317 329.763C429.317 330.621 429.065 331.374 428.559 332.022C428.059 332.67 427.371 333.175 426.496 333.539C425.627 333.897 424.624 334.076 423.488 334.076C421.755 334.076 420.374 333.715 419.346 332.994C418.323 332.266 417.724 331.278 417.548 330.028L421.119 329.84C421.226 330.369 421.488 330.772 421.903 331.05C422.317 331.323 422.849 331.46 423.496 331.46C424.133 331.46 424.644 331.337 425.03 331.093C425.423 330.843 425.621 330.522 425.627 330.13C425.621 329.8 425.482 329.531 425.209 329.32C424.937 329.104 424.516 328.94 423.948 328.826L421.681 328.374C420.403 328.119 419.451 327.675 418.826 327.045C418.207 326.414 417.897 325.61 417.897 324.633C417.897 323.792 418.124 323.067 418.579 322.46C419.039 321.852 419.684 321.383 420.513 321.053C421.349 320.724 422.326 320.559 423.445 320.559C425.099 320.559 426.4 320.908 427.349 321.607C428.303 322.306 428.86 323.258 429.019 324.462ZM437.57 334.076C436.223 334.076 435.064 333.803 434.092 333.258C433.126 332.707 432.382 331.928 431.859 330.923C431.337 329.911 431.075 328.715 431.075 327.335C431.075 325.988 431.337 324.806 431.859 323.789C432.382 322.772 433.118 321.979 434.067 321.411C435.021 320.843 436.141 320.559 437.425 320.559C438.288 320.559 439.092 320.698 439.837 320.977C440.587 321.249 441.24 321.661 441.797 322.212C442.359 322.763 442.797 323.457 443.109 324.292C443.422 325.121 443.578 326.093 443.578 327.207V328.204H432.524V325.954H440.16C440.16 325.431 440.047 324.968 439.82 324.565C439.592 324.161 439.277 323.846 438.874 323.619C438.476 323.386 438.013 323.269 437.484 323.269C436.933 323.269 436.445 323.397 436.018 323.653C435.598 323.903 435.268 324.241 435.03 324.667C434.791 325.087 434.669 325.556 434.663 326.073V328.212C434.663 328.86 434.783 329.42 435.021 329.891C435.266 330.363 435.609 330.727 436.052 330.982C436.496 331.238 437.021 331.366 437.629 331.366C438.033 331.366 438.402 331.309 438.737 331.195C439.072 331.082 439.359 330.911 439.598 330.684C439.837 330.457 440.018 330.178 440.143 329.849L443.501 330.07C443.331 330.877 442.981 331.582 442.453 332.184C441.93 332.781 441.254 333.246 440.425 333.582C439.601 333.911 438.649 334.076 437.57 334.076ZM445.947 333.82V320.729H449.467V323.013H449.604C449.842 322.201 450.243 321.587 450.805 321.173C451.368 320.752 452.016 320.542 452.749 320.542C452.93 320.542 453.126 320.553 453.337 320.576C453.547 320.599 453.731 320.63 453.891 320.67V323.891C453.72 323.84 453.484 323.795 453.183 323.755C452.882 323.715 452.606 323.695 452.356 323.695C451.822 323.695 451.345 323.812 450.925 324.045C450.51 324.272 450.18 324.59 449.936 324.999C449.697 325.408 449.578 325.88 449.578 326.414V333.82H445.947ZM463.387 320.729V323.457H455.503V320.729H463.387ZM457.293 317.593H460.924V329.798C460.924 330.133 460.975 330.394 461.077 330.582C461.18 330.763 461.322 330.891 461.503 330.965C461.691 331.039 461.907 331.076 462.151 331.076C462.322 331.076 462.492 331.062 462.663 331.033C462.833 330.999 462.964 330.974 463.055 330.957L463.626 333.658C463.444 333.715 463.188 333.781 462.859 333.854C462.529 333.934 462.128 333.982 461.657 333.999C460.782 334.033 460.015 333.917 459.356 333.65C458.702 333.383 458.194 332.968 457.83 332.406C457.467 331.843 457.288 331.133 457.293 330.275V317.593ZM470.352 316.366H474.486L478.466 323.883H478.636L482.616 316.366H486.75L480.383 327.65V333.82H476.719V327.65L470.352 316.366ZM491.87 334.076C490.546 334.076 489.401 333.795 488.435 333.232C487.475 332.664 486.734 331.874 486.211 330.863C485.688 329.846 485.427 328.667 485.427 327.326C485.427 325.974 485.688 324.792 486.211 323.781C486.734 322.763 487.475 321.974 488.435 321.411C489.401 320.843 490.546 320.559 491.87 320.559C493.194 320.559 494.336 320.843 495.296 321.411C496.262 321.974 497.006 322.763 497.529 323.781C498.052 324.792 498.313 325.974 498.313 327.326C498.313 328.667 498.052 329.846 497.529 330.863C497.006 331.874 496.262 332.664 495.296 333.232C494.336 333.795 493.194 334.076 491.87 334.076ZM491.887 331.263C492.489 331.263 492.992 331.093 493.396 330.752C493.799 330.406 494.103 329.934 494.307 329.337C494.518 328.741 494.623 328.062 494.623 327.3C494.623 326.539 494.518 325.86 494.307 325.263C494.103 324.667 493.799 324.195 493.396 323.849C492.992 323.502 492.489 323.329 491.887 323.329C491.279 323.329 490.768 323.502 490.353 323.849C489.944 324.195 489.634 324.667 489.424 325.263C489.219 325.86 489.117 326.539 489.117 327.3C489.117 328.062 489.219 328.741 489.424 329.337C489.634 329.934 489.944 330.406 490.353 330.752C490.768 331.093 491.279 331.263 491.887 331.263ZM509.069 328.246V320.729H512.699V333.82H509.214V331.442H509.077C508.782 332.21 508.29 332.826 507.603 333.292C506.921 333.758 506.089 333.991 505.106 333.991C504.231 333.991 503.461 333.792 502.796 333.394C502.131 332.996 501.611 332.431 501.236 331.698C500.867 330.965 500.68 330.087 500.674 329.065V320.729H504.305V328.417C504.31 329.19 504.518 329.8 504.927 330.249C505.336 330.698 505.884 330.923 506.572 330.923C507.009 330.923 507.418 330.823 507.799 330.624C508.18 330.42 508.486 330.119 508.719 329.721C508.958 329.323 509.074 328.832 509.069 328.246ZM515.604 333.82V320.729H519.124V323.013H519.26C519.499 322.201 519.899 321.587 520.462 321.173C521.024 320.752 521.672 320.542 522.405 320.542C522.587 320.542 522.783 320.553 522.993 320.576C523.203 320.599 523.388 320.63 523.547 320.67V323.891C523.376 323.84 523.141 323.795 522.839 323.755C522.538 323.715 522.263 323.695 522.013 323.695C521.479 323.695 521.001 323.812 520.581 324.045C520.166 324.272 519.837 324.59 519.592 324.999C519.354 325.408 519.234 325.88 519.234 326.414V333.82H515.604ZM395.555 355.82H389.367V338.366H395.606C397.361 338.366 398.873 338.715 400.14 339.414C401.407 340.107 402.381 341.104 403.063 342.406C403.751 343.707 404.094 345.263 404.094 347.076C404.094 348.894 403.751 350.457 403.063 351.763C402.381 353.07 401.401 354.073 400.123 354.772C398.85 355.471 397.327 355.82 395.555 355.82ZM393.057 352.658H395.401C396.492 352.658 397.41 352.465 398.154 352.079C398.904 351.687 399.467 351.082 399.842 350.263C400.222 349.44 400.413 348.377 400.413 347.076C400.413 345.786 400.222 344.732 399.842 343.914C399.467 343.096 398.907 342.494 398.163 342.107C397.418 341.721 396.501 341.528 395.41 341.528H393.057V352.658ZM412.726 356.076C411.379 356.076 410.22 355.803 409.249 355.258C408.283 354.707 407.538 353.928 407.016 352.923C406.493 351.911 406.231 350.715 406.231 349.335C406.231 347.988 406.493 346.806 407.016 345.789C407.538 344.772 408.274 343.979 409.223 343.411C410.177 342.843 411.297 342.559 412.581 342.559C413.445 342.559 414.249 342.698 414.993 342.977C415.743 343.249 416.396 343.661 416.953 344.212C417.516 344.763 417.953 345.457 418.266 346.292C418.578 347.121 418.734 348.093 418.734 349.207V350.204H407.68V347.954H415.317C415.317 347.431 415.203 346.968 414.976 346.565C414.749 346.161 414.433 345.846 414.03 345.619C413.632 345.386 413.169 345.269 412.641 345.269C412.089 345.269 411.601 345.397 411.175 345.653C410.754 345.903 410.425 346.241 410.186 346.667C409.947 347.087 409.825 347.556 409.82 348.073V350.212C409.82 350.86 409.939 351.42 410.177 351.891C410.422 352.363 410.766 352.727 411.209 352.982C411.652 353.238 412.177 353.366 412.785 353.366C413.189 353.366 413.558 353.309 413.893 353.195C414.229 353.082 414.516 352.911 414.754 352.684C414.993 352.457 415.175 352.178 415.3 351.849L418.658 352.07C418.487 352.877 418.138 353.582 417.609 354.184C417.087 354.781 416.41 355.246 415.581 355.582C414.757 355.911 413.805 356.076 412.726 356.076ZM431.996 346.462L428.672 346.667C428.615 346.383 428.493 346.127 428.305 345.9C428.118 345.667 427.871 345.482 427.564 345.346C427.263 345.204 426.902 345.133 426.481 345.133C425.919 345.133 425.445 345.252 425.058 345.491C424.672 345.724 424.479 346.036 424.479 346.428C424.479 346.741 424.604 347.005 424.854 347.221C425.104 347.437 425.533 347.61 426.141 347.741L428.51 348.218C429.783 348.479 430.731 348.9 431.356 349.479C431.981 350.059 432.294 350.82 432.294 351.763C432.294 352.621 432.041 353.374 431.535 354.022C431.035 354.67 430.348 355.175 429.473 355.539C428.604 355.897 427.601 356.076 426.464 356.076C424.731 356.076 423.351 355.715 422.322 354.994C421.3 354.266 420.7 353.278 420.524 352.028L424.095 351.84C424.203 352.369 424.464 352.772 424.879 353.05C425.294 353.323 425.825 353.46 426.473 353.46C427.109 353.46 427.621 353.337 428.007 353.093C428.399 352.843 428.598 352.522 428.604 352.13C428.598 351.8 428.459 351.531 428.186 351.32C427.913 351.104 427.493 350.94 426.925 350.826L424.658 350.374C423.379 350.119 422.427 349.675 421.802 349.045C421.183 348.414 420.874 347.61 420.874 346.633C420.874 345.792 421.101 345.067 421.555 344.46C422.016 343.852 422.66 343.383 423.49 343.053C424.325 342.724 425.302 342.559 426.422 342.559C428.075 342.559 429.376 342.908 430.325 343.607C431.28 344.306 431.837 345.258 431.996 346.462ZM434.58 355.82V342.729H438.211V355.82H434.58ZM436.404 341.042C435.864 341.042 435.401 340.863 435.015 340.505C434.634 340.141 434.444 339.707 434.444 339.201C434.444 338.701 434.634 338.272 435.015 337.914C435.401 337.55 435.864 337.369 436.404 337.369C436.944 337.369 437.404 337.55 437.785 337.914C438.171 338.272 438.364 338.701 438.364 339.201C438.364 339.707 438.171 340.141 437.785 340.505C437.404 340.863 436.944 341.042 436.404 341.042ZM447.017 361.002C445.841 361.002 444.832 360.84 443.991 360.516C443.156 360.198 442.491 359.763 441.997 359.212C441.503 358.661 441.182 358.042 441.034 357.354L444.392 356.903C444.494 357.164 444.656 357.408 444.878 357.636C445.099 357.863 445.392 358.045 445.756 358.181C446.125 358.323 446.574 358.394 447.102 358.394C447.892 358.394 448.543 358.201 449.054 357.815C449.571 357.434 449.829 356.795 449.829 355.897V353.502H449.676C449.517 353.866 449.278 354.21 448.96 354.533C448.642 354.857 448.233 355.121 447.733 355.326C447.233 355.531 446.636 355.633 445.943 355.633C444.96 355.633 444.065 355.406 443.258 354.951C442.457 354.491 441.818 353.789 441.341 352.846C440.869 351.897 440.633 350.698 440.633 349.249C440.633 347.766 440.875 346.528 441.358 345.533C441.841 344.539 442.483 343.795 443.284 343.3C444.091 342.806 444.974 342.559 445.935 342.559C446.668 342.559 447.281 342.684 447.775 342.934C448.27 343.178 448.668 343.485 448.969 343.854C449.275 344.218 449.511 344.576 449.676 344.928H449.812V342.729H453.418V355.948C453.418 357.062 453.145 357.994 452.599 358.744C452.054 359.494 451.298 360.056 450.332 360.431C449.372 360.812 448.267 361.002 447.017 361.002ZM447.094 352.906C447.679 352.906 448.173 352.761 448.577 352.471C448.986 352.175 449.298 351.755 449.514 351.21C449.736 350.658 449.847 349.999 449.847 349.232C449.847 348.465 449.739 347.8 449.523 347.238C449.307 346.67 448.994 346.229 448.585 345.917C448.176 345.604 447.679 345.448 447.094 345.448C446.497 345.448 445.994 345.61 445.585 345.934C445.176 346.252 444.866 346.695 444.656 347.263C444.446 347.832 444.341 348.488 444.341 349.232C444.341 349.988 444.446 350.641 444.656 351.192C444.872 351.738 445.182 352.161 445.585 352.462C445.994 352.758 446.497 352.906 447.094 352.906ZM459.937 348.252V355.82H456.307V342.729H459.767V345.039H459.92C460.21 344.278 460.696 343.675 461.378 343.232C462.06 342.783 462.886 342.559 463.858 342.559C464.767 342.559 465.56 342.758 466.236 343.156C466.912 343.553 467.437 344.121 467.812 344.86C468.187 345.593 468.375 346.468 468.375 347.485V355.82H464.744V348.133C464.75 347.332 464.545 346.707 464.131 346.258C463.716 345.803 463.145 345.576 462.418 345.576C461.929 345.576 461.497 345.681 461.122 345.891C460.753 346.102 460.463 346.408 460.253 346.812C460.048 347.21 459.943 347.69 459.937 348.252ZM476.859 355.82V338.366H480.55V345.567H488.041V338.366H491.723V355.82H488.041V348.61H480.55V355.82H476.859ZM500.663 356.076C499.317 356.076 498.158 355.803 497.186 355.258C496.22 354.707 495.476 353.928 494.953 352.923C494.43 351.911 494.169 350.715 494.169 349.335C494.169 347.988 494.43 346.806 494.953 345.789C495.476 344.772 496.212 343.979 497.16 343.411C498.115 342.843 499.234 342.559 500.518 342.559C501.382 342.559 502.186 342.698 502.93 342.977C503.68 343.249 504.334 343.661 504.891 344.212C505.453 344.763 505.891 345.457 506.203 346.292C506.516 347.121 506.672 348.093 506.672 349.207V350.204H495.618V347.954H503.254C503.254 347.431 503.141 346.968 502.913 346.565C502.686 346.161 502.371 345.846 501.967 345.619C501.57 345.386 501.106 345.269 500.578 345.269C500.027 345.269 499.538 345.397 499.112 345.653C498.692 345.903 498.362 346.241 498.124 346.667C497.885 347.087 497.763 347.556 497.757 348.073V350.212C497.757 350.86 497.876 351.42 498.115 351.891C498.359 352.363 498.703 352.727 499.146 352.982C499.589 353.238 500.115 353.366 500.723 353.366C501.126 353.366 501.496 353.309 501.831 353.195C502.166 353.082 502.453 352.911 502.692 352.684C502.93 352.457 503.112 352.178 503.237 351.849L506.595 352.07C506.425 352.877 506.075 353.582 505.547 354.184C505.024 354.781 504.348 355.246 503.518 355.582C502.695 355.911 501.743 356.076 500.663 356.076ZM509.041 355.82V342.729H512.561V345.013H512.697C512.936 344.201 513.337 343.587 513.899 343.173C514.462 342.752 515.109 342.542 515.842 342.542C516.024 342.542 516.22 342.553 516.43 342.576C516.641 342.599 516.825 342.63 516.984 342.67V345.891C516.814 345.84 516.578 345.795 516.277 345.755C515.976 345.715 515.7 345.695 515.45 345.695C514.916 345.695 514.439 345.812 514.018 346.045C513.604 346.272 513.274 346.59 513.03 346.999C512.791 347.408 512.672 347.88 512.672 348.414V355.82H509.041ZM524.218 356.076C522.871 356.076 521.712 355.803 520.741 355.258C519.775 354.707 519.03 353.928 518.508 352.923C517.985 351.911 517.724 350.715 517.724 349.335C517.724 347.988 517.985 346.806 518.508 345.789C519.03 344.772 519.766 343.979 520.715 343.411C521.67 342.843 522.789 342.559 524.073 342.559C524.937 342.559 525.741 342.698 526.485 342.977C527.235 343.249 527.888 343.661 528.445 344.212C529.008 344.763 529.445 345.457 529.758 346.292C530.07 347.121 530.226 348.093 530.226 349.207V350.204H519.173V347.954H526.809C526.809 347.431 526.695 346.968 526.468 346.565C526.241 346.161 525.925 345.846 525.522 345.619C525.124 345.386 524.661 345.269 524.133 345.269C523.582 345.269 523.093 345.397 522.667 345.653C522.246 345.903 521.917 346.241 521.678 346.667C521.44 347.087 521.317 347.556 521.312 348.073V350.212C521.312 350.86 521.431 351.42 521.67 351.891C521.914 352.363 522.258 352.727 522.701 352.982C523.144 353.238 523.67 353.366 524.278 353.366C524.681 353.366 525.05 353.309 525.386 353.195C525.721 353.082 526.008 352.911 526.246 352.684C526.485 352.457 526.667 352.178 526.792 351.849L530.15 352.07C529.979 352.877 529.63 353.582 529.101 354.184C528.579 354.781 527.903 355.246 527.073 355.582C526.249 355.911 525.298 356.076 524.218 356.076Z" fill="#2D3748"/>
<path d="M128 499.66C128 498.556 128.895 497.66 130 497.66H764.997C766.102 497.66 766.997 498.556 766.997 499.66V509.071H128V499.66Z" fill="#A3ACB1"/>
<path d="M128 499.66C128 498.556 128.895 497.66 130 497.66H764.997C766.102 497.66 766.997 498.556 766.997 499.66V509.071H128V499.66Z" fill="url(#paint0_linear_1929_8715)"/>
<path d="M128 509.07H766.997C741.914 514.129 716.389 516.677 690.801 516.677H197.299C173.991 516.677 150.753 514.127 128 509.07Z" fill="#647279"/>
<path d="M128 509.07H766.997C741.914 514.129 716.389 516.677 690.801 516.677H197.299C173.991 516.677 150.753 514.127 128 509.07Z" fill="url(#paint1_linear_1929_8715)"/>
<path fill-rule="evenodd" clip-rule="evenodd" d="M394.902 497.66C395.229 502.616 399.352 506.535 404.39 506.535H491.238C496.277 506.535 500.4 502.616 500.726 497.66H394.902Z" fill="#96A1A8"/>
<path fill-rule="evenodd" clip-rule="evenodd" d="M394.902 497.66C395.229 502.616 399.352 506.535 404.39 506.535H491.238C496.277 506.535 500.4 502.616 500.726 497.66H394.902Z" fill="url(#paint2_linear_1929_8715)"/>
<path d="M347.574 110.768L350.278 97.1173L361.722 120.288L337.936 117.301L347.574 110.768Z" stroke="#112D44" stroke-width="2" stroke-linecap="round"/>
<path d="M347.574 110.767L360.834 119.494" stroke="#112D44" stroke-width="2" stroke-linecap="round"/>
<path d="M106.307 382.296C88.1117 237.681 137.475 33.034 346.685 109.106" stroke="#112D44" stroke-width="3" stroke-linecap="round" stroke-dasharray="5 5"/>
<path d="M616.736 169.001H226.264C220.043 169.001 215 174.044 215 180.265V467.487C215 473.708 220.043 478.751 226.264 478.751H616.736C622.957 478.751 628 473.708 628 467.487V180.265C628 174.044 622.957 169.001 616.736 169.001Z" fill="#F3F5F8"/>
<path d="M215 180.265C215 174.044 220.043 169.001 226.264 169.001H616.736C622.958 169.001 628 174.044 628 180.265V214.056H215V180.265Z" fill="#E0E7EC"/>
<path fill-rule="evenodd" clip-rule="evenodd" d="M237.526 197.16C240.637 197.16 243.158 194.639 243.158 191.528C243.158 188.418 240.637 185.896 237.526 185.896C234.416 185.896 231.895 188.418 231.895 191.528C231.895 194.639 234.416 197.16 237.526 197.16ZM256.299 197.16C259.41 197.16 261.931 194.639 261.931 191.528C261.931 188.418 259.41 185.896 256.299 185.896C253.189 185.896 250.667 188.418 250.667 191.528C250.667 194.639 253.189 197.16 256.299 197.16ZM280.704 191.528C280.704 194.639 278.182 197.16 275.072 197.16C271.961 197.16 269.44 194.639 269.44 191.528C269.44 188.418 271.961 185.896 275.072 185.896C278.182 185.896 280.704 188.418 280.704 191.528Z" fill="#94A2AB"/>
<path d="M601.719 229.074H241.283C237.135 229.074 233.773 232.436 233.773 236.583V315.429C233.773 319.576 237.135 322.938 241.283 322.938H601.719C605.866 322.938 609.228 319.576 609.228 315.429V236.583C609.228 232.436 605.866 229.074 601.719 229.074Z" fill="#E0E7EC"/>
<path fill-rule="evenodd" clip-rule="evenodd" d="M280.705 313.551C301.441 313.551 318.251 296.741 318.251 276.005C318.251 255.27 301.441 238.46 280.705 238.46C259.97 238.46 243.16 255.27 243.16 276.005C243.16 296.741 259.97 313.551 280.705 313.551Z" fill="#F3F5F8"/>
<path fill-rule="evenodd" clip-rule="evenodd" d="M289.943 266.365C289.943 271.409 285.799 275.498 280.686 275.498C275.573 275.498 271.428 271.409 271.428 266.365C271.428 261.321 275.573 257.232 280.686 257.232C285.799 257.232 289.943 261.321 289.943 266.365ZM263.906 296.617C263.906 287.475 271.418 280.064 280.686 280.064C289.953 280.064 297.465 287.475 297.465 296.617H263.906Z" fill="#72808A"/>
<path d="M577.317 262.864H528.508C521.251 262.864 515.367 268.748 515.367 276.005C515.367 283.263 521.251 289.146 528.508 289.146H577.317C584.575 289.146 590.458 283.263 590.458 276.005C590.458 268.748 584.575 262.864 577.317 262.864Z" fill="#649DFF"/>
<path d="M513.49 341.71H370.817C368.743 341.71 367.062 343.391 367.062 345.465V352.974C367.062 355.047 368.743 356.728 370.817 356.728H513.49C515.563 356.728 517.244 355.047 517.244 352.974V345.465C517.244 343.391 515.563 341.71 513.49 341.71Z" fill="#94A2AB"/>
<path d="M472.19 366.114H370.817C368.743 366.114 367.062 367.795 367.062 369.869V377.378C367.062 379.451 368.743 381.132 370.817 381.132H472.19C474.263 381.132 475.944 379.451 475.944 377.378V369.869C475.944 367.795 474.263 366.114 472.19 366.114Z" fill="#E0E7EC"/>
<path d="M590.456 341.71H567.929C557.561 341.71 549.156 350.115 549.156 360.483C549.156 370.851 557.561 379.255 567.929 379.255H590.456C600.824 379.255 609.229 370.851 609.229 360.483C609.229 350.115 600.824 341.71 590.456 341.71Z" fill="#E0E7EC"/>
<path fill-rule="evenodd" clip-rule="evenodd" d="M567.929 379.255C578.297 379.255 586.702 370.851 586.702 360.483C586.702 350.115 578.297 341.71 567.929 341.71C557.561 341.71 549.156 350.115 549.156 360.483C549.156 370.851 557.561 379.255 567.929 379.255Z" fill="#649DFF"/>
<path d="M320.128 341.71H237.528C235.454 341.71 233.773 343.391 233.773 345.465V352.974C233.773 355.047 235.454 356.728 237.528 356.728H320.128C322.202 356.728 323.883 355.047 323.883 352.974V345.465C323.883 343.391 322.202 341.71 320.128 341.71Z" fill="#E0E7EC"/>
<path d="M308.864 366.114H237.528C235.454 366.114 233.773 367.795 233.773 369.869V377.378C233.773 379.451 235.454 381.132 237.528 381.132H308.864C310.938 381.132 312.619 379.451 312.619 377.378V369.869C312.619 367.795 310.938 366.114 308.864 366.114Z" fill="#E0E7EC"/>
<path d="M323.883 390.52H237.528C235.454 390.52 233.773 392.2 233.773 394.274V401.783C233.773 403.857 235.454 405.538 237.528 405.538H323.883C325.956 405.538 327.637 403.857 327.637 401.783V394.274C327.637 392.2 325.956 390.52 323.883 390.52Z" fill="#E0E7EC"/>
<path d="M323.883 414.924H237.528C235.454 414.924 233.773 416.605 233.773 418.678V426.187C233.773 428.261 235.454 429.942 237.528 429.942H323.883C325.956 429.942 327.637 428.261 327.637 426.187V418.678C327.637 416.605 325.956 414.924 323.883 414.924Z" fill="#E0E7EC"/>
<path d="M513.49 399.905H370.817C368.743 399.905 367.062 401.586 367.062 403.66V411.169C367.062 413.242 368.743 414.923 370.817 414.923H513.49C515.563 414.923 517.244 413.242 517.244 411.169V403.66C517.244 401.586 515.563 399.905 513.49 399.905Z" fill="#94A2AB"/>
<path d="M472.19 424.31H370.817C368.743 424.31 367.062 425.991 367.062 428.064V435.573C367.062 437.647 368.743 439.328 370.817 439.328H472.19C474.263 439.328 475.944 437.647 475.944 435.573V428.064C475.944 425.991 474.263 424.31 472.19 424.31Z" fill="#E0E7EC"/>
<path d="M590.456 399.905H567.929C557.561 399.905 549.156 408.31 549.156 418.678C549.156 429.046 557.561 437.451 567.929 437.451H590.456C600.824 437.451 609.229 429.046 609.229 418.678C609.229 408.31 600.824 399.905 590.456 399.905Z" fill="#FFD9C5"/>
<path fill-rule="evenodd" clip-rule="evenodd" d="M590.456 437.451C600.824 437.451 609.229 429.046 609.229 418.678C609.229 408.31 600.824 399.905 590.456 399.905C580.088 399.905 571.683 408.31 571.683 418.678C571.683 429.046 580.088 437.451 590.456 437.451Z" fill="#649DFF"/>
<path d="M690.664 169.001H228.336C220.971 169.001 215 174.048 215 180.274V467.728C215 473.954 220.971 479.001 228.336 479.001H690.664C698.029 479.001 704 473.954 704 467.728V180.274C704 174.048 698.029 169.001 690.664 169.001Z" fill="#F3F5F8"/>
<path d="M215 180.251C215 174.038 220.971 169.001 228.336 169.001H690.664C698.03 169.001 704 174.038 704 180.251V214.001H215V180.251Z" fill="#E0E7EC"/>
<path fill-rule="evenodd" clip-rule="evenodd" d="M237.526 197.16C240.637 197.16 243.158 194.639 243.158 191.528C243.158 188.418 240.637 185.896 237.526 185.896C234.416 185.896 231.895 188.418 231.895 191.528C231.895 194.639 234.416 197.16 237.526 197.16ZM256.299 197.16C259.41 197.16 261.931 194.639 261.931 191.528C261.931 188.418 259.41 185.896 256.299 185.896C253.189 185.896 250.667 188.418 250.667 191.528C250.667 194.639 253.189 197.16 256.299 197.16ZM280.704 191.528C280.704 194.639 278.182 197.16 275.072 197.16C271.961 197.16 269.44 194.639 269.44 191.528C269.44 188.418 271.961 185.896 275.072 185.896C278.182 185.896 280.704 188.418 280.704 191.528Z" fill="#94A2AB"/>
<path d="M673.1 229.001H245.9C240.985 229.001 237 232.368 237 236.521V315.481C237 319.634 240.985 323.001 245.9 323.001H673.1C678.015 323.001 682 319.634 682 315.481V236.521C682 232.368 678.015 229.001 673.1 229.001Z" fill="#E0E7EC"/>
<path fill-rule="evenodd" clip-rule="evenodd" d="M280.706 313.551C301.441 313.551 318.251 296.741 318.251 276.005C318.251 255.27 301.441 238.46 280.706 238.46C259.97 238.46 243.16 255.27 243.16 276.005C243.16 296.741 259.97 313.551 280.706 313.551Z" fill="#E0E7EC"/>
<path fill-rule="evenodd" clip-rule="evenodd" d="M289.944 266.365C289.944 271.409 285.799 275.498 280.686 275.498C275.573 275.498 271.428 271.409 271.428 266.365C271.428 261.321 275.573 257.232 280.686 257.232C285.799 257.232 289.944 261.321 289.944 266.365ZM263.906 296.617C263.906 287.475 271.419 280.064 280.686 280.064C289.953 280.064 297.466 287.475 297.466 296.617H263.906Z" fill="#C7D3DC"/>
<path d="M644.2 270.001H607.8C602.388 270.001 598 274.926 598 281.001C598 287.076 602.388 292.001 607.8 292.001H644.2C649.612 292.001 654 287.076 654 281.001C654 274.926 649.612 270.001 644.2 270.001Z" fill="#112D44"/>
<path d="M513.759 366.001H372.241C369.347 366.001 367 367.68 367 369.751V377.251C367 379.322 369.347 381.001 372.241 381.001H513.759C516.653 381.001 519 379.322 519 377.251V369.751C519 367.68 516.653 366.001 513.759 366.001Z" fill="#E0E7EC"/>
<path d="M570.775 342.001H372.225C369.339 342.001 367 343.68 367 345.751V353.251C367 355.322 369.339 357.001 372.225 357.001H570.775C573.661 357.001 576 355.322 576 353.251V345.751C576 343.68 573.661 342.001 570.775 342.001Z" fill="#C7D3DC"/>
<path d="M663.3 341.71H640.773C630.405 341.71 622 350.115 622 360.483C622 370.851 630.405 379.255 640.773 379.255H663.3C673.668 379.255 682.073 370.851 682.073 360.483C682.073 350.115 673.668 341.71 663.3 341.71Z" fill="#E0E7EC"/>
<path fill-rule="evenodd" clip-rule="evenodd" d="M640.773 379.255C651.141 379.255 659.545 370.851 659.545 360.483C659.545 350.115 651.141 341.71 640.773 341.71C630.405 341.71 622 350.115 622 360.483C622 370.851 630.405 379.255 640.773 379.255Z" fill="#C7D3DC"/>
<path fill-rule="evenodd" clip-rule="evenodd" d="M237.528 341.71C235.454 341.71 233.773 343.391 233.773 345.465V352.974C233.773 355.047 235.454 356.728 237.528 356.728H320.128C322.202 356.728 323.883 355.047 323.883 352.974V345.465C323.883 343.391 322.202 341.71 320.128 341.71H237.528ZM237.528 366.115C235.454 366.115 233.773 367.795 233.773 369.869V377.378C233.773 379.453 235.454 381.133 237.528 381.133H308.864C310.938 381.133 312.619 379.453 312.619 377.378V369.869C312.619 367.795 310.938 366.115 308.864 366.115H237.528ZM233.773 394.274C233.773 392.199 235.454 390.519 237.528 390.519H323.883C325.956 390.519 327.637 392.199 327.637 394.274V401.783C327.637 403.857 325.956 405.537 323.883 405.537H237.528C235.454 405.537 233.773 403.857 233.773 401.783V394.274ZM237.528 414.924C235.454 414.924 233.773 416.604 233.773 418.678V426.187C233.773 428.262 235.454 429.942 237.528 429.942H323.883C325.956 429.942 327.637 428.262 327.637 426.187V418.678C327.637 416.604 325.956 414.924 323.883 414.924H237.528Z" fill="#E0E7EC"/>
<path d="M513.759 424.001H372.241C369.347 424.001 367 425.68 367 427.751V435.251C367 437.322 369.347 439.001 372.241 439.001H513.759C516.653 439.001 519 437.322 519 435.251V427.751C519 425.68 516.653 424.001 513.759 424.001Z" fill="#E0E7EC"/>
<path d="M570.775 400.001H372.225C369.339 400.001 367 401.68 367 403.751V411.251C367 413.322 369.339 415.001 372.225 415.001H570.775C573.661 415.001 576 413.322 576 411.251V403.751C576 401.68 573.661 400.001 570.775 400.001Z" fill="#C7D3DC"/>
<path d="M663.3 399.905H640.773C630.405 399.905 622 408.31 622 418.678C622 429.046 630.405 437.451 640.773 437.451H663.3C673.668 437.451 682.073 429.046 682.073 418.678C682.073 408.31 673.668 399.905 663.3 399.905Z" fill="#E0E7EC"/>
<path fill-rule="evenodd" clip-rule="evenodd" d="M663.3 437.451C673.668 437.451 682.073 429.046 682.073 418.678C682.073 408.31 673.668 399.905 663.3 399.905C652.932 399.905 644.527 408.31 644.527 418.678C644.527 429.046 652.932 437.451 663.3 437.451Z" fill="#112D44"/>
<defs>
<filter id="filter0_f_1929_8715" x="107" y="274.001" width="730.224" height="456.75" filterUnits="userSpaceOnUse" color-interpolation-filters="sRGB">
<feFlood flood-opacity="0" result="BackgroundImageFix"/>
<feBlend mode="normal" in="SourceGraphic" in2="BackgroundImageFix" result="shape"/>
<feGaussianBlur stdDeviation="75" result="effect1_foregroundBlur_1929_8715"/>
</filter>
<filter id="filter1_f_1929_8715" x="103.965" y="473.311" width="661.703" height="94.3394" filterUnits="userSpaceOnUse" color-interpolation-filters="sRGB">
<feFlood flood-opacity="0" result="BackgroundImageFix"/>
<feBlend mode="normal" in="SourceGraphic" in2="BackgroundImageFix" result="shape"/>
<feGaussianBlur stdDeviation="22" result="effect1_foregroundBlur_1929_8715"/>
</filter>
<linearGradient id="paint0_linear_1929_8715" x1="128" y1="503.366" x2="766.997" y2="503.366" gradientUnits="userSpaceOnUse">
<stop stop-color="#0D1012"/>
<stop offset="0.0295345" stop-color="#CAD4DB"/>
<stop offset="0.0625" stop-color="#242729"/>
<stop offset="0.133609" stop-color="#A3ACB1"/>
<stop offset="0.865967" stop-color="#A3ACB1"/>
<stop offset="0.941937" stop-color="#242729"/>
<stop offset="0.971275" stop-color="#CAD4DB"/>
<stop offset="0.996436" stop-color="#0D1012"/>
</linearGradient>
<linearGradient id="paint1_linear_1929_8715" x1="447.499" y1="509.07" x2="447.499" y2="516.677" gradientUnits="userSpaceOnUse">
<stop stop-color="#7A7F83"/>
<stop offset="1" stop-color="#0B0B0E"/>
</linearGradient>
<linearGradient id="paint2_linear_1929_8715" x1="405.341" y1="503.049" x2="492.189" y2="503.049" gradientUnits="userSpaceOnUse">
<stop stop-color="#3C3C3C"/>
<stop offset="0.317518" stop-color="#3C3C3C" stop-opacity="0"/>
<stop offset="0.660584" stop-color="#3C3C3C" stop-opacity="0"/>
<stop offset="1" stop-color="#444444"/>
</linearGradient>
</defs>
</svg>
