<svg width="664" height="419" viewBox="0 0 664 419" fill="none" xmlns="http://www.w3.org/2000/svg">
<g filter="url(#filter0_f_1_2001)">
<ellipse cx="331.816" cy="371.48" rx="286.851" ry="3.16963" fill="black"/>
</g>
<path d="M100.125 27.9995C100.125 13.0878 112.213 0.999512 127.125 0.999512H588.409C603.32 0.999512 615.409 13.0878 615.409 27.9995V347.194C615.409 348.851 614.065 350.194 612.409 350.194H103.125C101.468 350.194 100.125 348.851 100.125 347.194V27.9995Z" fill="#1A202C" stroke="#4A5568" stroke-width="2"/>
<path d="M102.293 25.1692C102.293 13.0189 112.143 3.16919 124.293 3.16919H591.237C603.387 3.16919 613.237 13.0189 613.237 25.1692V337.882H102.293V25.1692Z" fill="black"/>
<rect x="112.438" y="19.6511" width="488.123" height="304.284" rx="10" fill="white"/>
<path d="M297.229 167.366V184.82H293.539V167.366H297.229ZM303.828 177.252V184.82H300.197V171.729H303.658V174.039H303.811C304.101 173.278 304.587 172.675 305.268 172.232C305.95 171.783 306.777 171.559 307.749 171.559C308.658 171.559 309.45 171.758 310.126 172.156C310.802 172.553 311.328 173.121 311.703 173.86C312.078 174.593 312.266 175.468 312.266 176.485V184.82H308.635V177.133C308.641 176.332 308.436 175.707 308.021 175.258C307.606 174.803 307.035 174.576 306.308 174.576C305.82 174.576 305.388 174.681 305.013 174.891C304.643 175.102 304.354 175.408 304.143 175.812C303.939 176.21 303.834 176.69 303.828 177.252ZM326.019 175.462L322.695 175.667C322.638 175.383 322.516 175.127 322.329 174.9C322.141 174.667 321.894 174.482 321.587 174.346C321.286 174.204 320.925 174.133 320.505 174.133C319.942 174.133 319.468 174.252 319.082 174.491C318.695 174.724 318.502 175.036 318.502 175.428C318.502 175.741 318.627 176.005 318.877 176.221C319.127 176.437 319.556 176.61 320.164 176.741L322.533 177.218C323.806 177.479 324.755 177.9 325.38 178.479C326.005 179.059 326.317 179.82 326.317 180.763C326.317 181.621 326.065 182.374 325.559 183.022C325.059 183.67 324.371 184.175 323.496 184.539C322.627 184.897 321.624 185.076 320.488 185.076C318.755 185.076 317.374 184.715 316.346 183.994C315.323 183.266 314.724 182.278 314.548 181.028L318.119 180.84C318.226 181.369 318.488 181.772 318.903 182.05C319.317 182.323 319.849 182.46 320.496 182.46C321.133 182.46 321.644 182.337 322.03 182.093C322.423 181.843 322.621 181.522 322.627 181.13C322.621 180.8 322.482 180.531 322.209 180.32C321.937 180.104 321.516 179.94 320.948 179.826L318.681 179.374C317.403 179.119 316.451 178.675 315.826 178.045C315.207 177.414 314.897 176.61 314.897 175.633C314.897 174.792 315.124 174.067 315.579 173.46C316.039 172.852 316.684 172.383 317.513 172.053C318.349 171.724 319.326 171.559 320.445 171.559C322.099 171.559 323.4 171.908 324.349 172.607C325.303 173.306 325.86 174.258 326.019 175.462ZM334.57 185.076C333.223 185.076 332.064 184.803 331.092 184.258C330.126 183.707 329.382 182.928 328.859 181.923C328.337 180.911 328.075 179.715 328.075 178.335C328.075 176.988 328.337 175.806 328.859 174.789C329.382 173.772 330.118 172.979 331.067 172.411C332.021 171.843 333.141 171.559 334.425 171.559C335.288 171.559 336.092 171.698 336.837 171.977C337.587 172.249 338.24 172.661 338.797 173.212C339.359 173.763 339.797 174.457 340.109 175.292C340.422 176.121 340.578 177.093 340.578 178.207V179.204H329.524V176.954H337.16C337.16 176.431 337.047 175.968 336.82 175.565C336.592 175.161 336.277 174.846 335.874 174.619C335.476 174.386 335.013 174.269 334.484 174.269C333.933 174.269 333.445 174.397 333.018 174.653C332.598 174.903 332.268 175.241 332.03 175.667C331.791 176.087 331.669 176.556 331.663 177.073V179.212C331.663 179.86 331.783 180.42 332.021 180.891C332.266 181.363 332.609 181.727 333.052 181.982C333.496 182.238 334.021 182.366 334.629 182.366C335.033 182.366 335.402 182.309 335.737 182.195C336.072 182.082 336.359 181.911 336.598 181.684C336.837 181.457 337.018 181.178 337.143 180.849L340.501 181.07C340.331 181.877 339.981 182.582 339.453 183.184C338.93 183.781 338.254 184.246 337.425 184.582C336.601 184.911 335.649 185.076 334.57 185.076ZM342.947 184.82V171.729H346.467V174.013H346.604C346.842 173.201 347.243 172.587 347.805 172.173C348.368 171.752 349.016 171.542 349.749 171.542C349.93 171.542 350.126 171.553 350.337 171.576C350.547 171.599 350.731 171.63 350.891 171.67V174.891C350.72 174.84 350.484 174.795 350.183 174.755C349.882 174.715 349.606 174.695 349.356 174.695C348.822 174.695 348.345 174.812 347.925 175.045C347.51 175.272 347.18 175.59 346.936 175.999C346.697 176.408 346.578 176.88 346.578 177.414V184.82H342.947ZM360.387 171.729V174.457H352.503V171.729H360.387ZM354.293 168.593H357.924V180.798C357.924 181.133 357.975 181.394 358.077 181.582C358.18 181.763 358.322 181.891 358.503 181.965C358.691 182.039 358.907 182.076 359.151 182.076C359.322 182.076 359.492 182.062 359.663 182.033C359.833 181.999 359.964 181.974 360.055 181.957L360.626 184.658C360.444 184.715 360.188 184.781 359.859 184.854C359.529 184.934 359.128 184.982 358.657 184.999C357.782 185.033 357.015 184.917 356.356 184.65C355.702 184.383 355.194 183.968 354.83 183.406C354.467 182.843 354.288 182.133 354.293 181.275V168.593ZM367.352 167.366H371.486L375.466 174.883H375.636L379.616 167.366H383.75L377.383 178.65V184.82H373.719V178.65L367.352 167.366ZM388.87 185.076C387.546 185.076 386.401 184.795 385.435 184.232C384.475 183.664 383.734 182.874 383.211 181.863C382.688 180.846 382.427 179.667 382.427 178.326C382.427 176.974 382.688 175.792 383.211 174.781C383.734 173.763 384.475 172.974 385.435 172.411C386.401 171.843 387.546 171.559 388.87 171.559C390.194 171.559 391.336 171.843 392.296 172.411C393.262 172.974 394.006 173.763 394.529 174.781C395.052 175.792 395.313 176.974 395.313 178.326C395.313 179.667 395.052 180.846 394.529 181.863C394.006 182.874 393.262 183.664 392.296 184.232C391.336 184.795 390.194 185.076 388.87 185.076ZM388.887 182.263C389.489 182.263 389.992 182.093 390.396 181.752C390.799 181.406 391.103 180.934 391.307 180.337C391.518 179.741 391.623 179.062 391.623 178.3C391.623 177.539 391.518 176.86 391.307 176.263C391.103 175.667 390.799 175.195 390.396 174.849C389.992 174.502 389.489 174.329 388.887 174.329C388.279 174.329 387.768 174.502 387.353 174.849C386.944 175.195 386.634 175.667 386.424 176.263C386.219 176.86 386.117 177.539 386.117 178.3C386.117 179.062 386.219 179.741 386.424 180.337C386.634 180.934 386.944 181.406 387.353 181.752C387.768 182.093 388.279 182.263 388.887 182.263ZM406.069 179.246V171.729H409.699V184.82H406.214V182.442H406.077C405.782 183.21 405.29 183.826 404.603 184.292C403.921 184.758 403.089 184.991 402.106 184.991C401.231 184.991 400.461 184.792 399.796 184.394C399.131 183.996 398.611 183.431 398.236 182.698C397.867 181.965 397.68 181.087 397.674 180.065V171.729H401.305V179.417C401.31 180.19 401.518 180.8 401.927 181.249C402.336 181.698 402.884 181.923 403.572 181.923C404.009 181.923 404.418 181.823 404.799 181.624C405.18 181.42 405.486 181.119 405.719 180.721C405.958 180.323 406.074 179.832 406.069 179.246ZM412.604 184.82V171.729H416.124V174.013H416.26C416.499 173.201 416.899 172.587 417.462 172.173C418.024 171.752 418.672 171.542 419.405 171.542C419.587 171.542 419.783 171.553 419.993 171.576C420.203 171.599 420.388 171.63 420.547 171.67V174.891C420.376 174.84 420.141 174.795 419.839 174.755C419.538 174.715 419.263 174.695 419.013 174.695C418.479 174.695 418.001 174.812 417.581 175.045C417.166 175.272 416.837 175.59 416.592 175.999C416.354 176.408 416.234 176.88 416.234 177.414V184.82H412.604ZM292.555 206.82H286.367V189.366H292.606C294.361 189.366 295.873 189.715 297.14 190.414C298.407 191.107 299.381 192.104 300.063 193.406C300.751 194.707 301.094 196.263 301.094 198.076C301.094 199.894 300.751 201.457 300.063 202.763C299.381 204.07 298.401 205.073 297.123 205.772C295.85 206.471 294.327 206.82 292.555 206.82ZM290.057 203.658H292.401C293.492 203.658 294.41 203.465 295.154 203.079C295.904 202.687 296.467 202.082 296.842 201.263C297.222 200.44 297.413 199.377 297.413 198.076C297.413 196.786 297.222 195.732 296.842 194.914C296.467 194.096 295.907 193.494 295.163 193.107C294.418 192.721 293.501 192.528 292.41 192.528H290.057V203.658ZM309.726 207.076C308.379 207.076 307.22 206.803 306.249 206.258C305.283 205.707 304.538 204.928 304.016 203.923C303.493 202.911 303.231 201.715 303.231 200.335C303.231 198.988 303.493 197.806 304.016 196.789C304.538 195.772 305.274 194.979 306.223 194.411C307.177 193.843 308.297 193.559 309.581 193.559C310.445 193.559 311.249 193.698 311.993 193.977C312.743 194.249 313.396 194.661 313.953 195.212C314.516 195.763 314.953 196.457 315.266 197.292C315.578 198.121 315.734 199.093 315.734 200.207V201.204H304.68V198.954H312.317C312.317 198.431 312.203 197.968 311.976 197.565C311.749 197.161 311.433 196.846 311.03 196.619C310.632 196.386 310.169 196.269 309.641 196.269C309.089 196.269 308.601 196.397 308.175 196.653C307.754 196.903 307.425 197.241 307.186 197.667C306.947 198.087 306.825 198.556 306.82 199.073V201.212C306.82 201.86 306.939 202.42 307.177 202.891C307.422 203.363 307.766 203.727 308.209 203.982C308.652 204.238 309.177 204.366 309.785 204.366C310.189 204.366 310.558 204.309 310.893 204.195C311.229 204.082 311.516 203.911 311.754 203.684C311.993 203.457 312.175 203.178 312.3 202.849L315.658 203.07C315.487 203.877 315.138 204.582 314.609 205.184C314.087 205.781 313.41 206.246 312.581 206.582C311.757 206.911 310.805 207.076 309.726 207.076ZM328.996 197.462L325.672 197.667C325.615 197.383 325.493 197.127 325.305 196.9C325.118 196.667 324.871 196.482 324.564 196.346C324.263 196.204 323.902 196.133 323.481 196.133C322.919 196.133 322.445 196.252 322.058 196.491C321.672 196.724 321.479 197.036 321.479 197.428C321.479 197.741 321.604 198.005 321.854 198.221C322.104 198.437 322.533 198.61 323.141 198.741L325.51 199.218C326.783 199.479 327.731 199.9 328.356 200.479C328.981 201.059 329.294 201.82 329.294 202.763C329.294 203.621 329.041 204.374 328.535 205.022C328.035 205.67 327.348 206.175 326.473 206.539C325.604 206.897 324.601 207.076 323.464 207.076C321.731 207.076 320.351 206.715 319.322 205.994C318.3 205.266 317.7 204.278 317.524 203.028L321.095 202.84C321.203 203.369 321.464 203.772 321.879 204.05C322.294 204.323 322.825 204.46 323.473 204.46C324.109 204.46 324.621 204.337 325.007 204.093C325.399 203.843 325.598 203.522 325.604 203.13C325.598 202.8 325.459 202.531 325.186 202.32C324.913 202.104 324.493 201.94 323.925 201.826L321.658 201.374C320.379 201.119 319.427 200.675 318.802 200.045C318.183 199.414 317.874 198.61 317.874 197.633C317.874 196.792 318.101 196.067 318.555 195.46C319.016 194.852 319.66 194.383 320.49 194.053C321.325 193.724 322.302 193.559 323.422 193.559C325.075 193.559 326.376 193.908 327.325 194.607C328.28 195.306 328.837 196.258 328.996 197.462ZM331.58 206.82V193.729H335.211V206.82H331.58ZM333.404 192.042C332.864 192.042 332.401 191.863 332.015 191.505C331.634 191.141 331.444 190.707 331.444 190.201C331.444 189.701 331.634 189.272 332.015 188.914C332.401 188.55 332.864 188.369 333.404 188.369C333.944 188.369 334.404 188.55 334.785 188.914C335.171 189.272 335.364 189.701 335.364 190.201C335.364 190.707 335.171 191.141 334.785 191.505C334.404 191.863 333.944 192.042 333.404 192.042ZM344.017 212.002C342.841 212.002 341.832 211.84 340.991 211.516C340.156 211.198 339.491 210.763 338.997 210.212C338.503 209.661 338.182 209.042 338.034 208.354L341.392 207.903C341.494 208.164 341.656 208.408 341.878 208.636C342.099 208.863 342.392 209.045 342.756 209.181C343.125 209.323 343.574 209.394 344.102 209.394C344.892 209.394 345.543 209.201 346.054 208.815C346.571 208.434 346.829 207.795 346.829 206.897V204.502H346.676C346.517 204.866 346.278 205.21 345.96 205.533C345.642 205.857 345.233 206.121 344.733 206.326C344.233 206.531 343.636 206.633 342.943 206.633C341.96 206.633 341.065 206.406 340.258 205.951C339.457 205.491 338.818 204.789 338.341 203.846C337.869 202.897 337.633 201.698 337.633 200.249C337.633 198.766 337.875 197.528 338.358 196.533C338.841 195.539 339.483 194.795 340.284 194.3C341.091 193.806 341.974 193.559 342.935 193.559C343.668 193.559 344.281 193.684 344.775 193.934C345.27 194.178 345.668 194.485 345.969 194.854C346.275 195.218 346.511 195.576 346.676 195.928H346.812V193.729H350.418V206.948C350.418 208.062 350.145 208.994 349.599 209.744C349.054 210.494 348.298 211.056 347.332 211.431C346.372 211.812 345.267 212.002 344.017 212.002ZM344.094 203.906C344.679 203.906 345.173 203.761 345.577 203.471C345.986 203.175 346.298 202.755 346.514 202.21C346.736 201.658 346.847 200.999 346.847 200.232C346.847 199.465 346.739 198.8 346.523 198.238C346.307 197.67 345.994 197.229 345.585 196.917C345.176 196.604 344.679 196.448 344.094 196.448C343.497 196.448 342.994 196.61 342.585 196.934C342.176 197.252 341.866 197.695 341.656 198.263C341.446 198.832 341.341 199.488 341.341 200.232C341.341 200.988 341.446 201.641 341.656 202.192C341.872 202.738 342.182 203.161 342.585 203.462C342.994 203.758 343.497 203.906 344.094 203.906ZM356.937 199.252V206.82H353.307V193.729H356.767V196.039H356.92C357.21 195.278 357.696 194.675 358.378 194.232C359.06 193.783 359.886 193.559 360.858 193.559C361.767 193.559 362.56 193.758 363.236 194.156C363.912 194.553 364.437 195.121 364.812 195.86C365.187 196.593 365.375 197.468 365.375 198.485V206.82H361.744V199.133C361.75 198.332 361.545 197.707 361.131 197.258C360.716 196.803 360.145 196.576 359.418 196.576C358.929 196.576 358.497 196.681 358.122 196.891C357.753 197.102 357.463 197.408 357.253 197.812C357.048 198.21 356.943 198.69 356.937 199.252ZM373.859 206.82V189.366H377.55V196.567H385.041V189.366H388.723V206.82H385.041V199.61H377.55V206.82H373.859ZM397.663 207.076C396.317 207.076 395.158 206.803 394.186 206.258C393.22 205.707 392.476 204.928 391.953 203.923C391.43 202.911 391.169 201.715 391.169 200.335C391.169 198.988 391.43 197.806 391.953 196.789C392.476 195.772 393.212 194.979 394.16 194.411C395.115 193.843 396.234 193.559 397.518 193.559C398.382 193.559 399.186 193.698 399.93 193.977C400.68 194.249 401.334 194.661 401.891 195.212C402.453 195.763 402.891 196.457 403.203 197.292C403.516 198.121 403.672 199.093 403.672 200.207V201.204H392.618V198.954H400.254C400.254 198.431 400.141 197.968 399.913 197.565C399.686 197.161 399.371 196.846 398.967 196.619C398.57 196.386 398.106 196.269 397.578 196.269C397.027 196.269 396.538 196.397 396.112 196.653C395.692 196.903 395.362 197.241 395.124 197.667C394.885 198.087 394.763 198.556 394.757 199.073V201.212C394.757 201.86 394.876 202.42 395.115 202.891C395.359 203.363 395.703 203.727 396.146 203.982C396.589 204.238 397.115 204.366 397.723 204.366C398.126 204.366 398.496 204.309 398.831 204.195C399.166 204.082 399.453 203.911 399.692 203.684C399.93 203.457 400.112 203.178 400.237 202.849L403.595 203.07C403.425 203.877 403.075 204.582 402.547 205.184C402.024 205.781 401.348 206.246 400.518 206.582C399.695 206.911 398.743 207.076 397.663 207.076ZM406.041 206.82V193.729H409.561V196.013H409.697C409.936 195.201 410.337 194.587 410.899 194.173C411.462 193.752 412.109 193.542 412.842 193.542C413.024 193.542 413.22 193.553 413.43 193.576C413.641 193.599 413.825 193.63 413.984 193.67V196.891C413.814 196.84 413.578 196.795 413.277 196.755C412.976 196.715 412.7 196.695 412.45 196.695C411.916 196.695 411.439 196.812 411.018 197.045C410.604 197.272 410.274 197.59 410.03 197.999C409.791 198.408 409.672 198.88 409.672 199.414V206.82H406.041ZM421.218 207.076C419.871 207.076 418.712 206.803 417.741 206.258C416.775 205.707 416.03 204.928 415.508 203.923C414.985 202.911 414.724 201.715 414.724 200.335C414.724 198.988 414.985 197.806 415.508 196.789C416.03 195.772 416.766 194.979 417.715 194.411C418.67 193.843 419.789 193.559 421.073 193.559C421.937 193.559 422.741 193.698 423.485 193.977C424.235 194.249 424.888 194.661 425.445 195.212C426.008 195.763 426.445 196.457 426.758 197.292C427.07 198.121 427.226 199.093 427.226 200.207V201.204H416.173V198.954H423.809C423.809 198.431 423.695 197.968 423.468 197.565C423.241 197.161 422.925 196.846 422.522 196.619C422.124 196.386 421.661 196.269 421.133 196.269C420.582 196.269 420.093 196.397 419.667 196.653C419.246 196.903 418.917 197.241 418.678 197.667C418.44 198.087 418.317 198.556 418.312 199.073V201.212C418.312 201.86 418.431 202.42 418.67 202.891C418.914 203.363 419.258 203.727 419.701 203.982C420.144 204.238 420.67 204.366 421.278 204.366C421.681 204.366 422.05 204.309 422.386 204.195C422.721 204.082 423.008 203.911 423.246 203.684C423.485 203.457 423.667 203.178 423.792 202.849L427.15 203.07C426.979 203.877 426.63 204.582 426.101 205.184C425.579 205.781 424.903 206.246 424.073 206.582C423.249 206.911 422.298 207.076 421.218 207.076Z" fill="#2D3748"/>
<path d="M25 350.659C25 349.554 25.8954 348.659 27 348.659H661.997C663.102 348.659 663.997 349.554 663.997 350.659V360.07H25V350.659Z" fill="#A3ACB1"/>
<path d="M25 350.659C25 349.554 25.8954 348.659 27 348.659H661.997C663.102 348.659 663.997 349.554 663.997 350.659V360.07H25V350.659Z" fill="url(#paint0_linear_1_2001)"/>
<path d="M25 360.07H663.997C638.914 365.128 613.389 367.677 587.801 367.677H94.299C70.991 367.677 47.753 365.126 25 360.07Z" fill="#647279"/>
<path d="M25 360.07H663.997C638.914 365.128 613.389 367.677 587.801 367.677H94.299C70.991 367.677 47.753 365.126 25 360.07Z" fill="url(#paint1_linear_1_2001)"/>
<path fill-rule="evenodd" clip-rule="evenodd" d="M291.902 348.659C292.229 353.615 296.352 357.534 301.39 357.534H388.238C393.277 357.534 397.4 353.615 397.726 348.659H291.902Z" fill="#96A1A8"/>
<path fill-rule="evenodd" clip-rule="evenodd" d="M291.902 348.659C292.229 353.615 296.352 357.534 301.39 357.534H388.238C393.277 357.534 397.4 353.615 397.726 348.659H291.902Z" fill="url(#paint2_linear_1_2001)"/>
<defs>
<filter id="filter0_f_1_2001" x="0.964844" y="324.31" width="661.703" height="94.3394" filterUnits="userSpaceOnUse" color-interpolation-filters="sRGB">
<feFlood flood-opacity="0" result="BackgroundImageFix"/>
<feBlend mode="normal" in="SourceGraphic" in2="BackgroundImageFix" result="shape"/>
<feGaussianBlur stdDeviation="22" result="effect1_foregroundBlur_1_2001"/>
</filter>
<linearGradient id="paint0_linear_1_2001" x1="25" y1="354.364" x2="663.997" y2="354.364" gradientUnits="userSpaceOnUse">
<stop stop-color="#0D1012"/>
<stop offset="0.0295345" stop-color="#CAD4DB"/>
<stop offset="0.0625" stop-color="#242729"/>
<stop offset="0.133609" stop-color="#A3ACB1"/>
<stop offset="0.865967" stop-color="#A3ACB1"/>
<stop offset="0.941937" stop-color="#242729"/>
<stop offset="0.971275" stop-color="#CAD4DB"/>
<stop offset="0.996436" stop-color="#0D1012"/>
</linearGradient>
<linearGradient id="paint1_linear_1_2001" x1="344.499" y1="360.07" x2="344.499" y2="367.677" gradientUnits="userSpaceOnUse">
<stop stop-color="#7A7F83"/>
<stop offset="1" stop-color="#0B0B0E"/>
</linearGradient>
<linearGradient id="paint2_linear_1_2001" x1="302.341" y1="354.047" x2="389.189" y2="354.047" gradientUnits="userSpaceOnUse">
<stop stop-color="#3C3C3C"/>
<stop offset="0.317518" stop-color="#3C3C3C" stop-opacity="0"/>
<stop offset="0.660584" stop-color="#3C3C3C" stop-opacity="0"/>
<stop offset="1" stop-color="#444444"/>
</linearGradient>
</defs>
</svg>
