<svg width="338" height="346" viewBox="0 0 338 346" fill="none" xmlns="http://www.w3.org/2000/svg">
<path d="M63.9312 277.21C-0.236782 221.373 66.1496 147.319 99.1466 125.723C314.735 9.91731 399.639 360.778 255.653 265.629C111.666 170.481 144.141 347.007 63.9312 277.21Z" fill="#07E1E8"/>
<g filter="url(#filter0_f_33_2242)">
<rect x="95" y="218" width="179.494" height="65.3976" fill="#0C4F7E" fill-opacity="0.09"/>
</g>
<path d="M163.377 64.2297L165.514 57.608L169.85 69.7801L158.211 66.9138L163.377 64.2297Z" stroke="#112D44" stroke-width="0.999999" stroke-linecap="round"/>
<path d="M163.378 64.2299L169.456 69.3343" stroke="#112D44" stroke-width="0.999999" stroke-linecap="round"/>
<path d="M27.7835 185.049C27.1541 112.174 63.5645 13.414 163.038 63.3537" stroke="#112D44" stroke-width="1.5" stroke-linecap="round" stroke-dasharray="2.5 2.5"/>
<g filter="url(#filter1_f_33_2242)">
<ellipse cx="173.001" cy="259.528" rx="134.673" ry="1.47208" fill="black"/>
</g>
<path d="M64.2272 100.033C64.2272 93.092 69.8537 87.4654 76.7943 87.4654H293.588C300.528 87.4654 306.155 93.092 306.155 100.033V248.245C306.155 249.016 305.53 249.641 304.758 249.641H65.6235C64.8523 249.641 64.2272 249.016 64.2272 248.245V100.033Z" fill="#1A202C" stroke="#4A5568" stroke-width="0.9309"/>
<path d="M65.2539 98.7121C65.2539 93.0567 69.8385 88.4722 75.4938 88.4722H294.896C300.551 88.4722 305.136 93.0567 305.136 98.7121V243.924H65.2539V98.7121Z" fill="black"/>
<rect x="70.0586" y="96.1267" width="229.168" height="141.32" rx="4.6545" fill="white"/>
<path d="M157.064 164.424V172.548H155.346V164.424H157.064ZM160.135 169.025V172.548H158.445V166.455H160.056V167.53H160.127C160.262 167.176 160.488 166.895 160.805 166.689C161.123 166.48 161.508 166.376 161.96 166.376C162.383 166.376 162.752 166.468 163.067 166.653C163.381 166.838 163.626 167.103 163.8 167.447C163.975 167.788 164.062 168.195 164.062 168.668V172.548H162.372V168.97C162.375 168.597 162.28 168.306 162.087 168.097C161.894 167.886 161.628 167.78 161.289 167.78C161.062 167.78 160.861 167.829 160.686 167.927C160.515 168.025 160.38 168.167 160.282 168.355C160.187 168.54 160.138 168.764 160.135 169.025ZM170.464 168.192L168.917 168.288C168.89 168.155 168.833 168.036 168.746 167.931C168.659 167.822 168.544 167.736 168.401 167.673C168.261 167.607 168.093 167.574 167.897 167.574C167.635 167.574 167.415 167.629 167.235 167.74C167.055 167.849 166.965 167.994 166.965 168.177C166.965 168.322 167.023 168.445 167.14 168.545C167.256 168.646 167.456 168.727 167.739 168.787L168.841 169.01C169.434 169.131 169.875 169.327 170.166 169.597C170.457 169.866 170.603 170.221 170.603 170.66C170.603 171.059 170.485 171.41 170.25 171.711C170.017 172.013 169.697 172.248 169.29 172.417C168.885 172.584 168.418 172.667 167.889 172.667C167.083 172.667 166.44 172.499 165.961 172.163C165.485 171.825 165.206 171.365 165.124 170.783L166.787 170.696C166.837 170.942 166.958 171.129 167.152 171.259C167.345 171.386 167.592 171.449 167.893 171.449C168.19 171.449 168.428 171.392 168.607 171.279C168.79 171.162 168.882 171.013 168.885 170.83C168.882 170.677 168.818 170.551 168.691 170.454C168.564 170.353 168.368 170.276 168.104 170.223L167.048 170.013C166.453 169.894 166.01 169.688 165.719 169.394C165.431 169.101 165.287 168.727 165.287 168.272C165.287 167.88 165.393 167.543 165.604 167.26C165.819 166.977 166.119 166.759 166.505 166.606C166.894 166.452 167.349 166.376 167.87 166.376C168.639 166.376 169.245 166.538 169.686 166.864C170.131 167.189 170.39 167.632 170.464 168.192ZM174.444 172.667C173.817 172.667 173.277 172.54 172.825 172.286C172.376 172.03 172.029 171.667 171.786 171.199C171.543 170.729 171.421 170.172 171.421 169.529C171.421 168.903 171.543 168.352 171.786 167.879C172.029 167.406 172.372 167.037 172.813 166.772C173.258 166.508 173.779 166.376 174.376 166.376C174.778 166.376 175.152 166.44 175.499 166.57C175.848 166.697 176.152 166.889 176.411 167.145C176.673 167.402 176.877 167.724 177.022 168.113C177.168 168.499 177.24 168.951 177.24 169.47V169.934H172.095V168.887H175.65C175.65 168.643 175.597 168.428 175.491 168.24C175.385 168.052 175.238 167.905 175.051 167.8C174.865 167.691 174.65 167.637 174.404 167.637C174.147 167.637 173.92 167.697 173.722 167.816C173.526 167.932 173.373 168.089 173.262 168.288C173.15 168.483 173.094 168.702 173.091 168.942V169.938C173.091 170.239 173.147 170.5 173.258 170.719C173.371 170.939 173.531 171.108 173.738 171.227C173.944 171.346 174.188 171.406 174.471 171.406C174.659 171.406 174.831 171.379 174.987 171.326C175.143 171.273 175.277 171.194 175.388 171.088C175.499 170.982 175.584 170.853 175.642 170.7L177.205 170.803C177.125 171.178 176.963 171.506 176.717 171.786C176.473 172.064 176.159 172.281 175.773 172.437C175.389 172.59 174.946 172.667 174.444 172.667ZM178.343 172.548V166.455H179.981V167.518H180.045C180.156 167.14 180.342 166.854 180.604 166.661C180.866 166.466 181.168 166.368 181.509 166.368C181.593 166.368 181.685 166.373 181.782 166.384C181.88 166.394 181.966 166.409 182.04 166.427V167.927C181.961 167.903 181.851 167.882 181.711 167.863C181.571 167.845 181.443 167.835 181.326 167.835C181.078 167.835 180.856 167.89 180.66 167.998C180.467 168.104 180.313 168.252 180.2 168.442C180.089 168.633 180.033 168.852 180.033 169.101V172.548H178.343ZM186.46 166.455V167.724H182.791V166.455H186.46ZM183.624 164.995H185.314V170.676C185.314 170.832 185.338 170.953 185.385 171.041C185.433 171.125 185.499 171.185 185.584 171.219C185.671 171.254 185.771 171.271 185.885 171.271C185.965 171.271 186.044 171.264 186.123 171.251C186.203 171.235 186.263 171.223 186.306 171.215L186.571 172.473C186.487 172.499 186.368 172.53 186.214 172.564C186.061 172.601 185.875 172.623 185.655 172.631C185.248 172.647 184.891 172.593 184.584 172.469C184.28 172.344 184.043 172.151 183.874 171.89C183.705 171.628 183.621 171.297 183.624 170.898V164.995ZM189.702 164.424H191.626L193.479 167.923H193.558L195.411 164.424H197.335L194.371 169.676V172.548H192.666V169.676L189.702 164.424ZM199.718 172.667C199.102 172.667 198.569 172.536 198.119 172.274C197.672 172.01 197.327 171.642 197.084 171.172C196.84 170.698 196.719 170.149 196.719 169.525C196.719 168.896 196.84 168.346 197.084 167.875C197.327 167.402 197.672 167.034 198.119 166.772C198.569 166.508 199.102 166.376 199.718 166.376C200.334 166.376 200.866 166.508 201.312 166.772C201.762 167.034 202.109 167.402 202.352 167.875C202.595 168.346 202.717 168.896 202.717 169.525C202.717 170.149 202.595 170.698 202.352 171.172C202.109 171.642 201.762 172.01 201.312 172.274C200.866 172.536 200.334 172.667 199.718 172.667ZM199.726 171.358C200.006 171.358 200.24 171.279 200.428 171.12C200.616 170.959 200.757 170.739 200.852 170.462C200.95 170.184 200.999 169.868 200.999 169.513C200.999 169.159 200.95 168.843 200.852 168.565C200.757 168.288 200.616 168.068 200.428 167.907C200.24 167.745 200.006 167.665 199.726 167.665C199.443 167.665 199.205 167.745 199.012 167.907C198.821 168.068 198.677 168.288 198.579 168.565C198.484 168.843 198.436 169.159 198.436 169.513C198.436 169.868 198.484 170.184 198.579 170.462C198.677 170.739 198.821 170.959 199.012 171.12C199.205 171.279 199.443 171.358 199.726 171.358ZM207.723 169.954V166.455H209.413V172.548H207.79V171.441H207.727C207.589 171.798 207.361 172.085 207.041 172.302C206.723 172.519 206.336 172.627 205.878 172.627C205.471 172.627 205.113 172.535 204.803 172.35C204.494 172.165 204.252 171.901 204.077 171.56C203.906 171.219 203.818 170.811 203.816 170.335V166.455H205.506V170.033C205.508 170.393 205.605 170.677 205.795 170.886C205.986 171.095 206.241 171.199 206.561 171.199C206.764 171.199 206.955 171.153 207.132 171.061C207.309 170.965 207.452 170.825 207.56 170.64C207.671 170.455 207.726 170.226 207.723 169.954ZM210.765 172.548V166.455H212.403V167.518H212.466C212.578 167.14 212.764 166.854 213.026 166.661C213.288 166.466 213.589 166.368 213.93 166.368C214.015 166.368 214.106 166.373 214.204 166.384C214.302 166.394 214.388 166.409 214.462 166.427V167.927C214.382 167.903 214.273 167.882 214.133 167.863C213.992 167.845 213.864 167.835 213.748 167.835C213.499 167.835 213.277 167.89 213.081 167.998C212.888 168.104 212.735 168.252 212.621 168.442C212.51 168.633 212.455 168.852 212.455 169.101V172.548H210.765ZM154.888 182.548H152.008V174.424H154.912C155.729 174.424 156.432 174.587 157.022 174.912C157.612 175.234 158.065 175.699 158.383 176.304C158.703 176.91 158.863 177.634 158.863 178.478C158.863 179.324 158.703 180.052 158.383 180.66C158.065 181.268 157.609 181.735 157.014 182.06C156.422 182.385 155.713 182.548 154.888 182.548ZM153.726 181.076H154.816C155.324 181.076 155.751 180.986 156.098 180.807C156.447 180.624 156.709 180.342 156.883 179.962C157.06 179.578 157.149 179.084 157.149 178.478C157.149 177.878 157.06 177.387 156.883 177.006C156.709 176.626 156.448 176.345 156.102 176.165C155.755 175.986 155.328 175.896 154.82 175.896H153.726V181.076ZM162.88 182.667C162.253 182.667 161.714 182.54 161.262 182.286C160.812 182.03 160.466 181.667 160.222 181.199C159.979 180.729 159.857 180.172 159.857 179.529C159.857 178.903 159.979 178.352 160.222 177.879C160.466 177.406 160.808 177.037 161.25 176.772C161.694 176.508 162.215 176.376 162.813 176.376C163.215 176.376 163.589 176.44 163.935 176.57C164.284 176.697 164.589 176.889 164.848 177.145C165.11 177.402 165.313 177.724 165.459 178.113C165.604 178.499 165.677 178.951 165.677 179.47V179.934H160.532V178.887H164.086C164.086 178.643 164.033 178.428 163.927 178.24C163.822 178.052 163.675 177.905 163.487 177.8C163.302 177.691 163.086 177.637 162.84 177.637C162.584 177.637 162.357 177.697 162.158 177.816C161.962 177.932 161.809 178.089 161.698 178.288C161.587 178.483 161.53 178.702 161.527 178.942V179.938C161.527 180.239 161.583 180.5 161.694 180.719C161.808 180.939 161.968 181.108 162.174 181.227C162.38 181.346 162.625 181.406 162.908 181.406C163.096 181.406 163.268 181.379 163.424 181.326C163.58 181.273 163.713 181.194 163.824 181.088C163.935 180.982 164.02 180.853 164.078 180.7L165.641 180.803C165.562 181.178 165.399 181.506 165.153 181.786C164.91 182.064 164.595 182.281 164.209 182.437C163.826 182.59 163.383 182.667 162.88 182.667ZM171.849 178.192L170.302 178.288C170.276 178.155 170.219 178.036 170.132 177.931C170.044 177.822 169.929 177.736 169.787 177.673C169.646 177.607 169.478 177.574 169.283 177.574C169.021 177.574 168.8 177.629 168.62 177.74C168.44 177.849 168.351 177.994 168.351 178.177C168.351 178.322 168.409 178.445 168.525 178.545C168.641 178.646 168.841 178.727 169.124 178.787L170.227 179.01C170.819 179.131 171.261 179.327 171.552 179.597C171.843 179.866 171.988 180.221 171.988 180.66C171.988 181.059 171.87 181.41 171.635 181.711C171.402 182.013 171.082 182.248 170.675 182.417C170.27 182.584 169.804 182.667 169.275 182.667C168.468 182.667 167.826 182.499 167.347 182.163C166.871 181.825 166.592 181.365 166.51 180.783L168.172 180.696C168.222 180.942 168.344 181.129 168.537 181.259C168.73 181.386 168.977 181.449 169.279 181.449C169.575 181.449 169.813 181.392 169.993 181.279C170.175 181.162 170.268 181.013 170.27 180.83C170.268 180.677 170.203 180.551 170.076 180.454C169.949 180.353 169.753 180.276 169.489 180.223L168.434 180.013C167.839 179.894 167.396 179.688 167.105 179.394C166.817 179.101 166.673 178.727 166.673 178.272C166.673 177.88 166.778 177.543 166.99 177.26C167.204 176.977 167.504 176.759 167.89 176.606C168.279 176.452 168.734 176.376 169.255 176.376C170.025 176.376 170.63 176.538 171.072 176.864C171.516 177.189 171.775 177.632 171.849 178.192ZM173.052 182.548V176.455H174.742V182.548H173.052ZM173.901 175.669C173.65 175.669 173.434 175.586 173.255 175.42C173.077 175.25 172.989 175.048 172.989 174.813C172.989 174.58 173.077 174.38 173.255 174.214C173.434 174.044 173.65 173.96 173.901 173.96C174.152 173.96 174.367 174.044 174.544 174.214C174.724 174.38 174.814 174.58 174.814 174.813C174.814 175.048 174.724 175.25 174.544 175.42C174.367 175.586 174.152 175.669 173.901 175.669ZM178.841 184.96C178.294 184.96 177.824 184.885 177.433 184.734C177.044 184.586 176.735 184.383 176.504 184.127C176.274 183.87 176.125 183.582 176.056 183.262L177.619 183.052C177.667 183.174 177.742 183.287 177.845 183.393C177.948 183.499 178.085 183.583 178.254 183.647C178.426 183.713 178.635 183.746 178.881 183.746C179.248 183.746 179.551 183.656 179.789 183.476C180.03 183.299 180.15 183.002 180.15 182.584V181.469H180.079C180.005 181.638 179.894 181.798 179.745 181.949C179.597 182.1 179.407 182.223 179.174 182.318C178.941 182.413 178.664 182.461 178.341 182.461C177.884 182.461 177.467 182.355 177.092 182.143C176.719 181.929 176.421 181.603 176.199 181.164C175.98 180.722 175.87 180.164 175.87 179.49C175.87 178.799 175.982 178.223 176.207 177.76C176.432 177.297 176.731 176.951 177.103 176.721C177.479 176.491 177.89 176.376 178.337 176.376C178.678 176.376 178.964 176.434 179.194 176.55C179.424 176.664 179.609 176.807 179.749 176.979C179.892 177.148 180.002 177.314 180.079 177.478H180.142V176.455H181.82V182.608C181.82 183.126 181.693 183.56 181.439 183.909C181.185 184.258 180.834 184.52 180.384 184.694C179.937 184.871 179.423 184.96 178.841 184.96ZM178.877 181.191C179.149 181.191 179.379 181.124 179.567 180.989C179.757 180.852 179.903 180.656 180.003 180.402C180.106 180.145 180.158 179.839 180.158 179.482C180.158 179.125 180.108 178.815 180.007 178.553C179.907 178.289 179.761 178.084 179.571 177.939C179.38 177.793 179.149 177.72 178.877 177.72C178.599 177.72 178.365 177.796 178.175 177.946C177.984 178.095 177.84 178.301 177.742 178.565C177.644 178.83 177.595 179.135 177.595 179.482C177.595 179.833 177.644 180.138 177.742 180.394C177.843 180.648 177.987 180.845 178.175 180.985C178.365 181.123 178.599 181.191 178.877 181.191ZM184.855 179.025V182.548H183.165V176.455H184.775V177.53H184.847C184.982 177.176 185.208 176.895 185.525 176.689C185.843 176.48 186.227 176.376 186.68 176.376C187.103 176.376 187.472 176.468 187.786 176.653C188.101 176.838 188.346 177.103 188.52 177.447C188.695 177.788 188.782 178.195 188.782 178.668V182.548H187.092V178.97C187.095 178.597 187 178.306 186.807 178.097C186.613 177.886 186.348 177.78 186.009 177.78C185.782 177.78 185.581 177.829 185.406 177.927C185.234 178.025 185.099 178.167 185.002 178.355C184.906 178.54 184.857 178.764 184.855 179.025ZM192.731 182.548V174.424H194.449V177.776H197.936V174.424H199.649V182.548H197.936V179.192H194.449V182.548H192.731ZM203.811 182.667C203.184 182.667 202.644 182.54 202.192 182.286C201.743 182.03 201.396 181.667 201.153 181.199C200.91 180.729 200.788 180.172 200.788 179.529C200.788 178.903 200.91 178.352 201.153 177.879C201.396 177.406 201.739 177.037 202.18 176.772C202.625 176.508 203.146 176.376 203.743 176.376C204.145 176.376 204.519 176.44 204.866 176.57C205.215 176.697 205.519 176.889 205.778 177.145C206.04 177.402 206.244 177.724 206.389 178.113C206.535 178.499 206.607 178.951 206.607 179.47V179.934H201.462V178.887H205.017C205.017 178.643 204.964 178.428 204.858 178.24C204.752 178.052 204.605 177.905 204.418 177.8C204.232 177.691 204.017 177.637 203.771 177.637C203.514 177.637 203.287 177.697 203.089 177.816C202.893 177.932 202.74 178.089 202.629 178.288C202.517 178.483 202.461 178.702 202.458 178.942V179.938C202.458 180.239 202.513 180.5 202.625 180.719C202.738 180.939 202.898 181.108 203.105 181.227C203.311 181.346 203.555 181.406 203.838 181.406C204.026 181.406 204.198 181.379 204.354 181.326C204.51 181.273 204.644 181.194 204.755 181.088C204.866 180.982 204.95 180.853 205.009 180.7L206.572 180.803C206.492 181.178 206.33 181.506 206.084 181.786C205.84 182.064 205.526 182.281 205.14 182.437C204.756 182.59 204.313 182.667 203.811 182.667ZM207.71 182.548V176.455H209.348V177.518H209.412C209.523 177.14 209.709 176.854 209.971 176.661C210.233 176.466 210.535 176.368 210.876 176.368C210.96 176.368 211.052 176.373 211.149 176.384C211.247 176.394 211.333 176.409 211.407 176.427V177.927C211.328 177.903 211.218 177.882 211.078 177.863C210.938 177.845 210.81 177.835 210.693 177.835C210.445 177.835 210.222 177.89 210.027 177.998C209.834 178.104 209.68 178.252 209.567 178.442C209.456 178.633 209.4 178.852 209.4 179.101V182.548H207.71ZM214.774 182.667C214.147 182.667 213.608 182.54 213.156 182.286C212.706 182.03 212.36 181.667 212.116 181.199C211.873 180.729 211.751 180.172 211.751 179.529C211.751 178.903 211.873 178.352 212.116 177.879C212.36 177.406 212.702 177.037 213.144 176.772C213.588 176.508 214.109 176.376 214.707 176.376C215.109 176.376 215.483 176.44 215.829 176.57C216.178 176.697 216.483 176.889 216.742 177.145C217.004 177.402 217.207 177.724 217.353 178.113C217.498 178.499 217.571 178.951 217.571 179.47V179.934H212.426V178.887H215.98C215.98 178.643 215.927 178.428 215.821 178.24C215.716 178.052 215.569 177.905 215.381 177.8C215.196 177.691 214.98 177.637 214.735 177.637C214.478 177.637 214.251 177.697 214.052 177.816C213.856 177.932 213.703 178.089 213.592 178.288C213.481 178.483 213.424 178.702 213.421 178.942V179.938C213.421 180.239 213.477 180.5 213.588 180.719C213.702 180.939 213.862 181.108 214.068 181.227C214.274 181.346 214.519 181.406 214.802 181.406C214.99 181.406 215.162 181.379 215.318 181.326C215.474 181.273 215.607 181.194 215.718 181.088C215.829 180.982 215.914 180.853 215.972 180.7L217.535 180.803C217.456 181.178 217.293 181.506 217.047 181.786C216.804 182.064 216.489 182.281 216.103 182.437C215.72 182.59 215.277 182.667 214.774 182.667Z" fill="#2D3748"/>
<path d="M29 249.86C29 249.346 29.4168 248.929 29.9309 248.929H328.071C328.585 248.929 329.002 249.346 329.002 249.86V254.229H29V249.86Z" fill="#A3ACB1"/>
<path d="M29 249.86C29 249.346 29.4168 248.929 29.9309 248.929H328.071C328.585 248.929 329.002 249.346 329.002 249.86V254.229H29V249.86Z" fill="url(#paint0_linear_33_2242)"/>
<path d="M29 254.229H329.002C317.225 256.578 305.245 257.762 293.236 257.762H61.5268C50.5888 257.762 39.6829 256.577 29 254.229Z" fill="#647279"/>
<path d="M29 254.229H329.002C317.225 256.578 305.245 257.762 293.236 257.762H61.5268C50.5888 257.762 39.6829 256.577 29 254.229Z" fill="url(#paint1_linear_33_2242)"/>
<path fill-rule="evenodd" clip-rule="evenodd" d="M154.316 248.929C154.47 251.231 156.405 253.051 158.771 253.051H199.545C201.911 253.051 203.846 251.231 204 248.929H154.316Z" fill="#96A1A8"/>
<path fill-rule="evenodd" clip-rule="evenodd" d="M154.316 248.929C154.47 251.231 156.405 253.051 158.771 253.051H199.545C201.911 253.051 203.846 251.231 204 248.929H154.316Z" fill="url(#paint2_linear_33_2242)"/>
<path d="M258.427 96.2886H75.1045C72.184 96.2886 69.8164 98.6307 69.8164 101.52V234.915C69.8164 237.805 72.184 240.147 75.1045 240.147H258.427C261.347 240.147 263.715 237.805 263.715 234.915V101.52C263.715 98.6307 261.347 96.2886 258.427 96.2886Z" fill="#F3F5F8"/>
<path d="M69.8164 101.52C69.8164 98.6307 72.184 96.2886 75.1045 96.2886H258.427C261.347 96.2886 263.715 98.6307 263.715 101.52V117.213H69.8164V101.52Z" fill="#E0E7EC"/>
<path fill-rule="evenodd" clip-rule="evenodd" d="M80.3745 109.366C81.8349 109.366 83.0186 108.195 83.0186 106.751C83.0186 105.306 81.8349 104.135 80.3745 104.135C78.9142 104.135 77.7305 105.306 77.7305 106.751C77.7305 108.195 78.9142 109.366 80.3745 109.366ZM89.1881 109.366C90.6484 109.366 91.8322 108.195 91.8322 106.751C91.8322 105.306 90.6484 104.135 89.1881 104.135C87.7278 104.135 86.544 105.306 86.544 106.751C86.544 108.195 87.7278 109.366 89.1881 109.366ZM100.646 106.751C100.646 108.195 99.462 109.366 98.0017 109.366C96.5413 109.366 95.3576 108.195 95.3576 106.751C95.3576 105.306 96.5413 104.135 98.0017 104.135C99.462 104.135 100.646 105.306 100.646 106.751Z" fill="#94A2AB"/>
<path d="M251.328 124.188H82.1075C80.1604 124.188 78.582 125.75 78.582 127.676V164.294C78.582 166.22 80.1604 167.782 82.1075 167.782H251.328C253.275 167.782 254.853 166.22 254.853 164.294V127.676C254.853 125.75 253.275 124.188 251.328 124.188Z" fill="#E0E7EC"/>
<path fill-rule="evenodd" clip-rule="evenodd" d="M100.6 163.422C110.335 163.422 118.227 155.615 118.227 145.985C118.227 136.355 110.335 128.548 100.6 128.548C90.8646 128.548 82.9727 136.355 82.9727 145.985C82.9727 155.615 90.8646 163.422 100.6 163.422Z" fill="#F3F5F8"/>
<path fill-rule="evenodd" clip-rule="evenodd" d="M104.923 141.508C104.923 143.85 102.978 145.749 100.577 145.749C98.1766 145.749 96.2306 143.85 96.2306 141.508C96.2306 139.165 98.1766 137.266 100.577 137.266C102.978 137.266 104.923 139.165 104.923 141.508ZM92.6992 155.558C92.6992 151.312 96.2262 147.87 100.577 147.87C104.928 147.87 108.455 151.312 108.455 155.558H92.6992Z" fill="#72808A"/>
<path d="M239.85 139.882H216.935C213.528 139.882 210.766 142.614 210.766 145.985C210.766 149.356 213.528 152.088 216.935 152.088H239.85C243.258 152.088 246.02 149.356 246.02 145.985C246.02 142.614 243.258 139.882 239.85 139.882Z" fill="#649DFF"/>
<path d="M210.035 176.5H143.052C142.078 176.5 141.289 177.281 141.289 178.244V181.732C141.289 182.695 142.078 183.475 143.052 183.475H210.035C211.008 183.475 211.798 182.695 211.798 181.732V178.244C211.798 177.281 211.008 176.5 210.035 176.5Z" fill="#94A2AB"/>
<path d="M190.645 187.835H143.052C142.078 187.835 141.289 188.615 141.289 189.578V193.066C141.289 194.029 142.078 194.81 143.052 194.81H190.645C191.619 194.81 192.408 194.029 192.408 193.066V189.578C192.408 188.615 191.619 187.835 190.645 187.835Z" fill="#E0E7EC"/>
<path d="M246.109 176.5H235.532C230.665 176.5 226.719 180.404 226.719 185.219C226.719 190.034 230.665 193.938 235.532 193.938H246.109C250.976 193.938 254.922 190.034 254.922 185.219C254.922 180.404 250.976 176.5 246.109 176.5Z" fill="#E0E7EC"/>
<path fill-rule="evenodd" clip-rule="evenodd" d="M235.532 193.938C240.4 193.938 244.346 190.034 244.346 185.219C244.346 180.404 240.4 176.5 235.532 176.5C230.665 176.5 226.719 180.404 226.719 185.219C226.719 190.034 230.665 193.938 235.532 193.938Z" fill="#649DFF"/>
<path d="M119.105 176.5H80.3252C79.3517 176.5 78.5625 177.281 78.5625 178.244V181.731C78.5625 182.694 79.3517 183.475 80.3252 183.475H119.105C120.078 183.475 120.868 182.694 120.868 181.731V178.244C120.868 177.281 120.078 176.5 119.105 176.5Z" fill="#E0E7EC"/>
<path d="M113.817 187.834H80.3252C79.3517 187.834 78.5625 188.615 78.5625 189.578V193.066C78.5625 194.029 79.3517 194.809 80.3252 194.809H113.817C114.79 194.809 115.579 194.029 115.579 193.066V189.578C115.579 188.615 114.79 187.834 113.817 187.834Z" fill="#E0E7EC"/>
<path d="M120.868 199.169H80.3252C79.3517 199.169 78.5625 199.949 78.5625 200.912V204.4C78.5625 205.363 79.3517 206.144 80.3252 206.144H120.868C121.841 206.144 122.63 205.363 122.63 204.4V200.912C122.63 199.949 121.841 199.169 120.868 199.169Z" fill="#E0E7EC"/>
<path d="M120.868 210.503H80.3252C79.3517 210.503 78.5625 211.284 78.5625 212.247V215.734C78.5625 216.697 79.3517 217.478 80.3252 217.478H120.868C121.841 217.478 122.63 216.697 122.63 215.734V212.247C122.63 211.284 121.841 210.503 120.868 210.503Z" fill="#E0E7EC"/>
<path d="M210.035 203.529H143.052C142.078 203.529 141.289 204.31 141.289 205.273V208.76C141.289 209.723 142.078 210.504 143.052 210.504H210.035C211.008 210.504 211.798 209.723 211.798 208.76V205.273C211.798 204.31 211.008 203.529 210.035 203.529Z" fill="#94A2AB"/>
<path d="M190.645 214.863H143.052C142.078 214.863 141.289 215.644 141.289 216.607V220.094C141.289 221.058 142.078 221.838 143.052 221.838H190.645C191.619 221.838 192.408 221.058 192.408 220.094V216.607C192.408 215.644 191.619 214.863 190.645 214.863Z" fill="#E0E7EC"/>
<path d="M246.109 203.529H235.532C230.665 203.529 226.719 207.433 226.719 212.248C226.719 217.063 230.665 220.966 235.532 220.966H246.109C250.976 220.966 254.922 217.063 254.922 212.248C254.922 207.433 250.976 203.529 246.109 203.529Z" fill="#FFD9C5"/>
<path fill-rule="evenodd" clip-rule="evenodd" d="M246.083 220.966C250.951 220.966 254.897 217.063 254.897 212.248C254.897 207.432 250.951 203.529 246.083 203.529C241.215 203.529 237.269 207.432 237.269 212.248C237.269 217.063 241.215 220.966 246.083 220.966Z" fill="#649DFF"/>
<path d="M293.139 96.2886H76.0816C72.6236 96.2886 69.8203 98.6326 69.8203 101.524V235.027C69.8203 237.919 72.6236 240.263 76.0816 240.263H293.139C296.597 240.263 299.4 237.919 299.4 235.027V101.524C299.4 98.6326 296.597 96.2886 293.139 96.2886Z" fill="#F3F5F8"/>
<path d="M69.8203 101.513C69.8203 98.6278 72.6236 96.2886 76.0816 96.2886H293.139C296.597 96.2886 299.4 98.6278 299.4 101.513V117.188H69.8203V101.513Z" fill="#E0E7EC"/>
<path fill-rule="evenodd" clip-rule="evenodd" d="M80.3589 109.367C81.8192 109.367 83.003 108.196 83.003 106.751C83.003 105.307 81.8192 104.135 80.3589 104.135C78.8986 104.135 77.7148 105.307 77.7148 106.751C77.7148 108.196 78.8986 109.367 80.3589 109.367ZM89.1725 109.367C90.6328 109.367 91.8165 108.196 91.8165 106.751C91.8165 105.307 90.6328 104.135 89.1725 104.135C87.7122 104.135 86.5284 105.307 86.5284 106.751C86.5284 108.196 87.7122 109.367 89.1725 109.367ZM100.63 106.751C100.63 108.196 99.4464 109.367 97.986 109.367C96.5257 109.367 95.342 108.196 95.342 106.751C95.342 105.307 96.5257 104.135 97.986 104.135C99.4464 104.135 100.63 105.307 100.63 106.751Z" fill="#94A2AB"/>
<path d="M284.853 124.155H84.2878C81.9801 124.155 80.1094 125.718 80.1094 127.647V164.319C80.1094 166.248 81.9801 167.811 84.2878 167.811H284.853C287.161 167.811 289.031 166.248 289.031 164.319V127.647C289.031 125.718 287.161 124.155 284.853 124.155Z" fill="#E0E7EC"/>
<path fill-rule="evenodd" clip-rule="evenodd" d="M100.619 163.422C110.355 163.422 118.246 155.615 118.246 145.985C118.246 136.355 110.355 128.548 100.619 128.548C90.8841 128.548 82.9922 136.355 82.9922 145.985C82.9922 155.615 90.8841 163.422 100.619 163.422Z" fill="#E0E7EC"/>
<path fill-rule="evenodd" clip-rule="evenodd" d="M104.943 141.508C104.943 143.85 102.997 145.749 100.597 145.749C98.1961 145.749 96.2502 143.85 96.2502 141.508C96.2502 139.165 98.1961 137.266 100.597 137.266C102.997 137.266 104.943 139.165 104.943 141.508ZM92.7188 155.558C92.7188 151.312 96.2458 147.87 100.597 147.87C104.947 147.87 108.474 151.312 108.474 155.558H92.7188Z" fill="#C7D3DC"/>
<path d="M271.366 143.196H254.277C251.736 143.196 249.676 145.483 249.676 148.305C249.676 151.126 251.736 153.414 254.277 153.414H271.366C273.907 153.414 275.967 151.126 275.967 148.305C275.967 145.483 273.907 143.196 271.366 143.196Z" fill="#112D44"/>
<path d="M209.972 187.782H143.531C142.172 187.782 141.07 188.562 141.07 189.524V193.007C141.07 193.969 142.172 194.749 143.531 194.749H209.972C211.331 194.749 212.433 193.969 212.433 193.007V189.524C212.433 188.562 211.331 187.782 209.972 187.782Z" fill="#E0E7EC"/>
<path d="M236.74 176.635H143.523C142.169 176.635 141.07 177.415 141.07 178.377V181.86C141.07 182.822 142.169 183.602 143.523 183.602H236.74C238.095 183.602 239.193 182.822 239.193 181.86V178.377C239.193 177.415 238.095 176.635 236.74 176.635Z" fill="#C7D3DC"/>
<path d="M280.28 176.5H269.704C264.837 176.5 260.891 180.404 260.891 185.219C260.891 190.034 264.837 193.938 269.704 193.938H280.28C285.148 193.938 289.094 190.034 289.094 185.219C289.094 180.404 285.148 176.5 280.28 176.5Z" fill="#E0E7EC"/>
<path fill-rule="evenodd" clip-rule="evenodd" d="M269.704 193.938C274.572 193.938 278.518 190.034 278.518 185.219C278.518 180.404 274.572 176.5 269.704 176.5C264.836 176.5 260.891 180.404 260.891 185.219C260.891 190.034 264.836 193.938 269.704 193.938Z" fill="#C7D3DC"/>
<path fill-rule="evenodd" clip-rule="evenodd" d="M80.3408 176.5C79.3673 176.5 78.5781 177.281 78.5781 178.244V181.731C78.5781 182.695 79.3673 183.475 80.3408 183.475H119.121C120.094 183.475 120.883 182.695 120.883 181.731V178.244C120.883 177.281 120.094 176.5 119.121 176.5H80.3408ZM80.3408 187.835C79.3673 187.835 78.5781 188.615 78.5781 189.578V193.066C78.5781 194.029 79.3673 194.809 80.3408 194.809H113.832C114.806 194.809 115.595 194.029 115.595 193.066V189.578C115.595 188.615 114.806 187.835 113.832 187.835H80.3408ZM78.5781 200.913C78.5781 199.949 79.3673 199.169 80.3408 199.169H120.883C121.857 199.169 122.646 199.949 122.646 200.913V204.4C122.646 205.363 121.857 206.144 120.883 206.144H80.3408C79.3673 206.144 78.5781 205.363 78.5781 204.4V200.913ZM80.3408 210.503C79.3673 210.503 78.5781 211.283 78.5781 212.247V215.734C78.5781 216.698 79.3673 217.478 80.3408 217.478H120.883C121.857 217.478 122.646 216.698 122.646 215.734V212.247C122.646 211.283 121.857 210.503 120.883 210.503H80.3408Z" fill="#E0E7EC"/>
<path d="M209.972 214.72H143.531C142.172 214.72 141.07 215.5 141.07 216.462V219.945C141.07 220.907 142.172 221.686 143.531 221.686H209.972C211.331 221.686 212.433 220.907 212.433 219.945V216.462C212.433 215.5 211.331 214.72 209.972 214.72Z" fill="#E0E7EC"/>
<path d="M236.74 203.576H143.523C142.169 203.576 141.07 204.356 141.07 205.318V208.801C141.07 209.763 142.169 210.543 143.523 210.543H236.74C238.095 210.543 239.193 209.763 239.193 208.801V205.318C239.193 204.356 238.095 203.576 236.74 203.576Z" fill="#C7D3DC"/>
<path d="M280.28 203.529H269.704C264.837 203.529 260.891 207.433 260.891 212.248C260.891 217.063 264.837 220.967 269.704 220.967H280.28C285.148 220.967 289.094 217.063 289.094 212.248C289.094 207.433 285.148 203.529 280.28 203.529Z" fill="#E0E7EC"/>
<path fill-rule="evenodd" clip-rule="evenodd" d="M280.251 220.967C285.119 220.967 289.065 217.063 289.065 212.248C289.065 207.433 285.119 203.529 280.251 203.529C275.383 203.529 271.437 207.433 271.437 212.248C271.437 217.063 275.383 220.967 280.251 220.967Z" fill="#112D44"/>
<defs>
<filter id="filter0_f_33_2242" x="32.4185" y="155.418" width="304.657" height="190.561" filterUnits="userSpaceOnUse" color-interpolation-filters="sRGB">
<feFlood flood-opacity="0" result="BackgroundImageFix"/>
<feBlend mode="normal" in="SourceGraphic" in2="BackgroundImageFix" result="shape"/>
<feGaussianBlur stdDeviation="31.2908" result="effect1_foregroundBlur_33_2242"/>
</filter>
<filter id="filter1_f_33_2242" x="17.8483" y="237.576" width="310.306" height="43.9037" filterUnits="userSpaceOnUse" color-interpolation-filters="sRGB">
<feFlood flood-opacity="0" result="BackgroundImageFix"/>
<feBlend mode="normal" in="SourceGraphic" in2="BackgroundImageFix" result="shape"/>
<feGaussianBlur stdDeviation="10.2399" result="effect1_foregroundBlur_33_2242"/>
</filter>
<linearGradient id="paint0_linear_33_2242" x1="29" y1="251.579" x2="329.002" y2="251.579" gradientUnits="userSpaceOnUse">
<stop stop-color="#0D1012"/>
<stop offset="0.0295345" stop-color="#CAD4DB"/>
<stop offset="0.0625" stop-color="#242729"/>
<stop offset="0.133609" stop-color="#A3ACB1"/>
<stop offset="0.865967" stop-color="#A3ACB1"/>
<stop offset="0.941937" stop-color="#242729"/>
<stop offset="0.971275" stop-color="#CAD4DB"/>
<stop offset="0.996436" stop-color="#0D1012"/>
</linearGradient>
<linearGradient id="paint1_linear_33_2242" x1="179.001" y1="254.229" x2="179.001" y2="257.762" gradientUnits="userSpaceOnUse">
<stop stop-color="#7A7F83"/>
<stop offset="1" stop-color="#0B0B0E"/>
</linearGradient>
<linearGradient id="paint2_linear_33_2242" x1="159.217" y1="251.431" x2="199.991" y2="251.431" gradientUnits="userSpaceOnUse">
<stop stop-color="#3C3C3C"/>
<stop offset="0.317518" stop-color="#3C3C3C" stop-opacity="0"/>
<stop offset="0.660584" stop-color="#3C3C3C" stop-opacity="0"/>
<stop offset="1" stop-color="#444444"/>
</linearGradient>
</defs>
</svg>
