<svg width="24" height="24" viewBox="0 0 24 24" fill="none" xmlns="http://www.w3.org/2000/svg">
<path d="M12.5012 14C13.8814 13.9976 15 12.8809 15 11.5C15 10.8108 14.7192 10.1864 14.2679 9.73247C13.8142 9.27858 13.1877 9 12.4988 9C11.121 9 10 10.1191 10 11.5C10 12.8809 11.1234 14 12.4988 14H12.5012ZM12.3596 13.3204V13.0274C11.9635 12.9649 11.6611 12.6191 11.6611 12.2037C11.6611 12.1268 11.7211 12.0644 11.8003 12.0644C11.8771 12.0644 11.9395 12.1244 11.9395 12.2037C11.9395 12.5134 12.1916 12.7656 12.5012 12.7656C12.8132 12.7656 13.0653 12.5134 13.0653 12.2037C13.0653 11.8915 12.8132 11.6393 12.5012 11.6393C12.494 11.6393 12.482 11.6393 12.4724 11.6369C12.0235 11.6249 11.6635 11.255 11.6635 10.7988C11.6635 10.3833 11.9683 10.0375 12.362 9.97502V9.68204C12.362 9.60759 12.4244 9.54275 12.5012 9.54275C12.578 9.54275 12.6404 9.60759 12.6404 9.68204V9.97502C13.0389 10.0375 13.3437 10.3833 13.3437 10.7988C13.3437 10.8756 13.2837 10.938 13.2045 10.938C13.1277 10.938 13.0653 10.878 13.0653 10.7988C13.0653 10.489 12.8132 10.2368 12.5012 10.2368C12.1916 10.2368 11.9395 10.489 11.9395 10.7988C11.9395 11.111 12.1916 11.3631 12.5012 11.3631C12.5084 11.3631 12.5204 11.3631 12.53 11.3655C12.9813 11.3775 13.3437 11.7474 13.3437 12.2037C13.3437 12.6191 13.0389 12.9649 12.6404 13.0274V13.3204C12.6404 13.3948 12.5804 13.4597 12.5012 13.4597C12.4244 13.4573 12.3596 13.3948 12.3596 13.3204Z" fill="#112D44"/>
<path d="M5.65266 13.4512H4V21H5.65266V13.4512Z" fill="#112D44"/>
<path d="M7.00699 14.2991V19.3861C7.00699 19.3879 7.0074 19.3898 7.00699 19.3907V20.1242C7.00699 20.2793 6.88816 20.4049 6.74171 20.4049H6.05078V14.0195H6.74171C6.88816 14.0195 7.00699 14.1451 7.00699 14.2991Z" fill="#112D44"/>
<path d="M20.7508 15.5531C20.721 15.7145 20.6224 15.862 20.48 15.9588L14.2245 20.2963C13.8997 20.5169 13.3063 20.6304 12.9312 20.5439L7.40625 19.1896V15.049H8.6842C9.4553 15.049 10.1996 15.1592 10.676 15.3437L10.693 15.351C10.6948 15.3515 10.6962 15.3523 10.6977 15.3528C11.1542 15.5297 11.9206 15.6745 12.4059 15.6745H15.3239C15.6695 15.6745 15.9534 15.9508 15.9698 16.3071C15.9702 16.3164 15.9706 16.3259 15.9706 16.3354C15.9706 16.3771 15.9667 16.4188 15.9585 16.4614C15.8996 16.7719 15.6321 16.9966 15.3237 16.9966H12.4102C12.3252 16.9923 11.5438 16.9761 10.8942 17.5692C10.8112 17.6448 10.8022 17.7777 10.8736 17.8654C10.913 17.9131 10.9687 17.9382 11.0243 17.9382C11.0703 17.9382 11.1165 17.9213 11.1544 17.8868C11.7023 17.387 12.3886 17.416 12.3945 17.4164H15.3235C15.8205 17.4164 16.2514 17.0502 16.348 16.5433C16.3549 16.5079 16.3596 16.472 16.3631 16.4366L19.7703 14.9518C19.7711 14.9507 19.7729 14.9502 19.7742 14.9494C20.0881 14.8042 20.5021 14.9049 20.6772 15.17C20.7504 15.2795 20.7762 15.4157 20.7508 15.5531Z" fill="#112D44"/>
<path d="M12.3785 6.52141C12.4883 6.52141 12.5773 6.42721 12.5773 6.31139V3.21001C12.5773 3.0942 12.4883 3 12.3785 3C12.2687 3 12.1797 3.0942 12.1797 3.21001V6.31139C12.1799 6.42721 12.2689 6.52141 12.3785 6.52141Z" fill="#112D44"/>
<path d="M11.2533 6.84913C11.3631 6.84913 11.4521 6.75515 11.4521 6.63912V4.2864C11.4521 4.17038 11.3631 4.07617 11.2533 4.07617C11.1435 4.07617 11.0547 4.17038 11.0547 4.2864V6.63934C11.0547 6.75515 11.1437 6.84913 11.2533 6.84913Z" fill="#112D44"/>
<path d="M10.1246 7.51508C10.2344 7.51508 10.3234 7.42088 10.3234 7.30485V5.18267C10.3234 5.06664 10.2344 4.97266 10.1246 4.97266C10.0148 4.97266 9.92578 5.06664 9.92578 5.18267V7.30485C9.92578 7.42109 10.0148 7.51508 10.1246 7.51508Z" fill="#112D44"/>
<path d="M14.6361 7.51508C14.7459 7.51508 14.8351 7.42088 14.8351 7.30485V5.18267C14.8351 5.06664 14.7459 4.97266 14.6361 4.97266C14.5263 4.97266 14.4375 5.06664 14.4375 5.18267V7.30485C14.4375 7.42109 14.5263 7.51508 14.6361 7.51508Z" fill="#112D44"/>
<path d="M13.5037 6.84913C13.6135 6.84913 13.7027 6.75515 13.7027 6.63912V4.2864C13.7027 4.17038 13.6135 4.07617 13.5037 4.07617C13.3941 4.07617 13.3047 4.17038 13.3047 4.2864V6.63934C13.3047 6.75515 13.3941 6.84913 13.5037 6.84913Z" fill="#112D44"/>
</svg>
