<svg width="386" height="386" viewBox="0 0 386 386" fill="none" xmlns="http://www.w3.org/2000/svg">
<g opacity="0.04">
<path d="M306.016 57.2487C279.156 34.8928 245.864 20.257 209.033 16.8795V49.207C236.857 52.2628 262.269 63.3604 283.177 80.087L306.016 57.2487ZM176.866 49.207V16.8795C140.036 20.0962 106.743 34.8928 79.8839 57.2487L102.722 80.087C123.996 62.9505 149.717 52.238 176.866 49.207ZM80.0448 102.765L57.2064 79.9262C34.8506 106.785 20.2148 140.078 16.8373 176.909H49.1648C52.2206 149.085 63.3181 123.673 80.0448 102.765ZM336.735 176.909H369.062C365.685 140.078 351.049 106.785 328.693 79.9262L305.855 102.765C322.991 124.039 333.704 149.76 336.735 176.909Z" fill="#112D44"/>
<path d="M306.016 334.113C279.156 356.469 245.864 371.105 209.033 374.482V342.155C236.857 339.099 262.269 328.002 283.177 311.275L306.016 334.113ZM176.866 342.155V374.482C140.036 371.266 106.743 356.469 79.8839 334.113L102.722 311.275C123.996 328.411 149.717 339.124 176.866 342.155ZM80.0448 288.597L57.2064 311.436C34.8506 284.577 20.2148 251.284 16.8373 214.453H49.1648C52.2206 242.277 63.3181 267.689 80.0448 288.597ZM336.735 214.453H369.062C365.685 251.284 351.049 284.577 328.693 311.436L305.855 288.597C322.991 267.323 333.704 241.602 336.735 214.453Z" fill="#112D44"/>
<path fill-rule="evenodd" clip-rule="evenodd" d="M110.528 222.243H105.44C94.6888 222.243 85.9453 213.5 85.9453 202.748V183.253C85.9453 172.502 94.6888 163.758 105.44 163.758H113.521L110.967 162.589C111.015 162.454 111.063 162.318 111.111 162.183C111.432 161.276 111.753 160.37 112.117 159.479C112.536 158.475 112.985 157.54 113.433 156.604L114.067 155.268L110.47 151.672C106.785 147.977 104.758 143.084 104.758 137.879C104.758 132.664 106.785 127.761 110.47 124.086L124.253 110.303C127.937 106.619 132.85 104.591 138.055 104.591C143.26 104.601 148.154 106.629 151.828 110.313L157.609 116.084L156.595 113.345C157.589 112.857 158.593 112.389 159.617 111.96C160.66 111.522 161.722 111.151 162.785 110.781L163.935 112.828V105.274C163.935 94.5222 172.678 85.7787 183.43 85.7787H202.925C213.676 85.7787 222.42 94.5222 222.42 105.274V110.362C222.858 110.518 223.57 110.771 223.57 110.771C224.632 111.142 225.695 111.512 226.748 111.951C227.771 112.37 228.765 112.847 229.759 113.325L229.76 113.325C229.76 113.325 230.452 113.656 230.939 113.881L234.536 110.274C238.201 106.599 243.114 104.572 248.319 104.572C253.524 104.572 258.417 106.599 262.102 110.284L275.885 124.077C279.569 127.751 281.597 132.645 281.597 137.859C281.597 143.065 279.569 147.958 275.885 151.642L272.288 155.239L272.921 156.575L273.014 156.77C273.431 157.649 273.846 158.522 274.218 159.421C274.585 160.317 274.897 161.194 275.206 162.061C275.266 162.231 275.327 162.4 275.387 162.569C275.387 162.569 275.621 163.252 275.807 163.758H280.895C291.646 163.758 300.39 172.502 300.39 183.253V202.748C300.39 213.5 291.646 222.243 280.895 222.243H272.814L275.368 223.413C275.32 223.548 275.272 223.683 275.225 223.818C274.903 224.726 274.583 225.631 274.218 226.522C273.799 227.526 273.35 228.462 272.902 229.398L272.268 230.733L275.865 234.33C279.55 238.024 281.577 242.918 281.577 248.123C281.577 253.338 279.55 258.241 275.865 261.916L262.082 275.698C258.398 279.383 253.485 281.411 248.28 281.411C243.075 281.401 238.181 279.373 234.507 275.689L228.726 269.918L229.74 272.657C228.746 273.145 227.742 273.613 226.718 274.041C225.675 274.48 224.613 274.85 223.55 275.221L222.4 273.174V280.728C222.4 291.48 213.657 300.223 202.905 300.223H183.41C172.659 300.223 163.915 291.48 163.915 280.728V275.64C163.477 275.484 162.765 275.231 162.765 275.231L162.765 275.231C161.703 274.86 160.64 274.49 159.587 274.051C158.564 273.632 157.57 273.155 156.576 272.677L156.576 272.677C156.576 272.677 155.883 272.345 155.396 272.121L151.799 275.728C148.134 279.403 143.221 281.43 138.016 281.43C132.811 281.43 127.918 279.403 124.233 275.718L110.45 261.925C106.766 258.251 104.738 253.357 104.738 248.142C104.738 242.937 106.766 238.044 110.45 234.359L114.047 230.763L113.414 229.427L113.321 229.233C112.904 228.353 112.489 227.48 112.117 226.581C111.75 225.684 111.438 224.808 111.129 223.94C111.069 223.771 111.008 223.602 110.948 223.433C110.948 223.433 110.714 222.75 110.528 222.243ZM241.501 193C241.501 166.398 219.853 144.75 193.251 144.75C166.649 144.75 145.001 166.398 145.001 193C145.001 219.602 166.649 241.25 193.251 241.25C219.853 241.25 241.501 219.602 241.501 193Z" fill="#112D44"/>
<path d="M184.302 193.581C184.358 191.222 184.414 188.882 184.47 186.514L181.735 186.654L175.058 187.006C173.138 187.041 171.275 187.591 169.711 188.583C164.637 191.972 165.348 197.313 168.371 200.137C169.64 201.325 170.964 202.464 172.268 203.621C175.312 206.332 178.356 209.079 181.446 211.785C182.799 212.961 184.543 213.714 186.417 213.933C188.291 214.152 190.194 213.825 191.842 213.001C194.642 211.555 195.951 209.26 196.139 206.445C196.327 203.63 196.423 200.711 196.56 197.86L197.488 178.214C197.488 177.712 197.524 177.211 197.549 176.704C197.555 176.163 197.748 175.636 198.102 175.195C198.305 174.916 198.607 174.705 198.96 174.596C199.313 174.487 199.697 174.487 200.051 174.594C200.582 174.755 201.069 175.014 201.481 175.353C204.292 177.802 207.076 180.274 209.832 182.768C210.192 183.121 210.457 183.541 210.609 183.997C210.676 184.153 210.707 184.32 210.699 184.488C210.69 184.655 210.644 184.819 210.561 184.969C210.479 185.12 210.363 185.253 210.22 185.362C210.077 185.471 209.911 185.552 209.731 185.601C208.964 185.846 208.164 185.998 207.351 186.053C205.555 186.162 203.759 186.171 201.918 186.216C201.781 188.583 201.639 190.928 201.497 193.314L203.612 193.242C206.098 193.156 208.579 193.093 211.06 192.98C212.939 192.942 214.762 192.405 216.296 191.439C217.265 190.839 218.086 190.069 218.707 189.176C219.329 188.282 219.738 187.285 219.909 186.245C220.08 185.205 220.01 184.145 219.703 183.131C219.395 182.116 218.858 181.168 218.123 180.346C217.738 179.948 217.326 179.571 216.89 179.217C212.871 175.602 208.868 171.987 204.83 168.436C202.05 165.973 198.742 165.39 195.119 166.628C192.582 167.478 191.06 169.231 190.299 171.508C190.041 172.339 189.896 173.195 189.868 174.057C189.538 180.509 189.244 186.961 188.94 193.418C188.781 196.705 188.625 199.991 188.473 203.277C188.465 203.456 188.445 203.634 188.412 203.81C188.087 205.451 186.464 206.043 184.997 205.021C184.31 204.504 183.657 203.95 183.044 203.363C180.808 201.381 178.578 199.393 176.352 197.399C175.916 197.039 175.599 196.579 175.434 196.07C175.315 195.741 175.342 195.383 175.51 195.07C175.678 194.757 175.974 194.514 176.337 194.39C177.28 194.072 178.281 193.908 179.29 193.906L184.302 193.581Z" fill="#112D44"/>
</g>
</svg>
