<svg width="20" height="20" viewBox="0 0 20 20" fill="none" xmlns="http://www.w3.org/2000/svg">
<path d="M14.166 18.3333H5.83268C3.33268 18.3333 1.66602 17.0833 1.66602 14.1666V9.99992C1.66602 7.08325 3.33268 5.83325 5.83268 5.83325H14.166C16.666 5.83325 18.3327 7.08325 18.3327 9.99992V14.1666C18.3327 17.0833 16.666 18.3333 14.166 18.3333Z" stroke="#112D44" stroke-width="1.5" stroke-miterlimit="10" stroke-linecap="round" stroke-linejoin="round"/>
<path d="M5 3.75H15" stroke="#112D44" stroke-width="1.5" stroke-miterlimit="10" stroke-linecap="round" stroke-linejoin="round"/>
<path d="M7.5 1.66675H12.5" stroke="#112D44" stroke-width="1.5" stroke-miterlimit="10" stroke-linecap="round" stroke-linejoin="round"/>
<path d="M8.33398 13.3252C8.33398 13.9669 8.83398 14.4919 9.44232 14.4919H10.6923C11.2257 14.4919 11.659 14.0335 11.659 13.4752C11.659 12.8669 11.3923 12.6502 11.0007 12.5085L9.00065 11.8085C8.60065 11.6669 8.33398 11.4502 8.33398 10.8419C8.33398 10.2835 8.76732 9.8252 9.30065 9.8252H10.5507C11.1673 9.83353 11.6673 10.3502 11.6673 10.9919" stroke="#112D44" stroke-width="1.5" stroke-linecap="round" stroke-linejoin="round"/>
<path d="M10 14.5337V15.1504" stroke="#112D44" stroke-width="1.5" stroke-linecap="round" stroke-linejoin="round"/>
<path d="M10 9.16675V9.81675" stroke="#112D44" stroke-width="1.5" stroke-linecap="round" stroke-linejoin="round"/>
</svg>
