<svg width="80" height="80" viewBox="0 0 80 80" fill="none" xmlns="http://www.w3.org/2000/svg">
<rect width="80" height="80" rx="8" fill="#06E7ED"/>
<path fill-rule="evenodd" clip-rule="evenodd" d="M26.2074 34.0865L32.1483 31.9897C30.9217 33.6411 29.868 35.4147 29.0039 37.2827L26.2074 34.0865ZM22.0794 34.4308L27.5835 40.7212L26.7862 42.7143C26.5386 43.3333 26.6838 44.0403 27.1552 44.5118L27.6779 45.0345C24.8394 48.2352 23.2715 51.5827 21.7526 56.1397C21.5529 56.7385 21.7088 57.3988 22.1552 57.8452C22.6016 58.2915 23.2619 58.4475 23.8608 58.2478C28.4177 56.7288 31.7652 55.161 34.9658 52.3225L35.4885 52.8452C35.96 53.3167 36.667 53.4617 37.286 53.2142L39.2792 52.4168L45.5695 57.921C45.9855 58.285 46.5549 58.419 47.0895 58.2788C47.6244 58.1387 48.0547 57.7427 48.2387 57.2213L53.2155 43.1203C56.4965 39.238 58.3337 34.2913 58.3337 29.1346V23.3333C58.3337 22.4129 57.5875 21.6667 56.667 21.6667H50.8657C45.709 21.6667 40.7624 23.5037 36.88 26.7848L22.779 31.7617C22.2578 31.9456 21.8616 32.3761 21.7215 32.9108C21.5814 33.4455 21.7154 34.0148 22.0794 34.4308ZM26.1425 53.8578C27.1883 51.332 28.362 49.3215 30.0396 47.3963L32.6041 49.9607C30.6789 51.6383 28.6684 52.812 26.1425 53.8578ZM37.0684 49.711L36.1789 48.8215L31.1789 43.8215L30.2893 42.932L31.4725 39.974C32.5581 37.26 34.0826 34.7428 35.985 32.5233L36.946 31.4021C40.429 27.3386 45.5137 25 50.8657 25H55.0004V29.1346C55.0004 34.4866 52.6617 39.5713 48.5982 43.0543L47.477 44.0153C45.2575 45.9177 42.7404 47.4422 40.0264 48.5278L37.0684 49.711ZM45.9139 53.793L42.7177 50.9965C44.5857 50.1325 46.3592 49.0787 48.0107 47.852L45.9139 53.793ZM45.0004 33.3333C45.0004 32.4129 45.7465 31.6667 46.667 31.6667C47.5875 31.6667 48.3337 32.4129 48.3337 33.3333C48.3337 34.2538 47.5875 35 46.667 35C45.7465 35 45.0004 34.2538 45.0004 33.3333ZM46.667 28.3333C43.9055 28.3333 41.667 30.5719 41.667 33.3333C41.667 36.0947 43.9055 38.3333 46.667 38.3333C49.4285 38.3333 51.667 36.0947 51.667 33.3333C51.667 30.5719 49.4285 28.3333 46.667 28.3333Z" fill="#112D44"/>
</svg>
