<svg width="80" height="80" viewBox="0 0 80 80" fill="none" xmlns="http://www.w3.org/2000/svg">
<rect width="80" height="80" rx="8" fill="#06E7ED"/>
<path d="M41.6663 56.6666H28.333C24.9997 56.6666 23.333 55 23.333 51.6666V38.3333C23.333 35 24.9997 33.3333 28.333 33.3333H36.6663V51.6666C36.6663 55 38.333 56.6666 41.6663 56.6666Z" stroke="#112D44" stroke-width="3" stroke-miterlimit="10" stroke-linecap="round" stroke-linejoin="round"/>
<path d="M36.8497 26.6667C36.7163 27.1667 36.6663 27.7167 36.6663 28.3334V33.3334H28.333V30C28.333 28.1667 29.833 26.6667 31.6663 26.6667H36.8497Z" stroke="#112D44" stroke-width="3" stroke-miterlimit="10" stroke-linecap="round" stroke-linejoin="round"/>
<path d="M43.333 33.3333V41.6666" stroke="#112D44" stroke-width="3" stroke-miterlimit="10" stroke-linecap="round" stroke-linejoin="round"/>
<path d="M50 33.3333V41.6666" stroke="#112D44" stroke-width="3" stroke-miterlimit="10" stroke-linecap="round" stroke-linejoin="round"/>
<path d="M48.333 48.3333H44.9997C44.083 48.3333 43.333 49.0833 43.333 50V56.6666H49.9997V50C49.9997 49.0833 49.2497 48.3333 48.333 48.3333Z" stroke="#112D44" stroke-width="3" stroke-miterlimit="10" stroke-linecap="round" stroke-linejoin="round"/>
<path d="M30 41.6667V48.3334" stroke="#112D44" stroke-width="3" stroke-miterlimit="10" stroke-linecap="round" stroke-linejoin="round"/>
<path d="M36.667 51.6666V28.3333C36.667 25 38.3337 23.3333 41.667 23.3333H51.667C55.0003 23.3333 56.667 25 56.667 28.3333V51.6666C56.667 55 55.0003 56.6666 51.667 56.6666H41.667C38.3337 56.6666 36.667 55 36.667 51.6666Z" stroke="#112D44" stroke-width="3" stroke-miterlimit="10" stroke-linecap="round" stroke-linejoin="round"/>
</svg>
