<svg width="80" height="80" viewBox="0 0 80 80" fill="none" xmlns="http://www.w3.org/2000/svg">
<rect width="80" height="80" rx="8" fill="#112D44"/>
<path d="M41.6666 56.6666H28.3333C24.9999 56.6666 23.3333 54.9999 23.3333 51.6666V38.3333C23.3333 34.9999 24.9999 33.3333 28.3333 33.3333H36.6666V51.6666C36.6666 54.9999 38.3333 56.6666 41.6666 56.6666Z" stroke="#06E7ED" stroke-width="3" stroke-miterlimit="10" stroke-linecap="round" stroke-linejoin="round"/>
<path d="M36.8499 26.6667C36.7166 27.1667 36.6666 27.7167 36.6666 28.3334V33.3334H28.3333V30.0001C28.3333 28.1667 29.8333 26.6667 31.6666 26.6667H36.8499Z" stroke="#06E7ED" stroke-width="3" stroke-miterlimit="10" stroke-linecap="round" stroke-linejoin="round"/>
<path d="M43.3333 33.3333V41.6666" stroke="#06E7ED" stroke-width="3" stroke-miterlimit="10" stroke-linecap="round" stroke-linejoin="round"/>
<path d="M50 33.3333V41.6666" stroke="#06E7ED" stroke-width="3" stroke-miterlimit="10" stroke-linecap="round" stroke-linejoin="round"/>
<path d="M48.3333 48.3333H44.9999C44.0833 48.3333 43.3333 49.0833 43.3333 49.9999V56.6666H49.9999V49.9999C49.9999 49.0833 49.2499 48.3333 48.3333 48.3333Z" stroke="#06E7ED" stroke-width="3" stroke-miterlimit="10" stroke-linecap="round" stroke-linejoin="round"/>
<path d="M30 41.6667V48.3334" stroke="#06E7ED" stroke-width="3" stroke-miterlimit="10" stroke-linecap="round" stroke-linejoin="round"/>
<path d="M36.6667 51.6666V28.3333C36.6667 24.9999 38.3334 23.3333 41.6667 23.3333H51.6667C55.0001 23.3333 56.6667 24.9999 56.6667 28.3333V51.6666C56.6667 54.9999 55.0001 56.6666 51.6667 56.6666H41.6667C38.3334 56.6666 36.6667 54.9999 36.6667 51.6666Z" stroke="#06E7ED" stroke-width="3" stroke-miterlimit="10" stroke-linecap="round" stroke-linejoin="round"/>
</svg>
