<svg width="66" height="62" viewBox="0 0 66 62" fill="none" xmlns="http://www.w3.org/2000/svg">
<path id="Pattern" opacity="0.4" fill-rule="evenodd" clip-rule="evenodd" d="M65.9972 -23.7627C65.9972 -22.5271 64.9957 -21.5254 63.7603 -21.5254C62.5249 -21.5254 61.5234 -22.5271 61.5234 -23.7627C61.5234 -24.9983 62.5249 -26 63.7603 -26C64.9957 -26 65.9972 -24.9983 65.9972 -23.7627ZM63.7603 -9.59329C64.9957 -9.59329 65.9972 -10.595 65.9972 -11.8306C65.9972 -13.0662 64.9957 -14.0679 63.7603 -14.0679C62.5249 -14.0679 61.5234 -13.0662 61.5234 -11.8306C61.5234 -10.595 62.5249 -9.59329 63.7603 -9.59329ZM50.3423 2.33898C51.5777 2.33898 52.5792 1.33731 52.5792 0.101694C52.5792 -1.13392 51.5777 -2.13559 50.3423 -2.13559C49.1069 -2.13559 48.1055 -1.13392 48.1055 0.101694C48.1055 1.33731 49.1069 2.33898 50.3423 2.33898ZM65.9972 0.101789C65.9972 1.33741 64.9957 2.33908 63.7603 2.33908C62.5249 2.33908 61.5234 1.33741 61.5234 0.101789C61.5234 -1.13383 62.5249 -2.1355 63.7603 -2.1355C64.9957 -2.1355 65.9972 -1.13383 65.9972 0.101789ZM52.5792 12.0339C52.5792 13.2695 51.5777 14.2712 50.3423 14.2712C49.1069 14.2712 48.1055 13.2695 48.1055 12.0339C48.1055 10.7983 49.1069 9.79661 50.3423 9.79661C51.5777 9.79661 52.5792 10.7983 52.5792 12.0339ZM63.7603 14.2712C64.9957 14.2712 65.9972 13.2695 65.9972 12.0339C65.9972 10.7983 64.9957 9.79663 63.7603 9.79663C62.5249 9.79663 61.5234 10.7983 61.5234 12.0339C61.5234 13.2695 62.5249 14.2712 63.7603 14.2712ZM65.9972 23.966C65.9972 25.2017 64.9957 26.2033 63.7603 26.2033C62.5249 26.2033 61.5234 25.2017 61.5234 23.966C61.5234 22.7304 62.5249 21.7288 63.7603 21.7288C64.9957 21.7288 65.9972 22.7304 65.9972 23.966ZM52.5792 35.8983C52.5792 37.1339 51.5777 38.1356 50.3423 38.1356C49.1069 38.1356 48.1055 37.1339 48.1055 35.8983C48.1055 34.6627 49.1069 33.661 50.3423 33.661C51.5777 33.661 52.5792 34.6627 52.5792 35.8983ZM63.7603 38.1357C64.9957 38.1357 65.9972 37.134 65.9972 35.8984C65.9972 34.6628 64.9957 33.6611 63.7603 33.6611C62.5249 33.6611 61.5234 34.6628 61.5234 35.8984C61.5234 37.134 62.5249 38.1357 63.7603 38.1357ZM50.3423 50.0678C51.5777 50.0678 52.5792 49.0661 52.5792 47.8305C52.5792 46.5949 51.5777 45.5932 50.3423 45.5932C49.1069 45.5932 48.1055 46.5949 48.1055 47.8305C48.1055 49.0661 49.1069 50.0678 50.3423 50.0678ZM65.9972 47.8306C65.9972 49.0662 64.9957 50.0678 63.7603 50.0678C62.5249 50.0678 61.5234 49.0662 61.5234 47.8306C61.5234 46.5949 62.5249 45.5933 63.7603 45.5933C64.9957 45.5933 65.9972 46.5949 65.9972 47.8306ZM10.0806 62C11.316 62 12.3175 60.9983 12.3175 59.7627C12.3175 58.5271 11.316 57.5254 10.0806 57.5254C8.84523 57.5254 7.84375 58.5271 7.84375 59.7627C7.84375 60.9983 8.84523 62 10.0806 62ZM25.7393 59.7627C25.7393 60.9983 24.7379 62 23.5025 62C22.2671 62 21.2656 60.9983 21.2656 59.7627C21.2656 58.5271 22.2671 57.5254 23.5025 57.5254C24.7379 57.5254 25.7393 58.5271 25.7393 59.7627ZM65.9972 59.7627C65.9972 60.9983 64.9957 62 63.7603 62C62.5249 62 61.5234 60.9983 61.5234 59.7627C61.5234 58.5271 62.5249 57.5254 63.7603 57.5254C64.9957 57.5254 65.9972 58.5271 65.9972 59.7627ZM52.5792 59.7627C52.5792 60.9983 51.5777 62 50.3423 62C49.1069 62 48.1055 60.9983 48.1055 59.7627C48.1055 58.5271 49.1069 57.5254 50.3423 57.5254C51.5777 57.5254 52.5792 58.5271 52.5792 59.7627ZM36.9205 62C38.1558 62 39.1573 60.9983 39.1573 59.7627C39.1573 58.5271 38.1558 57.5254 36.9205 57.5254C35.6851 57.5254 34.6836 58.5271 34.6836 59.7627C34.6836 60.9983 35.6851 62 36.9205 62ZM-1.1044 59.7627C-1.1044 60.9983 -2.10588 62 -3.34126 62C-4.57665 62 -5.57812 60.9983 -5.57812 59.7627C-5.57812 58.5271 -4.57665 57.5254 -3.34126 57.5254C-2.10588 57.5254 -1.1044 58.5271 -1.1044 59.7627ZM-16.7631 62C-15.5278 62 -14.5263 60.9983 -14.5263 59.7627C-14.5263 58.5271 -15.5278 57.5254 -16.7631 57.5254C-17.9985 57.5254 -19 58.5271 -19 59.7627C-19 60.9983 -17.9985 62 -16.7631 62ZM39.1573 47.8305C39.1573 49.0661 38.1558 50.0678 36.9205 50.0678C35.6851 50.0678 34.6836 49.0661 34.6836 47.8305C34.6836 46.5949 35.6851 45.5932 36.9205 45.5932C38.1558 45.5932 39.1573 46.5949 39.1573 47.8305ZM23.5025 50.0678C24.7379 50.0678 25.7393 49.0662 25.7393 47.8306C25.7393 46.5949 24.7379 45.5933 23.5025 45.5933C22.2671 45.5933 21.2656 46.5949 21.2656 47.8306C21.2656 49.0662 22.2671 50.0678 23.5025 50.0678ZM12.3175 47.8306C12.3175 49.0662 11.316 50.0678 10.0806 50.0678C8.84523 50.0678 7.84375 49.0662 7.84375 47.8306C7.84375 46.5949 8.84523 45.5933 10.0806 45.5933C11.316 45.5933 12.3175 46.5949 12.3175 47.8306ZM-3.34126 50.0678C-2.10588 50.0678 -1.1044 49.0661 -1.1044 47.8305C-1.1044 46.5949 -2.10588 45.5932 -3.34126 45.5932C-4.57665 45.5932 -5.57812 46.5949 -5.57812 47.8305C-5.57812 49.0661 -4.57665 50.0678 -3.34126 50.0678ZM-14.5263 47.8305C-14.5263 49.0661 -15.5278 50.0678 -16.7631 50.0678C-17.9985 50.0678 -19 49.0661 -19 47.8305C-19 46.5949 -17.9985 45.5932 -16.7631 45.5932C-15.5278 45.5932 -14.5263 46.5949 -14.5263 47.8305ZM36.9205 38.1356C38.1558 38.1356 39.1573 37.1339 39.1573 35.8983C39.1573 34.6627 38.1558 33.661 36.9205 33.661C35.6851 33.661 34.6836 34.6627 34.6836 35.8983C34.6836 37.1339 35.6851 38.1356 36.9205 38.1356ZM25.7393 35.8984C25.7393 37.134 24.7379 38.1357 23.5025 38.1357C22.2671 38.1357 21.2656 37.134 21.2656 35.8984C21.2656 34.6628 22.2671 33.6611 23.5025 33.6611C24.7379 33.6611 25.7393 34.6628 25.7393 35.8984ZM10.0806 38.1357C11.316 38.1357 12.3175 37.134 12.3175 35.8984C12.3175 34.6628 11.316 33.6611 10.0806 33.6611C8.84523 33.6611 7.84375 34.6628 7.84375 35.8984C7.84375 37.134 8.84523 38.1357 10.0806 38.1357ZM-1.1044 35.8983C-1.1044 37.1339 -2.10588 38.1356 -3.34126 38.1356C-4.57665 38.1356 -5.57812 37.1339 -5.57812 35.8983C-5.57812 34.6627 -4.57665 33.661 -3.34126 33.661C-2.10588 33.661 -1.1044 34.6627 -1.1044 35.8983ZM-16.7631 38.1356C-15.5278 38.1356 -14.5263 37.1339 -14.5263 35.8983C-14.5263 34.6627 -15.5278 33.661 -16.7631 33.661C-17.9985 33.661 -19 34.6627 -19 35.8983C-19 37.1339 -17.9985 38.1356 -16.7631 38.1356ZM50.3423 26.2034C51.5777 26.2034 52.5792 25.2017 52.5792 23.9661C52.5792 22.7305 51.5777 21.7288 50.3423 21.7288C49.1069 21.7288 48.1055 22.7305 48.1055 23.9661C48.1055 25.2017 49.1069 26.2034 50.3423 26.2034ZM39.1573 23.9661C39.1573 25.2017 38.1558 26.2034 36.9205 26.2034C35.6851 26.2034 34.6836 25.2017 34.6836 23.9661C34.6836 22.7305 35.6851 21.7288 36.9205 21.7288C38.1558 21.7288 39.1573 22.7305 39.1573 23.9661ZM23.5025 26.2033C24.7379 26.2033 25.7393 25.2017 25.7393 23.966C25.7393 22.7304 24.7379 21.7288 23.5025 21.7288C22.2671 21.7288 21.2656 22.7304 21.2656 23.966C21.2656 25.2017 22.2671 26.2033 23.5025 26.2033ZM12.3175 23.966C12.3175 25.2017 11.316 26.2033 10.0806 26.2033C8.84523 26.2033 7.84375 25.2017 7.84375 23.966C7.84375 22.7304 8.84523 21.7288 10.0806 21.7288C11.316 21.7288 12.3175 22.7304 12.3175 23.966ZM-3.34126 26.2034C-2.10588 26.2034 -1.1044 25.2017 -1.1044 23.9661C-1.1044 22.7305 -2.10588 21.7288 -3.34126 21.7288C-4.57665 21.7288 -5.57812 22.7305 -5.57812 23.9661C-5.57812 25.2017 -4.57665 26.2034 -3.34126 26.2034ZM-14.5263 23.9661C-14.5263 25.2017 -15.5278 26.2034 -16.7631 26.2034C-17.9985 26.2034 -19 25.2017 -19 23.9661C-19 22.7305 -17.9985 21.7288 -16.7631 21.7288C-15.5278 21.7288 -14.5263 22.7305 -14.5263 23.9661ZM36.9205 14.2712C38.1558 14.2712 39.1573 13.2695 39.1573 12.0339C39.1573 10.7983 38.1558 9.79661 36.9205 9.79661C35.6851 9.79661 34.6836 10.7983 34.6836 12.0339C34.6836 13.2695 35.6851 14.2712 36.9205 14.2712ZM25.7393 12.0339C25.7393 13.2695 24.7379 14.2712 23.5025 14.2712C22.2671 14.2712 21.2656 13.2695 21.2656 12.0339C21.2656 10.7983 22.2671 9.79663 23.5025 9.79663C24.7379 9.79663 25.7393 10.7983 25.7393 12.0339ZM10.0806 14.2712C11.316 14.2712 12.3175 13.2695 12.3175 12.0339C12.3175 10.7983 11.316 9.79663 10.0806 9.79663C8.84523 9.79663 7.84375 10.7983 7.84375 12.0339C7.84375 13.2695 8.84523 14.2712 10.0806 14.2712ZM-1.1044 12.0339C-1.1044 13.2695 -2.10588 14.2712 -3.34126 14.2712C-4.57665 14.2712 -5.57812 13.2695 -5.57812 12.0339C-5.57812 10.7983 -4.57665 9.79661 -3.34126 9.79661C-2.10588 9.79661 -1.1044 10.7983 -1.1044 12.0339ZM-16.7631 14.2712C-15.5278 14.2712 -14.5263 13.2695 -14.5263 12.0339C-14.5263 10.7983 -15.5278 9.79661 -16.7631 9.79661C-17.9985 9.79661 -19 10.7983 -19 12.0339C-19 13.2695 -17.9985 14.2712 -16.7631 14.2712ZM39.1573 0.101694C39.1573 1.33731 38.1558 2.33898 36.9205 2.33898C35.6851 2.33898 34.6836 1.33731 34.6836 0.101694C34.6836 -1.13392 35.6851 -2.13559 36.9205 -2.13559C38.1558 -2.13559 39.1573 -1.13392 39.1573 0.101694ZM23.5025 2.33908C24.7379 2.33908 25.7393 1.33741 25.7393 0.101789C25.7393 -1.13383 24.7379 -2.1355 23.5025 -2.1355C22.2671 -2.1355 21.2656 -1.13383 21.2656 0.101789C21.2656 1.33741 22.2671 2.33908 23.5025 2.33908ZM12.3175 0.101789C12.3175 1.33741 11.316 2.33908 10.0806 2.33908C8.84523 2.33908 7.84375 1.33741 7.84375 0.101789C7.84375 -1.13383 8.84523 -2.1355 10.0806 -2.1355C11.316 -2.1355 12.3175 -1.13383 12.3175 0.101789ZM-3.34126 2.33898C-2.10588 2.33898 -1.1044 1.33731 -1.1044 0.101694C-1.1044 -1.13392 -2.10588 -2.13559 -3.34126 -2.13559C-4.57665 -2.13559 -5.57812 -1.13392 -5.57812 0.101694C-5.57812 1.33731 -4.57665 2.33898 -3.34126 2.33898ZM-14.5263 0.101694C-14.5263 1.33731 -15.5278 2.33898 -16.7631 2.33898C-17.9985 2.33898 -19 1.33731 -19 0.101694C-19 -1.13392 -17.9985 -2.13559 -16.7631 -2.13559C-15.5278 -2.13559 -14.5263 -1.13392 -14.5263 0.101694ZM52.5792 -11.8305C52.5792 -10.5949 51.5777 -9.59322 50.3423 -9.59322C49.1069 -9.59322 48.1055 -10.5949 48.1055 -11.8305C48.1055 -13.0661 49.1069 -14.0678 50.3423 -14.0678C51.5777 -14.0678 52.5792 -13.0661 52.5792 -11.8305ZM36.9205 -9.59322C38.1558 -9.59322 39.1573 -10.5949 39.1573 -11.8305C39.1573 -13.0661 38.1558 -14.0678 36.9205 -14.0678C35.6851 -14.0678 34.6836 -13.0661 34.6836 -11.8305C34.6836 -10.5949 35.6851 -9.59322 36.9205 -9.59322ZM25.7393 -11.8306C25.7393 -10.595 24.7379 -9.59329 23.5025 -9.59329C22.2671 -9.59329 21.2656 -10.595 21.2656 -11.8306C21.2656 -13.0662 22.2671 -14.0679 23.5025 -14.0679C24.7379 -14.0679 25.7393 -13.0662 25.7393 -11.8306ZM10.0806 -9.59329C11.316 -9.59329 12.3175 -10.595 12.3175 -11.8306C12.3175 -13.0662 11.316 -14.0679 10.0806 -14.0679C8.84523 -14.0679 7.84375 -13.0662 7.84375 -11.8306C7.84375 -10.595 8.84523 -9.59329 10.0806 -9.59329ZM-1.1044 -11.8305C-1.1044 -10.5949 -2.10588 -9.59322 -3.34126 -9.59322C-4.57665 -9.59322 -5.57812 -10.5949 -5.57812 -11.8305C-5.57812 -13.0661 -4.57665 -14.0678 -3.34126 -14.0678C-2.10588 -14.0678 -1.1044 -13.0661 -1.1044 -11.8305ZM-16.7631 -9.59322C-15.5278 -9.59322 -14.5263 -10.5949 -14.5263 -11.8305C-14.5263 -13.0661 -15.5278 -14.0678 -16.7631 -14.0678C-17.9985 -14.0678 -19 -13.0661 -19 -11.8305C-19 -10.5949 -17.9985 -9.59322 -16.7631 -9.59322ZM50.3423 -21.5254C51.5777 -21.5254 52.5792 -22.5271 52.5792 -23.7627C52.5792 -24.9983 51.5777 -26 50.3423 -26C49.1069 -26 48.1055 -24.9983 48.1055 -23.7627C48.1055 -22.5271 49.1069 -21.5254 50.3423 -21.5254ZM39.1573 -23.7627C39.1573 -22.5271 38.1558 -21.5254 36.9205 -21.5254C35.6851 -21.5254 34.6836 -22.5271 34.6836 -23.7627C34.6836 -24.9983 35.6851 -26 36.9205 -26C38.1558 -26 39.1573 -24.9983 39.1573 -23.7627ZM23.5025 -21.5254C24.7379 -21.5254 25.7393 -22.5271 25.7393 -23.7627C25.7393 -24.9983 24.7379 -26 23.5025 -26C22.2671 -26 21.2656 -24.9983 21.2656 -23.7627C21.2656 -22.5271 22.2671 -21.5254 23.5025 -21.5254ZM12.3175 -23.7627C12.3175 -22.5271 11.316 -21.5254 10.0806 -21.5254C8.84523 -21.5254 7.84375 -22.5271 7.84375 -23.7627C7.84375 -24.9983 8.84523 -26 10.0806 -26C11.316 -26 12.3175 -24.9983 12.3175 -23.7627ZM-3.34112 -21.5254C-2.10574 -21.5254 -1.10426 -22.5271 -1.10426 -23.7627C-1.10426 -24.9983 -2.10574 -26 -3.34112 -26C-4.57651 -26 -5.57798 -24.9983 -5.57798 -23.7627C-5.57798 -22.5271 -4.57651 -21.5254 -3.34112 -21.5254ZM-14.5263 -23.7627C-14.5263 -22.5271 -15.5278 -21.5254 -16.7631 -21.5254C-17.9985 -21.5254 -19 -22.5271 -19 -23.7627C-19 -24.9983 -17.9985 -26 -16.7631 -26C-15.5278 -26 -14.5263 -24.9983 -14.5263 -23.7627Z" fill="#07E1E8"/>
</svg>
