<svg width="24" height="24" viewBox="0 0 24 24" fill="none" xmlns="http://www.w3.org/2000/svg">
<path d="M13.0337 15.1934C14.3159 15.1915 15.3551 14.2837 15.3551 13.1612C15.3551 12.6009 15.0942 12.0933 14.675 11.7243C14.2535 11.3554 13.6714 11.1289 13.0314 11.1289C11.7514 11.1289 10.71 12.0386 10.71 13.1612C10.71 14.2837 11.7536 15.1934 13.0314 15.1934H13.0337ZM12.9021 14.6409V14.4028C12.5341 14.352 12.2531 14.0709 12.2531 13.7332C12.2531 13.6707 12.3089 13.6199 12.3825 13.6199C12.4538 13.6199 12.5118 13.6687 12.5118 13.7332C12.5118 13.985 12.746 14.19 13.0337 14.19C13.3236 14.19 13.5577 13.985 13.5577 13.7332C13.5577 13.4794 13.3236 13.2744 13.0337 13.2744C13.027 13.2744 13.0158 13.2744 13.0069 13.2724C12.5899 13.2627 12.2554 12.962 12.2554 12.5911C12.2554 12.2534 12.5386 11.9723 12.9043 11.9215V11.6833C12.9043 11.6228 12.9623 11.5701 13.0337 11.5701C13.105 11.5701 13.163 11.6228 13.163 11.6833V11.9215C13.5332 11.9723 13.8164 12.2534 13.8164 12.5911C13.8164 12.6536 13.7606 12.7043 13.6871 12.7043C13.6157 12.7043 13.5577 12.6555 13.5577 12.5911C13.5577 12.3393 13.3236 12.1343 13.0337 12.1343C12.746 12.1343 12.5118 12.3393 12.5118 12.5911C12.5118 12.8449 12.746 13.0499 13.0337 13.0499C13.0403 13.0499 13.0515 13.0499 13.0604 13.0518C13.4797 13.0616 13.8164 13.3622 13.8164 13.7332C13.8164 14.0709 13.5332 14.352 13.163 14.4028V14.6409C13.163 14.7015 13.1072 14.7542 13.0337 14.7542C12.9623 14.7522 12.9021 14.7015 12.9021 14.6409Z" fill="#112D44"/>
<path d="M6.35355 7.06452C7.47553 7.06256 8.38483 6.15478 8.38483 5.03226C8.38483 4.47197 8.15653 3.9644 7.78969 3.59543C7.4209 3.22646 6.91161 3 6.3516 3C5.23156 3 4.32031 3.90973 4.32031 5.03226C4.32031 6.15478 5.23351 7.06452 6.3516 7.06452H6.35355ZM6.23842 6.51204V6.27387C5.91646 6.22311 5.6706 5.94199 5.6706 5.60426C5.6706 5.54179 5.71938 5.49103 5.78377 5.49103C5.84621 5.49103 5.89695 5.53983 5.89695 5.60426C5.89695 5.85609 6.10183 6.06108 6.35355 6.06108C6.60721 6.06108 6.8121 5.85609 6.8121 5.60426C6.8121 5.35047 6.60721 5.14549 6.35355 5.14549C6.34769 5.14549 6.33794 5.14549 6.33013 5.14353C5.96524 5.13377 5.67255 4.83313 5.67255 4.46221C5.67255 4.12448 5.92036 3.84336 6.24037 3.7926V3.55443C6.24037 3.49391 6.29111 3.4412 6.35355 3.4412C6.41599 3.4412 6.46672 3.49391 6.46672 3.55443V3.7926C6.79063 3.84336 7.03845 4.12448 7.03845 4.46221C7.03845 4.52468 6.98966 4.57544 6.92527 4.57544C6.86283 4.57544 6.8121 4.52663 6.8121 4.46221C6.8121 4.21037 6.60721 4.00539 6.35355 4.00539C6.10183 4.00539 5.89695 4.21037 5.89695 4.46221C5.89695 4.716 6.10183 4.92098 6.35355 4.92098C6.3594 4.92098 6.36916 4.92098 6.37696 4.92293C6.7438 4.9327 7.03845 5.23334 7.03845 5.60426C7.03845 5.94199 6.79063 6.22311 6.46672 6.27387V6.51204C6.46672 6.57256 6.41794 6.62527 6.35355 6.62527C6.29111 6.62332 6.23842 6.57256 6.23842 6.51204Z" fill="#112D44"/>
<path d="M19.7129 9.38678C20.8349 9.38483 21.7442 8.47705 21.7442 7.35452C21.7442 6.79424 21.5159 6.28666 21.1491 5.91769C20.7803 5.54872 20.271 5.32227 19.711 5.32227C18.5909 5.32227 17.6797 6.232 17.6797 7.35452C17.6797 8.47705 18.5929 9.38678 19.711 9.38678H19.7129ZM19.5978 8.8343V8.59613C19.2758 8.54538 19.03 8.26426 19.03 7.92652C19.03 7.86405 19.0788 7.81329 19.1431 7.81329C19.2056 7.81329 19.2563 7.8621 19.2563 7.92652C19.2563 8.17836 19.4612 8.38334 19.7129 8.38334C19.9666 8.38334 20.1715 8.17836 20.1715 7.92652C20.1715 7.67274 19.9666 7.46775 19.7129 7.46775C19.7071 7.46775 19.6973 7.46775 19.6895 7.4658C19.3246 7.45604 19.0319 7.1554 19.0319 6.78448C19.0319 6.44674 19.2797 6.16562 19.5997 6.11487V5.8767C19.5997 5.81618 19.6505 5.76347 19.7129 5.76347C19.7754 5.76347 19.8261 5.81618 19.8261 5.8767V6.11487C20.15 6.16562 20.3978 6.44674 20.3978 6.78448C20.3978 6.84695 20.349 6.8977 20.2846 6.8977C20.2222 6.8977 20.1715 6.8489 20.1715 6.78448C20.1715 6.53264 19.9666 6.32766 19.7129 6.32766C19.4612 6.32766 19.2563 6.53264 19.2563 6.78448C19.2563 7.03826 19.4612 7.24325 19.7129 7.24325C19.7188 7.24325 19.7285 7.24325 19.7363 7.2452C20.1032 7.25496 20.3978 7.5556 20.3978 7.92652C20.3978 8.26426 20.15 8.54538 19.8261 8.59613V8.8343C19.8261 8.89482 19.7773 8.94753 19.7129 8.94753C19.6505 8.94558 19.5978 8.89482 19.5978 8.8343Z" fill="#112D44"/>
<path d="M3.93548 13.4512H2.3871C2.17309 13.4512 2 13.6278 2 13.8463V20.6045C2 20.8229 2.17309 20.9996 2.3871 20.9996H3.93548C4.14949 20.9996 4.32258 20.8229 4.32258 20.6045V13.843C4.31943 13.6278 4.14634 13.4512 3.93548 13.4512Z" fill="#112D44"/>
<path d="M11.507 8.22533H14.558C14.9968 8.22533 15.3551 7.83742 15.3551 7.35437C15.3551 6.87131 15.0001 6.4834 14.558 6.4834H11.507C11.0683 6.4834 10.71 6.87131 10.71 7.35437C10.71 7.83742 11.0683 8.22533 11.507 8.22533Z" fill="#112D44"/>
<path d="M14.2501 5.90348L14.7739 4.74219H11.29L11.8138 5.90348H14.2501Z" fill="#112D44"/>
<path d="M10.122 14.5538C9.89104 14.1416 9.75818 13.6705 9.75818 13.1729C9.75818 11.5153 11.207 10.1669 12.9879 10.1669C14.772 10.1669 16.2208 11.5153 16.2208 13.1729C16.2208 14.1092 15.759 14.9454 15.0378 15.4959C15.0662 15.5254 15.0979 15.5519 15.1232 15.5843C15.4268 15.914 15.5565 16.3527 15.4806 16.7855C15.4711 16.8356 15.4616 16.8856 15.4458 16.9357L17.8942 16.1201C18.1283 15.6873 18.2612 15.1662 18.2612 14.5332C18.2612 12.5193 16.9611 9.98139 15.101 8.80664C14.9017 8.91263 14.674 8.97152 14.4304 8.97152H11.5486C11.305 8.97152 11.0773 8.91263 10.878 8.80958C9.30266 9.80474 8.13223 11.7744 7.80957 13.5763C8.81234 13.7323 9.60317 14.171 10.122 14.5538Z" fill="#112D44"/>
<path d="M20.6487 16.2704C20.3999 16.1322 20.1133 16.1129 19.8582 16.2061L14.7652 18.0703C14.5195 18.2085 14.2392 18.2856 13.9399 18.2856H9.77293C9.5997 18.2856 9.45796 18.141 9.45796 17.9642C9.45796 17.7874 9.5997 17.6428 9.77293 17.6428H13.9431C14.1258 17.6428 14.3022 17.5946 14.4533 17.5142C14.4691 17.5014 14.488 17.4917 14.5037 17.4853C14.7368 17.3407 14.9037 17.1093 14.9478 16.8393C14.9951 16.5468 14.9195 16.2672 14.7337 16.0454C14.551 15.8269 14.2896 15.7047 14.0092 15.7047H11.7163C11.058 15.7047 10.3966 15.4637 9.86112 15.0266C8.99181 14.3162 7.228 13.3842 4.90039 14.6794V19.4941C5.59017 19.5262 6.78704 19.6934 8.38393 20.333C10.1068 21.0208 11.9399 21.1815 13.6848 20.7926C15.4738 20.3972 18.1416 19.5873 20.7023 17.9867C20.9165 17.8517 21.0739 17.6267 21.1338 17.3664C21.2314 16.9293 21.033 16.4793 20.6487 16.2704Z" fill="#112D44"/>
</svg>
