<svg width="24" height="24" viewBox="0 0 24 24" fill="none" xmlns="http://www.w3.org/2000/svg">
<path fill-rule="evenodd" clip-rule="evenodd" d="M6.74271 3H17.2575C17.4543 3.0005 17.6428 3.0729 17.7819 3.20138C17.9211 3.32986 17.9995 3.50398 18 3.68568V4.41349H6V3.68568C6.0006 3.50396 6.07905 3.32985 6.21821 3.20137C6.35737 3.07289 6.54594 3.0005 6.74271 3ZM12.295 8.80588V7.36682C12.554 7.3009 12.7783 7.15049 12.9263 6.94348C13.0744 6.73646 13.1361 6.4869 13.1001 6.24106C13.0641 5.99522 12.9327 5.76978 12.7304 5.60654C12.5282 5.4433 12.2686 5.35334 12 5.35334C11.7314 5.35334 11.4718 5.4433 11.2696 5.60654C11.0673 5.76978 10.9359 5.99522 10.8999 6.24106C10.8639 6.4869 10.9256 6.73646 11.0737 6.94348C11.2217 7.15049 11.446 7.3009 11.705 7.36682V8.80588C10.9769 8.86231 10.287 9.13056 9.73443 9.57203V8.56467C9.9939 8.49874 10.2187 8.34813 10.3671 8.1408C10.5154 7.93346 10.5774 7.68346 10.5413 7.43717C10.5053 7.19088 10.3738 6.96501 10.1712 6.80146C9.96853 6.63791 9.70855 6.54778 9.43943 6.54778C9.17032 6.54778 8.91033 6.63791 8.7077 6.80146C8.50507 6.96501 8.37355 7.19088 8.33753 7.43717C8.30151 7.68346 8.36343 7.93346 8.51181 8.1408C8.66019 8.34813 8.88496 8.49874 9.14443 8.56467V10.1783C8.74449 10.7136 8.53031 11.3487 8.53031 11.9991C8.53031 12.6495 8.74449 13.2845 9.14443 13.8198V15.4104C8.88496 15.4763 8.66019 15.6269 8.51181 15.8343C8.36343 16.0416 8.30151 16.2916 8.33753 16.5379C8.37355 16.7842 8.50507 17.01 8.7077 17.1736C8.91033 17.3372 9.17032 17.4273 9.43943 17.4273C9.70855 17.4273 9.96853 17.3372 10.1712 17.1736C10.3738 17.01 10.5053 16.7842 10.5413 16.5379C10.5774 16.2916 10.5154 16.0416 10.3671 15.8343C10.2187 15.6269 9.9939 15.4763 9.73443 15.4104V14.4255C10.2871 14.8666 10.977 15.1345 11.705 15.1908V16.6074C11.446 16.6733 11.2217 16.8237 11.0737 17.0308C10.9256 17.2378 10.8639 17.4873 10.8999 17.7332C10.9359 17.979 11.0673 18.2044 11.2696 18.3677C11.4718 18.5309 11.7314 18.6209 12 18.6209C12.2686 18.6209 12.5282 18.5309 12.7304 18.3677C12.9327 18.2044 13.0641 17.979 13.1001 17.7332C13.1361 17.4873 13.0744 17.2378 12.9263 17.0308C12.7783 16.8237 12.554 16.6733 12.295 16.6074V15.1908C13.0167 15.135 13.7011 14.8711 14.2515 14.4364V15.4278C13.9925 15.4937 13.7682 15.6441 13.6202 15.8511C13.4721 16.0581 13.4104 16.3077 13.4464 16.5536C13.4824 16.7994 13.6138 17.0248 13.8161 17.1881C14.0183 17.3513 14.2779 17.4413 14.5465 17.4413C14.8151 17.4413 15.0747 17.3513 15.2769 17.1881C15.4792 17.0248 15.6106 16.7994 15.6466 16.5536C15.6826 16.3077 15.6209 16.0581 15.4728 15.8511C15.3248 15.6441 15.1005 15.4937 14.8415 15.4278V13.8378C15.2506 13.2989 15.4701 12.6566 15.4701 11.9984C15.4701 11.3402 15.2506 10.698 14.8415 10.159V8.54728C15.1005 8.48135 15.3248 8.33094 15.4728 8.12393C15.6209 7.91692 15.6826 7.66736 15.6466 7.42151C15.6106 7.17567 15.4792 6.95023 15.2769 6.78699C15.0747 6.62376 14.8151 6.5338 14.5465 6.5338C14.2779 6.5338 14.0183 6.62376 13.8161 6.78699C13.6138 6.95023 13.4824 7.17567 13.4464 7.42151C13.4104 7.66736 13.4721 7.91692 13.6202 8.12393C13.7682 8.33094 13.9925 8.48135 14.2515 8.54728V9.56071C13.701 9.12616 13.0166 8.86185 12.295 8.80588ZM18 4.95834H6V19.0408H18V4.95834ZM18 19.5857V20.3143C17.9995 20.496 17.9211 20.6701 17.7819 20.7986C17.6428 20.9271 17.4543 20.9995 17.2575 21H6.74271C6.54594 20.9995 6.35737 20.9271 6.21821 20.7986C6.07905 20.6702 6.0006 20.496 6 20.3143V19.5857H18Z" fill="#112D44"/>
<path d="M12.0014 15C13.6577 14.9971 15 13.6571 15 12C15 11.1729 14.663 10.4236 14.1215 9.87896C13.5771 9.33429 12.8253 9 11.9986 9C10.3452 9 9 10.3429 9 12C9 13.6571 10.3481 15 11.9986 15H12.0014ZM11.8315 14.1844V13.8329C11.3562 13.7579 10.9933 13.3429 10.9933 12.8444C10.9933 12.7522 11.0653 12.6772 11.1603 12.6772C11.2525 12.6772 11.3274 12.7493 11.3274 12.8444C11.3274 13.2161 11.6299 13.5187 12.0014 13.5187C12.3759 13.5187 12.6783 13.2161 12.6783 12.8444C12.6783 12.4697 12.3759 12.1671 12.0014 12.1671C11.9928 12.1671 11.9784 12.1671 11.9669 12.1643C11.4282 12.1499 10.9962 11.7061 10.9962 11.1585C10.9962 10.6599 11.362 10.245 11.8344 10.17V9.81844C11.8344 9.72911 11.9093 9.6513 12.0014 9.6513C12.0936 9.6513 12.1685 9.72911 12.1685 9.81844V10.17C12.6467 10.245 13.0125 10.6599 13.0125 11.1585C13.0125 11.2507 12.9405 11.3256 12.8454 11.3256C12.7532 11.3256 12.6783 11.2536 12.6783 11.1585C12.6783 10.7867 12.3759 10.4841 12.0014 10.4841C11.6299 10.4841 11.3274 10.7867 11.3274 11.1585C11.3274 11.5331 11.6299 11.8357 12.0014 11.8357C12.0101 11.8357 12.0245 11.8357 12.036 11.8386C12.5775 11.853 13.0125 12.2968 13.0125 12.8444C13.0125 13.3429 12.6467 13.7579 12.1685 13.8329V14.1844C12.1685 14.2738 12.0965 14.3516 12.0014 14.3516C11.9093 14.3487 11.8315 14.2738 11.8315 14.1844Z" fill="#112D44"/>
</svg>
