<svg width="24" height="24" viewBox="0 0 24 24" fill="none" xmlns="http://www.w3.org/2000/svg">
<path d="M9.59087 10.0892H17.6786C17.7208 10.0892 17.7626 10.0807 17.8016 10.0643C17.8406 10.0478 17.876 10.0238 17.9059 9.99338C17.9357 9.963 17.9594 9.92694 17.9755 9.88726C17.9917 9.84757 18 9.80504 18 9.76208V8.23645C18 8.19349 17.9917 8.15096 17.9755 8.11127C17.9594 8.07159 17.9357 8.03553 17.9059 8.00515C17.876 7.97478 17.8406 7.95068 17.8016 7.93425C17.7626 7.91781 17.7208 7.90935 17.6786 7.90935H9.59087V6.65392C9.59082 6.52457 9.55309 6.39814 9.48245 6.29061C9.41181 6.18308 9.31144 6.09927 9.19401 6.04978C9.07659 6.00029 8.94738 5.98734 8.82272 6.01256C8.69807 6.03777 8.58355 6.10004 8.49365 6.19147L6.18838 8.53706C6.12866 8.59781 6.08128 8.66994 6.04896 8.74934C6.01664 8.82873 6 8.91382 6 8.99975C6 9.08569 6.01664 9.17078 6.04896 9.25017C6.08128 9.32957 6.12866 9.4017 6.18838 9.46245L8.49365 11.8085C8.58355 11.9 8.69807 11.9622 8.82272 11.9874C8.94738 12.0127 9.07659 11.9997 9.19401 11.9502C9.31144 11.9007 9.41181 11.8169 9.48245 11.7094C9.55309 11.6019 9.59082 11.4754 9.59087 11.3461V10.0892Z" fill="#112D44"/>
<path d="M14.4091 13.9102H6.32141C6.23617 13.9102 6.15441 13.9446 6.09414 14.006C6.03386 14.0673 6 14.1505 6 14.2372V15.7637C6 15.8505 6.03386 15.9337 6.09414 15.995C6.15441 16.0563 6.23617 16.0908 6.32141 16.0908H14.4091V17.3461C14.4092 17.4755 14.4469 17.6019 14.5175 17.7094C14.5882 17.8169 14.6886 17.9007 14.806 17.9502C14.9234 17.9997 15.0526 18.0127 15.1773 17.9874C15.3019 17.9622 15.4164 17.9 15.5063 17.8085L17.8116 15.4627C17.8713 15.4019 17.9187 15.3298 17.951 15.2504C17.9834 15.171 18 15.0859 18 15C18 14.9141 17.9834 14.829 17.951 14.7496C17.9187 14.6702 17.8713 14.5981 17.8116 14.5373L15.5063 12.1915C15.4164 12.1 15.3019 12.0378 15.1773 12.0126C15.0526 11.9873 14.9234 12.0003 14.806 12.0498C14.6886 12.0993 14.5882 12.1831 14.5175 12.2906C14.4469 12.3981 14.4092 12.5245 14.4091 12.6539V13.9102Z" fill="#112D44"/>
</svg>
