<svg width="24" height="24" viewBox="0 0 24 24" fill="none" xmlns="http://www.w3.org/2000/svg">
<path d="M12 15C13.6541 15 15 13.6541 15 12C15 10.3459 13.6541 9 12 9C10.3459 9 9 10.3459 9 12C9 13.6541 10.3459 15 12 15ZM12.2727 12.2727H11.7273C11.1256 12.2727 10.6364 11.7835 10.6364 11.1818C10.6364 10.5802 11.1256 10.0909 11.7273 10.0909V9.82724H12.2727V10.0909C12.8744 10.0909 13.3636 10.5802 13.3636 11.1818H12.8182C12.8182 10.881 12.5735 10.6364 12.2727 10.6364H11.7273C11.4265 10.6364 11.1818 10.881 11.1818 11.1818C11.1818 11.4826 11.4265 11.7273 11.7273 11.7273H12.2727C12.8744 11.7273 13.3636 12.2165 13.3636 12.8182C13.3636 13.4198 12.8744 13.9091 12.2727 13.9091V14.1922H11.7273V13.9091C11.1256 13.9091 10.6364 13.4198 10.6364 12.8182H11.1818C11.1818 13.119 11.4265 13.3636 11.7273 13.3636H12.2727C12.5735 13.3636 12.8182 13.119 12.8182 12.8182C12.8182 12.5174 12.5735 12.2727 12.2727 12.2727Z" fill="#112D44"/>
<path d="M16.9639 9.19441C16.8549 9.07112 16.7056 9.00128 16.5491 9H16.5454C16.3902 9 16.2414 9.06792 16.1321 9.18866L16.1035 9.22017C15.88 9.46696 16.0562 9.8542 16.2769 10.1044C16.7257 10.6127 16.9727 11.2823 16.9727 11.9897C16.9727 12.6973 16.7257 13.3669 16.2771 13.875C16.0562 14.1252 15.8798 14.533 16.1035 14.7798L16.1321 14.8113C16.2412 14.9321 16.3902 15 16.5454 15H16.5491C16.7056 14.9989 16.8549 14.9289 16.9639 14.8058C17.632 14.0497 18 13.0534 18 12C18 10.9468 17.6322 9.95053 16.9639 9.19441Z" fill="#112D44"/>
<path d="M7.03611 9.19441C7.14506 9.07112 7.29441 9.00128 7.45094 9H7.45463C7.6098 9 7.75857 9.06792 7.86791 9.18866L7.89646 9.22017C8.11999 9.46696 7.94376 9.8542 7.72314 10.1044C7.27432 10.6127 7.02729 11.2823 7.02729 11.9897C7.02729 12.6973 7.27432 13.3669 7.72295 13.875C7.94376 14.1252 8.12019 14.533 7.89646 14.7798L7.86791 14.8113C7.75876 14.9321 7.6098 15 7.45463 15H7.45094C7.29441 14.9989 7.14506 14.9289 7.03611 14.8058C6.36803 14.0497 6 13.0534 6 12C6 10.9468 6.36783 9.95053 7.03611 9.19441Z" fill="#112D44"/>
<path d="M18.076 7.18003C17.9656 7.06606 17.8144 7.00138 17.6556 7C17.654 7 17.6527 7 17.6513 7C17.4943 7 17.3437 7.06231 17.2327 7.17352L17.1731 7.23307C16.9452 7.46142 16.9422 7.83035 17.1666 8.06244C18.2066 9.13731 18.7796 10.5529 18.7796 12.0484C18.7796 13.544 18.2068 14.9596 17.1666 16.0343C16.9416 16.2666 16.945 16.6365 17.1739 16.8647L17.2336 16.9242C17.3445 17.0348 17.4947 17.0967 17.6513 17.0967C17.6531 17.0967 17.6548 17.0967 17.6564 17.0967C17.8147 17.0954 17.9658 17.0305 18.076 16.9169C19.3469 15.605 20.0469 13.8761 20.0469 12.0484C20.0469 10.2208 19.3469 8.49191 18.076 7.18003Z" fill="#112D44"/>
<path d="M5.26752 12.0484C5.26752 10.5531 5.84034 9.1375 6.8805 8.06244C7.10529 7.83035 7.10214 7.46083 6.8734 7.23248L6.81366 7.17293C6.70264 7.06211 6.55238 7 6.39562 7C6.39404 7 6.39227 7 6.39069 7C6.23215 7.00138 6.08091 7.06606 5.97068 7.18003C4.69982 8.49191 4 10.2208 4 12.0484C4 13.8761 4.69982 15.605 5.97088 16.9167C6.0813 17.0307 6.23255 17.0954 6.39108 17.0967C6.39266 17.0967 6.39424 17.0967 6.39582 17.0967C6.55258 17.0967 6.70323 17.0346 6.81405 16.9234L6.8738 16.8637C7.10214 16.6353 7.10529 16.2662 6.8807 16.0341C5.84034 14.9594 5.26752 13.5438 5.26752 12.0484Z" fill="#112D44"/>
</svg>
