<svg width="1258" height="602" viewBox="0 0 1258 602" fill="none" xmlns="http://www.w3.org/2000/svg">
<path d="M0 553.998C0 570.8 0 579.2 3.2698 585.618C6.14601 591.263 10.7354 595.852 16.3803 598.728C22.7976 601.998 31.1984 601.998 48 601.998H1195.32C1223.04 601.998 1236.9 601.998 1244.83 596.185C1251.73 591.116 1256.14 583.334 1256.95 574.804C1257.86 565.02 1250.75 553.128 1236.51 529.344L991.519 120.085C987 112.537 984.741 108.762 981.678 105.89C978.965 103.346 975.803 101.329 972.352 99.9409C968.457 98.374 964.082 97.916 955.331 97.0001L52.9973 2.54565C34.642 0.624329 25.4644 -0.336365 18.3664 2.64984C12.1319 5.27277 6.96669 9.92548 3.70897 15.853C0 22.6016 0 31.8293 0 50.2849V553.998Z" fill="#F3F5F7"/>
</svg>
