<svg width="27" height="27" viewBox="0 0 27 27" fill="none" xmlns="http://www.w3.org/2000/svg">
<path fill-rule="evenodd" clip-rule="evenodd" d="M13.3333 0C5.98667 0 0 5.98667 0 13.3333C0 20.68 5.98667 26.6667 13.3333 26.6667C20.68 26.6667 26.6667 20.68 26.6667 13.3333C26.6667 5.98667 20.68 0 13.3333 0ZM9.79711 8.29289C9.40658 7.90237 8.77342 7.90237 8.38289 8.29289C7.99237 8.68342 7.99237 9.31658 8.38289 9.70711L12.1308 13.455L8.29289 17.2929C7.90237 17.6834 7.90237 18.3166 8.29289 18.7071C8.68342 19.0976 9.31658 19.0976 9.70711 18.7071L13.545 14.8692L17.2929 18.6171C17.6834 19.0076 18.3166 19.0076 18.7071 18.6171C19.0976 18.2266 19.0976 17.5934 18.7071 17.2029L14.9592 13.455L18.6171 9.79711C19.0076 9.40658 19.0076 8.77342 18.6171 8.38289C18.2266 7.99237 17.5934 7.99237 17.2029 8.38289L13.545 12.0408L9.79711 8.29289Z" fill="#F34949"/>
</svg>
