<svg width="48" height="48" viewBox="0 0 48 48" fill="none" xmlns="http://www.w3.org/2000/svg">
    <rect width="48" height="48" rx="24" fill="#104156"/>
    <path d="M33.9539 14.1766C33.9539 14.1766 36.174 13.3109 35.989 15.4133C35.9274 16.279 35.3723 19.309 34.9406 22.5864L33.4605 32.2948C33.4605 32.2948 33.3372 33.717 32.2271 33.9644C31.117 34.2117 29.4519 33.0987 29.1435 32.8513C28.8968 32.6658 24.5182 29.8831 22.9763 28.5227C22.5446 28.1517 22.0513 27.4096 23.038 26.5439L29.5135 20.3603C30.2536 19.6182 30.9936 17.8868 27.91 19.9893L19.2761 25.8638C19.2761 25.8638 18.2893 26.4821 16.4392 25.9256L12.4305 24.6888C12.4305 24.6888 10.9504 23.7613 13.4789 22.8337C19.6461 19.9274 27.2317 16.9592 33.9539 14.1766Z" fill="#06E7ED"/>
    </svg>
    