<svg width="336" height="294" viewBox="0 0 336 294" fill="none" xmlns="http://www.w3.org/2000/svg">
<path d="M26.8847 276.598C-37.1725 218.725 29.0993 141.972 62.0394 119.588C277.256 -0.439621 362.014 363.213 218.275 264.595C74.5371 165.978 106.956 348.939 26.8847 276.598Z" fill="#07E1E8"/>
<path d="M184.688 44.3835L183.336 37.5583L177.614 49.1437L189.507 47.6499L184.688 44.3835Z" stroke="#112D44" stroke-width="0.999999" stroke-linecap="round"/>
<path d="M184.689 44.3835L178.059 48.7467" stroke="#112D44" stroke-width="0.999999" stroke-linecap="round"/>
<path d="M305.325 180.148C314.422 107.84 289.741 5.51676 185.136 43.553" stroke="#112D44" stroke-width="1.5" stroke-linecap="round" stroke-dasharray="2.5 2.5"/>
<g clip-path="url(#clip0_33_2332)">
<g filter="url(#filter0_f_33_2332)">
<rect x="41" y="244" width="215.111" height="78.375" fill="#0C4F7E" fill-opacity="0.09"/>
</g>
<path d="M38.0038 261.066V74.3724C38.0038 68.495 42.4983 64.0005 48.3756 64.0005H248.898C254.776 64.0005 259.27 68.495 259.27 74.3724V261.066C259.27 266.944 254.776 271.438 248.898 271.438H48.3756C42.4983 271.438 38.0038 266.944 38.0038 261.066Z" fill="#CAD1D8"/>
<path d="M48.3751 81.2869C50.2845 81.2869 51.8324 79.739 51.8324 77.8296C51.8324 75.9202 50.2845 74.3723 48.3751 74.3723C46.4657 74.3723 44.9178 75.9202 44.9178 77.8296C44.9178 79.739 46.4657 81.2869 48.3751 81.2869Z" fill="#9BA7AF"/>
<path d="M62.2033 81.2869C64.1126 81.2869 65.6605 79.739 65.6605 77.8296C65.6605 75.9202 64.1126 74.3723 62.2033 74.3723C60.2939 74.3723 58.746 75.9202 58.746 77.8296C58.746 79.739 60.2939 81.2869 62.2033 81.2869Z" fill="#9BA7AF"/>
<path d="M76.0314 81.2869C77.9408 81.2869 79.4887 79.739 79.4887 77.8296C79.4887 75.9202 77.9408 74.3723 76.0314 74.3723C74.1219 74.3723 72.5741 75.9202 72.5741 77.8296C72.5741 79.739 74.1219 81.2869 76.0314 81.2869Z" fill="#9BA7AF"/>
<path d="M248.898 264.523H48.3751C46.3008 264.523 44.9178 263.14 44.9178 261.066V95.116C44.9178 93.0416 46.3008 91.6587 48.3751 91.6587H248.898C250.972 91.6587 252.355 93.0416 252.355 95.116V261.066C252.355 263.14 250.972 264.523 248.898 264.523Z" fill="#112D44"/>
<path d="M248.899 81.2869H89.8634C87.789 81.2869 86.4061 79.904 86.4061 77.8296C86.4061 75.7552 87.789 74.3723 89.8634 74.3723H248.899C250.973 74.3723 252.356 75.7552 252.356 77.8296C252.356 79.904 250.973 81.2869 248.899 81.2869Z" fill="#E2E5E7"/>
<path d="M93.3186 112.403H65.6603C63.5859 112.403 62.203 111.02 62.203 108.945C62.203 106.871 63.5859 105.488 65.6603 105.488H93.3186C95.393 105.488 96.7759 106.871 96.7759 108.945C96.7759 111.02 95.393 112.403 93.3186 112.403Z" fill="#CAD1D8"/>
<path d="M114.061 126.232H79.4884C77.414 126.232 76.0311 124.849 76.0311 122.774C76.0311 120.7 77.414 119.317 79.4884 119.317H114.061C116.136 119.317 117.519 120.7 117.519 122.774C117.519 124.849 116.136 126.232 114.061 126.232Z" fill="#CAD1D8"/>
<path d="M190.124 126.232H155.551C153.476 126.232 152.094 124.849 152.094 122.774C152.094 120.7 153.476 119.317 155.551 119.317H190.124C192.198 119.317 193.581 120.7 193.581 122.774C193.581 124.849 192.198 126.232 190.124 126.232Z" fill="#CAD1D8"/>
<path d="M148.635 153.89H114.063C111.988 153.89 110.605 152.507 110.605 150.433C110.605 148.359 111.988 146.976 114.063 146.976H148.635C150.71 146.976 152.093 148.359 152.093 150.433C152.093 152.507 150.71 153.89 148.635 153.89Z" fill="#EE2C39"/>
<path d="M141.72 126.232H127.891C125.816 126.232 124.433 124.849 124.433 122.774C124.433 120.7 125.816 119.317 127.891 119.317H141.72C143.794 119.317 145.177 120.7 145.177 122.774C145.177 124.849 143.794 126.232 141.72 126.232Z" fill="#3BB54A"/>
<path d="M124.433 140.061H79.4884C77.414 140.061 76.0311 138.678 76.0311 136.604C76.0311 134.529 77.414 133.146 79.4884 133.146H124.433C126.508 133.146 127.89 134.529 127.89 136.604C127.89 138.678 126.508 140.061 124.433 140.061Z" fill="#CAD1D8"/>
<path d="M100.232 153.89H79.4884C77.414 153.89 76.0311 152.507 76.0311 150.433C76.0311 148.359 77.414 146.976 79.4884 146.976H100.232C102.307 146.976 103.689 148.359 103.689 150.433C103.689 152.507 102.307 153.89 100.232 153.89Z" fill="#FDBA4D"/>
<path d="M207.408 140.061H186.664C184.59 140.061 183.207 138.678 183.207 136.604C183.207 134.529 184.59 133.146 186.664 133.146H207.408C209.482 133.146 210.865 134.529 210.865 136.604C210.865 138.678 209.482 140.061 207.408 140.061Z" fill="#CAD1D8"/>
<path d="M169.38 209.207H148.637C146.562 209.207 145.179 207.824 145.179 205.75C145.179 203.675 146.562 202.292 148.637 202.292H169.38C171.455 202.292 172.838 203.675 172.838 205.75C172.838 207.824 171.455 209.207 169.38 209.207Z" fill="#CAD1D8"/>
<path d="M145.177 223.036H124.434C122.359 223.036 120.976 221.653 120.976 219.579C120.976 217.504 122.359 216.121 124.434 216.121H145.177C147.252 216.121 148.635 217.504 148.635 219.579C148.635 221.653 147.252 223.036 145.177 223.036Z" fill="#EE2C39"/>
<path d="M179.752 223.036H159.008C156.933 223.036 155.551 221.653 155.551 219.579C155.551 217.504 156.933 216.121 159.008 216.121H179.752C181.826 216.121 183.209 217.504 183.209 219.579C183.209 221.653 181.826 223.036 179.752 223.036Z" fill="#EE2C39"/>
<path d="M152.091 195.377H138.262C136.187 195.377 134.805 193.995 134.805 191.92C134.805 189.846 136.187 188.463 138.262 188.463H152.091C154.165 188.463 155.548 189.846 155.548 191.92C155.548 193.995 154.165 195.377 152.091 195.377Z" fill="#3BB54A"/>
<path d="M231.61 236.865H217.781C215.707 236.865 214.324 235.482 214.324 233.408C214.324 231.334 215.707 229.951 217.781 229.951H231.61C233.685 229.951 235.068 231.334 235.068 233.408C235.068 235.482 233.685 236.865 231.61 236.865Z" fill="#3689C9"/>
<path d="M155.549 167.719H127.891C125.816 167.719 124.433 166.336 124.433 164.262C124.433 162.188 125.816 160.805 127.891 160.805H155.549C157.623 160.805 159.006 162.188 159.006 164.262C159.006 166.336 157.623 167.719 155.549 167.719Z" fill="#3689C9"/>
<path d="M172.835 140.061H138.262C136.187 140.061 134.805 138.678 134.805 136.604C134.805 134.529 136.187 133.146 138.262 133.146H172.835C174.909 133.146 176.292 134.529 176.292 136.604C176.292 138.678 174.909 140.061 172.835 140.061Z" fill="#CAD1D8"/>
<path d="M114.061 167.719H79.4884C77.414 167.719 76.0311 166.336 76.0311 164.262C76.0311 162.188 77.414 160.805 79.4884 160.805H114.061C116.136 160.805 117.519 162.188 117.519 164.262C117.519 166.336 116.136 167.719 114.061 167.719Z" fill="#CAD1D8"/>
<path d="M93.3187 181.548H65.6604C63.586 181.548 62.2031 180.165 62.2031 178.091C62.2031 176.017 63.586 174.634 65.6604 174.634H93.3187C95.393 174.634 96.7759 176.017 96.7759 178.091C96.7759 180.165 95.393 181.548 93.3187 181.548Z" fill="#CAD1D8"/>
<path d="M124.433 195.377H79.4884C77.414 195.377 76.0311 193.995 76.0311 191.92C76.0311 189.846 77.414 188.463 79.4884 188.463H124.433C126.508 188.463 127.89 189.846 127.89 191.92C127.89 193.995 126.508 195.377 124.433 195.377Z" fill="#CAD1D8"/>
<path d="M134.805 209.207H79.4884C77.414 209.207 76.0311 207.824 76.0311 205.75C76.0311 203.675 77.414 202.292 79.4884 202.292H134.805C136.879 202.292 138.262 203.675 138.262 205.75C138.262 207.824 136.879 209.207 134.805 209.207Z" fill="#FDBA4D"/>
<path d="M186.666 195.377H165.922C163.848 195.377 162.465 193.995 162.465 191.92C162.465 189.846 163.848 188.463 165.922 188.463H186.666C188.74 188.463 190.123 189.846 190.123 191.92C190.123 193.995 188.74 195.377 186.666 195.377Z" fill="#FDBA4D"/>
<path d="M110.604 223.036H79.4884C77.414 223.036 76.0311 221.653 76.0311 219.579C76.0311 217.504 77.414 216.121 79.4884 216.121H110.604C112.678 216.121 114.061 217.504 114.061 219.579C114.061 221.653 112.678 223.036 110.604 223.036Z" fill="#CAD1D8"/>
<path d="M134.805 236.865H79.4884C77.414 236.865 76.0311 235.482 76.0311 233.408C76.0311 231.334 77.414 229.951 79.4884 229.951H134.805C136.879 229.951 138.262 231.334 138.262 233.408C138.262 235.482 136.879 236.865 134.805 236.865Z" fill="#CAD1D8"/>
<path d="M203.953 236.865H148.637C146.562 236.865 145.179 235.482 145.179 233.408C145.179 231.334 146.562 229.951 148.637 229.951H203.953C206.028 229.951 207.411 231.334 207.411 233.408C207.411 235.482 206.028 236.865 203.953 236.865Z" fill="#CAD1D8"/>
<path d="M62.2031 247.237C62.2031 245.163 63.586 243.78 65.6604 243.78H93.3187C95.393 243.78 96.7759 245.163 96.7759 247.237C96.7759 249.311 95.393 250.694 93.3187 250.694H65.6604C63.586 250.694 62.2031 249.311 62.2031 247.237Z" fill="#CAD1D8"/>
<path d="M200.496 195.377C202.406 195.377 203.953 193.83 203.953 191.92C203.953 190.011 202.406 188.463 200.496 188.463C198.587 188.463 197.039 190.011 197.039 191.92C197.039 193.83 198.587 195.377 200.496 195.377Z" fill="#CAD1D8"/>
<path d="M162.465 153.89C164.374 153.89 165.922 152.342 165.922 150.433C165.922 148.523 164.374 146.976 162.465 146.976C160.555 146.976 159.008 148.523 159.008 150.433C159.008 152.342 160.555 153.89 162.465 153.89Z" fill="#CAD1D8"/>
</g>
<defs>
<filter id="filter0_f_33_2332" x="-34" y="169.001" width="365.111" height="228.375" filterUnits="userSpaceOnUse" color-interpolation-filters="sRGB">
<feFlood flood-opacity="0" result="BackgroundImageFix"/>
<feBlend mode="normal" in="SourceGraphic" in2="BackgroundImageFix" result="shape"/>
<feGaussianBlur stdDeviation="37.5" result="effect1_foregroundBlur_33_2332"/>
</filter>
<clipPath id="clip0_33_2332">
<rect width="221.266" height="207.438" fill="white" transform="translate(38 64.0005)"/>
</clipPath>
</defs>
</svg>
