<svg width="443" height="415" viewBox="0 0 443 415" fill="none" xmlns="http://www.w3.org/2000/svg">
<g clip-path="url(#clip0_1_2092)">
<g filter="url(#filter0_f_1_2092)">
<rect x="6" y="360" width="430.224" height="156.75" fill="#0C4F7E" fill-opacity="0.09"/>
</g>
<path d="M0.00390625 394.131V20.7437C0.00390625 8.98896 8.99286 0 20.7477 0H421.793C433.548 0 442.537 8.98896 442.537 20.7437V394.131C442.537 405.886 433.548 414.875 421.793 414.875H20.7477C8.99286 414.875 0.00390625 405.886 0.00390625 394.131Z" fill="#CAD1D8"/>
<path d="M20.7505 34.5728C24.5693 34.5728 27.6651 31.477 27.6651 27.6582C27.6651 23.8394 24.5693 20.7437 20.7505 20.7437C16.9317 20.7437 13.8359 23.8394 13.8359 27.6582C13.8359 31.477 16.9317 34.5728 20.7505 34.5728Z" fill="#9BA7AF"/>
<path d="M48.4068 34.5728C52.2256 34.5728 55.3214 31.477 55.3214 27.6582C55.3214 23.8394 52.2256 20.7437 48.4068 20.7437C44.588 20.7437 41.4922 23.8394 41.4922 27.6582C41.4922 31.477 44.588 34.5728 48.4068 34.5728Z" fill="#9BA7AF"/>
<path d="M76.063 34.5728C79.8819 34.5728 82.9776 31.477 82.9776 27.6582C82.9776 23.8394 79.8819 20.7437 76.063 20.7437C72.2441 20.7437 69.1484 23.8394 69.1484 27.6582C69.1484 31.477 72.2441 34.5728 76.063 34.5728Z" fill="#9BA7AF"/>
<path d="M421.796 401.046H20.7505C16.6018 401.046 13.8359 398.28 13.8359 394.131V62.2312C13.8359 58.0825 16.6018 55.3167 20.7505 55.3167H421.796C425.945 55.3167 428.711 58.0825 428.711 62.2312V394.131C428.711 398.28 425.945 401.046 421.796 401.046Z" fill="#112D44"/>
<path d="M421.794 34.5728H103.723C99.5744 34.5728 96.8086 31.807 96.8086 27.6582C96.8086 23.5095 99.5744 20.7437 103.723 20.7437H421.794C425.943 20.7437 428.709 23.5095 428.709 27.6582C428.709 31.807 425.943 34.5728 421.794 34.5728Z" fill="#E2E5E7"/>
<path d="M110.637 96.8043H55.3207C51.1719 96.8043 48.4061 94.0384 48.4061 89.8897C48.4061 85.7409 51.1719 82.9751 55.3207 82.9751H110.637C114.786 82.9751 117.552 85.7409 117.552 89.8897C117.552 94.0384 114.786 96.8043 110.637 96.8043Z" fill="#CAD1D8"/>
<path d="M152.123 124.463H82.9769C78.8282 124.463 76.0623 121.697 76.0623 117.548C76.0623 113.399 78.8282 110.634 82.9769 110.634H152.123C156.272 110.634 159.037 113.399 159.037 117.548C159.037 121.697 156.272 124.463 152.123 124.463Z" fill="#CAD1D8"/>
<path d="M304.248 124.462H235.102C230.953 124.462 228.187 121.697 228.187 117.548C228.187 113.399 230.953 110.633 235.102 110.633H304.248C308.397 110.633 311.162 113.399 311.162 117.548C311.162 121.697 308.397 124.462 304.248 124.462Z" fill="#CAD1D8"/>
<path d="M221.271 179.779H152.125C147.977 179.779 145.211 177.014 145.211 172.865C145.211 168.716 147.977 165.95 152.125 165.95H221.271C225.42 165.95 228.186 168.716 228.186 172.865C228.186 177.014 225.42 179.779 221.271 179.779Z" fill="#EE2C39"/>
<path d="M207.44 124.462H179.782C175.633 124.462 172.867 121.697 172.867 117.548C172.867 113.399 175.633 110.633 179.782 110.633H207.44C211.589 110.633 214.355 113.399 214.355 117.548C214.355 121.697 211.589 124.462 207.44 124.462Z" fill="#3BB54A"/>
<path d="M172.867 152.121H82.9769C78.8282 152.121 76.0623 149.355 76.0623 145.206C76.0623 141.058 78.8282 138.292 82.9769 138.292H172.867C177.015 138.292 179.781 141.058 179.781 145.206C179.781 149.355 177.015 152.121 172.867 152.121Z" fill="#CAD1D8"/>
<path d="M124.464 179.779H82.9769C78.8282 179.779 76.0623 177.014 76.0623 172.865C76.0623 168.716 78.8282 165.95 82.9769 165.95H124.464C128.613 165.95 131.379 168.716 131.379 172.865C131.379 177.014 128.613 179.779 124.464 179.779Z" fill="#FDBA4D"/>
<path d="M338.816 152.121H297.328C293.18 152.121 290.414 149.355 290.414 145.206C290.414 141.058 293.18 138.292 297.328 138.292H338.816C342.965 138.292 345.731 141.058 345.731 145.206C345.731 149.355 342.965 152.121 338.816 152.121Z" fill="#CAD1D8"/>
<path d="M262.761 290.413H221.274C217.125 290.413 214.359 287.647 214.359 283.498C214.359 279.349 217.125 276.583 221.274 276.583H262.761C266.91 276.583 269.676 279.349 269.676 283.498C269.676 287.647 266.91 290.413 262.761 290.413Z" fill="#CAD1D8"/>
<path d="M214.359 318.071H172.871C168.723 318.071 165.957 315.305 165.957 311.156C165.957 307.008 168.723 304.242 172.871 304.242H214.359C218.508 304.242 221.274 307.008 221.274 311.156C221.274 315.305 218.508 318.071 214.359 318.071Z" fill="#EE2C39"/>
<path d="M283.503 318.071H242.016C237.867 318.071 235.101 315.305 235.101 311.156C235.101 307.008 237.867 304.242 242.016 304.242H283.503C287.652 304.242 290.418 307.008 290.418 311.156C290.418 315.305 287.652 318.071 283.503 318.071Z" fill="#EE2C39"/>
<path d="M228.186 262.754H200.528C196.379 262.754 193.613 259.988 193.613 255.84C193.613 251.691 196.379 248.925 200.528 248.925H228.186C232.335 248.925 235.101 251.691 235.101 255.84C235.101 259.988 232.335 262.754 228.186 262.754Z" fill="#3BB54A"/>
<path d="M387.221 345.729H359.563C355.414 345.729 352.648 342.964 352.648 338.815C352.648 334.666 355.414 331.9 359.563 331.9H387.221C391.37 331.9 394.136 334.666 394.136 338.815C394.136 342.964 391.37 345.729 387.221 345.729Z" fill="#3689C9"/>
<path d="M235.098 207.438H179.782C175.633 207.438 172.867 204.672 172.867 200.523C172.867 196.374 175.633 193.608 179.782 193.608H235.098C239.247 193.608 242.013 196.374 242.013 200.523C242.013 204.672 239.247 207.438 235.098 207.438Z" fill="#3689C9"/>
<path d="M269.674 152.121H200.528C196.379 152.121 193.613 149.355 193.613 145.206C193.613 141.058 196.379 138.292 200.528 138.292H269.674C273.822 138.292 276.588 141.058 276.588 145.206C276.588 149.355 273.822 152.121 269.674 152.121Z" fill="#CAD1D8"/>
<path d="M152.123 207.438H82.9769C78.8282 207.438 76.0623 204.672 76.0623 200.523C76.0623 196.374 78.8282 193.608 82.9769 193.608H152.123C156.272 193.608 159.037 196.374 159.037 200.523C159.037 204.672 156.272 207.438 152.123 207.438Z" fill="#CAD1D8"/>
<path d="M110.637 235.096H55.3205C51.1718 235.096 48.4059 232.33 48.4059 228.181C48.4059 224.032 51.1718 221.267 55.3205 221.267H110.637C114.786 221.267 117.552 224.032 117.552 228.181C117.552 232.33 114.786 235.096 110.637 235.096Z" fill="#CAD1D8"/>
<path d="M172.867 262.754H82.9769C78.8282 262.754 76.0623 259.988 76.0623 255.84C76.0623 251.691 78.8282 248.925 82.9769 248.925H172.867C177.015 248.925 179.781 251.691 179.781 255.84C179.781 259.988 177.015 262.754 172.867 262.754Z" fill="#CAD1D8"/>
<path d="M193.61 290.413H82.9769C78.8282 290.413 76.0623 287.647 76.0623 283.498C76.0623 279.349 78.8282 276.583 82.9769 276.583H193.61C197.759 276.583 200.525 279.349 200.525 283.498C200.525 287.647 197.759 290.413 193.61 290.413Z" fill="#FDBA4D"/>
<path d="M297.332 262.754H255.844C251.695 262.754 248.93 259.988 248.93 255.84C248.93 251.691 251.695 248.925 255.844 248.925H297.332C301.48 248.925 304.246 251.691 304.246 255.84C304.246 259.988 301.48 262.754 297.332 262.754Z" fill="#FDBA4D"/>
<path d="M145.208 318.071H82.9769C78.8282 318.071 76.0623 315.305 76.0623 311.156C76.0623 307.008 78.8282 304.242 82.9769 304.242H145.208C149.357 304.242 152.123 307.008 152.123 311.156C152.123 315.305 149.357 318.071 145.208 318.071Z" fill="#CAD1D8"/>
<path d="M193.61 345.73H82.9769C78.8282 345.73 76.0623 342.964 76.0623 338.815C76.0623 334.666 78.8282 331.9 82.9769 331.9H193.61C197.759 331.9 200.525 334.666 200.525 338.815C200.525 342.964 197.759 345.73 193.61 345.73Z" fill="#CAD1D8"/>
<path d="M331.907 345.729H221.274C217.125 345.729 214.359 342.964 214.359 338.815C214.359 334.666 217.125 331.9 221.274 331.9H331.907C336.056 331.9 338.822 334.666 338.822 338.815C338.822 342.964 336.056 345.729 331.907 345.729Z" fill="#CAD1D8"/>
<path d="M48.4059 366.473C48.4059 362.324 51.1718 359.558 55.3205 359.558H110.637C114.786 359.558 117.552 362.324 117.552 366.473C117.552 370.622 114.786 373.388 110.637 373.388H55.3205C51.1718 373.388 48.4059 370.622 48.4059 366.473Z" fill="#CAD1D8"/>
<path d="M324.993 262.754C328.811 262.754 331.907 259.658 331.907 255.84C331.907 252.021 328.811 248.925 324.993 248.925C321.174 248.925 318.078 252.021 318.078 255.84C318.078 259.658 321.174 262.754 324.993 262.754Z" fill="#CAD1D8"/>
<path d="M248.93 179.779C252.749 179.779 255.845 176.684 255.845 172.865C255.845 169.046 252.749 165.95 248.93 165.95C245.111 165.95 242.015 169.046 242.015 172.865C242.015 176.684 245.111 179.779 248.93 179.779Z" fill="#CAD1D8"/>
</g>
<defs>
<filter id="filter0_f_1_2092" x="-144" y="210" width="730.224" height="456.75" filterUnits="userSpaceOnUse" color-interpolation-filters="sRGB">
<feFlood flood-opacity="0" result="BackgroundImageFix"/>
<feBlend mode="normal" in="SourceGraphic" in2="BackgroundImageFix" result="shape"/>
<feGaussianBlur stdDeviation="75" result="effect1_foregroundBlur_1_2092"/>
</filter>
<clipPath id="clip0_1_2092">
<rect width="442.533" height="414.875" fill="white"/>
</clipPath>
</defs>
</svg>
