<svg width="36" height="34" viewBox="0 0 36 34" fill="none" xmlns="http://www.w3.org/2000/svg">
<g clip-path="url(#clip0_33_3170)">
<path fill-rule="evenodd" clip-rule="evenodd" d="M23.1556 11.1575C23.1873 11.3749 23.2157 11.5621 23.2312 11.6609C23.3273 12.2618 23.3816 13.7862 23.7853 14.8258C24.093 15.619 24.6043 16.1332 25.407 15.9557C26.1365 15.7943 26.6064 15.0846 26.8493 14.1003C27.3721 11.9818 26.8964 8.58715 26.4834 7.60292C26.4383 7.4955 26.3132 7.44599 26.2035 7.49243C26.0942 7.53862 26.0418 7.66289 26.0869 7.77031C26.4829 8.71491 26.9346 11.9735 26.4328 14.0073C26.2366 14.8022 25.9093 15.4128 25.32 15.543C24.7384 15.6718 24.4092 15.2437 24.1862 14.6686C23.7931 13.657 23.7482 12.1729 23.655 11.5878C23.5964 11.2209 23.413 9.81503 23.3678 9.69877C23.3113 9.55316 23.1864 9.55615 23.1454 9.56017C23.1137 9.56325 22.9562 9.58864 22.9441 9.78072C22.7698 12.5195 20.5821 16.6369 17.4504 19.3801C14.3461 22.0992 10.2998 23.4669 6.35331 20.7148C6.25732 20.6482 6.12311 20.6717 6.05356 20.767C5.98425 20.8629 6.0057 20.9949 6.10168 21.0615C10.2368 23.945 14.4797 22.543 17.7318 19.6944C20.4727 17.2937 22.4991 13.8644 23.1556 11.1575Z" fill="#0D121F"/>
<path fill-rule="evenodd" clip-rule="evenodd" d="M6.45174 21.0033C6.9566 20.9663 7.46018 20.9453 7.96311 20.8696C9.30302 20.6682 10.6571 20.1798 11.7603 19.3817C11.8567 19.3116 11.8786 19.1792 11.81 19.0856C11.7406 18.9918 11.6067 18.9726 11.5106 19.0419C10.464 19.8 9.17722 20.2603 7.90596 20.4513C7.33026 20.5376 6.75303 20.5514 6.17463 20.6012C6.14579 20.604 5.89393 20.6181 5.84134 20.6355C5.71866 20.6752 5.69221 20.7685 5.68556 20.8131C5.67953 20.8504 5.68133 20.8962 5.70455 20.9475C5.72383 20.9895 5.77958 21.0604 5.87485 21.1393C6.17922 21.3927 6.97699 21.8819 7.09907 21.9761C8.4987 23.0547 9.61299 24.2932 10.8197 25.5676C10.9001 25.6519 11.036 25.6554 11.1232 25.5751C11.2104 25.4947 11.2158 25.3609 11.1359 25.2763C9.91395 23.9857 8.78373 22.7331 7.36694 21.6415C7.28325 21.5765 6.79921 21.2422 6.45174 21.0033Z" fill="#0D121F"/>
</g>
<defs>
<clipPath id="clip0_33_3170">
<rect width="28.0002" height="24.0001" fill="white" transform="matrix(-0.898796 0.438368 -0.438375 -0.898792 35.6875 21.571)"/>
</clipPath>
</defs>
</svg>
