<svg width="20" height="20" viewBox="0 0 20 20" fill="none" xmlns="http://www.w3.org/2000/svg">
<path d="M10.6816 12L12.1706 13.4889L10.6816 14.9779" stroke="#292D32" stroke-miterlimit="10" stroke-linecap="round" stroke-linejoin="round"/>
<path d="M8 13.489H12.1283" stroke="#292D32" stroke-miterlimit="10" stroke-linecap="round" stroke-linejoin="round"/>
<path d="M10.5495 2.09853L10.5245 2.15686L8.10781 7.76519H5.73281C5.16615 7.76519 4.62448 7.88186 4.13281 8.09019L5.59115 4.60686L5.62448 4.52353L5.68281 4.39019C5.69948 4.34019 5.71615 4.29019 5.74115 4.24853C6.83281 1.72353 8.06615 1.14853 10.5495 2.09853Z" stroke="#292D32" stroke-width="1.5" stroke-linecap="round" stroke-linejoin="round"/>
<path d="M15.0408 7.93172C14.6658 7.81506 14.2658 7.76506 13.8658 7.76506H8.10742L10.5241 2.15672L10.5491 2.09839C10.6741 2.14006 10.7908 2.19839 10.9158 2.24839L12.7574 3.02339C13.7824 3.44839 14.4991 3.89006 14.9324 4.42339C15.0158 4.52339 15.0824 4.61506 15.1408 4.72339C15.2158 4.84006 15.2741 4.95672 15.3074 5.08172C15.3408 5.15672 15.3658 5.23172 15.3824 5.29839C15.6074 5.99839 15.4741 6.85672 15.0408 7.93172Z" stroke="#292D32" stroke-width="1.5" stroke-linecap="round" stroke-linejoin="round"/>
<path d="M17.9341 12.0667V13.6917C17.9341 13.8583 17.9258 14.025 17.9174 14.1917C17.7591 17.1 16.1341 18.5667 13.0508 18.5667H6.55078C6.35078 18.5667 6.15078 18.55 5.95911 18.525C3.30911 18.35 1.89245 16.9333 1.71745 14.2833C1.69245 14.0917 1.67578 13.8917 1.67578 13.6917V12.0667C1.67578 10.3917 2.69245 8.95 4.14245 8.325C4.64245 8.11667 5.17578 8 5.74245 8H13.8758C14.2841 8 14.6841 8.05833 15.0508 8.16667C16.7091 8.675 17.9341 10.225 17.9341 12.0667Z" stroke="#292D32" stroke-width="1.5" stroke-linecap="round" stroke-linejoin="round"/>
<path d="M5.59102 4.60669L4.13268 8.09002C2.68268 8.71502 1.66602 10.1567 1.66602 11.8317V9.39002C1.66602 7.02336 3.34935 5.04836 5.59102 4.60669Z" stroke="#292D32" stroke-width="1.5" stroke-linecap="round" stroke-linejoin="round"/>
<path d="M17.9322 9.38963V11.8313C17.9322 9.99797 16.7155 8.43963 15.0488 7.93963C15.4822 6.8563 15.6072 6.0063 15.3988 5.29797C15.3822 5.22297 15.3572 5.14797 15.3238 5.0813C16.8738 5.8813 17.9322 7.52297 17.9322 9.38963Z" stroke="#292D32" stroke-width="1.5" stroke-linecap="round" stroke-linejoin="round"/>
</svg>
