<svg width="20" height="20" viewBox="0 0 20 20" fill="none" xmlns="http://www.w3.org/2000/svg">
<path d="M7.91602 11.4583C7.91602 12.2666 8.54103 12.9166 9.30769 12.9166H10.8743C11.541 12.9166 12.0827 12.3499 12.0827 11.6416C12.0827 10.8833 11.7494 10.6083 11.2577 10.4333L8.74935 9.55828C8.25768 9.38328 7.92436 9.11662 7.92436 8.34995C7.92436 7.64995 8.46601 7.07495 9.13268 7.07495H10.6993C11.466 7.07495 12.091 7.72495 12.091 8.53328" stroke="#112D44" stroke-width="1.5" stroke-linecap="round" stroke-linejoin="round"/>
<path d="M10 6.25V13.75" stroke="#112D44" stroke-width="1.5" stroke-linecap="round" stroke-linejoin="round"/>
<path d="M18.3327 10.0001C18.3327 14.6001 14.5993 18.3334 9.99935 18.3334C5.39935 18.3334 1.66602 14.6001 1.66602 10.0001C1.66602 5.40008 5.39935 1.66675 9.99935 1.66675" stroke="#112D44" stroke-width="1.5" stroke-linecap="round" stroke-linejoin="round"/>
<path d="M14.166 2.5V5.83333H17.4993" stroke="#112D44" stroke-width="1.5" stroke-linecap="round" stroke-linejoin="round"/>
<path d="M18.3327 1.66675L14.166 5.83341" stroke="#112D44" stroke-width="1.5" stroke-linecap="round" stroke-linejoin="round"/>
</svg>
