<svg width="20" height="20" viewBox="0 0 20 20" fill="none" xmlns="http://www.w3.org/2000/svg">
<path d="M6.66667 8.33325L5 9.99992L6.66667 11.6666" stroke="#112D44" stroke-width="1.5" stroke-miterlimit="10" stroke-linecap="round" stroke-linejoin="round"/>
<path d="M13.334 8.33325L15.0007 9.99992L13.334 11.6666" stroke="#112D44" stroke-width="1.5" stroke-miterlimit="10" stroke-linecap="round" stroke-linejoin="round"/>
<path d="M9.99935 18.3334C14.6017 18.3334 18.3327 14.6025 18.3327 10.0001C18.3327 5.39771 14.6017 1.66675 9.99935 1.66675C5.39698 1.66675 1.66602 5.39771 1.66602 10.0001C1.66602 14.6025 5.39698 18.3334 9.99935 18.3334Z" stroke="#112D44" stroke-width="1.5" stroke-miterlimit="10" stroke-linecap="round" stroke-linejoin="round"/>
<path d="M8.61133 11.1042C8.61133 11.6389 9.02799 12.0764 9.53494 12.0764H10.5766C11.0211 12.0764 11.3822 11.6944 11.3822 11.2292C11.3822 10.7222 11.1599 10.5417 10.8336 10.4236L9.16688 9.84028C8.83355 9.72222 8.61133 9.54167 8.61133 9.03472C8.61133 8.56944 8.97244 8.1875 9.41688 8.1875H10.4586C10.9724 8.19444 11.3891 8.625 11.3891 9.15972" stroke="#112D44" stroke-width="1.5" stroke-linecap="round" stroke-linejoin="round"/>
<path d="M10 12.1113V12.6252" stroke="#112D44" stroke-width="1.5" stroke-linecap="round" stroke-linejoin="round"/>
<path d="M10 7.63892V8.18058" stroke="#112D44" stroke-width="1.5" stroke-linecap="round" stroke-linejoin="round"/>
</svg>
