<svg width="48" height="48" viewBox="0 0 48 48" fill="none" xmlns="http://www.w3.org/2000/svg">
    <rect width="48" height="48" rx="24" fill="#104156"/>
    <g clip-path="url(#clip0_3805_7246)">
    <path fill-rule="evenodd" clip-rule="evenodd" d="M29.821 28.1211C29.58 28.8033 28.622 29.3677 27.858 29.5327C27.335 29.6437 26.653 29.7316 24.355 28.7793C21.774 27.71 18.19 23.901 18.19 21.3662C18.19 20.0758 18.934 18.5732 20.235 18.5732C20.861 18.5732 20.999 18.5854 21.205 19.0796C21.446 19.6618 22.034 21.0961 22.104 21.2432C22.393 21.8463 21.81 22.1994 21.387 22.7246C21.252 22.8826 21.099 23.0536 21.27 23.3477C21.44 23.6357 22.028 24.5941 22.892 25.3633C24.008 26.3576 24.913 26.675 25.237 26.8101C25.478 26.9101 25.766 26.8868 25.942 26.6987C26.165 26.4577 26.442 26.0577 26.724 25.6636C26.923 25.3815 27.176 25.3463 27.441 25.4463C27.62 25.5083 29.895 26.5648 29.991 26.7339C30.062 26.8569 30.062 27.4389 29.821 28.1211ZM24.002 14H23.997C18.484 14 14 18.4854 14 24C14 26.1867 14.705 28.2153 15.904 29.8608L14.658 33.5767L18.501 32.3486C20.082 33.395 21.969 34 24.002 34C29.515 34 34 29.5147 34 24C34 18.4854 29.515 14 24.002 14Z" fill="#06E7ED"/>
    </g>
    <defs>
    <clipPath id="clip0_3805_7246">
    <rect width="20" height="20" fill="white" transform="translate(14 14)"/>
    </clipPath>
    </defs>
    </svg>
    