<svg width="150" height="150" viewBox="0 0 150 150" fill="none" xmlns="http://www.w3.org/2000/svg">
<g clip-path="url(#clip0_3666_21015)">
<circle cx="75" cy="-0.00012207" r="150" fill="#112D44"/>
<circle cx="75" cy="234.419" r="150" fill="#06E7ED"/>
<circle opacity="0.3" cx="75" cy="74.751" r="48.6376" fill="#112D44" stroke="#06E7ED" stroke-width="2.72477"/>
<circle cx="75" cy="74.7507" r="38.6376" fill="#112D44" stroke="#06E7ED" stroke-width="2.72477"/>
<path d="M68.2481 84.2115C68.0632 84.2113 67.9432 84.1186 67.888 83.9337L67.1149 81.3941C67.0785 81.2747 67.0466 81.1037 66.9217 81.1035V81.1035L60.0997 81.093V81.093C59.9749 81.0928 59.9429 81.2639 59.9073 81.3835L59.1524 83.9202C59.0967 84.105 58.9764 84.1972 58.7915 84.197L55.2695 84.1915V84.1915C55.0897 84.1913 54.9441 84.0251 54.9812 83.8491C54.9844 83.8341 54.9883 83.8187 54.9928 83.8029L61.0118 65.0653C61.0676 64.8805 61.1879 64.7882 61.3728 64.7885L65.7267 64.7952C65.9116 64.7955 66.0316 64.8882 66.0868 65.0731L72.0047 83.6932C72.0335 83.7837 72.0756 83.8729 72.0755 83.9679V83.9679C72.0752 84.1342 71.9734 84.2173 71.77 84.217L68.2481 84.2115ZM60.9643 77.9051C60.9456 78.016 60.9825 78.0716 61.075 78.0717L65.9558 78.0792C66.0667 78.0794 66.1038 78.024 66.067 77.913L63.5838 69.6728C63.5828 69.669 63.5819 69.6653 63.5809 69.6618C63.5586 69.5818 63.4438 69.5938 63.4174 69.6725V69.6725L60.9643 77.9051Z" fill="#FFFDFF"/>
<path d="M82.5572 64.7935C83.7774 64.7953 84.8493 65.0466 85.7729 65.5472C86.6966 66.0478 87.4073 66.7607 87.905 67.6858C88.4213 68.5926 88.6785 69.6375 88.6767 70.8207C88.6749 71.9855 88.4052 73.0112 87.8677 73.8978C87.3487 74.7844 86.6081 75.4765 85.6459 75.9742C84.7023 76.4535 83.6111 76.6921 82.3725 76.6902L78.4345 76.6841C78.3421 76.684 78.2958 76.7301 78.2956 76.8226L78.2847 83.8942C78.2846 83.9867 78.2475 84.0698 78.1734 84.1437C78.1179 84.199 78.0439 84.2266 77.9514 84.2265L74.7068 84.2215V84.2215C74.5291 84.2212 74.3743 84.0659 74.3745 83.8882V83.8882L74.4035 65.1137C74.4036 65.0212 74.4315 64.9473 74.487 64.892C74.5611 64.8181 74.6443 64.7813 74.7368 64.7814L82.5572 64.7935ZM81.9613 73.5559C82.8118 73.5572 83.4962 73.3179 84.0146 72.838C84.533 72.3396 84.7928 71.6929 84.7941 70.898C84.7953 70.0845 84.5375 69.4278 84.0206 68.9278C83.5037 68.4278 82.82 68.1772 81.9696 68.1759L78.4476 68.1704C78.3552 68.1703 78.3089 68.2164 78.3088 68.3089L78.3009 73.4116C78.3008 73.504 78.3469 73.5503 78.4393 73.5504L81.9613 73.5559Z" fill="#FFFDFF"/>
<path d="M91.3926 84.2472V84.2472C91.2149 84.247 91.06 84.0916 91.0603 83.9139V83.9139L91.0892 65.1671C91.0893 65.0747 91.1172 65.0008 91.1727 64.9454C91.2468 64.8716 91.33 64.8347 91.4225 64.8349L94.6671 64.8399V64.8399C94.8383 64.8401 94.9997 65.002 94.9994 65.1732V65.1732L94.9705 83.92C94.9703 84.0124 94.9332 84.0955 94.8592 84.1694C94.8036 84.2248 94.7296 84.2524 94.6372 84.2522L91.3926 84.2472Z" fill="#FFFDFF"/>
<path d="M44.3654 130.657V142.313H44.3153L35.3684 133.902L35.4034 141.947H33.75V130.313H33.8335L42.7637 138.822L42.7303 130.66L44.3654 130.657Z" fill="#112D44"/>
<path d="M55.1388 130.313V131.857H48.5947V135.509H54.3142V137.053H48.5947V140.753H55.2354V142.313H46.9277V130.313H55.1388Z" fill="#112D44"/>
<path d="M59.8592 139.401C60.1158 139.819 60.4827 140.164 60.9226 140.402C61.377 140.649 61.8911 140.777 62.4129 140.771C62.95 140.778 63.4802 140.654 63.954 140.41C64.403 140.179 64.7769 139.832 65.0342 139.409C65.2964 138.976 65.4317 138.483 65.4258 137.982V130.313H67.0444V138.029C67.06 138.816 66.8472 139.593 66.43 140.27C66.0309 140.913 65.4533 141.436 64.7624 141.78C64.0356 142.131 63.2341 142.313 62.4214 142.313C61.6087 142.313 60.8071 142.131 60.0803 141.78C59.3904 141.437 58.8147 140.914 58.4195 140.27C58.0093 139.59 57.8003 138.815 57.8152 138.029V130.313H59.4676V137.982C59.4604 138.48 59.5958 138.971 59.8592 139.401Z" fill="#112D44"/>
<path d="M77.0871 141.99C76.4881 142.208 75.8555 142.317 75.2189 142.312C74.1233 142.335 73.0417 142.06 72.0861 141.517C71.208 141.011 70.4867 140.267 70.0034 139.368C69.5139 138.457 69.2629 137.434 69.2742 136.397C69.258 135.309 69.5115 134.234 70.0113 133.271C70.482 132.371 71.189 131.62 72.0543 131.101C72.9501 130.569 73.9727 130.297 75.0108 130.314C75.629 130.309 76.2447 130.396 76.8377 130.573C77.3727 130.732 77.8849 130.962 78.3612 131.256L77.7401 132.728C76.8536 132.122 75.9618 131.819 75.0648 131.819C74.3304 131.815 73.61 132.023 72.9884 132.419C72.3514 132.822 71.8273 133.384 71.4665 134.051C71.0842 134.743 70.8865 135.524 70.893 136.316C70.8815 137.111 71.0603 137.896 71.4141 138.605C71.7473 139.273 72.265 139.829 72.9042 140.205C73.6739 140.631 74.547 140.827 75.4222 140.77C76.2973 140.713 77.1385 140.405 77.8481 139.883L78.5042 141.296C78.0593 141.581 77.5839 141.814 77.0871 141.99Z" fill="#112D44"/>
<path d="M87.2099 142.313L84.445 137.882C84.3154 137.896 84.1851 137.901 84.0548 137.899H82.3088V142.313H80.7305V130.314H83.8694C84.6072 130.301 85.3393 130.448 86.0169 130.747C86.6212 131.013 87.1357 131.454 87.4969 132.015C87.8671 132.619 88.0539 133.321 88.0338 134.032C88.0393 134.743 87.8732 135.445 87.5501 136.074C87.2259 136.698 86.7082 137.193 86.0782 137.484L89.0382 142.313H87.2099ZM85.8557 135.658C86.2226 135.225 86.4221 134.671 86.4167 134.098C86.4137 133.736 86.3323 133.379 86.1781 133.053C86.013 132.702 85.7536 132.405 85.43 132.198C85.0418 131.959 84.5935 131.84 84.1403 131.857H82.3088V136.339H84.0161C84.8674 136.339 85.4806 136.112 85.8557 135.658Z" fill="#112D44"/>
<path d="M92.4287 133.329C92.9571 132.422 93.7091 131.666 94.6132 131.131C95.519 130.596 96.5524 130.313 97.6051 130.313C98.6578 130.313 99.6912 130.596 100.597 131.131C101.505 131.666 102.262 132.422 102.798 133.329C103.339 134.23 103.622 135.261 103.617 136.312C103.626 137.366 103.348 138.403 102.812 139.311C102.282 140.218 101.524 140.97 100.611 141.492C99.7015 142.026 98.6663 142.309 97.6111 142.313C96.5559 142.317 95.5185 142.042 94.6045 141.516C93.6905 140.989 92.9325 140.23 92.4078 139.316C91.883 138.402 91.6103 137.366 91.6173 136.312C91.6118 135.262 91.8923 134.231 92.4287 133.329ZM93.826 138.549C94.2063 139.221 94.7578 139.781 95.4246 140.171C95.9211 140.468 96.4725 140.663 97.0459 140.743C97.6192 140.823 98.2028 140.786 98.7619 140.636C99.321 140.486 99.8441 140.226 100.3 139.87C100.756 139.514 101.136 139.069 101.416 138.564C101.797 137.875 101.996 137.101 101.996 136.314C101.996 135.527 101.797 134.752 101.416 134.063C101.041 133.386 100.492 132.82 99.8258 132.425C99.1563 132.031 98.3932 131.824 97.6161 131.826C96.839 131.827 96.0765 132.037 95.4085 132.433C94.7437 132.832 94.197 133.4 93.8244 134.079C93.4419 134.768 93.2434 135.543 93.2481 136.33C93.2402 137.108 93.4397 137.874 93.826 138.549Z" fill="#112D44"/>
<path d="M107.571 130.66L107.537 138.819L116.471 130.313H116.555V141.936H114.904L114.937 133.901L105.991 142.313H105.939V130.66H107.571Z" fill="#112D44"/>
</g>
<defs>
<clipPath id="clip0_3666_21015">
<rect width="150" height="150" rx="30" fill="white"/>
</clipPath>
</defs>
</svg>
