<svg width="150" height="150" viewBox="0 0 150 150" fill="none" xmlns="http://www.w3.org/2000/svg">
<g clip-path="url(#clip0_3666_20998)">
<circle cx="75" cy="-0.00012207" r="150" fill="#112D44"/>
<circle cx="75" cy="234.419" r="150" fill="#06E7ED"/>
<circle opacity="0.3" cx="75" cy="74.751" r="48.6376" fill="#112D44" stroke="#06E7ED" stroke-width="2.72477"/>
<circle cx="75" cy="74.7507" r="38.6376" fill="#112D44" stroke="#06E7ED" stroke-width="2.72477"/>
<path d="M76.6491 84.772C76.4587 84.7718 76.335 84.6763 76.2782 84.4858L75.4816 81.8693C75.4442 81.7463 75.4113 81.5701 75.2827 81.5699V81.5699L68.2541 81.5591V81.5591C68.1255 81.5589 68.0926 81.7351 68.0559 81.8584L67.2782 84.4719C67.2207 84.6623 67.0968 84.7573 66.9063 84.757L63.2777 84.7514V84.7514C63.0925 84.7511 62.9425 84.5799 62.9807 84.3987C62.984 84.3832 62.9879 84.3673 62.9926 84.351L69.1938 65.0462C69.2513 64.8559 69.3752 64.7608 69.5657 64.7611L74.0514 64.768C74.2419 64.7683 74.3656 64.8637 74.4224 65.0543L80.5195 84.238C80.5492 84.3312 80.5926 84.4231 80.5924 84.521V84.521C80.5921 84.6924 80.4872 84.778 80.2777 84.7776L76.6491 84.772ZM69.1449 78.2748C69.1256 78.389 69.1637 78.4462 69.2589 78.4464L74.2875 78.4541C74.4017 78.4543 74.4399 78.3972 74.402 78.2829L71.8437 69.7932C71.8427 69.7893 71.8417 69.7855 71.8407 69.7818C71.8177 69.6994 71.6994 69.7118 71.6722 69.7929V69.7929L69.1449 78.2748Z" fill="#FFFDFF"/>
<path d="M83.4462 84.7825V84.7825C83.2632 84.7822 83.1036 84.6222 83.1039 84.4391V84.4391L83.1337 65.1249C83.1338 65.0296 83.1625 64.9535 83.2198 64.8964C83.2961 64.8204 83.3818 64.7824 83.4771 64.7826L86.8199 64.7877V64.7877C86.9963 64.788 87.1625 64.9548 87.1623 65.1311V65.1311L87.1325 84.4454C87.1323 84.5406 87.0941 84.6262 87.0178 84.7023C86.9606 84.7594 86.8843 84.7878 86.7891 84.7877L83.4462 84.7825Z" fill="#FFFDFF"/>
<path d="M44.6154 130.657V142.313H44.5653L35.6184 133.902L35.6534 141.947H34V130.313H34.0835L43.0137 138.822L42.9803 130.66L44.6154 130.657Z" fill="#112D44"/>
<path d="M55.3888 130.313V131.857H48.8447V135.509H54.5642V137.053H48.8447V140.753H55.4854V142.313H47.1777V130.313H55.3888Z" fill="#112D44"/>
<path d="M60.1092 139.401C60.3658 139.819 60.7327 140.164 61.1726 140.402C61.627 140.649 62.1411 140.777 62.6629 140.771C63.2 140.778 63.7302 140.654 64.204 140.41C64.653 140.179 65.0269 139.832 65.2842 139.409C65.5464 138.976 65.6817 138.483 65.6758 137.982V130.313H67.2944V138.029C67.31 138.816 67.0972 139.593 66.68 140.27C66.2809 140.913 65.7033 141.436 65.0124 141.78C64.2856 142.131 63.4841 142.313 62.6714 142.313C61.8587 142.313 61.0571 142.131 60.3303 141.78C59.6404 141.437 59.0647 140.914 58.6695 140.27C58.2593 139.59 58.0503 138.815 58.0652 138.029V130.313H59.7176V137.982C59.7104 138.48 59.8458 138.971 60.1092 139.401Z" fill="#112D44"/>
<path d="M77.3371 141.99C76.7381 142.208 76.1055 142.317 75.4689 142.312C74.3733 142.335 73.2917 142.06 72.3361 141.517C71.458 141.011 70.7367 140.267 70.2534 139.368C69.7639 138.457 69.5129 137.434 69.5242 136.397C69.508 135.309 69.7615 134.234 70.2613 133.271C70.732 132.371 71.439 131.62 72.3043 131.101C73.2001 130.569 74.2227 130.297 75.2608 130.314C75.879 130.309 76.4947 130.396 77.0877 130.573C77.6227 130.732 78.1349 130.962 78.6112 131.256L77.9901 132.728C77.1036 132.122 76.2118 131.819 75.3148 131.819C74.5804 131.815 73.86 132.023 73.2384 132.419C72.6014 132.822 72.0773 133.384 71.7165 134.051C71.3342 134.743 71.1365 135.524 71.143 136.316C71.1315 137.111 71.3103 137.896 71.6641 138.605C71.9973 139.273 72.515 139.829 73.1542 140.205C73.9239 140.631 74.797 140.827 75.6722 140.77C76.5473 140.713 77.3885 140.405 78.0981 139.883L78.7542 141.296C78.3093 141.581 77.8339 141.814 77.3371 141.99Z" fill="#112D44"/>
<path d="M87.4599 142.313L84.695 137.882C84.5654 137.896 84.4351 137.901 84.3048 137.899H82.5588V142.313H80.9805V130.314H84.1194C84.8572 130.301 85.5893 130.448 86.2669 130.747C86.8712 131.013 87.3857 131.454 87.7469 132.015C88.1171 132.619 88.3039 133.321 88.2838 134.032C88.2893 134.743 88.1232 135.445 87.8001 136.074C87.4759 136.698 86.9582 137.193 86.3282 137.484L89.2882 142.313H87.4599ZM86.1057 135.658C86.4726 135.225 86.6721 134.671 86.6667 134.098C86.6637 133.736 86.5823 133.379 86.4281 133.053C86.263 132.702 86.0036 132.405 85.68 132.198C85.2918 131.959 84.8435 131.84 84.3903 131.857H82.5588V136.339H84.2661C85.1174 136.339 85.7306 136.112 86.1057 135.658Z" fill="#112D44"/>
<path d="M92.6787 133.329C93.2071 132.422 93.9591 131.666 94.8632 131.131C95.769 130.596 96.8024 130.313 97.8551 130.313C98.9078 130.313 99.9412 130.596 100.847 131.131C101.755 131.666 102.512 132.422 103.048 133.329C103.589 134.23 103.872 135.261 103.867 136.312C103.876 137.366 103.598 138.403 103.062 139.311C102.532 140.218 101.774 140.97 100.861 141.492C99.9515 142.026 98.9163 142.309 97.8611 142.313C96.8059 142.317 95.7685 142.042 94.8545 141.516C93.9405 140.989 93.1825 140.23 92.6578 139.316C92.133 138.402 91.8603 137.366 91.8673 136.312C91.8618 135.262 92.1423 134.231 92.6787 133.329ZM94.076 138.549C94.4563 139.221 95.0078 139.781 95.6746 140.171C96.1711 140.468 96.7225 140.663 97.2959 140.743C97.8692 140.823 98.4528 140.786 99.0119 140.636C99.571 140.486 100.094 140.226 100.55 139.87C101.006 139.514 101.386 139.069 101.666 138.564C102.047 137.875 102.246 137.101 102.246 136.314C102.246 135.527 102.047 134.752 101.666 134.063C101.291 133.386 100.742 132.82 100.076 132.425C99.4063 132.031 98.6432 131.824 97.8661 131.826C97.089 131.827 96.3265 132.037 95.6585 132.433C94.9937 132.832 94.447 133.4 94.0744 134.079C93.6919 134.768 93.4934 135.543 93.4981 136.33C93.4902 137.108 93.6897 137.874 94.076 138.549Z" fill="#112D44"/>
<path d="M107.821 130.66L107.787 138.819L116.721 130.313H116.805V141.936H115.154L115.187 133.901L106.241 142.313H106.189V130.66H107.821Z" fill="#112D44"/>
</g>
<defs>
<clipPath id="clip0_3666_20998">
<rect width="150" height="150" rx="30" fill="white"/>
</clipPath>
</defs>
</svg>
