<svg width="150" height="150" viewBox="0 0 150 150" fill="none" xmlns="http://www.w3.org/2000/svg">
<g clip-path="url(#clip0_3666_20970)">
<circle cx="75" cy="-0.00012207" r="150" fill="#112D44"/>
<circle cx="75" cy="234.419" r="150" fill="#06E7ED"/>
<circle opacity="0.3" cx="75" cy="74.751" r="48.6376" fill="#112D44" stroke="#06E7ED" stroke-width="2.72477"/>
<circle cx="75" cy="74.7507" r="38.6376" fill="#112D44" stroke="#06E7ED" stroke-width="2.72477"/>
<path d="M62.0992 66.7619C63.1617 66.7636 64.095 66.9823 64.8992 67.4182C65.7035 67.8541 66.3223 68.4748 66.7557 69.2804C67.2052 70.0699 67.4292 70.9798 67.4276 72.01C67.426 73.0242 67.1912 73.9173 66.7232 74.6893C66.2713 75.4613 65.6264 76.064 64.7886 76.4973C63.967 76.9146 63.0169 77.1224 61.9383 77.1207L58.5095 77.1154C58.429 77.1153 58.3887 77.1555 58.3886 77.236L58.3791 83.3935C58.3789 83.4739 58.3466 83.5463 58.2821 83.6106C58.2338 83.6589 58.1693 83.6829 58.0889 83.6828L55.2637 83.6784V83.6784C55.1089 83.6782 54.9741 83.5429 54.9743 83.3882V83.3882L54.9996 67.0407C54.9997 66.9603 55.0239 66.8959 55.0723 66.8477C55.1368 66.7834 55.2093 66.7513 55.2898 66.7514L62.0992 66.7619ZM61.5803 74.3916C62.3209 74.3927 62.9168 74.1844 63.3682 73.7665C63.8196 73.3326 64.0458 72.7695 64.0469 72.0773C64.048 71.369 63.8235 70.7971 63.3734 70.3618C62.9234 69.9264 62.3281 69.7082 61.5876 69.7071L58.5209 69.7023C58.4404 69.7022 58.4001 69.7424 58.4 69.8229L58.3931 74.2659C58.393 74.3464 58.4332 74.3867 58.5137 74.3868L61.5803 74.3916Z" fill="#FFFDFF"/>
<path d="M78.9039 83.7149C78.7429 83.7146 78.6384 83.634 78.5903 83.4729L77.9171 81.2616C77.8855 81.1577 77.8577 81.0088 77.749 81.0086V81.0086L71.8089 80.9995V80.9995C71.7002 80.9993 71.6724 81.1483 71.6414 81.2524L70.9841 83.4612C70.9355 83.6221 70.8308 83.7024 70.6698 83.7022L67.6031 83.6974V83.6974C67.4465 83.6972 67.3198 83.5525 67.3521 83.3993C67.3549 83.3862 67.3582 83.3728 67.3622 83.359L72.6031 67.0437C72.6516 66.8828 72.7564 66.8025 72.9174 66.8028L76.7084 66.8086C76.8694 66.8088 76.9739 66.8895 77.022 67.0505L82.1749 83.2635C82.2 83.3423 82.2366 83.42 82.2365 83.5027V83.5027C82.2363 83.6476 82.1476 83.7199 81.9705 83.7196L78.9039 83.7149ZM72.5617 78.2237C72.5454 78.3203 72.5776 78.3686 72.6581 78.3688L76.9079 78.3753C77.0045 78.3755 77.0368 78.3272 77.0047 78.2306L74.8426 71.0556C74.8417 71.0523 74.8409 71.0491 74.84 71.046C74.8206 70.9764 74.7206 70.9868 74.6977 71.0554V71.0554L72.5617 78.2237Z" fill="#FFFDFF"/>
<path d="M86.8002 83.7029V83.7029C86.6454 83.7027 86.5106 83.5674 86.5108 83.4127V83.4127L86.5203 77.3035C86.5204 77.2391 86.5124 77.1908 86.4963 77.1586L81.5375 67.1541C81.5054 67.0897 81.4894 67.0413 81.4894 67.0091C81.4896 66.8804 81.5782 66.8161 81.7553 66.8164L84.7978 66.8211C84.9588 66.8213 85.0714 66.8939 85.1356 67.0389L88.144 73.4667C88.1922 73.5633 88.2405 73.5634 88.2889 73.4669L91.3172 67.0484C91.3818 66.9037 91.4946 66.8314 91.6556 66.8316L94.7464 66.8364V66.8364C94.9126 66.8367 95.0298 67.0167 94.9653 67.1699C94.9646 67.1715 94.9639 67.1731 94.9632 67.1748L89.9252 77.1639C89.909 77.1961 89.9009 77.2443 89.9008 77.3087L89.8914 83.4179C89.8913 83.4984 89.859 83.5708 89.7945 83.6351C89.7461 83.6833 89.6817 83.7073 89.6012 83.7072L86.8002 83.7029Z" fill="#FFFDFF"/>
<path d="M44.3654 130.657V142.313H44.3153L35.3684 133.902L35.4034 141.947H33.75V130.313H33.8335L42.7637 138.822L42.7303 130.66L44.3654 130.657Z" fill="#112D44"/>
<path d="M55.1388 130.313V131.857H48.5947V135.509H54.3142V137.053H48.5947V140.753H55.2354V142.313H46.9277V130.313H55.1388Z" fill="#112D44"/>
<path d="M59.8592 139.401C60.1158 139.819 60.4827 140.164 60.9226 140.402C61.377 140.649 61.8911 140.777 62.4129 140.771C62.95 140.778 63.4802 140.654 63.954 140.41C64.403 140.179 64.7769 139.832 65.0342 139.409C65.2964 138.976 65.4317 138.483 65.4258 137.982V130.313H67.0444V138.029C67.06 138.816 66.8472 139.593 66.43 140.27C66.0309 140.913 65.4533 141.436 64.7624 141.78C64.0356 142.131 63.2341 142.313 62.4214 142.313C61.6087 142.313 60.8071 142.131 60.0803 141.78C59.3904 141.437 58.8147 140.914 58.4195 140.27C58.0093 139.59 57.8003 138.815 57.8152 138.029V130.313H59.4676V137.982C59.4604 138.48 59.5958 138.971 59.8592 139.401Z" fill="#112D44"/>
<path d="M77.0871 141.99C76.4881 142.208 75.8555 142.317 75.2189 142.312C74.1233 142.335 73.0417 142.06 72.0861 141.517C71.208 141.011 70.4867 140.267 70.0034 139.368C69.5139 138.457 69.2629 137.434 69.2742 136.397C69.258 135.309 69.5115 134.234 70.0113 133.271C70.482 132.371 71.189 131.62 72.0543 131.101C72.9501 130.569 73.9727 130.297 75.0108 130.314C75.629 130.309 76.2447 130.396 76.8377 130.573C77.3727 130.732 77.8849 130.962 78.3612 131.256L77.7401 132.728C76.8536 132.122 75.9618 131.819 75.0648 131.819C74.3304 131.815 73.61 132.023 72.9884 132.419C72.3514 132.822 71.8273 133.384 71.4665 134.051C71.0842 134.743 70.8865 135.524 70.893 136.316C70.8815 137.111 71.0603 137.896 71.4141 138.605C71.7473 139.273 72.265 139.829 72.9042 140.205C73.6739 140.631 74.547 140.827 75.4222 140.77C76.2973 140.713 77.1385 140.405 77.8481 139.883L78.5042 141.296C78.0593 141.581 77.5839 141.814 77.0871 141.99Z" fill="#112D44"/>
<path d="M87.2099 142.313L84.445 137.882C84.3154 137.896 84.1851 137.901 84.0548 137.899H82.3088V142.313H80.7305V130.314H83.8694C84.6072 130.301 85.3393 130.448 86.0169 130.747C86.6212 131.013 87.1357 131.454 87.4969 132.015C87.8671 132.619 88.0539 133.321 88.0338 134.032C88.0393 134.743 87.8732 135.445 87.5501 136.074C87.2259 136.698 86.7082 137.193 86.0782 137.484L89.0382 142.313H87.2099ZM85.8557 135.658C86.2226 135.225 86.4221 134.671 86.4167 134.098C86.4137 133.736 86.3323 133.379 86.1781 133.053C86.013 132.702 85.7536 132.405 85.43 132.198C85.0418 131.959 84.5935 131.84 84.1403 131.857H82.3088V136.339H84.0161C84.8674 136.339 85.4806 136.112 85.8557 135.658Z" fill="#112D44"/>
<path d="M92.4287 133.329C92.9571 132.422 93.7091 131.666 94.6132 131.131C95.519 130.596 96.5524 130.313 97.6051 130.313C98.6578 130.313 99.6912 130.596 100.597 131.131C101.505 131.666 102.262 132.422 102.798 133.329C103.339 134.23 103.622 135.261 103.617 136.312C103.626 137.366 103.348 138.403 102.812 139.311C102.282 140.218 101.524 140.97 100.611 141.492C99.7015 142.026 98.6663 142.309 97.6111 142.313C96.5559 142.317 95.5185 142.042 94.6045 141.516C93.6905 140.989 92.9325 140.23 92.4078 139.316C91.883 138.402 91.6103 137.366 91.6173 136.312C91.6118 135.262 91.8923 134.231 92.4287 133.329ZM93.826 138.549C94.2063 139.221 94.7578 139.781 95.4246 140.171C95.9211 140.468 96.4725 140.663 97.0459 140.743C97.6192 140.823 98.2028 140.786 98.7619 140.636C99.321 140.486 99.8441 140.226 100.3 139.87C100.756 139.514 101.136 139.069 101.416 138.564C101.797 137.875 101.996 137.101 101.996 136.314C101.996 135.527 101.797 134.752 101.416 134.063C101.041 133.386 100.492 132.82 99.8258 132.425C99.1563 132.031 98.3932 131.824 97.6161 131.826C96.839 131.827 96.0765 132.037 95.4085 132.433C94.7437 132.832 94.197 133.4 93.8244 134.079C93.4419 134.768 93.2434 135.543 93.2481 136.33C93.2402 137.108 93.4397 137.874 93.826 138.549Z" fill="#112D44"/>
<path d="M107.571 130.66L107.537 138.819L116.471 130.313H116.555V141.936H114.904L114.937 133.901L105.991 142.313H105.939V130.66H107.571Z" fill="#112D44"/>
</g>
<defs>
<clipPath id="clip0_3666_20970">
<rect width="150" height="150" rx="30" fill="white"/>
</clipPath>
</defs>
</svg>
