<svg width="60" height="60" viewBox="0 0 60 60" fill="none" xmlns="http://www.w3.org/2000/svg">
<rect width="60" height="60" rx="30" fill="#06E7ED"/>
<path d="M31.0215 33L33.2549 35.2334L31.0215 37.4668" stroke="#112D44" stroke-width="2" stroke-miterlimit="10" stroke-linecap="round" stroke-linejoin="round"/>
<path d="M27 35.2334H33.1925" stroke="#112D44" stroke-width="2" stroke-miterlimit="10" stroke-linecap="round" stroke-linejoin="round"/>
<path d="M30.8252 18.1477L30.7877 18.2352L27.1627 26.6477H23.6002C22.7502 26.6477 21.9377 26.8227 21.2002 27.1352L23.3877 21.9102L23.4377 21.7852L23.5252 21.5852C23.5502 21.5102 23.5752 21.4352 23.6127 21.3727C25.2502 17.5852 27.1002 16.7227 30.8252 18.1477Z" stroke="#112D44" stroke-width="2" stroke-linecap="round" stroke-linejoin="round"/>
<path d="M37.5621 26.8975C36.9996 26.7225 36.3996 26.6475 35.7996 26.6475H27.1621L30.7871 18.235L30.8246 18.1475C31.0121 18.21 31.1871 18.2975 31.3746 18.3725L34.1371 19.535C35.6746 20.1725 36.7496 20.835 37.3996 21.635C37.5246 21.785 37.6246 21.9225 37.7121 22.085C37.8246 22.26 37.9121 22.435 37.9621 22.6225C38.0121 22.735 38.0496 22.8475 38.0746 22.9475C38.4121 23.9975 38.2121 25.285 37.5621 26.8975Z" stroke="#112D44" stroke-width="2" stroke-linecap="round" stroke-linejoin="round"/>
<path d="M41.9021 33.1V35.5375C41.9021 35.7875 41.8896 36.0375 41.8771 36.2875C41.6396 40.65 39.2021 42.85 34.5771 42.85H24.8271C24.5271 42.85 24.2271 42.825 23.9396 42.7875C19.9646 42.525 17.8396 40.4 17.5771 36.425C17.5396 36.1375 17.5146 35.8375 17.5146 35.5375V33.1C17.5146 30.5875 19.0396 28.425 21.2146 27.4875C21.9646 27.175 22.7646 27 23.6146 27H35.8146C36.4271 27 37.0271 27.0875 37.5771 27.25C40.0646 28.0125 41.9021 30.3375 41.9021 33.1Z" stroke="#112D44" stroke-width="2" stroke-linecap="round" stroke-linejoin="round"/>
<path d="M23.3875 21.9102L21.2 27.1352C19.025 28.0727 17.5 30.2352 17.5 32.7477V29.0852C17.5 25.5352 20.025 22.5727 23.3875 21.9102Z" stroke="#112D44" stroke-width="2" stroke-linecap="round" stroke-linejoin="round"/>
<path d="M41.8982 29.0846V32.7471C41.8982 29.9971 40.0732 27.6596 37.5732 26.9096C38.2232 25.2846 38.4107 24.0096 38.0982 22.9471C38.0732 22.8346 38.0357 22.7221 37.9857 22.6221C40.3107 23.8221 41.8982 26.2846 41.8982 29.0846Z" stroke="#112D44" stroke-width="2" stroke-linecap="round" stroke-linejoin="round"/>
</svg>
