<svg width="31" height="31" viewBox="0 0 31 31" fill="none" xmlns="http://www.w3.org/2000/svg">
<path d="M29.8607 21.7343C31.3489 18.1371 31.3803 14.1022 29.9483 10.4823C28.5163 6.86233 25.7331 3.94089 22.1867 2.33527C18.6403 0.729664 14.6087 0.56566 10.9436 1.87792C7.27859 3.19018 4.26726 5.8759 2.54597 9.36757C0.824682 12.8592 0.528273 16.8833 1.71938 20.5895C2.91048 24.2957 5.49579 27.3937 8.92901 29.2288C12.3622 31.0639 16.3744 31.4924 20.1177 30.4237C23.8611 29.3551 27.0423 26.873 28.9893 23.5019L25.0925 21.2513C23.7296 23.6111 21.5028 25.3486 18.8824 26.0966C16.2621 26.8447 13.4536 26.5447 11.0503 25.2602C8.64705 23.9756 6.83734 21.807 6.00356 19.2127C5.16979 16.6183 5.37728 13.8015 6.58218 11.3573C7.78708 8.91313 9.89501 7.03312 12.4605 6.11454C15.0261 5.19596 17.8482 5.31076 20.3307 6.43469C22.8131 7.55862 24.7614 9.60363 25.7638 12.1376C26.7662 14.6716 26.7442 17.496 25.7025 20.014L29.8607 21.7343Z" fill="#F2F2F2"/>
<path d="M28.75 16C29.9926 16 31.0173 17.0129 30.8316 18.2416C30.5555 20.0683 29.9433 21.8349 29.0193 23.4496C27.7214 25.7179 25.8534 27.6077 23.6004 28.9319C21.3474 30.2561 18.7875 30.9686 16.1743 30.999C13.5611 31.0294 10.9854 30.3765 8.70217 29.105C6.41897 27.8336 4.50757 25.9877 3.15731 23.7502C1.80705 21.5127 1.06478 18.9612 1.00405 16.3486C0.943318 13.736 1.56622 11.1528 2.81105 8.85495C3.69721 7.21921 4.87664 5.76849 6.28417 4.57184C7.23091 3.76695 8.63157 4.10461 9.28594 5.161C9.94031 6.21739 9.59213 7.58968 8.69906 8.45373C7.93238 9.19548 7.28005 10.0528 6.76774 10.9985C5.89635 12.6069 5.46032 14.4152 5.50284 16.244C5.54535 18.0729 6.06493 19.8589 7.01012 21.4251C7.9553 22.9914 9.29328 24.2835 10.8915 25.1735C12.4898 26.0635 14.2928 26.5205 16.122 26.4993C17.9512 26.478 19.7432 25.9792 21.3203 25.0523C22.8974 24.1254 24.205 22.8025 25.1135 21.2147C25.6477 20.2812 26.033 19.2752 26.2598 18.2328C26.5241 17.0186 27.5074 16 28.75 16Z" fill="#06E7ED"/>
</svg>
