<svg width="60" height="60" viewBox="0 0 60 60" fill="none" xmlns="http://www.w3.org/2000/svg">
<rect width="60" height="60" rx="30" fill="#112D44"/>
<path d="M31.0215 33L33.2549 35.2334L31.0215 37.4668" stroke="#06E7ED" stroke-width="2" stroke-miterlimit="10" stroke-linecap="round" stroke-linejoin="round"/>
<path d="M27 35.2334H33.1925" stroke="#06E7ED" stroke-width="2" stroke-miterlimit="10" stroke-linecap="round" stroke-linejoin="round"/>
<path d="M30.8242 18.1477L30.7867 18.2352L27.1617 26.6477H23.5992C22.7492 26.6477 21.9367 26.8227 21.1992 27.1352L23.3867 21.9102L23.4367 21.7852L23.5242 21.5852C23.5492 21.5102 23.5742 21.4352 23.6117 21.3727C25.2492 17.5852 27.0992 16.7227 30.8242 18.1477Z" stroke="#06E7ED" stroke-width="2" stroke-linecap="round" stroke-linejoin="round"/>
<path d="M37.5621 26.8977C36.9996 26.7227 36.3996 26.6477 35.7996 26.6477H27.1621L30.7871 18.2352L30.8246 18.1477C31.0121 18.2102 31.1871 18.2977 31.3746 18.3727L34.1371 19.5352C35.6746 20.1727 36.7496 20.8352 37.3996 21.6352C37.5246 21.7852 37.6246 21.9227 37.7121 22.0852C37.8246 22.2602 37.9121 22.4352 37.9621 22.6227C38.0121 22.7352 38.0496 22.8477 38.0746 22.9477C38.4121 23.9977 38.2121 25.2852 37.5621 26.8977Z" stroke="#06E7ED" stroke-width="2" stroke-linecap="round" stroke-linejoin="round"/>
<path d="M41.9031 33.1V35.5375C41.9031 35.7875 41.8906 36.0375 41.8781 36.2875C41.6406 40.65 39.2031 42.85 34.5781 42.85H24.8281C24.5281 42.85 24.2281 42.825 23.9406 42.7875C19.9656 42.525 17.8406 40.4 17.5781 36.425C17.5406 36.1375 17.5156 35.8375 17.5156 35.5375V33.1C17.5156 30.5875 19.0406 28.425 21.2156 27.4875C21.9656 27.175 22.7656 27 23.6156 27H35.8156C36.4281 27 37.0281 27.0875 37.5781 27.25C40.0656 28.0125 41.9031 30.3375 41.9031 33.1Z" stroke="#06E7ED" stroke-width="2" stroke-linecap="round" stroke-linejoin="round"/>
<path d="M23.3875 21.9102L21.2 27.1352C19.025 28.0727 17.5 30.2352 17.5 32.7477V29.0852C17.5 25.5352 20.025 22.5727 23.3875 21.9102Z" stroke="#06E7ED" stroke-width="2" stroke-linecap="round" stroke-linejoin="round"/>
<path d="M41.8992 29.0846V32.7471C41.8992 29.9971 40.0742 27.6596 37.5742 26.9096C38.2242 25.2846 38.4117 24.0096 38.0992 22.9471C38.0742 22.8346 38.0367 22.7221 37.9867 22.6221C40.3117 23.8221 41.8992 26.2846 41.8992 29.0846Z" stroke="#06E7ED" stroke-width="2" stroke-linecap="round" stroke-linejoin="round"/>
</svg>
