<svg width="60" height="60" viewBox="0 0 60 60" fill="none" xmlns="http://www.w3.org/2000/svg">
<rect width="60" height="60" rx="30" fill="#112D44"/>
<path d="M25 27.5L22.5 30L25 32.5" stroke="#06E7ED" stroke-width="1.5" stroke-miterlimit="10" stroke-linecap="round" stroke-linejoin="round"/>
<path d="M35 27.5L37.5 30L35 32.5" stroke="#06E7ED" stroke-width="1.5" stroke-miterlimit="10" stroke-linecap="round" stroke-linejoin="round"/>
<path d="M30 42.5C36.9036 42.5 42.5 36.9036 42.5 30C42.5 23.0964 36.9036 17.5 30 17.5C23.0964 17.5 17.5 23.0964 17.5 30C17.5 36.9036 23.0964 42.5 30 42.5Z" stroke="#06E7ED" stroke-width="2" stroke-miterlimit="10" stroke-linecap="round" stroke-linejoin="round"/>
<path d="M27.916 31.6563C27.916 32.4583 28.541 33.1146 29.3014 33.1146H30.8639C31.5306 33.1146 32.0723 32.5417 32.0723 31.8438C32.0723 31.0833 31.7389 30.8125 31.2493 30.6354L28.7493 29.7604C28.2493 29.5833 27.916 29.3125 27.916 28.5521C27.916 27.8542 28.4577 27.2812 29.1243 27.2812H30.6868C31.4577 27.2917 32.0827 27.9375 32.0827 28.7396" stroke="#06E7ED" stroke-width="1.5" stroke-linecap="round" stroke-linejoin="round"/>
<path d="M30 33.1667V33.9376" stroke="#06E7ED" stroke-width="1.5" stroke-linecap="round" stroke-linejoin="round"/>
<path d="M30 26.4583V27.2708" stroke="#06E7ED" stroke-width="1.5" stroke-linecap="round" stroke-linejoin="round"/>
</svg>
