<svg width="60" height="60" viewBox="0 0 60 60" fill="none" xmlns="http://www.w3.org/2000/svg">
<rect width="60" height="60" rx="30" fill="#112D44"/>
<path d="M37.55 31.9375C37.025 32.45 36.725 33.1875 36.8 33.975C36.9125 35.325 38.15 36.3125 39.5 36.3125H41.875V37.8C41.875 40.3875 39.7625 42.5 37.175 42.5H24.5375C24.925 42.175 25.2625 41.775 25.525 41.325C25.9875 40.575 26.25 39.6875 26.25 38.75C26.25 35.9875 24.0125 33.75 21.25 33.75C20.075 33.75 18.9875 34.1625 18.125 34.85V29.3875C18.125 26.8 20.2375 24.6875 22.825 24.6875H37.175C39.7625 24.6875 41.875 26.8 41.875 29.3875V31.1875H39.35C38.65 31.1875 38.0125 31.4625 37.55 31.9375Z" stroke="#06E7ED" stroke-width="2" stroke-linecap="round" stroke-linejoin="round"/>
<path d="M18.125 30.5124V24.7999C18.125 23.3124 19.0375 21.9874 20.425 21.4624L30.35 17.7124C31.9 17.1249 33.5625 18.2749 33.5625 19.9374V24.6874" stroke="#06E7ED" stroke-width="2" stroke-linecap="round" stroke-linejoin="round"/>
<path d="M43.1985 32.4627V35.0378C43.1985 35.7253 42.6485 36.2877 41.9485 36.3127H39.4985C38.1485 36.3127 36.911 35.3252 36.7985 33.9752C36.7235 33.1877 37.0235 32.4502 37.5485 31.9377C38.011 31.4627 38.6485 31.1877 39.3485 31.1877H41.9485C42.6485 31.2127 43.1985 31.7752 43.1985 32.4627Z" stroke="#06E7ED" stroke-width="2" stroke-linecap="round" stroke-linejoin="round"/>
<path d="M23.75 30H32.5" stroke="#06E7ED" stroke-width="2" stroke-linecap="round" stroke-linejoin="round"/>
<path d="M26.25 38.75C26.25 39.6875 25.9875 40.575 25.525 41.325C25.2625 41.775 24.925 42.175 24.5375 42.5C23.6625 43.2875 22.5125 43.75 21.25 43.75C19.425 43.75 17.8375 42.775 16.975 41.325C16.5125 40.575 16.25 39.6875 16.25 38.75C16.25 37.175 16.975 35.7625 18.125 34.85C18.9875 34.1625 20.075 33.75 21.25 33.75C24.0125 33.75 26.25 35.9875 26.25 38.75Z" stroke="#06E7ED" stroke-width="2" stroke-miterlimit="10" stroke-linecap="round" stroke-linejoin="round"/>
<path d="M19.3008 38.7494L20.5383 39.9869L23.2008 37.5244" stroke="#06E7ED" stroke-width="2" stroke-linecap="round" stroke-linejoin="round"/>
</svg>
