<svg width="60" height="60" viewBox="0 0 60 60" fill="none" xmlns="http://www.w3.org/2000/svg">
<rect width="60" height="60" rx="30" fill="#112D44"/>
<path d="M40.0383 21.2883L34.1379 27.1875H37.5C37.7487 27.1875 37.9871 27.2863 38.1629 27.4621C38.3388 27.6379 38.4375 27.8764 38.4375 28.125C38.4375 28.3737 38.3388 28.6121 38.1629 28.7879C37.9871 28.9638 37.7487 29.0625 37.5 29.0625H31.875C31.6264 29.0625 31.3879 28.9638 31.2121 28.7879C31.0363 28.6121 30.9375 28.3737 30.9375 28.125V22.5C30.9375 22.2514 31.0363 22.0129 31.2121 21.8371C31.3879 21.6613 31.6264 21.5625 31.875 21.5625C32.1237 21.5625 32.3621 21.6613 32.5379 21.8371C32.7138 22.0129 32.8125 22.2514 32.8125 22.5V25.8621L38.7118 19.9618C38.8877 19.7858 39.1263 19.687 39.375 19.687C39.6238 19.687 39.8624 19.7858 40.0383 19.9618C40.2142 20.1377 40.3131 20.3763 40.3131 20.625C40.3131 20.8738 40.2142 21.1124 40.0383 21.2883ZM28.125 30.9375H22.5C22.2514 30.9375 22.0129 31.0363 21.8371 31.2121C21.6613 31.3879 21.5625 31.6264 21.5625 31.875C21.5625 32.1237 21.6613 32.3621 21.8371 32.5379C22.0129 32.7138 22.2514 32.8125 22.5 32.8125H25.8621L19.9618 38.7118C19.7858 38.8877 19.687 39.1263 19.687 39.375C19.687 39.6238 19.7858 39.8624 19.9618 40.0383C20.1377 40.2142 20.3763 40.3131 20.625 40.3131C20.8738 40.3131 21.1124 40.2142 21.2883 40.0383L27.1875 34.1379V37.5C27.1875 37.7487 27.2863 37.9871 27.4621 38.1629C27.6379 38.3388 27.8764 38.4375 28.125 38.4375C28.3737 38.4375 28.6121 38.3388 28.7879 38.1629C28.9638 37.9871 29.0625 37.7487 29.0625 37.5V31.875C29.0625 31.6264 28.9638 31.3879 28.7879 31.2121C28.6121 31.0363 28.3737 30.9375 28.125 30.9375Z" fill="#06E7ED"/>
</svg>
