<svg width="60" height="60" viewBox="0 0 60 60" fill="none" xmlns="http://www.w3.org/2000/svg">
<rect width="60" height="60" rx="30" fill="#112D44"/>
<path d="M37.2258 18.0867L40.9758 21.8367C41.0629 21.9238 41.1321 22.0272 41.1793 22.141C41.2265 22.2548 41.2507 22.3768 41.2507 22.5C41.2507 22.6232 41.2265 22.7452 41.1793 22.859C41.1321 22.9728 41.0629 23.0762 40.9758 23.1632L37.2258 26.9132C37.0499 27.0892 36.8113 27.188 36.5625 27.188C36.3137 27.188 36.0751 27.0892 35.8992 26.9132C35.7233 26.7373 35.6245 26.4987 35.6245 26.25C35.6245 26.0012 35.7233 25.7626 35.8992 25.5867L38.0496 23.4375H31.3254L24.7629 30L31.3254 36.5625H38.0496L35.8992 34.4132C35.7233 34.2373 35.6245 33.9987 35.6245 33.75C35.6245 33.5012 35.7233 33.2626 35.8992 33.0867C36.0751 32.9108 36.3137 32.8119 36.5625 32.8119C36.8113 32.8119 37.0499 32.9108 37.2258 33.0867L40.9758 36.8367C41.0629 36.9238 41.1321 37.0272 41.1793 37.141C41.2265 37.2548 41.2507 37.3768 41.2507 37.5C41.2507 37.6232 41.2265 37.7452 41.1793 37.859C41.1321 37.9728 41.0629 38.0762 40.9758 38.1632L37.2258 41.9132C37.1387 42.0004 37.0353 42.0694 36.9215 42.1166C36.8077 42.1637 36.6857 42.188 36.5625 42.188C36.4393 42.188 36.3173 42.1637 36.2035 42.1166C36.0897 42.0694 35.9863 42.0004 35.8992 41.9132C35.7233 41.7373 35.6245 41.4987 35.6245 41.25C35.6245 41.1268 35.6487 41.0048 35.6959 40.891C35.743 40.7772 35.8121 40.6738 35.8992 40.5867L38.0496 38.4375H30.9375C30.8143 38.4376 30.6924 38.4134 30.5786 38.3663C30.4648 38.3193 30.3613 38.2503 30.2742 38.1632L23.0496 30.9375H17.8125C17.5639 30.9375 17.3254 30.8387 17.1496 30.6629C16.9738 30.4871 16.875 30.2486 16.875 30C16.875 29.7513 16.9738 29.5129 17.1496 29.3371C17.3254 29.1612 17.5639 29.0625 17.8125 29.0625H23.0496L30.2742 21.8367C30.3613 21.7497 30.4648 21.6806 30.5786 21.6336C30.6924 21.5865 30.8143 21.5624 30.9375 21.5625H38.0496L35.8992 19.4132C35.7233 19.2373 35.6245 18.9987 35.6245 18.75C35.6245 18.5012 35.7233 18.2626 35.8992 18.0867C36.0751 17.9108 36.3137 17.8119 36.5625 17.8119C36.8113 17.8119 37.0499 17.9108 37.2258 18.0867Z" fill="#06E7ED"/>
</svg>
