<svg width="60" height="60" viewBox="0 0 60 60" fill="none" xmlns="http://www.w3.org/2000/svg">
<rect width="60" height="60" rx="30" fill="#112D44"/>
<path d="M19.6875 22.5H27.1875C27.3107 22.4999 27.4326 22.5241 27.5464 22.5711C27.6602 22.6182 27.7637 22.6872 27.8508 22.7742L34.1379 29.0625H39.9246L37.7742 26.9133C37.5983 26.7374 37.4995 26.4988 37.4995 26.25C37.4995 26.0012 37.5983 25.7626 37.7742 25.5867C37.9501 25.4108 38.1887 25.312 38.4375 25.312C38.6863 25.312 38.9249 25.4108 39.1008 25.5867L42.8508 29.3367C42.9379 29.4238 43.0071 29.5272 43.0543 29.641C43.1015 29.7548 43.1257 29.8768 43.1257 30C43.1257 30.1232 43.1015 30.2452 43.0543 30.359C43.0071 30.4728 42.9379 30.5762 42.8508 30.6633L39.1008 34.4133C38.9249 34.5892 38.6863 34.688 38.4375 34.688C38.1887 34.688 37.9501 34.5892 37.7742 34.4133C37.5983 34.2374 37.4995 33.9988 37.4995 33.75C37.4995 33.5012 37.5983 33.2626 37.7742 33.0867L39.9246 30.9375H34.1379L27.8508 37.2258C27.7637 37.3128 27.6602 37.3818 27.5464 37.4289C27.4326 37.4759 27.3107 37.5001 27.1875 37.5H19.6875C19.4389 37.5 19.2004 37.4012 19.0246 37.2254C18.8488 37.0496 18.75 36.8111 18.75 36.5625C18.75 36.3139 18.8488 36.0754 19.0246 35.8996C19.2004 35.7238 19.4389 35.625 19.6875 35.625H26.7996L32.4246 30L26.7996 24.375H19.6875C19.4389 24.375 19.2004 24.2762 19.0246 24.1004C18.8488 23.9246 18.75 23.6861 18.75 23.4375C18.75 23.1889 18.8488 22.9504 19.0246 22.7746C19.2004 22.5988 19.4389 22.5 19.6875 22.5Z" fill="#06E7ED"/>
</svg>
