<svg width="83" height="83" viewBox="0 0 83 83" fill="none" xmlns="http://www.w3.org/2000/svg">
<g id="shape-01" opacity="0.15">
<path d="M94.0683 14.2067H68.4133V-11.4483H81.2408L94.0683 1.37917V14.2067Z" fill="#06E7ED"/>
<path d="M94.0683 48.4133L76.965 31.31L94.0683 14.2067L102.62 22.7583V39.8617L94.0683 48.4133Z" fill="#06E7ED"/>
<path d="M94.0683 48.4133H68.4133V74.0683H81.2408L94.0683 61.2408V48.4133Z" fill="#06E7ED"/>
<path d="M34.2067 74.0683L51.31 56.965L68.4133 74.0683L59.8617 82.62H42.7583L34.2067 74.0683Z" fill="#06E7ED"/>
<path d="M8.55167 48.4133H34.2067V74.0683H21.3792L8.55167 61.2408V48.4133Z" fill="#06E7ED"/>
<path d="M8.55167 48.4133L25.655 31.31L8.55167 14.2067L0 22.7583V39.8617L8.55167 48.4133Z" fill="#06E7ED"/>
<path d="M8.55167 14.2067H34.2067V-11.4483H21.3792L8.55167 1.37917V14.2067Z" fill="#06E7ED"/>
<path d="M34.2067 -11.4483L51.31 5.655L68.4133 -11.4483L59.8617 -20H42.7583L34.2067 -11.4483Z" fill="#06E7ED"/>
</g>
</svg>
