<svg width="60" height="60" viewBox="0 0 60 60" fill="none" xmlns="http://www.w3.org/2000/svg">
<rect width="60" height="60" rx="30" fill="#06E7ED"/>
<path d="M40.0378 21.2878L34.1374 27.187H37.4995C37.7482 27.187 37.9866 27.2858 38.1625 27.4616C38.3383 27.6374 38.437 27.8759 38.437 28.1245C38.437 28.3732 38.3383 28.6116 38.1625 28.7875C37.9866 28.9633 37.7482 29.062 37.4995 29.062H31.8745C31.6259 29.062 31.3874 28.9633 31.2116 28.7875C31.0358 28.6116 30.937 28.3732 30.937 28.1245V22.4995C30.937 22.2509 31.0358 22.0124 31.2116 21.8366C31.3874 21.6608 31.6259 21.562 31.8745 21.562C32.1232 21.562 32.3616 21.6608 32.5375 21.8366C32.7133 22.0124 32.812 22.2509 32.812 22.4995V25.8617L38.7113 19.9613C38.8872 19.7854 39.1258 19.6865 39.3745 19.6865C39.6233 19.6865 39.8619 19.7854 40.0378 19.9613C40.2137 20.1372 40.3126 20.3758 40.3126 20.6245C40.3126 20.8733 40.2137 21.1119 40.0378 21.2878ZM28.1245 30.937H22.4995C22.2509 30.937 22.0124 31.0358 21.8366 31.2116C21.6608 31.3874 21.562 31.6259 21.562 31.8745C21.562 32.1232 21.6608 32.3616 21.8366 32.5375C22.0124 32.7133 22.2509 32.812 22.4995 32.812H25.8617L19.9613 38.7113C19.7854 38.8872 19.6865 39.1258 19.6865 39.3745C19.6865 39.6233 19.7854 39.8619 19.9613 40.0378C20.1372 40.2137 20.3758 40.3126 20.6245 40.3126C20.8733 40.3126 21.1119 40.2137 21.2878 40.0378L27.187 34.1374V37.4995C27.187 37.7482 27.2858 37.9866 27.4616 38.1625C27.6374 38.3383 27.8759 38.437 28.1245 38.437C28.3732 38.437 28.6116 38.3383 28.7875 38.1625C28.9633 37.9866 29.062 37.7482 29.062 37.4995V31.8745C29.062 31.6259 28.9633 31.3874 28.7875 31.2116C28.6116 31.0358 28.3732 30.937 28.1245 30.937Z" fill="#112D44"/>
</svg>
