<svg width="70" height="83" viewBox="0 0 70 83" fill="none" xmlns="http://www.w3.org/2000/svg">
<g id="shape-03" opacity="0.15">
<path d="M59.8617 22.7583L74.8271 31.31L89.7925 22.7583V5.655L74.8271 -2.89667L59.8617 5.655V22.7583Z" fill="#06E7ED"/>
<path d="M59.8617 56.965L74.8271 65.5167L89.7925 56.965V39.8617L74.8271 31.31L59.8617 39.8617V56.965Z" fill="#06E7ED"/>
<path d="M29.9308 74.0683L44.8963 82.62L59.8617 74.0683V56.965L44.8963 48.4133L29.9308 56.965V74.0683Z" fill="#06E7ED"/>
<path d="M0 56.965L14.9654 65.5167L29.9308 56.965V39.8617L14.9654 31.31L0 39.8617V56.965Z" fill="#06E7ED"/>
<path d="M0 22.7583L14.9654 31.31L29.9308 22.7583V5.655L14.9654 -2.89667L0 5.655V22.7583Z" fill="#06E7ED"/>
<path d="M29.9308 5.655L44.8963 14.2067L59.8617 5.655V-11.4483L44.8963 -20L29.9308 -11.4483V5.655Z" fill="#06E7ED"/>
</g>
</svg>
