<svg width="60" height="60" viewBox="0 0 60 60" fill="none" xmlns="http://www.w3.org/2000/svg">
<rect width="60" height="60" rx="30" fill="#06E7ED"/>
<path d="M25.5867 23.1633C25.4108 22.9874 25.312 22.7488 25.312 22.5C25.312 22.2512 25.4108 22.0126 25.5867 21.8367C25.7626 21.6608 26.0012 21.562 26.25 21.562C26.4988 21.562 26.7374 21.6608 26.9133 21.8367L29.0625 23.9871V17.8125C29.0625 17.5639 29.1613 17.3254 29.3371 17.1496C29.5129 16.9738 29.7514 16.875 30 16.875C30.2486 16.875 30.4871 16.9738 30.6629 17.1496C30.8387 17.3254 30.9375 17.5639 30.9375 17.8125V23.9871L33.0867 21.8367C33.2626 21.6608 33.5012 21.562 33.75 21.562C33.9988 21.562 34.2374 21.6608 34.4133 21.8367C34.5892 22.0126 34.688 22.2512 34.688 22.5C34.688 22.7488 34.5892 22.9874 34.4133 23.1633L30.6633 26.9133C30.5762 27.0004 30.4728 27.0696 30.359 27.1168C30.2452 27.164 30.1232 27.1882 30 27.1882C29.8768 27.1882 29.7548 27.164 29.641 27.1168C29.5272 27.0696 29.4238 27.0004 29.3367 26.9133L25.5867 23.1633ZM30.6633 33.0867C30.5762 32.9996 30.4728 32.9304 30.359 32.8832C30.2452 32.836 30.1232 32.8118 30 32.8118C29.8768 32.8118 29.7548 32.836 29.641 32.8832C29.5272 32.9304 29.4238 32.9996 29.3367 33.0867L25.5867 36.8367C25.4996 36.9238 25.4305 37.0272 25.3834 37.141C25.3362 37.2548 25.312 37.3768 25.312 37.5C25.312 37.6232 25.3362 37.7452 25.3834 37.859C25.4305 37.9728 25.4996 38.0762 25.5867 38.1633C25.7626 38.3392 26.0012 38.438 26.25 38.438C26.3732 38.438 26.4952 38.4138 26.609 38.3666C26.7228 38.3195 26.8262 38.2504 26.9133 38.1633L29.0625 36.0129V42.1875C29.0625 42.4361 29.1613 42.6746 29.3371 42.8504C29.5129 43.0262 29.7514 43.125 30 43.125C30.2486 43.125 30.4871 43.0262 30.6629 42.8504C30.8387 42.6746 30.9375 42.4361 30.9375 42.1875V36.0129L33.0867 38.1633C33.1738 38.2504 33.2772 38.3195 33.391 38.3666C33.5048 38.4138 33.6268 38.438 33.75 38.438C33.8732 38.438 33.9952 38.4138 34.109 38.3666C34.2228 38.3195 34.3262 38.2504 34.4133 38.1633C34.5004 38.0762 34.5695 37.9728 34.6166 37.859C34.6638 37.7452 34.688 37.6232 34.688 37.5C34.688 37.3768 34.6638 37.2548 34.6166 37.141C34.5695 37.0272 34.5004 36.9238 34.4133 36.8367L30.6633 33.0867ZM42.1875 29.0625H36.0129L38.1633 26.9133C38.2504 26.8262 38.3195 26.7228 38.3666 26.609C38.4138 26.4952 38.438 26.3732 38.438 26.25C38.438 26.1268 38.4138 26.0048 38.3666 25.891C38.3195 25.7772 38.2504 25.6738 38.1633 25.5867C38.0762 25.4996 37.9728 25.4305 37.859 25.3834C37.7452 25.3362 37.6232 25.312 37.5 25.312C37.3768 25.312 37.2548 25.3362 37.141 25.3834C37.0272 25.4305 36.9238 25.4996 36.8367 25.5867L33.0867 29.3367C32.9996 29.4238 32.9304 29.5272 32.8832 29.641C32.836 29.7548 32.8118 29.8768 32.8118 30C32.8118 30.1232 32.836 30.2452 32.8832 30.359C32.9304 30.4728 32.9996 30.5762 33.0867 30.6633L36.8367 34.4133C36.9238 34.5004 37.0272 34.5695 37.141 34.6166C37.2548 34.6638 37.3768 34.688 37.5 34.688C37.6232 34.688 37.7452 34.6638 37.859 34.6166C37.9728 34.5695 38.0762 34.5004 38.1633 34.4133C38.2504 34.3262 38.3195 34.2228 38.3666 34.109C38.4138 33.9952 38.438 33.8732 38.438 33.75C38.438 33.6268 38.4138 33.5048 38.3666 33.391C38.3195 33.2772 38.2504 33.1738 38.1633 33.0867L36.0129 30.9375H42.1875C42.4361 30.9375 42.6746 30.8387 42.8504 30.6629C43.0262 30.4871 43.125 30.2486 43.125 30C43.125 29.7514 43.0262 29.5129 42.8504 29.3371C42.6746 29.1613 42.4361 29.0625 42.1875 29.0625ZM26.9133 29.3367L23.1633 25.5867C22.9874 25.4108 22.7488 25.312 22.5 25.312C22.2512 25.312 22.0126 25.4108 21.8367 25.5867C21.6608 25.7626 21.562 26.0012 21.562 26.25C21.562 26.4988 21.6608 26.7374 21.8367 26.9133L23.9871 29.0625H17.8125C17.5639 29.0625 17.3254 29.1613 17.1496 29.3371C16.9738 29.5129 16.875 29.7514 16.875 30C16.875 30.2486 16.9738 30.4871 17.1496 30.6629C17.3254 30.8387 17.5639 30.9375 17.8125 30.9375H23.9871L21.8367 33.0867C21.7496 33.1738 21.6805 33.2772 21.6334 33.391C21.5862 33.5048 21.562 33.6268 21.562 33.75C21.562 33.8732 21.5862 33.9952 21.6334 34.109C21.6805 34.2228 21.7496 34.3262 21.8367 34.4133C21.9238 34.5004 22.0272 34.5695 22.141 34.6166C22.2548 34.6638 22.3768 34.688 22.5 34.688C22.6232 34.688 22.7452 34.6638 22.859 34.6166C22.9728 34.5695 23.0762 34.5004 23.1633 34.4133L26.9133 30.6633C27.0004 30.5762 27.0696 30.4728 27.1168 30.359C27.164 30.2452 27.1882 30.1232 27.1882 30C27.1882 29.8768 27.164 29.7548 27.1168 29.641C27.0696 29.5272 27.0004 29.4238 26.9133 29.3367Z" fill="#112D44"/>
</svg>
