<svg width="120" height="24" viewBox="0 0 120 24" fill="none" xmlns="http://www.w3.org/2000/svg">
<g clip-path="url(#clip0_2640_8063)">
<path d="M10.9627 5.97898V18.5814H10.9049L1.67679 9.4868L1.71726 18.1779H0V5.61475H0.0809483L9.30905 14.8102L9.26858 5.98458H10.9627V5.97898Z" fill="white"/>
<path d="M22.7523 5.979V7.548H16.2591V11.2632H22.0526V12.8321H16.2591V16.5865H22.9893V18.1723H14.5823V5.979H22.7523Z" fill="white"/>
<path d="M27.8635 15.3089C28.1237 15.7348 28.4822 16.0822 28.9447 16.3344C29.4015 16.5865 29.9046 16.721 30.4654 16.721C31.0436 16.721 31.564 16.6033 32.0439 16.3512C32.5238 16.099 32.8823 15.7684 33.1425 15.3257C33.4027 14.883 33.5357 14.4011 33.5357 13.8576V5.979H35.1951V13.8968C35.1951 14.7654 34.9927 15.5218 34.5764 16.1999C34.1543 16.8779 33.5993 17.3822 32.8765 17.7465C32.1595 18.1163 31.3558 18.29 30.477 18.29C29.5981 18.29 28.8175 18.1163 28.1006 17.7465C27.3836 17.3766 26.8227 16.8555 26.4007 16.1999C25.9786 15.5218 25.782 14.7654 25.782 13.8968V5.979H27.4588V13.8576C27.4646 14.4011 27.6033 14.883 27.8635 15.3089Z" fill="white"/>
<path d="M46.3775 17.9818C45.7588 18.1947 45.0765 18.3124 44.3595 18.3124C43.0817 18.3124 41.9427 18.0434 40.9655 17.4775C39.9883 16.9339 39.2251 16.183 38.7105 15.2529C38.1901 14.3227 37.9126 13.2972 37.9126 12.1765C37.9126 10.9773 38.1728 9.89026 38.7105 8.92645C39.2482 7.96264 39.9883 7.20616 40.925 6.66261C41.8617 6.11907 42.943 5.8501 44.1398 5.8501C44.8395 5.8501 45.516 5.94536 46.1173 6.11907C46.736 6.29278 47.2737 6.52813 47.7767 6.83632L47.1002 8.36609C46.1404 7.72729 45.1632 7.41909 44.2034 7.41909C43.3824 7.41909 42.6481 7.63203 41.9484 8.04109C41.2488 8.45014 40.7111 9.02731 40.289 9.74456C39.8669 10.4618 39.6703 11.2351 39.6703 12.1037C39.6703 12.9722 39.8496 13.7679 40.2312 14.4852C40.6128 15.2024 41.1505 15.746 41.8502 16.1494C42.5498 16.5585 43.3708 16.749 44.2844 16.749C45.4003 16.749 46.3833 16.4408 47.2216 15.8188L47.9386 17.2925C47.5165 17.5167 46.9961 17.7688 46.3775 17.9818Z" fill="white"/>
<path d="M57.6815 18.1779L54.7269 13.6671C54.6286 13.6839 54.4898 13.6839 54.3048 13.6839H52.4488V18.1723H50.772V5.979H54.1255C54.9871 5.979 55.7445 6.1359 56.421 6.42168C57.0975 6.71307 57.6179 7.13894 57.9995 7.7161C58.3811 8.27646 58.5777 8.9769 58.5777 9.767C58.5777 10.5235 58.3985 11.2183 58.0573 11.8403C57.7162 12.4791 57.1958 12.9442 56.4788 13.2748L59.6532 18.1723H57.6815V18.1779ZM56.2244 11.42C56.6234 10.955 56.8257 10.4338 56.8257 9.83424C56.8257 9.46441 56.7448 9.11699 56.5656 8.76957C56.4037 8.42215 56.1261 8.13077 55.7676 7.90102C55.4092 7.67128 54.9466 7.5536 54.3915 7.5536H52.4314V12.1037H54.247C55.1663 12.0981 55.8255 11.8851 56.2244 11.42Z" fill="white"/>
<path d="M62.0354 8.98271C62.6136 8.03571 63.3941 7.26242 64.3713 6.69647C65.3485 6.13611 66.4297 5.84473 67.5861 5.84473C68.7252 5.84473 69.8006 6.13611 70.7836 6.69647C71.7607 7.25682 72.5586 8.03011 73.1426 8.98271C73.7208 9.92971 74.0215 10.9776 74.0215 12.0815C74.0215 13.2022 73.7208 14.2501 73.1426 15.1971C72.5644 16.144 71.7838 16.9005 70.7836 17.4609C69.7833 18.0212 68.7252 18.2958 67.5688 18.2958C66.4124 18.2958 65.3311 18.0268 64.354 17.4609C63.3768 16.9173 62.5962 16.1665 62.018 15.2139C61.4398 14.2669 61.1565 13.219 61.1565 12.0759C61.1796 10.9776 61.4572 9.95213 62.0354 8.98271ZM63.5329 14.4182C63.955 15.1354 64.5101 15.6958 65.2502 16.1048C65.9671 16.5139 66.7708 16.7268 67.6266 16.7268C68.4823 16.7268 69.2629 16.5139 69.9856 16.1048C70.7026 15.6958 71.2635 15.1354 71.6624 14.4182C72.0845 13.7009 72.2811 12.9276 72.2811 12.0759C72.2811 11.2241 72.0787 10.4508 71.6624 9.73359C71.2403 9.01634 70.6853 8.45598 69.9625 8.03011C69.2455 7.62105 68.465 7.40812 67.6034 7.40812C66.7419 7.40812 65.9671 7.62105 65.2444 8.04692C64.5274 8.47279 63.9666 9.03315 63.5445 9.7504C63.1224 10.4677 62.9258 11.2578 62.9258 12.0927C62.9142 12.9332 63.1166 13.7065 63.5329 14.4182Z" fill="white"/>
<path d="M78.5545 5.97921L78.514 14.8048L87.7421 5.60938H87.8231V18.1725H86.1231L86.1636 9.48143L76.9182 18.5816H76.8604V5.97921H78.5545Z" fill="white"/>
<path d="M117.265 24H97.9532C96.4556 24 95.2183 22.8176 95.2183 21.3495V2.65048C95.2183 1.19916 96.4383 0 97.9532 0H117.265C118.763 0 120 1.18235 120 2.65048V21.3663C119.977 22.8233 118.763 24 117.265 24ZM111.113 18.0378L106.557 5.93976H104.637L100.104 18.0378H102.642L103.4 15.8917H107.835L108.575 18.0378H111.113ZM107.199 13.9192H104.105L105.684 9.52603L107.199 13.9192ZM115.085 18.0378V5.96218H112.651V18.0602H115.085V18.0378Z" fill="#06E7ED"/>
</g>
<defs>
<clipPath id="clip0_2640_8063">
<rect width="120" height="24" fill="white"/>
</clipPath>
</defs>
</svg>
