<svg width="60" height="60" viewBox="0 0 60 60" fill="none" xmlns="http://www.w3.org/2000/svg">
    <rect width="60" height="60" rx="30" fill="#06E7ED"/>
    <path d="M40.0388 21.2883L34.1384 27.1875H37.5005C37.7492 27.1875 37.9876 27.2863 38.1634 27.4621C38.3393 27.6379 38.438 27.8764 38.438 28.125C38.438 28.3737 38.3393 28.6121 38.1634 28.7879C37.9876 28.9638 37.7492 29.0625 37.5005 29.0625H31.8755C31.6269 29.0625 31.3884 28.9638 31.2126 28.7879C31.0368 28.6121 30.938 28.3737 30.938 28.125V22.5C30.938 22.2514 31.0368 22.0129 31.2126 21.8371C31.3884 21.6613 31.6269 21.5625 31.8755 21.5625C32.1242 21.5625 32.3626 21.6613 32.5384 21.8371C32.7142 22.0129 32.813 22.2514 32.813 22.5V25.8621L38.7122 19.9618C38.8882 19.7858 39.1267 19.687 39.3755 19.687C39.6243 19.687 39.8629 19.7858 40.0388 19.9618C40.2147 20.1377 40.3135 20.3763 40.3135 20.625C40.3135 20.8738 40.2147 21.1124 40.0388 21.2883ZM28.1255 30.9375H22.5005C22.2519 30.9375 22.0134 31.0363 21.8376 31.2121C21.6618 31.3879 21.563 31.6264 21.563 31.875C21.563 32.1237 21.6618 32.3621 21.8376 32.5379C22.0134 32.7138 22.2519 32.8125 22.5005 32.8125H25.8626L19.9622 38.7118C19.7863 38.8877 19.6875 39.1263 19.6875 39.375C19.6875 39.6238 19.7863 39.8624 19.9622 40.0383C20.1382 40.2142 20.3767 40.3131 20.6255 40.3131C20.8743 40.3131 21.1129 40.2142 21.2888 40.0383L27.188 34.1379V37.5C27.188 37.7487 27.2868 37.9871 27.4626 38.1629C27.6384 38.3388 27.8769 38.4375 28.1255 38.4375C28.3742 38.4375 28.6126 38.3388 28.7884 38.1629C28.9642 37.9871 29.063 37.7487 29.063 37.5V31.875C29.063 31.6264 28.9642 31.3879 28.7884 31.2121C28.6126 31.0363 28.3742 30.9375 28.1255 30.9375Z" fill="#112D44"/>
</svg>
