<svg width="84" height="84" viewBox="0 0 84 84" fill="none" xmlns="http://www.w3.org/2000/svg">
<path opacity="0.15" d="M95.0683 14.2067H69.4133V-11.4483M95.0683 14.2067V1.37917L82.2408 -11.4483H69.4133M95.0683 14.2067L77.965 31.31L95.0683 48.4133M95.0683 14.2067L103.62 22.7583V39.8617L95.0683 48.4133M69.4133 -11.4483L52.31 5.655L35.2067 -11.4483M69.4133 -11.4483L60.8617 -20H43.7583L35.2067 -11.4483M95.0683 48.4133H69.4133V74.0683M95.0683 48.4133V61.2408L82.2408 74.0683H69.4133M69.4133 74.0683L52.31 56.965L35.2067 74.0683M69.4133 74.0683L60.8617 82.62H43.7583L35.2067 74.0683M35.2067 74.0683V48.4133H9.55167M35.2067 74.0683H22.3792L9.55167 61.2408V48.4133M9.55167 48.4133L26.655 31.31L9.55167 14.2067M9.55167 48.4133L1 39.8617V22.7583L9.55167 14.2067M9.55167 14.2067H35.2067V-11.4483M9.55167 14.2067V1.37917L22.3792 -11.4483H35.2067" stroke="black"/>
</svg>
