<svg width="72" height="84" viewBox="0 0 72 84" fill="none" xmlns="http://www.w3.org/2000/svg">
<path opacity="0.15" d="M76.8271 31.31L61.8617 22.7583V5.655M76.8271 31.31L91.7925 22.7583V5.655L76.8271 14.2067L61.8617 5.655M76.8271 31.31L61.8617 39.8617V56.965M76.8271 31.31V48.4133L91.7925 56.965L76.8271 65.5167L61.8617 56.965M61.8617 5.655L46.8963 14.2067L31.9308 5.655M61.8617 5.655V-11.4483L46.8963 -20V-2.89667L31.9308 5.655M61.8617 56.965L46.8963 65.5167V82.62L31.9308 74.0683V56.965M61.8617 56.965L46.8963 48.4133L31.9308 56.965M31.9308 56.965V39.8617L16.9654 31.31M31.9308 56.965L16.9654 48.4133L2 56.965L2 39.8617L16.9654 31.31M16.9654 31.31L31.9308 22.7583V5.655M16.9654 31.31L16.9654 14.2067L2 5.655L16.9654 -2.89667L31.9308 5.655" stroke="black"/>
</svg>
