<svg width="78" height="83" viewBox="0 0 78 83" fill="none" xmlns="http://www.w3.org/2000/svg">
<g opacity="0.15">
<path d="M48.8667 -2.89667L58.64 14.2067H78.1867L87.96 -2.89667H68.4133L58.64 -20L48.8667 -2.89667Z" fill="#06E7ED"/>
<path d="M78.1867 48.4133L68.4133 31.31L78.1867 14.2067H97.7333L87.96 31.31L97.7333 48.4133H78.1867Z" fill="#06E7ED"/>
<path d="M48.8667 65.5167L58.64 48.4133H78.1867L87.96 65.5167H68.4133L58.64 82.62L48.8667 65.5167Z" fill="#06E7ED"/>
<path d="M48.8667 65.5167L39.0933 48.4133H19.5467L9.77333 65.5167H29.32L39.0933 82.62L48.8667 65.5167Z" fill="#06E7ED"/>
<path d="M19.5467 48.4133L29.32 31.31L19.5467 14.2067H0L9.77333 31.31L0 48.4133H19.5467Z" fill="#06E7ED"/>
<path d="M48.8667 -2.89667L39.0933 14.2067H19.5467L9.77333 -2.89667H29.32L39.0933 -20L48.8667 -2.89667Z" fill="#06E7ED"/>
</g>
</svg>
