<svg width="84" height="84" viewBox="0 0 84 84" fill="none" xmlns="http://www.w3.org/2000/svg">
<path opacity="0.15" d="M52.31 0.524L72.834 -20H103.62V10.786L83.096 31.31M52.31 0.524H83.096V31.31M52.31 0.524L31.786 -20H1V10.786L21.524 31.31M52.31 0.524V31.31M83.096 31.31H52.31M83.096 31.31L103.62 51.834V82.62H72.834L52.31 62.096M52.31 62.096V31.31M52.31 62.096L31.786 82.62H1V51.834L21.524 31.31M52.31 62.096H21.524V31.31M52.31 31.31H21.524M83.096 62.096H72.834V51.834H83.096V62.096ZM31.786 10.786H21.524V0.524H31.786V10.786Z" stroke="black"/>
</svg>
