<svg width="79" height="84" viewBox="0 0 79 84" fill="none" xmlns="http://www.w3.org/2000/svg">
<path opacity="0.15" d="M49.8667 -2.89667L59.64 14.2067H79.1867M49.8667 -2.89667L59.64 -20L69.4133 -2.89667H88.96L79.1867 14.2067M49.8667 -2.89667L40.0933 14.2067H20.5467M49.8667 -2.89667L40.0933 -20L30.32 -2.89667H10.7733L20.5467 14.2067M79.1867 14.2067L69.4133 31.31L79.1867 48.4133M79.1867 14.2067H98.7333L88.96 31.31L98.7333 48.4133H79.1867M79.1867 48.4133H59.64L49.8667 65.5167M79.1867 48.4133L88.96 65.5167H69.4133L59.64 82.62L49.8667 65.5167M49.8667 65.5167L40.0933 48.4133H20.5467M49.8667 65.5167L40.0933 82.62L30.32 65.5167H10.7733L20.5467 48.4133M20.5467 48.4133L30.32 31.31L20.5467 14.2067M20.5467 48.4133H1L10.7733 31.31L1 14.2067H20.5467" stroke="black"/>
</svg>
