<svg width="71" height="84" viewBox="0 0 71 84" fill="none" xmlns="http://www.w3.org/2000/svg">
<path opacity="0.15" d="M75.8271 31.31L60.8617 22.7583V5.655M75.8271 31.31L90.7925 22.7583V5.655L75.8271 -2.89667L60.8617 5.655M75.8271 31.31L90.7925 39.8617V56.965L75.8271 65.5167L60.8617 56.965M75.8271 31.31L60.8617 39.8617V56.965M60.8617 5.655L45.8963 14.2067L30.9308 5.655M60.8617 5.655V-11.4483L45.8963 -20L30.9308 -11.4483V5.655M60.8617 56.965V74.0683L45.8963 82.62L30.9308 74.0683V56.965M60.8617 56.965L45.8963 48.4133L30.9308 56.965M30.9308 56.965L15.9654 65.5167L1 56.965V39.8617L15.9654 31.31M30.9308 56.965V39.8617L15.9654 31.31M15.9654 31.31L1 22.7583V5.655L15.9654 -2.89667L30.9308 5.655M15.9654 31.31L30.9308 22.7583V5.655" stroke="black"/>
</svg>
