<svg width="70" height="83" viewBox="0 0 70 83" fill="none" xmlns="http://www.w3.org/2000/svg">
<g id="shape-06" opacity="0.15">
<path d="M59.8617 22.7583L74.8271 31.31L89.7925 22.7583V5.655L74.8271 14.2067L59.8617 5.655V22.7583Z" fill="#06E7ED"/>
<path d="M74.8271 65.5167L59.8617 56.965V39.8617L74.8271 31.31V48.4133L89.7925 56.965L74.8271 65.5167Z" fill="#06E7ED"/>
<path d="M44.8963 48.4133L29.9308 56.965V74.0683L44.8963 82.62V65.5167L59.8617 56.965L44.8963 48.4133Z" fill="#06E7ED"/>
<path d="M7.4761e-07 39.8617L14.9654 31.31L29.9308 39.8617V56.965L14.9654 48.4133L0 56.965L7.4761e-07 39.8617Z" fill="#06E7ED"/>
<path d="M14.9654 -2.89667L29.9308 5.655V22.7583L14.9654 31.31L14.9654 14.2067L0 5.655L14.9654 -2.89667Z" fill="#06E7ED"/>
<path d="M44.8963 14.2067L59.8617 5.655V-11.4483L44.8963 -20V-2.89667L29.9308 5.655L44.8963 14.2067Z" fill="#06E7ED"/>
</g>
</svg>
