<svg width="60" height="60" viewBox="0 0 60 60" fill="none" xmlns="http://www.w3.org/2000/svg">
<rect width="60" height="60" rx="30" fill="#06E7ED"/>
<path d="M25 27.5L22.5 30L25 32.5" stroke="#112D44" stroke-width="1.5" stroke-miterlimit="10" stroke-linecap="round" stroke-linejoin="round"/>
<path d="M35 27.5L37.5 30L35 32.5" stroke="#112D44" stroke-width="1.5" stroke-miterlimit="10" stroke-linecap="round" stroke-linejoin="round"/>
<path d="M30 42.5C36.9036 42.5 42.5 36.9036 42.5 30C42.5 23.0964 36.9036 17.5 30 17.5C23.0964 17.5 17.5 23.0964 17.5 30C17.5 36.9036 23.0964 42.5 30 42.5Z" stroke="#112D44" stroke-width="2" stroke-miterlimit="10" stroke-linecap="round" stroke-linejoin="round"/>
<path d="M27.917 31.6563C27.917 32.4583 28.542 33.1146 29.3024 33.1146H30.8649C31.5316 33.1146 32.0732 32.5417 32.0732 31.8438C32.0732 31.0833 31.7399 30.8125 31.2503 30.6354L28.7503 29.7604C28.2503 29.5833 27.917 29.3125 27.917 28.5521C27.917 27.8542 28.4587 27.2812 29.1253 27.2812H30.6878C31.4587 27.2917 32.0837 27.9375 32.0837 28.7396" stroke="#112D44" stroke-width="1.5" stroke-linecap="round" stroke-linejoin="round"/>
<path d="M30 33.167V33.9378" stroke="#112D44" stroke-width="1.5" stroke-linecap="round" stroke-linejoin="round"/>
<path d="M30 26.4585V27.271" stroke="#112D44" stroke-width="1.5" stroke-linecap="round" stroke-linejoin="round"/>
</svg>
