<svg width="60" height="60" viewBox="0 0 60 60" fill="none" xmlns="http://www.w3.org/2000/svg">
<rect width="60" height="60" rx="30" fill="#06E7ED"/>
<path d="M37.2258 18.0872L40.9758 21.8372C41.0629 21.9242 41.1321 22.0276 41.1793 22.1415C41.2265 22.2553 41.2507 22.3773 41.2507 22.5005C41.2507 22.6237 41.2265 22.7457 41.1793 22.8595C41.1321 22.9733 41.0629 23.0767 40.9758 23.1637L37.2258 26.9137C37.0499 27.0897 36.8113 27.1885 36.5625 27.1885C36.3137 27.1885 36.0751 27.0897 35.8992 26.9137C35.7233 26.7378 35.6245 26.4992 35.6245 26.2505C35.6245 26.0017 35.7233 25.7631 35.8992 25.5872L38.0496 23.438H31.3254L24.7629 30.0005L31.3254 36.563H38.0496L35.8992 34.4137C35.7233 34.2378 35.6245 33.9992 35.6245 33.7505C35.6245 33.5017 35.7233 33.2631 35.8992 33.0872C36.0751 32.9113 36.3137 32.8124 36.5625 32.8124C36.8113 32.8124 37.0499 32.9113 37.2258 33.0872L40.9758 36.8372C41.0629 36.9242 41.1321 37.0276 41.1793 37.1414C41.2265 37.2553 41.2507 37.3773 41.2507 37.5005C41.2507 37.6237 41.2265 37.7457 41.1793 37.8595C41.1321 37.9733 41.0629 38.0767 40.9758 38.1637L37.2258 41.9137C37.1387 42.0008 37.0353 42.0699 36.9215 42.1171C36.8077 42.1642 36.6857 42.1885 36.5625 42.1885C36.4393 42.1885 36.3173 42.1642 36.2035 42.1171C36.0897 42.0699 35.9863 42.0008 35.8992 41.9137C35.7233 41.7378 35.6245 41.4992 35.6245 41.2505C35.6245 41.1273 35.6487 41.0053 35.6959 40.8915C35.743 40.7777 35.8121 40.6743 35.8992 40.5872L38.0496 38.438H30.9375C30.8143 38.4381 30.6924 38.4139 30.5786 38.3668C30.4648 38.3198 30.3613 38.2508 30.2742 38.1637L23.0496 30.938H17.8125C17.5639 30.938 17.3254 30.8392 17.1496 30.6634C16.9738 30.4876 16.875 30.2491 16.875 30.0005C16.875 29.7518 16.9738 29.5134 17.1496 29.3375C17.3254 29.1617 17.5639 29.063 17.8125 29.063H23.0496L30.2742 21.8372C30.3613 21.7501 30.4648 21.6811 30.5786 21.6341C30.6924 21.587 30.8143 21.5629 30.9375 21.563H38.0496L35.8992 19.4137C35.7233 19.2378 35.6245 18.9992 35.6245 18.7505C35.6245 18.5017 35.7233 18.2631 35.8992 18.0872C36.0751 17.9113 36.3137 17.8124 36.5625 17.8124C36.8113 17.8124 37.0499 17.9113 37.2258 18.0872Z" fill="#112D44"/>
</svg>
