<svg width="84" height="84" viewBox="0 0 84 84" fill="none" xmlns="http://www.w3.org/2000/svg">
<g id="shape-14" opacity="0.15">
<path d="M26.655 31.31L52.31 5.655L77.965 31.31L52.31 56.965L26.655 31.31Z" fill="#06E7ED"/>
<path d="M103.62 0.524V31.31L52.31 -20H83.096L103.62 0.524Z" fill="#06E7ED"/>
<path d="M103.62 62.096V31.31L52.31 82.62H83.096L103.62 62.096Z" fill="#06E7ED"/>
<path d="M1 62.096V31.31L52.31 82.62H21.524L1 62.096Z" fill="#06E7ED"/>
<path d="M1 0.524V31.31L52.31 -20H21.524L1 0.524Z" fill="#06E7ED"/>
<path d="M103.62 31.31V0.524L83.096 -20H52.31M103.62 31.31L52.31 -20M103.62 31.31V62.096L83.096 82.62H52.31M103.62 31.31L52.31 82.62M52.31 -20L1 31.31M52.31 -20H21.524L1 0.524V31.31M52.31 82.62L1 31.31M52.31 82.62H21.524L1 62.096V31.31M26.655 31.31L52.31 5.655L77.965 31.31L52.31 56.965L26.655 31.31Z" stroke="black"/>
</g>
</svg>
