<svg width="60" height="60" viewBox="0 0 60 60" fill="none" xmlns="http://www.w3.org/2000/svg">
<rect x="1" y="1" width="58" height="58" rx="29" fill="#06E7ED"/>
<path d="M26.25 17.5H33.75C40 17.5 42.5 20 42.5 26.25V33.75C42.5 40 40 42.5 33.75 42.5H26.25C20 42.5 17.5 40 17.5 33.75V26.25C17.5 20 20 17.5 26.25 17.5Z" stroke="#112D44" stroke-width="2" stroke-linecap="round" stroke-linejoin="round"/>
<path d="M25.7129 34.0876L33.8879 25.9126" stroke="#112D44" stroke-width="2" stroke-linecap="round" stroke-linejoin="round"/>
<path d="M26.225 27.9627C27.0742 27.9627 27.7625 27.2743 27.7625 26.4252C27.7625 25.5761 27.0742 24.8877 26.225 24.8877C25.3759 24.8877 24.6875 25.5761 24.6875 26.4252C24.6875 27.2743 25.3759 27.9627 26.225 27.9627Z" stroke="#112D44" stroke-width="2" stroke-linecap="round" stroke-linejoin="round"/>
<path d="M34.3998 35.1126C35.2489 35.1126 35.9373 34.4242 35.9373 33.5751C35.9373 32.7259 35.2489 32.0376 34.3998 32.0376C33.5506 32.0376 32.8623 32.7259 32.8623 33.5751C32.8623 34.4242 33.5506 35.1126 34.3998 35.1126Z" stroke="#112D44" stroke-width="2" stroke-linecap="round" stroke-linejoin="round"/>
<rect x="1" y="1" width="58" height="58" rx="29" stroke="#112D44" stroke-width="2"/>
</svg>
