<svg width="135" height="18" viewBox="0 0 135 18" fill="none" xmlns="http://www.w3.org/2000/svg">
<path d="M10.1985 8.24C10.1025 8.288 10.1025 8.336 10.1985 8.384C11.8305 9.152 12.6465 10.472 12.6465 12.344C12.6465 13.864 12.1345 15.024 11.1105 15.824C10.1025 16.608 8.7825 17 7.1505 17H1.1025C1.0225 17 0.9505 16.976 0.8865 16.928C0.8385 16.864 0.8145 16.792 0.8145 16.712V0.487999C0.8145 0.408 0.8385 0.343999 0.8865 0.295999C0.9505 0.231999 1.0225 0.199999 1.1025 0.199999H6.9585C8.7025 0.199999 10.0465 0.575999 10.9905 1.328C11.9345 2.08 12.4065 3.216 12.4065 4.736C12.4065 6.416 11.6705 7.584 10.1985 8.24ZM3.7185 2.6C3.6385 2.6 3.5985 2.64 3.5985 2.72V7.16C3.5985 7.24 3.6385 7.28 3.7185 7.28H6.9585C7.8065 7.28 8.4705 7.08 8.9505 6.68C9.4465 6.264 9.6945 5.696 9.6945 4.976C9.6945 4.24 9.4465 3.664 8.9505 3.248C8.4705 2.816 7.8065 2.6 6.9585 2.6H3.7185ZM7.1505 14.576C7.9825 14.576 8.6385 14.352 9.1185 13.904C9.6145 13.456 9.8625 12.848 9.8625 12.08C9.8625 11.296 9.6145 10.688 9.1185 10.256C8.6225 9.808 7.9505 9.584 7.1025 9.584H3.7185C3.6385 9.584 3.5985 9.624 3.5985 9.704V14.456C3.5985 14.536 3.6385 14.576 3.7185 14.576H7.1505ZM16.0322 17C15.9522 17 15.8802 16.976 15.8162 16.928C15.7682 16.864 15.7442 16.792 15.7442 16.712V0.487999C15.7442 0.408 15.7682 0.343999 15.8162 0.295999C15.8802 0.231999 15.9522 0.199999 16.0322 0.199999H18.2402C18.3202 0.199999 18.3842 0.231999 18.4322 0.295999C18.4962 0.343999 18.5282 0.408 18.5282 0.487999V16.712C18.5282 16.792 18.4962 16.864 18.4322 16.928C18.3842 16.976 18.3202 17 18.2402 17H16.0322ZM33.0654 0.199999C33.1454 0.199999 33.2094 0.231999 33.2574 0.295999C33.3214 0.343999 33.3534 0.408 33.3534 0.487999V2.336C33.3534 2.416 33.3214 2.488 33.2574 2.552C33.2094 2.6 33.1454 2.624 33.0654 2.624H28.6494C28.5694 2.624 28.5294 2.664 28.5294 2.744V16.712C28.5294 16.792 28.4974 16.864 28.4334 16.928C28.3854 16.976 28.3214 17 28.2414 17H26.0334C25.9534 17 25.8814 16.976 25.8174 16.928C25.7694 16.864 25.7454 16.792 25.7454 16.712V2.744C25.7454 2.664 25.7054 2.624 25.6254 2.624H21.3774C21.2974 2.624 21.2254 2.6 21.1614 2.552C21.1134 2.488 21.0894 2.416 21.0894 2.336V0.487999C21.0894 0.408 21.1134 0.343999 21.1614 0.295999C21.2254 0.231999 21.2974 0.199999 21.3774 0.199999H33.0654ZM45.3079 8.24C45.2119 8.288 45.2119 8.336 45.3079 8.384C46.9399 9.152 47.7559 10.472 47.7559 12.344C47.7559 13.864 47.2439 15.024 46.2199 15.824C45.2119 16.608 43.8919 17 42.2599 17H36.2119C36.1319 17 36.0599 16.976 35.9959 16.928C35.9479 16.864 35.9239 16.792 35.9239 16.712V0.487999C35.9239 0.408 35.9479 0.343999 35.9959 0.295999C36.0599 0.231999 36.1319 0.199999 36.2119 0.199999H42.0679C43.8119 0.199999 45.1559 0.575999 46.0999 1.328C47.0439 2.08 47.5159 3.216 47.5159 4.736C47.5159 6.416 46.7799 7.584 45.3079 8.24ZM38.8279 2.6C38.7479 2.6 38.7079 2.64 38.7079 2.72V7.16C38.7079 7.24 38.7479 7.28 38.8279 7.28H42.0679C42.9159 7.28 43.5799 7.08 44.0599 6.68C44.5559 6.264 44.8039 5.696 44.8039 4.976C44.8039 4.24 44.5559 3.664 44.0599 3.248C43.5799 2.816 42.9159 2.6 42.0679 2.6H38.8279ZM42.2599 14.576C43.0919 14.576 43.7479 14.352 44.2279 13.904C44.7239 13.456 44.9719 12.848 44.9719 12.08C44.9719 11.296 44.7239 10.688 44.2279 10.256C43.7319 9.808 43.0599 9.584 42.2119 9.584H38.8279C38.7479 9.584 38.7079 9.624 38.7079 9.704V14.456C38.7079 14.536 38.7479 14.576 38.8279 14.576H42.2599ZM51.1416 17C51.0616 17 50.9896 16.976 50.9256 16.928C50.8776 16.864 50.8536 16.792 50.8536 16.712V0.487999C50.8536 0.408 50.8776 0.343999 50.9256 0.295999C50.9896 0.231999 51.0616 0.199999 51.1416 0.199999H53.3496C53.4296 0.199999 53.4936 0.231999 53.5416 0.295999C53.6056 0.343999 53.6376 0.408 53.6376 0.487999V14.48C53.6376 14.56 53.6776 14.6 53.7576 14.6H61.7976C61.8776 14.6 61.9416 14.632 61.9896 14.696C62.0536 14.744 62.0856 14.808 62.0856 14.888V16.712C62.0856 16.792 62.0536 16.864 61.9896 16.928C61.9416 16.976 61.8776 17 61.7976 17H51.1416ZM70.1119 17.24C68.9119 17.24 67.8479 17 66.9199 16.52C65.9919 16.024 65.2719 15.328 64.7599 14.432C64.2639 13.536 64.0159 12.504 64.0159 11.336V5.864C64.0159 4.712 64.2719 3.696 64.7839 2.816C65.2959 1.92 66.0079 1.232 66.9199 0.751999C67.8479 0.256 68.9119 0.0079999 70.1119 0.0079999C71.3279 0.0079999 72.3919 0.256 73.3039 0.751999C74.2319 1.232 74.9519 1.92 75.4639 2.816C75.9759 3.696 76.2319 4.712 76.2319 5.864V11.336C76.2319 12.504 75.9759 13.536 75.4639 14.432C74.9519 15.328 74.2319 16.024 73.3039 16.52C72.3919 17 71.3279 17.24 70.1119 17.24ZM70.1119 14.84C71.1199 14.84 71.9279 14.528 72.5359 13.904C73.1439 13.28 73.4479 12.456 73.4479 11.432V5.84C73.4479 4.8 73.1439 3.968 72.5359 3.344C71.9279 2.72 71.1199 2.408 70.1119 2.408C69.1199 2.408 68.3199 2.72 67.7119 3.344C67.1039 3.968 66.7999 4.8 66.7999 5.84V11.432C66.7999 12.456 67.1039 13.28 67.7119 13.904C68.3199 14.528 69.1199 14.84 70.1119 14.84ZM84.9461 17.192C83.7461 17.192 82.6901 16.96 81.7781 16.496C80.8661 16.016 80.1621 15.344 79.6661 14.48C79.1701 13.616 78.9221 12.624 78.9221 11.504V5.696C78.9221 4.56 79.1701 3.568 79.6661 2.72C80.1621 1.856 80.8661 1.192 81.7781 0.727999C82.6901 0.248 83.7461 0.0079999 84.9461 0.0079999C86.1301 0.0079999 87.1701 0.24 88.0661 0.704C88.9781 1.168 89.6821 1.8 90.1781 2.6C90.6741 3.4 90.9221 4.304 90.9221 5.312V5.504C90.9221 5.584 90.8901 5.656 90.8261 5.72C90.7781 5.768 90.7141 5.792 90.6341 5.792H88.4501C88.3701 5.792 88.2981 5.768 88.2341 5.72C88.1861 5.656 88.1621 5.584 88.1621 5.504V5.384C88.1621 4.52 87.8661 3.808 87.2741 3.248C86.6981 2.688 85.9221 2.408 84.9461 2.408C83.9701 2.408 83.1861 2.704 82.5941 3.296C82.0021 3.872 81.7061 4.64 81.7061 5.6V11.6C81.7061 12.56 82.0181 13.336 82.6421 13.928C83.2661 14.504 84.0741 14.792 85.0661 14.792C86.0261 14.792 86.7781 14.544 87.3221 14.048C87.8821 13.536 88.1621 12.84 88.1621 11.96V10.472C88.1621 10.392 88.1221 10.352 88.0421 10.352H85.0901C85.0101 10.352 84.9381 10.328 84.8741 10.28C84.8261 10.216 84.8021 10.144 84.8021 10.064V8.288C84.8021 8.208 84.8261 8.144 84.8741 8.096C84.9381 8.032 85.0101 8 85.0901 8H90.6341C90.7141 8 90.7781 8.032 90.8261 8.096C90.8901 8.144 90.9221 8.208 90.9221 8.288V11.36C90.9221 13.2 90.3781 14.632 89.2901 15.656C88.2181 16.68 86.7701 17.192 84.9461 17.192ZM99.6649 17.192C98.4649 17.192 97.4089 16.96 96.4969 16.496C95.5849 16.016 94.8809 15.344 94.3849 14.48C93.8889 13.616 93.6409 12.624 93.6409 11.504V5.696C93.6409 4.56 93.8889 3.568 94.3849 2.72C94.8809 1.856 95.5849 1.192 96.4969 0.727999C97.4089 0.248 98.4649 0.0079999 99.6649 0.0079999C100.849 0.0079999 101.889 0.24 102.785 0.704C103.697 1.168 104.401 1.8 104.897 2.6C105.393 3.4 105.641 4.304 105.641 5.312V5.504C105.641 5.584 105.609 5.656 105.545 5.72C105.497 5.768 105.433 5.792 105.353 5.792H103.169C103.089 5.792 103.017 5.768 102.953 5.72C102.905 5.656 102.881 5.584 102.881 5.504V5.384C102.881 4.52 102.585 3.808 101.993 3.248C101.417 2.688 100.641 2.408 99.6649 2.408C98.6889 2.408 97.9049 2.704 97.3129 3.296C96.7209 3.872 96.4249 4.64 96.4249 5.6V11.6C96.4249 12.56 96.7369 13.336 97.3609 13.928C97.9849 14.504 98.7929 14.792 99.7849 14.792C100.745 14.792 101.497 14.544 102.041 14.048C102.601 13.536 102.881 12.84 102.881 11.96V10.472C102.881 10.392 102.841 10.352 102.761 10.352H99.8089C99.7289 10.352 99.6569 10.328 99.5929 10.28C99.5449 10.216 99.5209 10.144 99.5209 10.064V8.288C99.5209 8.208 99.5449 8.144 99.5929 8.096C99.6569 8.032 99.7289 8 99.8089 8H105.353C105.433 8 105.497 8.032 105.545 8.096C105.609 8.144 105.641 8.208 105.641 8.288V11.36C105.641 13.2 105.097 14.632 104.009 15.656C102.937 16.68 101.489 17.192 99.6649 17.192ZM120.144 2.312C120.144 2.392 120.112 2.464 120.048 2.528C120 2.576 119.936 2.6 119.856 2.6H111.672C111.592 2.6 111.552 2.64 111.552 2.72V7.208C111.552 7.288 111.592 7.328 111.672 7.328H117.168C117.248 7.328 117.312 7.36 117.36 7.424C117.424 7.472 117.456 7.536 117.456 7.616V9.44C117.456 9.52 117.424 9.592 117.36 9.656C117.312 9.704 117.248 9.728 117.168 9.728H111.672C111.592 9.728 111.552 9.768 111.552 9.848V14.48C111.552 14.56 111.592 14.6 111.672 14.6H119.856C119.936 14.6 120 14.632 120.048 14.696C120.112 14.744 120.144 14.808 120.144 14.888V16.712C120.144 16.792 120.112 16.864 120.048 16.928C120 16.976 119.936 17 119.856 17H109.056C108.976 17 108.904 16.976 108.84 16.928C108.792 16.864 108.768 16.792 108.768 16.712V0.487999C108.768 0.408 108.792 0.343999 108.84 0.295999C108.904 0.231999 108.976 0.199999 109.056 0.199999H119.856C119.936 0.199999 120 0.231999 120.048 0.295999C120.112 0.343999 120.144 0.408 120.144 0.487999V2.312ZM132.403 17C132.243 17 132.131 16.928 132.067 16.784L128.899 9.872C128.867 9.808 128.819 9.776 128.755 9.776H125.875C125.795 9.776 125.755 9.816 125.755 9.896V16.712C125.755 16.792 125.723 16.864 125.659 16.928C125.611 16.976 125.547 17 125.467 17H123.259C123.179 17 123.107 16.976 123.043 16.928C122.995 16.864 122.971 16.792 122.971 16.712V0.487999C122.971 0.408 122.995 0.343999 123.043 0.295999C123.107 0.231999 123.179 0.199999 123.259 0.199999H129.859C130.835 0.199999 131.699 0.407999 132.451 0.823999C133.203 1.224 133.787 1.8 134.203 2.552C134.619 3.288 134.827 4.136 134.827 5.096C134.827 6.2 134.539 7.144 133.963 7.928C133.403 8.696 132.619 9.232 131.611 9.536C131.579 9.536 131.555 9.552 131.539 9.584C131.523 9.616 131.523 9.648 131.539 9.68L134.923 16.664C134.955 16.728 134.971 16.776 134.971 16.808C134.971 16.936 134.883 17 134.707 17H132.403ZM125.875 2.6C125.795 2.6 125.755 2.64 125.755 2.72V7.496C125.755 7.576 125.795 7.616 125.875 7.616H129.475C130.243 7.616 130.859 7.392 131.323 6.944C131.803 6.48 132.043 5.872 132.043 5.12C132.043 4.368 131.803 3.76 131.323 3.296C130.859 2.832 130.243 2.6 129.475 2.6H125.875Z" fill="#112D44"/>
</svg>
