<svg width="120" height="86" viewBox="0 0 120 86" fill="none" xmlns="http://www.w3.org/2000/svg">
<path d="M27.5813 8.24C27.4853 8.288 27.4853 8.336 27.5813 8.384C29.2133 9.152 30.0293 10.472 30.0293 12.344C30.0293 13.864 29.5173 15.024 28.4933 15.824C27.4853 16.608 26.1653 17 24.5333 17H18.4853C18.4053 17 18.3333 16.976 18.2693 16.928C18.2213 16.864 18.1973 16.792 18.1973 16.712V0.487999C18.1973 0.408 18.2213 0.343999 18.2693 0.295999C18.3333 0.231999 18.4053 0.199999 18.4853 0.199999H24.3413C26.0853 0.199999 27.4293 0.575999 28.3733 1.328C29.3173 2.08 29.7893 3.216 29.7893 4.736C29.7893 6.416 29.0533 7.584 27.5813 8.24ZM21.1013 2.6C21.0213 2.6 20.9813 2.64 20.9813 2.72V7.16C20.9813 7.24 21.0213 7.28 21.1013 7.28H24.3413C25.1893 7.28 25.8533 7.08 26.3333 6.68C26.8293 6.264 27.0773 5.696 27.0773 4.976C27.0773 4.24 26.8293 3.664 26.3333 3.248C25.8533 2.816 25.1893 2.6 24.3413 2.6H21.1013ZM24.5333 14.576C25.3653 14.576 26.0213 14.352 26.5013 13.904C26.9973 13.456 27.2453 12.848 27.2453 12.08C27.2453 11.296 26.9973 10.688 26.5013 10.256C26.0053 9.808 25.3333 9.584 24.4853 9.584H21.1013C21.0213 9.584 20.9813 9.624 20.9813 9.704V14.456C20.9813 14.536 21.0213 14.576 21.1013 14.576H24.5333ZM33.415 17C33.335 17 33.263 16.976 33.199 16.928C33.151 16.864 33.127 16.792 33.127 16.712V0.487999C33.127 0.408 33.151 0.343999 33.199 0.295999C33.263 0.231999 33.335 0.199999 33.415 0.199999H35.623C35.703 0.199999 35.767 0.231999 35.815 0.295999C35.879 0.343999 35.911 0.408 35.911 0.487999V16.712C35.911 16.792 35.879 16.864 35.815 16.928C35.767 16.976 35.703 17 35.623 17H33.415ZM50.4483 0.199999C50.5283 0.199999 50.5923 0.231999 50.6403 0.295999C50.7043 0.343999 50.7363 0.408 50.7363 0.487999V2.336C50.7363 2.416 50.7043 2.488 50.6403 2.552C50.5923 2.6 50.5283 2.624 50.4483 2.624H46.0323C45.9523 2.624 45.9123 2.664 45.9123 2.744V16.712C45.9123 16.792 45.8803 16.864 45.8163 16.928C45.7683 16.976 45.7043 17 45.6243 17H43.4163C43.3363 17 43.2643 16.976 43.2003 16.928C43.1523 16.864 43.1283 16.792 43.1283 16.712V2.744C43.1283 2.664 43.0883 2.624 43.0083 2.624H38.7603C38.6803 2.624 38.6083 2.6 38.5443 2.552C38.4963 2.488 38.4723 2.416 38.4723 2.336V0.487999C38.4723 0.408 38.4963 0.343999 38.5443 0.295999C38.6083 0.231999 38.6803 0.199999 38.7603 0.199999H50.4483ZM58.0789 17.192C56.8789 17.192 55.8229 16.96 54.9109 16.496C53.9989 16.016 53.2949 15.352 52.7989 14.504C52.3029 13.656 52.0549 12.672 52.0549 11.552V5.624C52.0549 4.504 52.3029 3.52 52.7989 2.672C53.2949 1.824 53.9989 1.168 54.9109 0.704C55.8229 0.24 56.8789 0.0079999 58.0789 0.0079999C59.2629 0.0079999 60.3109 0.232 61.2229 0.68C62.1349 1.128 62.8389 1.76 63.3349 2.576C63.8309 3.392 64.0789 4.336 64.0789 5.408C64.0789 5.488 64.0469 5.56 63.9829 5.624C63.9349 5.672 63.8709 5.696 63.7909 5.696L61.5829 5.816C61.3909 5.816 61.2949 5.728 61.2949 5.552C61.2949 4.608 60.9989 3.848 60.4069 3.272C59.8309 2.696 59.0549 2.408 58.0789 2.408C57.1029 2.408 56.3189 2.696 55.7269 3.272C55.1349 3.848 54.8389 4.608 54.8389 5.552V11.672C54.8389 12.6 55.1349 13.352 55.7269 13.928C56.3189 14.504 57.1029 14.792 58.0789 14.792C59.0549 14.792 59.8309 14.512 60.4069 13.952C60.9989 13.376 61.2949 12.616 61.2949 11.672C61.2949 11.496 61.3909 11.408 61.5829 11.408L63.7909 11.504C63.8709 11.504 63.9349 11.528 63.9829 11.576C64.0469 11.624 64.0789 11.68 64.0789 11.744C64.0789 12.832 63.8309 13.792 63.3349 14.624C62.8389 15.44 62.1349 16.072 61.2229 16.52C60.3109 16.968 59.2629 17.192 58.0789 17.192ZM72.7525 17.24C71.5525 17.24 70.4885 17 69.5605 16.52C68.6325 16.024 67.9125 15.328 67.4005 14.432C66.9045 13.536 66.6565 12.504 66.6565 11.336V5.864C66.6565 4.712 66.9125 3.696 67.4245 2.816C67.9365 1.92 68.6485 1.232 69.5605 0.751999C70.4885 0.256 71.5525 0.0079999 72.7525 0.0079999C73.9685 0.0079999 75.0325 0.256 75.9445 0.751999C76.8725 1.232 77.5925 1.92 78.1045 2.816C78.6165 3.696 78.8725 4.712 78.8725 5.864V11.336C78.8725 12.504 78.6165 13.536 78.1045 14.432C77.5925 15.328 76.8725 16.024 75.9445 16.52C75.0325 17 73.9685 17.24 72.7525 17.24ZM72.7525 14.84C73.7605 14.84 74.5685 14.528 75.1765 13.904C75.7845 13.28 76.0885 12.456 76.0885 11.432V5.84C76.0885 4.8 75.7845 3.968 75.1765 3.344C74.5685 2.72 73.7605 2.408 72.7525 2.408C71.7605 2.408 70.9605 2.72 70.3525 3.344C69.7445 3.968 69.4405 4.8 69.4405 5.84V11.432C69.4405 12.456 69.7445 13.28 70.3525 13.904C70.9605 14.528 71.7605 14.84 72.7525 14.84ZM82.2588 17C82.1788 17 82.1068 16.976 82.0428 16.928C81.9948 16.864 81.9708 16.792 81.9708 16.712V0.487999C81.9708 0.408 81.9948 0.343999 82.0428 0.295999C82.1068 0.231999 82.1788 0.199999 82.2588 0.199999H84.4668C84.5468 0.199999 84.6108 0.231999 84.6588 0.295999C84.7228 0.343999 84.7548 0.408 84.7548 0.487999V16.712C84.7548 16.792 84.7228 16.864 84.6588 16.928C84.6108 16.976 84.5468 17 84.4668 17H82.2588ZM98.02 0.487999C98.02 0.408 98.044 0.343999 98.092 0.295999C98.156 0.231999 98.228 0.199999 98.308 0.199999H100.516C100.596 0.199999 100.66 0.231999 100.708 0.295999C100.772 0.343999 100.804 0.408 100.804 0.487999V16.712C100.804 16.792 100.772 16.864 100.708 16.928C100.66 16.976 100.596 17 100.516 17H98.38C98.22 17 98.108 16.936 98.044 16.808L91.132 5.48C91.1 5.432 91.068 5.416 91.036 5.432C91.004 5.432 90.988 5.464 90.988 5.528L91.036 16.712C91.036 16.792 91.004 16.864 90.94 16.928C90.892 16.976 90.828 17 90.748 17H88.54C88.46 17 88.388 16.976 88.324 16.928C88.276 16.864 88.252 16.792 88.252 16.712V0.487999C88.252 0.408 88.276 0.343999 88.324 0.295999C88.388 0.231999 88.46 0.199999 88.54 0.199999H90.676C90.836 0.199999 90.948 0.263999 91.012 0.391999L97.9 11.72C97.932 11.768 97.964 11.792 97.996 11.792C98.028 11.776 98.044 11.736 98.044 11.672L98.02 0.487999ZM1.09469 51C1.01469 51 0.942688 50.976 0.878688 50.928C0.830688 50.864 0.806688 50.792 0.806688 50.712V34.488C0.806688 34.408 0.830688 34.344 0.878688 34.296C0.942688 34.232 1.01469 34.2 1.09469 34.2H6.95069C8.08669 34.2 9.08669 34.4 9.95069 34.8C10.8147 35.2 11.4787 35.776 11.9427 36.528C12.4227 37.264 12.6627 38.128 12.6627 39.12V46.08C12.6627 47.072 12.4227 47.944 11.9427 48.696C11.4787 49.432 10.8147 50 9.95069 50.4C9.08669 50.8 8.08669 51 6.95069 51H1.09469ZM3.59069 48.48C3.59069 48.56 3.63069 48.6 3.71069 48.6H7.07069C7.91869 48.6 8.59069 48.336 9.08669 47.808C9.59869 47.264 9.86269 46.544 9.87869 45.648V39.576C9.87869 38.664 9.62269 37.944 9.11069 37.416C8.59869 36.872 7.91069 36.6 7.04669 36.6H3.71069C3.63069 36.6 3.59069 36.64 3.59069 36.72V48.48ZM21.3072 51.24C20.1072 51.24 19.0432 51 18.1152 50.52C17.1872 50.024 16.4672 49.328 15.9552 48.432C15.4592 47.536 15.2112 46.504 15.2112 45.336V39.864C15.2112 38.712 15.4672 37.696 15.9792 36.816C16.4912 35.92 17.2032 35.232 18.1152 34.752C19.0432 34.256 20.1072 34.008 21.3072 34.008C22.5232 34.008 23.5872 34.256 24.4992 34.752C25.4272 35.232 26.1472 35.92 26.6592 36.816C27.1712 37.696 27.4272 38.712 27.4272 39.864V45.336C27.4272 46.504 27.1712 47.536 26.6592 48.432C26.1472 49.328 25.4272 50.024 24.4992 50.52C23.5872 51 22.5232 51.24 21.3072 51.24ZM21.3072 48.84C22.3152 48.84 23.1232 48.528 23.7312 47.904C24.3392 47.28 24.6432 46.456 24.6432 45.432V39.84C24.6432 38.8 24.3392 37.968 23.7312 37.344C23.1232 36.72 22.3152 36.408 21.3072 36.408C20.3152 36.408 19.5152 36.72 18.9072 37.344C18.2992 37.968 17.9952 38.8 17.9952 39.84V45.432C17.9952 46.456 18.2992 47.28 18.9072 47.904C19.5152 48.528 20.3152 48.84 21.3072 48.84ZM36.1414 51.192C34.9414 51.192 33.8854 50.96 32.9734 50.496C32.0614 50.016 31.3574 49.352 30.8614 48.504C30.3654 47.656 30.1174 46.672 30.1174 45.552V39.624C30.1174 38.504 30.3654 37.52 30.8614 36.672C31.3574 35.824 32.0614 35.168 32.9734 34.704C33.8854 34.24 34.9414 34.008 36.1414 34.008C37.3254 34.008 38.3734 34.232 39.2854 34.68C40.1974 35.128 40.9014 35.76 41.3974 36.576C41.8934 37.392 42.1414 38.336 42.1414 39.408C42.1414 39.488 42.1094 39.56 42.0454 39.624C41.9974 39.672 41.9334 39.696 41.8534 39.696L39.6454 39.816C39.4534 39.816 39.3574 39.728 39.3574 39.552C39.3574 38.608 39.0614 37.848 38.4694 37.272C37.8934 36.696 37.1174 36.408 36.1414 36.408C35.1654 36.408 34.3814 36.696 33.7894 37.272C33.1974 37.848 32.9014 38.608 32.9014 39.552V45.672C32.9014 46.6 33.1974 47.352 33.7894 47.928C34.3814 48.504 35.1654 48.792 36.1414 48.792C37.1174 48.792 37.8934 48.512 38.4694 47.952C39.0614 47.376 39.3574 46.616 39.3574 45.672C39.3574 45.496 39.4534 45.408 39.6454 45.408L41.8534 45.504C41.9334 45.504 41.9974 45.528 42.0454 45.576C42.1094 45.624 42.1414 45.68 42.1414 45.744C42.1414 46.832 41.8934 47.792 41.3974 48.624C40.9014 49.44 40.1974 50.072 39.2854 50.52C38.3734 50.968 37.3254 51.192 36.1414 51.192ZM51.007 51.192C49.823 51.192 48.775 50.96 47.863 50.496C46.951 50.032 46.239 49.376 45.727 48.528C45.231 47.664 44.983 46.672 44.983 45.552V34.488C44.983 34.408 45.007 34.344 45.055 34.296C45.119 34.232 45.191 34.2 45.271 34.2H47.479C47.559 34.2 47.623 34.232 47.671 34.296C47.735 34.344 47.767 34.408 47.767 34.488V45.6C47.767 46.544 48.063 47.312 48.655 47.904C49.247 48.496 50.031 48.792 51.007 48.792C51.983 48.792 52.767 48.496 53.359 47.904C53.951 47.312 54.247 46.544 54.247 45.6V34.488C54.247 34.408 54.271 34.344 54.319 34.296C54.383 34.232 54.455 34.2 54.535 34.2H56.743C56.823 34.2 56.887 34.232 56.935 34.296C56.999 34.344 57.031 34.408 57.031 34.488V45.552C57.031 46.672 56.783 47.664 56.287 48.528C55.791 49.376 55.087 50.032 54.175 50.496C53.263 50.96 52.207 51.192 51.007 51.192ZM71.2088 34.392C71.2888 34.264 71.4008 34.2 71.5448 34.2H73.7528C73.8328 34.2 73.8968 34.232 73.9448 34.296C74.0088 34.344 74.0408 34.408 74.0408 34.488V50.712C74.0408 50.792 74.0088 50.864 73.9448 50.928C73.8968 50.976 73.8328 51 73.7528 51H71.5448C71.4648 51 71.3928 50.976 71.3288 50.928C71.2808 50.864 71.2568 50.792 71.2568 50.712V39.264C71.2568 39.216 71.2328 39.184 71.1848 39.168C71.1528 39.152 71.1288 39.168 71.1128 39.216L68.1128 43.824C68.0328 43.952 67.9208 44.016 67.7768 44.016H66.6728C66.5288 44.016 66.4168 43.952 66.3368 43.824L63.3128 39.24C63.2968 39.192 63.2648 39.176 63.2168 39.192C63.1848 39.208 63.1688 39.24 63.1688 39.288V50.712C63.1688 50.792 63.1368 50.864 63.0728 50.928C63.0248 50.976 62.9608 51 62.8808 51H60.6728C60.5928 51 60.5208 50.976 60.4568 50.928C60.4088 50.864 60.3848 50.792 60.3848 50.712V34.488C60.3848 34.408 60.4088 34.344 60.4568 34.296C60.5208 34.232 60.5928 34.2 60.6728 34.2H62.8808C63.0248 34.2 63.1368 34.264 63.2168 34.392L67.1288 40.32C67.1608 40.352 67.1928 40.368 67.2248 40.368C67.2568 40.368 67.2808 40.352 67.2968 40.32L71.2088 34.392ZM88.9171 36.312C88.9171 36.392 88.8851 36.464 88.8211 36.528C88.7731 36.576 88.7091 36.6 88.6291 36.6H80.4451C80.3651 36.6 80.3251 36.64 80.3251 36.72V41.208C80.3251 41.288 80.3651 41.328 80.4451 41.328H85.9411C86.0211 41.328 86.0851 41.36 86.1331 41.424C86.1971 41.472 86.2291 41.536 86.2291 41.616V43.44C86.2291 43.52 86.1971 43.592 86.1331 43.656C86.0851 43.704 86.0211 43.728 85.9411 43.728H80.4451C80.3651 43.728 80.3251 43.768 80.3251 43.848V48.48C80.3251 48.56 80.3651 48.6 80.4451 48.6H88.6291C88.7091 48.6 88.7731 48.632 88.8211 48.696C88.8851 48.744 88.9171 48.808 88.9171 48.888V50.712C88.9171 50.792 88.8851 50.864 88.8211 50.928C88.7731 50.976 88.7091 51 88.6291 51H77.8291C77.7491 51 77.6771 50.976 77.6131 50.928C77.5651 50.864 77.5411 50.792 77.5411 50.712V34.488C77.5411 34.408 77.5651 34.344 77.6131 34.296C77.6771 34.232 77.7491 34.2 77.8291 34.2H88.6291C88.7091 34.2 88.7731 34.232 88.8211 34.296C88.8851 34.344 88.9171 34.408 88.9171 34.488V36.312ZM101.512 34.488C101.512 34.408 101.536 34.344 101.584 34.296C101.648 34.232 101.72 34.2 101.8 34.2H104.008C104.088 34.2 104.152 34.232 104.2 34.296C104.264 34.344 104.296 34.408 104.296 34.488V50.712C104.296 50.792 104.264 50.864 104.2 50.928C104.152 50.976 104.088 51 104.008 51H101.872C101.712 51 101.6 50.936 101.536 50.808L94.6242 39.48C94.5922 39.432 94.5602 39.416 94.5282 39.432C94.4962 39.432 94.4802 39.464 94.4802 39.528L94.5282 50.712C94.5282 50.792 94.4962 50.864 94.4322 50.928C94.3842 50.976 94.3202 51 94.2402 51H92.0322C91.9522 51 91.8802 50.976 91.8162 50.928C91.7682 50.864 91.7442 50.792 91.7442 50.712V34.488C91.7442 34.408 91.7682 34.344 91.8162 34.296C91.8802 34.232 91.9522 34.2 92.0322 34.2H94.1682C94.3282 34.2 94.4402 34.264 94.5042 34.392L101.392 45.72C101.424 45.768 101.456 45.792 101.488 45.792C101.52 45.776 101.536 45.736 101.536 45.672L101.512 34.488ZM118.839 34.2C118.919 34.2 118.983 34.232 119.031 34.296C119.095 34.344 119.127 34.408 119.127 34.488V36.336C119.127 36.416 119.095 36.488 119.031 36.552C118.983 36.6 118.919 36.624 118.839 36.624H114.423C114.343 36.624 114.303 36.664 114.303 36.744V50.712C114.303 50.792 114.271 50.864 114.207 50.928C114.159 50.976 114.095 51 114.015 51H111.807C111.727 51 111.655 50.976 111.591 50.928C111.543 50.864 111.519 50.792 111.519 50.712V36.744C111.519 36.664 111.479 36.624 111.399 36.624H107.151C107.071 36.624 106.999 36.6 106.935 36.552C106.887 36.488 106.863 36.416 106.863 36.336V34.488C106.863 34.408 106.887 34.344 106.935 34.296C106.999 34.232 107.071 34.2 107.151 34.2H118.839ZM28.6821 70.312C28.6821 70.392 28.6501 70.464 28.5861 70.528C28.5381 70.576 28.4741 70.6 28.3941 70.6H20.2341C20.1541 70.6 20.1141 70.64 20.1141 70.72V75.208C20.1141 75.288 20.1541 75.328 20.2341 75.328H25.7301C25.8101 75.328 25.8741 75.36 25.9221 75.424C25.9861 75.472 26.0181 75.536 26.0181 75.616V77.44C26.0181 77.52 25.9861 77.592 25.9221 77.656C25.8741 77.704 25.8101 77.728 25.7301 77.728H20.2341C20.1541 77.728 20.1141 77.768 20.1141 77.848V84.712C20.1141 84.792 20.0821 84.864 20.0181 84.928C19.9701 84.976 19.9061 85 19.8261 85H17.6181C17.5381 85 17.4661 84.976 17.4021 84.928C17.3541 84.864 17.3301 84.792 17.3301 84.712V68.488C17.3301 68.408 17.3541 68.344 17.4021 68.296C17.4661 68.232 17.5381 68.2 17.6181 68.2H28.3941C28.4741 68.2 28.5381 68.232 28.5861 68.296C28.6501 68.344 28.6821 68.408 28.6821 68.488V70.312ZM36.4947 85.24C35.2947 85.24 34.2307 85 33.3027 84.52C32.3747 84.024 31.6547 83.328 31.1427 82.432C30.6467 81.536 30.3987 80.504 30.3987 79.336V73.864C30.3987 72.712 30.6547 71.696 31.1667 70.816C31.6787 69.92 32.3907 69.232 33.3027 68.752C34.2307 68.256 35.2947 68.008 36.4947 68.008C37.7107 68.008 38.7747 68.256 39.6867 68.752C40.6147 69.232 41.3347 69.92 41.8467 70.816C42.3587 71.696 42.6147 72.712 42.6147 73.864V79.336C42.6147 80.504 42.3587 81.536 41.8467 82.432C41.3347 83.328 40.6147 84.024 39.6867 84.52C38.7747 85 37.7107 85.24 36.4947 85.24ZM36.4947 82.84C37.5027 82.84 38.3107 82.528 38.9187 81.904C39.5267 81.28 39.8307 80.456 39.8307 79.432V73.84C39.8307 72.8 39.5267 71.968 38.9187 71.344C38.3107 70.72 37.5027 70.408 36.4947 70.408C35.5027 70.408 34.7027 70.72 34.0947 71.344C33.4867 71.968 33.1827 72.8 33.1827 73.84V79.432C33.1827 80.456 33.4867 81.28 34.0947 81.904C34.7027 82.528 35.5027 82.84 36.4947 82.84ZM55.1449 85C54.9849 85 54.8729 84.928 54.8089 84.784L51.6409 77.872C51.6089 77.808 51.5609 77.776 51.4969 77.776H48.6169C48.5369 77.776 48.4969 77.816 48.4969 77.896V84.712C48.4969 84.792 48.4649 84.864 48.4009 84.928C48.3529 84.976 48.2889 85 48.2089 85H46.0009C45.9209 85 45.8489 84.976 45.7849 84.928C45.7369 84.864 45.7129 84.792 45.7129 84.712V68.488C45.7129 68.408 45.7369 68.344 45.7849 68.296C45.8489 68.232 45.9209 68.2 46.0009 68.2H52.6009C53.5769 68.2 54.4409 68.408 55.1929 68.824C55.9449 69.224 56.5289 69.8 56.9449 70.552C57.3609 71.288 57.5689 72.136 57.5689 73.096C57.5689 74.2 57.2809 75.144 56.7049 75.928C56.1449 76.696 55.3609 77.232 54.3529 77.536C54.3209 77.536 54.2969 77.552 54.2809 77.584C54.2649 77.616 54.2649 77.648 54.2809 77.68L57.6649 84.664C57.6969 84.728 57.7129 84.776 57.7129 84.808C57.7129 84.936 57.6249 85 57.4489 85H55.1449ZM48.6169 70.6C48.5369 70.6 48.4969 70.64 48.4969 70.72V75.496C48.4969 75.576 48.5369 75.616 48.6169 75.616H52.2169C52.9849 75.616 53.6009 75.392 54.0649 74.944C54.5449 74.48 54.7849 73.872 54.7849 73.12C54.7849 72.368 54.5449 71.76 54.0649 71.296C53.6009 70.832 52.9849 70.6 52.2169 70.6H48.6169ZM71.2557 68.392C71.3357 68.264 71.4477 68.2 71.5917 68.2H73.7997C73.8797 68.2 73.9437 68.232 73.9917 68.296C74.0557 68.344 74.0877 68.408 74.0877 68.488V84.712C74.0877 84.792 74.0557 84.864 73.9917 84.928C73.9437 84.976 73.8797 85 73.7997 85H71.5917C71.5117 85 71.4397 84.976 71.3757 84.928C71.3277 84.864 71.3037 84.792 71.3037 84.712V73.264C71.3037 73.216 71.2797 73.184 71.2317 73.168C71.1997 73.152 71.1757 73.168 71.1597 73.216L68.1597 77.824C68.0797 77.952 67.9677 78.016 67.8237 78.016H66.7197C66.5757 78.016 66.4637 77.952 66.3837 77.824L63.3597 73.24C63.3437 73.192 63.3117 73.176 63.2637 73.192C63.2317 73.208 63.2157 73.24 63.2157 73.288V84.712C63.2157 84.792 63.1837 84.864 63.1197 84.928C63.0717 84.976 63.0077 85 62.9277 85H60.7197C60.6397 85 60.5677 84.976 60.5037 84.928C60.4557 84.864 60.4317 84.792 60.4317 84.712V68.488C60.4317 68.408 60.4557 68.344 60.5037 68.296C60.5677 68.232 60.6397 68.2 60.7197 68.2H62.9277C63.0717 68.2 63.1837 68.264 63.2637 68.392L67.1757 74.32C67.2077 74.352 67.2397 74.368 67.2717 74.368C67.3037 74.368 67.3277 74.352 67.3437 74.32L71.2557 68.392ZM88.0039 85C87.8439 85 87.7399 84.92 87.6919 84.76L86.8999 82.192C86.8679 82.128 86.8279 82.096 86.7799 82.096H80.4439C80.3959 82.096 80.3559 82.128 80.3239 82.192L79.5319 84.76C79.4839 84.92 79.3799 85 79.2199 85H76.8199C76.7239 85 76.6519 84.976 76.6039 84.928C76.5559 84.864 76.5479 84.776 76.5799 84.664L81.7879 68.44C81.8359 68.28 81.9399 68.2 82.0999 68.2H85.0999C85.2599 68.2 85.3639 68.28 85.4119 68.44L90.6439 84.664C90.6599 84.696 90.6679 84.736 90.6679 84.784C90.6679 84.928 90.5799 85 90.4039 85H88.0039ZM81.0679 79.768C81.0519 79.864 81.0839 79.912 81.1639 79.912H86.0359C86.1319 79.912 86.1639 79.864 86.1319 79.768L83.6599 71.728C83.6439 71.664 83.6199 71.632 83.5879 71.632C83.5559 71.632 83.5319 71.664 83.5159 71.728L81.0679 79.768ZM102.315 68.2C102.395 68.2 102.459 68.232 102.507 68.296C102.571 68.344 102.603 68.408 102.603 68.488V70.336C102.603 70.416 102.571 70.488 102.507 70.552C102.459 70.6 102.395 70.624 102.315 70.624H97.8994C97.8194 70.624 97.7794 70.664 97.7794 70.744V84.712C97.7794 84.792 97.7474 84.864 97.6834 84.928C97.6354 84.976 97.5714 85 97.4914 85H95.2834C95.2034 85 95.1314 84.976 95.0674 84.928C95.0194 84.864 94.9954 84.792 94.9954 84.712V70.744C94.9954 70.664 94.9554 70.624 94.8754 70.624H90.6274C90.5474 70.624 90.4754 70.6 90.4114 70.552C90.3634 70.488 90.3394 70.416 90.3394 70.336V68.488C90.3394 68.408 90.3634 68.344 90.4114 68.296C90.4754 68.232 90.5474 68.2 90.6274 68.2H102.315Z" fill="#112D44"/>
</svg>
