<svg width="117" height="52" viewBox="0 0 117 52" fill="none" xmlns="http://www.w3.org/2000/svg">
<path d="M6.77034 17.192C5.57034 17.192 4.51434 16.96 3.60234 16.496C2.69034 16.016 1.98634 15.352 1.49034 14.504C0.994344 13.656 0.746344 12.672 0.746344 11.552V5.624C0.746344 4.504 0.994344 3.52 1.49034 2.672C1.98634 1.824 2.69034 1.168 3.60234 0.704C4.51434 0.24 5.57034 0.0079999 6.77034 0.0079999C7.95434 0.0079999 9.00234 0.232 9.91434 0.68C10.8263 1.128 11.5303 1.76 12.0263 2.576C12.5223 3.392 12.7703 4.336 12.7703 5.408C12.7703 5.488 12.7383 5.56 12.6743 5.624C12.6263 5.672 12.5623 5.696 12.4823 5.696L10.2743 5.816C10.0823 5.816 9.98634 5.728 9.98634 5.552C9.98634 4.608 9.69034 3.848 9.09834 3.272C8.52234 2.696 7.74634 2.408 6.77034 2.408C5.79434 2.408 5.01034 2.696 4.41834 3.272C3.82634 3.848 3.53034 4.608 3.53034 5.552V11.672C3.53034 12.6 3.82634 13.352 4.41834 13.928C5.01034 14.504 5.79434 14.792 6.77034 14.792C7.74634 14.792 8.52234 14.512 9.09834 13.952C9.69034 13.376 9.98634 12.616 9.98634 11.672C9.98634 11.496 10.0823 11.408 10.2743 11.408L12.4823 11.504C12.5623 11.504 12.6263 11.528 12.6743 11.576C12.7383 11.624 12.7703 11.68 12.7703 11.744C12.7703 12.832 12.5223 13.792 12.0263 14.624C11.5303 15.44 10.8263 16.072 9.91434 16.52C9.00234 16.968 7.95434 17.192 6.77034 17.192ZM21.4439 17.24C20.2439 17.24 19.1799 17 18.2519 16.52C17.3239 16.024 16.6039 15.328 16.0919 14.432C15.5959 13.536 15.3479 12.504 15.3479 11.336V5.864C15.3479 4.712 15.6039 3.696 16.1159 2.816C16.6279 1.92 17.3399 1.232 18.2519 0.751999C19.1799 0.256 20.2439 0.0079999 21.4439 0.0079999C22.6599 0.0079999 23.7239 0.256 24.6359 0.751999C25.5639 1.232 26.2839 1.92 26.7959 2.816C27.3079 3.696 27.5639 4.712 27.5639 5.864V11.336C27.5639 12.504 27.3079 13.536 26.7959 14.432C26.2839 15.328 25.5639 16.024 24.6359 16.52C23.7239 17 22.6599 17.24 21.4439 17.24ZM21.4439 14.84C22.4519 14.84 23.2599 14.528 23.8679 13.904C24.4759 13.28 24.7799 12.456 24.7799 11.432V5.84C24.7799 4.8 24.4759 3.968 23.8679 3.344C23.2599 2.72 22.4519 2.408 21.4439 2.408C20.4519 2.408 19.6519 2.72 19.0439 3.344C18.4359 3.968 18.1319 4.8 18.1319 5.84V11.432C18.1319 12.456 18.4359 13.28 19.0439 13.904C19.6519 14.528 20.4519 14.84 21.4439 14.84ZM40.4302 0.487999C40.4302 0.408 40.4542 0.343999 40.5022 0.295999C40.5662 0.231999 40.6382 0.199999 40.7182 0.199999H42.9262C43.0062 0.199999 43.0702 0.231999 43.1182 0.295999C43.1822 0.343999 43.2142 0.408 43.2142 0.487999V16.712C43.2142 16.792 43.1822 16.864 43.1182 16.928C43.0702 16.976 43.0062 17 42.9262 17H40.7902C40.6302 17 40.5182 16.936 40.4542 16.808L33.5422 5.48C33.5102 5.432 33.4782 5.416 33.4462 5.432C33.4142 5.432 33.3982 5.464 33.3982 5.528L33.4462 16.712C33.4462 16.792 33.4142 16.864 33.3502 16.928C33.3022 16.976 33.2382 17 33.1582 17H30.9502C30.8702 17 30.7982 16.976 30.7342 16.928C30.6862 16.864 30.6622 16.792 30.6622 16.712V0.487999C30.6622 0.408 30.6862 0.343999 30.7342 0.295999C30.7982 0.231999 30.8702 0.199999 30.9502 0.199999H33.0862C33.2462 0.199999 33.3582 0.263999 33.4222 0.391999L40.3102 11.72C40.3422 11.768 40.3742 11.792 40.4062 11.792C40.4382 11.776 40.4542 11.736 40.4542 11.672L40.4302 0.487999ZM57.7568 0.199999C57.8368 0.199999 57.9008 0.231999 57.9488 0.295999C58.0128 0.343999 58.0448 0.408 58.0448 0.487999V2.336C58.0448 2.416 58.0128 2.488 57.9488 2.552C57.9008 2.6 57.8368 2.624 57.7568 2.624H53.3408C53.2608 2.624 53.2208 2.664 53.2208 2.744V16.712C53.2208 16.792 53.1888 16.864 53.1248 16.928C53.0768 16.976 53.0128 17 52.9328 17H50.7248C50.6448 17 50.5728 16.976 50.5088 16.928C50.4608 16.864 50.4368 16.792 50.4368 16.712V2.744C50.4368 2.664 50.3968 2.624 50.3168 2.624H46.0688C45.9888 2.624 45.9168 2.6 45.8528 2.552C45.8048 2.488 45.7808 2.416 45.7808 2.336V0.487999C45.7808 0.408 45.8048 0.343999 45.8528 0.295999C45.9168 0.231999 45.9888 0.199999 46.0688 0.199999H57.7568ZM70.0473 17C69.8873 17 69.7753 16.928 69.7113 16.784L66.5433 9.872C66.5113 9.808 66.4633 9.776 66.3993 9.776H63.5193C63.4393 9.776 63.3993 9.816 63.3993 9.896V16.712C63.3993 16.792 63.3673 16.864 63.3033 16.928C63.2553 16.976 63.1913 17 63.1113 17H60.9033C60.8233 17 60.7513 16.976 60.6873 16.928C60.6393 16.864 60.6153 16.792 60.6153 16.712V0.487999C60.6153 0.408 60.6393 0.343999 60.6873 0.295999C60.7513 0.231999 60.8233 0.199999 60.9033 0.199999H67.5033C68.4793 0.199999 69.3433 0.407999 70.0953 0.823999C70.8473 1.224 71.4313 1.8 71.8473 2.552C72.2633 3.288 72.4713 4.136 72.4713 5.096C72.4713 6.2 72.1833 7.144 71.6073 7.928C71.0473 8.696 70.2633 9.232 69.2553 9.536C69.2233 9.536 69.1993 9.552 69.1833 9.584C69.1673 9.616 69.1673 9.648 69.1833 9.68L72.5673 16.664C72.5993 16.728 72.6153 16.776 72.6153 16.808C72.6153 16.936 72.5273 17 72.3513 17H70.0473ZM63.5193 2.6C63.4393 2.6 63.3993 2.64 63.3993 2.72V7.496C63.3993 7.576 63.4393 7.616 63.5193 7.616H67.1193C67.8873 7.616 68.5033 7.392 68.9673 6.944C69.4473 6.48 69.6873 5.872 69.6873 5.12C69.6873 4.368 69.4473 3.76 68.9673 3.296C68.5033 2.832 67.8873 2.6 67.1193 2.6H63.5193ZM86.3125 17C86.1525 17 86.0485 16.92 86.0005 16.76L85.2085 14.192C85.1765 14.128 85.1365 14.096 85.0885 14.096H78.7525C78.7045 14.096 78.6645 14.128 78.6325 14.192L77.8405 16.76C77.7925 16.92 77.6885 17 77.5285 17H75.1285C75.0325 17 74.9605 16.976 74.9125 16.928C74.8645 16.864 74.8565 16.776 74.8885 16.664L80.0965 0.439999C80.1445 0.279999 80.2485 0.199999 80.4085 0.199999H83.4085C83.5685 0.199999 83.6725 0.279999 83.7205 0.439999L88.9525 16.664C88.9685 16.696 88.9765 16.736 88.9765 16.784C88.9765 16.928 88.8885 17 88.7125 17H86.3125ZM79.3765 11.768C79.3605 11.864 79.3925 11.912 79.4725 11.912H84.3445C84.4405 11.912 84.4725 11.864 84.4405 11.768L81.9685 3.728C81.9525 3.664 81.9285 3.632 81.8965 3.632C81.8645 3.632 81.8405 3.664 81.8245 3.728L79.3765 11.768ZM96.6532 17.192C95.4532 17.192 94.3972 16.96 93.4852 16.496C92.5732 16.016 91.8692 15.352 91.3732 14.504C90.8772 13.656 90.6292 12.672 90.6292 11.552V5.624C90.6292 4.504 90.8772 3.52 91.3732 2.672C91.8692 1.824 92.5732 1.168 93.4852 0.704C94.3972 0.24 95.4532 0.0079999 96.6532 0.0079999C97.8372 0.0079999 98.8852 0.232 99.7972 0.68C100.709 1.128 101.413 1.76 101.909 2.576C102.405 3.392 102.653 4.336 102.653 5.408C102.653 5.488 102.621 5.56 102.557 5.624C102.509 5.672 102.445 5.696 102.365 5.696L100.157 5.816C99.9652 5.816 99.8692 5.728 99.8692 5.552C99.8692 4.608 99.5732 3.848 98.9812 3.272C98.4052 2.696 97.6292 2.408 96.6532 2.408C95.6772 2.408 94.8932 2.696 94.3012 3.272C93.7092 3.848 93.4132 4.608 93.4132 5.552V11.672C93.4132 12.6 93.7092 13.352 94.3012 13.928C94.8932 14.504 95.6772 14.792 96.6532 14.792C97.6292 14.792 98.4052 14.512 98.9812 13.952C99.5732 13.376 99.8692 12.616 99.8692 11.672C99.8692 11.496 99.9652 11.408 100.157 11.408L102.365 11.504C102.445 11.504 102.509 11.528 102.557 11.576C102.621 11.624 102.653 11.68 102.653 11.744C102.653 12.832 102.405 13.792 101.909 14.624C101.413 15.44 100.709 16.072 99.7972 16.52C98.8852 16.968 97.8372 17.192 96.6532 17.192ZM116.491 0.199999C116.571 0.199999 116.635 0.231999 116.683 0.295999C116.747 0.343999 116.779 0.408 116.779 0.487999V2.336C116.779 2.416 116.747 2.488 116.683 2.552C116.635 2.6 116.571 2.624 116.491 2.624H112.075C111.995 2.624 111.955 2.664 111.955 2.744V16.712C111.955 16.792 111.923 16.864 111.859 16.928C111.811 16.976 111.747 17 111.667 17H109.459C109.379 17 109.307 16.976 109.243 16.928C109.195 16.864 109.171 16.792 109.171 16.712V2.744C109.171 2.664 109.131 2.624 109.051 2.624H104.803C104.723 2.624 104.651 2.6 104.587 2.552C104.539 2.488 104.515 2.416 104.515 2.336V0.487999C104.515 0.408 104.539 0.343999 104.587 0.295999C104.651 0.231999 104.723 0.199999 104.803 0.199999H116.491ZM30.2971 51.192C29.0491 51.192 27.9611 50.992 27.0331 50.592C26.1051 50.192 25.3851 49.632 24.8731 48.912C24.3771 48.192 24.1291 47.344 24.1291 46.368V45.768C24.1291 45.688 24.1531 45.624 24.2011 45.576C24.2651 45.512 24.3371 45.48 24.4171 45.48H26.5531C26.6331 45.48 26.6971 45.512 26.7451 45.576C26.8091 45.624 26.8411 45.688 26.8411 45.768V46.224C26.8411 46.96 27.1691 47.576 27.8251 48.072C28.4811 48.552 29.3771 48.792 30.5131 48.792C31.4891 48.792 32.2251 48.584 32.7211 48.168C33.2171 47.752 33.4651 47.216 33.4651 46.56C33.4651 46.112 33.3291 45.736 33.0571 45.432C32.7851 45.112 32.3931 44.824 31.8811 44.568C31.3851 44.312 30.6331 43.992 29.6251 43.608C28.4891 43.192 27.5691 42.8 26.8651 42.432C26.1611 42.064 25.5691 41.568 25.0891 40.944C24.6251 40.304 24.3931 39.512 24.3931 38.568C24.3931 37.16 24.9051 36.048 25.9291 35.232C26.9531 34.416 28.3211 34.008 30.0331 34.008C31.2331 34.008 32.2891 34.216 33.2011 34.632C34.1291 35.048 34.8491 35.632 35.3611 36.384C35.8731 37.12 36.1291 37.976 36.1291 38.952V39.36C36.1291 39.44 36.0971 39.512 36.0331 39.576C35.9851 39.624 35.9211 39.648 35.8411 39.648H33.6811C33.6011 39.648 33.5291 39.624 33.4651 39.576C33.4171 39.512 33.3931 39.44 33.3931 39.36V39.096C33.3931 38.344 33.0811 37.712 32.4571 37.2C31.8491 36.672 31.0011 36.408 29.9131 36.408C29.0331 36.408 28.3451 36.592 27.8491 36.96C27.3691 37.328 27.1291 37.848 27.1291 38.52C27.1291 39 27.2571 39.392 27.5131 39.696C27.7691 40 28.1531 40.28 28.6651 40.536C29.1771 40.776 29.9691 41.088 31.0411 41.472C32.1771 41.904 33.0811 42.296 33.7531 42.648C34.4411 43 35.0251 43.496 35.5051 44.136C36.0011 44.76 36.2491 45.544 36.2491 46.488C36.2491 47.928 35.7131 49.072 34.6411 49.92C33.5851 50.768 32.1371 51.192 30.2971 51.192ZM49.7881 34.2C49.8681 34.2 49.9321 34.232 49.9801 34.296C50.0441 34.344 50.0761 34.408 50.0761 34.488V36.336C50.0761 36.416 50.0441 36.488 49.9801 36.552C49.9321 36.6 49.8681 36.624 49.7881 36.624H45.3721C45.2921 36.624 45.2521 36.664 45.2521 36.744V50.712C45.2521 50.792 45.2201 50.864 45.1561 50.928C45.1081 50.976 45.0441 51 44.9641 51H42.7561C42.6761 51 42.6041 50.976 42.5401 50.928C42.4921 50.864 42.4681 50.792 42.4681 50.712V36.744C42.4681 36.664 42.4281 36.624 42.3481 36.624H38.1001C38.0201 36.624 37.9481 36.6 37.8841 36.552C37.8361 36.488 37.8121 36.416 37.8121 36.336V34.488C37.8121 34.408 37.8361 34.344 37.8841 34.296C37.9481 34.232 38.0201 34.2 38.1001 34.2H49.7881ZM57.4908 51.24C56.2908 51.24 55.2268 51 54.2988 50.52C53.3708 50.024 52.6508 49.328 52.1388 48.432C51.6428 47.536 51.3948 46.504 51.3948 45.336V39.864C51.3948 38.712 51.6508 37.696 52.1628 36.816C52.6748 35.92 53.3868 35.232 54.2988 34.752C55.2268 34.256 56.2908 34.008 57.4908 34.008C58.7068 34.008 59.7708 34.256 60.6828 34.752C61.6108 35.232 62.3308 35.92 62.8428 36.816C63.3548 37.696 63.6108 38.712 63.6108 39.864V45.336C63.6108 46.504 63.3548 47.536 62.8428 48.432C62.3308 49.328 61.6108 50.024 60.6828 50.52C59.7708 51 58.7068 51.24 57.4908 51.24ZM57.4908 48.84C58.4988 48.84 59.3068 48.528 59.9148 47.904C60.5228 47.28 60.8268 46.456 60.8268 45.432V39.84C60.8268 38.8 60.5228 37.968 59.9148 37.344C59.3068 36.72 58.4988 36.408 57.4908 36.408C56.4988 36.408 55.6988 36.72 55.0908 37.344C54.4828 37.968 54.1788 38.8 54.1788 39.84V45.432C54.1788 46.456 54.4828 47.28 55.0908 47.904C55.6988 48.528 56.4988 48.84 57.4908 48.84ZM76.141 51C75.981 51 75.869 50.928 75.805 50.784L72.637 43.872C72.605 43.808 72.557 43.776 72.493 43.776H69.613C69.533 43.776 69.493 43.816 69.493 43.896V50.712C69.493 50.792 69.461 50.864 69.397 50.928C69.349 50.976 69.285 51 69.205 51H66.997C66.917 51 66.845 50.976 66.781 50.928C66.733 50.864 66.709 50.792 66.709 50.712V34.488C66.709 34.408 66.733 34.344 66.781 34.296C66.845 34.232 66.917 34.2 66.997 34.2H73.597C74.573 34.2 75.437 34.408 76.189 34.824C76.941 35.224 77.525 35.8 77.941 36.552C78.357 37.288 78.565 38.136 78.565 39.096C78.565 40.2 78.277 41.144 77.701 41.928C77.141 42.696 76.357 43.232 75.349 43.536C75.317 43.536 75.293 43.552 75.277 43.584C75.261 43.616 75.261 43.648 75.277 43.68L78.661 50.664C78.693 50.728 78.709 50.776 78.709 50.808C78.709 50.936 78.621 51 78.445 51H76.141ZM69.613 36.6C69.533 36.6 69.493 36.64 69.493 36.72V41.496C69.493 41.576 69.533 41.616 69.613 41.616H73.213C73.981 41.616 74.597 41.392 75.061 40.944C75.541 40.48 75.781 39.872 75.781 39.12C75.781 38.368 75.541 37.76 75.061 37.296C74.597 36.832 73.981 36.6 73.213 36.6H69.613ZM92.8038 36.312C92.8038 36.392 92.7718 36.464 92.7078 36.528C92.6598 36.576 92.5958 36.6 92.5158 36.6H84.3318C84.2518 36.6 84.2118 36.64 84.2118 36.72V41.208C84.2118 41.288 84.2518 41.328 84.3318 41.328H89.8278C89.9078 41.328 89.9718 41.36 90.0198 41.424C90.0838 41.472 90.1158 41.536 90.1158 41.616V43.44C90.1158 43.52 90.0838 43.592 90.0198 43.656C89.9718 43.704 89.9078 43.728 89.8278 43.728H84.3318C84.2518 43.728 84.2118 43.768 84.2118 43.848V48.48C84.2118 48.56 84.2518 48.6 84.3318 48.6H92.5158C92.5958 48.6 92.6598 48.632 92.7078 48.696C92.7718 48.744 92.8038 48.808 92.8038 48.888V50.712C92.8038 50.792 92.7718 50.864 92.7078 50.928C92.6598 50.976 92.5958 51 92.5158 51H81.7158C81.6358 51 81.5638 50.976 81.4998 50.928C81.4518 50.864 81.4278 50.792 81.4278 50.712V34.488C81.4278 34.408 81.4518 34.344 81.4998 34.296C81.5638 34.232 81.6358 34.2 81.7158 34.2H92.5158C92.5958 34.2 92.6598 34.232 92.7078 34.296C92.7718 34.344 92.8038 34.408 92.8038 34.488V36.312Z" fill="#112D44"/>
</svg>
