<svg width="152" height="40" viewBox="0 0 152 40" fill="none" xmlns="http://www.w3.org/2000/svg">
<g id="Browd Compose" clip-path="url(#clip0_3535_6796)">
<g id="Layer 2">
<g id="Layer 1">
<path id="Vector" d="M3.61294 11.3848H0V0H10.5724V3.89058H3.61294V11.3848Z" fill="#2B2E5F"/>
<path id="Vector_2" d="M10.5724 40.0001H0V28.6152H3.61294V36.1116H10.5724V40.0001Z" fill="#2B2E5F"/>
<path id="Vector_3" d="M58.9943 11.3848H55.3813V3.89058H48.4199V0H58.9943V11.3848Z" fill="#2B2E5F"/>
<path id="Vector_4" d="M58.9943 40.0001H48.4199V36.1116H55.3813V28.6152H58.9943V40.0001Z" fill="#2B2E5F"/>
<path id="Vector_5" d="M45.2465 28.3582L37.3405 20.001L45.2465 11.6417L42.2559 8.36353L31.248 20.001L42.2559 31.6364L45.2465 28.3582Z" fill="#28E895"/>
<path id="Vector_6" d="M50.388 22.8469C51.8478 21.2749 51.8478 18.7261 50.388 17.154C48.9281 15.582 46.5612 15.582 45.1013 17.154C43.6415 18.7261 43.6415 21.2749 45.1013 22.8469C46.5612 24.419 48.9281 24.419 50.388 22.8469Z" fill="#28E895"/>
<path id="Vector_7" d="M13.748 28.3582L21.654 20.001L13.748 11.6417L16.7386 8.36353L27.7465 20.001L16.7386 31.6364L13.748 28.3582Z" fill="#28E895"/>
<path id="Vector_8" d="M13.8938 22.846C15.3537 21.2739 15.3537 18.7251 13.8938 17.1531C12.434 15.581 10.067 15.581 8.60718 17.1531C7.14732 18.7251 7.14732 21.2739 8.60718 22.846C10.067 24.418 12.434 24.418 13.8938 22.846Z" fill="#28E895"/>
<path id="Vector_9" d="M75.8286 16.9157C74.9412 16.9289 74.0607 16.7478 73.2403 16.3834C72.42 16.019 71.677 15.4789 71.0564 14.7959C70.4168 14.1308 69.9104 13.3317 69.5685 12.4479C69.2265 11.5642 69.0562 10.6143 69.068 9.65698C69.0568 8.69718 69.2273 7.74499 69.5692 6.85852C69.9111 5.97204 70.4171 5.16987 71.0564 4.50094C71.6741 3.81242 72.4162 3.26728 73.2369 2.89905C74.0576 2.53081 74.9396 2.34728 75.8286 2.35972V2.39612C77.618 2.39967 79.336 3.15301 80.6186 4.49665L78.7078 6.55436C78.3347 6.14223 77.888 5.81589 77.3944 5.59506C76.9009 5.37424 76.3709 5.26353 75.8365 5.26963C75.3031 5.25993 74.7736 5.36904 74.2812 5.59012C73.7888 5.8112 73.3442 6.13948 72.9752 6.55436C72.5926 6.95572 72.2896 7.43649 72.0846 7.96757C71.8795 8.49865 71.7766 9.069 71.7821 9.64413C71.7746 10.2199 71.8766 10.7912 72.0817 11.3229C72.2869 11.8547 72.591 12.3356 72.9752 12.736C73.7371 13.5544 74.7693 14.014 75.8455 14.014C76.9216 14.014 77.9538 13.5544 78.7157 12.736L80.6266 14.7916C79.9972 15.4699 79.2489 16.007 78.4253 16.3716C77.6017 16.7362 76.719 16.9211 75.8286 16.9157Z" fill="#2B2E5F"/>
<path id="Vector_10" d="M81.7832 2.45167H86.1338C86.7762 2.43669 87.415 2.55814 88.0138 2.80907C88.6126 3.06 89.1595 3.4355 89.6235 3.91412C90.4348 4.78774 90.914 5.58427 90.914 7.17305V7.54776C90.9094 8.53043 90.6156 9.48624 90.0749 10.2778C89.7 10.9015 89.1389 11.369 88.4842 11.6032L91.5861 16.8064H88.2992L84.4715 10.4598V16.8106H81.7912L81.7832 2.45167ZM88.1461 7.26298C88.1469 7.00639 88.1004 6.75218 88.0093 6.5151C87.9182 6.27802 87.7842 6.06279 87.6152 5.8819C87.2692 5.51789 86.6091 5.31234 85.9628 5.31234H84.4576V9.27572H85.5015H86.3963C87.3667 9.28429 88.1521 8.35072 88.1521 7.26298H88.1461Z" fill="#2B2E5F"/>
<path id="Vector_11" d="M103.775 4.48376C104.416 5.15146 104.923 5.95341 105.265 6.84017C105.607 7.72693 105.776 8.67972 105.763 9.6398C105.777 10.5974 105.607 11.5478 105.265 12.4319C104.923 13.3159 104.416 14.1148 103.775 14.7787C102.503 16.1366 100.785 16.8985 98.9938 16.8985C97.2028 16.8985 95.4844 16.1366 94.2126 14.7787C93.573 14.1136 93.0667 13.3146 92.7247 12.4308C92.3827 11.547 92.2124 10.5972 92.2242 9.6398C92.213 8.68 92.3836 7.72781 92.7255 6.84134C93.0673 5.95486 93.5733 5.15269 94.2126 4.48376C94.8383 3.80341 95.5829 3.26335 96.4036 2.89477C97.2242 2.5262 98.1046 2.33643 98.9938 2.33643C99.8829 2.33643 100.763 2.5262 101.584 2.89477C102.405 3.26335 103.149 3.80341 103.775 4.48376ZM96.1235 6.5329C95.7406 6.93404 95.4375 7.41476 95.2324 7.94589C95.0273 8.47702 94.9246 9.04749 94.9304 9.62267C94.9539 10.7658 95.3921 11.8536 96.1512 12.6532C96.9103 13.4527 97.9299 13.9004 98.9918 13.9004C100.054 13.9004 101.073 13.4527 101.832 12.6532C102.591 11.8536 103.03 10.7658 103.053 9.62267C103.061 9.04724 102.959 8.47625 102.753 7.94487C102.548 7.41349 102.244 6.93297 101.86 6.5329C101.484 6.12639 101.038 5.80383 100.546 5.58373C100.054 5.36362 99.5264 5.25032 98.9938 5.25032C98.4611 5.25032 97.9337 5.36362 97.4418 5.58373C96.9499 5.80383 96.5033 6.12639 96.1275 6.5329H96.1235Z" fill="#2B2E5F"/>
<path id="Vector_12" d="M108.338 2.45166L110.804 9.24787L113.276 2.45166L115.741 9.24787L118.197 2.45166H121.094L115.741 17.1297L113.244 9.98659L110.804 17.1297L105.453 2.45166H108.338Z" fill="#2B2E5F"/>
<path id="Vector_13" d="M125.799 2.45167C126.701 2.43781 127.596 2.61735 128.432 2.97982C129.269 3.3423 130.03 3.88045 130.671 4.56291C131.864 5.84764 132.46 7.54134 132.46 9.64401C132.46 11.7467 131.864 13.4347 130.671 14.708C129.359 16.1083 127.735 16.8092 125.799 16.8106H122.25V2.46452H125.799V2.45167ZM125.799 5.31233H124.932V13.9329H125.825C128.229 13.9329 129.802 12.2199 129.802 9.6226C129.802 7.0253 128.191 5.31233 125.789 5.31233H125.799Z" fill="#2B2E5F"/>
<path id="Vector_14" d="M75.828 33.8869C74.9406 33.8886 74.0615 33.7018 73.2413 33.3372C72.421 32.9726 71.6755 32.4374 71.0475 31.7621C70.4196 31.0869 69.9214 30.2849 69.5817 29.4021C69.2419 28.5194 69.0671 27.5731 69.0674 26.6175C69.0695 24.6854 69.7818 22.8327 71.0486 21.4645C72.3155 20.0963 74.0338 19.3238 75.828 19.3159V19.3502C77.6238 19.3589 79.3455 20.1227 80.626 21.4785L78.7152 23.5362C78.3424 23.1243 77.896 22.798 77.4028 22.5772C76.9096 22.3564 76.38 22.2456 75.8459 22.2515C75.3122 22.2416 74.7823 22.3507 74.2896 22.5718C73.7968 22.7928 73.3519 23.1212 72.9826 23.5362C72.5999 23.9379 72.2968 24.4191 72.0917 24.9505C71.8867 25.482 71.7839 26.0527 71.7895 26.6282C71.7905 27.4925 72.0294 28.3372 72.4762 29.0553C72.9229 29.7734 73.5574 30.3328 74.2993 30.6626C75.0413 30.9924 75.8574 31.0779 76.6445 30.9082C77.4316 30.7385 78.1542 30.3213 78.7211 29.7094L80.632 31.7671C80.0012 32.445 79.2519 32.9815 78.4272 33.3453C77.6026 33.7092 76.7191 33.8933 75.828 33.8869Z" fill="#2B2E5F"/>
<path id="Vector_15" d="M91.8152 21.4614C92.4473 22.1359 92.949 22.9385 93.2913 23.823C93.6337 24.7074 93.81 25.6561 93.81 26.6143C93.81 27.5725 93.6337 28.5212 93.2913 29.4056C92.949 30.29 92.4473 31.0926 91.8152 31.7671C90.8698 32.7867 89.6647 33.4813 88.3525 33.7629C87.0403 34.0445 85.68 33.9005 84.4439 33.3491C83.2077 32.7977 82.1513 31.8637 81.4084 30.6654C80.6655 29.4671 80.2695 28.0583 80.2705 26.6175C80.2683 25.1761 80.6634 23.7664 81.4059 22.5671C82.1484 21.3678 83.2047 20.4328 84.4411 19.8806C85.6775 19.3284 87.0383 19.1839 88.3511 19.4653C89.6638 19.7467 90.8695 20.4415 91.8152 21.4614ZM84.1658 23.5106C83.4277 24.334 83.0191 25.4365 83.0281 26.5809C83.037 27.7254 83.4626 28.8203 84.2135 29.6303C84.9644 30.4403 85.9804 30.9005 87.0432 30.9121C88.1059 30.9237 89.1305 30.4857 89.8964 29.6923C90.2849 29.2899 90.595 28.8081 90.8085 28.2752C91.0221 27.7423 91.135 27.1689 91.1404 26.5885C91.1459 26.0081 91.0439 25.4324 90.8403 24.8949C90.6368 24.3574 90.3358 23.8691 89.955 23.4583C89.5742 23.0475 89.1212 22.7226 88.6225 22.5025C88.1237 22.2823 87.5892 22.1715 87.0502 22.1764C86.5112 22.1812 85.9786 22.3017 85.4833 22.5308C84.9881 22.7599 84.5402 23.093 84.1658 23.5106Z" fill="#2B2E5F"/>
<path id="Vector_16" d="M101.482 28.7373L108.008 19.1018V33.7884H105.33V27.8358L101.482 33.555L97.6306 27.8358V33.7884H94.9482V19.0933L101.482 28.7373Z" fill="#2B2E5F"/>
<path id="Vector_17" d="M109.663 29.478V19.4314H114.344C115.585 19.4308 116.776 19.9602 117.655 20.9034C118.534 21.8466 119.03 23.1268 119.034 24.4632C119.046 25.1251 118.93 25.7822 118.692 26.3925C118.454 27.0028 118.1 27.5528 117.653 28.007C117.222 28.4808 116.707 28.8556 116.138 29.1085C115.57 29.3614 114.959 29.4871 114.344 29.478H112.345V33.7882H109.663V29.478ZM114.344 22.2899H112.345V26.6173H114.346C114.88 26.6173 115.392 26.3888 115.77 25.982C116.148 25.5752 116.36 25.0235 116.36 24.4483C116.36 23.873 116.148 23.3213 115.77 22.9145C115.392 22.5077 114.88 22.2792 114.346 22.2792L114.344 22.2899Z" fill="#2B2E5F"/>
<path id="Vector_18" d="M131.235 21.4613C131.866 22.1362 132.367 22.939 132.709 23.8233C133.051 24.7077 133.227 25.6562 133.227 26.6141C133.227 27.5721 133.051 28.5206 132.709 29.4049C132.367 30.2893 131.866 31.092 131.235 31.767C130.289 32.7821 129.085 33.4729 127.775 33.752C126.465 34.0311 125.107 33.886 123.873 33.3351C122.64 32.7843 121.585 31.8522 120.843 30.6567C120.1 29.4611 119.703 28.0555 119.702 26.6173C119.702 25.1786 120.098 23.7722 120.84 22.5756C121.582 21.379 122.637 20.446 123.87 19.8943C125.104 19.3427 126.462 19.1971 127.773 19.476C129.084 19.7549 130.289 20.4457 131.235 21.4613ZM123.584 23.5104C122.822 24.329 122.394 25.4398 122.393 26.5982C122.393 27.7567 122.819 28.8681 123.58 29.6878C124.34 30.5076 125.371 30.9686 126.447 30.9694C127.523 30.9702 128.555 30.5107 129.316 29.6921C129.693 29.2868 129.992 28.8055 130.196 28.2757C130.401 27.7459 130.506 27.1779 130.506 26.6043C130.507 26.0307 130.402 25.4626 130.198 24.9325C129.995 24.4024 129.697 23.9206 129.32 23.5147C128.944 23.1088 128.497 22.7867 128.005 22.5669C127.513 22.347 126.985 22.2336 126.453 22.2332C125.92 22.2328 125.392 22.3454 124.9 22.5645C124.408 22.7837 123.96 23.1051 123.584 23.5104Z" fill="#2B2E5F"/>
<path id="Vector_19" d="M138.089 30.962C138.829 30.962 139.646 30.3004 139.646 29.5039C139.646 28.1913 138.014 28.005 137.091 27.6646C135.465 27.0693 134.029 25.6325 134.029 23.6776C134.03 22.5692 134.422 21.5024 135.124 20.6924C135.827 19.8823 136.788 19.3892 137.815 19.3123C138.842 19.2355 139.858 19.5806 140.658 20.2782C141.458 20.9759 141.982 21.974 142.126 23.0717L139.465 23.6776C139.452 23.3008 139.303 22.9443 139.051 22.6828C138.799 22.4214 138.462 22.2753 138.112 22.2753C137.762 22.2753 137.426 22.4214 137.173 22.6828C136.921 22.9443 136.773 23.3008 136.759 23.6776C136.759 24.9623 138.28 25.3135 139.205 25.6047C140.889 26.1272 142.372 27.5061 142.372 29.506C142.372 31.9277 140.354 33.8826 138.109 33.8826C136.047 33.8826 134.184 32.2532 133.88 30.1162L136.54 29.506C136.54 30.3068 137.35 30.9599 138.101 30.9599L138.089 30.962Z" fill="#2B2E5F"/>
<path id="Vector_20" d="M151.568 19.395V22.2685H146.2V25.1613H150.218V28.0498H146.21V30.9447H151.578V33.8118H143.529V19.395H151.568Z" fill="#2B2E5F"/>
</g>
</g>
</g>
<defs>
<clipPath id="clip0_3535_6796">
<rect width="151.569" height="40" fill="white"/>
</clipPath>
</defs>
</svg>
