<svg width="103" height="52" viewBox="0 0 103 52" fill="none" xmlns="http://www.w3.org/2000/svg">
<path d="M19.0477 17.192C17.8477 17.192 16.7917 16.96 15.8797 16.496C14.9677 16.016 14.2637 15.352 13.7677 14.504C13.2717 13.656 13.0237 12.672 13.0237 11.552V5.624C13.0237 4.504 13.2717 3.52 13.7677 2.672C14.2637 1.824 14.9677 1.168 15.8797 0.704C16.7917 0.24 17.8477 0.0079999 19.0477 0.0079999C20.2317 0.0079999 21.2797 0.232 22.1917 0.68C23.1037 1.128 23.8077 1.76 24.3037 2.576C24.7997 3.392 25.0477 4.336 25.0477 5.408C25.0477 5.488 25.0157 5.56 24.9517 5.624C24.9037 5.672 24.8397 5.696 24.7597 5.696L22.5517 5.816C22.3597 5.816 22.2637 5.728 22.2637 5.552C22.2637 4.608 21.9677 3.848 21.3757 3.272C20.7997 2.696 20.0237 2.408 19.0477 2.408C18.0717 2.408 17.2877 2.696 16.6957 3.272C16.1037 3.848 15.8077 4.608 15.8077 5.552V11.672C15.8077 12.6 16.1037 13.352 16.6957 13.928C17.2877 14.504 18.0717 14.792 19.0477 14.792C20.0237 14.792 20.7997 14.512 21.3757 13.952C21.9677 13.376 22.2637 12.616 22.2637 11.672C22.2637 11.496 22.3597 11.408 22.5517 11.408L24.7597 11.504C24.8397 11.504 24.9037 11.528 24.9517 11.576C25.0157 11.624 25.0477 11.68 25.0477 11.744C25.0477 12.832 24.7997 13.792 24.3037 14.624C23.8077 15.44 23.1037 16.072 22.1917 16.52C21.2797 16.968 20.2317 17.192 19.0477 17.192ZM37.4653 17C37.3053 17 37.1933 16.928 37.1293 16.784L33.9613 9.872C33.9293 9.808 33.8813 9.776 33.8173 9.776H30.9373C30.8573 9.776 30.8173 9.816 30.8173 9.896V16.712C30.8173 16.792 30.7853 16.864 30.7213 16.928C30.6733 16.976 30.6093 17 30.5293 17H28.3213C28.2413 17 28.1693 16.976 28.1053 16.928C28.0573 16.864 28.0333 16.792 28.0333 16.712V0.487999C28.0333 0.408 28.0573 0.343999 28.1053 0.295999C28.1693 0.231999 28.2413 0.199999 28.3213 0.199999H34.9213C35.8973 0.199999 36.7613 0.407999 37.5133 0.823999C38.2653 1.224 38.8493 1.8 39.2653 2.552C39.6813 3.288 39.8893 4.136 39.8893 5.096C39.8893 6.2 39.6013 7.144 39.0253 7.928C38.4653 8.696 37.6813 9.232 36.6733 9.536C36.6413 9.536 36.6173 9.552 36.6013 9.584C36.5853 9.616 36.5853 9.648 36.6013 9.68L39.9853 16.664C40.0173 16.728 40.0333 16.776 40.0333 16.808C40.0333 16.936 39.9453 17 39.7693 17H37.4653ZM30.9373 2.6C30.8573 2.6 30.8173 2.64 30.8173 2.72V7.496C30.8173 7.576 30.8573 7.616 30.9373 7.616H34.5373C35.3053 7.616 35.9213 7.392 36.3853 6.944C36.8653 6.48 37.1053 5.872 37.1053 5.12C37.1053 4.368 36.8653 3.76 36.3853 3.296C35.9213 2.832 35.3053 2.6 34.5373 2.6H30.9373ZM48.44 17.24C47.24 17.24 46.176 17 45.248 16.52C44.32 16.024 43.6 15.328 43.088 14.432C42.592 13.536 42.344 12.504 42.344 11.336V5.864C42.344 4.712 42.6 3.696 43.112 2.816C43.624 1.92 44.336 1.232 45.248 0.751999C46.176 0.256 47.24 0.0079999 48.44 0.0079999C49.656 0.0079999 50.72 0.256 51.632 0.751999C52.56 1.232 53.28 1.92 53.792 2.816C54.304 3.696 54.56 4.712 54.56 5.864V11.336C54.56 12.504 54.304 13.536 53.792 14.432C53.28 15.328 52.56 16.024 51.632 16.52C50.72 17 49.656 17.24 48.44 17.24ZM48.44 14.84C49.448 14.84 50.256 14.528 50.864 13.904C51.472 13.28 51.776 12.456 51.776 11.432V5.84C51.776 4.8 51.472 3.968 50.864 3.344C50.256 2.72 49.448 2.408 48.44 2.408C47.448 2.408 46.648 2.72 46.04 3.344C45.432 3.968 45.128 4.8 45.128 5.84V11.432C45.128 12.456 45.432 13.28 46.04 13.904C46.648 14.528 47.448 14.84 48.44 14.84ZM60.953 17C60.777 17 60.665 16.92 60.617 16.76L56.249 0.511999L56.225 0.415999C56.225 0.271999 56.313 0.199999 56.489 0.199999H58.841C59.017 0.199999 59.129 0.279999 59.177 0.439999L61.913 11.384C61.929 11.432 61.953 11.456 61.985 11.456C62.017 11.456 62.041 11.432 62.057 11.384L64.673 0.439999C64.721 0.279999 64.825 0.199999 64.985 0.199999H67.289C67.465 0.199999 67.577 0.279999 67.625 0.439999L70.409 11.408C70.425 11.456 70.449 11.48 70.481 11.48C70.513 11.48 70.537 11.456 70.553 11.408L73.241 0.439999C73.289 0.279999 73.401 0.199999 73.577 0.199999H75.809C76.033 0.199999 76.121 0.303999 76.073 0.511999L71.921 16.76C71.873 16.92 71.761 17 71.585 17H69.353C69.177 17 69.065 16.92 69.017 16.76L66.209 5.312C66.193 5.264 66.169 5.24 66.137 5.24C66.105 5.224 66.081 5.248 66.065 5.312L63.377 16.76C63.329 16.92 63.225 17 63.065 17H60.953ZM78.5244 17C78.4444 17 78.3724 16.976 78.3084 16.928C78.2604 16.864 78.2364 16.792 78.2364 16.712V0.487999C78.2364 0.408 78.2604 0.343999 78.3084 0.295999C78.3724 0.231999 78.4444 0.199999 78.5244 0.199999H84.3804C85.5164 0.199999 86.5164 0.399999 87.3804 0.8C88.2444 1.2 88.9084 1.776 89.3724 2.528C89.8524 3.264 90.0924 4.128 90.0924 5.12V12.08C90.0924 13.072 89.8524 13.944 89.3724 14.696C88.9084 15.432 88.2444 16 87.3804 16.4C86.5164 16.8 85.5164 17 84.3804 17H78.5244ZM81.0204 14.48C81.0204 14.56 81.0604 14.6 81.1404 14.6H84.5004C85.3484 14.6 86.0204 14.336 86.5164 13.808C87.0284 13.264 87.2924 12.544 87.3084 11.648V5.576C87.3084 4.664 87.0524 3.944 86.5404 3.416C86.0284 2.872 85.3404 2.6 84.4764 2.6H81.1404C81.0604 2.6 81.0204 2.64 81.0204 2.72V14.48ZM6.71956 51.192C5.51956 51.192 4.46356 50.96 3.55156 50.496C2.63956 50.016 1.93556 49.352 1.43956 48.504C0.943563 47.656 0.695563 46.672 0.695563 45.552V39.624C0.695563 38.504 0.943563 37.52 1.43956 36.672C1.93556 35.824 2.63956 35.168 3.55156 34.704C4.46356 34.24 5.51956 34.008 6.71956 34.008C7.90356 34.008 8.95156 34.232 9.86356 34.68C10.7756 35.128 11.4796 35.76 11.9756 36.576C12.4716 37.392 12.7196 38.336 12.7196 39.408C12.7196 39.488 12.6876 39.56 12.6236 39.624C12.5756 39.672 12.5116 39.696 12.4316 39.696L10.2236 39.816C10.0316 39.816 9.93556 39.728 9.93556 39.552C9.93556 38.608 9.63956 37.848 9.04756 37.272C8.47156 36.696 7.69556 36.408 6.71956 36.408C5.74356 36.408 4.95956 36.696 4.36756 37.272C3.77556 37.848 3.47956 38.608 3.47956 39.552V45.672C3.47956 46.6 3.77556 47.352 4.36756 47.928C4.95956 48.504 5.74356 48.792 6.71956 48.792C7.69556 48.792 8.47156 48.512 9.04756 47.952C9.63956 47.376 9.93556 46.616 9.93556 45.672C9.93556 45.496 10.0316 45.408 10.2236 45.408L12.4316 45.504C12.5116 45.504 12.5756 45.528 12.6236 45.576C12.6876 45.624 12.7196 45.68 12.7196 45.744C12.7196 46.832 12.4716 47.792 11.9756 48.624C11.4796 49.44 10.7756 50.072 9.86356 50.52C8.95156 50.968 7.90356 51.192 6.71956 51.192ZM21.3931 51.24C20.1931 51.24 19.1291 51 18.2011 50.52C17.2731 50.024 16.5531 49.328 16.0411 48.432C15.5451 47.536 15.2971 46.504 15.2971 45.336V39.864C15.2971 38.712 15.5531 37.696 16.0651 36.816C16.5771 35.92 17.2891 35.232 18.2011 34.752C19.1291 34.256 20.1931 34.008 21.3931 34.008C22.6091 34.008 23.6731 34.256 24.5851 34.752C25.5131 35.232 26.2331 35.92 26.7451 36.816C27.2571 37.696 27.5131 38.712 27.5131 39.864V45.336C27.5131 46.504 27.2571 47.536 26.7451 48.432C26.2331 49.328 25.5131 50.024 24.5851 50.52C23.6731 51 22.6091 51.24 21.3931 51.24ZM21.3931 48.84C22.4011 48.84 23.2091 48.528 23.8171 47.904C24.4251 47.28 24.7291 46.456 24.7291 45.432V39.84C24.7291 38.8 24.4251 37.968 23.8171 37.344C23.2091 36.72 22.4011 36.408 21.3931 36.408C20.4011 36.408 19.6011 36.72 18.9931 37.344C18.3851 37.968 18.0811 38.8 18.0811 39.84V45.432C18.0811 46.456 18.3851 47.28 18.9931 47.904C19.6011 48.528 20.4011 48.84 21.3931 48.84ZM41.4354 34.392C41.5154 34.264 41.6274 34.2 41.7714 34.2H43.9794C44.0594 34.2 44.1234 34.232 44.1714 34.296C44.2354 34.344 44.2674 34.408 44.2674 34.488V50.712C44.2674 50.792 44.2354 50.864 44.1714 50.928C44.1234 50.976 44.0594 51 43.9794 51H41.7714C41.6914 51 41.6194 50.976 41.5554 50.928C41.5074 50.864 41.4834 50.792 41.4834 50.712V39.264C41.4834 39.216 41.4594 39.184 41.4114 39.168C41.3794 39.152 41.3554 39.168 41.3394 39.216L38.3394 43.824C38.2594 43.952 38.1474 44.016 38.0034 44.016H36.8994C36.7554 44.016 36.6434 43.952 36.5634 43.824L33.5394 39.24C33.5234 39.192 33.4914 39.176 33.4434 39.192C33.4114 39.208 33.3954 39.24 33.3954 39.288V50.712C33.3954 50.792 33.3634 50.864 33.2994 50.928C33.2514 50.976 33.1874 51 33.1074 51H30.8994C30.8194 51 30.7474 50.976 30.6834 50.928C30.6354 50.864 30.6114 50.792 30.6114 50.712V34.488C30.6114 34.408 30.6354 34.344 30.6834 34.296C30.7474 34.232 30.8194 34.2 30.8994 34.2H33.1074C33.2514 34.2 33.3634 34.264 33.4434 34.392L37.3554 40.32C37.3874 40.352 37.4194 40.368 37.4514 40.368C37.4834 40.368 37.5074 40.352 37.5234 40.32L41.4354 34.392ZM54.5116 34.176C55.5196 34.176 56.4076 34.384 57.1756 34.8C57.9436 35.216 58.5356 35.808 58.9516 36.576C59.3836 37.328 59.5996 38.2 59.5996 39.192C59.5996 40.168 59.3836 41.032 58.9516 41.784C58.5196 42.536 57.9036 43.12 57.1036 43.536C56.3196 43.936 55.4076 44.136 54.3676 44.136H50.5276C50.4476 44.136 50.4076 44.176 50.4076 44.256V50.712C50.4076 50.792 50.3756 50.864 50.3116 50.928C50.2636 50.976 50.1996 51 50.1196 51H47.9116C47.8316 51 47.7596 50.976 47.6956 50.928C47.6476 50.864 47.6236 50.792 47.6236 50.712V34.464C47.6236 34.384 47.6476 34.32 47.6956 34.272C47.7596 34.208 47.8316 34.176 47.9116 34.176H54.5116ZM54.1036 41.88C54.9196 41.88 55.5756 41.64 56.0716 41.16C56.5676 40.68 56.8156 40.048 56.8156 39.264C56.8156 38.464 56.5676 37.816 56.0716 37.32C55.5756 36.824 54.9196 36.576 54.1036 36.576H50.5276C50.4476 36.576 50.4076 36.616 50.4076 36.696V41.76C50.4076 41.84 50.4476 41.88 50.5276 41.88H54.1036ZM67.9211 51.192C66.7371 51.192 65.6891 50.96 64.7771 50.496C63.8651 50.032 63.1531 49.376 62.6411 48.528C62.1451 47.664 61.8971 46.672 61.8971 45.552V34.488C61.8971 34.408 61.9211 34.344 61.9691 34.296C62.0331 34.232 62.1051 34.2 62.1851 34.2H64.3931C64.4731 34.2 64.5371 34.232 64.5851 34.296C64.6491 34.344 64.6811 34.408 64.6811 34.488V45.6C64.6811 46.544 64.9771 47.312 65.5691 47.904C66.1611 48.496 66.9451 48.792 67.9211 48.792C68.8971 48.792 69.6811 48.496 70.2731 47.904C70.8651 47.312 71.1611 46.544 71.1611 45.6V34.488C71.1611 34.408 71.1851 34.344 71.2331 34.296C71.2971 34.232 71.3691 34.2 71.4491 34.2H73.6571C73.7371 34.2 73.8011 34.232 73.8491 34.296C73.9131 34.344 73.9451 34.408 73.9451 34.488V45.552C73.9451 46.672 73.6971 47.664 73.2011 48.528C72.7051 49.376 72.0011 50.032 71.0891 50.496C70.1771 50.96 69.1211 51.192 67.9211 51.192ZM88.3389 34.2C88.4189 34.2 88.4829 34.232 88.5309 34.296C88.5949 34.344 88.6269 34.408 88.6269 34.488V36.336C88.6269 36.416 88.5949 36.488 88.5309 36.552C88.4829 36.6 88.4189 36.624 88.3389 36.624H83.9229C83.8429 36.624 83.8029 36.664 83.8029 36.744V50.712C83.8029 50.792 83.7709 50.864 83.7069 50.928C83.6589 50.976 83.5949 51 83.5149 51H81.3069C81.2269 51 81.1549 50.976 81.0909 50.928C81.0429 50.864 81.0189 50.792 81.0189 50.712V36.744C81.0189 36.664 80.9789 36.624 80.8989 36.624H76.6509C76.5709 36.624 76.4989 36.6 76.4349 36.552C76.3869 36.488 76.3629 36.416 76.3629 36.336V34.488C76.3629 34.408 76.3869 34.344 76.4349 34.296C76.4989 34.232 76.5709 34.2 76.6509 34.2H88.3389ZM102.573 36.312C102.573 36.392 102.541 36.464 102.477 36.528C102.429 36.576 102.365 36.6 102.285 36.6H94.1013C94.0213 36.6 93.9813 36.64 93.9813 36.72V41.208C93.9813 41.288 94.0213 41.328 94.1013 41.328H99.5973C99.6773 41.328 99.7413 41.36 99.7893 41.424C99.8533 41.472 99.8853 41.536 99.8853 41.616V43.44C99.8853 43.52 99.8533 43.592 99.7893 43.656C99.7413 43.704 99.6773 43.728 99.5973 43.728H94.1013C94.0213 43.728 93.9813 43.768 93.9813 43.848V48.48C93.9813 48.56 94.0213 48.6 94.1013 48.6H102.285C102.365 48.6 102.429 48.632 102.477 48.696C102.541 48.744 102.573 48.808 102.573 48.888V50.712C102.573 50.792 102.541 50.864 102.477 50.928C102.429 50.976 102.365 51 102.285 51H91.4853C91.4053 51 91.3333 50.976 91.2693 50.928C91.2213 50.864 91.1973 50.792 91.1973 50.712V34.488C91.1973 34.408 91.2213 34.344 91.2693 34.296C91.3333 34.232 91.4053 34.2 91.4853 34.2H102.285C102.365 34.2 102.429 34.232 102.477 34.296C102.541 34.344 102.573 34.408 102.573 34.488V36.312Z" fill="#112D44"/>
</svg>
