<svg xmlns="http://www.w3.org/2000/svg" width="126" height="30" viewBox="0 0 126 30" fill="none">
    <path d="M39.2305 20.415V10.126H43.5442C45.0893 10.126 46.253 10.5227 47.0354 11.3161C47.8178 12.1095 48.209 13.4436 48.209 15.3183C48.209 17.0864 47.8244 18.3782 47.0552 19.1936C46.286 20.0089 45.1167 20.4161 43.5475 20.415H39.2305ZM41.3882 18.7534H43.2409C43.7658 18.7692 44.2881 18.6743 44.7739 18.4749C45.2075 18.2693 45.5431 17.9017 45.7085 17.4513C45.9162 16.9567 46.02 16.2458 46.02 15.3183C46.02 14.3908 45.9233 13.6804 45.7299 13.187C45.6553 12.9688 45.5376 12.7678 45.3839 12.5959C45.2301 12.424 45.0434 12.2848 44.8349 12.1864C44.3266 11.9879 43.7829 11.8959 43.2376 11.9161H41.3849L41.3882 18.7534Z" fill="#243E86"/>
    <path d="M50.667 20.415V10.126H58.0483V11.804H52.823V14.4414H57.4566V16.1013H52.823V18.7534H58.0483V20.415H50.667Z" fill="#243E86"/>
    <path d="M63.8815 20.415L59.9502 10.126H62.2035L65.0469 18.0034L67.9134 10.126H70.1667L66.2518 20.415H63.8815Z" fill="#243E86"/>
    <path d="M72.8271 20.415V10.126H77.5876C78.5997 10.126 79.3425 10.3628 79.8162 10.8364C80.2898 11.31 80.5271 11.9787 80.5282 12.8425C80.5455 13.3366 80.4263 13.8259 80.1837 14.2567C79.9598 14.6299 79.629 14.9273 79.2343 15.1106C79.7174 15.2157 80.1524 15.4769 80.4722 15.854C80.7799 16.2221 80.9337 16.7617 80.9337 17.4727C80.9337 18.4738 80.6728 19.2139 80.1508 19.693C79.6288 20.1721 78.8596 20.4117 77.8431 20.4117L72.8271 20.415ZM74.1376 14.6309H77.5085C78.1579 14.6309 78.6184 14.4743 78.8898 14.1611C79.1716 13.8175 79.3165 13.382 79.2969 12.9381C79.2969 12.3414 79.1585 11.8914 78.8815 11.5881C78.6046 11.2848 78.0667 11.1331 77.2678 11.1331H74.1359L74.1376 14.6309ZM74.1376 19.4243H77.6206C78.3112 19.4243 78.8189 19.2727 79.137 18.9694C79.4552 18.6661 79.6167 18.1452 79.6167 17.4282C79.6167 16.8315 79.4596 16.3815 79.1453 16.0782C78.831 15.7749 78.2535 15.6227 77.4129 15.6216H74.1376V19.4243Z" fill="#243E86"/>
    <path d="M88.23 20.5746C86.6212 20.5746 85.4278 20.1515 84.6498 19.3054C83.8717 18.4592 83.4833 17.1142 83.4844 15.2702C83.4844 13.4274 83.8728 12.0829 84.6498 11.2367C85.4267 10.3905 86.6201 9.96692 88.23 9.96582C89.8487 9.96582 91.0443 10.3894 91.8168 11.2367C92.5893 12.084 92.9739 13.4285 92.9706 15.2702C92.9706 17.1131 92.586 18.4581 91.8168 19.3054C91.0476 20.1526 89.852 20.5757 88.23 20.5746ZM88.23 19.457C88.8947 19.4814 89.5554 19.344 90.1553 19.0565C90.6799 18.7681 91.0827 18.2997 91.2893 17.7378C91.5382 17.1246 91.6651 16.3021 91.6651 15.2653C91.6651 14.2285 91.5382 13.4092 91.2893 12.7927C91.0824 12.231 90.6797 11.7627 90.1553 11.4741C89.5475 11.211 88.8923 11.0752 88.23 11.0752C87.5677 11.0752 86.9125 11.211 86.3047 11.4741C85.7793 11.7621 85.3759 12.2305 85.169 12.7927C84.9184 13.4037 84.7937 14.2279 84.7948 15.2653C84.7959 16.3026 84.9206 17.1268 85.169 17.7378C85.3752 18.3005 85.7788 18.7691 86.3047 19.0565C86.905 19.342 87.5658 19.4772 88.23 19.4504V19.457Z" fill="#243E86"/>
    <path d="M94.6523 20.415L98.5721 10.126H100.105L104.003 20.415H102.662L101.575 17.5881H97.0969L96.0106 20.415H94.6523ZM97.321 16.5496H101.331L99.3172 11.26L97.321 16.5496Z" fill="#243E86"/>
    <path d="M106.874 20.415V10.126H111.395C112.503 10.126 113.31 10.4139 113.815 10.9897C114.321 11.5655 114.574 12.343 114.575 13.3221C114.6 13.9934 114.407 14.6548 114.023 15.2062C113.619 15.7307 113.036 16.089 112.386 16.2133C112.581 16.3219 112.75 16.4722 112.881 16.6534C113.015 16.8622 113.13 17.0829 113.223 17.3128L114.565 20.4117H113.223L111.905 17.4249C111.805 17.1552 111.634 16.9176 111.41 16.7375C111.212 16.5991 110.865 16.5298 110.364 16.5298H108.184V20.4117L106.874 20.415ZM108.193 15.5095H111.036C111.728 15.5095 112.274 15.3447 112.673 14.9903C113.072 14.6359 113.273 14.0886 113.273 13.3221C113.273 11.8837 112.586 11.1644 111.212 11.1644H108.184L108.193 15.5095Z" fill="#243E86"/>
    <path d="M117.449 20.415V10.126H121.483C122.974 10.126 124.066 10.5309 124.758 11.3408C125.45 12.1507 125.794 13.4804 125.79 15.3298C125.79 17.0881 125.452 18.3743 124.776 19.1886C124.1 20.0029 123.001 20.41 121.479 20.41L117.449 20.415ZM118.768 19.393H121.24C121.861 19.414 122.48 19.3016 123.054 19.0633C123.558 18.8191 123.945 18.3854 124.132 17.8567C124.365 17.271 124.481 16.4287 124.479 15.3298C124.478 14.2309 124.368 13.3842 124.15 12.7897C123.984 12.2458 123.61 11.7892 123.11 11.5188C122.637 11.2793 122.012 11.1595 121.234 11.1595H118.761L118.768 19.393Z" fill="#243E86"/>
    <path d="M26.9769 30H0V27.2637H24.2407V16.7522C24.2407 13.0363 22.7645 9.4725 20.1369 6.84493C17.5094 4.21736 13.9456 2.74121 10.2297 2.74121H8.86154V3.24397e-07H10.2198C12.4201 -0.000432643 14.5989 0.432544 16.6318 1.27421C18.6648 2.11587 20.512 3.34973 22.0681 4.90534C23.6242 6.46095 24.8586 8.30783 25.7008 10.3405C26.5431 12.3732 26.9767 14.5519 26.9769 16.7522V30Z" fill="#243E86"/>
    <path d="M17.8896 20.911H0V0H2.73626V18.1764H15.1533V16.7522C15.152 15.4446 14.6316 14.191 13.7066 13.2669C12.7815 12.3427 11.5274 11.8236 10.2198 11.8236H8.85165V9.08736H10.2198C12.2517 9.08998 14.1996 9.89842 15.6362 11.3353C17.0728 12.7722 17.8808 14.7203 17.883 16.7522L17.8896 20.911Z" fill="#243E86"/>
    </svg>