<svg width="108" height="18" viewBox="0 0 108 18" fill="none" xmlns="http://www.w3.org/2000/svg">
<path d="M1.04391 17C0.963906 17 0.891906 16.976 0.827906 16.928C0.779906 16.864 0.755906 16.792 0.755906 16.712V0.487999C0.755906 0.408 0.779906 0.343999 0.827906 0.295999C0.891906 0.231999 0.963906 0.199999 1.04391 0.199999H6.89991C8.03591 0.199999 9.03591 0.399999 9.89991 0.8C10.7639 1.2 11.4279 1.776 11.8919 2.528C12.3719 3.264 12.6119 4.128 12.6119 5.12V12.08C12.6119 13.072 12.3719 13.944 11.8919 14.696C11.4279 15.432 10.7639 16 9.89991 16.4C9.03591 16.8 8.03591 17 6.89991 17H1.04391ZM3.53991 14.48C3.53991 14.56 3.57991 14.6 3.65991 14.6H7.01991C7.86791 14.6 8.53991 14.336 9.03591 13.808C9.54791 13.264 9.81191 12.544 9.82791 11.648V5.576C9.82791 4.664 9.57191 3.944 9.05991 3.416C8.54791 2.872 7.85991 2.6 6.99591 2.6H3.65991C3.57991 2.6 3.53991 2.64 3.53991 2.72V14.48ZM15.8798 17C15.7998 17 15.7278 16.976 15.6638 16.928C15.6158 16.864 15.5918 16.792 15.5918 16.712V0.487999C15.5918 0.408 15.6158 0.343999 15.6638 0.295999C15.7278 0.231999 15.7998 0.199999 15.8798 0.199999H18.0878C18.1678 0.199999 18.2318 0.231999 18.2798 0.295999C18.3438 0.343999 18.3758 0.408 18.3758 0.487999V16.712C18.3758 16.792 18.3438 16.864 18.2798 16.928C18.2318 16.976 18.1678 17 18.0878 17H15.8798ZM27.2971 17.192C26.0491 17.192 24.9611 16.992 24.0331 16.592C23.1051 16.192 22.3851 15.632 21.8731 14.912C21.3771 14.192 21.1291 13.344 21.1291 12.368V11.768C21.1291 11.688 21.1531 11.624 21.2011 11.576C21.2651 11.512 21.3371 11.48 21.4171 11.48H23.5531C23.6331 11.48 23.6971 11.512 23.7451 11.576C23.8091 11.624 23.8411 11.688 23.8411 11.768V12.224C23.8411 12.96 24.1691 13.576 24.8251 14.072C25.4811 14.552 26.3771 14.792 27.5131 14.792C28.4891 14.792 29.2251 14.584 29.7211 14.168C30.2171 13.752 30.4651 13.216 30.4651 12.56C30.4651 12.112 30.3291 11.736 30.0571 11.432C29.7851 11.112 29.3931 10.824 28.8811 10.568C28.3851 10.312 27.6331 9.992 26.6251 9.608C25.4891 9.192 24.5691 8.8 23.8651 8.432C23.1611 8.064 22.5691 7.568 22.0891 6.944C21.6251 6.304 21.3931 5.512 21.3931 4.568C21.3931 3.16 21.9051 2.048 22.9291 1.232C23.9531 0.416 25.3211 0.0079999 27.0331 0.0079999C28.2331 0.0079999 29.2891 0.216 30.2011 0.631999C31.1291 1.048 31.8491 1.632 32.3611 2.384C32.8731 3.12 33.1291 3.976 33.1291 4.952V5.36C33.1291 5.44 33.0971 5.512 33.0331 5.576C32.9851 5.624 32.9211 5.648 32.8411 5.648H30.6811C30.6011 5.648 30.5291 5.624 30.4651 5.576C30.4171 5.512 30.3931 5.44 30.3931 5.36V5.096C30.3931 4.344 30.0811 3.712 29.4571 3.2C28.8491 2.672 28.0011 2.408 26.9131 2.408C26.0331 2.408 25.3451 2.592 24.8491 2.96C24.3691 3.328 24.1291 3.848 24.1291 4.52C24.1291 5 24.2571 5.392 24.5131 5.696C24.7691 6 25.1531 6.28 25.6651 6.536C26.1771 6.776 26.9691 7.088 28.0411 7.472C29.1771 7.904 30.0811 8.296 30.7531 8.648C31.4411 9 32.0251 9.496 32.5051 10.136C33.0011 10.76 33.2491 11.544 33.2491 12.488C33.2491 13.928 32.7131 15.072 31.6411 15.92C30.5851 16.768 29.1371 17.192 27.2971 17.192ZM45.4368 8.24C45.3408 8.288 45.3408 8.336 45.4368 8.384C47.0688 9.152 47.8848 10.472 47.8848 12.344C47.8848 13.864 47.3728 15.024 46.3488 15.824C45.3408 16.608 44.0208 17 42.3888 17H36.3408C36.2608 17 36.1888 16.976 36.1248 16.928C36.0768 16.864 36.0528 16.792 36.0528 16.712V0.487999C36.0528 0.408 36.0768 0.343999 36.1248 0.295999C36.1888 0.231999 36.2608 0.199999 36.3408 0.199999H42.1968C43.9408 0.199999 45.2848 0.575999 46.2288 1.328C47.1728 2.08 47.6448 3.216 47.6448 4.736C47.6448 6.416 46.9088 7.584 45.4368 8.24ZM38.9568 2.6C38.8768 2.6 38.8368 2.64 38.8368 2.72V7.16C38.8368 7.24 38.8768 7.28 38.9568 7.28H42.1968C43.0448 7.28 43.7088 7.08 44.1888 6.68C44.6848 6.264 44.9328 5.696 44.9328 4.976C44.9328 4.24 44.6848 3.664 44.1888 3.248C43.7088 2.816 43.0448 2.6 42.1968 2.6H38.9568ZM42.3888 14.576C43.2208 14.576 43.8768 14.352 44.3568 13.904C44.8528 13.456 45.1008 12.848 45.1008 12.08C45.1008 11.296 44.8528 10.688 44.3568 10.256C43.8608 9.808 43.1888 9.584 42.3408 9.584H38.9568C38.8768 9.584 38.8368 9.624 38.8368 9.704V14.456C38.8368 14.536 38.8768 14.576 38.9568 14.576H42.3888ZM56.647 17.24C55.447 17.24 54.383 17 53.455 16.52C52.527 16.024 51.807 15.328 51.295 14.432C50.799 13.536 50.551 12.504 50.551 11.336V5.864C50.551 4.712 50.807 3.696 51.319 2.816C51.831 1.92 52.543 1.232 53.455 0.751999C54.383 0.256 55.447 0.0079999 56.647 0.0079999C57.863 0.0079999 58.927 0.256 59.839 0.751999C60.767 1.232 61.487 1.92 61.999 2.816C62.511 3.696 62.767 4.712 62.767 5.864V11.336C62.767 12.504 62.511 13.536 61.999 14.432C61.487 15.328 60.767 16.024 59.839 16.52C58.927 17 57.863 17.24 56.647 17.24ZM56.647 14.84C57.655 14.84 58.463 14.528 59.071 13.904C59.679 13.28 59.983 12.456 59.983 11.432V5.84C59.983 4.8 59.679 3.968 59.071 3.344C58.463 2.72 57.655 2.408 56.647 2.408C55.655 2.408 54.855 2.72 54.247 3.344C53.639 3.968 53.335 4.8 53.335 5.84V11.432C53.335 12.456 53.639 13.28 54.247 13.904C54.855 14.528 55.655 14.84 56.647 14.84ZM76.0469 17C75.8869 17 75.7829 16.92 75.7349 16.76L74.9429 14.192C74.9109 14.128 74.8709 14.096 74.8229 14.096H68.4869C68.4389 14.096 68.3989 14.128 68.3669 14.192L67.5749 16.76C67.5269 16.92 67.4229 17 67.2629 17H64.8629C64.7669 17 64.6949 16.976 64.6469 16.928C64.5989 16.864 64.5909 16.776 64.6229 16.664L69.8309 0.439999C69.8789 0.279999 69.9829 0.199999 70.1429 0.199999H73.1429C73.3029 0.199999 73.4069 0.279999 73.4549 0.439999L78.6869 16.664C78.7029 16.696 78.7109 16.736 78.7109 16.784C78.7109 16.928 78.6229 17 78.4469 17H76.0469ZM69.1109 11.768C69.0949 11.864 69.1269 11.912 69.2069 11.912H74.0789C74.1749 11.912 74.2069 11.864 74.1749 11.768L71.7029 3.728C71.6869 3.664 71.6629 3.632 71.6309 3.632C71.5989 3.632 71.5749 3.664 71.5589 3.728L69.1109 11.768ZM90.6254 17C90.4654 17 90.3534 16.928 90.2894 16.784L87.1214 9.872C87.0894 9.808 87.0414 9.776 86.9774 9.776H84.0974C84.0174 9.776 83.9774 9.816 83.9774 9.896V16.712C83.9774 16.792 83.9454 16.864 83.8814 16.928C83.8334 16.976 83.7694 17 83.6894 17H81.4814C81.4014 17 81.3294 16.976 81.2654 16.928C81.2174 16.864 81.1934 16.792 81.1934 16.712V0.487999C81.1934 0.408 81.2174 0.343999 81.2654 0.295999C81.3294 0.231999 81.4014 0.199999 81.4814 0.199999H88.0814C89.0574 0.199999 89.9214 0.407999 90.6734 0.823999C91.4254 1.224 92.0094 1.8 92.4254 2.552C92.8414 3.288 93.0494 4.136 93.0494 5.096C93.0494 6.2 92.7614 7.144 92.1854 7.928C91.6254 8.696 90.8414 9.232 89.8334 9.536C89.8014 9.536 89.7774 9.552 89.7614 9.584C89.7454 9.616 89.7454 9.648 89.7614 9.68L93.1454 16.664C93.1774 16.728 93.1934 16.776 93.1934 16.808C93.1934 16.936 93.1054 17 92.9294 17H90.6254ZM84.0974 2.6C84.0174 2.6 83.9774 2.64 83.9774 2.72V7.496C83.9774 7.576 84.0174 7.616 84.0974 7.616H87.6974C88.4654 7.616 89.0814 7.392 89.5454 6.944C90.0254 6.48 90.2654 5.872 90.2654 5.12C90.2654 4.368 90.0254 3.76 89.5454 3.296C89.0814 2.832 88.4654 2.6 87.6974 2.6H84.0974ZM96.2002 17C96.1202 17 96.0482 16.976 95.9842 16.928C95.9362 16.864 95.9122 16.792 95.9122 16.712V0.487999C95.9122 0.408 95.9362 0.343999 95.9842 0.295999C96.0482 0.231999 96.1202 0.199999 96.2002 0.199999H102.056C103.192 0.199999 104.192 0.399999 105.056 0.8C105.92 1.2 106.584 1.776 107.048 2.528C107.528 3.264 107.768 4.128 107.768 5.12V12.08C107.768 13.072 107.528 13.944 107.048 14.696C106.584 15.432 105.92 16 105.056 16.4C104.192 16.8 103.192 17 102.056 17H96.2002ZM98.6962 14.48C98.6962 14.56 98.7362 14.6 98.8162 14.6H102.176C103.024 14.6 103.696 14.336 104.192 13.808C104.704 13.264 104.968 12.544 104.984 11.648V5.576C104.984 4.664 104.728 3.944 104.216 3.416C103.704 2.872 103.016 2.6 102.152 2.6H98.8162C98.7362 2.6 98.6962 2.64 98.6962 2.72V14.48Z" fill="#112D44"/>
</svg>
