<svg width="156" height="24" viewBox="0 0 156 24" fill="none" xmlns="http://www.w3.org/2000/svg">
<g id="Manthan DEx" clip-path="url(#clip0_3535_6728)">
<g id="Layer 2">
<g id="Layer 1">
<path id="Vector" d="M42.8535 6.15649H44.8262L49.2146 14.1879L53.4838 6.15649H55.4548V19.1704H53.3202V10.1909L50.2535 15.8831C50.1248 16.1252 49.9543 16.3426 49.75 16.5253C49.6005 16.651 49.4117 16.7202 49.2164 16.721H48.5974L44.9721 10.1909V19.1704H42.8535V6.15649Z" fill="#191235"/>
<path id="Vector_2" d="M58.0145 18.6048C57.7329 18.3753 57.5083 18.0837 57.3583 17.7529C57.2083 17.422 57.137 17.0609 57.1499 16.6979V16.0291C57.1392 15.6667 57.2155 15.307 57.3724 14.9801C57.5293 14.6533 57.7623 14.3688 58.0518 14.1506C58.6531 13.6763 59.4434 13.4391 60.423 13.4391H61.5757C61.9522 13.443 62.3268 13.4932 62.691 13.5885C63.0607 13.6766 63.4188 13.8073 63.7583 13.9781V12.8307C63.7653 12.6585 63.7358 12.4867 63.6718 12.3267C63.6077 12.1666 63.5105 12.022 63.3865 11.9022C63.2565 11.7822 63.1041 11.6891 62.9381 11.628C62.772 11.567 62.5956 11.5392 62.4188 11.5464H60.857C60.5055 11.5291 60.1584 11.6306 59.8715 11.8346C59.7537 11.9209 59.6583 12.0343 59.5936 12.1653C59.5289 12.2963 59.4967 12.441 59.4998 12.587H57.4185C57.4057 12.1931 57.4846 11.8016 57.6492 11.4435C57.8137 11.0853 58.0594 10.7704 58.3667 10.5236C58.9976 10.003 59.8277 9.74268 60.857 9.74268H62.4188C63.4612 9.74268 64.2979 10.0249 64.9288 10.5894C65.2428 10.8693 65.4908 11.2153 65.655 11.6026C65.8193 11.9898 65.8957 12.4087 65.8787 12.8289V19.1687H63.881V17.9982C63.5837 18.3949 63.203 18.7216 62.7657 18.9552C62.3626 19.1828 61.9087 19.3052 61.4458 19.311H60.302C59.3533 19.3169 58.5908 19.0815 58.0145 18.6048ZM61.5721 17.646C62.0515 17.6513 62.5203 17.505 62.9116 17.228C63.3006 16.9572 63.5934 16.5697 63.7476 16.1216V15.6751C63.4825 15.4769 63.1799 15.3347 62.8582 15.2571C62.4645 15.1505 62.0583 15.0973 61.6504 15.0987H60.4799C60.1559 15.084 59.837 15.1828 59.578 15.378C59.4679 15.4636 59.3795 15.5739 59.3198 15.7C59.2602 15.826 59.231 15.9644 59.2347 16.1038V16.625C59.2304 16.7683 59.2604 16.9106 59.3223 17.04C59.3842 17.1693 59.4762 17.282 59.5905 17.3685C59.8593 17.5643 60.1869 17.6622 60.519 17.646H61.5721Z" fill="#191235"/>
<path id="Vector_3" d="M67.6738 9.89381H69.6643V11.1016C69.9388 10.6909 70.3087 10.3528 70.7423 10.1162C71.1495 9.87935 71.6108 9.75132 72.0818 9.74438H73.2345C74.1832 9.74438 74.9481 10.048 75.5292 10.6551C76.1102 11.2623 76.3984 12.0622 76.3937 13.0548V19.1704H74.2591V13.1099C74.2768 12.7182 74.1545 12.3329 73.914 12.0231C73.8066 11.8879 73.6691 11.7795 73.5126 11.7067C73.3561 11.6338 73.1847 11.5984 73.0121 11.6033H71.8648C71.6224 11.6043 71.3827 11.6535 71.1595 11.7478C70.9363 11.8422 70.7341 11.9799 70.5644 12.1529C70.1727 12.5293 69.9115 13.0211 69.8191 13.5564V19.1704H67.6845L67.6738 9.89381Z" fill="#191235"/>
<path id="Vector_4" d="M79.8164 18.4644C79.3325 17.9948 79.0906 17.2495 79.0906 16.2337V11.7404H77.4541V9.89398H79.1458V7.08521H81.2288V9.89398H83.6462V11.7404H81.2288V16.159C81.2288 16.5682 81.3094 16.8646 81.4707 17.0484C81.5694 17.1479 81.6888 17.2245 81.8203 17.2727C81.9519 17.321 82.0924 17.3397 82.232 17.3277H83.6551V19.167H82.1306C81.0705 19.1694 80.299 18.9352 79.8164 18.4644Z" fill="#191235"/>
<path id="Vector_5" d="M85.1885 6.15649H87.3231V10.9344C87.6081 10.5748 87.9665 10.2801 88.3744 10.0699C88.7473 9.86383 89.165 9.75208 89.5911 9.7444H90.7811C91.7358 9.7444 92.5013 10.048 93.0776 10.6552C93.6539 11.2623 93.9421 12.0622 93.9421 13.0548V19.1704H91.8075V13.1099C91.8257 12.7184 91.704 12.3331 91.4642 12.0231C91.3568 11.8879 91.2194 11.7795 91.0628 11.7067C90.9063 11.6338 90.7349 11.5984 90.5623 11.6033H89.3723C88.8849 11.6029 88.4171 11.7946 88.0702 12.1369C87.676 12.5148 87.4151 13.0104 87.3266 13.5493V19.1633H85.192L85.1885 6.15649Z" fill="#191235"/>
<path id="Vector_6" d="M96.3162 18.6048C96.0346 18.3753 95.81 18.0837 95.66 17.7529C95.51 17.422 95.4387 17.0609 95.4517 16.6979V16.0291C95.4409 15.6667 95.5172 15.307 95.6741 14.9801C95.8311 14.6533 96.064 14.3688 96.3536 14.1506C96.9548 13.6763 97.7446 13.4391 98.723 13.4391H99.8756C100.253 13.443 100.628 13.4932 100.993 13.5885C101.362 13.6767 101.721 13.8075 102.06 13.9781V12.8307C102.068 12.6584 102.038 12.4865 101.974 12.3264C101.91 12.1663 101.813 12.0217 101.688 11.9022C101.559 11.7821 101.407 11.6889 101.241 11.6278C101.075 11.5667 100.899 11.5391 100.722 11.5464H99.1517C98.8001 11.5288 98.4529 11.6303 98.1662 11.8346C98.0481 11.9207 97.9526 12.0341 97.8879 12.1651C97.8231 12.2962 97.7911 12.4409 97.7944 12.587H95.7114C95.6989 12.1932 95.7781 11.8018 95.9426 11.4437C96.1071 11.0857 96.3526 10.7707 96.6595 10.5236C97.2928 10.003 98.1229 9.74268 99.1499 9.74268H100.712C101.752 9.74268 102.588 10.0249 103.222 10.5894C103.535 10.87 103.782 11.2162 103.946 11.6033C104.11 11.9904 104.186 12.4089 104.17 12.8289V19.1687H102.183V17.9982C101.884 18.3946 101.503 18.7211 101.066 18.9552C100.663 19.183 100.209 19.3054 99.7458 19.311H98.5931C97.6527 19.3169 96.8937 19.0815 96.3162 18.6048ZM99.8739 17.646C100.354 17.652 100.823 17.5057 101.215 17.228C101.605 16.9583 101.898 16.5704 102.051 16.1216V15.6751C101.786 15.4764 101.484 15.3341 101.162 15.2571C100.767 15.1505 100.361 15.0973 99.9521 15.0987H98.7817C98.4577 15.084 98.1387 15.1828 97.8798 15.378C97.7697 15.4636 97.6812 15.5739 97.6216 15.7C97.562 15.826 97.5328 15.9644 97.5365 16.1038V16.625C97.5324 16.7683 97.5626 16.9105 97.6245 17.0398C97.6863 17.1691 97.7781 17.2818 97.8923 17.3685C98.1617 17.5643 98.4899 17.6622 98.8226 17.646H99.8739Z" fill="#191235"/>
<path id="Vector_7" d="M105.976 9.89381H107.964V11.1016C108.239 10.6914 108.609 10.3533 109.042 10.1162C109.449 9.87935 109.911 9.75132 110.382 9.74438H111.533C112.488 9.74438 113.254 10.048 113.829 10.6551C114.404 11.2623 114.692 12.0622 114.694 13.0548V19.1704H112.559V13.1099C112.577 12.7185 112.455 12.3335 112.216 12.0231C112.108 11.8879 111.971 11.7795 111.814 11.7067C111.658 11.6338 111.486 11.5984 111.314 11.6033H110.161C109.92 11.6052 109.681 11.6547 109.458 11.7491C109.236 11.8434 109.034 11.9806 108.864 12.1529C108.473 12.5295 108.213 13.0213 108.121 13.5564V19.1704H105.986L105.976 9.89381Z" fill="#191235"/>
<path id="Vector_8" d="M121.733 18.7435C121.586 18.5951 121.471 18.4178 121.396 18.2227C121.32 18.0277 121.286 17.8192 121.295 17.6104V6.15648H127.228C128.111 6.13832 128.986 6.32589 129.784 6.70436C130.493 7.04536 131.087 7.58485 131.495 8.25728C131.906 8.9613 132.115 9.76527 132.098 10.5804V14.3747C132.098 15.9484 131.693 17.1414 130.882 17.9537C130.07 18.766 128.877 19.1716 127.303 19.1704H122.895C122.682 19.1799 122.47 19.147 122.271 19.0737C122.071 19.0004 121.889 18.8882 121.733 18.7435ZM127.247 17.2564C128.127 17.2564 128.794 17.0056 129.247 16.5039C129.7 16.0023 129.926 15.2677 129.925 14.3V10.6551C129.938 10.3076 129.877 9.9612 129.745 9.63912C129.614 9.31704 129.416 9.02667 129.163 8.78737C128.618 8.29871 127.904 8.04324 127.173 8.07584H123.473V17.2546L127.247 17.2564Z" fill="#191235"/>
<path id="Vector_9" d="M134.153 18.7346C134.006 18.5838 133.891 18.4046 133.816 18.2079C133.741 18.0112 133.706 17.8012 133.715 17.5908V6.15649H143.253V8.03494H135.891V11.5624H142.697V13.4639H135.891V17.2938H143.253V19.1704H135.314C135.101 19.1805 134.888 19.147 134.689 19.0721C134.489 18.9971 134.307 18.8823 134.153 18.7346Z" fill="#191235"/>
<path id="Vector_10" d="M148.125 12.5336L143.756 6.15649H146.209L149.37 10.7494L152.531 6.15649H154.966L150.598 12.5336L155.153 19.1704H152.698L149.37 14.3L146.024 19.1704H143.569L148.125 12.5336Z" fill="#191235"/>
<path id="Vector_11" d="M34.7192 0H1.42307C0.637128 0 0 0.637128 0 1.42307V22.5769C0 23.3629 0.637128 24 1.42307 24H34.7192C35.5052 24 36.1423 23.3629 36.1423 22.5769V1.42307C36.1423 0.637128 35.5052 0 34.7192 0Z" fill="#191235"/>
<path id="Vector_12" d="M18.0713 14.7446L24.4502 4.82764H11.6924L18.0713 14.7446Z" fill="white"/>
<path id="Vector_13" d="M10.8349 9.25L4.45605 19.1705H17.2138L10.8349 9.25Z" fill="white"/>
<path id="Vector_14" d="M25.3076 9.25L18.9287 19.1652H31.6865L25.3076 9.25Z" fill="white"/>
</g>
</g>
</g>
<defs>
<clipPath id="clip0_3535_6728">
<rect width="155.153" height="24" fill="white"/>
</clipPath>
</defs>
</svg>
