<svg width="151" height="52" viewBox="0 0 151 52" fill="none" xmlns="http://www.w3.org/2000/svg">
<path d="M54.244 0.391999C54.324 0.263999 54.436 0.199999 54.58 0.199999H56.788C56.868 0.199999 56.932 0.231999 56.98 0.295999C57.044 0.343999 57.076 0.408 57.076 0.487999V16.712C57.076 16.792 57.044 16.864 56.98 16.928C56.932 16.976 56.868 17 56.788 17H54.58C54.5 17 54.428 16.976 54.364 16.928C54.316 16.864 54.292 16.792 54.292 16.712V5.264C54.292 5.216 54.268 5.184 54.22 5.168C54.188 5.152 54.164 5.168 54.148 5.216L51.148 9.824C51.068 9.952 50.956 10.016 50.812 10.016H49.708C49.564 10.016 49.452 9.952 49.372 9.824L46.348 5.24C46.332 5.192 46.3 5.176 46.252 5.192C46.22 5.208 46.204 5.24 46.204 5.288V16.712C46.204 16.792 46.172 16.864 46.108 16.928C46.06 16.976 45.996 17 45.916 17H43.708C43.628 17 43.556 16.976 43.492 16.928C43.444 16.864 43.42 16.792 43.42 16.712V0.487999C43.42 0.408 43.444 0.343999 43.492 0.295999C43.556 0.231999 43.628 0.199999 43.708 0.199999H45.916C46.06 0.199999 46.172 0.263999 46.252 0.391999L50.164 6.32C50.196 6.352 50.228 6.368 50.26 6.368C50.292 6.368 50.316 6.352 50.332 6.32L54.244 0.391999ZM60.8642 17C60.7842 17 60.7122 16.976 60.6482 16.928C60.6002 16.864 60.5762 16.792 60.5762 16.712V0.487999C60.5762 0.408 60.6002 0.343999 60.6482 0.295999C60.7122 0.231999 60.7842 0.199999 60.8642 0.199999H63.0722C63.1522 0.199999 63.2162 0.231999 63.2642 0.295999C63.3282 0.343999 63.3602 0.408 63.3602 0.487999V16.712C63.3602 16.792 63.3282 16.864 63.2642 16.928C63.2162 16.976 63.1522 17 63.0722 17H60.8642ZM72.4735 17.192C71.2735 17.192 70.2175 16.96 69.3055 16.496C68.3935 16.016 67.6895 15.352 67.1935 14.504C66.6975 13.656 66.4495 12.672 66.4495 11.552V5.624C66.4495 4.504 66.6975 3.52 67.1935 2.672C67.6895 1.824 68.3935 1.168 69.3055 0.704C70.2175 0.24 71.2735 0.0079999 72.4735 0.0079999C73.6575 0.0079999 74.7055 0.232 75.6175 0.68C76.5295 1.128 77.2335 1.76 77.7295 2.576C78.2255 3.392 78.4735 4.336 78.4735 5.408C78.4735 5.488 78.4415 5.56 78.3775 5.624C78.3295 5.672 78.2655 5.696 78.1855 5.696L75.9775 5.816C75.7855 5.816 75.6895 5.728 75.6895 5.552C75.6895 4.608 75.3935 3.848 74.8015 3.272C74.2255 2.696 73.4495 2.408 72.4735 2.408C71.4975 2.408 70.7135 2.696 70.1215 3.272C69.5295 3.848 69.2335 4.608 69.2335 5.552V11.672C69.2335 12.6 69.5295 13.352 70.1215 13.928C70.7135 14.504 71.4975 14.792 72.4735 14.792C73.4495 14.792 74.2255 14.512 74.8015 13.952C75.3935 13.376 75.6895 12.616 75.6895 11.672C75.6895 11.496 75.7855 11.408 75.9775 11.408L78.1855 11.504C78.2655 11.504 78.3295 11.528 78.3775 11.576C78.4415 11.624 78.4735 11.68 78.4735 11.744C78.4735 12.832 78.2255 13.792 77.7295 14.624C77.2335 15.44 76.5295 16.072 75.6175 16.52C74.7055 16.968 73.6575 17.192 72.4735 17.192ZM90.891 17C90.731 17 90.619 16.928 90.555 16.784L87.387 9.872C87.355 9.808 87.307 9.776 87.243 9.776H84.363C84.283 9.776 84.243 9.816 84.243 9.896V16.712C84.243 16.792 84.211 16.864 84.147 16.928C84.099 16.976 84.035 17 83.955 17H81.747C81.667 17 81.595 16.976 81.531 16.928C81.483 16.864 81.459 16.792 81.459 16.712V0.487999C81.459 0.408 81.483 0.343999 81.531 0.295999C81.595 0.231999 81.667 0.199999 81.747 0.199999H88.347C89.323 0.199999 90.187 0.407999 90.939 0.823999C91.691 1.224 92.275 1.8 92.691 2.552C93.107 3.288 93.315 4.136 93.315 5.096C93.315 6.2 93.027 7.144 92.451 7.928C91.891 8.696 91.107 9.232 90.099 9.536C90.067 9.536 90.043 9.552 90.027 9.584C90.011 9.616 90.011 9.648 90.027 9.68L93.411 16.664C93.443 16.728 93.459 16.776 93.459 16.808C93.459 16.936 93.371 17 93.195 17H90.891ZM84.363 2.6C84.283 2.6 84.243 2.64 84.243 2.72V7.496C84.243 7.576 84.283 7.616 84.363 7.616H87.963C88.731 7.616 89.347 7.392 89.811 6.944C90.291 6.48 90.531 5.872 90.531 5.12C90.531 4.368 90.291 3.76 89.811 3.296C89.347 2.832 88.731 2.6 87.963 2.6H84.363ZM101.866 17.24C100.666 17.24 99.6018 17 98.6738 16.52C97.7458 16.024 97.0258 15.328 96.5138 14.432C96.0178 13.536 95.7698 12.504 95.7698 11.336V5.864C95.7698 4.712 96.0258 3.696 96.5378 2.816C97.0498 1.92 97.7618 1.232 98.6738 0.751999C99.6018 0.256 100.666 0.0079999 101.866 0.0079999C103.082 0.0079999 104.146 0.256 105.058 0.751999C105.986 1.232 106.706 1.92 107.218 2.816C107.73 3.696 107.986 4.712 107.986 5.864V11.336C107.986 12.504 107.73 13.536 107.218 14.432C106.706 15.328 105.986 16.024 105.058 16.52C104.146 17 103.082 17.24 101.866 17.24ZM101.866 14.84C102.874 14.84 103.682 14.528 104.29 13.904C104.898 13.28 105.202 12.456 105.202 11.432V5.84C105.202 4.8 104.898 3.968 104.29 3.344C103.682 2.72 102.874 2.408 101.866 2.408C100.874 2.408 100.074 2.72 99.4658 3.344C98.8578 3.968 98.5538 4.8 98.5538 5.84V11.432C98.5538 12.456 98.8578 13.28 99.4658 13.904C100.074 14.528 100.874 14.84 101.866 14.84ZM6.743 51.192C5.543 51.192 4.487 50.96 3.575 50.496C2.663 50.016 1.959 49.352 1.463 48.504C0.967 47.656 0.719 46.672 0.719 45.552V39.624C0.719 38.504 0.967 37.52 1.463 36.672C1.959 35.824 2.663 35.168 3.575 34.704C4.487 34.24 5.543 34.008 6.743 34.008C7.927 34.008 8.975 34.232 9.887 34.68C10.799 35.128 11.503 35.76 11.999 36.576C12.495 37.392 12.743 38.336 12.743 39.408C12.743 39.488 12.711 39.56 12.647 39.624C12.599 39.672 12.535 39.696 12.455 39.696L10.247 39.816C10.055 39.816 9.959 39.728 9.959 39.552C9.959 38.608 9.663 37.848 9.071 37.272C8.495 36.696 7.719 36.408 6.743 36.408C5.767 36.408 4.983 36.696 4.391 37.272C3.799 37.848 3.503 38.608 3.503 39.552V45.672C3.503 46.6 3.799 47.352 4.391 47.928C4.983 48.504 5.767 48.792 6.743 48.792C7.719 48.792 8.495 48.512 9.071 47.952C9.663 47.376 9.959 46.616 9.959 45.672C9.959 45.496 10.055 45.408 10.247 45.408L12.455 45.504C12.535 45.504 12.599 45.528 12.647 45.576C12.711 45.624 12.743 45.68 12.743 45.744C12.743 46.832 12.495 47.792 11.999 48.624C11.503 49.44 10.799 50.072 9.887 50.52C8.975 50.968 7.927 51.192 6.743 51.192ZM25.1606 51C25.0006 51 24.8886 50.928 24.8246 50.784L21.6566 43.872C21.6246 43.808 21.5766 43.776 21.5126 43.776H18.6326C18.5526 43.776 18.5126 43.816 18.5126 43.896V50.712C18.5126 50.792 18.4806 50.864 18.4166 50.928C18.3686 50.976 18.3046 51 18.2246 51H16.0166C15.9366 51 15.8646 50.976 15.8006 50.928C15.7526 50.864 15.7286 50.792 15.7286 50.712V34.488C15.7286 34.408 15.7526 34.344 15.8006 34.296C15.8646 34.232 15.9366 34.2 16.0166 34.2H22.6166C23.5926 34.2 24.4566 34.408 25.2086 34.824C25.9606 35.224 26.5446 35.8 26.9606 36.552C27.3766 37.288 27.5846 38.136 27.5846 39.096C27.5846 40.2 27.2966 41.144 26.7206 41.928C26.1606 42.696 25.3766 43.232 24.3686 43.536C24.3366 43.536 24.3126 43.552 24.2966 43.584C24.2806 43.616 24.2806 43.648 24.2966 43.68L27.6806 50.664C27.7126 50.728 27.7286 50.776 27.7286 50.808C27.7286 50.936 27.6406 51 27.4646 51H25.1606ZM18.6326 36.6C18.5526 36.6 18.5126 36.64 18.5126 36.72V41.496C18.5126 41.576 18.5526 41.616 18.6326 41.616H22.2326C23.0006 41.616 23.6166 41.392 24.0806 40.944C24.5606 40.48 24.8006 39.872 24.8006 39.12C24.8006 38.368 24.5606 37.76 24.0806 37.296C23.6166 36.832 23.0006 36.6 22.2326 36.6H18.6326ZM41.8233 36.312C41.8233 36.392 41.7913 36.464 41.7273 36.528C41.6793 36.576 41.6153 36.6 41.5353 36.6H33.3513C33.2713 36.6 33.2313 36.64 33.2313 36.72V41.208C33.2313 41.288 33.2713 41.328 33.3513 41.328H38.8473C38.9273 41.328 38.9913 41.36 39.0393 41.424C39.1033 41.472 39.1353 41.536 39.1353 41.616V43.44C39.1353 43.52 39.1033 43.592 39.0393 43.656C38.9913 43.704 38.9273 43.728 38.8473 43.728H33.3513C33.2713 43.728 33.2313 43.768 33.2313 43.848V48.48C33.2313 48.56 33.2713 48.6 33.3513 48.6H41.5353C41.6153 48.6 41.6793 48.632 41.7273 48.696C41.7913 48.744 41.8233 48.808 41.8233 48.888V50.712C41.8233 50.792 41.7913 50.864 41.7273 50.928C41.6793 50.976 41.6153 51 41.5353 51H30.7353C30.6553 51 30.5833 50.976 30.5193 50.928C30.4713 50.864 30.4473 50.792 30.4473 50.712V34.488C30.4473 34.408 30.4713 34.344 30.5193 34.296C30.5833 34.232 30.6553 34.2 30.7353 34.2H41.5353C41.6153 34.2 41.6793 34.232 41.7273 34.296C41.7913 34.344 41.8233 34.408 41.8233 34.488V36.312ZM44.9384 51C44.8584 51 44.7864 50.976 44.7224 50.928C44.6744 50.864 44.6504 50.792 44.6504 50.712V34.488C44.6504 34.408 44.6744 34.344 44.7224 34.296C44.7864 34.232 44.8584 34.2 44.9384 34.2H50.7944C51.9304 34.2 52.9304 34.4 53.7944 34.8C54.6584 35.2 55.3224 35.776 55.7864 36.528C56.2664 37.264 56.5064 38.128 56.5064 39.12V46.08C56.5064 47.072 56.2664 47.944 55.7864 48.696C55.3224 49.432 54.6584 50 53.7944 50.4C52.9304 50.8 51.9304 51 50.7944 51H44.9384ZM47.4344 48.48C47.4344 48.56 47.4744 48.6 47.5544 48.6H50.9144C51.7624 48.6 52.4344 48.336 52.9304 47.808C53.4424 47.264 53.7064 46.544 53.7224 45.648V39.576C53.7224 38.664 53.4664 37.944 52.9544 37.416C52.4424 36.872 51.7544 36.6 50.8904 36.6H47.5544C47.4744 36.6 47.4344 36.64 47.4344 36.72V48.48ZM70.8624 36.312C70.8624 36.392 70.8304 36.464 70.7664 36.528C70.7184 36.576 70.6544 36.6 70.5744 36.6H62.3904C62.3104 36.6 62.2704 36.64 62.2704 36.72V41.208C62.2704 41.288 62.3104 41.328 62.3904 41.328H67.8864C67.9664 41.328 68.0304 41.36 68.0784 41.424C68.1424 41.472 68.1744 41.536 68.1744 41.616V43.44C68.1744 43.52 68.1424 43.592 68.0784 43.656C68.0304 43.704 67.9664 43.728 67.8864 43.728H62.3904C62.3104 43.728 62.2704 43.768 62.2704 43.848V48.48C62.2704 48.56 62.3104 48.6 62.3904 48.6H70.5744C70.6544 48.6 70.7184 48.632 70.7664 48.696C70.8304 48.744 70.8624 48.808 70.8624 48.888V50.712C70.8624 50.792 70.8304 50.864 70.7664 50.928C70.7184 50.976 70.6544 51 70.5744 51H59.7744C59.6944 51 59.6224 50.976 59.5584 50.928C59.5104 50.864 59.4864 50.792 59.4864 50.712V34.488C59.4864 34.408 59.5104 34.344 59.5584 34.296C59.6224 34.232 59.6944 34.2 59.7744 34.2H70.5744C70.6544 34.2 70.7184 34.232 70.7664 34.296C70.8304 34.344 70.8624 34.408 70.8624 34.488V36.312ZM83.4575 34.488C83.4575 34.408 83.4815 34.344 83.5295 34.296C83.5935 34.232 83.6655 34.2 83.7455 34.2H85.9535C86.0335 34.2 86.0975 34.232 86.1455 34.296C86.2095 34.344 86.2415 34.408 86.2415 34.488V50.712C86.2415 50.792 86.2095 50.864 86.1455 50.928C86.0975 50.976 86.0335 51 85.9535 51H83.8175C83.6575 51 83.5455 50.936 83.4815 50.808L76.5695 39.48C76.5375 39.432 76.5055 39.416 76.4735 39.432C76.4415 39.432 76.4255 39.464 76.4255 39.528L76.4735 50.712C76.4735 50.792 76.4415 50.864 76.3775 50.928C76.3295 50.976 76.2655 51 76.1855 51H73.9775C73.8975 51 73.8255 50.976 73.7615 50.928C73.7135 50.864 73.6895 50.792 73.6895 50.712V34.488C73.6895 34.408 73.7135 34.344 73.7615 34.296C73.8255 34.232 73.8975 34.2 73.9775 34.2H76.1135C76.2735 34.2 76.3855 34.264 76.4495 34.392L83.3375 45.72C83.3695 45.768 83.4015 45.792 83.4335 45.792C83.4655 45.776 83.4815 45.736 83.4815 45.672L83.4575 34.488ZM100.784 34.2C100.864 34.2 100.928 34.232 100.976 34.296C101.04 34.344 101.072 34.408 101.072 34.488V36.336C101.072 36.416 101.04 36.488 100.976 36.552C100.928 36.6 100.864 36.624 100.784 36.624H96.3682C96.2882 36.624 96.2482 36.664 96.2482 36.744V50.712C96.2482 50.792 96.2162 50.864 96.1522 50.928C96.1042 50.976 96.0402 51 95.9602 51H93.7522C93.6722 51 93.6002 50.976 93.5362 50.928C93.4882 50.864 93.4642 50.792 93.4642 50.712V36.744C93.4642 36.664 93.4242 36.624 93.3442 36.624H89.0962C89.0162 36.624 88.9442 36.6 88.8802 36.552C88.8322 36.488 88.8082 36.416 88.8082 36.336V34.488C88.8082 34.408 88.8322 34.344 88.8802 34.296C88.9442 34.232 89.0162 34.2 89.0962 34.2H100.784ZM103.931 51C103.851 51 103.779 50.976 103.715 50.928C103.667 50.864 103.643 50.792 103.643 50.712V34.488C103.643 34.408 103.667 34.344 103.715 34.296C103.779 34.232 103.851 34.2 103.931 34.2H106.139C106.219 34.2 106.283 34.232 106.331 34.296C106.395 34.344 106.427 34.408 106.427 34.488V50.712C106.427 50.792 106.395 50.864 106.331 50.928C106.283 50.976 106.219 51 106.139 51H103.931ZM120.34 51C120.18 51 120.076 50.92 120.028 50.76L119.236 48.192C119.204 48.128 119.164 48.096 119.116 48.096H112.78C112.732 48.096 112.692 48.128 112.66 48.192L111.868 50.76C111.82 50.92 111.716 51 111.556 51H109.156C109.06 51 108.988 50.976 108.94 50.928C108.892 50.864 108.884 50.776 108.916 50.664L114.124 34.44C114.172 34.28 114.276 34.2 114.436 34.2H117.436C117.596 34.2 117.7 34.28 117.748 34.44L122.98 50.664C122.996 50.696 123.004 50.736 123.004 50.784C123.004 50.928 122.916 51 122.74 51H120.34ZM113.404 45.768C113.388 45.864 113.42 45.912 113.5 45.912H118.372C118.468 45.912 118.5 45.864 118.468 45.768L115.996 37.728C115.98 37.664 115.956 37.632 115.924 37.632C115.892 37.632 115.868 37.664 115.852 37.728L113.404 45.768ZM125.774 51C125.694 51 125.622 50.976 125.558 50.928C125.51 50.864 125.486 50.792 125.486 50.712V34.488C125.486 34.408 125.51 34.344 125.558 34.296C125.622 34.232 125.694 34.2 125.774 34.2H127.982C128.062 34.2 128.126 34.232 128.174 34.296C128.238 34.344 128.27 34.408 128.27 34.488V48.48C128.27 48.56 128.31 48.6 128.39 48.6H136.43C136.51 48.6 136.574 48.632 136.622 48.696C136.686 48.744 136.718 48.808 136.718 48.888V50.712C136.718 50.792 136.686 50.864 136.622 50.928C136.574 50.976 136.51 51 136.43 51H125.774ZM144.621 51.192C143.373 51.192 142.285 50.992 141.357 50.592C140.429 50.192 139.709 49.632 139.197 48.912C138.701 48.192 138.453 47.344 138.453 46.368V45.768C138.453 45.688 138.477 45.624 138.525 45.576C138.589 45.512 138.661 45.48 138.741 45.48H140.877C140.957 45.48 141.021 45.512 141.069 45.576C141.133 45.624 141.165 45.688 141.165 45.768V46.224C141.165 46.96 141.493 47.576 142.149 48.072C142.805 48.552 143.701 48.792 144.837 48.792C145.813 48.792 146.549 48.584 147.045 48.168C147.541 47.752 147.789 47.216 147.789 46.56C147.789 46.112 147.653 45.736 147.381 45.432C147.109 45.112 146.717 44.824 146.205 44.568C145.709 44.312 144.957 43.992 143.949 43.608C142.813 43.192 141.893 42.8 141.189 42.432C140.485 42.064 139.893 41.568 139.413 40.944C138.949 40.304 138.717 39.512 138.717 38.568C138.717 37.16 139.229 36.048 140.253 35.232C141.277 34.416 142.645 34.008 144.357 34.008C145.557 34.008 146.613 34.216 147.525 34.632C148.453 35.048 149.173 35.632 149.685 36.384C150.197 37.12 150.453 37.976 150.453 38.952V39.36C150.453 39.44 150.421 39.512 150.357 39.576C150.309 39.624 150.245 39.648 150.165 39.648H148.005C147.925 39.648 147.853 39.624 147.789 39.576C147.741 39.512 147.717 39.44 147.717 39.36V39.096C147.717 38.344 147.405 37.712 146.781 37.2C146.173 36.672 145.325 36.408 144.237 36.408C143.357 36.408 142.669 36.592 142.173 36.96C141.693 37.328 141.453 37.848 141.453 38.52C141.453 39 141.581 39.392 141.837 39.696C142.093 40 142.477 40.28 142.989 40.536C143.501 40.776 144.293 41.088 145.365 41.472C146.501 41.904 147.405 42.296 148.077 42.648C148.765 43 149.349 43.496 149.829 44.136C150.325 44.76 150.573 45.544 150.573 46.488C150.573 47.928 150.037 49.072 148.965 49.92C147.909 50.768 146.461 51.192 144.621 51.192Z" fill="#112D44"/>
</svg>
