<svg width="159" height="32" viewBox="0 0 159 32" fill="none" xmlns="http://www.w3.org/2000/svg">
<path d="M21.6982 4H2.30183C1.03056 4 0 5.03056 0 6.30183V25.6982C0 26.9694 1.03056 28 2.30183 28H21.6982C22.9694 28 24 26.9694 24 25.6982V6.30183C24 5.03056 22.9694 4 21.6982 4Z" fill="#112D44"/>
<path d="M9.37718 17.2149C9.39401 16.4147 9.41084 15.6205 9.42767 14.8172L8.60294 14.8648L6.5893 14.9843C6.01025 14.9961 5.44821 15.1826 4.97656 15.5194C3.44645 16.6691 3.66066 18.4812 4.57261 19.4393C4.95514 19.8425 5.3545 20.2289 5.74774 20.6213C6.66581 21.5411 7.58388 22.4732 8.51572 23.3915C8.9238 23.7902 9.44973 24.0458 10.0149 24.1201C10.58 24.1945 11.154 24.0835 11.6509 23.8039C12.4956 23.3133 12.8903 22.5345 12.9469 21.5795C13.0036 20.6244 13.0326 19.634 13.0739 18.6667L13.3539 12.0011C13.3539 11.8309 13.3647 11.6607 13.3723 11.489C13.3741 11.3052 13.4324 11.1265 13.5391 10.977C13.6003 10.8822 13.6914 10.8106 13.7978 10.7737C13.9043 10.7367 14.0201 10.7365 14.1267 10.7731C14.2869 10.8277 14.4339 10.9155 14.5582 11.0306C15.4058 11.8615 16.2454 12.7001 17.0767 13.5464C17.1851 13.6659 17.2651 13.8085 17.3108 13.9633C17.3312 14.0163 17.3404 14.073 17.3379 14.1297C17.3355 14.1864 17.3214 14.2421 17.2966 14.2931C17.2717 14.3442 17.2367 14.3895 17.1936 14.4264C17.1505 14.4633 17.1003 14.4909 17.0461 14.5076C16.8148 14.5905 16.5735 14.6421 16.3285 14.6609C15.7868 14.6977 15.2452 14.7007 14.6897 14.7161C14.6484 15.5194 14.6056 16.315 14.5627 17.1245L15.2008 17.0999C15.9506 17.0708 16.6988 17.0493 17.447 17.011C18.0136 16.9981 18.5634 16.816 19.0261 16.4882C19.3184 16.2848 19.5658 16.0235 19.7532 15.7203C19.9406 15.4172 20.064 15.0788 20.1156 14.7261C20.1672 14.3733 20.1461 14.0136 20.0534 13.6694C19.9608 13.3251 19.7986 13.0036 19.5769 12.7246C19.4609 12.5894 19.3367 12.4615 19.2051 12.3414C17.9933 11.115 16.786 9.88853 15.568 8.68357C14.7295 7.84806 13.7319 7.6503 12.6394 8.07035C11.8743 8.35856 11.4153 8.95338 11.1858 9.72603C11.1079 10.008 11.0642 10.2983 11.0557 10.5907C10.9563 12.7798 10.8675 14.969 10.7757 17.1597C10.7278 18.2747 10.6808 19.3898 10.6349 20.5048C10.6326 20.5654 10.6265 20.6258 10.6166 20.6857C10.5186 21.2422 10.029 21.443 9.5868 21.0965C9.37935 20.921 9.18263 20.7331 8.99771 20.5339C8.32344 19.8614 7.6507 19.1869 6.97948 18.5103C6.848 18.3881 6.75226 18.2323 6.70253 18.0596C6.66656 17.9477 6.67475 17.8262 6.7254 17.7201C6.77606 17.6141 6.86534 17.5315 6.97489 17.4893C7.25947 17.3814 7.56115 17.3258 7.86542 17.3253L9.37718 17.2149Z" fill="#06E7ED"/>
<path d="M41.88 10.2C41.88 10.0667 41.9467 10 42.08 10H43.6C43.7333 10 43.8 10.0667 43.8 10.2V23.8C43.8 23.9333 43.7333 24 43.6 24H42.14C42.0467 24 41.9667 23.9533 41.9 23.86L35.64 13.64C35.6267 13.6 35.6067 13.5867 35.58 13.6C35.5533 13.6 35.54 13.62 35.54 13.66L35.56 23.8C35.56 23.9333 35.4933 24 35.36 24H33.84C33.7067 24 33.64 23.9333 33.64 23.8V10.2C33.64 10.0667 33.7067 10 33.84 10H35.32C35.4133 10 35.4933 10.0467 35.56 10.14L41.8 20.36C41.8133 20.4 41.8333 20.42 41.86 20.42C41.8867 20.4067 41.9 20.38 41.9 20.34L41.88 10.2ZM56.1822 11.46C56.1822 11.5933 56.1155 11.66 55.9822 11.66H48.8822C48.8289 11.66 48.8022 11.6867 48.8022 11.74V16.04C48.8022 16.0933 48.8289 16.12 48.8822 16.12H53.7622C53.8955 16.12 53.9622 16.1867 53.9622 16.32V17.58C53.9622 17.7133 53.8955 17.78 53.7622 17.78H48.8822C48.8289 17.78 48.8022 17.8067 48.8022 17.86V22.26C48.8022 22.3133 48.8289 22.34 48.8822 22.34H55.9822C56.1155 22.34 56.1822 22.4067 56.1822 22.54V23.8C56.1822 23.9333 56.1155 24 55.9822 24H47.0822C46.9489 24 46.8822 23.9333 46.8822 23.8V10.2C46.8822 10.0667 46.9489 10 47.0822 10H55.9822C56.1155 10 56.1822 10.0667 56.1822 10.2V11.46ZM63.6153 24.16C62.642 24.16 61.782 23.9733 61.0353 23.6C60.302 23.2133 59.7286 22.6733 59.3153 21.98C58.902 21.2733 58.6953 20.4667 58.6953 19.56V10.2C58.6953 10.0667 58.762 10 58.8953 10H60.4153C60.5486 10 60.6153 10.0667 60.6153 10.2V19.6C60.6153 20.4667 60.8886 21.1667 61.4353 21.7C61.9953 22.2333 62.722 22.5 63.6153 22.5C64.5086 22.5 65.2286 22.2333 65.7753 21.7C66.322 21.1667 66.5953 20.4667 66.5953 19.6V10.2C66.5953 10.0667 66.662 10 66.7953 10H68.3153C68.4486 10 68.5153 10.0667 68.5153 10.2V19.56C68.5153 20.4667 68.3086 21.2733 67.8953 21.98C67.4953 22.6733 66.922 23.2133 66.1753 23.6C65.442 23.9733 64.5886 24.16 63.6153 24.16ZM75.933 24.18C74.973 24.18 74.1196 23.9933 73.373 23.62C72.6396 23.2333 72.0663 22.6933 71.653 22C71.253 21.2933 71.053 20.4867 71.053 19.58V14.4C71.053 13.4933 71.253 12.7 71.653 12.02C72.0663 11.3267 72.6396 10.7933 73.373 10.42C74.1196 10.0333 74.973 9.84 75.933 9.84C76.893 9.84 77.7396 10.0267 78.473 10.4C79.2063 10.76 79.773 11.2733 80.173 11.94C80.5863 12.6067 80.793 13.38 80.793 14.26V14.28C80.793 14.3467 80.773 14.4 80.733 14.44C80.693 14.48 80.6463 14.5 80.593 14.5L79.073 14.58C78.9396 14.58 78.873 14.52 78.873 14.4V14.34C78.873 13.4867 78.6063 12.8 78.073 12.28C77.5396 11.76 76.8263 11.5 75.933 11.5C75.0396 11.5 74.3196 11.76 73.773 12.28C73.2396 12.8 72.973 13.4867 72.973 14.34V19.66C72.973 20.5133 73.2396 21.2 73.773 21.72C74.3196 22.24 75.0396 22.5 75.933 22.5C76.8263 22.5 77.5396 22.24 78.073 21.72C78.6063 21.2 78.873 20.5133 78.873 19.66V19.62C78.873 19.5 78.9396 19.44 79.073 19.44L80.593 19.52C80.7263 19.52 80.793 19.5867 80.793 19.72C80.793 20.6 80.5863 21.38 80.173 22.06C79.773 22.7267 79.2063 23.2467 78.473 23.62C77.7396 23.9933 76.893 24.18 75.933 24.18ZM91.5614 24C91.4547 24 91.3814 23.9533 91.3414 23.86L88.5414 17.88C88.5281 17.84 88.5014 17.82 88.4614 17.82H85.5814C85.5281 17.82 85.5014 17.8467 85.5014 17.9V23.8C85.5014 23.9333 85.4347 24 85.3014 24H83.7814C83.6481 24 83.5814 23.9333 83.5814 23.8V10.2C83.5814 10.0667 83.6481 10 83.7814 10H89.1614C89.9614 10 90.6614 10.1667 91.2614 10.5C91.8747 10.8333 92.3481 11.3 92.6814 11.9C93.0147 12.5 93.1814 13.1933 93.1814 13.98C93.1814 14.9133 92.9347 15.7067 92.4414 16.36C91.9614 17 91.2881 17.4333 90.4214 17.66C90.3681 17.6867 90.3547 17.72 90.3814 17.76L93.2814 23.76C93.2947 23.7867 93.3014 23.82 93.3014 23.86C93.3014 23.9533 93.2481 24 93.1414 24H91.5614ZM85.5814 11.66C85.5281 11.66 85.5014 11.6867 85.5014 11.74V16.22C85.5014 16.2733 85.5281 16.3 85.5814 16.3H88.9214C89.6281 16.3 90.1947 16.0933 90.6214 15.68C91.0481 15.2533 91.2614 14.6933 91.2614 14C91.2614 13.2933 91.0481 12.7267 90.6214 12.3C90.1947 11.8733 89.6281 11.66 88.9214 11.66H85.5814ZM100.407 24.18C99.4337 24.18 98.5737 23.98 97.827 23.58C97.0804 23.18 96.5004 22.62 96.087 21.9C95.6737 21.1667 95.467 20.3267 95.467 19.38V14.62C95.467 13.6733 95.6737 12.84 96.087 12.12C96.5004 11.4 97.0804 10.84 97.827 10.44C98.5737 10.04 99.4337 9.84 100.407 9.84C101.394 9.84 102.26 10.04 103.007 10.44C103.754 10.84 104.334 11.4 104.747 12.12C105.16 12.84 105.367 13.6733 105.367 14.62V19.38C105.367 20.3267 105.16 21.1667 104.747 21.9C104.334 22.62 103.754 23.18 103.007 23.58C102.26 23.98 101.394 24.18 100.407 24.18ZM100.407 22.52C101.314 22.52 102.047 22.24 102.607 21.68C103.167 21.12 103.447 20.38 103.447 19.46V14.6C103.447 13.6667 103.167 12.92 102.607 12.36C102.047 11.7867 101.314 11.5 100.407 11.5C99.5004 11.5 98.767 11.7867 98.207 12.36C97.6604 12.92 97.387 13.6667 97.387 14.6V19.46C97.387 20.38 97.6604 21.12 98.207 21.68C98.767 22.24 99.5004 22.52 100.407 22.52ZM116.528 10.2C116.528 10.0667 116.595 10 116.728 10H118.248C118.382 10 118.448 10.0667 118.448 10.2V23.8C118.448 23.9333 118.382 24 118.248 24H116.788C116.695 24 116.615 23.9533 116.548 23.86L110.288 13.64C110.275 13.6 110.255 13.5867 110.228 13.6C110.202 13.6 110.188 13.62 110.188 13.66L110.208 23.8C110.208 23.9333 110.142 24 110.008 24H108.488C108.355 24 108.288 23.9333 108.288 23.8V10.2C108.288 10.0667 108.355 10 108.488 10H109.968C110.062 10 110.142 10.0467 110.208 10.14L116.448 20.36C116.462 20.4 116.482 20.42 116.508 20.42C116.535 20.4067 116.548 20.38 116.548 20.34L116.528 10.2ZM131.229 9.98C132.043 9.98 132.756 10.1533 133.369 10.5C133.996 10.8333 134.476 11.3067 134.809 11.92C135.156 12.5333 135.329 13.24 135.329 14.04C135.329 14.84 135.156 15.54 134.809 16.14C134.463 16.74 133.969 17.2067 133.329 17.54C132.703 17.8733 131.976 18.04 131.149 18.04H127.629C127.576 18.04 127.549 18.0667 127.549 18.12V23.8C127.549 23.9333 127.483 24 127.349 24H125.829C125.696 24 125.629 23.9333 125.629 23.8V10.18C125.629 10.0467 125.696 9.98 125.829 9.98H131.229ZM130.969 16.48C131.703 16.48 132.289 16.26 132.729 15.82C133.183 15.38 133.409 14.8 133.409 14.08C133.409 13.3467 133.183 12.76 132.729 12.32C132.289 11.8667 131.703 11.64 130.969 11.64H127.629C127.576 11.64 127.549 11.6667 127.549 11.72V16.4C127.549 16.4533 127.576 16.48 127.629 16.48H130.969ZM145.402 24C145.282 24 145.202 23.9467 145.162 23.84L144.442 21.5C144.428 21.46 144.402 21.44 144.362 21.44H138.742C138.702 21.44 138.675 21.46 138.662 21.5L137.942 23.84C137.902 23.9467 137.822 24 137.702 24H136.082C135.935 24 135.882 23.9267 135.922 23.78L140.302 10.16C140.342 10.0533 140.422 10 140.542 10H142.542C142.662 10 142.742 10.0533 142.782 10.16L147.202 23.78L147.222 23.86C147.222 23.9533 147.162 24 147.042 24H145.402ZM139.162 19.82C139.148 19.8467 139.148 19.8733 139.162 19.9C139.188 19.9133 139.215 19.92 139.242 19.92H143.842C143.868 19.92 143.888 19.9133 143.902 19.9C143.928 19.8733 143.935 19.8467 143.922 19.82L141.602 12.4C141.588 12.3733 141.568 12.36 141.542 12.36C141.515 12.36 141.495 12.3733 141.482 12.4L139.162 19.82ZM151.396 23.98C151.263 23.98 151.196 23.9133 151.196 23.78V18.16C151.196 18.1067 151.19 18.0733 151.176 18.06L147.016 10.24C147.003 10.2133 146.996 10.18 146.996 10.14C146.996 10.0467 147.05 10 147.156 10H148.796C148.916 10 148.996 10.0467 149.036 10.14L152.096 16C152.11 16.0267 152.13 16.04 152.156 16.04C152.183 16.04 152.203 16.0267 152.216 16L155.276 10.14C155.316 10.0467 155.396 10 155.516 10H157.176C157.243 10 157.29 10.0267 157.316 10.08C157.356 10.12 157.356 10.1733 157.316 10.24L153.136 18.06C153.123 18.0733 153.116 18.1067 153.116 18.16V23.78C153.116 23.9133 153.05 23.98 152.916 23.98H151.396Z" fill="#112D44"/>
</svg>
