<svg width="113" height="48" viewBox="0 0 113 48" fill="none" xmlns="http://www.w3.org/2000/svg">
<path d="M28.6898 1.24C28.6898 1.17333 28.7098 1.12 28.7498 1.08C28.8032 1.02667 28.8632 0.999999 28.9298 0.999999H30.7698C30.8365 0.999999 30.8898 1.02667 30.9298 1.08C30.9832 1.12 31.0098 1.17333 31.0098 1.24V14.76C31.0098 14.8267 30.9832 14.8867 30.9298 14.94C30.8898 14.98 30.8365 15 30.7698 15H28.9898C28.8565 15 28.7632 14.9467 28.7098 14.84L22.9498 5.4C22.9232 5.36 22.8965 5.34667 22.8698 5.36C22.8432 5.36 22.8298 5.38667 22.8298 5.44L22.8698 14.76C22.8698 14.8267 22.8432 14.8867 22.7898 14.94C22.7498 14.98 22.6965 15 22.6298 15H20.7898C20.7232 15 20.6632 14.98 20.6098 14.94C20.5698 14.8867 20.5498 14.8267 20.5498 14.76V1.24C20.5498 1.17333 20.5698 1.12 20.6098 1.08C20.6632 1.02667 20.7232 0.999999 20.7898 0.999999H22.5698C22.7032 0.999999 22.7965 1.05333 22.8498 1.16L28.5898 10.6C28.6165 10.64 28.6432 10.66 28.6698 10.66C28.6965 10.6467 28.7098 10.6133 28.7098 10.56L28.6898 1.24ZM43.233 2.76C43.233 2.82667 43.2063 2.88667 43.153 2.94C43.113 2.98 43.0596 3 42.993 3H36.173C36.1063 3 36.073 3.03333 36.073 3.1V6.84C36.073 6.90667 36.1063 6.94 36.173 6.94H40.753C40.8196 6.94 40.873 6.96667 40.913 7.02C40.9663 7.06 40.993 7.11333 40.993 7.18V8.7C40.993 8.76667 40.9663 8.82667 40.913 8.88C40.873 8.92 40.8196 8.94 40.753 8.94H36.173C36.1063 8.94 36.073 8.97333 36.073 9.04V12.9C36.073 12.9667 36.1063 13 36.173 13H42.993C43.0596 13 43.113 13.0267 43.153 13.08C43.2063 13.12 43.233 13.1733 43.233 13.24V14.76C43.233 14.8267 43.2063 14.8867 43.153 14.94C43.113 14.98 43.0596 15 42.993 15H33.993C33.9263 15 33.8663 14.98 33.813 14.94C33.773 14.8867 33.753 14.8267 33.753 14.76V1.24C33.753 1.17333 33.773 1.12 33.813 1.08C33.8663 1.02667 33.9263 0.999999 33.993 0.999999H42.993C43.0596 0.999999 43.113 1.02667 43.153 1.08C43.2063 1.12 43.233 1.17333 43.233 1.24V2.76ZM50.4889 15.16C49.5022 15.16 48.6289 14.9667 47.8689 14.58C47.1089 14.1933 46.5156 13.6467 46.0889 12.94C45.6756 12.22 45.4689 11.3933 45.4689 10.46V1.24C45.4689 1.17333 45.4889 1.12 45.5289 1.08C45.5822 1.02667 45.6422 0.999999 45.7089 0.999999H47.5489C47.6156 0.999999 47.6689 1.02667 47.7089 1.08C47.7622 1.12 47.7889 1.17333 47.7889 1.24V10.5C47.7889 11.2867 48.0356 11.9267 48.5289 12.42C49.0222 12.9133 49.6756 13.16 50.4889 13.16C51.3022 13.16 51.9556 12.9133 52.4489 12.42C52.9422 11.9267 53.1889 11.2867 53.1889 10.5V1.24C53.1889 1.17333 53.2089 1.12 53.2489 1.08C53.3022 1.02667 53.3622 0.999999 53.4289 0.999999H55.2689C55.3356 0.999999 55.3889 1.02667 55.4289 1.08C55.4822 1.12 55.5089 1.17333 55.5089 1.24V10.46C55.5089 11.3933 55.3022 12.22 54.8889 12.94C54.4756 13.6467 53.8889 14.1933 53.1289 14.58C52.3689 14.9667 51.4889 15.16 50.4889 15.16ZM66.1638 15C66.0304 15 65.9371 14.94 65.8838 14.82L63.2438 9.06C63.2171 9.00667 63.1771 8.98 63.1238 8.98H60.7238C60.6571 8.98 60.6238 9.01333 60.6238 9.08V14.76C60.6238 14.8267 60.5971 14.8867 60.5438 14.94C60.5038 14.98 60.4504 15 60.3838 15H58.5438C58.4771 15 58.4171 14.98 58.3638 14.94C58.3238 14.8867 58.3038 14.8267 58.3038 14.76V1.24C58.3038 1.17333 58.3238 1.12 58.3638 1.08C58.4171 1.02667 58.4771 0.999999 58.5438 0.999999H64.0438C64.8571 0.999999 65.5771 1.17333 66.2038 1.52C66.8304 1.85333 67.3171 2.33333 67.6638 2.96C68.0104 3.57333 68.1838 4.28 68.1838 5.08C68.1838 6 67.9438 6.78667 67.4638 7.44C66.9971 8.08 66.3438 8.52667 65.5038 8.78C65.4771 8.78 65.4571 8.79333 65.4438 8.82C65.4304 8.84667 65.4304 8.87333 65.4438 8.9L68.2638 14.72C68.2904 14.7733 68.3038 14.8133 68.3038 14.84C68.3038 14.9467 68.2304 15 68.0838 15H66.1638ZM60.7238 3C60.6571 3 60.6238 3.03333 60.6238 3.1V7.08C60.6238 7.14667 60.6571 7.18 60.7238 7.18H63.7238C64.3638 7.18 64.8771 6.99333 65.2638 6.62C65.6638 6.23333 65.8638 5.72667 65.8638 5.1C65.8638 4.47333 65.6638 3.96667 65.2638 3.58C64.8771 3.19333 64.3638 3 63.7238 3H60.7238ZM75.3094 15.2C74.3094 15.2 73.4227 15 72.6494 14.6C71.876 14.1867 71.276 13.6067 70.8494 12.86C70.436 12.1133 70.2294 11.2533 70.2294 10.28V5.72C70.2294 4.76 70.4427 3.91333 70.8694 3.18C71.296 2.43333 71.8894 1.86 72.6494 1.46C73.4227 1.04667 74.3094 0.84 75.3094 0.84C76.3227 0.84 77.2094 1.04667 77.9694 1.46C78.7427 1.86 79.3427 2.43333 79.7694 3.18C80.196 3.91333 80.4094 4.76 80.4094 5.72V10.28C80.4094 11.2533 80.196 12.1133 79.7694 12.86C79.3427 13.6067 78.7427 14.1867 77.9694 14.6C77.2094 15 76.3227 15.2 75.3094 15.2ZM75.3094 13.2C76.1494 13.2 76.8227 12.94 77.3294 12.42C77.836 11.9 78.0894 11.2133 78.0894 10.36V5.7C78.0894 4.83333 77.836 4.14 77.3294 3.62C76.8227 3.1 76.1494 2.84 75.3094 2.84C74.4827 2.84 73.816 3.1 73.3094 3.62C72.8027 4.14 72.5494 4.83333 72.5494 5.7V10.36C72.5494 11.2133 72.8027 11.9 73.3094 12.42C73.816 12.94 74.4827 13.2 75.3094 13.2ZM91.1313 1.24C91.1313 1.17333 91.1513 1.12 91.1913 1.08C91.2446 1.02667 91.3046 0.999999 91.3713 0.999999H93.2113C93.2779 0.999999 93.3313 1.02667 93.3713 1.08C93.4246 1.12 93.4513 1.17333 93.4513 1.24V14.76C93.4513 14.8267 93.4246 14.8867 93.3713 14.94C93.3313 14.98 93.2779 15 93.2113 15H91.4313C91.2979 15 91.2046 14.9467 91.1513 14.84L85.3913 5.4C85.3646 5.36 85.3379 5.34667 85.3113 5.36C85.2846 5.36 85.2713 5.38667 85.2713 5.44L85.3113 14.76C85.3113 14.8267 85.2846 14.8867 85.2313 14.94C85.1913 14.98 85.1379 15 85.0713 15H83.2313C83.1646 15 83.1046 14.98 83.0513 14.94C83.0113 14.8867 82.9913 14.8267 82.9913 14.76V1.24C82.9913 1.17333 83.0113 1.12 83.0513 1.08C83.1046 1.02667 83.1646 0.999999 83.2313 0.999999H85.0113C85.1446 0.999999 85.2379 1.05333 85.2913 1.16L91.0313 10.6C91.0579 10.64 91.0846 10.66 91.1113 10.66C91.1379 10.6467 91.1513 10.6133 91.1513 10.56L91.1313 1.24ZM4.61383 47C4.46716 47 4.37383 46.9333 4.33383 46.8L0.693828 33.26L0.673828 33.18C0.673828 33.06 0.747161 33 0.893828 33H2.85383C3.00049 33 3.09383 33.0667 3.13383 33.2L5.41383 42.32C5.42716 42.36 5.44716 42.38 5.47383 42.38C5.5005 42.38 5.5205 42.36 5.53383 42.32L7.71383 33.2C7.75383 33.0667 7.8405 33 7.97383 33H9.89383C10.0405 33 10.1338 33.0667 10.1738 33.2L12.4938 42.34C12.5072 42.38 12.5272 42.4 12.5538 42.4C12.5805 42.4 12.6005 42.38 12.6138 42.34L14.8538 33.2C14.8938 33.0667 14.9872 33 15.1338 33H16.9938C17.1805 33 17.2538 33.0867 17.2138 33.26L13.7538 46.8C13.7138 46.9333 13.6205 47 13.4738 47H11.6138C11.4672 47 11.3738 46.9333 11.3338 46.8L8.99383 37.26C8.9805 37.22 8.9605 37.2 8.93383 37.2C8.90716 37.1867 8.88716 37.2067 8.87383 37.26L6.63383 46.8C6.59383 46.9333 6.50716 47 6.37383 47H4.61383ZM23.3465 47.2C22.3465 47.2 21.4598 47 20.6865 46.6C19.9132 46.1867 19.3132 45.6067 18.8865 44.86C18.4732 44.1133 18.2665 43.2533 18.2665 42.28V37.72C18.2665 36.76 18.4798 35.9133 18.9065 35.18C19.3332 34.4333 19.9265 33.86 20.6865 33.46C21.4598 33.0467 22.3465 32.84 23.3465 32.84C24.3598 32.84 25.2465 33.0467 26.0065 33.46C26.7798 33.86 27.3798 34.4333 27.8065 35.18C28.2332 35.9133 28.4465 36.76 28.4465 37.72V42.28C28.4465 43.2533 28.2332 44.1133 27.8065 44.86C27.3798 45.6067 26.7798 46.1867 26.0065 46.6C25.2465 47 24.3598 47.2 23.3465 47.2ZM23.3465 45.2C24.1865 45.2 24.8598 44.94 25.3665 44.42C25.8732 43.9 26.1265 43.2133 26.1265 42.36V37.7C26.1265 36.8333 25.8732 36.14 25.3665 35.62C24.8598 35.1 24.1865 34.84 23.3465 34.84C22.5198 34.84 21.8532 35.1 21.3465 35.62C20.8398 36.14 20.5865 36.8333 20.5865 37.7V42.36C20.5865 43.2133 20.8398 43.9 21.3465 44.42C21.8532 44.94 22.5198 45.2 23.3465 45.2ZM38.8884 47C38.755 47 38.6617 46.94 38.6084 46.82L35.9684 41.06C35.9417 41.0067 35.9017 40.98 35.8484 40.98H33.4484C33.3817 40.98 33.3484 41.0133 33.3484 41.08V46.76C33.3484 46.8267 33.3217 46.8867 33.2684 46.94C33.2284 46.98 33.175 47 33.1084 47H31.2684C31.2017 47 31.1417 46.98 31.0884 46.94C31.0484 46.8867 31.0284 46.8267 31.0284 46.76V33.24C31.0284 33.1733 31.0484 33.12 31.0884 33.08C31.1417 33.0267 31.2017 33 31.2684 33H36.7684C37.5817 33 38.3017 33.1733 38.9284 33.52C39.555 33.8533 40.0417 34.3333 40.3884 34.96C40.735 35.5733 40.9084 36.28 40.9084 37.08C40.9084 38 40.6684 38.7867 40.1884 39.44C39.7217 40.08 39.0684 40.5267 38.2284 40.78C38.2017 40.78 38.1817 40.7933 38.1684 40.82C38.155 40.8467 38.155 40.8733 38.1684 40.9L40.9884 46.72C41.015 46.7733 41.0284 46.8133 41.0284 46.84C41.0284 46.9467 40.955 47 40.8084 47H38.8884ZM33.4484 35C33.3817 35 33.3484 35.0333 33.3484 35.1V39.08C33.3484 39.1467 33.3817 39.18 33.4484 39.18H36.4484C37.0884 39.18 37.6017 38.9933 37.9884 38.62C38.3884 38.2333 38.5884 37.7267 38.5884 37.1C38.5884 36.4733 38.3884 35.9667 37.9884 35.58C37.6017 35.1933 37.0884 35 36.4484 35H33.4484ZM43.534 47C43.4673 47 43.4073 46.98 43.354 46.94C43.314 46.8867 43.294 46.8267 43.294 46.76V33.24C43.294 33.1733 43.314 33.12 43.354 33.08C43.4073 33.0267 43.4673 33 43.534 33H48.414C49.3607 33 50.194 33.1667 50.914 33.5C51.634 33.8333 52.1873 34.3133 52.574 34.94C52.974 35.5533 53.174 36.2733 53.174 37.1V42.9C53.174 43.7267 52.974 44.4533 52.574 45.08C52.1873 45.6933 51.634 46.1667 50.914 46.5C50.194 46.8333 49.3607 47 48.414 47H43.534ZM45.614 44.9C45.614 44.9667 45.6473 45 45.714 45H48.514C49.2207 45 49.7807 44.78 50.194 44.34C50.6207 43.8867 50.8407 43.2867 50.854 42.54V37.48C50.854 36.72 50.6407 36.12 50.214 35.68C49.7873 35.2267 49.214 35 48.494 35H45.714C45.6473 35 45.614 35.0333 45.614 35.1V44.9ZM61.2773 32.98C62.1173 32.98 62.8573 33.1533 63.4973 33.5C64.1373 33.8467 64.6306 34.34 64.9773 34.98C65.3373 35.6067 65.5173 36.3333 65.5173 37.16C65.5173 37.9733 65.3373 38.6933 64.9773 39.32C64.6173 39.9467 64.1039 40.4333 63.4373 40.78C62.7839 41.1133 62.0239 41.28 61.1573 41.28H57.9573C57.8906 41.28 57.8573 41.3133 57.8573 41.38V46.76C57.8573 46.8267 57.8306 46.8867 57.7773 46.94C57.7373 46.98 57.6839 47 57.6173 47H55.7773C55.7106 47 55.6506 46.98 55.5973 46.94C55.5573 46.8867 55.5373 46.8267 55.5373 46.76V33.22C55.5373 33.1533 55.5573 33.1 55.5973 33.06C55.6506 33.0067 55.7106 32.98 55.7773 32.98H61.2773ZM60.9373 39.4C61.6173 39.4 62.1639 39.2 62.5773 38.8C62.9906 38.4 63.1973 37.8733 63.1973 37.22C63.1973 36.5533 62.9906 36.0133 62.5773 35.6C62.1639 35.1867 61.6173 34.98 60.9373 34.98H57.9573C57.8906 34.98 57.8573 35.0133 57.8573 35.08V39.3C57.8573 39.3667 57.8906 39.4 57.9573 39.4H60.9373ZM75.4118 47C75.2785 47 75.1851 46.94 75.1318 46.82L72.4918 41.06C72.4651 41.0067 72.4251 40.98 72.3718 40.98H69.9718C69.9051 40.98 69.8718 41.0133 69.8718 41.08V46.76C69.8718 46.8267 69.8451 46.8867 69.7918 46.94C69.7518 46.98 69.6985 47 69.6318 47H67.7918C67.7251 47 67.6651 46.98 67.6118 46.94C67.5718 46.8867 67.5518 46.8267 67.5518 46.76V33.24C67.5518 33.1733 67.5718 33.12 67.6118 33.08C67.6651 33.0267 67.7251 33 67.7918 33H73.2918C74.1051 33 74.8251 33.1733 75.4518 33.52C76.0785 33.8533 76.5651 34.3333 76.9118 34.96C77.2585 35.5733 77.4318 36.28 77.4318 37.08C77.4318 38 77.1918 38.7867 76.7118 39.44C76.2451 40.08 75.5918 40.5267 74.7518 40.78C74.7251 40.78 74.7051 40.7933 74.6918 40.82C74.6785 40.8467 74.6785 40.8733 74.6918 40.9L77.5118 46.72C77.5385 46.7733 77.5518 46.8133 77.5518 46.84C77.5518 46.9467 77.4785 47 77.3318 47H75.4118ZM69.9718 35C69.9051 35 69.8718 35.0333 69.8718 35.1V39.08C69.8718 39.1467 69.9051 39.18 69.9718 39.18H72.9718C73.6118 39.18 74.1251 38.9933 74.5118 38.62C74.9118 38.2333 75.1118 37.7267 75.1118 37.1C75.1118 36.4733 74.9118 35.9667 74.5118 35.58C74.1251 35.1933 73.6118 35 72.9718 35H69.9718ZM89.2974 34.76C89.2974 34.8267 89.2708 34.8867 89.2174 34.94C89.1774 34.98 89.1241 35 89.0574 35H82.2374C82.1708 35 82.1374 35.0333 82.1374 35.1V38.84C82.1374 38.9067 82.1708 38.94 82.2374 38.94H86.8174C86.8841 38.94 86.9374 38.9667 86.9774 39.02C87.0308 39.06 87.0574 39.1133 87.0574 39.18V40.7C87.0574 40.7667 87.0308 40.8267 86.9774 40.88C86.9374 40.92 86.8841 40.94 86.8174 40.94H82.2374C82.1708 40.94 82.1374 40.9733 82.1374 41.04V44.9C82.1374 44.9667 82.1708 45 82.2374 45H89.0574C89.1241 45 89.1774 45.0267 89.2174 45.08C89.2708 45.12 89.2974 45.1733 89.2974 45.24V46.76C89.2974 46.8267 89.2708 46.8867 89.2174 46.94C89.1774 46.98 89.1241 47 89.0574 47H80.0574C79.9908 47 79.9308 46.98 79.8774 46.94C79.8374 46.8867 79.8174 46.8267 79.8174 46.76V33.24C79.8174 33.1733 79.8374 33.12 79.8774 33.08C79.9308 33.0267 79.9908 33 80.0574 33H89.0574C89.1241 33 89.1774 33.0267 89.2174 33.08C89.2708 33.12 89.2974 33.1733 89.2974 33.24V34.76ZM96.1734 47.16C95.1334 47.16 94.2267 46.9933 93.4534 46.66C92.68 46.3267 92.08 45.86 91.6534 45.26C91.24 44.66 91.0334 43.9533 91.0334 43.14V42.64C91.0334 42.5733 91.0534 42.52 91.0934 42.48C91.1467 42.4267 91.2067 42.4 91.2734 42.4H93.0534C93.12 42.4 93.1734 42.4267 93.2134 42.48C93.2667 42.52 93.2934 42.5733 93.2934 42.64V43.02C93.2934 43.6333 93.5667 44.1467 94.1134 44.56C94.66 44.96 95.4067 45.16 96.3534 45.16C97.1667 45.16 97.78 44.9867 98.1934 44.64C98.6067 44.2933 98.8134 43.8467 98.8134 43.3C98.8134 42.9267 98.7 42.6133 98.4734 42.36C98.2467 42.0933 97.92 41.8533 97.4934 41.64C97.08 41.4267 96.4534 41.16 95.6134 40.84C94.6667 40.4933 93.9 40.1667 93.3134 39.86C92.7267 39.5533 92.2334 39.14 91.8334 38.62C91.4467 38.0867 91.2534 37.4267 91.2534 36.64C91.2534 35.4667 91.68 34.54 92.5334 33.86C93.3867 33.18 94.5267 32.84 95.9534 32.84C96.9534 32.84 97.8334 33.0133 98.5934 33.36C99.3667 33.7067 99.9667 34.1933 100.393 34.82C100.82 35.4333 101.033 36.1467 101.033 36.96V37.3C101.033 37.3667 101.007 37.4267 100.953 37.48C100.913 37.52 100.86 37.54 100.793 37.54H98.9934C98.9267 37.54 98.8667 37.52 98.8134 37.48C98.7734 37.4267 98.7534 37.3667 98.7534 37.3V37.08C98.7534 36.4533 98.4934 35.9267 97.9734 35.5C97.4667 35.06 96.76 34.84 95.8534 34.84C95.12 34.84 94.5467 34.9933 94.1334 35.3C93.7334 35.6067 93.5334 36.04 93.5334 36.6C93.5334 37 93.64 37.3267 93.8534 37.58C94.0667 37.8333 94.3867 38.0667 94.8134 38.28C95.24 38.48 95.9 38.74 96.7934 39.06C97.74 39.42 98.4934 39.7467 99.0534 40.04C99.6267 40.3333 100.113 40.7467 100.513 41.28C100.927 41.8 101.133 42.4533 101.133 43.24C101.133 44.44 100.687 45.3933 99.7934 46.1C98.9134 46.8067 97.7067 47.16 96.1734 47.16ZM107.99 47.16C106.95 47.16 106.043 46.9933 105.27 46.66C104.496 46.3267 103.896 45.86 103.47 45.26C103.056 44.66 102.85 43.9533 102.85 43.14V42.64C102.85 42.5733 102.87 42.52 102.91 42.48C102.963 42.4267 103.023 42.4 103.09 42.4H104.87C104.936 42.4 104.99 42.4267 105.03 42.48C105.083 42.52 105.11 42.5733 105.11 42.64V43.02C105.11 43.6333 105.383 44.1467 105.93 44.56C106.476 44.96 107.223 45.16 108.17 45.16C108.983 45.16 109.596 44.9867 110.01 44.64C110.423 44.2933 110.63 43.8467 110.63 43.3C110.63 42.9267 110.516 42.6133 110.29 42.36C110.063 42.0933 109.736 41.8533 109.31 41.64C108.896 41.4267 108.27 41.16 107.43 40.84C106.483 40.4933 105.716 40.1667 105.13 39.86C104.543 39.5533 104.05 39.14 103.65 38.62C103.263 38.0867 103.07 37.4267 103.07 36.64C103.07 35.4667 103.496 34.54 104.35 33.86C105.203 33.18 106.343 32.84 107.77 32.84C108.77 32.84 109.65 33.0133 110.41 33.36C111.183 33.7067 111.783 34.1933 112.21 34.82C112.636 35.4333 112.85 36.1467 112.85 36.96V37.3C112.85 37.3667 112.823 37.4267 112.77 37.48C112.73 37.52 112.676 37.54 112.61 37.54H110.81C110.743 37.54 110.683 37.52 110.63 37.48C110.59 37.4267 110.57 37.3667 110.57 37.3V37.08C110.57 36.4533 110.31 35.9267 109.79 35.5C109.283 35.06 108.576 34.84 107.67 34.84C106.936 34.84 106.363 34.9933 105.95 35.3C105.55 35.6067 105.35 36.04 105.35 36.6C105.35 37 105.456 37.3267 105.67 37.58C105.883 37.8333 106.203 38.0667 106.63 38.28C107.056 38.48 107.716 38.74 108.61 39.06C109.556 39.42 110.31 39.7467 110.87 40.04C111.443 40.3333 111.93 40.7467 112.33 41.28C112.743 41.8 112.95 42.4533 112.95 43.24C112.95 44.44 112.503 45.3933 111.61 46.1C110.73 46.8067 109.523 47.16 107.99 47.16Z" fill="#112D44"/>
</svg>
