<svg width="95" height="52" viewBox="0 0 95 52" fill="none" xmlns="http://www.w3.org/2000/svg">
<path d="M6.90484 17.24C5.70484 17.24 4.64084 17 3.71284 16.52C2.78484 16.024 2.06484 15.328 1.55284 14.432C1.05684 13.536 0.808844 12.504 0.808844 11.336V5.864C0.808844 4.712 1.06484 3.696 1.57684 2.816C2.08884 1.92 2.80084 1.232 3.71284 0.751999C4.64084 0.256 5.70484 0.0079999 6.90484 0.0079999C8.12084 0.0079999 9.18484 0.256 10.0968 0.751999C11.0248 1.232 11.7448 1.92 12.2568 2.816C12.7688 3.696 13.0248 4.712 13.0248 5.864V11.336C13.0248 12.504 12.7688 13.536 12.2568 14.432C11.7448 15.328 11.0248 16.024 10.0968 16.52C9.18484 17 8.12084 17.24 6.90484 17.24ZM6.90484 14.84C7.91284 14.84 8.72084 14.528 9.32884 13.904C9.93684 13.28 10.2408 12.456 10.2408 11.432V5.84C10.2408 4.8 9.93684 3.968 9.32884 3.344C8.72084 2.72 7.91284 2.408 6.90484 2.408C5.91284 2.408 5.11284 2.72 4.50484 3.344C3.89684 3.968 3.59284 4.8 3.59284 5.84V11.432C3.59284 12.456 3.89684 13.28 4.50484 13.904C5.11284 14.528 5.91284 14.84 6.90484 14.84ZM25.5551 17C25.3951 17 25.2831 16.928 25.2191 16.784L22.0511 9.872C22.0191 9.808 21.9711 9.776 21.9071 9.776H19.0271C18.9471 9.776 18.9071 9.816 18.9071 9.896V16.712C18.9071 16.792 18.8751 16.864 18.8111 16.928C18.7631 16.976 18.6991 17 18.6191 17H16.4111C16.3311 17 16.2591 16.976 16.1951 16.928C16.1471 16.864 16.1231 16.792 16.1231 16.712V0.487999C16.1231 0.408 16.1471 0.343999 16.1951 0.295999C16.2591 0.231999 16.3311 0.199999 16.4111 0.199999H23.0111C23.9871 0.199999 24.8511 0.407999 25.6031 0.823999C26.3551 1.224 26.9391 1.8 27.3551 2.552C27.7711 3.288 27.9791 4.136 27.9791 5.096C27.9791 6.2 27.6911 7.144 27.1151 7.928C26.5551 8.696 25.7711 9.232 24.7631 9.536C24.7311 9.536 24.7071 9.552 24.6911 9.584C24.6751 9.616 24.6751 9.648 24.6911 9.68L28.0751 16.664C28.1071 16.728 28.1231 16.776 28.1231 16.808C28.1231 16.936 28.0351 17 27.8591 17H25.5551ZM19.0271 2.6C18.9471 2.6 18.9071 2.64 18.9071 2.72V7.496C18.9071 7.576 18.9471 7.616 19.0271 7.616H22.6271C23.3951 7.616 24.0111 7.392 24.4751 6.944C24.9551 6.48 25.1951 5.872 25.1951 5.12C25.1951 4.368 24.9551 3.76 24.4751 3.296C24.0111 2.832 23.3951 2.6 22.6271 2.6H19.0271ZM31.1298 17C31.0498 17 30.9778 16.976 30.9138 16.928C30.8658 16.864 30.8418 16.792 30.8418 16.712V0.487999C30.8418 0.408 30.8658 0.343999 30.9138 0.295999C30.9778 0.231999 31.0498 0.199999 31.1298 0.199999H36.9858C38.1218 0.199999 39.1218 0.399999 39.9858 0.8C40.8498 1.2 41.5138 1.776 41.9778 2.528C42.4578 3.264 42.6978 4.128 42.6978 5.12V12.08C42.6978 13.072 42.4578 13.944 41.9778 14.696C41.5138 15.432 40.8498 16 39.9858 16.4C39.1218 16.8 38.1218 17 36.9858 17H31.1298ZM33.6258 14.48C33.6258 14.56 33.6658 14.6 33.7458 14.6H37.1058C37.9538 14.6 38.6258 14.336 39.1218 13.808C39.6338 13.264 39.8978 12.544 39.9138 11.648V5.576C39.9138 4.664 39.6578 3.944 39.1458 3.416C38.6338 2.872 37.9458 2.6 37.0818 2.6H33.7458C33.6658 2.6 33.6258 2.64 33.6258 2.72V14.48ZM45.9658 17C45.8858 17 45.8138 16.976 45.7498 16.928C45.7018 16.864 45.6778 16.792 45.6778 16.712V0.487999C45.6778 0.408 45.7018 0.343999 45.7498 0.295999C45.8138 0.231999 45.8858 0.199999 45.9658 0.199999H48.1738C48.2538 0.199999 48.3178 0.231999 48.3658 0.295999C48.4298 0.343999 48.4618 0.408 48.4618 0.487999V16.712C48.4618 16.792 48.4298 16.864 48.3658 16.928C48.3178 16.976 48.2538 17 48.1738 17H45.9658ZM61.727 0.487999C61.727 0.408 61.751 0.343999 61.799 0.295999C61.863 0.231999 61.935 0.199999 62.015 0.199999H64.223C64.303 0.199999 64.367 0.231999 64.415 0.295999C64.479 0.343999 64.511 0.408 64.511 0.487999V16.712C64.511 16.792 64.479 16.864 64.415 16.928C64.367 16.976 64.303 17 64.223 17H62.087C61.927 17 61.815 16.936 61.751 16.808L54.839 5.48C54.807 5.432 54.775 5.416 54.743 5.432C54.711 5.432 54.695 5.464 54.695 5.528L54.743 16.712C54.743 16.792 54.711 16.864 54.647 16.928C54.599 16.976 54.535 17 54.455 17H52.247C52.167 17 52.095 16.976 52.031 16.928C51.983 16.864 51.959 16.792 51.959 16.712V0.487999C51.959 0.408 51.983 0.343999 52.031 0.295999C52.095 0.231999 52.167 0.199999 52.247 0.199999H54.383C54.543 0.199999 54.655 0.263999 54.719 0.391999L61.607 11.72C61.639 11.768 61.671 11.792 61.703 11.792C61.735 11.776 61.751 11.736 61.751 11.672L61.727 0.487999ZM78.4297 17C78.2697 17 78.1657 16.92 78.1177 16.76L77.3257 14.192C77.2937 14.128 77.2537 14.096 77.2057 14.096H70.8697C70.8217 14.096 70.7817 14.128 70.7497 14.192L69.9577 16.76C69.9097 16.92 69.8057 17 69.6457 17H67.2457C67.1497 17 67.0777 16.976 67.0297 16.928C66.9817 16.864 66.9737 16.776 67.0057 16.664L72.2137 0.439999C72.2617 0.279999 72.3657 0.199999 72.5257 0.199999H75.5257C75.6857 0.199999 75.7897 0.279999 75.8377 0.439999L81.0697 16.664C81.0857 16.696 81.0937 16.736 81.0937 16.784C81.0937 16.928 81.0057 17 80.8297 17H78.4297ZM71.4937 11.768C71.4777 11.864 71.5097 11.912 71.5897 11.912H76.4617C76.5577 11.912 76.5897 11.864 76.5577 11.768L74.0857 3.728C74.0697 3.664 74.0457 3.632 74.0137 3.632C73.9817 3.632 73.9577 3.664 73.9417 3.728L71.4937 11.768ZM83.8642 17C83.7842 17 83.7122 16.976 83.6482 16.928C83.6002 16.864 83.5762 16.792 83.5762 16.712V0.487999C83.5762 0.408 83.6002 0.343999 83.6482 0.295999C83.7122 0.231999 83.7842 0.199999 83.8642 0.199999H86.0722C86.1522 0.199999 86.2162 0.231999 86.2642 0.295999C86.3282 0.343999 86.3602 0.408 86.3602 0.487999V14.48C86.3602 14.56 86.4002 14.6 86.4802 14.6H94.5202C94.6002 14.6 94.6642 14.632 94.7122 14.696C94.7762 14.744 94.8082 14.808 94.8082 14.888V16.712C94.8082 16.792 94.7762 16.864 94.7122 16.928C94.6642 16.976 94.6002 17 94.5202 17H83.8642ZM10.3358 51C10.1598 51 10.0478 50.92 9.99981 50.76L5.63181 34.512L5.60781 34.416C5.60781 34.272 5.69581 34.2 5.87181 34.2H8.22381C8.39981 34.2 8.51181 34.28 8.55981 34.44L11.2958 45.384C11.3118 45.432 11.3358 45.456 11.3678 45.456C11.3998 45.456 11.4238 45.432 11.4398 45.384L14.0558 34.44C14.1038 34.28 14.2078 34.2 14.3678 34.2H16.6718C16.8478 34.2 16.9598 34.28 17.0078 34.44L19.7918 45.408C19.8078 45.456 19.8318 45.48 19.8638 45.48C19.8958 45.48 19.9198 45.456 19.9358 45.408L22.6238 34.44C22.6718 34.28 22.7838 34.2 22.9598 34.2H25.1918C25.4158 34.2 25.5038 34.304 25.4558 34.512L21.3038 50.76C21.2558 50.92 21.1438 51 20.9678 51H18.7358C18.5598 51 18.4478 50.92 18.3998 50.76L15.5918 39.312C15.5758 39.264 15.5518 39.24 15.5198 39.24C15.4878 39.224 15.4638 39.248 15.4478 39.312L12.7598 50.76C12.7118 50.92 12.6078 51 12.4478 51H10.3358ZM28.1181 51C28.0381 51 27.9661 50.976 27.9021 50.928C27.8541 50.864 27.8301 50.792 27.8301 50.712V34.488C27.8301 34.408 27.8541 34.344 27.9021 34.296C27.9661 34.232 28.0381 34.2 28.1181 34.2H30.3261C30.4061 34.2 30.4701 34.232 30.5181 34.296C30.5821 34.344 30.6141 34.408 30.6141 34.488V50.712C30.6141 50.792 30.5821 50.864 30.5181 50.928C30.4701 50.976 30.4061 51 30.3261 51H28.1181ZM34.3994 51C34.3194 51 34.2474 50.976 34.1834 50.928C34.1354 50.864 34.1114 50.792 34.1114 50.712V34.488C34.1114 34.408 34.1354 34.344 34.1834 34.296C34.2474 34.232 34.3194 34.2 34.3994 34.2H40.2554C41.3914 34.2 42.3914 34.4 43.2554 34.8C44.1194 35.2 44.7834 35.776 45.2474 36.528C45.7274 37.264 45.9674 38.128 45.9674 39.12V46.08C45.9674 47.072 45.7274 47.944 45.2474 48.696C44.7834 49.432 44.1194 50 43.2554 50.4C42.3914 50.8 41.3914 51 40.2554 51H34.3994ZM36.8954 48.48C36.8954 48.56 36.9354 48.6 37.0154 48.6H40.3754C41.2234 48.6 41.8954 48.336 42.3914 47.808C42.9034 47.264 43.1674 46.544 43.1834 45.648V39.576C43.1834 38.664 42.9274 37.944 42.4154 37.416C41.9034 36.872 41.2154 36.6 40.3514 36.6H37.0154C36.9354 36.6 36.8954 36.64 36.8954 36.72V48.48ZM54.5399 51.192C53.3399 51.192 52.2839 50.96 51.3719 50.496C50.4599 50.016 49.7559 49.344 49.2599 48.48C48.7639 47.616 48.5159 46.624 48.5159 45.504V39.696C48.5159 38.56 48.7639 37.568 49.2599 36.72C49.7559 35.856 50.4599 35.192 51.3719 34.728C52.2839 34.248 53.3399 34.008 54.5399 34.008C55.7239 34.008 56.7639 34.24 57.6599 34.704C58.5719 35.168 59.2759 35.8 59.7719 36.6C60.2679 37.4 60.5159 38.304 60.5159 39.312V39.504C60.5159 39.584 60.4839 39.656 60.4199 39.72C60.3719 39.768 60.3079 39.792 60.2279 39.792H58.0439C57.9639 39.792 57.8919 39.768 57.8279 39.72C57.7799 39.656 57.7559 39.584 57.7559 39.504V39.384C57.7559 38.52 57.4599 37.808 56.8679 37.248C56.2919 36.688 55.5159 36.408 54.5399 36.408C53.5639 36.408 52.7799 36.704 52.1879 37.296C51.5959 37.872 51.2999 38.64 51.2999 39.6V45.6C51.2999 46.56 51.6119 47.336 52.2359 47.928C52.8599 48.504 53.6679 48.792 54.6599 48.792C55.6199 48.792 56.3719 48.544 56.9159 48.048C57.4759 47.536 57.7559 46.84 57.7559 45.96V44.472C57.7559 44.392 57.7159 44.352 57.6359 44.352H54.6839C54.6039 44.352 54.5319 44.328 54.4679 44.28C54.4199 44.216 54.3959 44.144 54.3959 44.064V42.288C54.3959 42.208 54.4199 42.144 54.4679 42.096C54.5319 42.032 54.6039 42 54.6839 42H60.2279C60.3079 42 60.3719 42.032 60.4199 42.096C60.4839 42.144 60.5159 42.208 60.5159 42.288V45.36C60.5159 47.2 59.9719 48.632 58.8839 49.656C57.8119 50.68 56.3639 51.192 54.5399 51.192ZM75.0186 36.312C75.0186 36.392 74.9866 36.464 74.9226 36.528C74.8746 36.576 74.8106 36.6 74.7306 36.6H66.5466C66.4666 36.6 66.4266 36.64 66.4266 36.72V41.208C66.4266 41.288 66.4666 41.328 66.5466 41.328H72.0426C72.1226 41.328 72.1866 41.36 72.2346 41.424C72.2986 41.472 72.3306 41.536 72.3306 41.616V43.44C72.3306 43.52 72.2986 43.592 72.2346 43.656C72.1866 43.704 72.1226 43.728 72.0426 43.728H66.5466C66.4666 43.728 66.4266 43.768 66.4266 43.848V48.48C66.4266 48.56 66.4666 48.6 66.5466 48.6H74.7306C74.8106 48.6 74.8746 48.632 74.9226 48.696C74.9866 48.744 75.0186 48.808 75.0186 48.888V50.712C75.0186 50.792 74.9866 50.864 74.9226 50.928C74.8746 50.976 74.8106 51 74.7306 51H63.9306C63.8506 51 63.7786 50.976 63.7146 50.928C63.6666 50.864 63.6426 50.792 63.6426 50.712V34.488C63.6426 34.408 63.6666 34.344 63.7146 34.296C63.7786 34.232 63.8506 34.2 63.9306 34.2H74.7306C74.8106 34.2 74.8746 34.232 74.9226 34.296C74.9866 34.344 75.0186 34.408 75.0186 34.488V36.312ZM88.8858 34.2C88.9658 34.2 89.0298 34.232 89.0778 34.296C89.1418 34.344 89.1738 34.408 89.1738 34.488V36.336C89.1738 36.416 89.1418 36.488 89.0778 36.552C89.0298 36.6 88.9658 36.624 88.8858 36.624H84.4698C84.3898 36.624 84.3498 36.664 84.3498 36.744V50.712C84.3498 50.792 84.3178 50.864 84.2538 50.928C84.2058 50.976 84.1418 51 84.0618 51H81.8538C81.7738 51 81.7018 50.976 81.6378 50.928C81.5898 50.864 81.5658 50.792 81.5658 50.712V36.744C81.5658 36.664 81.5258 36.624 81.4458 36.624H77.1978C77.1178 36.624 77.0458 36.6 76.9818 36.552C76.9338 36.488 76.9098 36.416 76.9098 36.336V34.488C76.9098 34.408 76.9338 34.344 76.9818 34.296C77.0458 34.232 77.1178 34.2 77.1978 34.2H88.8858Z" fill="#112D44"/>
</svg>
