<svg width="97" height="18" viewBox="0 0 97 18" fill="none" xmlns="http://www.w3.org/2000/svg">
<path d="M7.84756 0.175999C8.85556 0.175999 9.74356 0.383999 10.5116 0.8C11.2796 1.216 11.8716 1.808 12.2876 2.576C12.7196 3.328 12.9356 4.2 12.9356 5.192C12.9356 6.168 12.7196 7.032 12.2876 7.784C11.8556 8.536 11.2396 9.12 10.4396 9.536C9.65556 9.936 8.74356 10.136 7.70356 10.136H3.86356C3.78356 10.136 3.74356 10.176 3.74356 10.256V16.712C3.74356 16.792 3.71156 16.864 3.64756 16.928C3.59956 16.976 3.53556 17 3.45556 17H1.24756C1.16756 17 1.09556 16.976 1.03156 16.928C0.983563 16.864 0.959563 16.792 0.959563 16.712V0.464C0.959563 0.384 0.983563 0.32 1.03156 0.271999C1.09556 0.207999 1.16756 0.175999 1.24756 0.175999H7.84756ZM7.43956 7.88C8.25556 7.88 8.91156 7.64 9.40756 7.16C9.90356 6.68 10.1516 6.048 10.1516 5.264C10.1516 4.464 9.90356 3.816 9.40756 3.32C8.91156 2.824 8.25556 2.576 7.43956 2.576H3.86356C3.78356 2.576 3.74356 2.616 3.74356 2.696V7.76C3.74356 7.84 3.78356 7.88 3.86356 7.88H7.43956ZM24.7383 17C24.5783 17 24.4743 16.92 24.4263 16.76L23.6343 14.192C23.6023 14.128 23.5623 14.096 23.5143 14.096H17.1783C17.1303 14.096 17.0903 14.128 17.0583 14.192L16.2663 16.76C16.2183 16.92 16.1143 17 15.9543 17H13.5543C13.4583 17 13.3863 16.976 13.3383 16.928C13.2903 16.864 13.2823 16.776 13.3143 16.664L18.5223 0.439999C18.5703 0.279999 18.6743 0.199999 18.8343 0.199999H21.8343C21.9943 0.199999 22.0983 0.279999 22.1463 0.439999L27.3783 16.664C27.3943 16.696 27.4023 16.736 27.4023 16.784C27.4023 16.928 27.3143 17 27.1383 17H24.7383ZM17.8023 11.768C17.7863 11.864 17.8183 11.912 17.8983 11.912H22.7703C22.8663 11.912 22.8983 11.864 22.8663 11.768L20.3943 3.728C20.3783 3.664 20.3543 3.632 20.3223 3.632C20.2903 3.632 20.2663 3.664 20.2503 3.728L17.8023 11.768ZM32.2361 16.976C32.1561 16.976 32.0841 16.952 32.0201 16.904C31.9721 16.84 31.9481 16.768 31.9481 16.688V10.256C31.9481 10.192 31.9401 10.144 31.9241 10.112L26.9801 0.535999C26.9481 0.471999 26.9321 0.423999 26.9321 0.391999C26.9321 0.263999 27.0201 0.199999 27.1961 0.199999H29.5721C29.7321 0.199999 29.8441 0.271999 29.9081 0.415999L33.2681 7.112C33.3161 7.176 33.3641 7.176 33.4121 7.112L36.7961 0.415999C36.8761 0.271999 36.9881 0.199999 37.1321 0.199999H39.5321C39.6441 0.199999 39.7161 0.231999 39.7481 0.295999C39.7961 0.359999 39.7961 0.439999 39.7481 0.535999L34.7801 10.112C34.7481 10.176 34.7321 10.224 34.7321 10.256V16.688C34.7321 16.768 34.7001 16.84 34.6361 16.904C34.5881 16.952 34.5241 16.976 34.4441 16.976H32.2361ZM50.0743 17C49.9143 17 49.8103 16.92 49.7623 16.76L48.9703 14.192C48.9383 14.128 48.8983 14.096 48.8503 14.096H42.5143C42.4663 14.096 42.4263 14.128 42.3943 14.192L41.6023 16.76C41.5543 16.92 41.4503 17 41.2903 17H38.8903C38.7943 17 38.7223 16.976 38.6743 16.928C38.6263 16.864 38.6183 16.776 38.6503 16.664L43.8583 0.439999C43.9063 0.279999 44.0103 0.199999 44.1703 0.199999H47.1703C47.3303 0.199999 47.4343 0.279999 47.4823 0.439999L52.7143 16.664C52.7303 16.696 52.7383 16.736 52.7383 16.784C52.7383 16.928 52.6503 17 52.4743 17H50.0743ZM43.1383 11.768C43.1223 11.864 43.1543 11.912 43.2343 11.912H48.1063C48.2023 11.912 48.2343 11.864 48.2023 11.768L45.7303 3.728C45.7143 3.664 45.6903 3.632 45.6583 3.632C45.6263 3.632 45.6023 3.664 45.5863 3.728L43.1383 11.768ZM60.8429 17.192C59.6589 17.192 58.6109 16.96 57.6989 16.496C56.7869 16.032 56.0749 15.376 55.5629 14.528C55.0669 13.664 54.8189 12.672 54.8189 11.552V0.487999C54.8189 0.408 54.8429 0.343999 54.8909 0.295999C54.9549 0.231999 55.0269 0.199999 55.1069 0.199999H57.3149C57.3949 0.199999 57.4589 0.231999 57.5069 0.295999C57.5709 0.343999 57.6029 0.408 57.6029 0.487999V11.6C57.6029 12.544 57.8989 13.312 58.4909 13.904C59.0829 14.496 59.8669 14.792 60.8429 14.792C61.8189 14.792 62.6029 14.496 63.1949 13.904C63.7869 13.312 64.0829 12.544 64.0829 11.6V0.487999C64.0829 0.408 64.1069 0.343999 64.1549 0.295999C64.2189 0.231999 64.2909 0.199999 64.3709 0.199999H66.5789C66.6589 0.199999 66.7229 0.231999 66.7709 0.295999C66.8349 0.343999 66.8669 0.408 66.8669 0.487999V11.552C66.8669 12.672 66.6189 13.664 66.1229 14.528C65.6269 15.376 64.9229 16.032 64.0109 16.496C63.0989 16.96 62.0429 17.192 60.8429 17.192ZM81.2608 0.199999C81.3408 0.199999 81.4048 0.231999 81.4528 0.295999C81.5168 0.343999 81.5488 0.408 81.5488 0.487999V2.336C81.5488 2.416 81.5168 2.488 81.4528 2.552C81.4048 2.6 81.3408 2.624 81.2608 2.624H76.8448C76.7648 2.624 76.7248 2.664 76.7248 2.744V16.712C76.7248 16.792 76.6928 16.864 76.6288 16.928C76.5808 16.976 76.5168 17 76.4368 17H74.2288C74.1488 17 74.0768 16.976 74.0128 16.928C73.9648 16.864 73.9408 16.792 73.9408 16.712V2.744C73.9408 2.664 73.9008 2.624 73.8208 2.624H69.5728C69.4928 2.624 69.4208 2.6 69.3568 2.552C69.3088 2.488 69.2848 2.416 69.2848 2.336V0.487999C69.2848 0.408 69.3088 0.343999 69.3568 0.295999C69.4208 0.231999 69.4928 0.199999 69.5728 0.199999H81.2608ZM93.2632 0.487999C93.2632 0.408 93.2872 0.343999 93.3352 0.295999C93.3992 0.231999 93.4712 0.199999 93.5512 0.199999H95.7592C95.8392 0.199999 95.9032 0.231999 95.9512 0.295999C96.0152 0.343999 96.0472 0.408 96.0472 0.487999V16.712C96.0472 16.792 96.0152 16.864 95.9512 16.928C95.9032 16.976 95.8392 17 95.7592 17H93.5512C93.4712 17 93.3992 16.976 93.3352 16.928C93.2872 16.864 93.2632 16.792 93.2632 16.712V9.848C93.2632 9.768 93.2232 9.728 93.1432 9.728H87.0232C86.9432 9.728 86.9032 9.768 86.9032 9.848V16.712C86.9032 16.792 86.8712 16.864 86.8072 16.928C86.7592 16.976 86.6952 17 86.6152 17H84.4072C84.3272 17 84.2552 16.976 84.1912 16.928C84.1432 16.864 84.1192 16.792 84.1192 16.712V0.487999C84.1192 0.408 84.1432 0.343999 84.1912 0.295999C84.2552 0.231999 84.3272 0.199999 84.4072 0.199999H86.6152C86.6952 0.199999 86.7592 0.231999 86.8072 0.295999C86.8712 0.343999 86.9032 0.408 86.9032 0.487999V7.208C86.9032 7.288 86.9432 7.328 87.0232 7.328H93.1432C93.2232 7.328 93.2632 7.288 93.2632 7.208V0.487999Z" fill="#112D44"/>
</svg>
