<svg width="93" height="17" viewBox="0 0 93 17" fill="none" xmlns="http://www.w3.org/2000/svg">
<path d="M7.55069 0.175999C8.55869 0.175999 9.44669 0.383999 10.2147 0.8C10.9827 1.216 11.5747 1.808 11.9907 2.576C12.4227 3.328 12.6387 4.2 12.6387 5.192C12.6387 6.168 12.4227 7.032 11.9907 7.784C11.5587 8.536 10.9427 9.12 10.1427 9.536C9.35869 9.936 8.44669 10.136 7.40669 10.136H3.56669C3.48669 10.136 3.44669 10.176 3.44669 10.256V16.712C3.44669 16.792 3.41469 16.864 3.35069 16.928C3.30269 16.976 3.23869 17 3.15869 17H0.950688C0.870688 17 0.798688 16.976 0.734688 16.928C0.686688 16.864 0.662688 16.792 0.662688 16.712V0.464C0.662688 0.384 0.686688 0.32 0.734688 0.271999C0.798688 0.207999 0.870688 0.175999 0.950688 0.175999H7.55069ZM7.14269 7.88C7.95869 7.88 8.61469 7.64 9.11069 7.16C9.60669 6.68 9.85469 6.048 9.85469 5.264C9.85469 4.464 9.60669 3.816 9.11069 3.32C8.61469 2.824 7.95869 2.576 7.14269 2.576H3.56669C3.48669 2.576 3.44669 2.616 3.44669 2.696V7.76C3.44669 7.84 3.48669 7.88 3.56669 7.88H7.14269ZM24.4414 17C24.2814 17 24.1774 16.92 24.1294 16.76L23.3374 14.192C23.3054 14.128 23.2654 14.096 23.2174 14.096H16.8814C16.8334 14.096 16.7934 14.128 16.7614 14.192L15.9694 16.76C15.9214 16.92 15.8174 17 15.6574 17H13.2574C13.1614 17 13.0894 16.976 13.0414 16.928C12.9934 16.864 12.9854 16.776 13.0174 16.664L18.2254 0.439999C18.2734 0.279999 18.3774 0.199999 18.5374 0.199999H21.5374C21.6974 0.199999 21.8014 0.279999 21.8494 0.439999L27.0814 16.664C27.0974 16.696 27.1054 16.736 27.1054 16.784C27.1054 16.928 27.0174 17 26.8414 17H24.4414ZM17.5054 11.768C17.4894 11.864 17.5214 11.912 17.6014 11.912H22.4734C22.5694 11.912 22.6014 11.864 22.5694 11.768L20.0974 3.728C20.0814 3.664 20.0574 3.632 20.0254 3.632C19.9934 3.632 19.9694 3.664 19.9534 3.728L17.5054 11.768ZM31.9392 16.976C31.8592 16.976 31.7872 16.952 31.7232 16.904C31.6752 16.84 31.6512 16.768 31.6512 16.688V10.256C31.6512 10.192 31.6432 10.144 31.6272 10.112L26.6832 0.535999C26.6512 0.471999 26.6352 0.423999 26.6352 0.391999C26.6352 0.263999 26.7232 0.199999 26.8992 0.199999H29.2752C29.4352 0.199999 29.5472 0.271999 29.6112 0.415999L32.9712 7.112C33.0192 7.176 33.0672 7.176 33.1152 7.112L36.4992 0.415999C36.5792 0.271999 36.6912 0.199999 36.8352 0.199999H39.2352C39.3472 0.199999 39.4192 0.231999 39.4512 0.295999C39.4992 0.359999 39.4992 0.439999 39.4512 0.535999L34.4832 10.112C34.4512 10.176 34.4352 10.224 34.4352 10.256V16.688C34.4352 16.768 34.4032 16.84 34.3392 16.904C34.2912 16.952 34.2272 16.976 34.1472 16.976H31.9392ZM52.8104 0.391999C52.8904 0.263999 53.0024 0.199999 53.1464 0.199999H55.3544C55.4344 0.199999 55.4984 0.231999 55.5464 0.295999C55.6104 0.343999 55.6424 0.408 55.6424 0.487999V16.712C55.6424 16.792 55.6104 16.864 55.5464 16.928C55.4984 16.976 55.4344 17 55.3544 17H53.1464C53.0664 17 52.9944 16.976 52.9304 16.928C52.8824 16.864 52.8584 16.792 52.8584 16.712V5.264C52.8584 5.216 52.8344 5.184 52.7864 5.168C52.7544 5.152 52.7304 5.168 52.7144 5.216L49.7144 9.824C49.6344 9.952 49.5224 10.016 49.3784 10.016H48.2744C48.1304 10.016 48.0184 9.952 47.9384 9.824L44.9144 5.24C44.8984 5.192 44.8664 5.176 44.8184 5.192C44.7864 5.208 44.7704 5.24 44.7704 5.288V16.712C44.7704 16.792 44.7384 16.864 44.6744 16.928C44.6264 16.976 44.5624 17 44.4824 17H42.2744C42.1944 17 42.1224 16.976 42.0584 16.928C42.0104 16.864 41.9864 16.792 41.9864 16.712V0.487999C41.9864 0.408 42.0104 0.343999 42.0584 0.295999C42.1224 0.231999 42.1944 0.199999 42.2744 0.199999H44.4824C44.6264 0.199999 44.7384 0.263999 44.8184 0.391999L48.7304 6.32C48.7624 6.352 48.7944 6.368 48.8264 6.368C48.8584 6.368 48.8824 6.352 48.8984 6.32L52.8104 0.391999ZM69.5586 17C69.3986 17 69.2946 16.92 69.2466 16.76L68.4546 14.192C68.4226 14.128 68.3826 14.096 68.3346 14.096H61.9986C61.9506 14.096 61.9106 14.128 61.8786 14.192L61.0866 16.76C61.0386 16.92 60.9346 17 60.7746 17H58.3746C58.2786 17 58.2066 16.976 58.1586 16.928C58.1106 16.864 58.1026 16.776 58.1346 16.664L63.3426 0.439999C63.3906 0.279999 63.4946 0.199999 63.6546 0.199999H66.6546C66.8146 0.199999 66.9186 0.279999 66.9666 0.439999L72.1986 16.664C72.2146 16.696 72.2226 16.736 72.2226 16.784C72.2226 16.928 72.1346 17 71.9586 17H69.5586ZM62.6226 11.768C62.6066 11.864 62.6386 11.912 62.7186 11.912H67.5906C67.6866 11.912 67.7186 11.864 67.6866 11.768L65.2146 3.728C65.1986 3.664 65.1746 3.632 65.1426 3.632C65.1106 3.632 65.0866 3.664 65.0706 3.728L62.6226 11.768ZM74.9931 17C74.9131 17 74.8411 16.976 74.7771 16.928C74.7291 16.864 74.7051 16.792 74.7051 16.712V0.487999C74.7051 0.408 74.7291 0.343999 74.7771 0.295999C74.8411 0.231999 74.9131 0.199999 74.9931 0.199999H77.2011C77.2811 0.199999 77.3451 0.231999 77.3931 0.295999C77.4571 0.343999 77.4891 0.408 77.4891 0.487999V16.712C77.4891 16.792 77.4571 16.864 77.3931 16.928C77.3451 16.976 77.2811 17 77.2011 17H74.9931ZM81.2744 17C81.1944 17 81.1224 16.976 81.0584 16.928C81.0104 16.864 80.9864 16.792 80.9864 16.712V0.487999C80.9864 0.408 81.0104 0.343999 81.0584 0.295999C81.1224 0.231999 81.1944 0.199999 81.2744 0.199999H83.4824C83.5624 0.199999 83.6264 0.231999 83.6744 0.295999C83.7384 0.343999 83.7704 0.408 83.7704 0.487999V14.48C83.7704 14.56 83.8104 14.6 83.8904 14.6H91.9304C92.0104 14.6 92.0744 14.632 92.1224 14.696C92.1864 14.744 92.2184 14.808 92.2184 14.888V16.712C92.2184 16.792 92.1864 16.864 92.1224 16.928C92.0744 16.976 92.0104 17 91.9304 17H81.2744Z" fill="#112D44"/>
</svg>
