<svg width="144" height="40" viewBox="0 0 144 40" fill="none" xmlns="http://www.w3.org/2000/svg">
<g clip-path="url(#clip0_2099_114148)">
<path d="M51.2307 1.76327H46.9141V0.154785H57.3942V1.76248H53.0776V13.7154H51.2307V1.76327Z" fill="#093BAA"/>
<path d="M59.1055 0.154785H60.9524V13.7161H59.1055V0.154785Z" fill="#093BAA"/>
<path d="M63.6375 0.154785H65.3489L70.0738 8.85378L74.6813 0.154785H76.3926V13.7161H74.5843V3.60344L71.0063 10.2675C70.851 10.5518 70.7052 10.7521 70.5688 10.8683C70.4324 10.9846 70.274 11.0427 70.0927 11.0427H69.5677L65.4647 3.60344V13.7161H63.6367V0.154785H63.6375Z" fill="#093BAA"/>
<path d="M79.2778 13.3289C79.0121 13.0706 78.8789 12.7156 78.8789 12.2632V0.154785H88.4257V1.76248H80.7258V5.98553H87.8424V7.57438H80.7258V12.1077H88.4257V13.7154H80.3561C79.9029 13.7161 79.5426 13.5873 79.2778 13.3289Z" fill="#093BAA"/>
<path d="M92.0258 13.2511C91.3259 12.838 90.7843 12.2536 90.402 11.4981C90.0197 10.7425 89.8281 9.86761 89.8281 8.8733V4.99818C89.8281 4.00387 90.022 3.12895 90.4114 2.3734C90.8001 1.61785 91.3479 1.03352 92.0542 0.620407C92.7605 0.20729 93.5803 0.000732422 94.5136 0.000732422H96.575C97.4563 0.000732422 98.2375 0.191583 98.9177 0.572498C99.598 0.953413 100.124 1.48669 100.493 2.17077C100.862 2.85563 101.047 3.64338 101.047 4.53401H99.2386C99.2386 3.66851 98.9958 2.97108 98.5094 2.44173C98.023 1.91238 97.3782 1.6477 96.575 1.6477H94.5136C93.671 1.6477 92.9875 1.95793 92.4625 2.5776C91.9375 3.19728 91.6751 4.01801 91.6751 5.03824V8.8356C91.6751 9.85583 91.9281 10.6758 92.4334 11.2962C92.9387 11.9159 93.6063 12.2261 94.4364 12.2261H96.5364C97.3656 12.2261 98.0301 11.9324 98.5291 11.3449C99.0281 10.7575 99.278 9.98542 99.278 9.0296H101.086C101.086 9.98542 100.898 10.8313 100.523 11.5672C100.147 12.3031 99.6154 12.8717 98.9288 13.2723C98.2414 13.6728 97.4445 13.8731 96.5371 13.8731H94.4364C93.5291 13.8708 92.7258 13.665 92.0258 13.2511Z" fill="#093BAA"/>
<path d="M102.836 0.154785H104.684V6.08292H111.8V0.154785H113.667V13.7161H111.8V7.71025H104.684V13.7161H102.837V0.154785H102.836Z" fill="#093BAA"/>
<path d="M123.952 10.1513H118.274L116.952 13.7161H115.027L120.297 0.154785H121.133C121.691 0.154785 122.086 0.458732 122.32 1.06505L127.2 13.7154H125.295L123.952 10.1513ZM118.819 8.60167H123.408L121.133 2.47954H121.114L118.819 8.60167Z" fill="#093BAA"/>
<path d="M128.754 0.154785H130.601V13.7161H128.754V0.154785Z" fill="#093BAA"/>
<path d="M133.281 0.154785H134.993L142.187 10.7521V0.154785H143.996V13.7161H142.304L135.09 3.15812V13.7161H133.282V0.154785H133.281Z" fill="#093BAA"/>
<path d="M50.9887 31.1346C50.7231 30.8762 50.5898 30.5275 50.5898 30.0885V17.9604H52.4368V29.8945H59.8253V31.5218H52.0671C51.6138 31.5218 51.2544 31.393 50.9887 31.1346Z" fill="#093BAA"/>
<path d="M69.9796 27.9574H64.3016L62.9797 31.5223H61.0547L66.3243 17.9609H67.1607C67.718 17.9609 68.1137 18.2649 68.347 18.8712L73.2273 31.5215H71.322L69.9796 27.9574ZM64.8455 26.407H69.4349L67.1599 20.2849H67.141L64.8455 26.407Z" fill="#093BAA"/>
<path d="M74.8771 31.1252C74.6051 30.8605 74.4688 30.5087 74.4688 30.0696V17.9604H80.555C81.7343 17.9604 82.6842 18.2416 83.4039 18.8032C84.1236 19.3647 84.483 20.1109 84.483 21.0408V22.0484C84.483 22.5134 84.3758 22.9524 84.1622 23.3655C83.9486 23.7786 83.6467 24.1148 83.258 24.3732V24.3928C83.88 24.5742 84.3821 24.9065 84.7652 25.3903C85.1475 25.8748 85.3391 26.4333 85.3391 27.0663V28.0347C85.3391 29.0934 84.9859 29.94 84.2796 30.5723C83.5726 31.2053 82.6172 31.5218 81.4111 31.5218H75.9476C75.5061 31.5218 75.1498 31.3899 74.8771 31.1252ZM80.8278 23.9082C81.3717 23.9082 81.81 23.737 82.1403 23.3946C82.4713 23.0521 82.6361 22.5974 82.6361 22.0288V21.1374C82.6361 20.6724 82.4414 20.2978 82.0528 20.0135C81.6641 19.7292 81.1581 19.587 80.5361 19.587H76.3165V23.9074H80.8278V23.9082ZM81.2164 29.8945C81.9164 29.8945 82.4706 29.7201 82.8789 29.3714C83.2872 29.0227 83.4914 28.5577 83.4914 27.9766V27.0663C83.4914 26.5888 83.3164 26.2008 82.9664 25.9039C82.6164 25.607 82.156 25.4586 81.5861 25.4586H76.3165V29.8953H81.2164V29.8945Z" fill="#093BAA"/>
<path d="M87.7882 30.5532C87.0362 29.8047 86.6602 28.797 86.6602 27.531H88.4685C88.4685 28.2928 88.6852 28.8999 89.1196 29.3523C89.5539 29.8047 90.1278 30.0301 90.8404 30.0301H92.9987C93.7113 30.0301 94.282 29.8785 94.71 29.5746C95.1381 29.2714 95.3517 28.8677 95.3517 28.3635V27.3174C95.3517 26.9168 95.1988 26.5814 94.8945 26.3097C94.5902 26.0387 94.159 25.8581 93.6017 25.767L90.0631 25.1858C89.0258 25.0177 88.2257 24.6627 87.6613 24.12C87.0976 23.5773 86.8154 22.8995 86.8154 22.0859V21.0201C86.8154 20.0517 87.1875 19.2734 87.9332 18.6859C88.6781 18.0984 89.6603 17.8047 90.879 17.8047H93.0759C93.8406 17.8047 94.5177 17.9633 95.1081 18.2791C95.6978 18.5956 96.1549 19.0409 96.4789 19.6158C96.8029 20.1907 96.9653 20.8528 96.9653 21.6013H95.1373C95.1373 20.9557 94.9489 20.4357 94.5737 20.0415C94.1977 19.6472 93.6987 19.4509 93.0767 19.4509H90.8798C90.2184 19.4509 89.684 19.5962 89.2757 19.8868C88.8673 20.1774 88.6632 20.5748 88.6632 21.0782V21.95C88.6632 22.3631 88.809 22.7055 89.1007 22.9765C89.3923 23.2475 89.8101 23.4352 90.3548 23.538L93.8548 24.1389C94.9308 24.3203 95.7569 24.6714 96.3339 25.1944C96.9109 25.7175 97.1994 26.3733 97.1994 27.1611V28.42C97.1994 29.4018 96.8203 30.1895 96.0619 30.7833C95.3036 31.3778 94.2954 31.6747 93.0381 31.6747H90.8018C89.5445 31.6771 88.5394 31.3024 87.7882 30.5532Z" fill="#093BAA"/>
<path d="M40 0H20.3036L16.0512 4.25306H4.25315V15.9417L0 20.1932V40H19.6956L23.948 35.7469H35.7469V24.0583L39.9992 19.806V0H40ZM33.6945 33.6946H6.3055V6.30459H33.6953V33.6946H33.6945Z" fill="#093BAA"/>
<path d="M30.5814 16.7608C30.528 16.8142 30.4714 16.8739 30.4117 16.9304C29.4504 17.8949 28.4882 18.8593 27.5182 19.8159C27.442 19.8953 27.3179 19.9652 27.2134 19.9652C24.8556 19.9738 22.4945 19.9707 20.1335 19.9707C20.0997 19.9707 20.0683 19.962 20.0039 19.9534C20.007 18.7321 20.007 17.5359 20.0094 16.3374C20.0094 15.1672 20.0039 13.9962 20.0149 12.8228C20.018 12.7019 20.0738 12.5518 20.1586 12.4647C21.1208 11.4884 22.094 10.5216 23.0608 9.55401C23.1087 9.5061 23.1622 9.46133 23.2242 9.40479C25.6701 11.8529 28.1104 14.2899 30.5814 16.7608Z" fill="#0EDDBA"/>
<path d="M20.004 27.1298C20.004 27.3104 19.953 27.4345 19.8265 27.561C18.8761 28.5003 17.9336 29.4475 16.9887 30.3931C16.9267 30.452 16.8678 30.514 16.7916 30.5879C14.3379 28.1343 11.8952 25.6917 9.42969 23.2233C10.3887 22.2643 11.3422 21.3305 12.2698 20.3691C12.5267 20.1037 12.7835 20.0079 13.1495 20.011C15.3268 20.0283 17.5048 20.0196 19.682 20.0165C19.7778 20.0165 19.8713 19.9882 19.9836 19.9709C19.9923 20.1178 19.9978 20.1995 19.9978 20.2843C20.0009 22.5659 19.9978 24.8482 20.004 27.1298Z" fill="#0EDDBA"/>
<path d="M52.3259 36.0535C52.6057 36.0535 52.8469 36.1029 53.0503 36.2011C53.2529 36.2993 53.4113 36.4391 53.5264 36.6197C53.6407 36.8004 53.6975 37.0187 53.6975 37.2732C53.6975 37.5245 53.6407 37.7413 53.5264 37.9243C53.4121 38.1073 53.2537 38.2471 53.0503 38.3452C52.8469 38.4434 52.6057 38.4929 52.3259 38.4929H51.4572V39.9419H50.8242V36.0543H52.3259V36.0535ZM52.2258 37.9502C52.5056 37.9502 52.7114 37.8921 52.8438 37.7766C52.9754 37.6612 53.0416 37.4931 53.0416 37.2732C53.0416 37.0493 52.9754 36.8797 52.8438 36.7635C52.7114 36.648 52.5056 36.5899 52.2258 36.5899H51.4572V37.951H52.2258V37.9502Z" fill="#0F3B87"/>
<path d="M57.9032 36.0535C58.321 36.0535 58.6529 36.1579 58.8996 36.3653C59.1456 36.5734 59.2693 36.8538 59.2693 37.208C59.2693 37.5732 59.1464 37.8552 58.8996 38.0531C58.6537 38.2518 58.321 38.3507 57.9032 38.3507L57.8441 38.3861H56.9392V39.9412H56.3125V36.0535H57.9032ZM57.8559 37.8622C58.1121 37.8622 58.3021 37.8104 58.4267 37.7059C58.5512 37.6023 58.6127 37.442 58.6127 37.2261C58.6127 37.014 58.5504 36.8546 58.4267 36.7493C58.3021 36.6433 58.1121 36.5899 57.8559 36.5899H56.9392V37.8622H57.8559ZM58.228 37.9918L59.4987 39.9419H58.7711L57.6833 38.2392L58.228 37.9918Z" fill="#0F3B87"/>
<path d="M63.6469 35.9946C64.0252 35.9946 64.3524 36.0755 64.6283 36.2357C64.9042 36.3968 65.117 36.6269 65.2668 36.9253C65.4165 37.2238 65.4914 37.5811 65.4914 37.9974C65.4914 38.4136 65.4165 38.771 65.2668 39.0694C65.117 39.3679 64.9042 39.598 64.6283 39.759C64.3524 39.92 64.0252 40.0009 63.6469 40.0009C63.2724 40.0009 62.9469 39.9208 62.6718 39.759C62.3959 39.598 62.183 39.3687 62.0333 39.0694C61.8835 38.771 61.8086 38.4136 61.8086 37.9974C61.8086 37.5811 61.8835 37.2238 62.0333 36.9253C62.183 36.6269 62.3959 36.3975 62.6718 36.2357C62.9469 36.0755 63.2724 35.9946 63.6469 35.9946ZM63.6469 36.5428C63.4025 36.5428 63.1928 36.6002 63.017 36.7133C62.8412 36.8271 62.7064 36.9921 62.6118 37.2081C62.5173 37.424 62.47 37.6871 62.47 37.9974C62.47 38.3037 62.5173 38.566 62.6118 38.7836C62.7064 39.0011 62.8412 39.1676 63.017 39.2815C63.1928 39.3954 63.4025 39.4519 63.6469 39.4519C63.8952 39.4519 64.1072 39.3954 64.2822 39.2815C64.458 39.1676 64.5928 39.0019 64.6874 38.7836C64.782 38.566 64.8293 38.3037 64.8293 37.9974C64.8293 37.6871 64.782 37.424 64.6874 37.2081C64.5928 36.9921 64.458 36.8271 64.2822 36.7133C64.1072 36.5994 63.8952 36.5428 63.6469 36.5428Z" fill="#0F3B87"/>
<path d="M69.795 39.9999C69.4284 39.9999 69.1108 39.9198 68.8435 39.758C68.5755 39.597 68.3666 39.3685 68.2168 39.0716C68.0671 38.7755 67.9922 38.4166 67.9922 37.9964C67.9922 37.5841 68.0702 37.2283 68.2255 36.9298C68.3816 36.6314 68.6023 36.4005 68.8877 36.2379C69.1738 36.0753 69.5017 35.9937 69.8722 35.9937C70.2782 35.9937 70.6061 36.0683 70.8568 36.2175C71.1075 36.3667 71.3069 36.5984 71.4567 36.9126L70.8718 37.1898C70.7969 36.9738 70.6739 36.812 70.5021 36.7036C70.331 36.596 70.1229 36.5419 69.8785 36.5419C69.6342 36.5419 69.4205 36.5992 69.2369 36.7123C69.054 36.8262 68.9105 36.9919 68.8081 37.2102C68.7056 37.4278 68.6543 37.6901 68.6543 37.9964C68.6543 38.3066 68.6993 38.5705 68.7899 38.7889C68.8806 39.0064 69.0177 39.1729 69.2006 39.2868C69.3835 39.4007 69.6097 39.4572 69.8777 39.4572C70.0236 39.4572 70.1599 39.4384 70.2861 39.4015C70.4122 39.3646 70.5226 39.3096 70.6171 39.2365C70.7117 39.1643 70.7858 39.0716 70.8387 38.9593C70.8915 38.847 70.9183 38.715 70.9183 38.5619V38.4504H69.7832V37.9375H71.4803V39.9402H71.0073L70.9719 39.1564L71.0901 39.2153C70.9955 39.4627 70.8387 39.6551 70.6203 39.7926C70.4012 39.9316 70.1261 39.9999 69.795 39.9999Z" fill="#0F3B87"/>
<path d="M75.8642 36.0535C76.282 36.0535 76.6138 36.1579 76.8606 36.3653C77.1065 36.5734 77.2303 36.8538 77.2303 37.208C77.2303 37.5732 77.1073 37.8552 76.8606 38.0531C76.6146 38.2518 76.282 38.3507 75.8642 38.3507L75.8051 38.3861H74.9001V39.9412H74.2734V36.0535H75.8642ZM75.8169 37.8622C76.0731 37.8622 76.263 37.8104 76.3876 37.7059C76.5121 37.6023 76.5736 37.442 76.5736 37.2261C76.5736 37.014 76.5114 36.8546 76.3876 36.7493C76.263 36.6433 76.0731 36.5899 75.8169 36.5899H74.9001V37.8622H75.8169ZM76.1897 37.9918L77.4604 39.9419H76.7329L75.645 38.2392L76.1897 37.9918Z" fill="#0F3B87"/>
<path d="M79.5625 39.9412L81.0342 36.0535H81.791L83.2627 39.9412H82.595L81.5899 37.1609L81.4126 36.6017H81.3944L81.2289 37.1491L80.212 39.9412H79.5625ZM80.3492 38.9225V38.4104H82.4602V38.9225H80.3492Z" fill="#0F3B87"/>
<path d="M89.7254 36.0535V39.9412H89.1405V37.691L89.1878 36.6189H89.1815L87.9928 39.9412H87.467L86.2783 36.6189H86.272L86.3193 37.691V39.9412H85.7344V36.0535H86.6748L87.4607 38.3036L87.7327 39.2288H87.7445L88.022 38.3036L88.8024 36.0535H89.7254Z" fill="#0F3B87"/>
<path d="M96.6551 36.0535V39.9412H96.0702V37.691L96.1175 36.6189H96.1112L94.9225 39.9412H94.3967L93.208 36.6189H93.2017L93.249 37.691V39.9412H92.6641V36.0535H93.6045L94.3912 38.3036L94.6631 39.2288H94.675L94.9524 38.3036L95.7328 36.0535H96.6551Z" fill="#0F3B87"/>
<path d="M100.227 36.0535V39.9412H99.5938V36.0535H100.227Z" fill="#0F3B87"/>
<path d="M106.362 36.0535V39.9412H105.611L104.104 37.4907L103.725 36.8012H103.72L103.743 37.4318V39.9412H103.164V36.0535H103.909L105.411 38.4984L105.795 39.199H105.801L105.777 38.5628V36.0535H106.362Z" fill="#0F3B87"/>
<path d="M110.881 39.9999C110.514 39.9999 110.197 39.9198 109.929 39.758C109.661 39.597 109.453 39.3685 109.303 39.0716C109.153 38.7755 109.078 38.4166 109.078 37.9964C109.078 37.5841 109.156 37.2283 109.311 36.9298C109.468 36.6314 109.688 36.4005 109.974 36.2379C110.26 36.0753 110.588 35.9937 110.958 35.9937C111.364 35.9937 111.692 36.0683 111.943 36.2175C112.193 36.3667 112.393 36.5984 112.543 36.9126L111.958 37.1898C111.883 36.9738 111.76 36.812 111.588 36.7036C111.417 36.596 111.209 36.5419 110.964 36.5419C110.72 36.5419 110.506 36.5992 110.323 36.7123C110.14 36.8262 109.996 36.9919 109.894 37.2102C109.792 37.4278 109.74 37.6901 109.74 37.9964C109.74 38.3066 109.785 38.5705 109.876 38.7889C109.967 39.0064 110.104 39.1729 110.287 39.2868C110.469 39.4007 110.696 39.4572 110.964 39.4572C111.11 39.4572 111.246 39.4384 111.372 39.4015C111.498 39.3646 111.608 39.3096 111.703 39.2365C111.798 39.1643 111.872 39.0716 111.925 38.9593C111.977 38.847 112.004 38.715 112.004 38.5619V38.4504H110.869V37.9375H112.566V39.9402H112.093L112.058 39.1564L112.176 39.2153C112.081 39.4627 111.925 39.6551 111.706 39.7926C111.487 39.9316 111.212 39.9999 110.881 39.9999Z" fill="#0F3B87"/>
<path d="M122.053 36.0535L120.605 39.9412H119.866L118.418 36.0535H119.092L120.002 38.6398L120.239 39.4118L120.475 38.646L121.386 36.0543H122.053V36.0535Z" fill="#0F3B87"/>
<path d="M123.703 39.9412L125.176 36.0535H125.932L127.404 39.9412H126.736L125.731 37.1609L125.554 36.6017H125.536L125.37 37.1491L124.353 39.9412H123.703ZM124.489 38.9225V38.4104H126.6V38.9225H124.489Z" fill="#0F3B87"/>
<path d="M130.508 39.3992H132.66V39.9412H129.875V36.0535H130.508V39.3992Z" fill="#0F3B87"/>
<path d="M138.23 36.0535V38.4513C138.23 38.9657 138.094 39.3521 137.822 39.6113C137.55 39.8705 137.154 40.0001 136.633 40.0001C136.121 40.0001 135.727 39.8705 135.454 39.6113C135.179 39.3521 135.043 38.9657 135.043 38.4513V36.0535H135.676V38.3743C135.676 38.7395 135.755 39.0105 135.912 39.1872C136.07 39.3639 136.311 39.4519 136.634 39.4519C136.961 39.4519 137.203 39.3631 137.361 39.1872C137.518 39.0105 137.597 38.7395 137.597 38.3743V36.0535H138.23Z" fill="#0F3B87"/>
<path d="M141.09 39.9412V36.0535H143.916V36.5954H141.722V37.7146H143.437V38.2447H141.722V39.3992H143.999V39.9412H141.09Z" fill="#0F3B87"/>
</g>
<defs>
<clipPath id="clip0_2099_114148">
<rect width="144" height="40" fill="white"/>
</clipPath>
</defs>
</svg>
