<svg width="124" height="18" viewBox="0 0 124 18" fill="none" xmlns="http://www.w3.org/2000/svg">
<path d="M12.96 0.199999C13.04 0.199999 13.104 0.231999 13.152 0.295999C13.216 0.343999 13.248 0.408 13.248 0.487999V2.336C13.248 2.416 13.216 2.488 13.152 2.552C13.104 2.6 13.04 2.624 12.96 2.624H8.54397C8.46397 2.624 8.42397 2.664 8.42397 2.744V16.712C8.42397 16.792 8.39197 16.864 8.32797 16.928C8.27997 16.976 8.21597 17 8.13597 17H5.92797C5.84797 17 5.77597 16.976 5.71197 16.928C5.66397 16.864 5.63997 16.792 5.63997 16.712V2.744C5.63997 2.664 5.59997 2.624 5.51997 2.624H1.27197C1.19197 2.624 1.11997 2.6 1.05597 2.552C1.00797 2.488 0.983969 2.416 0.983969 2.336V0.487999C0.983969 0.408 1.00797 0.343999 1.05597 0.295999C1.11997 0.231999 1.19197 0.199999 1.27197 0.199999H12.96ZM16.1064 17C16.0264 17 15.9544 16.976 15.8904 16.928C15.8424 16.864 15.8184 16.792 15.8184 16.712V0.487999C15.8184 0.408 15.8424 0.343999 15.8904 0.295999C15.9544 0.231999 16.0264 0.199999 16.1064 0.199999H18.3144C18.3944 0.199999 18.4584 0.231999 18.5064 0.295999C18.5704 0.343999 18.6024 0.408 18.6024 0.487999V16.712C18.6024 16.792 18.5704 16.864 18.5064 16.928C18.4584 16.976 18.3944 17 18.3144 17H16.1064ZM32.9237 0.391999C33.0037 0.263999 33.1157 0.199999 33.2597 0.199999H35.4677C35.5477 0.199999 35.6117 0.231999 35.6597 0.295999C35.7237 0.343999 35.7557 0.408 35.7557 0.487999V16.712C35.7557 16.792 35.7237 16.864 35.6597 16.928C35.6117 16.976 35.5477 17 35.4677 17H33.2597C33.1797 17 33.1077 16.976 33.0437 16.928C32.9957 16.864 32.9717 16.792 32.9717 16.712V5.264C32.9717 5.216 32.9477 5.184 32.8997 5.168C32.8677 5.152 32.8437 5.168 32.8277 5.216L29.8277 9.824C29.7477 9.952 29.6357 10.016 29.4917 10.016H28.3877C28.2437 10.016 28.1317 9.952 28.0517 9.824L25.0277 5.24C25.0117 5.192 24.9797 5.176 24.9317 5.192C24.8997 5.208 24.8837 5.24 24.8837 5.288V16.712C24.8837 16.792 24.8517 16.864 24.7877 16.928C24.7397 16.976 24.6757 17 24.5957 17H22.3877C22.3077 17 22.2357 16.976 22.1717 16.928C22.1237 16.864 22.0997 16.792 22.0997 16.712V0.487999C22.0997 0.408 22.1237 0.343999 22.1717 0.295999C22.2357 0.231999 22.3077 0.199999 22.3877 0.199999H24.5957C24.7397 0.199999 24.8517 0.263999 24.9317 0.391999L28.8437 6.32C28.8757 6.352 28.9077 6.368 28.9397 6.368C28.9717 6.368 28.9957 6.352 29.0117 6.32L32.9237 0.391999ZM50.6319 2.312C50.6319 2.392 50.5999 2.464 50.5359 2.528C50.4879 2.576 50.4239 2.6 50.3439 2.6H42.1599C42.0799 2.6 42.0399 2.64 42.0399 2.72V7.208C42.0399 7.288 42.0799 7.328 42.1599 7.328H47.6559C47.7359 7.328 47.7999 7.36 47.8479 7.424C47.9119 7.472 47.9439 7.536 47.9439 7.616V9.44C47.9439 9.52 47.9119 9.592 47.8479 9.656C47.7999 9.704 47.7359 9.728 47.6559 9.728H42.1599C42.0799 9.728 42.0399 9.768 42.0399 9.848V14.48C42.0399 14.56 42.0799 14.6 42.1599 14.6H50.3439C50.4239 14.6 50.4879 14.632 50.5359 14.696C50.5999 14.744 50.6319 14.808 50.6319 14.888V16.712C50.6319 16.792 50.5999 16.864 50.5359 16.928C50.4879 16.976 50.4239 17 50.3439 17H39.5439C39.4639 17 39.3919 16.976 39.3279 16.928C39.2799 16.864 39.2559 16.792 39.2559 16.712V0.487999C39.2559 0.408 39.2799 0.343999 39.3279 0.295999C39.3919 0.231999 39.4639 0.199999 39.5439 0.199999H50.3439C50.4239 0.199999 50.4879 0.231999 50.5359 0.295999C50.5999 0.343999 50.6319 0.408 50.6319 0.487999V2.312ZM64.499 0.199999C64.579 0.199999 64.643 0.231999 64.691 0.295999C64.755 0.343999 64.787 0.408 64.787 0.487999V2.336C64.787 2.416 64.755 2.488 64.691 2.552C64.643 2.6 64.579 2.624 64.499 2.624H60.083C60.003 2.624 59.963 2.664 59.963 2.744V16.712C59.963 16.792 59.931 16.864 59.867 16.928C59.819 16.976 59.755 17 59.675 17H57.467C57.387 17 57.315 16.976 57.251 16.928C57.203 16.864 57.179 16.792 57.179 16.712V2.744C57.179 2.664 57.139 2.624 57.059 2.624H52.811C52.731 2.624 52.659 2.6 52.595 2.552C52.547 2.488 52.523 2.416 52.523 2.336V0.487999C52.523 0.408 52.547 0.343999 52.595 0.295999C52.659 0.231999 52.731 0.199999 52.811 0.199999H64.499ZM76.7895 17C76.6295 17 76.5175 16.928 76.4535 16.784L73.2855 9.872C73.2535 9.808 73.2055 9.776 73.1415 9.776H70.2615C70.1815 9.776 70.1415 9.816 70.1415 9.896V16.712C70.1415 16.792 70.1095 16.864 70.0455 16.928C69.9975 16.976 69.9335 17 69.8535 17H67.6455C67.5655 17 67.4935 16.976 67.4295 16.928C67.3815 16.864 67.3575 16.792 67.3575 16.712V0.487999C67.3575 0.408 67.3815 0.343999 67.4295 0.295999C67.4935 0.231999 67.5655 0.199999 67.6455 0.199999H74.2455C75.2215 0.199999 76.0855 0.407999 76.8375 0.823999C77.5895 1.224 78.1735 1.8 78.5895 2.552C79.0055 3.288 79.2135 4.136 79.2135 5.096C79.2135 6.2 78.9255 7.144 78.3495 7.928C77.7895 8.696 77.0055 9.232 75.9975 9.536C75.9655 9.536 75.9415 9.552 75.9255 9.584C75.9095 9.616 75.9095 9.648 75.9255 9.68L79.3095 16.664C79.3415 16.728 79.3575 16.776 79.3575 16.808C79.3575 16.936 79.2695 17 79.0935 17H76.7895ZM70.2615 2.6C70.1815 2.6 70.1415 2.64 70.1415 2.72V7.496C70.1415 7.576 70.1815 7.616 70.2615 7.616H73.8615C74.6295 7.616 75.2455 7.392 75.7095 6.944C76.1895 6.48 76.4295 5.872 76.4295 5.12C76.4295 4.368 76.1895 3.76 75.7095 3.296C75.2455 2.832 74.6295 2.6 73.8615 2.6H70.2615ZM93.0547 17C92.8947 17 92.7907 16.92 92.7427 16.76L91.9507 14.192C91.9187 14.128 91.8787 14.096 91.8307 14.096H85.4947C85.4467 14.096 85.4067 14.128 85.3747 14.192L84.5827 16.76C84.5347 16.92 84.4307 17 84.2707 17H81.8707C81.7747 17 81.7027 16.976 81.6547 16.928C81.6067 16.864 81.5987 16.776 81.6307 16.664L86.8387 0.439999C86.8867 0.279999 86.9907 0.199999 87.1507 0.199999H90.1507C90.3107 0.199999 90.4147 0.279999 90.4627 0.439999L95.6947 16.664C95.7107 16.696 95.7187 16.736 95.7187 16.784C95.7187 16.928 95.6307 17 95.4547 17H93.0547ZM86.1187 11.768C86.1027 11.864 86.1347 11.912 86.2147 11.912H91.0867C91.1827 11.912 91.2147 11.864 91.1827 11.768L88.7107 3.728C88.6947 3.664 88.6707 3.632 88.6387 3.632C88.6067 3.632 88.5827 3.664 88.5667 3.728L86.1187 11.768ZM103.395 17.192C102.195 17.192 101.139 16.96 100.227 16.496C99.3153 16.016 98.6113 15.352 98.1153 14.504C97.6193 13.656 97.3713 12.672 97.3713 11.552V5.624C97.3713 4.504 97.6193 3.52 98.1153 2.672C98.6113 1.824 99.3153 1.168 100.227 0.704C101.139 0.24 102.195 0.0079999 103.395 0.0079999C104.579 0.0079999 105.627 0.232 106.539 0.68C107.451 1.128 108.155 1.76 108.651 2.576C109.147 3.392 109.395 4.336 109.395 5.408C109.395 5.488 109.363 5.56 109.299 5.624C109.251 5.672 109.187 5.696 109.107 5.696L106.899 5.816C106.707 5.816 106.611 5.728 106.611 5.552C106.611 4.608 106.315 3.848 105.723 3.272C105.147 2.696 104.371 2.408 103.395 2.408C102.419 2.408 101.635 2.696 101.043 3.272C100.451 3.848 100.155 4.608 100.155 5.552V11.672C100.155 12.6 100.451 13.352 101.043 13.928C101.635 14.504 102.419 14.792 103.395 14.792C104.371 14.792 105.147 14.512 105.723 13.952C106.315 13.376 106.611 12.616 106.611 11.672C106.611 11.496 106.707 11.408 106.899 11.408L109.107 11.504C109.187 11.504 109.251 11.528 109.299 11.576C109.363 11.624 109.395 11.68 109.395 11.744C109.395 12.832 109.147 13.792 108.651 14.624C108.155 15.44 107.451 16.072 106.539 16.52C105.627 16.968 104.579 17.192 103.395 17.192ZM123.757 2.312C123.757 2.392 123.725 2.464 123.661 2.528C123.613 2.576 123.549 2.6 123.469 2.6H115.285C115.205 2.6 115.165 2.64 115.165 2.72V7.208C115.165 7.288 115.205 7.328 115.285 7.328H120.781C120.861 7.328 120.925 7.36 120.973 7.424C121.037 7.472 121.069 7.536 121.069 7.616V9.44C121.069 9.52 121.037 9.592 120.973 9.656C120.925 9.704 120.861 9.728 120.781 9.728H115.285C115.205 9.728 115.165 9.768 115.165 9.848V14.48C115.165 14.56 115.205 14.6 115.285 14.6H123.469C123.549 14.6 123.613 14.632 123.661 14.696C123.725 14.744 123.757 14.808 123.757 14.888V16.712C123.757 16.792 123.725 16.864 123.661 16.928C123.613 16.976 123.549 17 123.469 17H112.669C112.589 17 112.517 16.976 112.453 16.928C112.405 16.864 112.381 16.792 112.381 16.712V0.487999C112.381 0.408 112.405 0.343999 112.453 0.295999C112.517 0.231999 112.589 0.199999 112.669 0.199999H123.469C123.549 0.199999 123.613 0.231999 123.661 0.295999C123.725 0.343999 123.757 0.408 123.757 0.487999V2.312Z" fill="#112D44"/>
</svg>
