<svg width="117" height="52" viewBox="0 0 117 52" fill="none" xmlns="http://www.w3.org/2000/svg">
<path d="M12.085 0.199999C12.165 0.199999 12.229 0.231999 12.277 0.295999C12.341 0.343999 12.373 0.408 12.373 0.487999V2.336C12.373 2.416 12.341 2.488 12.277 2.552C12.229 2.6 12.165 2.624 12.085 2.624H7.66897C7.58897 2.624 7.54897 2.664 7.54897 2.744V16.712C7.54897 16.792 7.51697 16.864 7.45297 16.928C7.40497 16.976 7.34097 17 7.26097 17H5.05297C4.97297 17 4.90097 16.976 4.83697 16.928C4.78897 16.864 4.76497 16.792 4.76497 16.712V2.744C4.76497 2.664 4.72497 2.624 4.64497 2.624H0.396969C0.316969 2.624 0.244969 2.6 0.180969 2.552C0.132969 2.488 0.108969 2.416 0.108969 2.336V0.487999C0.108969 0.408 0.132969 0.343999 0.180969 0.295999C0.244969 0.231999 0.316969 0.199999 0.396969 0.199999H12.085ZM15.2314 17C15.1514 17 15.0794 16.976 15.0154 16.928C14.9674 16.864 14.9434 16.792 14.9434 16.712V0.487999C14.9434 0.408 14.9674 0.343999 15.0154 0.295999C15.0794 0.231999 15.1514 0.199999 15.2314 0.199999H17.4394C17.5194 0.199999 17.5834 0.231999 17.6314 0.295999C17.6954 0.343999 17.7274 0.408 17.7274 0.487999V16.712C17.7274 16.792 17.6954 16.864 17.6314 16.928C17.5834 16.976 17.5194 17 17.4394 17H15.2314ZM32.0487 0.391999C32.1287 0.263999 32.2407 0.199999 32.3847 0.199999H34.5927C34.6727 0.199999 34.7367 0.231999 34.7847 0.295999C34.8487 0.343999 34.8807 0.408 34.8807 0.487999V16.712C34.8807 16.792 34.8487 16.864 34.7847 16.928C34.7367 16.976 34.6727 17 34.5927 17H32.3847C32.3047 17 32.2327 16.976 32.1687 16.928C32.1207 16.864 32.0967 16.792 32.0967 16.712V5.264C32.0967 5.216 32.0727 5.184 32.0247 5.168C31.9927 5.152 31.9687 5.168 31.9527 5.216L28.9527 9.824C28.8727 9.952 28.7607 10.016 28.6167 10.016H27.5127C27.3687 10.016 27.2567 9.952 27.1767 9.824L24.1527 5.24C24.1367 5.192 24.1047 5.176 24.0567 5.192C24.0247 5.208 24.0087 5.24 24.0087 5.288V16.712C24.0087 16.792 23.9767 16.864 23.9127 16.928C23.8647 16.976 23.8007 17 23.7207 17H21.5127C21.4327 17 21.3607 16.976 21.2967 16.928C21.2487 16.864 21.2247 16.792 21.2247 16.712V0.487999C21.2247 0.408 21.2487 0.343999 21.2967 0.295999C21.3607 0.231999 21.4327 0.199999 21.5127 0.199999H23.7207C23.8647 0.199999 23.9767 0.263999 24.0567 0.391999L27.9687 6.32C28.0007 6.352 28.0327 6.368 28.0647 6.368C28.0967 6.368 28.1207 6.352 28.1367 6.32L32.0487 0.391999ZM49.7569 2.312C49.7569 2.392 49.7249 2.464 49.6609 2.528C49.6129 2.576 49.5489 2.6 49.4689 2.6H41.2849C41.2049 2.6 41.1649 2.64 41.1649 2.72V7.208C41.1649 7.288 41.2049 7.328 41.2849 7.328H46.7809C46.8609 7.328 46.9249 7.36 46.9729 7.424C47.0369 7.472 47.0689 7.536 47.0689 7.616V9.44C47.0689 9.52 47.0369 9.592 46.9729 9.656C46.9249 9.704 46.8609 9.728 46.7809 9.728H41.2849C41.2049 9.728 41.1649 9.768 41.1649 9.848V14.48C41.1649 14.56 41.2049 14.6 41.2849 14.6H49.4689C49.5489 14.6 49.6129 14.632 49.6609 14.696C49.7249 14.744 49.7569 14.808 49.7569 14.888V16.712C49.7569 16.792 49.7249 16.864 49.6609 16.928C49.6129 16.976 49.5489 17 49.4689 17H38.6689C38.5889 17 38.5169 16.976 38.4529 16.928C38.4049 16.864 38.3809 16.792 38.3809 16.712V0.487999C38.3809 0.408 38.4049 0.343999 38.4529 0.295999C38.5169 0.231999 38.5889 0.199999 38.6689 0.199999H49.4689C49.5489 0.199999 49.6129 0.231999 49.6609 0.295999C49.7249 0.343999 49.7569 0.408 49.7569 0.487999V2.312ZM58.2 17.192C57 17.192 55.944 16.96 55.032 16.496C54.12 16.016 53.416 15.352 52.92 14.504C52.424 13.656 52.176 12.672 52.176 11.552V5.624C52.176 4.504 52.424 3.52 52.92 2.672C53.416 1.824 54.12 1.168 55.032 0.704C55.944 0.24 57 0.0079999 58.2 0.0079999C59.384 0.0079999 60.432 0.232 61.344 0.68C62.256 1.128 62.96 1.76 63.456 2.576C63.952 3.392 64.2 4.336 64.2 5.408C64.2 5.488 64.168 5.56 64.104 5.624C64.056 5.672 63.992 5.696 63.912 5.696L61.704 5.816C61.512 5.816 61.416 5.728 61.416 5.552C61.416 4.608 61.12 3.848 60.528 3.272C59.952 2.696 59.176 2.408 58.2 2.408C57.224 2.408 56.44 2.696 55.848 3.272C55.256 3.848 54.96 4.608 54.96 5.552V11.672C54.96 12.6 55.256 13.352 55.848 13.928C56.44 14.504 57.224 14.792 58.2 14.792C59.176 14.792 59.952 14.512 60.528 13.952C61.12 13.376 61.416 12.616 61.416 11.672C61.416 11.496 61.512 11.408 61.704 11.408L63.912 11.504C63.992 11.504 64.056 11.528 64.104 11.576C64.168 11.624 64.2 11.68 64.2 11.744C64.2 12.832 63.952 13.792 63.456 14.624C62.96 15.44 62.256 16.072 61.344 16.52C60.432 16.968 59.384 17.192 58.2 17.192ZM76.3296 0.487999C76.3296 0.408 76.3536 0.343999 76.4016 0.295999C76.4656 0.231999 76.5376 0.199999 76.6176 0.199999H78.8256C78.9056 0.199999 78.9696 0.231999 79.0176 0.295999C79.0816 0.343999 79.1136 0.408 79.1136 0.487999V16.712C79.1136 16.792 79.0816 16.864 79.0176 16.928C78.9696 16.976 78.9056 17 78.8256 17H76.6176C76.5376 17 76.4656 16.976 76.4016 16.928C76.3536 16.864 76.3296 16.792 76.3296 16.712V9.848C76.3296 9.768 76.2896 9.728 76.2096 9.728H70.0896C70.0096 9.728 69.9696 9.768 69.9696 9.848V16.712C69.9696 16.792 69.9376 16.864 69.8736 16.928C69.8256 16.976 69.7616 17 69.6816 17H67.4736C67.3936 17 67.3216 16.976 67.2576 16.928C67.2096 16.864 67.1856 16.792 67.1856 16.712V0.487999C67.1856 0.408 67.2096 0.343999 67.2576 0.295999C67.3216 0.231999 67.3936 0.199999 67.4736 0.199999H69.6816C69.7616 0.199999 69.8256 0.231999 69.8736 0.295999C69.9376 0.343999 69.9696 0.408 69.9696 0.487999V7.208C69.9696 7.288 70.0096 7.328 70.0896 7.328H76.2096C76.2896 7.328 76.3296 7.288 76.3296 7.208V0.487999ZM92.9766 17C92.8166 17 92.7126 16.92 92.6646 16.76L91.8726 14.192C91.8406 14.128 91.8006 14.096 91.7526 14.096H85.4166C85.3686 14.096 85.3286 14.128 85.2966 14.192L84.5046 16.76C84.4566 16.92 84.3526 17 84.1926 17H81.7926C81.6966 17 81.6246 16.976 81.5766 16.928C81.5286 16.864 81.5206 16.776 81.5526 16.664L86.7606 0.439999C86.8086 0.279999 86.9126 0.199999 87.0726 0.199999H90.0726C90.2326 0.199999 90.3366 0.279999 90.3846 0.439999L95.6166 16.664C95.6326 16.696 95.6406 16.736 95.6406 16.784C95.6406 16.928 95.5526 17 95.3766 17H92.9766ZM86.0406 11.768C86.0246 11.864 86.0566 11.912 86.1366 11.912H91.0086C91.1046 11.912 91.1366 11.864 91.1046 11.768L88.6326 3.728C88.6166 3.664 88.5926 3.632 88.5606 3.632C88.5286 3.632 88.5046 3.664 88.4886 3.728L86.0406 11.768ZM98.4111 17C98.3311 17 98.2591 16.976 98.1951 16.928C98.1471 16.864 98.1231 16.792 98.1231 16.712V0.487999C98.1231 0.408 98.1471 0.343999 98.1951 0.295999C98.2591 0.231999 98.3311 0.199999 98.4111 0.199999H100.619C100.699 0.199999 100.763 0.231999 100.811 0.295999C100.875 0.343999 100.907 0.408 100.907 0.487999V16.712C100.907 16.792 100.875 16.864 100.811 16.928C100.763 16.976 100.699 17 100.619 17H98.4111ZM114.172 0.487999C114.172 0.408 114.196 0.343999 114.244 0.295999C114.308 0.231999 114.38 0.199999 114.46 0.199999H116.668C116.748 0.199999 116.812 0.231999 116.86 0.295999C116.924 0.343999 116.956 0.408 116.956 0.487999V16.712C116.956 16.792 116.924 16.864 116.86 16.928C116.812 16.976 116.748 17 116.668 17H114.532C114.372 17 114.26 16.936 114.196 16.808L107.284 5.48C107.252 5.432 107.22 5.416 107.188 5.432C107.156 5.432 107.14 5.464 107.14 5.528L107.188 16.712C107.188 16.792 107.156 16.864 107.092 16.928C107.044 16.976 106.98 17 106.9 17H104.692C104.612 17 104.54 16.976 104.476 16.928C104.428 16.864 104.404 16.792 104.404 16.712V0.487999C104.404 0.408 104.428 0.343999 104.476 0.295999C104.54 0.231999 104.612 0.199999 104.692 0.199999H106.828C106.988 0.199999 107.1 0.263999 107.164 0.391999L114.052 11.72C114.084 11.768 114.116 11.792 114.148 11.792C114.18 11.776 114.196 11.736 114.196 11.672L114.172 0.487999ZM21.4257 51C21.2497 51 21.1377 50.92 21.0897 50.76L16.7217 34.512L16.6977 34.416C16.6977 34.272 16.7857 34.2 16.9617 34.2H19.3137C19.4897 34.2 19.6017 34.28 19.6497 34.44L22.3857 45.384C22.4017 45.432 22.4257 45.456 22.4577 45.456C22.4897 45.456 22.5137 45.432 22.5297 45.384L25.1457 34.44C25.1937 34.28 25.2977 34.2 25.4577 34.2H27.7617C27.9377 34.2 28.0497 34.28 28.0977 34.44L30.8817 45.408C30.8977 45.456 30.9217 45.48 30.9537 45.48C30.9857 45.48 31.0097 45.456 31.0257 45.408L33.7137 34.44C33.7617 34.28 33.8737 34.2 34.0497 34.2H36.2817C36.5057 34.2 36.5937 34.304 36.5457 34.512L32.3937 50.76C32.3457 50.92 32.2337 51 32.0577 51H29.8257C29.6497 51 29.5377 50.92 29.4897 50.76L26.6817 39.312C26.6657 39.264 26.6417 39.24 26.6097 39.24C26.5777 39.224 26.5537 39.248 26.5377 39.312L23.8497 50.76C23.8017 50.92 23.6977 51 23.5377 51H21.4257ZM39.208 51C39.128 51 39.056 50.976 38.992 50.928C38.944 50.864 38.92 50.792 38.92 50.712V34.488C38.92 34.408 38.944 34.344 38.992 34.296C39.056 34.232 39.128 34.2 39.208 34.2H41.416C41.496 34.2 41.56 34.232 41.608 34.296C41.672 34.344 41.704 34.408 41.704 34.488V50.712C41.704 50.792 41.672 50.864 41.608 50.928C41.56 50.976 41.496 51 41.416 51H39.208ZM45.4892 51C45.4092 51 45.3372 50.976 45.2732 50.928C45.2252 50.864 45.2012 50.792 45.2012 50.712V34.488C45.2012 34.408 45.2252 34.344 45.2732 34.296C45.3372 34.232 45.4092 34.2 45.4892 34.2H51.3452C52.4812 34.2 53.4812 34.4 54.3452 34.8C55.2092 35.2 55.8732 35.776 56.3372 36.528C56.8172 37.264 57.0572 38.128 57.0572 39.12V46.08C57.0572 47.072 56.8172 47.944 56.3372 48.696C55.8732 49.432 55.2092 50 54.3452 50.4C53.4812 50.8 52.4812 51 51.3452 51H45.4892ZM47.9852 48.48C47.9852 48.56 48.0252 48.6 48.1052 48.6H51.4652C52.3132 48.6 52.9852 48.336 53.4812 47.808C53.9932 47.264 54.2572 46.544 54.2732 45.648V39.576C54.2732 38.664 54.0172 37.944 53.5052 37.416C52.9932 36.872 52.3052 36.6 51.4412 36.6H48.1052C48.0252 36.6 47.9852 36.64 47.9852 36.72V48.48ZM65.6297 51.192C64.4297 51.192 63.3737 50.96 62.4617 50.496C61.5497 50.016 60.8457 49.344 60.3497 48.48C59.8537 47.616 59.6057 46.624 59.6057 45.504V39.696C59.6057 38.56 59.8537 37.568 60.3497 36.72C60.8457 35.856 61.5497 35.192 62.4617 34.728C63.3737 34.248 64.4297 34.008 65.6297 34.008C66.8137 34.008 67.8537 34.24 68.7497 34.704C69.6617 35.168 70.3657 35.8 70.8617 36.6C71.3577 37.4 71.6057 38.304 71.6057 39.312V39.504C71.6057 39.584 71.5737 39.656 71.5097 39.72C71.4617 39.768 71.3977 39.792 71.3177 39.792H69.1337C69.0537 39.792 68.9817 39.768 68.9177 39.72C68.8697 39.656 68.8457 39.584 68.8457 39.504V39.384C68.8457 38.52 68.5497 37.808 67.9577 37.248C67.3817 36.688 66.6057 36.408 65.6297 36.408C64.6537 36.408 63.8697 36.704 63.2777 37.296C62.6857 37.872 62.3897 38.64 62.3897 39.6V45.6C62.3897 46.56 62.7017 47.336 63.3257 47.928C63.9497 48.504 64.7577 48.792 65.7497 48.792C66.7097 48.792 67.4617 48.544 68.0057 48.048C68.5657 47.536 68.8457 46.84 68.8457 45.96V44.472C68.8457 44.392 68.8057 44.352 68.7257 44.352H65.7737C65.6937 44.352 65.6217 44.328 65.5577 44.28C65.5097 44.216 65.4857 44.144 65.4857 44.064V42.288C65.4857 42.208 65.5097 42.144 65.5577 42.096C65.6217 42.032 65.6937 42 65.7737 42H71.3177C71.3977 42 71.4617 42.032 71.5097 42.096C71.5737 42.144 71.6057 42.208 71.6057 42.288V45.36C71.6057 47.2 71.0617 48.632 69.9737 49.656C68.9017 50.68 67.4537 51.192 65.6297 51.192ZM86.1085 36.312C86.1085 36.392 86.0765 36.464 86.0125 36.528C85.9645 36.576 85.9005 36.6 85.8205 36.6H77.6365C77.5565 36.6 77.5165 36.64 77.5165 36.72V41.208C77.5165 41.288 77.5565 41.328 77.6365 41.328H83.1325C83.2125 41.328 83.2765 41.36 83.3245 41.424C83.3885 41.472 83.4205 41.536 83.4205 41.616V43.44C83.4205 43.52 83.3885 43.592 83.3245 43.656C83.2765 43.704 83.2125 43.728 83.1325 43.728H77.6365C77.5565 43.728 77.5165 43.768 77.5165 43.848V48.48C77.5165 48.56 77.5565 48.6 77.6365 48.6H85.8205C85.9005 48.6 85.9645 48.632 86.0125 48.696C86.0765 48.744 86.1085 48.808 86.1085 48.888V50.712C86.1085 50.792 86.0765 50.864 86.0125 50.928C85.9645 50.976 85.9005 51 85.8205 51H75.0205C74.9405 51 74.8685 50.976 74.8045 50.928C74.7565 50.864 74.7325 50.792 74.7325 50.712V34.488C74.7325 34.408 74.7565 34.344 74.8045 34.296C74.8685 34.232 74.9405 34.2 75.0205 34.2H85.8205C85.9005 34.2 85.9645 34.232 86.0125 34.296C86.0765 34.344 86.1085 34.408 86.1085 34.488V36.312ZM98.3676 51C98.2076 51 98.0956 50.928 98.0316 50.784L94.8636 43.872C94.8316 43.808 94.7836 43.776 94.7196 43.776H91.8396C91.7596 43.776 91.7196 43.816 91.7196 43.896V50.712C91.7196 50.792 91.6876 50.864 91.6236 50.928C91.5756 50.976 91.5116 51 91.4316 51H89.2236C89.1436 51 89.0716 50.976 89.0076 50.928C88.9596 50.864 88.9356 50.792 88.9356 50.712V34.488C88.9356 34.408 88.9596 34.344 89.0076 34.296C89.0716 34.232 89.1436 34.2 89.2236 34.2H95.8236C96.7996 34.2 97.6636 34.408 98.4156 34.824C99.1676 35.224 99.7516 35.8 100.168 36.552C100.584 37.288 100.792 38.136 100.792 39.096C100.792 40.2 100.504 41.144 99.9276 41.928C99.3676 42.696 98.5836 43.232 97.5756 43.536C97.5436 43.536 97.5196 43.552 97.5036 43.584C97.4876 43.616 97.4876 43.648 97.5036 43.68L100.888 50.664C100.92 50.728 100.936 50.776 100.936 50.808C100.936 50.936 100.848 51 100.672 51H98.3676ZM91.8396 36.6C91.7596 36.6 91.7196 36.64 91.7196 36.72V41.496C91.7196 41.576 91.7596 41.616 91.8396 41.616H95.4396C96.2076 41.616 96.8236 41.392 97.2876 40.944C97.7676 40.48 98.0076 39.872 98.0076 39.12C98.0076 38.368 97.7676 37.76 97.2876 37.296C96.8236 36.832 96.2076 36.6 95.4396 36.6H91.8396Z" fill="#112D44"/>
</svg>
